<?xml version="1.0" standalone="no"?>
<!DOCTYPE svg PUBLIC "-//W3C//DTD SVG 1.1//EN" "http://www.w3.org/Graphics/SVG/1.1/DTD/svg11.dtd" >
<svg xmlns="http://www.w3.org/2000/svg" xmlns:xlink="http://www.w3.org/1999/xlink" version="1.1">
<metadata>
Created by FontForge 20161013 at Tue Aug  7 22:36:07 2012
 By ,,,
(c) FontSite Inc., 1996-2012. All Rights Reserved. www.fontsite.com
</metadata>
<defs>
<font id="FoundationSans-Bold" horiz-adv-x="500" >
  <font-face 
    font-family="Foundation Sans"
    font-weight="700"
    font-stretch="normal"
    units-per-em="1000"
    panose-1="2 11 7 4 2 2 2 2 2 4"
    ascent="825"
    descent="-175"
    x-height="483"
    cap-height="667"
    bbox="-134 -263 1016 893"
    underline-thickness="92"
    underline-position="-285"
    unicode-range="U+0020-FB02"
  />
<missing-glyph 
d="M50 0v668h400v-668h-400zM250 382l128 240h-256zM404 94v479l-128 -239zM96 94l128 240l-128 239v-479zM122 46h256l-128 240z" />
    <glyph glyph-name="f_i" unicode="fi" horiz-adv-x="581" 
d="M376 550v117h142v-117h-142zM76 0v377h-67v100h67v35q0 155 156 155h78v-113h-42q-50 0 -50 -43v-34h92v-100h-92v-377h-142zM376 0v483h142v-483h-142z" />
    <glyph glyph-name="f_l" unicode="fl" horiz-adv-x="581" 
d="M376 0v667h142v-667h-142zM76 0v377h-67v100h67v35q0 155 156 155h78v-113h-42q-50 0 -50 -43v-34h92v-100h-92v-377h-142z" />
    <glyph glyph-name=".notdef" 
d="M50 0v668h400v-668h-400zM250 382l128 240h-256zM404 94v479l-128 -239zM96 94l128 240l-128 239v-479zM122 46h256l-128 240z" />
    <glyph glyph-name=".null" horiz-adv-x="0" 
 />
    <glyph glyph-name="nonmarkingreturn" horiz-adv-x="333" 
 />
    <glyph glyph-name="space" unicode=" " horiz-adv-x="300" 
 />
    <glyph glyph-name="exclam" unicode="!" horiz-adv-x="273" 
d="M99 191l-32 256v220h140v-220l-32 -256h-76zM67 0v140h140v-140h-140z" />
    <glyph glyph-name="quotedbl" unicode="&#x22;" horiz-adv-x="435" 
d="M268 400l-28 267h167l-29 -267h-110zM55 400l-28 267h168l-29 -267h-111z" />
    <glyph glyph-name="numbersign" unicode="#" horiz-adv-x="643" 
d="M155 40l25 173h-107l10 69h107l13 95h-107l10 70h107l22 159h72l-23 -159h100l23 159h71l-22 -159h114l-10 -70h-114l-13 -95h114l-10 -69h-114l-24 -173h-72l24 173h-100l-24 -173h-72zM261 282h100l14 95h-101z" />
    <glyph glyph-name="dollar" unicode="$" horiz-adv-x="560" 
d="M3 206h144q4 -47 29 -70.5t76 -28.5v168q-49 10 -103 30q-132 47 -132 172q0 86 63.5 141t171.5 62v70h61v-70q97 -7 155.5 -60t68.5 -144h-141q-9 73 -83 84v-155q71 -16 108 -28q136 -45 136 -177q0 -88 -65 -145t-179 -68v-85h-61v85q-114 7 -179.5 64.5t-69.5 154.5z
M252 417v143q-26 -4 -37 -8q-23 -8 -37 -25t-14 -37q0 -53 88 -73zM313 107q43 4 68.5 24t25.5 50q0 31 -22 50t-72 30v-154z" />
    <glyph glyph-name="percent" unicode="%" horiz-adv-x="715" 
d="M171 317q-66 0 -105 48t-39 129q0 80 39 128t104 48q67 0 105.5 -48t38.5 -131q0 -79 -39 -126.5t-104 -47.5zM186 0l264 667h74l-264 -667h-74zM171 382q63 0 63 110q0 113 -64 113q-63 0 -63 -111q0 -112 64 -112zM402 174q0 80 39 128t104 48q67 0 105.5 -48
t38.5 -131q0 -79 -39 -126.5t-104 -47.5q-66 0 -105 48t-39 129zM482 174q0 -112 64 -112q63 0 63 110q0 113 -64 113q-63 0 -63 -111z" />
    <glyph glyph-name="ampersand" unicode="&#x26;" horiz-adv-x="626" 
d="M475 0l-43 55q-95 -68 -192 -68q-87 0 -143.5 52.5t-56.5 132.5q0 61 33.5 107.5t113.5 96.5q-65 77 -65 146q0 67 48.5 111t122.5 44q76 0 127 -46t51 -115q0 -46 -23 -79.5t-90 -82.5l81 -107q28 35 33 106h119q-13 -113 -74 -207l116 -146h-158zM289 439l7 4
q58 33 58 72q0 23 -15.5 37.5t-40.5 14.5q-23 0 -38.5 -13t-15.5 -33q0 -26 45 -82zM359 151l-99 130q-52 -29 -72.5 -52t-20.5 -54q0 -32 23.5 -53.5t60.5 -21.5q51 0 108 51z" />
    <glyph glyph-name="quotesingle" unicode="'" horiz-adv-x="227" 
d="M56 400l-29 267h172l-28 -267h-115z" />
    <glyph glyph-name="parenleft" unicode="(" horiz-adv-x="371" 
d="M206 -160q-80 113 -116.5 214.5t-36.5 212.5q0 213 141 406h127q-123 -159 -123 -404q0 -114 29 -215t94 -214h-115z" />
    <glyph glyph-name="parenright" unicode=")" horiz-adv-x="371" 
d="M50 -160q123 170 123 405q0 222 -123 428h115q153 -203 153 -426q0 -150 -66 -284q-23 -47 -76 -123h-126z" />
    <glyph glyph-name="asterisk" unicode="*" horiz-adv-x="407" 
d="M141 356l-65 47l64 88l-103 32l25 77l102 -34v107h80l-1 -107l103 34l25 -77l-103 -32l64 -88l-65 -47l-63 88z" />
    <glyph glyph-name="plus" unicode="+" 
d="M212 123v199h-202v73h202v200h75v-200h204v-73h-204v-199h-75z" />
    <glyph glyph-name="comma" unicode="," horiz-adv-x="260" 
d="M60 0v140h140v-120q0 -148 -145 -180v56q34 13 53 40.5t21 63.5h-69z" />
    <glyph glyph-name="hyphen" unicode="-" horiz-adv-x="272" 
d="M0 183v128h272v-128h-272z" />
    <glyph glyph-name="period" unicode="." horiz-adv-x="260" 
d="M60 0v140h140v-140h-140z" />
    <glyph glyph-name="slash" unicode="/" horiz-adv-x="434" 
d="M17 0l277 667h121l-277 -667h-121z" />
    <glyph glyph-name="zero" unicode="0" horiz-adv-x="560" 
d="M91 100q-47 85 -47 231q0 148 47 231q30 53 79.5 82.5t108.5 29.5q61 0 111 -29.5t79 -82.5q47 -84 47 -236q0 -141 -47 -226q-29 -53 -79 -83t-110 -30t-110.5 30t-78.5 83zM280 107q99 0 99 221q0 226 -99 226t-99 -223q0 -224 99 -224z" />
    <glyph glyph-name="one" unicode="1" horiz-adv-x="560" 
d="M265 0v457h-176v92q100 1 138.5 23t56.5 88h124v-660h-143z" />
    <glyph glyph-name="two" unicode="2" horiz-adv-x="560" 
d="M41 0q12 99 56 159t179 163q94 73 94 142q0 39 -24.5 63t-64.5 24q-58 0 -82 -49q-11 -24 -14 -76h-133q3 97 38 152q63 96 196 96q103 0 167.5 -59.5t64.5 -153.5q0 -93 -76 -165q-31 -29 -135 -104q-62 -44 -82 -72h292v-120h-476z" />
    <glyph glyph-name="three" unicode="3" horiz-adv-x="560" 
d="M42 223h135q1 -53 17 -76q28 -43 83 -43q42 0 67.5 26.5t25.5 71.5q0 94 -107 94q-20 0 -40 -1v102q24 -1 37 -1q50 0 78.5 22.5t28.5 62.5q0 35 -23.5 57t-61.5 22q-55 0 -81 -42q-13 -21 -13 -68h-133q2 108 61.5 166t166.5 58q96 0 156.5 -51.5t60.5 -133.5
q0 -85 -77 -137q94 -43 94 -148q0 -97 -66 -157t-172 -60q-111 0 -173 62t-64 174z" />
    <glyph glyph-name="four" unicode="4" horiz-adv-x="560" 
d="M51 139v150l219 371h179v-408h75v-113h-75v-139h-138v139h-260zM161 252h150v133q0 53 1 81q0 32 2 51l-17 -29l-28 -47q-4 -11 -24 -44z" />
    <glyph glyph-name="five" unicode="5" horiz-adv-x="560" 
d="M58 187h144q5 -40 28 -61.5t60 -21.5q44 0 70.5 31.5t26.5 83.5q0 50 -25.5 79t-68.5 29q-42 0 -77 -32h-138l41 365h378v-117h-272l-14 -121q51 18 102 18q97 0 156.5 -60.5t59.5 -159.5q0 -106 -65 -169.5t-175 -63.5q-101 0 -160.5 52t-70.5 148z" />
    <glyph glyph-name="six" unicode="6" horiz-adv-x="560" 
d="M508 488h-132q-13 83 -77 83q-101 0 -105 -181q56 43 123 43q91 0 147 -60t56 -158q0 -103 -60.5 -165.5t-160.5 -62.5q-121 0 -183 86.5t-62 254.5q0 171 63.5 258.5t186.5 87.5q87 0 140.5 -48.5t63.5 -137.5zM205 210q0 -53 24 -83t67 -30q42 0 66.5 30t24.5 81
q0 55 -24 85t-67 30t-67 -30t-24 -83z" />
    <glyph glyph-name="seven" unicode="7" horiz-adv-x="560" 
d="M122 0q12 284 227 537h-297v123h462v-115q-102 -83 -168.5 -238.5t-65.5 -306.5h-158z" />
    <glyph glyph-name="eight" unicode="8" horiz-adv-x="560" 
d="M49 194q0 116 109 167q-89 43 -89 137q0 77 59.5 126.5t152.5 49.5q92 0 151.5 -49.5t59.5 -126.5q0 -95 -89 -137q109 -51 109 -167q0 -92 -64.5 -149.5t-167.5 -57.5t-167 57.5t-64 149.5zM281 409q35 0 56.5 21.5t21.5 56.5q0 36 -21.5 58t-57.5 22q-35 0 -56.5 -22
t-21.5 -57t22 -57t57 -22zM182 203q0 -45 27.5 -74t70.5 -29t71 29t28 73q0 46 -27.5 75t-71.5 29q-43 0 -70.5 -29t-27.5 -74z" />
    <glyph glyph-name="nine" unicode="9" horiz-adv-x="560" 
d="M52 172h133q13 -81 77 -81q102 0 104 177q-57 -42 -120 -42q-92 0 -149 61.5t-57 159.5q0 101 61.5 164t160.5 63q119 0 182 -87.5t63 -253.5q0 -346 -245 -346q-179 0 -210 185zM263 336q41 0 66 31t25 82q0 53 -24.5 84t-66.5 31q-41 0 -65.5 -31t-24.5 -83t24.5 -83
t65.5 -31z" />
    <glyph glyph-name="colon" unicode=":" horiz-adv-x="260" 
d="M60 327v140h140v-140h-140zM60 0v140h140v-140h-140z" />
    <glyph glyph-name="semicolon" unicode=";" horiz-adv-x="260" 
d="M60 327v140h140v-140h-140zM60 0v140h140v-120q0 -148 -145 -180v56q34 13 53 40.5t21 63.5h-69z" />
    <glyph glyph-name="less" unicode="&#x3c;" 
d="M33 273v129l433 229v-154l-270 -140l269 -141l1 -152z" />
    <glyph glyph-name="equal" unicode="=" 
d="M9 399v70h481v-70h-481zM9 248v71h481v-71h-481z" />
    <glyph glyph-name="greater" unicode="&#x3e;" 
d="M33 44v153l270 141l-269 140l-1 153l433 -229v-130z" />
    <glyph glyph-name="question" unicode="?" horiz-adv-x="533" 
d="M218 194q0 79 14 108t73 76q41 32 54.5 51t13.5 44q0 40 -29 65t-74 25q-111 0 -114 -112h-129q3 105 70 167t177 62q104 0 168 -55.5t64 -146.5q0 -67 -40 -117q-19 -23 -81 -71q-23 -18 -32.5 -39.5t-8.5 -56.5h-126zM215 0v140h140v-140h-140z" />
    <glyph glyph-name="at" unicode="@" horiz-adv-x="675" 
d="M590 170l56 -1q-38 -79 -119.5 -128.5t-174.5 -49.5q-139 0 -236 97.5t-97 236.5q0 140 97.5 237t238.5 97q125 0 213 -80.5t88 -195.5t-89 -185q-63 -48 -123 -48q-53 0 -70 44q-57 -45 -105 -45q-52 0 -85 36.5t-33 93.5q0 83 60 152.5t131 69.5q62 0 95 -52l13 36h77
l-78 -237q-9 -26 -9 -36t8 -16.5t19 -6.5q42 0 87 50q53 61 53 140q0 97 -73.5 165.5t-178.5 68.5q-119 0 -201 -83.5t-82 -204.5t82 -204t201 -83q71 0 135 36t100 96zM380 289l22 63q11 30 11 51q0 23 -13.5 39t-33.5 16q-43 0 -83 -57q-19 -28 -33.5 -72.5t-14.5 -76.5
q0 -29 13 -46.5t35 -17.5q62 0 97 101z" />
    <glyph glyph-name="A" unicode="A" horiz-adv-x="632" 
d="M0 0l233 667h187l212 -667h-170l-36 134h-221l-42 -134h-163zM242 257h151l-70 261z" />
    <glyph glyph-name="B" unicode="B" horiz-adv-x="651" 
d="M71 0v667h271q117 0 175 -34q35 -21 55.5 -57.5t20.5 -78.5q0 -94 -94 -140q58 -28 84 -66.5t26 -96.5q0 -98 -69 -150q-32 -25 -73 -34.5t-112 -9.5h-284zM218 408h143q82 0 82 65q0 66 -82 66h-143v-131zM218 128h141q97 0 97 81t-97 81h-141v-162z" />
    <glyph glyph-name="C" unicode="C" horiz-adv-x="689" 
d="M503 230h159q-14 -113 -93 -179t-203 -66q-148 0 -235.5 94.5t-87.5 254.5t86.5 254t235.5 94q121 0 198.5 -61t90.5 -167h-153q-10 48 -46 74.5t-89 26.5q-82 0 -127.5 -58t-45.5 -163q0 -104 45 -163t124 -59q72 0 113 49q19 25 28 69z" />
    <glyph glyph-name="D" unicode="D" horiz-adv-x="688" 
d="M71 0v667h226q102 0 161.5 -20.5t104.5 -71.5q82 -93 82 -238q0 -154 -87 -249q-44 -47 -103.5 -67.5t-152.5 -20.5h-231zM221 128h101q97 0 137 65q33 55 33 141q0 83 -32 138q-38 67 -128 67h-111v-411z" />
    <glyph glyph-name="E" unicode="E" horiz-adv-x="613" 
d="M71 0v667h497v-128h-347v-130h303v-118h-303v-163h353v-128h-503z" />
    <glyph glyph-name="F" unicode="F" horiz-adv-x="587" 
d="M71 0v667h490v-128h-340v-149h298v-123h-298v-267h-150z" />
    <glyph glyph-name="G" unicode="G" horiz-adv-x="716" 
d="M569 0l-21 85q-35 -54 -81 -77t-119 -23q-141 0 -223 92t-82 252t88.5 256.5t235.5 96.5q110 0 187 -58.5t100 -158.5l-145 -9q-12 47 -49 73t-91 26q-82 0 -129 -58t-47 -158q0 -108 46 -169t128 -61q64 0 108.5 37t55.5 100h-163v123h291v-369h-90z" />
    <glyph glyph-name="H" unicode="H" horiz-adv-x="687" 
d="M71 0v667h150v-251h245v251h150v-667h-150v288h-245v-288h-150z" />
    <glyph glyph-name="I" unicode="I" horiz-adv-x="291" 
d="M71 0v667h150v-667h-150z" />
    <glyph glyph-name="J" unicode="J" horiz-adv-x="519" 
d="M10 164v91h142v-68q0 -75 73 -75t73 75v480h150v-481q0 -99 -61 -150t-161 -51q-98 0 -157 49t-59 130z" />
    <glyph glyph-name="K" unicode="K" horiz-adv-x="654" 
d="M71 0v667h147v-246l225 246h197l-260 -263l282 -404h-180l-202 302l-62 -63v-239h-147z" />
    <glyph glyph-name="L" unicode="L" horiz-adv-x="560" 
d="M71 0v667h150v-539h326v-128h-476z" />
    <glyph glyph-name="M" unicode="M" horiz-adv-x="801" 
d="M71 0v667h211l85 -349q17 -67 32 -151q1 4 2 9.5t1.5 8t0.5 3.5l11 43l10 45q10 42 10 44l87 347h209v-667h-137v348l1 64q0 28 2 52l-21 -76q-8 -30 -10 -32l-91 -356h-148l-92 355l-9 37l-8 28q-6 24 -12 44q2 -24 2 -52l1 -64v-348h-137z" />
    <glyph glyph-name="N" unicode="N" horiz-adv-x="683" 
d="M71 0v667h156l184 -332q5 -10 68 -135q-2 27 -2 65l-1 50v48v304h137v-667h-150l-189 341l-69 130q2 -35 2 -80q1 -36 1 -117v-274h-137z" />
    <glyph glyph-name="O" unicode="O" horiz-adv-x="748" 
d="M43 334q0 169 103 263q93 85 227 85q151 0 241.5 -96.5t90.5 -257.5q0 -152 -92 -247.5t-239 -95.5q-149 0 -240 96t-91 253zM200 334q0 -104 46 -163t128 -59q80 0 127 59t47 160q0 106 -46 165t-128 59t-128 -58.5t-46 -162.5z" />
    <glyph glyph-name="P" unicode="P" horiz-adv-x="610" 
d="M71 0v667h262q69 0 109.5 -11.5t72.5 -39.5q72 -64 72 -174q0 -94 -57 -154q-58 -61 -168 -61h-141v-227h-150zM221 355h118q44 0 69.5 24.5t25.5 67.5t-25.5 67.5t-69.5 24.5h-118v-184z" />
    <glyph glyph-name="Q" unicode="Q" horiz-adv-x="748" 
d="M627 -45l-82 73q-77 -43 -172 -43q-148 0 -239 96.5t-91 252.5t91.5 252t239.5 96t239.5 -96t91.5 -251q0 -137 -67 -224l73 -65zM470 262l56 -51q22 52 22 124q0 103 -46.5 161.5t-127.5 58.5q-82 0 -128 -58.5t-46 -162.5t46.5 -163t128.5 -59q33 0 63 12l-51 45z" />
    <glyph glyph-name="R" unicode="R" horiz-adv-x="651" 
d="M71 0v667h291q119 0 174 -40q64 -47 64 -140q0 -120 -111 -161q50 -16 70 -47t24 -97l5 -95q2 -51 27 -87h-147q-14 11 -19 22t-6 36l-6 91q-4 61 -32.5 89.5t-86.5 28.5h-100v-267h-147zM218 385h147q41 0 63 20t22 57t-22 57t-63 20h-147v-154z" />
    <glyph glyph-name="S" unicode="S" horiz-adv-x="634" 
d="M33 220h150q2 -57 35.5 -83.5t101.5 -26.5q58 0 91 20t33 55q0 50 -72 68l-121 30q-104 26 -145 62q-53 45 -53 131q0 97 71 151.5t197 54.5q162 0 227 -95q31 -46 39 -129h-150v11q0 41 -32 64.5t-88 23.5q-53 0 -83.5 -18t-30.5 -50q0 -44 61 -57l135 -31
q101 -23 147 -66q51 -47 51 -127q0 -104 -74.5 -163.5t-204.5 -59.5q-135 0 -209.5 61.5t-75.5 173.5z" />
    <glyph glyph-name="T" unicode="T" horiz-adv-x="567" 
d="M209 0v539h-202v128h554v-128h-202v-539h-150z" />
    <glyph glyph-name="U" unicode="U" horiz-adv-x="677" 
d="M606 667v-451q0 -121 -72 -174q-79 -57 -196 -57q-116 0 -195 57q-72 53 -72 174v451h150v-441q0 -58 27 -84q33 -30 90 -30q58 0 91 30q27 26 27 84v441h150z" />
    <glyph glyph-name="V" unicode="V" horiz-adv-x="591" 
d="M220 0l-220 667h161l88 -304l13 -48l16 -58l20 -74q28 114 47 181l89 303h157l-223 -667h-148z" />
    <glyph glyph-name="W" unicode="W" horiz-adv-x="841" 
d="M180 0l-180 667h149l72 -299q14 -60 37 -166q16 113 28 166l63 299h144l62 -304q20 -100 29 -161q29 142 34 161l74 304h149l-186 -667h-140l-61 278q-27 123 -33 173q-20 -110 -34 -173l-63 -278h-144z" />
    <glyph glyph-name="X" unicode="X" horiz-adv-x="611" 
d="M0 0l221 354l-206 313h166l122 -196l109 196h177l-200 -313l222 -354h-174l-134 235l-130 -235h-173z" />
    <glyph glyph-name="Y" unicode="Y" horiz-adv-x="566" 
d="M208 0v251l-221 416h167l127 -277l135 277h164l-222 -416v-251h-150z" />
    <glyph glyph-name="Z" unicode="Z" horiz-adv-x="611" 
d="M24 0v116l359 423h-342v128h538v-115l-357 -424h365v-128h-563z" />
    <glyph glyph-name="bracketleft" unicode="[" horiz-adv-x="406" 
d="M73 -160v833h279v-113h-139v-607h139v-113h-279z" />
    <glyph glyph-name="backslash" unicode="\" horiz-adv-x="434" 
d="M296 0l-277 667h121l277 -667h-121z" />
    <glyph glyph-name="bracketright" unicode="]" horiz-adv-x="406" 
d="M53 -47h139v607h-139v113h279v-833h-279v113z" />
    <glyph glyph-name="asciicircum" unicode="^" 
d="M14 349l150 322h172l150 -322h-137l-99 218l-99 -218h-137z" />
    <glyph glyph-name="underscore" unicode="_" 
d="M0 -55h500v-92h-500v92z" />
    <glyph glyph-name="grave" unicode="`" 
d="M211 532l-113 137h163l47 -137h-97z" />
    <glyph glyph-name="a" unicode="a" horiz-adv-x="556" 
d="M511 0h-145q-2 6 -11 38q-36 -29 -65.5 -40t-73.5 -11q-79 0 -128 42t-49 110q0 67 45 104.5t147 54.5l77 13q24 4 33.5 11.5t9.5 21.5q0 21 -20 33t-55 12q-76 0 -85 -58h-127q13 166 214 166q110 0 167 -51q26 -23 37 -55t11 -86v-222q0 -38 3 -51.5t15 -31.5zM303 215
l-51 -11q-73 -16 -73 -58q0 -24 19.5 -37.5t52.5 -13.5q70 0 104 61v74q-22 -9 -52 -15z" />
    <glyph glyph-name="b" unicode="b" horiz-adv-x="582" 
d="M63 0v667h142v-218q65 48 133 48q92 0 149 -69t57 -180q0 -114 -60 -187.5t-154 -73.5q-44 0 -73 15t-58 53v-55h-136zM199 242q0 -63 28.5 -101.5t74.5 -38.5t74 38t28 100q0 66 -27.5 104t-74.5 38q-46 0 -74.5 -38.5t-28.5 -101.5z" />
    <glyph glyph-name="c" unicode="c" horiz-adv-x="536" 
d="M373 185l138 -7q-15 -91 -75.5 -141t-156.5 -50q-110 0 -175 68.5t-65 184.5q0 119 65 187.5t180 68.5q95 0 154.5 -50.5t66.5 -136.5h-135q-6 34 -29.5 53t-58.5 19q-49 0 -74.5 -35.5t-25.5 -101.5q0 -142 101 -142q74 0 90 83z" />
    <glyph glyph-name="d" unicode="d" horiz-adv-x="582" 
d="M384 0v52q-27 -35 -58 -50t-75 -15q-96 0 -154.5 70t-58.5 184q0 116 59.5 186t156.5 70q75 0 124 -50v220h142v-667h-136zM280 102q46 0 74.5 38.5t28.5 99.5q0 64 -28 103t-75 39q-46 0 -74 -38.5t-28 -101.5t28 -101.5t74 -38.5z" />
    <glyph glyph-name="e" unicode="e" horiz-adv-x="564" 
d="M375 141h144q-20 -71 -83 -112.5t-149 -41.5q-112 0 -180 70t-68 184q0 112 69 183.5t178 71.5q76 0 132 -37t83 -105q24 -59 24 -154h-343q7 -49 35 -75.5t74 -26.5q55 0 84 43zM183 300h196q-5 42 -29 65t-65 23t-67.5 -23t-34.5 -65z" />
    <glyph glyph-name="f" unicode="f" horiz-adv-x="314" 
d="M76 0v377h-67v100h67v35q0 155 156 155h78v-113h-42q-50 0 -50 -43v-34h92v-100h-92v-377h-142z" />
    <glyph glyph-name="g" unicode="g" horiz-adv-x="587" 
d="M61 -12h147q15 -45 85 -45q43 0 67 19q16 13 21.5 30t5.5 54v32q-32 -29 -60.5 -40.5t-69.5 -11.5q-95 0 -156.5 65.5t-61.5 167.5q0 101 61.5 169t153.5 68q91 0 140 -75l-4 62h135v-437q0 -59 -9.5 -90.5t-35.5 -56.5q-67 -65 -193 -65q-101 0 -160 40t-66 114z
M174 261q0 -53 30 -86.5t77 -33.5q49 0 78 33t29 89q0 53 -29.5 85.5t-77.5 32.5t-77.5 -33.5t-29.5 -86.5z" />
    <glyph glyph-name="h" unicode="h" horiz-adv-x="562" 
d="M63 0v667h142v-225q58 55 128 55q75 0 124 -52q43 -47 43 -148v-297h-142v271q0 58 -16 81q-19 25 -56 25q-39 0 -62 -25q-12 -12 -15.5 -27t-3.5 -54v-271h-142z" />
    <glyph glyph-name="i" unicode="i" horiz-adv-x="267" 
d="M63 550v117h142v-117h-142zM63 0v483h142v-483h-142z" />
    <glyph glyph-name="j" unicode="j" horiz-adv-x="269" 
d="M65 550v117h142v-117h-142zM13 -40q52 0 52 58v465h142v-472q0 -54 -5.5 -77.5t-22.5 -44.5q-35 -42 -115 -42h-77v113h26z" />
    <glyph glyph-name="k" unicode="k" horiz-adv-x="545" 
d="M63 0v667h142v-350l148 166h176l-184 -184l200 -299h-174l-120 206l-46 -45v-161h-142z" />
    <glyph glyph-name="l" unicode="l" horiz-adv-x="267" 
d="M63 0v667h142v-667h-142z" />
    <glyph glyph-name="m" unicode="m" horiz-adv-x="839" 
d="M63 0v483h138v-58q34 41 62 56t71 15q93 0 134 -78q39 45 71 61.5t79 16.5q77 0 120 -46q38 -39 38 -129v-321h-142v266q0 107 -71 107q-72 0 -72 -107v-266h-142v266q0 107 -72 107t-72 -107v-266h-142z" />
    <glyph glyph-name="n" unicode="n" horiz-adv-x="564" 
d="M63 0v483h138v-47q40 36 67 48.5t65 12.5q79 0 124 -49t45 -135v-313h-142v263q0 63 -15 86q-19 28 -58 28q-38 0 -61 -26q-21 -24 -21 -80v-271h-142z" />
    <glyph glyph-name="o" unicode="o" horiz-adv-x="590" 
d="M39 242q0 111 72 182.5t184 71.5q115 0 186 -71.5t71 -186.5q0 -109 -72.5 -180t-184.5 -71q-113 0 -184.5 71.5t-71.5 183.5zM182 242q0 -68 29.5 -105t83.5 -37t84 37t30 102q0 70 -29.5 107t-84.5 37q-54 0 -83.5 -37t-29.5 -104z" />
    <glyph glyph-name="p" unicode="p" horiz-adv-x="585" 
d="M63 -153v636h139l-4 -57q31 39 61 54.5t75 15.5q95 0 154 -70t59 -183q0 -115 -58.5 -185.5t-153.5 -70.5q-74 0 -130 52v-192h-142zM200 242q0 -65 28 -102.5t76 -37.5q47 0 75 37.5t28 100.5q0 65 -27.5 103t-76.5 38q-47 0 -75 -37.5t-28 -101.5z" />
    <glyph glyph-name="q" unicode="q" horiz-adv-x="585" 
d="M381 -153v194q-48 -54 -125 -54q-96 0 -156.5 73t-60.5 188q0 109 58.5 178.5t150.5 69.5q44 0 74.5 -15.5t61.5 -53.5l-3 56h142v-636h-142zM283 102q47 0 75 37.5t28 100.5q0 65 -27.5 103t-76.5 38q-47 0 -75 -37.5t-28 -101.5q0 -65 28 -102.5t76 -37.5z" />
    <glyph glyph-name="r" unicode="r" horiz-adv-x="380" 
d="M63 0v483h139l-4 -86q21 59 55.5 79.5t111.5 19.5v-134q-25 3 -36 3q-37 0 -65 -15.5t-40 -42.5q-19 -43 -19 -171v-136h-142z" />
    <glyph glyph-name="s" unicode="s" horiz-adv-x="503" 
d="M28 157h133q12 -67 95 -67q33 0 53.5 13t20.5 34q0 31 -54 44l-88 20q-80 18 -113.5 49.5t-33.5 89.5q0 73 55 114.5t151 41.5q93 0 148 -41t64 -117h-133q-9 55 -82 55q-31 0 -49.5 -11t-18.5 -29q0 -14 12.5 -22t46.5 -15l89 -19q81 -18 110 -47q36 -36 36 -97
q0 -77 -58.5 -121.5t-158.5 -44.5t-159.5 45t-65.5 125z" />
    <glyph glyph-name="t" unicode="t" horiz-adv-x="327" 
d="M308 0h-87q-85 0 -114 32q-17 18 -22.5 43.5t-5.5 81.5v220h-68v100h68v153h142v-153h87v-100h-87v-188q0 -57 5.5 -69.5t30.5 -12.5h51v-107z" />
    <glyph glyph-name="u" unicode="u" horiz-adv-x="563" 
d="M365 0v53q-25 -36 -54.5 -51t-73.5 -15q-78 0 -128 50q-46 46 -46 143v303h142v-272q0 -36 2.5 -49.5t12.5 -26.5q20 -28 62 -28q41 0 61 28q10 13 12.5 26.5t2.5 49.5v272h142v-483h-135z" />
    <glyph glyph-name="v" unicode="v" horiz-adv-x="478" 
d="M176 0l-173 483h149l54 -185q4 -13 38 -139q21 103 30 139l49 185h152l-164 -483h-135z" />
    <glyph glyph-name="w" unicode="w" horiz-adv-x="712" 
d="M147 0l-144 483h144l41 -158q21 -81 32 -156q21 108 33 156l41 158h123l43 -158q19 -68 34 -156q13 82 31 156l38 158h147l-137 -483h-136l-45 169q-13 49 -36 162q-18 -88 -36 -162l-40 -169h-133z" />
    <glyph glyph-name="x" unicode="x" horiz-adv-x="503" 
d="M-2 0l173 253l-158 230h158l79 -122l76 122h158l-157 -230l178 -253h-165l-91 138l-89 -138h-162z" />
    <glyph glyph-name="y" unicode="y" horiz-adv-x="495" 
d="M65 -46h42q73 0 73 61q0 18 -18 62l-159 406h152l71 -221q7 -22 12.5 -43.5t12.5 -42.5l6 -19q11 56 25 108l63 218h147l-168 -487q-34 -101 -68 -125q-32 -24 -108 -24h-83v107z" />
    <glyph glyph-name="z" unicode="z" horiz-adv-x="471" 
d="M21 0v91l246 279h-223v113h388v-113l-233 -257h249v-113h-427z" />
    <glyph glyph-name="braceleft" unicode="{" 
d="M149 -46v141q0 42 -12.5 62t-43.5 27v124q30 7 43 26t13 56v146q0 72 35 107q22 20 50 27t94 7q44 0 71 -2v-141h-12q-51 0 -67 -13q-18 -15 -18 -65v-92q0 -49 -12 -74.5t-46 -47.5q33 -20 45.5 -46.5t12.5 -75.5v-96q0 -54 20 -69q18 -11 64 -11h13v-134q-31 -1 -73 -1
q-68 0 -97.5 8t-51.5 33q-28 32 -28 104z" />
    <glyph glyph-name="bar" unicode="|" 
d="M172 -167v834h155v-834h-155z" />
    <glyph glyph-name="braceright" unicode="}" 
d="M100 -48q65 1 81.5 14t16.5 64v92q0 49 12 74.5t46 46.5q-33 20 -45.5 46.5t-12.5 75.5v97q0 54 -21 68q-17 12 -64 12q-7 0 -13 -1v134q62 2 74 2q68 0 97.5 -8t51.5 -33q28 -32 28 -105v-140q0 -42 12.5 -62.5t42.5 -27.5v-123q-29 -8 -42 -27t-13 -56v-146
q0 -74 -35 -106q-21 -20 -49.5 -27t-92.5 -7q-44 0 -74 1v142z" />
    <glyph glyph-name="asciitilde" unicode="~" horiz-adv-x="667" 
d="M168 550l-75 63q55 138 150 138q32 0 112 -33q58 -25 76 -25q38 0 71 60l75 -62q-31 -74 -66.5 -105t-90.5 -31q-21 0 -39 5.5t-72 28.5q-50 22 -72 22q-36 0 -69 -61z" />
    <glyph glyph-name="uni00A0" unicode="&#xa0;" horiz-adv-x="300" 
 />
    <glyph glyph-name="exclamdown" unicode="&#xa1;" horiz-adv-x="273" 
d="M67 343v140h140v-140h-140zM67 37l32 255h76l32 -255v-220h-140v220z" />
    <glyph glyph-name="cent" unicode="&#xa2;" horiz-adv-x="560" 
d="M250 0v76q-97 11 -151.5 78t-54.5 174q0 109 54 176.5t152 78.5v84h60v-83q83 -4 139.5 -56t60.5 -131h-135q-8 57 -65 70v-276q56 12 68 81l138 -6q-12 -83 -67.5 -134.5t-138.5 -56.5v-75h-60zM250 196v267q-63 -25 -63 -132q0 -109 63 -135z" />
    <glyph glyph-name="sterling" unicode="&#xa3;" horiz-adv-x="560" 
d="M61 98q57 39 78 67.5t21 67.5q0 22 -11 51h-104v81h68q-30 58 -30 112q0 85 67 141t169 56q129 0 191 -86q39 -53 40 -138h-133q-2 55 -25.5 81t-71.5 26q-42 0 -68.5 -23t-26.5 -59q0 -33 31 -110h196v-81h-166q4 -28 4 -34q0 -52 -49 -105q22 2 24 2q15 0 91 -19
q18 -5 39 -5q63 0 100 57l65 -113q-58 -73 -158 -73q-38 0 -91 16q-61 18 -82 18q-39 0 -90 -41z" />
    <glyph glyph-name="currency" unicode="&#xa4;" horiz-adv-x="715" 
d="M42 108l100 101q-37 64 -37 131q0 61 40 133l-103 102l80 80l105 -104q72 38 131 38q58 0 129 -38l104 103l79 -79l-101 -101q41 -69 41 -135q0 -57 -37 -130l100 -100l-78 -80l-101 100q-64 -41 -131 -41q-68 0 -141 41l-101 -100zM240 340q0 -49 34.5 -83.5t83.5 -34.5
t83.5 35t34.5 84q0 48 -34.5 83t-82.5 35q-50 0 -84.5 -34.5t-34.5 -84.5z" />
    <glyph glyph-name="yen" unicode="&#xa5;" horiz-adv-x="560" 
d="M205 0v250h-174v82h131l-63 118h-95v82h51l-71 135h167l61 -135h135l66 135h164l-72 -135h52v-82h-95l-63 -118h132v-82h-176v-250h-150zM278 389l29 61h-57z" />
    <glyph glyph-name="brokenbar" unicode="&#xa6;" 
d="M172 314v353h155v-353h-155zM172 153h155v-320h-155v320z" />
    <glyph glyph-name="section" unicode="&#xa7;" horiz-adv-x="645" 
d="M99 64h126q-1 -7 -1 -16q0 -36 26 -59.5t66 -23.5q32 0 51 15t19 40q0 20 -16.5 36.5t-58.5 35.5l-119 56q-71 34 -97 69q-29 37 -29 86q0 103 113 136q-31 28 -42 49t-11 50q0 66 55.5 106t148.5 40q90 0 146.5 -43.5t56.5 -113.5q0 -10 -1 -17h-128q1 5 1 14
q0 53 -77 53q-62 0 -62 -35q0 -16 15.5 -28t65.5 -34l94 -41q74 -32 106.5 -70t32.5 -92q0 -95 -102 -131q56 -50 56 -115q0 -75 -60 -123.5t-153 -48.5q-68 0 -122 25.5t-79 70.5q-21 38 -21 109zM254 271l90 -42l18 -9l31 -14q54 13 54 53q0 18 -11 29.5t-43 26.5l-67 31
q-31 14 -59 30q-68 -4 -68 -49q0 -17 12 -29.5t43 -26.5z" />
    <glyph glyph-name="dieresis" unicode="&#xa8;" 
d="M289 540v120h130v-120h-130zM82 540v120h130v-120h-130z" />
    <glyph glyph-name="copyright" unicode="&#xa9;" horiz-adv-x="769" 
d="M39 333q0 146 102 247t249 101q140 0 240.5 -103t100.5 -245q0 -143 -101.5 -245t-243.5 -102q-143 0 -245 102t-102 245zM110 333q0 -116 81 -198.5t194 -82.5q114 0 194.5 82.5t80.5 198.5t-80 199t-191 83q-117 0 -198 -82t-81 -200zM494 296h70q-5 -74 -53 -118
t-124 -44q-85 0 -137.5 55.5t-52.5 146.5q0 89 53.5 145t138.5 56q70 0 118.5 -41t52.5 -102h-70q-7 30 -34 47t-66 17q-46 0 -73.5 -33.5t-27.5 -89.5t27 -89t74 -33q43 0 70.5 22t33.5 61z" />
    <glyph glyph-name="ordfeminine" unicode="&#xaa;" horiz-adv-x="362" 
d="M333 267h-100q-2 5 -6 19q-37 -27 -84 -27q-51 0 -82.5 25.5t-31.5 67.5q0 41 29 63.5t93 33.5l48 8q23 4 23 16q0 22 -42 22q-45 0 -49 -33h-86q6 104 136 104q69 0 106 -30q32 -26 32 -86v-131q0 -24 2 -31.5t12 -20.5zM198 394l-32 -7q-42 -9 -42 -30q0 -27 41 -27
t60 33v38q-12 -4 -27 -7z" />
    <glyph glyph-name="guillemotleft" unicode="&#xab;" horiz-adv-x="420" 
d="M219 200v113l147 128v-121l-76 -63l76 -63v-121zM188 73l-148 127v113l148 128v-121l-77 -63l77 -63v-121z" />
    <glyph glyph-name="logicalnot" unicode="&#xac;" 
d="M33 156v135h433v-291h-151v156h-282z" />
    <glyph glyph-name="uni00AD" unicode="&#xad;" horiz-adv-x="272" 
d="M0 183v128h272v-128h-272z" />
    <glyph glyph-name="registered" unicode="&#xae;" horiz-adv-x="769" 
d="M39 333q0 146 102 247t249 101q140 0 240.5 -103t100.5 -245q0 -143 -101.5 -245t-243.5 -102q-143 0 -245 102t-102 245zM110 333q0 -116 81 -198.5t194 -82.5q114 0 194.5 82.5t80.5 198.5t-80 199t-191 83q-117 0 -198 -82t-81 -200zM239 144v385h163q58 0 90 -18
q51 -29 51 -90q0 -64 -64 -93q33 -14 44.5 -39t13.5 -86q1 -40 10 -59h-87q-7 15 -9 49q-5 73 -19 88q-18 20 -58 20h-44v-157h-91zM330 354h52q71 0 71 60q0 31 -16 45t-50 14h-57v-119z" />
    <glyph glyph-name="macron" unicode="&#xaf;" 
d="M117 550v100h267v-100h-267z" />
    <glyph glyph-name="degree" unicode="&#xb0;" 
d="M250 356q-65 0 -111.5 46.5t-46.5 111.5t46.5 111.5t111.5 46.5q66 0 111.5 -46.5t45.5 -113.5q0 -64 -46.5 -110t-110.5 -46zM249 415q39 0 68 29t29 68q0 42 -28.5 71.5t-69.5 29.5q-38 0 -66.5 -29.5t-28.5 -69.5t28.5 -69.5t67.5 -29.5z" />
    <glyph glyph-name="plusminus" unicode="&#xb1;" 
d="M212 135v192h-202v73h202v200h75v-200h204v-73h-204v-192h-75zM10 21v73h481v-73h-481z" />
    <glyph glyph-name="two.superior" unicode="&#xb2;" horiz-adv-x="373" 
d="M28 267q8 61 36.5 97t115.5 98q59 42 59 82q0 22 -15 35t-38 13q-30 0 -43 -17t-15 -57h-93q6 153 154 153q67 0 109.5 -36t42.5 -93q0 -54 -50 -100q-19 -16 -87 -61q-23 -15 -47 -37h183v-77h-312z" />
    <glyph glyph-name="three.superior" unicode="&#xb3;" horiz-adv-x="373" 
d="M116 532h-92q1 67 40 103t110 36q63 0 102.5 -31.5t39.5 -81.5q0 -45 -45 -79q31 -18 43.5 -37.5t12.5 -51.5q0 -58 -43.5 -94.5t-112.5 -36.5q-73 0 -113.5 38t-41.5 108h93q1 -70 61 -70q26 0 41.5 15t15.5 40q0 52 -66 52q-14 0 -29 -2v68q23 -1 28 -1q64 0 64 47
q0 19 -14.5 31t-36.5 12q-26 0 -41.5 -14.5t-15.5 -39.5v-11z" />
    <glyph glyph-name="acute" unicode="&#xb4;" 
d="M198 532l47 137h163l-113 -137h-97z" />
    <glyph glyph-name="mu" unicode="&#xb5;" horiz-adv-x="576" 
d="M71 -188v676h132v-276q0 -109 85 -109t85 116v269h133v-488h-124v68h-2q-10 -35 -32 -57.5t-54 -22.5q-27 0 -52.5 22t-36.5 47h-2v-245h-132z" />
    <glyph glyph-name="paragraph" unicode="&#xb6;" horiz-adv-x="623" 
d="M248 -113v432h-13q-80 0 -130.5 48t-50.5 124q0 49 22 88.5t61 61.5q49 26 143 26h256v-58h-52v-722h-74v722h-88v-722h-74z" />
    <glyph glyph-name="periodcentered" unicode="&#xb7;" horiz-adv-x="260" 
d="M60 177v140h140v-140h-140z" />
    <glyph glyph-name="cedilla" unicode="&#xb8;" 
d="M193 -75l44 67l47 -1l-28 -43q32 5 43 5q39 0 63 -19.5t24 -51.5q0 -39 -32.5 -63.5t-84.5 -24.5q-62 0 -124 25l18 40q51 -20 91 -20q22 0 36 11t14 28q0 16 -12 26.5t-32 10.5q-18 0 -44 -9z" />
    <glyph glyph-name="one.superior" unicode="&#xb9;" horiz-adv-x="373" 
d="M152 267v269h-113v61q66 1 90.5 13.5t35.5 52.5h85v-396h-98z" />
    <glyph glyph-name="ordmasculine" unicode="&#xba;" horiz-adv-x="383" 
d="M192 258q-71 0 -117 43.5t-46 110.5t46 110.5t117 43.5q73 0 118 -43.5t45 -112.5q0 -66 -46 -109t-117 -43zM192 332q31 0 48.5 20.5t17.5 58.5q0 81 -66 81q-32 0 -49 -21t-17 -59t17 -59t49 -21z" />
    <glyph glyph-name="guillemotright" unicode="&#xbb;" horiz-adv-x="420" 
d="M233 73v121l76 63l-76 63v121l147 -128v-113zM54 73v121l77 63l-77 63v121l148 -128v-113z" />
    <glyph glyph-name="onequarter" unicode="&#xbc;" horiz-adv-x="871" 
d="M267 0l264 667h74l-264 -667h-74zM151 267v269h-112v61q65 1 89.5 13.5t35.5 52.5h85v-396h-98zM527 82v94l142 220h120v-240h48v-74h-48v-82h-95v82h-167zM607 156h87v75l1 65q-4 -6 -19 -30q-6 -9 -10 -17l-8 -13z" />
    <glyph glyph-name="onehalf" unicode="&#xbd;" horiz-adv-x="871" 
d="M267 0l264 667h74l-264 -667h-74zM151 267v269h-112v61q65 1 89.5 13.5t35.5 52.5h85v-396h-98zM526 0q8 61 36.5 97.5t115.5 98.5q59 42 59 81q0 22 -15 35t-38 13q-30 0 -43 -17t-15 -57h-93q6 153 154 153q67 0 109.5 -36t42.5 -93q0 -54 -50 -100q-22 -19 -87 -61
q-27 -18 -47 -37h183v-77h-312z" />
    <glyph glyph-name="threequarters" unicode="&#xbe;" horiz-adv-x="871" 
d="M116 532h-92q1 67 40 103t110 36q63 0 102.5 -31.5t39.5 -81.5q0 -45 -45 -79q31 -18 43.5 -37.5t12.5 -51.5q0 -58 -43.5 -94.5t-112.5 -36.5q-73 0 -113.5 38t-41.5 108h93q1 -70 61 -70q26 0 41.5 15t15.5 40q0 52 -66 52q-14 0 -29 -2v68q23 -1 28 -1q64 0 64 47
q0 19 -14.5 31t-36.5 12q-26 0 -41.5 -14.5t-15.5 -39.5v-11zM267 0l264 667h74l-264 -667h-74zM527 82v94l142 220h120v-240h48v-74h-48v-82h-95v82h-167zM607 156h87v75l1 65q-4 -6 -19 -30q-6 -9 -10 -17l-8 -13z" />
    <glyph glyph-name="questiondown" unicode="&#xbf;" horiz-adv-x="533" 
d="M179 343v140h140v-140h-140zM378 32h128q-3 -105 -70 -167t-177 -62q-104 0 -168 55.5t-64 146.5q0 67 40 116q13 17 26.5 28.5t55.5 43.5q23 18 32 39t9 57h125q0 -79 -13.5 -108t-73.5 -76q-41 -32 -54.5 -51t-13.5 -44q0 -40 29 -65t74 -25q112 0 115 112z" />
    <glyph glyph-name="Agrave" unicode="&#xc0;" horiz-adv-x="632" 
d="M286 703l-89 122h150l22 -122h-83zM0 0l233 667h187l212 -667h-170l-36 134h-221l-42 -134h-163zM242 257h151l-70 261z" />
    <glyph glyph-name="Aacute" unicode="&#xc1;" horiz-adv-x="632" 
d="M290 703l22 122h150l-89 -122h-83zM0 0l233 667h187l212 -667h-170l-36 134h-221l-42 -134h-163zM242 257h151l-70 261z" />
    <glyph glyph-name="Acircumflex" unicode="&#xc2;" horiz-adv-x="632" 
d="M173 711l78 108h156l72 -108h-100l-52 77l-51 -77h-103zM0 0l233 667h187l212 -667h-170l-36 134h-221l-42 -134h-163zM242 257h151l-70 261z" />
    <glyph glyph-name="Atilde" unicode="&#xc3;" horiz-adv-x="632" 
d="M187 712q7 59 26 82q24 27 59 27q15 0 51 -11q56 -18 70 -18q22 0 22 25v4h76q-5 -52 -16 -70q-24 -42 -72 -42q-19 0 -61 13q-47 16 -57 16q-19 0 -22 -26h-76zM0 0l233 667h187l212 -667h-170l-36 134h-221l-42 -134h-163zM242 257h151l-70 261z" />
    <glyph glyph-name="Adieresis" unicode="&#xc4;" horiz-adv-x="632" 
d="M361 705v120h130v-120h-130zM155 705v120h130v-120h-130zM0 0l233 667h187l212 -667h-170l-36 134h-221l-42 -134h-163zM242 257h151l-70 261z" />
    <glyph glyph-name="Aring" unicode="&#xc5;" horiz-adv-x="632" 
d="M323 700q-40 0 -68.5 28.5t-28.5 68.5t28 68t68 28q41 0 69 -28.5t28 -69.5q0 -38 -28.5 -66.5t-67.5 -28.5zM323 754q17 0 29.5 12.5t12.5 29.5q0 18 -12.5 30.5t-30.5 12.5q-17 0 -29.5 -12.5t-12.5 -29.5q0 -18 12.5 -30.5t30.5 -12.5zM0 0l233 667h187l212 -667h-170
l-36 134h-221l-42 -134h-163zM242 257h151l-70 261z" />
    <glyph glyph-name="AE" unicode="&#xc6;" horiz-adv-x="924" 
d="M0 0l227 667h651v-128h-346v-130h303v-118h-303v-163h352v-128h-502v141h-198l-45 -141h-139zM221 265h161v274h-77z" />
    <glyph glyph-name="Ccedilla" unicode="&#xc7;" horiz-adv-x="689" 
d="M257 -151q57 -22 98 -22q24 0 39 11.5t15 30.5q0 17 -13.5 27.5t-36.5 10.5q-16 0 -46 -9l-24 21l42 68q-133 11 -210.5 104t-77.5 243q0 160 86.5 254t235.5 94q121 0 198.5 -61t90.5 -167h-153q-10 48 -46 74.5t-89 26.5q-82 0 -127.5 -58t-45.5 -163q0 -104 45 -163
t124 -59q72 0 113 49q19 25 28 69h159q-13 -109 -87.5 -174.5t-190.5 -70.5l-26 -41q32 6 45 6q42 0 68 -21.5t26 -55.5q0 -42 -35 -68t-91 -26q-66 0 -133 28z" />
    <glyph glyph-name="Egrave" unicode="&#xc8;" horiz-adv-x="613" 
d="M290 703l-89 122h150l22 -122h-83zM71 0v667h497v-128h-347v-130h303v-118h-303v-163h353v-128h-503z" />
    <glyph glyph-name="Eacute" unicode="&#xc9;" horiz-adv-x="613" 
d="M274 703l22 122h150l-89 -122h-83zM71 0v667h497v-128h-347v-130h303v-118h-303v-163h353v-128h-503z" />
    <glyph glyph-name="Ecircumflex" unicode="&#xca;" horiz-adv-x="613" 
d="M170 711l78 108h156l72 -108h-100l-52 77l-51 -77h-103zM71 0v667h497v-128h-347v-130h303v-118h-303v-163h353v-128h-503z" />
    <glyph glyph-name="Edieresis" unicode="&#xcb;" horiz-adv-x="613" 
d="M358 705v120h130v-120h-130zM152 705v120h130v-120h-130zM71 0v667h497v-128h-347v-130h303v-118h-303v-163h353v-128h-503z" />
    <glyph glyph-name="Igrave" unicode="&#xcc;" horiz-adv-x="291" 
d="M109 703l-89 122h150l22 -122h-83zM71 0v667h150v-667h-150z" />
    <glyph glyph-name="Iacute" unicode="&#xcd;" horiz-adv-x="291" 
d="M110 703l22 122h150l-89 -122h-83zM71 0v667h150v-667h-150z" />
    <glyph glyph-name="Icircumflex" unicode="&#xce;" horiz-adv-x="291" 
d="M-4 711l78 108h156l72 -108h-100l-52 77l-51 -77h-103zM71 0v667h150v-667h-150z" />
    <glyph glyph-name="Idieresis" unicode="&#xcf;" horiz-adv-x="291" 
d="M184 705v120h117v-120h-117zM-2 705v120h117v-120h-117zM71 0v667h150v-667h-150z" />
    <glyph glyph-name="Eth" unicode="&#xd0;" horiz-adv-x="688" 
d="M70 0v291h-43v118h43v258h226q101 0 161 -21t105 -72q82 -91 82 -237q0 -154 -87 -249q-44 -47 -103.5 -67.5t-152.5 -20.5h-231zM220 130h101q97 0 137 64q33 56 33 140q0 82 -32 136q-38 67 -127 67h-112v-128h117v-118h-117v-161z" />
    <glyph glyph-name="Ntilde" unicode="&#xd1;" horiz-adv-x="683" 
d="M210 712q7 59 26 82q24 27 59 27q15 0 51 -11q56 -18 70 -18q22 0 22 25v4h76q-5 -52 -16 -70q-24 -42 -72 -42q-19 0 -61 13q-47 16 -57 16q-19 0 -22 -26h-76zM71 0v667h156l184 -332q5 -10 68 -135q-2 27 -2 65l-1 50v48v304h137v-667h-150l-189 341l-69 130
q2 -35 2 -80q1 -36 1 -117v-274h-137z" />
    <glyph glyph-name="Ograve" unicode="&#xd2;" horiz-adv-x="748" 
d="M337 703l-89 122h150l22 -122h-83zM43 334q0 169 103 263q93 85 227 85q151 0 241.5 -96.5t90.5 -257.5q0 -152 -92 -247.5t-239 -95.5q-149 0 -240 96t-91 253zM200 334q0 -104 46 -163t128 -59q80 0 127 59t47 160q0 106 -46 165t-128 59t-128 -58.5t-46 -162.5z" />
    <glyph glyph-name="Oacute" unicode="&#xd3;" horiz-adv-x="748" 
d="M338 703l22 122h150l-89 -122h-83zM43 334q0 169 103 263q93 85 227 85q151 0 241.5 -96.5t90.5 -257.5q0 -152 -92 -247.5t-239 -95.5q-149 0 -240 96t-91 253zM200 334q0 -104 46 -163t128 -59q80 0 127 59t47 160q0 106 -46 165t-128 59t-128 -58.5t-46 -162.5z" />
    <glyph glyph-name="Ocircumflex" unicode="&#xd4;" horiz-adv-x="748" 
d="M221 711l78 108h156l72 -108h-100l-52 77l-51 -77h-103zM43 334q0 169 103 263q93 85 227 85q151 0 241.5 -96.5t90.5 -257.5q0 -152 -92 -247.5t-239 -95.5q-149 0 -240 96t-91 253zM200 334q0 -104 46 -163t128 -59q80 0 127 59t47 160q0 106 -46 165t-128 59
t-128 -58.5t-46 -162.5z" />
    <glyph glyph-name="Otilde" unicode="&#xd5;" horiz-adv-x="748" 
d="M238 712q7 59 26 82q24 27 59 27q15 0 51 -11q56 -18 70 -18q22 0 22 25v4h76q-5 -52 -16 -70q-24 -42 -72 -42q-19 0 -61 13q-47 16 -57 16q-19 0 -22 -26h-76zM43 334q0 169 103 263q93 85 227 85q151 0 241.5 -96.5t90.5 -257.5q0 -152 -92 -247.5t-239 -95.5
q-149 0 -240 96t-91 253zM200 334q0 -104 46 -163t128 -59q80 0 127 59t47 160q0 106 -46 165t-128 59t-128 -58.5t-46 -162.5z" />
    <glyph glyph-name="Odieresis" unicode="&#xd6;" horiz-adv-x="748" 
d="M415 705v120h130v-120h-130zM209 705v120h130v-120h-130zM43 334q0 169 103 263q93 85 227 85q151 0 241.5 -96.5t90.5 -257.5q0 -152 -92 -247.5t-239 -95.5q-149 0 -240 96t-91 253zM200 334q0 -104 46 -163t128 -59q80 0 127 59t47 160q0 106 -46 165t-128 59
t-128 -58.5t-46 -162.5z" />
    <glyph glyph-name="multiply" unicode="&#xd7;" 
d="M101 157l-53 53l151 150l-149 148l51 51l148 -149l150 151l53 -53l-151 -150l150 -148l-51 -52l-149 150z" />
    <glyph glyph-name="Oslash" unicode="&#xd8;" horiz-adv-x="748" 
d="M50 34l64 70q-71 90 -71 230q0 156 91.5 252t239.5 96q120 0 208 -68l65 71l51 -47l-67 -73q74 -88 74 -233q0 -155 -91.5 -251t-239.5 -96q-124 0 -213 71l-62 -68zM219 218l269 293q-46 44 -114 44q-82 0 -128 -58.5t-46 -162.5q0 -68 19 -116zM256 159q49 -47 118 -47
q82 0 128 58.5t46 162.5q0 71 -21 120z" />
    <glyph glyph-name="Ugrave" unicode="&#xd9;" horiz-adv-x="677" 
d="M315 703l-89 122h150l22 -122h-83zM606 667v-451q0 -121 -72 -174q-79 -57 -196 -57q-116 0 -195 57q-72 53 -72 174v451h150v-441q0 -58 27 -84q33 -30 90 -30q58 0 91 30q27 26 27 84v441h150z" />
    <glyph glyph-name="Uacute" unicode="&#xda;" horiz-adv-x="677" 
d="M306 703l22 122h150l-89 -122h-83zM606 667v-451q0 -121 -72 -174q-79 -57 -196 -57q-116 0 -195 57q-72 53 -72 174v451h150v-441q0 -58 27 -84q33 -30 90 -30q58 0 91 30q27 26 27 84v441h150z" />
    <glyph glyph-name="Ucircumflex" unicode="&#xdb;" horiz-adv-x="677" 
d="M192 711l78 108h156l72 -108h-100l-52 77l-51 -77h-103zM606 667v-451q0 -121 -72 -174q-79 -57 -196 -57q-116 0 -195 57q-72 53 -72 174v451h150v-441q0 -58 27 -84q33 -30 90 -30q58 0 91 30q27 26 27 84v441h150z" />
    <glyph glyph-name="Udieresis" unicode="&#xdc;" horiz-adv-x="677" 
d="M380 705v120h130v-120h-130zM174 705v120h130v-120h-130zM606 667v-451q0 -121 -72 -174q-79 -57 -196 -57q-116 0 -195 57q-72 53 -72 174v451h150v-441q0 -58 27 -84q33 -30 90 -30q58 0 91 30q27 26 27 84v441h150z" />
    <glyph glyph-name="Yacute" unicode="&#xdd;" horiz-adv-x="566" 
d="M251 703l22 122h150l-89 -122h-83zM208 0v251l-221 416h167l127 -277l135 277h164l-222 -416v-251h-150z" />
    <glyph glyph-name="Thorn" unicode="&#xde;" horiz-adv-x="610" 
d="M71 0v667h150v-94h112q69 0 109.5 -11.5t72.5 -39.5q72 -64 72 -173q0 -92 -57 -154q-58 -61 -168 -61h-141v-134h-150zM221 264h118q44 0 69.5 24t25.5 65q0 42 -25.5 66t-69.5 24h-118v-179z" />
    <glyph glyph-name="germandbls" unicode="&#xdf;" horiz-adv-x="568" 
d="M63 0v442q0 70 13.5 111.5t45.5 69.5q59 54 164 54q95 0 154 -48t59 -126q0 -38 -17 -65t-57 -52q104 -50 104 -173q0 -90 -58 -156q-60 -67 -156 -67q-37 0 -73 10v102q19 -5 45 -5q51 0 79 31.5t28 89.5q0 117 -111 117q-16 0 -41 -4v96q28 -3 40 -3q38 0 60 18.5
t22 52.5t-22.5 54t-60.5 20q-44 0 -63 -25q-17 -21 -17 -86v-458h-138z" />
    <glyph glyph-name="agrave" unicode="&#xe0;" horiz-adv-x="556" 
d="M233 532l-113 137h163l47 -137h-97zM511 0h-145q-2 6 -11 38q-36 -29 -65.5 -40t-73.5 -11q-79 0 -128 42t-49 110q0 67 45 104.5t147 54.5l77 13q24 4 33.5 11.5t9.5 21.5q0 21 -20 33t-55 12q-76 0 -85 -58h-127q13 166 214 166q110 0 167 -51q26 -23 37 -55t11 -86
v-222q0 -38 3 -51.5t15 -31.5zM303 215l-51 -11q-73 -16 -73 -58q0 -24 19.5 -37.5t52.5 -13.5q70 0 104 61v74q-22 -9 -52 -15z" />
    <glyph glyph-name="aacute" unicode="&#xe1;" horiz-adv-x="556" 
d="M236 532l47 137h163l-113 -137h-97zM511 0h-145q-2 6 -11 38q-36 -29 -65.5 -40t-73.5 -11q-79 0 -128 42t-49 110q0 67 45 104.5t147 54.5l77 13q24 4 33.5 11.5t9.5 21.5q0 21 -20 33t-55 12q-76 0 -85 -58h-127q13 166 214 166q110 0 167 -51q26 -23 37 -55t11 -86
v-222q0 -38 3 -51.5t15 -31.5zM303 215l-51 -11q-73 -16 -73 -58q0 -24 19.5 -37.5t52.5 -13.5q70 0 104 61v74q-22 -9 -52 -15z" />
    <glyph glyph-name="acircumflex" unicode="&#xe2;" horiz-adv-x="556" 
d="M117 536l92 127h150l86 -127h-118l-45 68l-47 -68h-118zM511 0h-145q-2 6 -11 38q-36 -29 -65.5 -40t-73.5 -11q-79 0 -128 42t-49 110q0 67 45 104.5t147 54.5l77 13q24 4 33.5 11.5t9.5 21.5q0 21 -20 33t-55 12q-76 0 -85 -58h-127q13 166 214 166q110 0 167 -51
q26 -23 37 -55t11 -86v-222q0 -38 3 -51.5t15 -31.5zM303 215l-51 -11q-73 -16 -73 -58q0 -24 19.5 -37.5t52.5 -13.5q70 0 104 61v74q-22 -9 -52 -15z" />
    <glyph glyph-name="atilde" unicode="&#xe3;" horiz-adv-x="556" 
d="M147 547q6 117 86 117q11 0 39 -6l46 -10q25 -5 29 -5q15 0 21 17h72q-5 -54 -18 -76q-22 -37 -64 -37q-17 0 -47 7l-47 11q-9 3 -20 3q-18 0 -25 -21h-72zM511 0h-145q-2 6 -11 38q-36 -29 -65.5 -40t-73.5 -11q-79 0 -128 42t-49 110q0 67 45 104.5t147 54.5l77 13
q24 4 33.5 11.5t9.5 21.5q0 21 -20 33t-55 12q-76 0 -85 -58h-127q13 166 214 166q110 0 167 -51q26 -23 37 -55t11 -86v-222q0 -38 3 -51.5t15 -31.5zM303 215l-51 -11q-73 -16 -73 -58q0 -24 19.5 -37.5t52.5 -13.5q70 0 104 61v74q-22 -9 -52 -15z" />
    <glyph glyph-name="adieresis" unicode="&#xe4;" horiz-adv-x="556" 
d="M320 540v120h130v-120h-130zM113 540v120h130v-120h-130zM511 0h-145q-2 6 -11 38q-36 -29 -65.5 -40t-73.5 -11q-79 0 -128 42t-49 110q0 67 45 104.5t147 54.5l77 13q24 4 33.5 11.5t9.5 21.5q0 21 -20 33t-55 12q-76 0 -85 -58h-127q13 166 214 166q110 0 167 -51
q26 -23 37 -55t11 -86v-222q0 -38 3 -51.5t15 -31.5zM303 215l-51 -11q-73 -16 -73 -58q0 -24 19.5 -37.5t52.5 -13.5q70 0 104 61v74q-22 -9 -52 -15z" />
    <glyph glyph-name="aring" unicode="&#xe5;" horiz-adv-x="556" 
d="M285 537q-39 0 -66.5 27.5t-27.5 66.5q0 38 27.5 65.5t65.5 27.5q40 0 67 -27.5t27 -67.5q0 -37 -27.5 -64.5t-65.5 -27.5zM285 587q17 0 30 13t13 30q0 19 -12.5 31.5t-31.5 12.5q-17 0 -30 -13t-13 -30q0 -18 13 -31t31 -13zM511 0h-145q-2 6 -11 38q-36 -29 -65.5 -40
t-73.5 -11q-79 0 -128 42t-49 110q0 67 45 104.5t147 54.5l77 13q24 4 33.5 11.5t9.5 21.5q0 21 -20 33t-55 12q-76 0 -85 -58h-127q13 166 214 166q110 0 167 -51q26 -23 37 -55t11 -86v-222q0 -38 3 -51.5t15 -31.5zM303 215l-51 -11q-73 -16 -73 -58q0 -24 19.5 -37.5
t52.5 -13.5q70 0 104 61v74q-22 -9 -52 -15z" />
    <glyph glyph-name="ae" unicode="&#xe6;" horiz-adv-x="876" 
d="M688 141h144q-20 -71 -83 -112.5t-150 -41.5q-63 0 -108.5 20.5t-85.5 66.5q-43 -50 -79.5 -68.5t-92.5 -18.5q-86 0 -140 42.5t-54 110.5q0 67 46 105t146 54l77 12q24 4 33.5 11.5t9.5 21.5q0 21 -20 33t-55 12q-76 0 -85 -58h-127q13 166 214 166q111 0 167 -50
q66 49 154 49q76 0 131.5 -37t83.5 -106q23 -58 24 -153h-343q7 -49 35 -75.5t73 -26.5q56 0 85 43zM496 300h195q-4 42 -28 65t-65 23t-67.5 -23t-34.5 -65zM303 215l-51 -11q-73 -16 -73 -58q0 -24 19.5 -37.5t52.5 -13.5q70 0 104 61v74q-22 -9 -52 -15z" />
    <glyph glyph-name="ccedilla" unicode="&#xe7;" horiz-adv-x="536" 
d="M193 -75l43 65q-92 13 -144.5 79t-52.5 171q0 119 65 187.5t180 68.5q95 0 154.5 -50.5t66.5 -136.5h-135q-6 34 -29.5 53t-58.5 19q-49 0 -74.5 -35.5t-25.5 -101.5q0 -142 101 -142q74 0 90 83l138 -7q-15 -91 -75 -140.5t-155 -50.5l-25 -39q32 5 43 5q39 0 63 -19.5
t24 -51.5q0 -39 -32.5 -63.5t-84.5 -24.5q-62 0 -124 25l18 40q51 -20 91 -20q22 0 36 11t14 28q0 16 -12 26.5t-32 10.5q-18 0 -44 -9z" />
    <glyph glyph-name="egrave" unicode="&#xe8;" horiz-adv-x="564" 
d="M237 532l-113 137h163l47 -137h-97zM375 141h144q-20 -71 -83 -112.5t-149 -41.5q-112 0 -180 70t-68 184q0 112 69 183.5t178 71.5q76 0 132 -37t83 -105q24 -59 24 -154h-343q7 -49 35 -75.5t74 -26.5q55 0 84 43zM183 300h196q-5 42 -29 65t-65 23t-67.5 -23
t-34.5 -65z" />
    <glyph glyph-name="eacute" unicode="&#xe9;" horiz-adv-x="564" 
d="M240 532l47 137h163l-113 -137h-97zM375 141h144q-20 -71 -83 -112.5t-149 -41.5q-112 0 -180 70t-68 184q0 112 69 183.5t178 71.5q76 0 132 -37t83 -105q24 -59 24 -154h-343q7 -49 35 -75.5t74 -26.5q55 0 84 43zM183 300h196q-5 42 -29 65t-65 23t-67.5 -23
t-34.5 -65z" />
    <glyph glyph-name="ecircumflex" unicode="&#xea;" horiz-adv-x="564" 
d="M121 536l92 127h150l86 -127h-118l-45 68l-47 -68h-118zM375 141h144q-20 -71 -83 -112.5t-149 -41.5q-112 0 -180 70t-68 184q0 112 69 183.5t178 71.5q76 0 132 -37t83 -105q24 -59 24 -154h-343q7 -49 35 -75.5t74 -26.5q55 0 84 43zM183 300h196q-5 42 -29 65t-65 23
t-67.5 -23t-34.5 -65z" />
    <glyph glyph-name="edieresis" unicode="&#xeb;" horiz-adv-x="564" 
d="M327 540v120h130v-120h-130zM120 540v120h130v-120h-130zM375 141h144q-20 -71 -83 -112.5t-149 -41.5q-112 0 -180 70t-68 184q0 112 69 183.5t178 71.5q76 0 132 -37t83 -105q24 -59 24 -154h-343q7 -49 35 -75.5t74 -26.5q55 0 84 43zM183 300h196q-5 42 -29 65
t-65 23t-67.5 -23t-34.5 -65z" />
    <glyph glyph-name="igrave" unicode="&#xec;" horiz-adv-x="267" 
d="M91 532l-113 137h163l47 -137h-97zM62 0v483h142v-483h-142z" />
    <glyph glyph-name="iacute" unicode="&#xed;" horiz-adv-x="267" 
d="M92 532l47 137h163l-113 -137h-97zM63 0v483h142v-483h-142z" />
    <glyph glyph-name="icircumflex" unicode="&#xee;" horiz-adv-x="267" 
d="M-27 536l92 127h150l86 -127h-118l-45 68l-47 -68h-118zM63 0v483h142v-483h-142z" />
    <glyph glyph-name="idieresis" unicode="&#xef;" horiz-adv-x="267" 
d="M171 540v120h117v-120h-117zM-15 540v120h117v-120h-117zM63 0v483h142v-483h-142z" />
    <glyph glyph-name="eth" unicode="&#xf0;" horiz-adv-x="592" 
d="M364 722l-49 -72q239 -144 239 -380q0 -133 -69 -208t-190 -75q-115 0 -185.5 71.5t-70.5 187.5q0 109 68 179.5t174 70.5q67 0 116 -44q-51 68 -134 121l-40 -59l-45 31l38 57q-6 4 -37 21l42 76q27 -12 46 -22l51 76zM182 242q0 -68 30 -105t85 -37q54 0 84 37t30 102
q0 70 -29.5 107t-85.5 37q-54 0 -84 -37t-30 -104z" />
    <glyph glyph-name="ntilde" unicode="&#xf1;" horiz-adv-x="564" 
d="M156 547q6 117 86 117q11 0 39 -6l46 -10q25 -5 29 -5q15 0 21 17h72q-5 -54 -18 -76q-22 -37 -64 -37q-17 0 -47 7l-47 11q-9 3 -20 3q-18 0 -25 -21h-72zM63 0v483h138v-47q40 36 67 48.5t65 12.5q79 0 124 -49t45 -135v-313h-142v263q0 63 -15 86q-19 28 -58 28
q-38 0 -61 -26q-21 -24 -21 -80v-271h-142z" />
    <glyph glyph-name="ograve" unicode="&#xf2;" horiz-adv-x="590" 
d="M250 532l-113 137h163l47 -137h-97zM39 242q0 111 72 182.5t184 71.5q115 0 186 -71.5t71 -186.5q0 -109 -72.5 -180t-184.5 -71q-113 0 -184.5 71.5t-71.5 183.5zM182 242q0 -68 29.5 -105t83.5 -37t84 37t30 102q0 70 -29.5 107t-84.5 37q-54 0 -83.5 -37t-29.5 -104z
" />
    <glyph glyph-name="oacute" unicode="&#xf3;" horiz-adv-x="590" 
d="M254 532l47 137h163l-113 -137h-97zM39 242q0 111 72 182.5t184 71.5q115 0 186 -71.5t71 -186.5q0 -109 -72.5 -180t-184.5 -71q-113 0 -184.5 71.5t-71.5 183.5zM182 242q0 -68 29.5 -105t83.5 -37t84 37t30 102q0 70 -29.5 107t-84.5 37q-54 0 -83.5 -37t-29.5 -104z
" />
    <glyph glyph-name="ocircumflex" unicode="&#xf4;" horiz-adv-x="590" 
d="M134 536l92 127h150l86 -127h-118l-45 68l-47 -68h-118zM39 242q0 111 72 182.5t184 71.5q115 0 186 -71.5t71 -186.5q0 -109 -72.5 -180t-184.5 -71q-113 0 -184.5 71.5t-71.5 183.5zM182 242q0 -68 29.5 -105t83.5 -37t84 37t30 102q0 70 -29.5 107t-84.5 37
q-54 0 -83.5 -37t-29.5 -104z" />
    <glyph glyph-name="otilde" unicode="&#xf5;" horiz-adv-x="590" 
d="M165 547q6 117 86 117q11 0 39 -6l46 -10q25 -5 29 -5q15 0 21 17h72q-5 -54 -18 -76q-22 -37 -64 -37q-17 0 -47 7l-47 11q-9 3 -20 3q-18 0 -25 -21h-72zM39 242q0 111 72 182.5t184 71.5q115 0 186 -71.5t71 -186.5q0 -109 -72.5 -180t-184.5 -71q-113 0 -184.5 71.5
t-71.5 183.5zM182 242q0 -68 29.5 -105t83.5 -37t84 37t30 102q0 70 -29.5 107t-84.5 37q-54 0 -83.5 -37t-29.5 -104z" />
    <glyph glyph-name="odieresis" unicode="&#xf6;" horiz-adv-x="590" 
d="M337 540v120h130v-120h-130zM130 540v120h130v-120h-130zM39 242q0 111 72 182.5t184 71.5q115 0 186 -71.5t71 -186.5q0 -109 -72.5 -180t-184.5 -71q-113 0 -184.5 71.5t-71.5 183.5zM182 242q0 -68 29.5 -105t83.5 -37t84 37t30 102q0 70 -29.5 107t-84.5 37
q-54 0 -83.5 -37t-29.5 -104z" />
    <glyph glyph-name="divide" unicode="&#xf7;" 
d="M251 474q-23 0 -40 16.5t-17 39.5q0 24 16.5 40.5t40.5 16.5q23 0 39.5 -16.5t16.5 -39.5t-16.5 -40t-39.5 -17zM10 322v73h481v-73h-481zM194 187q0 23 16.5 39.5t40.5 16.5q23 0 39.5 -16.5t16.5 -39.5t-16.5 -40t-39.5 -17t-40 17t-17 40z" />
    <glyph glyph-name="oslash" unicode="&#xf8;" horiz-adv-x="590" 
d="M46 -4l59 68q-66 72 -66 177q0 112 71.5 183.5t184.5 71.5q84 0 148 -41l57 65l45 -39l-56 -65q63 -72 63 -174q0 -112 -72 -183.5t-185 -71.5q-79 0 -144 39l-60 -69zM194 167l169 195q-29 21 -68 21q-53 0 -83 -37t-30 -103q0 -46 12 -76zM231 119q28 -19 65 -19
q53 0 83 37t30 103q0 40 -11 72z" />
    <glyph glyph-name="ugrave" unicode="&#xf9;" horiz-adv-x="563" 
d="M240 532l-113 137h163l47 -137h-97zM365 0v53q-25 -36 -54.5 -51t-73.5 -15q-78 0 -128 50q-46 46 -46 143v303h142v-272q0 -36 2.5 -49.5t12.5 -26.5q20 -28 62 -28q41 0 61 28q10 13 12.5 26.5t2.5 49.5v272h142v-483h-135z" />
    <glyph glyph-name="uacute" unicode="&#xfa;" horiz-adv-x="563" 
d="M243 532l47 137h163l-113 -137h-97zM365 0v53q-25 -36 -54.5 -51t-73.5 -15q-78 0 -128 50q-46 46 -46 143v303h142v-272q0 -36 2.5 -49.5t12.5 -26.5q20 -28 62 -28q41 0 61 28q10 13 12.5 26.5t2.5 49.5v272h142v-483h-135z" />
    <glyph glyph-name="ucircumflex" unicode="&#xfb;" horiz-adv-x="563" 
d="M124 536l92 127h150l86 -127h-118l-45 68l-47 -68h-118zM365 0v53q-25 -36 -54.5 -51t-73.5 -15q-78 0 -128 50q-46 46 -46 143v303h142v-272q0 -36 2.5 -49.5t12.5 -26.5q20 -28 62 -28q41 0 61 28q10 13 12.5 26.5t2.5 49.5v272h142v-483h-135z" />
    <glyph glyph-name="udieresis" unicode="&#xfc;" horiz-adv-x="563" 
d="M327 540v120h130v-120h-130zM120 540v120h130v-120h-130zM365 0v53q-25 -36 -54.5 -51t-73.5 -15q-78 0 -128 50q-46 46 -46 143v303h142v-272q0 -36 2.5 -49.5t12.5 -26.5q20 -28 62 -28q41 0 61 28q10 13 12.5 26.5t2.5 49.5v272h142v-483h-135z" />
    <glyph glyph-name="yacute" unicode="&#xfd;" horiz-adv-x="495" 
d="M213 532l47 137h163l-113 -137h-97zM65 -46h42q73 0 73 61q0 18 -18 62l-159 406h152l71 -221q7 -22 12.5 -43.5t12.5 -42.5l6 -19q11 56 25 108l63 218h147l-168 -487q-34 -101 -68 -125q-32 -24 -108 -24h-83v107z" />
    <glyph glyph-name="thorn" unicode="&#xfe;" horiz-adv-x="585" 
d="M63 -153v820h142v-232q28 34 57 47.5t72 13.5q95 0 154 -70t59 -183q0 -115 -58.5 -185.5t-153.5 -70.5q-74 0 -130 52v-192h-142zM200 242q0 -65 28 -102.5t76 -37.5q47 0 75 37.5t28 100.5q0 65 -27.5 103t-76.5 38q-47 0 -75 -37.5t-28 -101.5z" />
    <glyph glyph-name="ydieresis" unicode="&#xff;" horiz-adv-x="495" 
d="M290 540v120h130v-120h-130zM83 540v120h130v-120h-130zM65 -46h42q73 0 73 61q0 18 -18 62l-159 406h152l71 -221q7 -22 12.5 -43.5t12.5 -42.5l6 -19q11 56 25 108l63 218h147l-168 -487q-34 -101 -68 -125q-32 -24 -108 -24h-83v107z" />
    <glyph glyph-name="Amacron" unicode="&#x100;" horiz-adv-x="632" 
d="M193 715v100h267v-100h-267zM0 0l233 667h187l212 -667h-170l-36 134h-221l-42 -134h-163zM242 257h151l-70 261z" />
    <glyph glyph-name="amacron" unicode="&#x101;" horiz-adv-x="556" 
d="M158 550v100h267v-100h-267zM511 0h-145q-2 6 -11 38q-36 -29 -65.5 -40t-73.5 -11q-79 0 -128 42t-49 110q0 67 45 104.5t147 54.5l77 13q24 4 33.5 11.5t9.5 21.5q0 21 -20 33t-55 12q-76 0 -85 -58h-127q13 166 214 166q110 0 167 -51q26 -23 37 -55t11 -86v-222
q0 -38 3 -51.5t15 -31.5zM303 215l-51 -11q-73 -16 -73 -58q0 -24 19.5 -37.5t52.5 -13.5q70 0 104 61v74q-22 -9 -52 -15z" />
    <glyph glyph-name="Abreve" unicode="&#x102;" horiz-adv-x="632" 
d="M400 826h80q-14 -58 -55 -90.5t-99 -32.5t-98.5 32.5t-54.5 90.5h79q25 -46 74 -46q51 0 74 46zM0 0l233 667h187l212 -667h-170l-36 134h-221l-42 -134h-163zM242 257h151l-70 261z" />
    <glyph glyph-name="abreve" unicode="&#x103;" horiz-adv-x="556" 
d="M349 670h86q-14 -66 -55 -103t-99 -37t-98.5 37t-54.5 103h86q23 -47 67 -47q45 0 68 47zM511 0h-145q-2 6 -11 38q-36 -29 -65.5 -40t-73.5 -11q-79 0 -128 42t-49 110q0 67 45 104.5t147 54.5l77 13q24 4 33.5 11.5t9.5 21.5q0 21 -20 33t-55 12q-76 0 -85 -58h-127
q13 166 214 166q110 0 167 -51q26 -23 37 -55t11 -86v-222q0 -38 3 -51.5t15 -31.5zM303 215l-51 -11q-73 -16 -73 -58q0 -24 19.5 -37.5t52.5 -13.5q70 0 104 61v74q-22 -9 -52 -15z" />
    <glyph glyph-name="Aogonek" unicode="&#x104;" horiz-adv-x="632" 
d="M0 0l233 667h187l212 -667h-44q-30 -23 -42.5 -41t-12.5 -40q0 -21 17 -33.5t45 -12.5q15 0 34 6l1 -54q-32 -10 -59 -10q-49 0 -78.5 24t-29.5 63q0 49 60 98h-61l-36 134h-221l-42 -134h-163zM242 257h151l-70 261z" />
    <glyph glyph-name="aogonek" unicode="&#x105;" horiz-adv-x="556" 
d="M473 -121v-54q-33 -10 -59 -10q-48 0 -77.5 24t-29.5 63q0 47 59 98q-2 6 -11 38q-36 -29 -65.5 -40t-73.5 -11q-79 0 -128 42t-49 110q0 67 45 104.5t147 54.5l77 13q24 4 33.5 11.5t9.5 21.5q0 21 -20 33t-55 12q-76 0 -85 -58h-127q13 166 214 166q110 0 167 -51
q26 -23 37 -55t11 -86v-222q0 -38 3 -51.5t15 -31.5h-80q-54 -42 -54 -81q0 -21 16.5 -33.5t44.5 -12.5q15 0 35 6zM303 215l-51 -11q-73 -16 -73 -58q0 -24 19.5 -37.5t52.5 -13.5q70 0 104 61v74q-22 -9 -52 -15z" />
    <glyph glyph-name="Cacute" unicode="&#x106;" horiz-adv-x="689" 
d="M316 696l47 137h163l-113 -137h-97zM503 230h159q-14 -113 -93 -179t-203 -66q-148 0 -235.5 94.5t-87.5 254.5t86.5 254t235.5 94q121 0 198.5 -61t90.5 -167h-153q-10 48 -46 74.5t-89 26.5q-82 0 -127.5 -58t-45.5 -163q0 -104 45 -163t124 -59q72 0 113 49
q19 25 28 69z" />
    <glyph glyph-name="cacute" unicode="&#x107;" horiz-adv-x="536" 
d="M237 532l46 137h164l-114 -137h-96zM373 185l138 -7q-15 -91 -75.5 -141t-156.5 -50q-110 0 -175 68.5t-65 184.5q0 119 65 187.5t180 68.5q95 0 154.5 -50.5t66.5 -136.5h-135q-6 34 -29.5 53t-58.5 19q-49 0 -74.5 -35.5t-25.5 -101.5q0 -142 101 -142q74 0 90 83z" />
    <glyph glyph-name="Ccircumflex" unicode="&#x108;" horiz-adv-x="689" 
d="M216 711l78 108h156l72 -108h-100l-52 77l-51 -77h-103zM503 230h159q-14 -113 -93 -179t-203 -66q-148 0 -235.5 94.5t-87.5 254.5t86.5 254t235.5 94q121 0 198.5 -61t90.5 -167h-153q-10 48 -46 74.5t-89 26.5q-82 0 -127.5 -58t-45.5 -163q0 -104 45 -163t124 -59
q72 0 113 49q19 25 28 69z" />
    <glyph glyph-name="ccircumflex" unicode="&#x109;" horiz-adv-x="536" 
d="M126 536l92 127h150l86 -127h-118l-45 68l-47 -68h-118zM373 185l138 -7q-15 -91 -75.5 -141t-156.5 -50q-110 0 -175 68.5t-65 184.5q0 119 65 187.5t180 68.5q95 0 154.5 -50.5t66.5 -136.5h-135q-6 34 -29.5 53t-58.5 19q-49 0 -74.5 -35.5t-25.5 -101.5
q0 -142 101 -142q74 0 90 83z" />
    <glyph glyph-name="Cdotaccent" unicode="&#x10a;" horiz-adv-x="689" 
d="M296 705v120h130v-120h-130zM503 230h159q-14 -113 -93 -179t-203 -66q-148 0 -235.5 94.5t-87.5 254.5t86.5 254t235.5 94q121 0 198.5 -61t90.5 -167h-153q-10 48 -46 74.5t-89 26.5q-82 0 -127.5 -58t-45.5 -163q0 -104 45 -163t124 -59q72 0 113 49q19 25 28 69z" />
    <glyph glyph-name="cdotaccent" unicode="&#x10b;" horiz-adv-x="536" 
d="M203 540v120h130v-120h-130zM373 185l138 -7q-15 -91 -75.5 -141t-156.5 -50q-110 0 -175 68.5t-65 184.5q0 119 65 187.5t180 68.5q95 0 154.5 -50.5t66.5 -136.5h-135q-6 34 -29.5 53t-58.5 19q-49 0 -74.5 -35.5t-25.5 -101.5q0 -142 101 -142q74 0 90 83z" />
    <glyph glyph-name="Ccaron" unicode="&#x10c;" horiz-adv-x="689" 
d="M284 711l-73 108h100l52 -77l51 77h103l-78 -108h-155zM503 230h159q-14 -113 -93 -179t-203 -66q-148 0 -235.5 94.5t-87.5 254.5t86.5 254t235.5 94q121 0 198.5 -61t90.5 -167h-153q-10 48 -46 74.5t-89 26.5q-82 0 -127.5 -58t-45.5 -163q0 -104 45 -163t124 -59
q72 0 113 49q19 25 28 69z" />
    <glyph glyph-name="ccaron" unicode="&#x10d;" horiz-adv-x="536" 
d="M208 536l-87 127h118l45 -68l47 68h118l-91 -127h-150zM373 185l138 -7q-15 -91 -75.5 -141t-156.5 -50q-110 0 -175 68.5t-65 184.5q0 119 65 187.5t180 68.5q95 0 154.5 -50.5t66.5 -136.5h-135q-6 34 -29.5 53t-58.5 19q-49 0 -74.5 -35.5t-25.5 -101.5
q0 -142 101 -142q74 0 90 83z" />
    <glyph glyph-name="Dcaron" unicode="&#x10e;" horiz-adv-x="688" 
d="M248 711l-73 108h100l52 -77l51 77h103l-78 -108h-155zM71 0v667h226q102 0 161.5 -20.5t104.5 -71.5q82 -93 82 -238q0 -154 -87 -249q-44 -47 -103.5 -67.5t-152.5 -20.5h-231zM221 128h101q97 0 137 65q33 55 33 141q0 83 -32 138q-38 67 -128 67h-111v-411z" />
    <glyph glyph-name="dcaron" unicode="&#x10f;" horiz-adv-x="781" 
d="M576 367v56q34 13 53 40.5t21 63.5h-69v140h140v-120q0 -148 -145 -180zM384 0v52q-27 -35 -58 -50t-75 -15q-96 0 -154.5 70t-58.5 184q0 116 59.5 186t156.5 70q75 0 124 -50v220h142v-667h-136zM280 102q46 0 74.5 38.5t28.5 99.5q0 64 -28 103t-75 39
q-46 0 -74 -38.5t-28 -101.5t28 -101.5t74 -38.5z" />
    <glyph glyph-name="Dcroat" unicode="&#x110;" horiz-adv-x="688" 
d="M70 0v291h-43v118h43v258h226q101 0 161 -21t105 -72q82 -91 82 -237q0 -154 -87 -249q-44 -47 -103.5 -67.5t-152.5 -20.5h-231zM220 130h101q97 0 137 64q33 56 33 140q0 82 -32 136q-38 67 -127 67h-112v-128h117v-118h-117v-161z" />
    <glyph glyph-name="dcroat" unicode="&#x111;" horiz-adv-x="582" 
d="M384 0v52q-27 -35 -58 -50t-75 -15q-95 0 -153.5 70t-58.5 184q0 116 59.5 186t156.5 70q74 0 123 -50v106h-125v55h125v59h142v-59h32v-55h-32v-553h-136zM281 102q45 0 73.5 38.5t28.5 99.5q0 65 -28 103.5t-74 38.5t-74 -38.5t-28 -101.5t28 -101.5t74 -38.5z" />
    <glyph glyph-name="Emacron" unicode="&#x112;" horiz-adv-x="613" 
d="M196 715v100h267v-100h-267zM71 0v667h497v-128h-347v-130h303v-118h-303v-163h353v-128h-503z" />
    <glyph glyph-name="emacron" unicode="&#x113;" horiz-adv-x="564" 
d="M155 550v100h267v-100h-267zM375 141h144q-20 -71 -83 -112.5t-149 -41.5q-112 0 -180 70t-68 184q0 112 69 183.5t178 71.5q76 0 132 -37t83 -105q24 -59 24 -154h-343q7 -49 35 -75.5t74 -26.5q55 0 84 43zM183 300h196q-5 42 -29 65t-65 23t-67.5 -23t-34.5 -65z" />
    <glyph glyph-name="Edotaccent" unicode="&#x116;" horiz-adv-x="613" 
d="M252 705v120h130v-120h-130zM71 0v667h497v-128h-347v-130h303v-118h-303v-163h353v-128h-503z" />
    <glyph glyph-name="edotaccent" unicode="&#x117;" horiz-adv-x="564" 
d="M220 540v120h130v-120h-130zM375 141h144q-20 -71 -83 -112.5t-149 -41.5q-112 0 -180 70t-68 184q0 112 69 183.5t178 71.5q76 0 132 -37t83 -105q24 -59 24 -154h-343q7 -49 35 -75.5t74 -26.5q55 0 84 43zM183 300h196q-5 42 -29 65t-65 23t-67.5 -23t-34.5 -65z" />
    <glyph glyph-name="Eogonek" unicode="&#x118;" horiz-adv-x="613" 
d="M71 0v667h497v-128h-347v-130h303v-118h-303v-163h353v-128h-47q-55 -41 -55 -81q0 -21 17 -33.5t45 -12.5q15 0 35 6v-54q-33 -10 -59 -10q-49 0 -78.5 24t-29.5 63q0 48 60 98h-391z" />
    <glyph glyph-name="eogonek" unicode="&#x119;" horiz-adv-x="564" 
d="M450 -121v-54q-33 -10 -59 -10q-49 0 -78.5 24.5t-29.5 65.5q0 42 38 83q-14 -1 -34 -1q-111 0 -179.5 70t-68.5 184q0 113 69 184t178 71q76 0 132 -37t83 -105q24 -59 24 -154h-343q7 -49 35 -75.5t74 -26.5q55 0 84 43h144q-18 -75 -101 -123q-65 -46 -65 -99
q0 -21 17 -33.5t45 -12.5q15 0 35 6zM183 300h196q-5 42 -29 65t-65 23t-67.5 -23t-34.5 -65z" />
    <glyph glyph-name="Ecaron" unicode="&#x11a;" horiz-adv-x="613" 
d="M243 711l-73 108h100l52 -77l51 77h103l-78 -108h-155zM71 0v667h497v-128h-347v-130h303v-118h-303v-163h353v-128h-503z" />
    <glyph glyph-name="ecaron" unicode="&#x11b;" horiz-adv-x="564" 
d="M212 536l-87 127h118l45 -68l47 68h118l-91 -127h-150zM375 141h144q-20 -71 -83 -112.5t-149 -41.5q-112 0 -180 70t-68 184q0 112 69 183.5t178 71.5q76 0 132 -37t83 -105q24 -59 24 -154h-343q7 -49 35 -75.5t74 -26.5q55 0 84 43zM183 300h196q-5 42 -29 65t-65 23
t-67.5 -23t-34.5 -65z" />
    <glyph glyph-name="Gcircumflex" unicode="&#x11c;" horiz-adv-x="716" 
d="M212 711l78 108h156l72 -108h-100l-52 77l-51 -77h-103zM569 0l-21 85q-35 -54 -81 -77t-119 -23q-141 0 -223 92t-82 252t88.5 256.5t235.5 96.5q110 0 187 -58.5t100 -158.5l-145 -9q-12 47 -49 73t-91 26q-82 0 -129 -58t-47 -158q0 -108 46 -169t128 -61
q64 0 108.5 37t55.5 100h-163v123h291v-369h-90z" />
    <glyph glyph-name="gcircumflex" unicode="&#x11d;" horiz-adv-x="587" 
d="M129 536l92 127h150l86 -127h-118l-45 68l-47 -68h-118zM61 -12h147q15 -45 85 -45q43 0 67 19q16 13 21.5 30t5.5 54v32q-32 -29 -60.5 -40.5t-69.5 -11.5q-95 0 -156.5 65.5t-61.5 167.5q0 101 61.5 169t153.5 68q91 0 140 -75l-4 62h135v-437q0 -59 -9.5 -90.5
t-35.5 -56.5q-67 -65 -193 -65q-101 0 -160 40t-66 114zM174 261q0 -53 30 -86.5t77 -33.5q49 0 78 33t29 89q0 53 -29.5 85.5t-77.5 32.5t-77.5 -33.5t-29.5 -86.5z" />
    <glyph glyph-name="Gbreve" unicode="&#x11e;" horiz-adv-x="716" 
d="M445 826h80q-14 -58 -55 -90.5t-99 -32.5t-98.5 32.5t-54.5 90.5h79q25 -46 74 -46q51 0 74 46zM569 0l-21 85q-35 -54 -81 -77t-119 -23q-141 0 -223 92t-82 252t88.5 256.5t235.5 96.5q110 0 187 -58.5t100 -158.5l-145 -9q-12 47 -49 73t-91 26q-82 0 -129 -58
t-47 -158q0 -108 46 -169t128 -61q64 0 108.5 37t55.5 100h-163v123h291v-369h-90z" />
    <glyph glyph-name="gbreve" unicode="&#x11f;" horiz-adv-x="587" 
d="M358 670h86q-14 -66 -54.5 -103t-98.5 -37t-99 37t-55 103h86q23 -47 68 -47q46 0 67 47zM61 -12h147q15 -45 85 -45q43 0 67 19q16 13 21.5 30t5.5 54v32q-32 -29 -60.5 -40.5t-69.5 -11.5q-95 0 -156.5 65.5t-61.5 167.5q0 101 61.5 169t153.5 68q91 0 140 -75l-4 62
h135v-437q0 -59 -9.5 -90.5t-35.5 -56.5q-67 -65 -193 -65q-101 0 -160 40t-66 114zM174 261q0 -53 30 -86.5t77 -33.5q49 0 78 33t29 89q0 53 -29.5 85.5t-77.5 32.5t-77.5 -33.5t-29.5 -86.5z" />
    <glyph glyph-name="Gdotaccent" unicode="&#x120;" horiz-adv-x="716" 
d="M302 705v120h130v-120h-130zM569 0l-21 85q-35 -54 -81 -77t-119 -23q-141 0 -223 92t-82 252t88.5 256.5t235.5 96.5q110 0 187 -58.5t100 -158.5l-145 -9q-12 47 -49 73t-91 26q-82 0 -129 -58t-47 -158q0 -108 46 -169t128 -61q64 0 108.5 37t55.5 100h-163v123h291
v-369h-90z" />
    <glyph glyph-name="gdotaccent" unicode="&#x121;" horiz-adv-x="587" 
d="M228 540v120h130v-120h-130zM61 -12h147q15 -45 85 -45q43 0 67 19q16 13 21.5 30t5.5 54v32q-32 -29 -60.5 -40.5t-69.5 -11.5q-95 0 -156.5 65.5t-61.5 167.5q0 101 61.5 169t153.5 68q91 0 140 -75l-4 62h135v-437q0 -59 -9.5 -90.5t-35.5 -56.5q-67 -65 -193 -65
q-101 0 -160 40t-66 114zM174 261q0 -53 30 -86.5t77 -33.5q49 0 78 33t29 89q0 53 -29.5 85.5t-77.5 32.5t-77.5 -33.5t-29.5 -86.5z" />
    <glyph glyph-name="Gcommaaccent" unicode="&#x122;" horiz-adv-x="716" 
d="M569 0l-21 85q-35 -54 -81 -77t-119 -23q-141 0 -223 92t-82 252t88.5 256.5t235.5 96.5q110 0 187 -58.5t100 -158.5l-145 -9q-12 47 -49 73t-91 26q-82 0 -129 -58t-47 -158q0 -108 46 -169t128 -61q64 0 108.5 37t55.5 100h-163v123h291v-369h-90zM291 -43h126v-65
q0 -63 -29 -90t-101 -30v44q42 3 57.5 14t17.5 38h-71v89z" />
    <glyph glyph-name="gcommaaccent" unicode="&#x123;" horiz-adv-x="587" 
d="M236 548v61q0 38 3.5 54t13.5 27q21 22 78 22h21v-45h-22q-25 0 -33.5 -7t-8.5 -29h64v-83h-116zM61 -12h147q15 -45 85 -45q43 0 67 19q16 13 21.5 30t5.5 54v32q-32 -29 -60.5 -40.5t-69.5 -11.5q-95 0 -156.5 65.5t-61.5 167.5q0 101 61.5 169t153.5 68q91 0 140 -75
l-4 62h135v-437q0 -59 -9.5 -90.5t-35.5 -56.5q-67 -65 -193 -65q-101 0 -160 40t-66 114zM174 261q0 -53 30 -86.5t77 -33.5q49 0 78 33t29 89q0 53 -29.5 85.5t-77.5 32.5t-77.5 -33.5t-29.5 -86.5z" />
    <glyph glyph-name="Hcircumflex" unicode="&#x124;" horiz-adv-x="687" 
d="M190 711l78 108h156l72 -108h-100l-52 77l-51 -77h-103zM71 0v667h150v-251h245v251h150v-667h-150v288h-245v-288h-150z" />
    <glyph glyph-name="hcircumflex" unicode="&#x125;" horiz-adv-x="562" 
d="M-27 720l92 127h150l86 -127h-118l-45 68l-47 -68h-118zM63 0v667h142v-225q58 55 128 55q75 0 124 -52q43 -47 43 -148v-297h-142v271q0 58 -16 81q-19 25 -56 25q-39 0 -62 -25q-12 -12 -15.5 -27t-3.5 -54v-271h-142z" />
    <glyph glyph-name="Hbar" unicode="&#x126;" horiz-adv-x="687" 
d="M71 0v497h-43v90h43v80h150v-80h245v80h150v-80h43v-90h-43v-497h-150v288h-245v-288h-150zM221 416h245v81h-245v-81z" />
    <glyph glyph-name="hbar" unicode="&#x127;" horiz-adv-x="562" 
d="M63 0v553h-32v55h32v59h142v-59h125v-55h-125v-111q58 55 128 55q75 0 124 -52q43 -47 43 -148v-297h-142v271q0 58 -16 81q-19 25 -56 25q-39 0 -62 -25q-12 -12 -15.5 -27t-3.5 -54v-271h-142z" />
    <glyph glyph-name="Itilde" unicode="&#x128;" horiz-adv-x="291" 
d="M-7 712q7 59 26 82q24 27 59 27q15 0 51 -11q56 -18 70 -18q22 0 22 25v4h76q-5 -52 -16 -70q-24 -42 -72 -42q-19 0 -61 13q-47 16 -57 16q-19 0 -22 -26h-76zM71 0v667h150v-667h-150z" />
    <glyph glyph-name="itilde" unicode="&#x129;" horiz-adv-x="267" 
d="M-13 547q6 117 86 117q11 0 39 -6l46 -10q25 -5 29 -5q15 0 21 17h72q-5 -54 -18 -76q-22 -37 -64 -37q-17 0 -47 7l-47 11q-9 3 -20 3q-18 0 -25 -21h-72zM63 0v483h142v-483h-142z" />
    <glyph glyph-name="Imacron" unicode="&#x12a;" horiz-adv-x="291" 
d="M16 715v100h267v-100h-267zM71 0v667h150v-667h-150z" />
    <glyph glyph-name="imacron" unicode="&#x12b;" horiz-adv-x="267" 
d="M4 550v100h267v-100h-267zM63 0v483h142v-483h-142z" />
    <glyph glyph-name="Iogonek" unicode="&#x12e;" horiz-adv-x="291" 
d="M71 0v667h150v-667h-33q-54 -42 -54 -81q0 -21 16.5 -33.5t44.5 -12.5q15 0 35 6v-54q-32 -10 -59 -10q-48 0 -77.5 24t-29.5 63q0 49 59 98h-52z" />
    <glyph glyph-name="iogonek" unicode="&#x12f;" horiz-adv-x="267" 
d="M63 550v117h142v-117h-142zM63 0v483h142v-483h-31q-55 -41 -55 -81q0 -21 17 -33.5t45 -12.5q15 0 34 6v-54q-31 -10 -59 -10q-48 0 -77.5 24t-29.5 63q0 49 59 98h-45z" />
    <glyph glyph-name="Idotaccent" unicode="&#x130;" horiz-adv-x="291" 
d="M84 705v120h130v-120h-130zM71 0v667h150v-667h-150z" />
    <glyph glyph-name="dotlessi" unicode="&#x131;" horiz-adv-x="267" 
d="M63 0v483h142v-483h-142z" />
    <glyph glyph-name="Jcircumflex" unicode="&#x134;" horiz-adv-x="519" 
d="M223 711l78 108h156l72 -108h-100l-52 77l-51 -77h-103zM10 164v91h142v-68q0 -75 73 -75t73 75v480h150v-481q0 -99 -61 -150t-161 -51q-98 0 -157 49t-59 130z" />
    <glyph glyph-name="jcircumflex" unicode="&#x135;" horiz-adv-x="269" 
d="M-25 536l92 127h150l86 -127h-118l-45 68l-47 -68h-118zM13 -40q52 0 52 58v465h142v-472q0 -54 -5.5 -77.5t-22.5 -44.5q-35 -42 -115 -42h-77v113h26z" />
    <glyph glyph-name="Kcommaaccent" unicode="&#x136;" horiz-adv-x="654" 
d="M71 0v667h147v-246l225 246h197l-260 -263l282 -404h-180l-202 302l-62 -63v-239h-147zM254 -43h126v-65q0 -63 -29 -90t-101 -30v44q42 3 57.5 14t17.5 38h-71v89z" />
    <glyph glyph-name="kcommaaccent" unicode="&#x137;" horiz-adv-x="545" 
d="M63 0v667h142v-350l148 166h176l-184 -184l200 -299h-174l-120 206l-46 -45v-161h-142zM209 -58h122v-57q0 -79 -48 -102q-23 -11 -79 -19v45l8 2l33 6q28 5 31 43h-67v82z" />
    <glyph glyph-name="kgreenlandic" unicode="&#x138;" horiz-adv-x="544" 
d="M57 0v483h142v-184l170 184h161l-187 -188l213 -295h-169l-137 201l-51 -49v-152h-142z" />
    <glyph glyph-name="Lacute" unicode="&#x139;" horiz-adv-x="560" 
d="M102 696l47 137h163l-113 -137h-97zM71 0v667h150v-539h326v-128h-476z" />
    <glyph glyph-name="lacute" unicode="&#x13a;" horiz-adv-x="267" 
d="M89 696l46 137h164l-114 -137h-96zM63 0v667h142v-667h-142z" />
    <glyph glyph-name="Lcommaaccent" unicode="&#x13b;" horiz-adv-x="560" 
d="M71 0v667h150v-539h326v-128h-476zM221 -43h126v-65q0 -63 -29 -90t-101 -30v44q42 3 57.5 14t17.5 38h-71v89z" />
    <glyph glyph-name="lcommaaccent" unicode="&#x13c;" horiz-adv-x="267" 
d="M63 0v667h142v-667h-142zM73 -58h122v-57q0 -79 -48 -102q-23 -11 -79 -19v45l8 2l33 6q28 5 31 43h-67v82z" />
    <glyph glyph-name="Lcaron" unicode="&#x13d;" horiz-adv-x="560" 
d="M71 0v667h150v-539h326v-128h-476zM275 367v56q34 13 53 40.5t21 63.5h-69v140h140v-120q0 -148 -145 -180z" />
    <glyph glyph-name="lcaron" unicode="&#x13e;" horiz-adv-x="532" 
d="M327 367v56q34 13 53 40.5t21 63.5h-69v140h140v-120q0 -148 -145 -180zM63 0v667h142v-667h-142z" />
    <glyph glyph-name="Lslash" unicode="&#x141;" horiz-adv-x="560" 
d="M71 0v156l-43 -32v148l43 33v362h150v-263l199 151v-149l-199 -150v-128h326v-128h-476z" />
    <glyph glyph-name="lslash" unicode="&#x142;" horiz-adv-x="278" 
d="M68 0v271l-44 -33v77l44 33v319h142v-219l44 33v-77l-44 -33v-371h-142z" />
    <glyph glyph-name="Nacute" unicode="&#x143;" horiz-adv-x="683" 
d="M308 696l47 137h163l-113 -137h-97zM71 0v667h156l184 -332q5 -10 68 -135q-2 27 -2 65l-1 50v48v304h137v-667h-150l-189 341l-69 130q2 -35 2 -80q1 -36 1 -117v-274h-137z" />
    <glyph glyph-name="nacute" unicode="&#x144;" horiz-adv-x="564" 
d="M247 532l47 137h163l-113 -137h-97zM63 0v483h138v-47q40 36 67 48.5t65 12.5q79 0 124 -49t45 -135v-313h-142v263q0 63 -15 86q-19 28 -58 28q-38 0 -61 -26q-21 -24 -21 -80v-271h-142z" />
    <glyph glyph-name="Ncommaaccent" unicode="&#x145;" horiz-adv-x="683" 
d="M71 0v667h156l184 -332q5 -10 68 -135q-2 27 -2 65l-1 50v48v304h137v-667h-150l-189 341l-69 130q2 -35 2 -80q1 -36 1 -117v-274h-137zM275 -43h126v-65q0 -63 -29 -90t-101 -30v44q42 3 57.5 14t17.5 38h-71v89z" />
    <glyph glyph-name="ncommaaccent" unicode="&#x146;" horiz-adv-x="564" 
d="M63 0v483h138v-47q40 36 67 48.5t65 12.5q79 0 124 -49t45 -135v-313h-142v263q0 63 -15 86q-19 28 -58 28q-38 0 -61 -26q-21 -24 -21 -80v-271h-142zM218 -58h122v-57q0 -79 -48 -102q-23 -11 -79 -19v45l8 2l33 6q28 5 31 43h-67v82z" />
    <glyph glyph-name="Ncaron" unicode="&#x147;" horiz-adv-x="683" 
d="M272 711l-73 108h100l52 -77l51 77h103l-78 -108h-155zM71 0v667h156l184 -332q5 -10 68 -135q-2 27 -2 65l-1 50v48v304h137v-667h-150l-189 341l-69 130q2 -35 2 -80q1 -36 1 -117v-274h-137z" />
    <glyph glyph-name="ncaron" unicode="&#x148;" horiz-adv-x="564" 
d="M205 536l-87 127h118l45 -68l47 68h118l-91 -127h-150zM63 0v483h138v-47q40 36 67 48.5t65 12.5q79 0 124 -49t45 -135v-313h-142v263q0 63 -15 86q-19 28 -58 28q-38 0 -61 -26q-21 -24 -21 -80v-271h-142z" />
    <glyph glyph-name="Eng" unicode="&#x14a;" horiz-adv-x="659" 
d="M60 0v667h146v-105q25 46 51 70q56 50 139 50q95 0 152 -59q28 -28 40 -67t12 -103v-542q0 -46 -19.5 -61.5t-76.5 -15.5h-139v86h15q48 0 59 27q6 19 6 112v358q0 65 -23 93q-30 38 -84 38q-33 0 -61 -16.5t-43 -45.5q-19 -35 -19 -108v-378h-155z" />
    <glyph glyph-name="eng" unicode="&#x14b;" horiz-adv-x="589" 
d="M57 0v483h131v-83q29 51 67.5 74t96.5 23q91 0 140 -57q39 -46 39 -140v-394q0 -49 -28 -64q-16 -8 -63 -8h-124v65h13q33 0 46 11t13 39v323q0 47 -14 70q-22 36 -73 36q-62 0 -88 -47q-17 -30 -17 -88v-243h-139z" />
    <glyph glyph-name="Omacron" unicode="&#x14c;" horiz-adv-x="748" 
d="M247 715v100h267v-100h-267zM43 334q0 169 103 263q93 85 227 85q151 0 241.5 -96.5t90.5 -257.5q0 -152 -92 -247.5t-239 -95.5q-149 0 -240 96t-91 253zM200 334q0 -104 46 -163t128 -59q80 0 127 59t47 160q0 106 -46 165t-128 59t-128 -58.5t-46 -162.5z" />
    <glyph glyph-name="omacron" unicode="&#x14d;" horiz-adv-x="590" 
d="M169 550v100h267v-100h-267zM39 242q0 111 72 182.5t184 71.5q115 0 186 -71.5t71 -186.5q0 -109 -72.5 -180t-184.5 -71q-113 0 -184.5 71.5t-71.5 183.5zM182 242q0 -68 29.5 -105t83.5 -37t84 37t30 102q0 70 -29.5 107t-84.5 37q-54 0 -83.5 -37t-29.5 -104z" />
    <glyph glyph-name="Ohungarumlaut" unicode="&#x150;" horiz-adv-x="748" 
d="M442 696l47 137h163l-113 -137h-97zM242 696l47 137h163l-113 -137h-97zM43 334q0 169 103 263q93 85 227 85q151 0 241.5 -96.5t90.5 -257.5q0 -152 -92 -247.5t-239 -95.5q-149 0 -240 96t-91 253zM200 334q0 -104 46 -163t128 -59q80 0 127 59t47 160q0 106 -46 165
t-128 59t-128 -58.5t-46 -162.5z" />
    <glyph glyph-name="ohungarumlaut" unicode="&#x151;" horiz-adv-x="590" 
d="M350 532l47 137h163l-113 -137h-97zM150 532l47 137h163l-113 -137h-97zM39 242q0 111 72 182.5t184 71.5q115 0 186 -71.5t71 -186.5q0 -109 -72.5 -180t-184.5 -71q-113 0 -184.5 71.5t-71.5 183.5zM182 242q0 -68 29.5 -105t83.5 -37t84 37t30 102q0 70 -29.5 107
t-84.5 37q-54 0 -83.5 -37t-29.5 -104z" />
    <glyph glyph-name="OE" unicode="&#x152;" horiz-adv-x="1055" 
d="M513 0v17q-70 -32 -150 -32q-139 0 -229.5 100t-90.5 252q0 148 90 246.5t225 98.5q69 0 155 -37v22h496v-128h-346v-130h303v-118h-303v-163h352v-128h-502zM513 261v169q0 58 -34 88q-42 37 -101 37q-77 0 -127.5 -63.5t-50.5 -160.5q0 -92 51 -156t125 -64
q34 0 66 14.5t51 37.5q20 27 20 98z" />
    <glyph glyph-name="oe" unicode="&#x153;" horiz-adv-x="933" 
d="M745 141h143q-19 -70 -82.5 -112t-149.5 -42q-112 0 -178 69q-75 -69 -183 -69q-113 0 -184.5 71.5t-71.5 183.5t71.5 183t184.5 71q111 0 183 -69q69 69 177 69q76 0 132 -37t83 -105q24 -59 24 -154h-342q14 -102 108 -102q56 0 85 43zM552 300h196q-4 42 -28.5 65
t-65.5 23q-40 0 -67 -23t-35 -65zM408 239v5q0 67 -29.5 103t-83.5 36t-83.5 -37t-29.5 -104q0 -68 29.5 -105t83.5 -37t83.5 36t29.5 103z" />
    <glyph glyph-name="Racute" unicode="&#x154;" horiz-adv-x="651" 
d="M266 696l46 137h164l-114 -137h-96zM71 0v667h291q119 0 174 -40q64 -47 64 -140q0 -120 -111 -161q50 -16 70 -47t24 -97l5 -95q2 -51 27 -87h-147q-14 11 -19 22t-6 36l-6 91q-4 61 -32.5 89.5t-86.5 28.5h-100v-267h-147zM218 385h147q41 0 63 20t22 57t-22 57t-63 20
h-147v-154z" />
    <glyph glyph-name="racute" unicode="&#x155;" horiz-adv-x="380" 
d="M160 532l47 137h163l-113 -137h-97zM63 0v483h139l-4 -86q21 59 55.5 79.5t111.5 19.5v-134q-25 3 -36 3q-37 0 -65 -15.5t-40 -42.5q-19 -43 -19 -171v-136h-142z" />
    <glyph glyph-name="Rcommaaccent" unicode="&#x156;" horiz-adv-x="651" 
d="M71 0v667h291q119 0 174 -40q64 -47 64 -140q0 -120 -111 -161q50 -16 70 -47t24 -97l5 -95q2 -51 27 -87h-147q-14 11 -19 22t-6 36l-6 91q-4 61 -32.5 89.5t-86.5 28.5h-100v-267h-147zM218 385h147q41 0 63 20t22 57t-22 57t-63 20h-147v-154zM259 -43h126v-65
q0 -63 -29 -90t-101 -30v44q42 3 57.5 14t17.5 38h-71v89z" />
    <glyph glyph-name="rcommaaccent" unicode="&#x157;" horiz-adv-x="380" 
d="M63 0v483h139l-4 -86q21 59 55.5 79.5t111.5 19.5v-134q-25 3 -36 3q-37 0 -65 -15.5t-40 -42.5q-19 -43 -19 -171v-136h-142zM73 -58h122v-57q0 -79 -48 -102q-23 -11 -79 -19v45l8 2l33 6q28 5 31 43h-67v82z" />
    <glyph glyph-name="Rcaron" unicode="&#x158;" horiz-adv-x="651" 
d="M249 711l-73 108h100l52 -77l51 77h103l-78 -108h-155zM71 0v667h291q119 0 174 -40q64 -47 64 -140q0 -120 -111 -161q50 -16 70 -47t24 -97l5 -95q2 -51 27 -87h-147q-14 11 -19 22t-6 36l-6 91q-4 61 -32.5 89.5t-86.5 28.5h-100v-267h-147zM218 385h147q41 0 63 20
t22 57t-22 57t-63 20h-147v-154z" />
    <glyph glyph-name="rcaron" unicode="&#x159;" horiz-adv-x="380" 
d="M130 536l-87 127h118l45 -68l47 68h118l-91 -127h-150zM63 0v483h139l-4 -86q21 59 55.5 79.5t111.5 19.5v-134q-25 3 -36 3q-37 0 -65 -15.5t-40 -42.5q-19 -43 -19 -171v-136h-142z" />
    <glyph glyph-name="Sacute" unicode="&#x15a;" horiz-adv-x="634" 
d="M273 696l47 137h163l-113 -137h-97zM33 220h150q2 -57 35.5 -83.5t101.5 -26.5q58 0 91 20t33 55q0 50 -72 68l-121 30q-104 26 -145 62q-53 45 -53 131q0 97 71 151.5t197 54.5q162 0 227 -95q31 -46 39 -129h-150v11q0 41 -32 64.5t-88 23.5q-53 0 -83.5 -18t-30.5 -50
q0 -44 61 -57l135 -31q101 -23 147 -66q51 -47 51 -127q0 -104 -74.5 -163.5t-204.5 -59.5q-135 0 -209.5 61.5t-75.5 173.5z" />
    <glyph glyph-name="sacute" unicode="&#x15b;" horiz-adv-x="503" 
d="M210 532l47 137h163l-113 -137h-97zM28 157h133q12 -67 95 -67q33 0 53.5 13t20.5 34q0 31 -54 44l-88 20q-80 18 -113.5 49.5t-33.5 89.5q0 73 55 114.5t151 41.5q93 0 148 -41t64 -117h-133q-9 55 -82 55q-31 0 -49.5 -11t-18.5 -29q0 -14 12.5 -22t46.5 -15l89 -19
q81 -18 110 -47q36 -36 36 -97q0 -77 -58.5 -121.5t-158.5 -44.5t-159.5 45t-65.5 125z" />
    <glyph glyph-name="Scircumflex" unicode="&#x15c;" horiz-adv-x="634" 
d="M177 711l78 108h156l72 -108h-100l-52 77l-51 -77h-103zM33 220h150q2 -57 35.5 -83.5t101.5 -26.5q58 0 91 20t33 55q0 50 -72 68l-121 30q-104 26 -145 62q-53 45 -53 131q0 97 71 151.5t197 54.5q162 0 227 -95q31 -46 39 -129h-150v11q0 41 -32 64.5t-88 23.5
q-53 0 -83.5 -18t-30.5 -50q0 -44 61 -57l135 -31q101 -23 147 -66q51 -47 51 -127q0 -104 -74.5 -163.5t-204.5 -59.5q-135 0 -209.5 61.5t-75.5 173.5z" />
    <glyph glyph-name="scircumflex" unicode="&#x15d;" horiz-adv-x="503" 
d="M94 536l92 127h150l86 -127h-118l-45 68l-47 -68h-118zM28 157h133q12 -67 95 -67q33 0 53.5 13t20.5 34q0 31 -54 44l-88 20q-80 18 -113.5 49.5t-33.5 89.5q0 73 55 114.5t151 41.5q93 0 148 -41t64 -117h-133q-9 55 -82 55q-31 0 -49.5 -11t-18.5 -29q0 -14 12.5 -22
t46.5 -15l89 -19q81 -18 110 -47q36 -36 36 -97q0 -77 -58.5 -121.5t-158.5 -44.5t-159.5 45t-65.5 125z" />
    <glyph glyph-name="Scedilla" unicode="&#x15e;" horiz-adv-x="617" 
d="M22 224h156q4 -57 29 -83q37 -37 109 -37q55 0 87.5 23t32.5 63q0 31 -24 47q-18 14 -131 46q-90 27 -123 40t-58 34q-54 43 -54 125q0 91 70.5 145.5t187.5 54.5q124 0 191.5 -55t71.5 -159h-147q-5 96 -122 96q-47 0 -74.5 -19t-27.5 -51q0 -35 28 -49q22 -12 125 -39
q115 -30 158 -56q83 -49 83 -148q0 -98 -71 -155t-196 -61l-26 -42q32 6 45 6q42 0 68 -21.5t26 -55.5q0 -42 -35 -68t-91 -26q-66 0 -133 28l19 42q57 -22 98 -22q24 0 39 11.5t15 30.5q0 17 -13.5 27.5t-36.5 10.5q-16 0 -46 -9l-24 21l43 69q-118 9 -183 70.5t-66 165.5z
" />
    <glyph glyph-name="scedilla" unicode="&#x15f;" horiz-adv-x="499" 
d="M16 162h135q3 -44 26.5 -64t70.5 -20q40 0 63 16t23 44q0 26 -21 38t-90 26q-101 22 -137 43q-58 34 -58 105q0 70 56 107.5t160 37.5q127 0 182 -61q29 -32 33 -93h-129q-5 37 -25 52.5t-63 15.5q-75 0 -75 -50q0 -25 21.5 -36t98.5 -26q104 -20 145 -53t41 -96
q0 -73 -55.5 -114.5t-157.5 -46.5l-25 -39q32 5 43 5q39 0 63 -19.5t24 -51.5q0 -39 -32.5 -63.5t-84.5 -24.5q-62 0 -124 25l18 40q51 -20 91 -20q22 0 36 11t14 28q0 16 -12 26.5t-32 10.5q-18 0 -44 -9l-23 19l41 63q-92 7 -143.5 52.5t-53.5 121.5z" />
    <glyph glyph-name="Scaron" unicode="&#x160;" horiz-adv-x="634" 
d="M250 711l-73 108h100l52 -77l51 77h103l-78 -108h-155zM33 220h150q2 -57 35.5 -83.5t101.5 -26.5q58 0 91 20t33 55q0 50 -72 68l-121 30q-104 26 -145 62q-53 45 -53 131q0 97 71 151.5t197 54.5q162 0 227 -95q31 -46 39 -129h-150v11q0 41 -32 64.5t-88 23.5
q-53 0 -83.5 -18t-30.5 -50q0 -44 61 -57l135 -31q101 -23 147 -66q51 -47 51 -127q0 -104 -74.5 -163.5t-204.5 -59.5q-135 0 -209.5 61.5t-75.5 173.5z" />
    <glyph glyph-name="scaron" unicode="&#x161;" horiz-adv-x="503" 
d="M181 536l-87 127h118l45 -68l47 68h118l-91 -127h-150zM28 157h133q12 -67 95 -67q33 0 53.5 13t20.5 34q0 31 -54 44l-88 20q-80 18 -113.5 49.5t-33.5 89.5q0 73 55 114.5t151 41.5q93 0 148 -41t64 -117h-133q-9 55 -82 55q-31 0 -49.5 -11t-18.5 -29q0 -14 12.5 -22
t46.5 -15l89 -19q81 -18 110 -47q36 -36 36 -97q0 -77 -58.5 -121.5t-158.5 -44.5t-159.5 45t-65.5 125z" />
    <glyph glyph-name="Tcommaaccent" unicode="&#x162;" horiz-adv-x="567" 
d="M209 0v539h-202v128h554v-128h-202v-539h-150zM221 -43h126v-65q0 -63 -29 -90t-101 -30v44q42 3 57.5 14t17.5 38h-71v89z" />
    <glyph glyph-name="tcommaaccent" unicode="&#x163;" horiz-adv-x="327" 
d="M308 0h-87q-85 0 -114 32q-17 18 -22.5 43.5t-5.5 81.5v220h-68v100h68v153h142v-153h87v-100h-87v-188q0 -57 5.5 -69.5t30.5 -12.5h51v-107zM96 -58h122v-57q0 -79 -48 -102q-23 -11 -79 -19v45l8 2l33 6q28 5 31 43h-67v82z" />
    <glyph glyph-name="Tcaron" unicode="&#x164;" horiz-adv-x="567" 
d="M207 711l-73 108h100l52 -77l51 77h103l-78 -108h-155zM209 0v539h-202v128h554v-128h-202v-539h-150z" />
    <glyph glyph-name="tcaron" unicode="&#x165;" horiz-adv-x="592" 
d="M387 367v56q34 13 53 40.5t21 63.5h-69v140h140v-120q0 -148 -145 -180zM308 0h-87q-85 0 -114 32q-17 18 -22.5 43.5t-5.5 81.5v220h-68v100h68v153h142v-153h87v-100h-87v-188q0 -57 5.5 -69.5t30.5 -12.5h51v-107z" />
    <glyph glyph-name="Tbar" unicode="&#x166;" horiz-adv-x="567" 
d="M209 0v299h-152v90h152v150h-202v128h554v-128h-202v-150h152v-90h-152v-299h-150z" />
    <glyph glyph-name="tbar" unicode="&#x167;" horiz-adv-x="327" 
d="M308 0h-87q-85 0 -114 32q-17 18 -22.5 43.5t-5.5 81.5v95h-68v55h68v70h-68v100h68v153h142v-153h87v-100h-87v-70h87v-55h-87v-63q0 -57 5.5 -69.5t30.5 -12.5h51v-107z" />
    <glyph glyph-name="Utilde" unicode="&#x168;" horiz-adv-x="677" 
d="M187 712q7 59 26 82q24 27 59 27q15 0 51 -11q56 -18 70 -18q22 0 22 25v4h76q-5 -52 -16 -70q-24 -42 -72 -42q-19 0 -61 13q-47 16 -57 16q-19 0 -22 -26h-76zM606 667v-451q0 -121 -72 -174q-79 -57 -196 -57q-116 0 -195 57q-72 53 -72 174v451h150v-441
q0 -58 27 -84q33 -30 90 -30q58 0 91 30q27 26 27 84v441h150z" />
    <glyph glyph-name="utilde" unicode="&#x169;" horiz-adv-x="563" 
d="M135 547q6 117 86 117q11 0 39 -6l46 -10q25 -5 29 -5q15 0 21 17h72q-5 -54 -18 -76q-22 -37 -64 -37q-17 0 -47 7l-47 11q-9 3 -20 3q-18 0 -25 -21h-72zM365 0v53q-25 -36 -54.5 -51t-73.5 -15q-78 0 -128 50q-46 46 -46 143v303h142v-272q0 -36 2.5 -49.5t12.5 -26.5
q20 -28 62 -28q41 0 61 28q10 13 12.5 26.5t2.5 49.5v272h142v-483h-135z" />
    <glyph glyph-name="Umacron" unicode="&#x16a;" horiz-adv-x="677" 
d="M212 715v100h267v-100h-267zM606 667v-451q0 -121 -72 -174q-79 -57 -196 -57q-116 0 -195 57q-72 53 -72 174v451h150v-441q0 -58 27 -84q33 -30 90 -30q58 0 91 30q27 26 27 84v441h150z" />
    <glyph glyph-name="umacron" unicode="&#x16b;" horiz-adv-x="563" 
d="M158 550v100h267v-100h-267zM365 0v53q-25 -36 -54.5 -51t-73.5 -15q-78 0 -128 50q-46 46 -46 143v303h142v-272q0 -36 2.5 -49.5t12.5 -26.5q20 -28 62 -28q41 0 61 28q10 13 12.5 26.5t2.5 49.5v272h142v-483h-135z" />
    <glyph glyph-name="Ubreve" unicode="&#x16c;" horiz-adv-x="677" 
d="M412 826h80q-14 -58 -55 -90.5t-99 -32.5t-98.5 32.5t-54.5 90.5h79q25 -46 74 -46q51 0 74 46zM606 667v-451q0 -121 -72 -174q-79 -57 -196 -57q-116 0 -195 57q-72 53 -72 174v451h150v-441q0 -58 27 -84q33 -30 90 -30q58 0 91 30q27 26 27 84v441h150z" />
    <glyph glyph-name="ubreve" unicode="&#x16d;" horiz-adv-x="563" 
d="M349 670h86q-14 -66 -55 -103t-99 -37t-98.5 37t-54.5 103h86q23 -47 67 -47q45 0 68 47zM365 0v53q-25 -36 -54.5 -51t-73.5 -15q-78 0 -128 50q-46 46 -46 143v303h142v-272q0 -36 2.5 -49.5t12.5 -26.5q20 -28 62 -28q41 0 61 28q10 13 12.5 26.5t2.5 49.5v272h142
v-483h-135z" />
    <glyph glyph-name="Uring" unicode="&#x16e;" horiz-adv-x="677" 
d="M349 700q-40 0 -68.5 28.5t-28.5 68.5t28 68t68 28q41 0 69 -28.5t28 -69.5q0 -38 -28.5 -66.5t-67.5 -28.5zM349 754q17 0 29.5 12.5t12.5 29.5q0 18 -12.5 30.5t-30.5 12.5q-17 0 -29.5 -12.5t-12.5 -29.5q0 -18 12.5 -30.5t30.5 -12.5zM606 667v-451q0 -121 -72 -174
q-79 -57 -196 -57q-116 0 -195 57q-72 53 -72 174v451h150v-441q0 -58 27 -84q33 -30 90 -30q58 0 91 30q27 26 27 84v441h150z" />
    <glyph glyph-name="uring" unicode="&#x16f;" horiz-adv-x="563" 
d="M289 537q-39 0 -66.5 27.5t-27.5 66.5q0 38 27.5 65.5t65.5 27.5q40 0 67 -27.5t27 -67.5q0 -37 -27.5 -64.5t-65.5 -27.5zM289 587q17 0 30 13t13 30q0 19 -12.5 31.5t-31.5 12.5q-17 0 -30 -13t-13 -30q0 -18 13 -31t31 -13zM365 0v53q-25 -36 -54.5 -51t-73.5 -15
q-78 0 -128 50q-46 46 -46 143v303h142v-272q0 -36 2.5 -49.5t12.5 -26.5q20 -28 62 -28q41 0 61 28q10 13 12.5 26.5t2.5 49.5v272h142v-483h-135z" />
    <glyph glyph-name="Uhungarumlaut" unicode="&#x170;" horiz-adv-x="677" 
d="M410 696l47 137h163l-113 -137h-97zM210 696l47 137h163l-113 -137h-97zM606 667v-451q0 -121 -72 -174q-79 -57 -196 -57q-116 0 -195 57q-72 53 -72 174v451h150v-441q0 -58 27 -84q33 -30 90 -30q58 0 91 30q27 26 27 84v441h150z" />
    <glyph glyph-name="uhungarumlaut" unicode="&#x171;" horiz-adv-x="563" 
d="M343 532l47 137h163l-113 -137h-97zM143 532l47 137h163l-113 -137h-97zM365 0v53q-25 -36 -54.5 -51t-73.5 -15q-78 0 -128 50q-46 46 -46 143v303h142v-272q0 -36 2.5 -49.5t12.5 -26.5q20 -28 62 -28q41 0 61 28q10 13 12.5 26.5t2.5 49.5v272h142v-483h-135z" />
    <glyph glyph-name="Uogonek" unicode="&#x172;" horiz-adv-x="677" 
d="M530 -121v-54q-32 -10 -59 -10q-49 0 -78.5 24.5t-29.5 65.5q0 42 38 85q-25 -5 -61 -5q-118 0 -197 57q-72 53 -72 174v451h150v-441q0 -58 27 -84q33 -30 90 -30q58 0 91 30q27 26 27 84v441h150v-451q0 -74 -22.5 -116t-78.5 -76q-34 -21 -53 -49t-19 -55
q0 -22 16.5 -34.5t45.5 -12.5q15 0 35 6z" />
    <glyph glyph-name="uogonek" unicode="&#x173;" horiz-adv-x="563" 
d="M365 0v53q-25 -36 -54.5 -51t-73.5 -15q-78 0 -128 50q-46 46 -46 143v303h142v-272q0 -36 2.5 -49.5t12.5 -26.5q20 -28 62 -28q41 0 61 28q10 13 12.5 26.5t2.5 49.5v272h142v-483h-70q-54 -42 -54 -81q0 -21 16.5 -33.5t44.5 -12.5q15 0 35 6v-54q-31 -10 -59 -10
q-48 0 -77.5 23.5t-29.5 63.5q0 51 59 98z" />
    <glyph glyph-name="Ydieresis" unicode="&#x178;" horiz-adv-x="566" 
d="M328 705v120h130v-120h-130zM122 705v120h130v-120h-130zM208 0v251l-221 416h167l127 -277l135 277h164l-222 -416v-251h-150z" />
    <glyph glyph-name="Zacute" unicode="&#x179;" horiz-adv-x="611" 
d="M285 696l47 137h163l-113 -137h-97zM24 0v116l359 423h-342v128h538v-115l-357 -424h365v-128h-563z" />
    <glyph glyph-name="zacute" unicode="&#x17a;" horiz-adv-x="471" 
d="M209 532l47 137h163l-113 -137h-97zM21 0v91l246 279h-223v113h388v-113l-233 -257h249v-113h-427z" />
    <glyph glyph-name="Zdotaccent" unicode="&#x17b;" horiz-adv-x="611" 
d="M251 705v120h130v-120h-130zM24 0v116l359 423h-342v128h538v-115l-357 -424h365v-128h-563z" />
    <glyph glyph-name="zdotaccent" unicode="&#x17c;" horiz-adv-x="471" 
d="M184 540v120h130v-120h-130zM21 0v91l246 279h-223v113h388v-113l-233 -257h249v-113h-427z" />
    <glyph glyph-name="Zcaron" unicode="&#x17d;" horiz-adv-x="611" 
d="M246 711l-73 108h100l52 -77l51 77h103l-78 -108h-155zM24 0v116l359 423h-342v128h538v-115l-357 -424h365v-128h-563z" />
    <glyph glyph-name="zcaron" unicode="&#x17e;" horiz-adv-x="471" 
d="M175 536l-87 127h118l45 -68l47 68h118l-91 -127h-150zM21 0v91l246 279h-223v113h388v-113l-233 -257h249v-113h-427z" />
    <glyph glyph-name="florin" unicode="&#x192;" horiz-adv-x="560" 
d="M79 -153l106 543h-68l16 82h68l19 100q30 155 186 155h77l-22 -113h-42q-50 0 -58 -42l-19 -100h92l-16 -82h-92l-105 -543h-142z" />
    <glyph glyph-name="Scommaaccent" unicode="&#x218;" horiz-adv-x="634" 
d="M33 220h150q2 -57 35.5 -83.5t101.5 -26.5q58 0 91 20t33 55q0 50 -72 68l-121 30q-104 26 -145 62q-53 45 -53 131q0 97 71 151.5t197 54.5q162 0 227 -95q31 -46 39 -129h-150v11q0 41 -32 64.5t-88 23.5q-53 0 -83.5 -18t-30.5 -50q0 -44 61 -57l135 -31
q101 -23 147 -66q51 -47 51 -127q0 -104 -74.5 -163.5t-204.5 -59.5q-135 0 -209.5 61.5t-75.5 173.5zM257 -43h126v-65q0 -63 -29 -90t-101 -30v44q42 3 57.5 14t17.5 38h-71v89z" />
    <glyph glyph-name="scommaaccent" unicode="&#x219;" horiz-adv-x="503" 
d="M28 157h133q12 -67 95 -67q33 0 53.5 13t20.5 34q0 31 -54 44l-88 20q-80 18 -113.5 49.5t-33.5 89.5q0 73 55 114.5t151 41.5q93 0 148 -41t64 -117h-133q-9 55 -82 55q-31 0 -49.5 -11t-18.5 -29q0 -14 12.5 -22t46.5 -15l89 -19q81 -18 110 -47q36 -36 36 -97
q0 -77 -58.5 -121.5t-158.5 -44.5t-159.5 45t-65.5 125zM190 -58h122v-57q0 -79 -48 -102q-23 -11 -79 -19v45l8 2l33 6q28 5 31 43h-67v82z" />
    <glyph glyph-name="uni021A" unicode="&#x21a;" horiz-adv-x="567" 
d="M209 0v539h-202v128h554v-128h-202v-539h-150zM221 -43h126v-65q0 -63 -29 -90t-101 -30v44q42 3 57.5 14t17.5 38h-71v89z" />
    <glyph glyph-name="uni021B" unicode="&#x21b;" horiz-adv-x="327" 
d="M308 0h-87q-85 0 -114 32q-17 18 -22.5 43.5t-5.5 81.5v220h-68v100h68v153h142v-153h87v-100h-87v-188q0 -57 5.5 -69.5t30.5 -12.5h51v-107zM96 -58h122v-57q0 -79 -48 -102q-23 -11 -79 -19v45l8 2l33 6q28 5 31 43h-67v82z" />
    <glyph glyph-name="circumflex" unicode="&#x2c6;" 
d="M86 536l92 127h150l86 -127h-118l-45 68l-47 -68h-118z" />
    <glyph glyph-name="caron" unicode="&#x2c7;" 
d="M173 536l-87 127h118l45 -68l47 68h118l-91 -127h-150z" />
    <glyph glyph-name="breve" unicode="&#x2d8;" 
d="M318 670h86q-14 -66 -55 -103t-99 -37t-98.5 37t-54.5 103h86q23 -47 67 -47q45 0 68 47z" />
    <glyph glyph-name="dotaccent" unicode="&#x2d9;" 
d="M185 540v120h130v-120h-130z" />
    <glyph glyph-name="ring" unicode="&#x2da;" 
d="M251 537q-39 0 -66.5 27.5t-27.5 66.5q0 38 27.5 65.5t65.5 27.5q40 0 67 -27.5t27 -67.5q0 -37 -27.5 -64.5t-65.5 -27.5zM251 587q17 0 30 13t13 30q0 19 -12.5 31.5t-31.5 12.5q-17 0 -30 -13t-13 -30q0 -18 13 -31t31 -13z" />
    <glyph glyph-name="ogonek" unicode="&#x2db;" 
d="M439 -121l1 -54q-33 -10 -59 -10q-49 0 -78.5 24t-29.5 63q0 48 60 98h65q-55 -41 -55 -81q0 -21 17 -33.5t45 -12.5q15 0 34 6z" />
    <glyph glyph-name="tilde" unicode="&#x2dc;" 
d="M103 547q6 117 86 117q11 0 39 -6l46 -10q25 -5 29 -5q15 0 21 17h72q-5 -54 -18 -76q-22 -37 -64 -37q-17 0 -47 7l-47 11q-9 3 -20 3q-18 0 -25 -21h-72z" />
    <glyph glyph-name="hungarumlaut" unicode="&#x2dd;" 
d="M298 532l47 137h163l-113 -137h-97zM98 532l47 137h163l-113 -137h-97z" />
    <glyph glyph-name="tonos" unicode="&#x384;" 
d="M206 544l72 207h117l-112 -207h-77z" />
    <glyph glyph-name="dieresistonos" unicode="&#x385;" 
d="M205 614l71 207h117l-111 -207h-77zM321 536v87h97v-87h-97zM81 536v87h97v-87h-97z" />
    <glyph glyph-name="Alphatonos" unicode="&#x386;" horiz-adv-x="780" 
d="M124 0l236 667h157l238 -667h-157l-43 136h-238l-43 -136h-150zM49 429l72 207h117l-112 -207h-77zM353 251h166l-82 261h-2z" />
    <glyph glyph-name="Epsilontonos" unicode="&#x388;" horiz-adv-x="865" 
d="M310 0v667h490v-121h-347v-132h307v-121h-307v-172h358v-121h-501zM49 429l72 207h117l-112 -207h-77z" />
    <glyph glyph-name="Etatonos" unicode="&#x389;" horiz-adv-x="918" 
d="M311 0v667h143v-253h246v253h144v-667h-144v293h-246v-293h-143zM49 429l72 207h117l-112 -207h-77z" />
    <glyph glyph-name="Iotatonos" unicode="&#x38a;" horiz-adv-x="515" 
d="M303 0v667h144v-667h-144zM49 429l72 207h117l-112 -207h-77z" />
    <glyph glyph-name="Omicrontonos" unicode="&#x38c;" horiz-adv-x="909" 
d="M222 331q0 156 84.5 253t235.5 97q152 0 235.5 -96t83.5 -254q0 -157 -84 -254t-235 -97t-235.5 98t-84.5 253zM49 429l72 207h117l-112 -207h-77zM366 331q0 -111 49.5 -170.5t126.5 -59.5q79 0 127 58.5t48 171.5t-48 171t-127 58q-78 0 -127 -59t-49 -170z" />
    <glyph glyph-name="Upsilontonos" unicode="&#x38e;" horiz-adv-x="866" 
d="M484 0v217l-230 450h165l138 -289l134 289h157l-221 -450v-217h-143zM49 429l72 207h117l-112 -207h-77z" />
    <glyph glyph-name="Omegatonos" unicode="&#x38f;" horiz-adv-x="930" 
d="M226 -6v115h144v2q-120 75 -123 255q0 57 17 109.5t52.5 99.5t99 75t147.5 28q81 0 144 -26.5t99 -71.5t54 -98t18 -111q0 -185 -123 -260v-2h144v-115h-276v127q112 81 112 221q0 99 -42 157t-130 58q-86 0 -129 -58t-43 -153q0 -145 111 -225v-127h-276zM49 429l72 207
h117l-112 -207h-77z" />
    <glyph glyph-name="iotadieresistonos" unicode="&#x390;" horiz-adv-x="263" 
d="M90 614l71 207h117l-111 -207h-77zM206 536v87h97v-87h-97zM-34 536v87h97v-87h-97zM65 0v488h133v-488h-133z" />
    <glyph glyph-name="Alpha" unicode="&#x391;" horiz-adv-x="682" 
d="M26 0l236 667h157l238 -667h-157l-43 136h-238l-43 -136h-150zM255 251h166l-82 261h-2z" />
    <glyph glyph-name="Beta" unicode="&#x392;" horiz-adv-x="682" 
d="M75 0v667h316q210 0 210 -165q0 -95 -74 -146q55 -19 77.5 -56.5t22.5 -99.5q0 -96 -66 -148t-172 -52h-314zM218 403h166q36 0 57.5 18t21.5 54q0 44 -19.5 60.5t-65.5 16.5h-160v-149zM218 115h162q103 0 103 86q0 55 -27 73.5t-93 18.5h-145v-178z" />
    <glyph glyph-name="Gamma" unicode="&#x393;" horiz-adv-x="577" 
d="M75 0v667h470v-126h-327v-541h-143z" />
    <glyph glyph-name="uni0394" unicode="&#x394;" horiz-adv-x="682" 
d="M12 0l260 667h138l260 -667h-658zM183 115h311l-157 409z" />
    <glyph glyph-name="Epsilon" unicode="&#x395;" horiz-adv-x="630" 
d="M75 0v667h490v-121h-347v-132h307v-121h-307v-172h358v-121h-501z" />
    <glyph glyph-name="Zeta" unicode="&#x396;" horiz-adv-x="577" 
d="M28 0v81l341 465h-332v121h512v-81l-342 -465h342v-121h-521z" />
    <glyph glyph-name="Eta" unicode="&#x397;" horiz-adv-x="682" 
d="M75 0v667h143v-253h246v253h144v-667h-144v293h-246v-293h-143z" />
    <glyph glyph-name="Theta" unicode="&#x398;" horiz-adv-x="735" 
d="M48 334q0 156 84.5 253t235.5 97q152 0 235.5 -96t83.5 -254q0 -157 -84 -254t-235 -97t-235.5 98t-84.5 253zM368 104q79 0 127 58.5t48 171.5t-48 171t-127 58q-78 0 -127 -59t-49 -170t49.5 -170.5t126.5 -59.5zM255 286v110h225v-110h-225z" />
    <glyph glyph-name="Iota" unicode="&#x399;" horiz-adv-x="280" 
d="M68 0v667h144v-667h-144z" />
    <glyph glyph-name="Kappa" unicode="&#x39a;" horiz-adv-x="682" 
d="M75 0v667h143v-271l256 271h173l-258 -273l271 -394h-179l-198 290l-65 -68v-222h-143z" />
    <glyph glyph-name="Lambda" unicode="&#x39b;" horiz-adv-x="631" 
d="M21 0l225 667h140l224 -667h-154l-139 472h-2l-140 -472h-154z" />
    <glyph glyph-name="Mu" unicode="&#x39c;" horiz-adv-x="839" 
d="M80 0v667h214l125 -506h2l124 506h214v-667h-127v558h-2l-142 -558h-136l-143 558h-2v-558h-127z" />
    <glyph glyph-name="Nu" unicode="&#x39d;" horiz-adv-x="735" 
d="M86 0v667h148l275 -451h2v451h138v-667h-151l-272 459h-2v-459h-138z" />
    <glyph glyph-name="Xi" unicode="&#x39e;" horiz-adv-x="577" 
d="M43 546v121h491v-121h-491zM79 281v121h419v-121h-419zM38 0v121h502v-121h-502z" />
    <glyph glyph-name="Omicron" unicode="&#x39f;" horiz-adv-x="735" 
d="M48 334q0 156 84.5 253t235.5 97q152 0 235.5 -96t83.5 -254q0 -157 -84 -254t-235 -97t-235.5 98t-84.5 253zM368 104q79 0 127 58.5t48 171.5t-48 171t-127 58q-78 0 -127 -59t-49 -170t49.5 -170.5t126.5 -59.5z" />
    <glyph glyph-name="Pi" unicode="&#x3a0;" horiz-adv-x="682" 
d="M75 0v667h533v-667h-144v546h-246v-546h-143z" />
    <glyph glyph-name="Rho" unicode="&#x3a1;" horiz-adv-x="630" 
d="M75 0v667h265q127 0 190 -45.5t63 -167.5q0 -89 -56 -153.5t-171 -64.5h-147v-236h-144zM219 357h123q49 0 78 22.5t29 70.5q0 50 -27 73t-91 23h-112v-189z" />
    <glyph glyph-name="Sigma" unicode="&#x3a3;" horiz-adv-x="577" 
d="M22 0v104l240 242l-227 217v104h488v-121h-298l210 -210l-219 -215h315v-121h-509z" />
    <glyph glyph-name="Tau" unicode="&#x3a4;" horiz-adv-x="578" 
d="M217 0v546h-198v121h540v-121h-198v-546h-144z" />
    <glyph glyph-name="Upsilon" unicode="&#x3a5;" horiz-adv-x="630" 
d="M248 0v217l-230 450h165l138 -289l134 289h157l-221 -450v-217h-143z" />
    <glyph glyph-name="Phi" unicode="&#x3a6;" horiz-adv-x="682" 
d="M281 0v83q-115 8 -183 72t-68 177q0 117 66 188.5t185 72.5v74h121v-74q119 -1 184.5 -71t65.5 -190q0 -113 -67.5 -177t-182.5 -72v-83h-121zM402 193q123 18 123 139q0 139 -123 151v-290zM281 193v290q-124 -11 -124 -151q0 -121 124 -139z" />
    <glyph glyph-name="Chi" unicode="&#x3a7;" horiz-adv-x="630" 
d="M21 0l207 346l-199 321h169l117 -206l123 206h162l-198 -328l208 -339h-170l-125 216l-131 -216h-163z" />
    <glyph glyph-name="Psi" unicode="&#x3a8;" horiz-adv-x="788" 
d="M328 0v132q-14 0 -43.5 5.5t-74 18.5t-84 43.5t-55.5 71.5q-14 36 -14 114v282h132v-272q0 -46 6.5 -72.5t27.5 -42t40 -21t65 -14.5v422h132v-422q46 9 65 14.5t40 21t27.5 42t6.5 72.5v272h132v-282q0 -78 -14 -114q-16 -41 -55.5 -71.5t-84 -43.5t-74 -18.5
t-43.5 -5.5v-132h-132z" />
    <glyph glyph-name="uni03A9" unicode="&#x3a9;" horiz-adv-x="735" 
d="M31 0v115h144v2q-120 75 -123 255q0 57 17 109.5t52.5 99.5t99 75t147.5 28q81 0 144 -26.5t99 -71.5t54 -98t18 -111q0 -185 -123 -260v-2h144v-115h-276v127q112 81 112 221q0 99 -42 157t-130 58q-86 0 -129 -58t-43 -153q0 -145 111 -225v-127h-276z" />
    <glyph glyph-name="Iotadieresis" unicode="&#x3aa;" horiz-adv-x="280" 
d="M187 735v115h98v-115h-98zM2 735v115h98v-115h-98zM68 0v667h144v-667h-144z" />
    <glyph glyph-name="Upsilondieresis" unicode="&#x3ab;" horiz-adv-x="630" 
d="M360 735v115h98v-115h-98zM175 735v115h98v-115h-98zM248 0v217l-230 450h165l138 -289l134 289h157l-221 -450v-217h-143z" />
    <glyph glyph-name="alphatonos" unicode="&#x3ac;" horiz-adv-x="578" 
d="M195 544l72 207h117l-112 -207h-77zM384 67h-2q-15 -34 -53 -56.5t-89 -22.5q-90 0 -148 64.5t-58 176.5q0 53 11 99t34.5 85t65 62t97.5 23q96 0 143 -84h2v74h120v-488h-123v67zM166 237q0 -55 28.5 -97.5t80.5 -42.5q51 0 76.5 41.5t25.5 101.5q0 148 -104 148
q-53 0 -80 -46.5t-27 -104.5z" />
    <glyph glyph-name="epsilontonos" unicode="&#x3ad;" horiz-adv-x="525" 
d="M204 544l72 207h117l-112 -207h-77zM366 152h132q-20 -164 -224 -164q-109 0 -163.5 40t-54.5 100q0 103 110 124v2q-93 28 -93 107q0 48 32.5 80.5t75 44.5t90.5 12q184 0 211 -155h-128q-3 28 -23.5 42.5t-50.5 14.5q-33 0 -57 -13t-24 -41q0 -29 28 -41t64 -12
q25 0 36 2v-96q-8 -1 -22.5 0t-19.5 1q-91 0 -91 -64q0 -28 26 -42t58 -14q38 0 62.5 18t25.5 54z" />
    <glyph glyph-name="etatonos" unicode="&#x3ae;" horiz-adv-x="576" 
d="M214 544l72 207h117l-112 -207h-77zM71 0v488h125v-70h2q47 80 155 80q71 0 112 -40t41 -120v-526h-133v468q0 55 -18.5 79t-57.5 24q-94 0 -94 -121v-262h-132z" />
    <glyph glyph-name="iotatonos" unicode="&#x3af;" horiz-adv-x="263" 
d="M82 544l72 207h117l-112 -207h-77zM65 0v488h133v-488h-133z" />
    <glyph glyph-name="upsilondieresistonos" unicode="&#x3b0;" horiz-adv-x="576" 
d="M245 614l71 207h117l-111 -207h-77zM361 536v87h97v-87h-97zM121 536v87h97v-87h-97zM71 172v316h132v-289q0 -50 24 -76t57 -26q39 0 64 21t25 81v289h133v-316q0 -92 -58.5 -138t-159.5 -46q-98 0 -157.5 46.5t-59.5 137.5z" />
    <glyph glyph-name="alpha" unicode="&#x3b1;" horiz-adv-x="578" 
d="M384 67h-2q-15 -34 -53 -56.5t-89 -22.5q-90 0 -148 64.5t-58 176.5q0 53 11 99t34.5 85t65 62t97.5 23q96 0 143 -84h2v74h120v-488h-123v67zM166 237q0 -55 28.5 -97.5t80.5 -42.5q51 0 76.5 41.5t25.5 101.5q0 148 -104 148q-53 0 -80 -46.5t-27 -104.5z" />
    <glyph glyph-name="beta" unicode="&#x3b2;" horiz-adv-x="571" 
d="M187 57v-245h-132v657q0 95 56 153.5t161 58.5q91 0 150 -41t59 -132q0 -55 -30.5 -93.5t-82.5 -48.5v-2q70 -6 111 -56t41 -125q0 -90 -52.5 -142.5t-138.5 -52.5q-94 0 -140 69h-2zM187 240q0 -143 107 -143q41 0 67 29t26 71q0 108 -105 109q-13 0 -24 -4v102h19
q35 0 56 23.5t21 62.5q0 40 -21.5 63.5t-60.5 23.5q-85 0 -85 -101v-236z" />
    <glyph glyph-name="gamma" unicode="&#x3b3;" horiz-adv-x="525" 
d="M194 -3l-177 491h146l99 -305h2l99 305h145l-176 -491v-185h-138v185z" />
    <glyph glyph-name="delta" unicode="&#x3b4;" horiz-adv-x="577" 
d="M266 569v-2q64 -35 107.5 -64.5t82 -68.5t57.5 -86t19 -104q0 -113 -62 -184.5t-173 -71.5q-62 0 -109.5 18t-73.5 43.5t-42.5 59t-21.5 59.5t-5 50q0 107 57 170t160 69v2l-168 116v92h392v-98h-220zM183 218q0 -52 28 -89.5t78 -37.5q56 0 80.5 41t24.5 98
q0 88 -67 145q-144 -12 -144 -157z" />
    <glyph glyph-name="epsilon" unicode="&#x3b5;" horiz-adv-x="525" 
d="M366 152h132q-20 -164 -224 -164q-109 0 -163.5 40t-54.5 100q0 103 110 124v2q-93 28 -93 107q0 48 32.5 80.5t75 44.5t90.5 12q184 0 211 -155h-128q-3 28 -23.5 42.5t-50.5 14.5q-33 0 -57 -13t-24 -41q0 -29 28 -41t64 -12q25 0 36 2v-96q-8 -1 -22.5 0t-19.5 1
q-91 0 -91 -64q0 -28 26 -42t58 -14q38 0 62.5 18t25.5 54z" />
    <glyph glyph-name="zeta" unicode="&#x3b6;" horiz-adv-x="420" 
d="M266 0h-46q-89 0 -135.5 52t-46.5 137q0 116 54 207.5t154 172.5h-170v98h354v-74q-104 -58 -180.5 -161t-79.5 -214q0 -46 24 -77t74 -31h37q139 0 139 -125q-3 -77 -47 -173h-114q52 104 52 145q0 26 -14.5 34.5t-54.5 8.5z" />
    <glyph glyph-name="eta" unicode="&#x3b7;" horiz-adv-x="576" 
d="M71 0v488h125v-70h2q47 80 155 80q71 0 112 -40t41 -120v-526h-133v468q0 55 -18.5 79t-57.5 24q-94 0 -94 -121v-262h-132z" />
    <glyph glyph-name="theta" unicode="&#x3b8;" horiz-adv-x="576" 
d="M288 -12q-228 0 -228 346q0 75 10 133t34.5 108.5t71 78t112.5 27.5q49 0 87 -14.5t62 -41t40.5 -58.5t25 -73.5t11.5 -78.5t3 -81q0 -346 -229 -346zM192 394h193q0 31 -1.5 53t-7 48.5t-15.5 43t-28.5 27.5t-44.5 11q-31 0 -50.5 -14t-28.5 -46t-11.5 -50t-4.5 -58
q0 -5 -0.5 -8.5t-0.5 -6.5zM192 301v-40q0 -27 3.5 -52.5t13 -54t30 -46t49.5 -17.5q97 0 97 170v40h-193z" />
    <glyph glyph-name="iota" unicode="&#x3b9;" horiz-adv-x="263" 
d="M65 0v488h133v-488h-133z" />
    <glyph glyph-name="kappa" unicode="&#x3ba;" horiz-adv-x="525" 
d="M65 0v488h133v-178l157 178h162l-171 -187l177 -301h-152l-114 204l-59 -65v-139h-133z" />
    <glyph glyph-name="lambda" unicode="&#x3bb;" horiz-adv-x="525" 
d="M23 0l169 460l-76 207h140l247 -667h-146l-94 301h-2l-92 -301h-146z" />
    <glyph glyph-name="uni03BC" unicode="&#x3bc;" horiz-adv-x="576" 
d="M71 -188v676h132v-276q0 -109 85 -109t85 116v269h133v-488h-124v68h-2q-10 -35 -32 -57.5t-54 -22.5q-27 0 -52.5 22t-36.5 47h-2v-245h-132z" />
    <glyph glyph-name="nu" unicode="&#x3bd;" horiz-adv-x="525" 
d="M191 0l-168 488h143l96 -329h2l94 329h145l-170 -488h-142z" />
    <glyph glyph-name="xi" unicode="&#x3be;" horiz-adv-x="472" 
d="M417 -188h-111q11 15 29 67t18 80q0 20 -6 27t-30 10.5t-87 3.5q-79 0 -134.5 46t-55.5 134q0 71 43.5 116t115.5 56v2q-46 11 -80.5 39t-34.5 68q0 31 21 60.5t56 45.5v2h-85v98h353v-98h-92q-121 0 -121 -86q0 -83 150 -83h37v-104h-113q-118 0 -118 -97q0 -43 37 -66
t103 -23h30q121 0 121 -120q0 -83 -46 -178z" />
    <glyph glyph-name="omicron" unicode="&#x3bf;" horiz-adv-x="578" 
d="M44 241q0 112 66.5 184.5t178.5 72.5q113 0 179 -71t66 -186q0 -111 -62 -182t-183 -71q-122 0 -183.5 71.5t-61.5 181.5zM182 241q0 -64 26.5 -104t80.5 -40q56 0 81.5 40.5t25.5 103.5q0 147 -107 147q-57 0 -82 -42.5t-25 -104.5z" />
    <glyph glyph-name="pi" unicode="&#x3c0;" horiz-adv-x="519" 
d="M77 0v390h-58v98h539v-98h-57v-390h-132v390h-160v-390h-132z" />
    <glyph glyph-name="rho" unicode="&#x3c1;" horiz-adv-x="577" 
d="M71 -188v433q0 128 60 190.5t160 62.5q120 0 182.5 -73.5t62.5 -195.5q0 -96 -54.5 -168.5t-146.5 -72.5q-85 0 -130 56h-2v-232h-132zM301 91q37 0 60 26.5t30 57.5t7 66q0 30 -3.5 52.5t-12.5 46t-29 36t-50 12.5q-105 0 -105 -138q0 -26 0.5 -41t6 -40.5t15.5 -40
t31 -26t50 -11.5z" />
    <glyph glyph-name="sigma1" unicode="&#x3c2;" horiz-adv-x="525" 
d="M432 -188h-115q39 101 39 129q0 33 -21.5 44t-89.5 23q-5 1 -8.5 1.5t-7.5 1.5q-192 34 -192 239q0 243 239 248q100 0 156.5 -51.5t56.5 -149.5h-127q-6 97 -90 97q-49 0 -76 -38t-27 -89q0 -52 24 -94t73 -50l103 -24q55 -13 79 -40.5t24 -82.5q0 -29 -12 -77.5
t-28 -86.5z" />
    <glyph glyph-name="sigma" unicode="&#x3c3;" horiz-adv-x="578" 
d="M564 390h-70q40 -69 40 -149q0 -111 -62 -182t-183 -71q-122 0 -183.5 71.5t-61.5 181.5q0 112 66.5 184.5t178.5 72.5q34 0 76 -10h199v-98zM182 241q0 -64 26.5 -104t80.5 -40q56 0 81.5 40.5t25.5 103.5q0 147 -107 147q-57 0 -82 -42.5t-25 -104.5z" />
    <glyph glyph-name="tau" unicode="&#x3c4;" horiz-adv-x="472" 
d="M167 0v384h-135v104h408v-104h-135v-384h-138z" />
    <glyph glyph-name="upsilon" unicode="&#x3c5;" horiz-adv-x="576" 
d="M71 172v316h132v-289q0 -50 24 -76t57 -26q39 0 64 21t25 81v289h133v-316q0 -92 -58.5 -138t-159.5 -46q-98 0 -157.5 46.5t-59.5 137.5z" />
    <glyph glyph-name="phi" unicode="&#x3c6;" horiz-adv-x="682" 
d="M281 -188v176q-10 0 -33.5 5.5t-60.5 23t-68.5 44t-54.5 75t-23 110.5q0 65 24 114.5t56 74t70 40.5t59 19.5t31 3.5v109h121v-109q4 0 15 -1t34.5 -6.5t47 -15t50.5 -29t46.5 -44.5t33 -66t13.5 -90q0 -62 -23 -111t-54.5 -75.5t-68.5 -43.5t-60 -22.5t-34 -5.5v-176
h-121zM402 91q113 16 113 158q0 64 -28.5 104.5t-84.5 46.5v-309zM281 91v309q-54 -6 -84 -48.5t-30 -102.5q0 -142 114 -158z" />
    <glyph glyph-name="chi" unicode="&#x3c7;" horiz-adv-x="525" 
d="M9 -188l172 341l-164 335h149l97 -216l96 216h149l-164 -335l172 -341h-147l-106 222l-106 -222h-148z" />
    <glyph glyph-name="psi" unicode="&#x3c8;" horiz-adv-x="682" 
d="M51 193v295h127v-280q0 -69 23 -95.5t70 -26.5h10v521h121v-521q54 0 78.5 23t24.5 99v280h126v-295q0 -96 -56.5 -150.5t-172.5 -54.5v-176h-121v176q-118 0 -174 55t-56 150z" />
    <glyph glyph-name="omega" unicode="&#x3c9;" horiz-adv-x="682" 
d="M431 488h135q88 -112 88 -256q0 -50 -10 -92t-32 -77t-60.5 -55t-90.5 -20q-80 0 -120 77q-37 -77 -120 -77q-52 0 -90.5 20t-60.5 55t-32 77t-10 92q0 146 88 256h135q-96 -111 -96 -265q0 -46 20 -86t57 -40q14 0 24 6t14.5 13.5t7 24t3 27.5t0.5 34v152h121v-152
q0 -36 2 -55t13 -34.5t33 -15.5q29 0 47.5 24t24 50t5.5 52q0 153 -96 265z" />
    <glyph glyph-name="iotadieresis" unicode="&#x3ca;" horiz-adv-x="263" 
d="M175 558v116h98v-116h-98zM-10 558v116h98v-116h-98zM65 0v488h133v-488h-133z" />
    <glyph glyph-name="upsilondieresis" unicode="&#x3cb;" horiz-adv-x="576" 
d="M332 558v116h98v-116h-98zM147 558v116h98v-116h-98zM71 172v316h132v-289q0 -50 24 -76t57 -26q39 0 64 21t25 81v289h133v-316q0 -92 -58.5 -138t-159.5 -46q-98 0 -157.5 46.5t-59.5 137.5z" />
    <glyph glyph-name="omicrontonos" unicode="&#x3cc;" horiz-adv-x="578" 
d="M213 544l72 207h117l-112 -207h-77zM44 241q0 112 66.5 184.5t178.5 72.5q113 0 179 -71t66 -186q0 -111 -62 -182t-183 -71q-122 0 -183.5 71.5t-61.5 181.5zM182 241q0 -64 26.5 -104t80.5 -40q56 0 81.5 40.5t25.5 103.5q0 147 -107 147q-57 0 -82 -42.5t-25 -104.5z
" />
    <glyph glyph-name="upsilontonos" unicode="&#x3cd;" horiz-adv-x="576" 
d="M231 544l72 207h117l-112 -207h-77zM71 172v316h132v-289q0 -50 24 -76t57 -26q39 0 64 21t25 81v289h133v-316q0 -92 -58.5 -138t-159.5 -46q-98 0 -157.5 46.5t-59.5 137.5z" />
    <glyph glyph-name="omegatonos" unicode="&#x3ce;" horiz-adv-x="682" 
d="M285 544l72 207h117l-112 -207h-77zM431 488h135q88 -112 88 -256q0 -50 -10 -92t-32 -77t-60.5 -55t-90.5 -20q-80 0 -120 77q-37 -77 -120 -77q-52 0 -90.5 20t-60.5 55t-32 77t-10 92q0 146 88 256h135q-96 -111 -96 -265q0 -46 20 -86t57 -40q14 0 24 6t14.5 13.5
t7 24t3 27.5t0.5 34v152h121v-152q0 -36 2 -55t13 -34.5t33 -15.5q29 0 47.5 24t24 50t5.5 52q0 153 -96 265z" />
    <glyph glyph-name="uni05B0" unicode="&#x5b0;" horiz-adv-x="227" 
d="M113 -82q16 0 26.5 -10.5t10.5 -25.5t-10.5 -25.5t-26.5 -10.5q-15 0 -25.5 10.5t-10.5 25.5t10.5 25.5t25.5 10.5zM113 -181q16 0 26.5 -10.5t10.5 -25.5q0 -16 -10.5 -26.5t-26.5 -10.5q-15 0 -25.5 10.5t-10.5 26.5q0 15 10.5 25.5t25.5 10.5z" />
    <glyph glyph-name="uni05B1" unicode="&#x5b1;" horiz-adv-x="227" 
d="M177 -118q0 15 10.5 25.5t25.5 10.5t26 -10.5t11 -25.5t-11 -25.5t-26 -10.5t-25.5 10.5t-10.5 25.5zM113 -82q16 0 26.5 -10.5t10.5 -25.5t-10.5 -25.5t-26.5 -10.5q-15 0 -25.5 10.5t-10.5 25.5t10.5 25.5t25.5 10.5zM14 -82q15 0 25.5 -10.5t10.5 -25.5t-10.5 -25.5
t-25.5 -10.5q-16 0 -26 10.5t-10 25.5t10 25.5t26 10.5zM213 -181q15 0 26 -10.5t11 -25.5q0 -16 -11 -26.5t-26 -10.5t-25.5 10.5t-10.5 26.5q0 15 10.5 25.5t25.5 10.5zM63 -181q16 0 26 -10.5t10 -25.5q0 -16 -10 -26.5t-26 -10.5q-15 0 -25.5 10.5t-10.5 26.5
q0 15 10.5 25.5t25.5 10.5z" />
    <glyph glyph-name="uni05B2" unicode="&#x5b2;" horiz-adv-x="227" 
d="M171 -118q0 15 10.5 25.5t25.5 10.5q16 0 26 -10.5t10 -25.5t-10 -25.5t-26 -10.5q-15 0 -25.5 10.5t-10.5 25.5zM-17 -87h161v-46h-161v46zM207 -181q16 0 26 -10.5t10 -25.5q0 -16 -10 -26.5t-26 -10.5q-15 0 -25.5 10.5t-10.5 26.5q0 15 10.5 25.5t25.5 10.5z" />
    <glyph glyph-name="uni05B3" unicode="&#x5b3;" horiz-adv-x="227" 
d="M171 -118q0 15 10.5 25.5t25.5 10.5q16 0 26 -10.5t10 -25.5t-10 -25.5t-26 -10.5q-15 0 -25.5 10.5t-10.5 25.5zM-17 -87h161v-46h-58v-115h-45v115h-58v46zM207 -181q16 0 26 -10.5t10 -25.5q0 -16 -10 -26.5t-26 -10.5q-15 0 -25.5 10.5t-10.5 26.5q0 15 10.5 25.5
t25.5 10.5z" />
    <glyph glyph-name="uni05B4" unicode="&#x5b4;" horiz-adv-x="227" 
d="M113 -82q16 0 26.5 -10.5t10.5 -25.5t-10.5 -25.5t-26.5 -10.5q-15 0 -25.5 10.5t-10.5 25.5t10.5 25.5t25.5 10.5z" />
    <glyph glyph-name="uni05B5" unicode="&#x5b5;" horiz-adv-x="227" 
d="M127 -118q0 15 10.5 25.5t26.5 10.5q15 0 25.5 -10.5t10.5 -25.5t-10.5 -25.5t-25.5 -10.5q-16 0 -26.5 10.5t-10.5 25.5zM63 -82q16 0 26 -10.5t10 -25.5t-10 -25.5t-26 -10.5q-15 0 -25.5 10.5t-10.5 25.5t10.5 25.5t25.5 10.5z" />
    <glyph glyph-name="uni05B6" unicode="&#x5b6;" horiz-adv-x="227" 
d="M127 -118q0 15 10.5 25.5t26.5 10.5q15 0 25.5 -10.5t10.5 -25.5t-10.5 -25.5t-25.5 -10.5q-16 0 -26.5 10.5t-10.5 25.5zM63 -82q16 0 26 -10.5t10 -25.5t-10 -25.5t-26 -10.5q-15 0 -25.5 10.5t-10.5 25.5t10.5 25.5t25.5 10.5zM113 -181q16 0 26.5 -10.5t10.5 -25.5
q0 -16 -10.5 -26.5t-26.5 -10.5q-15 0 -25.5 10.5t-10.5 26.5q0 15 10.5 25.5t25.5 10.5z" />
    <glyph glyph-name="uni05B7" unicode="&#x5b7;" horiz-adv-x="227" 
d="M33 -87h160v-46h-160v46z" />
    <glyph glyph-name="uni05B8" unicode="&#x5b8;" horiz-adv-x="227" 
d="M33 -87h160v-46h-57v-115h-45v115h-58v46z" />
    <glyph glyph-name="uni05B9" unicode="&#x5b9;" horiz-adv-x="227" 
d="M113 571q-15 0 -25.5 10.5t-10.5 26.5q0 15 10.5 25.5t25.5 10.5q16 0 26.5 -10.5t10.5 -25.5q0 -16 -10.5 -26.5t-26.5 -10.5z" />
    <glyph glyph-name="uni05BB" unicode="&#x5bb;" horiz-adv-x="227" 
d="M32 -72q15 0 25.5 -10.5t10.5 -26.5q0 -15 -10.5 -25.5t-25.5 -10.5q-16 0 -26.5 10.5t-10.5 25.5q0 16 10.5 26.5t26.5 10.5zM113 -132q16 0 26.5 -10.5t10.5 -25.5q0 -16 -10.5 -26t-26.5 -10q-15 0 -25.5 10t-10.5 26q0 15 10.5 25.5t25.5 10.5zM195 -190
q16 0 26 -10.5t10 -26.5q0 -15 -10 -25.5t-26 -10.5q-15 0 -25.5 10.5t-10.5 25.5q0 16 10.5 26.5t25.5 10.5z" />
    <glyph glyph-name="uni05BC" unicode="&#x5bc;" horiz-adv-x="227" 
d="M113 215q-15 0 -25.5 10.5t-10.5 26.5q0 14 10.5 25t25.5 11t26 -11t11 -25q0 -16 -10.5 -26.5t-26.5 -10.5z" />
    <glyph glyph-name="uni05BD" unicode="&#x5bd;" horiz-adv-x="227" 
d="M91 -87h45v-161h-45v161z" />
    <glyph glyph-name="uni05BE" unicode="&#x5be;" horiz-adv-x="326" 
d="M19 379v115h289v-115h-289z" />
    <glyph glyph-name="uni05BF" unicode="&#x5bf;" horiz-adv-x="227" 
d="M-11 578v51h249v-51h-249z" />
    <glyph glyph-name="uni05C0" unicode="&#x5c0;" horiz-adv-x="273" 
d="M72 -82v658h129v-658h-129z" />
    <glyph glyph-name="uni05C1" unicode="&#x5c1;" horiz-adv-x="227" 
d="M456 569q-17 0 -28.5 11t-11.5 28q0 16 12 28t28 12t27.5 -11.5t11.5 -28.5t-11 -28t-28 -11z" />
    <glyph glyph-name="uni05C2" unicode="&#x5c2;" horiz-adv-x="227" 
d="M-94 569q-17 0 -28.5 11t-11.5 28q0 16 12 28t28 12t27.5 -11.5t11.5 -28.5t-11 -28t-28 -11z" />
    <glyph glyph-name="uni05C3" unicode="&#x5c3;" horiz-adv-x="258" 
d="M60 340v140h140v-140h-140zM60 0v140h140v-140h-140z" />
    <glyph glyph-name="uni05D0" unicode="&#x5d0;" horiz-adv-x="593" 
d="M46 0l16 105q11 71 36.5 122.5t83.5 81.5q-13 17 -141 185h157q104 -133 162 -212q28 17 39 43.5t18 92.5l8 76h125l-8 -77q-15 -153 -134 -202q71 -99 141 -215h-157q-62 108 -160 241q-20 -17 -28 -43t-16 -89l-14 -109h-128z" />
    <glyph glyph-name="uni05D1" unicode="&#x5d1;" horiz-adv-x="540" 
d="M39 0v115h289v156q0 69 -26.5 95t-107.5 26q-71 0 -155 -22v115q99 22 183 22q117 0 174.5 -39.5t57.5 -141.5v-211h70v-115h-485z" />
    <glyph glyph-name="uni05D2" unicode="&#x5d2;" horiz-adv-x="384" 
d="M45 -13v129q78 0 113.5 28t35.5 109v59q0 70 -81 70q-26 0 -62 -9v113q59 11 94 11q85 0 130.5 -40.5t45.5 -116.5v-210q0 -72 12 -110v-20h-122q-13 29 -13 75l-4 1q-46 -89 -149 -89z" />
    <glyph glyph-name="uni05D3" unicode="&#x5d3;" horiz-adv-x="491" 
d="M274 0v379h-252v115h447v-115h-68v-379h-127z" />
    <glyph glyph-name="uni05D4" unicode="&#x5d4;" horiz-adv-x="583" 
d="M68 368v117q108 22 200 22q126 0 189 -39.5t63 -141.5v-326h-127v268q0 71 -29.5 96.5t-119.5 25.5q-68 0 -176 -22zM68 0v252h127v-252h-127z" />
    <glyph glyph-name="uni05D5" unicode="&#x5d5;" horiz-adv-x="272" 
d="M72 0v494h128v-494h-128z" />
    <glyph glyph-name="uni05D6" unicode="&#x5d6;" horiz-adv-x="328" 
d="M100 0l-13 224v9v10q0 54 21.5 83.5t61.5 51.5v1h-145v115h280v-115q-50 -5 -71 -35t-21 -86q0 -4 0.5 -12.5t0.5 -13.5l15 -232h-129z" />
    <glyph glyph-name="uni05D7" unicode="&#x5d7;" horiz-adv-x="588" 
d="M72 0v485q110 22 202 22q126 0 188.5 -39.5t62.5 -141.5v-326h-127v268q0 69 -25 95t-99 26q-47 0 -74 -5v-384h-128z" />
    <glyph glyph-name="uni05D8" unicode="&#x5d8;" horiz-adv-x="602" 
d="M61 218v276h128v-245q0 -149 118 -149q66 0 93.5 45t27.5 110q0 60 -31 98t-89 38q-17 0 -40 -5v113q42 8 73 8q101 0 158 -67.5t57 -170.5q0 -52 -14 -100t-43.5 -90t-81 -67t-119.5 -25q-112 0 -174.5 59t-62.5 172z" />
    <glyph glyph-name="uni05D9" unicode="&#x5d9;" horiz-adv-x="258" 
d="M66 230v264h127v-264h-127z" />
    <glyph glyph-name="uni05DA" unicode="&#x5da;" horiz-adv-x="516" 
d="M22 369v117q93 21 182 21q119 0 183 -42.5t64 -143.5v-513h-126v457q0 71 -34.5 98t-118.5 27q-68 0 -150 -21z" />
    <glyph glyph-name="uni05DB" unicode="&#x5db;" horiz-adv-x="517" 
d="M39 7v117q80 -22 141 -22q168 0 168 145t-168 145q-61 0 -141 -22v116q89 21 159 21q134 0 206.5 -66t72.5 -194t-72.5 -194t-206.5 -66q-74 0 -159 20z" />
    <glyph glyph-name="uni05DC" unicode="&#x5dc;" horiz-adv-x="474" 
d="M190 0l118 379h-278v288h126v-173h289v-104l-122 -390h-133z" />
    <glyph glyph-name="uni05DD" unicode="&#x5dd;" horiz-adv-x="593" 
d="M72 0v480q127 27 225 27q233 0 233 -182v-325h-458zM200 115h202v163q0 61 -27.5 87t-81.5 26q-53 0 -93 -8v-268z" />
    <glyph glyph-name="uni05DE" unicode="&#x5de;" horiz-adv-x="607" 
d="M41 0l68 282l-62 212h127l25 -88h3q58 101 172 101q81 0 128 -44.5t47 -126.5v-187q0 -158 -180 -158q-52 0 -97 9v110q48 -6 69 -6q39 0 60 15.5t21 54.5v119q0 100 -77 100q-50 0 -77 -48t-50 -143l-47 -202h-130z" />
    <glyph glyph-name="uni05DF" unicode="&#x5df;" horiz-adv-x="272" 
d="M72 -192v686h128v-686h-128z" />
    <glyph glyph-name="uni05E0" unicode="&#x5e0;" horiz-adv-x="374" 
d="M42 0v115h143v197q0 70 -81 70q-28 0 -62 -9v113q57 11 94 11q85 0 130 -40.5t45 -116.5v-210q0 -72 13 -110v-20h-282z" />
    <glyph glyph-name="uni05E1" unicode="&#x5e1;" horiz-adv-x="589" 
d="M111 59q-70 70 -70 189q0 115 70 186q67 73 183 73q117 0 185 -74q69 -73 69 -185q0 -113 -69 -188q-67 -73 -185 -73q-116 0 -183 72zM203 139q34 -40 91 -40q60 0 93 42t33 107q0 66 -33 105q-33 42 -93 42q-55 0 -91 -39q-34 -38 -34 -108q0 -69 34 -109z" />
    <glyph glyph-name="uni05E2" unicode="&#x5e2;" horiz-adv-x="586" 
d="M52 1v113q20 -1 57.5 -4.5t56.5 -4.5l-123 389h133l119 -388q85 10 90 79l20 309h125l-23 -341q-6 -89 -71 -126t-189 -37q-95 0 -195 11z" />
    <glyph glyph-name="uni05E3" unicode="&#x5e3;" horiz-adv-x="586" 
d="M255 306v-111q-24 -5 -55 -5q-62 0 -102 28.5t-40 85.5v9v10l11 164q92 20 182 20q271 0 271 -198v-501h-126v447q0 77 -37 107.5t-112 30.5q-27 0 -63 -3l-3 -56v-6v-7q0 -18 43 -18q18 0 31 3z" />
    <glyph glyph-name="uni05E4" unicode="&#x5e4;" horiz-adv-x="568" 
d="M61 7v117q84 -23 163 -23q175 0 175 148q0 72 -42.5 108t-115.5 36h-14q-7 0 -21 -1.5t-22 -1.5l-3 -56v-10q0 -19 43 -19q13 0 31 2v-110q-24 -5 -55 -5q-62 0 -102 29t-40 85v9v10l11 162q85 20 170 20q134 0 211 -62t77 -195q0 -129 -74.5 -196t-216.5 -67
q-81 0 -175 20z" />
    <glyph glyph-name="uni05E5" unicode="&#x5e5;" horiz-adv-x="537" 
d="M197 -192v408l-186 278h144l150 -227q31 15 43 43.5t18 93.5l8 90h127l-10 -91q-17 -175 -167 -212v-383h-127z" />
    <glyph glyph-name="uni05E6" unicode="&#x5e6;" horiz-adv-x="562" 
d="M49 0v115h254l-284 379h155l165 -218q22 14 31.5 42t15.5 86l8 90h125l-9 -91q-13 -145 -121 -194l80 -105v-104h-420z" />
    <glyph glyph-name="uni05E7" unicode="&#x5e7;" horiz-adv-x="588" 
d="M258 0v112q27 -3 48 -3q69 0 74 74l13 196h-343v115h479l-25 -341q-11 -159 -177 -159q-35 0 -69 6zM68 -192v444h126v-444h-126z" />
    <glyph glyph-name="uni05E8" unicode="&#x5e8;" horiz-adv-x="508" 
d="M319 0v269q0 71 -33 96t-117 25q-66 0 -147 -21v117q91 21 178 21q119 0 182 -41t63 -140v-326h-126z" />
    <glyph glyph-name="uni05E9" unicode="&#x5e9;" horiz-adv-x="765" 
d="M95 6l-44 488h127l22 -242q73 4 95 33q22 28 26 129q1 20 2 80h128q0 -10 -1 -30q-2 -64 -4 -92t-10 -68.5t-22.5 -56.5t-41 -35.5t-66.5 -27.5t-99 -12l6 -66q64 -8 121 -8q56 0 96 9t68 32t44.5 50.5t26.5 77.5t14 99t7 128h126q-2 -61 -4.5 -104t-8.5 -91.5
t-15.5 -81.5t-24.5 -68.5t-35.5 -58t-49.5 -44t-66 -33.5t-85 -19t-106 -7q-93 0 -226 19z" />
    <glyph glyph-name="uni05EA" unicode="&#x5ea;" horiz-adv-x="608" 
d="M14 -5v113q18 -3 35 -3q22 0 33 8.5t11 34.5v337q110 22 206 22q125 0 185 -39.5t60 -141.5v-326h-126v268q0 70 -24.5 95.5t-99.5 25.5q-35 0 -75 -5v-285q0 -57 -39 -83t-103 -26q-28 0 -63 5z" />
    <glyph glyph-name="uni05F0" unicode="&#x5f0;" horiz-adv-x="530" 
d="M330 0v494h128v-494h-128zM72 0v494h128v-494h-128z" />
    <glyph glyph-name="uni05F1" unicode="&#x5f1;" horiz-adv-x="530" 
d="M330 0v494h128v-494h-128zM66 230v264h127v-264h-127z" />
    <glyph glyph-name="uni05F2" unicode="&#x5f2;" horiz-adv-x="530" 
d="M331 230v264h127v-264h-127zM72 230v264h128v-264h-128z" />
    <glyph glyph-name="uni05F3" unicode="&#x5f3;" horiz-adv-x="213" 
d="M47 373l38 213h117l-76 -213h-79z" />
    <glyph glyph-name="uni05F4" unicode="&#x5f4;" horiz-adv-x="394" 
d="M228 373l38 213h117l-76 -213h-79zM47 373l38 213h117l-76 -213h-79z" />
    <glyph glyph-name="uni200E" unicode="&#x200e;" horiz-adv-x="0" 
d="M0 0v738h98l-39 40l15 14l64 -65l-63 -62l-16 14l39 38h-78v-717h-20z" />
    <glyph glyph-name="uni200F" unicode="&#x200f;" horiz-adv-x="0" 
d="M0 0v717h-79l39 -38l-16 -14l-63 62l64 65l15 -14l-39 -40h99v-738h-20z" />
    <glyph glyph-name="endash" unicode="&#x2013;" horiz-adv-x="560" 
d="M44 183v128h471v-128h-471z" />
    <glyph glyph-name="emdash" unicode="&#x2014;" horiz-adv-x="713" 
d="M0 183v128h713v-128h-713z" />
    <glyph glyph-name="uni2015" unicode="&#x2015;" horiz-adv-x="1000" 
d="M118 183v128h764v-128h-764z" />
    <glyph glyph-name="quoteleft" unicode="&#x2018;" horiz-adv-x="265" 
d="M60 367v120q0 148 145 180v-56q-34 -13 -53 -40.5t-21 -63.5h69v-140h-140z" />
    <glyph glyph-name="quoteright" unicode="&#x2019;" horiz-adv-x="265" 
d="M60 367v56q34 13 53 40.5t21 63.5h-69v140h140v-120q0 -148 -145 -180z" />
    <glyph glyph-name="quotesinglbase" unicode="&#x201a;" horiz-adv-x="265" 
d="M65 0v140h140v-120q0 -148 -145 -180v56q34 13 53 40.5t21 63.5h-69z" />
    <glyph glyph-name="quotedblleft" unicode="&#x201c;" horiz-adv-x="462" 
d="M257 367v120q0 148 145 180v-56q-34 -13 -53 -40.5t-21 -63.5h69v-140h-140zM60 367v120q0 148 145 180v-56q-34 -13 -53 -40.5t-21 -63.5h69v-140h-140z" />
    <glyph glyph-name="quotedblright" unicode="&#x201d;" horiz-adv-x="462" 
d="M257 367v56q34 13 53 40.5t21 63.5h-69v140h140v-120q0 -148 -145 -180zM60 367v56q34 13 53 40.5t21 63.5h-69v140h140v-120q0 -148 -145 -180z" />
    <glyph glyph-name="quotedblbase" unicode="&#x201e;" horiz-adv-x="462" 
d="M262 0v140h140v-120q0 -148 -145 -180v56q34 13 53 40.5t21 63.5h-69zM65 0v140h140v-120q0 -148 -145 -180v56q34 13 53 40.5t21 63.5h-69z" />
    <glyph glyph-name="dagger" unicode="&#x2020;" horiz-adv-x="569" 
d="M215 -140v480h-188v113h188v220h140v-220h187v-113h-187v-480h-140z" />
    <glyph glyph-name="daggerdbl" unicode="&#x2021;" horiz-adv-x="569" 
d="M27 80v113h188v147h-188v113h188v220h140v-220h187v-113h-187v-147h187v-113h-187v-220h-140v220h-188z" />
    <glyph glyph-name="bullet" unicode="&#x2022;" horiz-adv-x="667" 
d="M335 200q-57 0 -98 40.5t-41 97.5q0 58 41 98.5t100 40.5q55 0 95.5 -41t40.5 -97q0 -58 -40.5 -98.5t-97.5 -40.5z" />
    <glyph glyph-name="onedotenleader" unicode="&#x2024;" horiz-adv-x="250" 
d="M62 0v126h126v-126h-126z" />
    <glyph glyph-name="twodotenleader" unicode="&#x2025;" 
d="M312 0v126h126v-126h-126zM62 0v126h126v-126h-126z" />
    <glyph glyph-name="ellipsis" unicode="&#x2026;" horiz-adv-x="780" 
d="M580 0v140h140v-140h-140zM320 0v140h140v-140h-140zM60 0v140h140v-140h-140z" />
    <glyph glyph-name="perthousand" unicode="&#x2030;" horiz-adv-x="1042" 
d="M171 317q-66 0 -105 48t-39 129q0 80 39 128t104 48q67 0 105.5 -48t38.5 -131q0 -79 -39 -126.5t-104 -47.5zM186 0l264 667h74l-264 -667h-74zM171 382q63 0 63 110q0 113 -64 113q-63 0 -63 -111q0 -112 64 -112zM729 174q0 80 39 128t104 48q67 0 105.5 -48
t38.5 -131q0 -79 -39 -126.5t-104 -47.5q-66 0 -105 48t-39 129zM402 174q0 80 39 128t104 48q67 0 105.5 -48t38.5 -131q0 -79 -39 -126.5t-104 -47.5q-66 0 -105 48t-39 129zM809 174q0 -112 64 -112q63 0 63 110q0 113 -64 113q-63 0 -63 -111zM482 174q0 -112 64 -112
q63 0 63 110q0 113 -64 113q-63 0 -63 -111z" />
    <glyph glyph-name="uni2032" unicode="&#x2032;" horiz-adv-x="227" 
d="M56 400l-29 267h172l-28 -267h-115z" />
    <glyph glyph-name="uni2033" unicode="&#x2033;" horiz-adv-x="435" 
d="M268 400l-28 267h167l-29 -267h-110zM55 400l-28 267h168l-29 -267h-111z" />
    <glyph glyph-name="guilsinglleft" unicode="&#x2039;" horiz-adv-x="242" 
d="M188 73l-148 127v113l148 128v-121l-77 -63l77 -63v-121z" />
    <glyph glyph-name="guilsinglright" unicode="&#x203a;" horiz-adv-x="242" 
d="M54 73v121l77 63l-77 63v121l148 -128v-113z" />
    <glyph glyph-name="fraction" unicode="&#x2044;" horiz-adv-x="124" 
d="M-33 0h-74l264 667h74z" />
    <glyph glyph-name="zero.superior" unicode="&#x2070;" horiz-adv-x="373" 
d="M186 259q-74 0 -114 53.5t-40 152.5q0 98 40.5 152t113.5 54q83 0 124 -68q30 -51 30 -141q0 -96 -40.5 -149.5t-113.5 -53.5zM186 336q60 0 60 127q0 131 -60 131t-60 -129t60 -129z" />
    <glyph glyph-name="four.superior" unicode="&#x2074;" horiz-adv-x="373" 
d="M196 267v81h-167v94l142 221h120v-241h48v-74h-48v-81h-95zM109 422h87v75l1 66l-19 -30l-10 -17l-8 -14z" />
    <glyph glyph-name="five.superior" unicode="&#x2075;" horiz-adv-x="373" 
d="M137 588l-6 -63q34 9 60 9q64 0 103 -37t39 -97q0 -65 -42.5 -103t-114.5 -38q-67 0 -106 32t-46 93h99q6 -49 54 -49q27 0 43 17.5t16 46.5q0 28 -15.5 44.5t-42.5 16.5q-26 0 -48 -19h-93l27 222h248v-75h-175z" />
    <glyph glyph-name="six.superior" unicode="&#x2076;" horiz-adv-x="373" 
d="M336 554h-92q-7 49 -46 49q-59 0 -64 -97q34 23 76 23q60 0 96.5 -36.5t36.5 -96.5q0 -62 -40 -100t-105 -38q-78 0 -119 52t-41 152q0 209 164 209q58 0 92.5 -30.5t41.5 -86.5zM196 330q26 0 40.5 17t14.5 46q0 30 -14.5 47t-40.5 17t-40.5 -17t-14.5 -46
q0 -30 14.5 -47t40.5 -17z" />
    <glyph glyph-name="seven.superior" unicode="&#x2077;" horiz-adv-x="373" 
d="M87 267q8 169 142 317h-186v79h302v-73q-66 -49 -108.5 -140.5t-41.5 -182.5h-108z" />
    <glyph glyph-name="eight.superior" unicode="&#x2078;" horiz-adv-x="373" 
d="M175 259q-67 0 -109 35t-42 90q0 35 14.5 57t50.5 42q-53 25 -53 81q0 47 39 77t100 30t100 -30t39 -77q0 -56 -52 -81q36 -20 50.5 -42.5t14.5 -56.5q0 -56 -42.5 -90.5t-109.5 -34.5zM175 515q21 0 34 11.5t13 30.5q0 20 -13 32t-34 12t-34 -12t-13 -31t13 -31t34 -12z
M175 333q26 0 43 16t17 41t-17 41.5t-43 16.5t-42.5 -16t-16.5 -41t16.5 -41.5t42.5 -16.5z" />
    <glyph glyph-name="nine.superior" unicode="&#x2079;" horiz-adv-x="373" 
d="M37 375h92q8 -48 46 -48q29 0 46 25t18 70q-36 -22 -74 -22q-60 0 -97.5 37t-37.5 97q0 61 40.5 99t105.5 38q78 0 119 -52.5t41 -152.5q0 -207 -160 -207q-61 0 -94.5 28.5t-44.5 87.5zM177 471q25 0 40 17.5t15 45.5q0 30 -15 47.5t-40 17.5t-40 -17.5t-15 -46.5
t15 -46.5t40 -17.5z" />
    <glyph glyph-name="plus.superior" unicode="&#x207a;" horiz-adv-x="337" 
d="M117 322v100h-103v96h103v100h103v-100h102v-96h-102v-100h-103z" />
    <glyph glyph-name="minus.superior" unicode="&#x207b;" horiz-adv-x="337" 
d="M14 422v96h308v-96h-308z" />
    <glyph glyph-name="parenleft.superior" unicode="&#x207d;" horiz-adv-x="247" 
d="M135 172q-97 126 -97 255q0 66 20.5 122t68.5 122h88q-79 -102 -79 -242q0 -130 79 -257h-80z" />
    <glyph glyph-name="parenright.superior" unicode="&#x207e;" horiz-adv-x="247" 
d="M32 172q79 102 79 242q0 128 -78 257h80q96 -128 96 -256q0 -122 -89 -243h-88z" />
    <glyph glyph-name="uni20AA" unicode="&#x20aa;" horiz-adv-x="875" 
d="M277 0v305h98q29 0 29 -32v-157h176q28 0 48.5 6t38.5 31.5t18 70.5v270h127v-269q0 -225 -226 -225h-309zM72 0v494h311q225 0 225 -224v-48q0 -32 -28 -32h-99v72q0 69 -30 93t-76 24h-175v-379h-128z" />
    <glyph glyph-name="Euro" unicode="&#x20ac;" horiz-adv-x="708" 
d="M44 242l29 68h57q-1 15 -1 25q0 12 1 21h-86l29 68h66q24 119 110.5 188.5t210.5 69.5q119 0 204 -64l-61 -144q-21 38 -58.5 59.5t-84.5 21.5q-60 0 -103.5 -35t-59.5 -96h285l-29 -68h-266q-1 -12 -1 -23t1 -23h246l-29 -68h-207q18 -62 60.5 -96t102.5 -34
q95 0 142 78v-177q-67 -28 -142 -28q-124 0 -209 68t-112 189h-95z" />
    <glyph glyph-name="uni2113" unicode="&#x2113;" 
d="M268 270l-12 -12q-22 -134 -22 -176q0 -25 14 -25q8 0 14 7.5t22 36.5q12 21 25 21q20 0 20 -24q0 -31 -28 -71q-35 -49 -84 -49q-62 0 -83 70q-7 28 -7 88q0 14 1 26q-31 -36 -41 -36q-7 0 -13 10.5t-6 21.5q0 10 5 17.5t33 40.5q14 15 30 37q37 212 89.5 314t124.5 102
q39 0 62.5 -27.5t23.5 -71.5q0 -64 -43 -142q-24 -45 -43 -70t-82 -88zM267 334q43 48 75.5 116.5t32.5 111.5q0 14 -6 23.5t-15 9.5q-25 0 -45 -60t-42 -201z" />
    <glyph glyph-name="uni2117" unicode="&#x2117;" horiz-adv-x="769" 
d="M39 333q0 146 102 247t249 101q140 0 240.5 -103t100.5 -245q0 -143 -101.5 -245t-243.5 -102q-143 0 -245 102t-102 245zM110 333q0 -116 81 -198.5t194 -82.5q114 0 194.5 82.5t80.5 198.5t-80 199t-191 83q-117 0 -198 -82t-81 -200zM256 144v385h163q58 0 90 -18
q51 -29 51 -90q0 -43 -35.5 -81.5t-113.5 -38.5h-64v-157h-91zM347 354h52q71 0 71 60q0 31 -16 45t-50 14h-57v-119z" />
    <glyph glyph-name="trademark" unicode="&#x2122;" horiz-adv-x="883" 
d="M418 267v400h138l54 -208q3 -13 8.5 -38t7.5 -33l5 20q0 3 2.5 11.5t3.5 14.5q6 25 7 26l54 207h137v-400h-93v209v35q-1 -7 -4 -13q-5 -18 -5 -19l-58 -212h-98l-57 212l-9 32v-35v-209h-93zM134 267v318h-125v82h351v-82h-125v-318h-101z" />
    <glyph glyph-name="Omega" unicode="&#x2126;" horiz-adv-x="735" 
d="M31 0v115h144v2q-120 75 -123 255q0 57 17 109.5t52.5 99.5t99 75t147.5 28q81 0 144 -26.5t99 -71.5t54 -98t18 -111q0 -185 -123 -260v-2h144v-115h-276v127q112 81 112 221q0 99 -42 157t-130 58q-86 0 -129 -58t-43 -153q0 -145 111 -225v-127h-276z" />
    <glyph glyph-name="estimated" unicode="&#x212e;" horiz-adv-x="873" 
d="M672 132h104q-127 -145 -341 -145q-158 0 -271 93q-114 96 -114 250q0 151 114 249q53 44 125.5 69.5t149.5 25.5q161 0 275 -101q109 -97 109 -256h-609v-185q84 -101 227 -101q151 0 231 101zM214 354h455v169q-79 106 -234 106q-141 0 -221 -106v-169z" />
    <glyph glyph-name="onethird" unicode="&#x2153;" horiz-adv-x="871" 
d="M267 0l264 667h74l-264 -667h-74zM151 267v269h-112v61q65 1 89.5 13.5t35.5 52.5h85v-396h-98zM514 138h93q1 -70 61 -70q26 0 41.5 14.5t15.5 39.5q0 52 -66 52h-29v67q19 -1 28 -1q30 0 47 12.5t17 34.5q0 19 -14.5 31t-36.5 12q-26 0 -41.5 -14.5t-15.5 -39.5v-10
h-92q2 67 40.5 102.5t109.5 35.5q62 0 102 -31.5t40 -80.5q0 -45 -45 -80q31 -18 43.5 -37.5t12.5 -51.5q0 -58 -43.5 -94.5t-112.5 -36.5q-73 0 -113.5 38t-41.5 108z" />
    <glyph glyph-name="twothirds" unicode="&#x2154;" horiz-adv-x="871" 
d="M28 267q8 61 36.5 97t115.5 98q59 42 59 82q0 22 -15 35t-38 13q-30 0 -43 -17t-15 -57h-93q6 153 154 153q67 0 109.5 -36t42.5 -93q0 -54 -50 -100q-19 -16 -87 -61q-23 -15 -47 -37h183v-77h-312zM266 0l264 667h74l-264 -667h-74zM513 138h93q1 -70 61 -70
q26 0 41.5 14.5t15.5 39.5q0 52 -66 52h-29v67q19 -1 28 -1q30 0 47 12.5t17 34.5q0 19 -14.5 31t-36.5 12q-26 0 -41.5 -14.5t-15.5 -39.5v-10h-92q2 67 40.5 102.5t109.5 35.5q62 0 102 -31.5t40 -80.5q0 -45 -45 -80q31 -18 43.5 -37.5t12.5 -51.5q0 -58 -43.5 -94.5
t-112.5 -36.5q-73 0 -113.5 38t-41.5 108z" />
    <glyph glyph-name="oneeighth" unicode="&#x215b;" horiz-adv-x="871" 
d="M267 0l264 667h74l-264 -667h-74zM151 267v269h-112v61q65 1 89.5 13.5t35.5 52.5h85v-396h-98zM522 117q0 34 14.5 56.5t49.5 42.5q-52 25 -52 81q0 47 39 77t100 30t100 -30t39 -77q0 -56 -53 -81q36 -20 50.5 -42t14.5 -57q0 -55 -42 -90t-109 -35t-109 35t-42 90z
M626 291q0 -19 13 -31t34 -12t34 11.5t13 30.5q0 20 -13 32t-34 12t-34 -12t-13 -31zM614 124q0 -25 16.5 -41.5t42.5 -16.5t42.5 16t16.5 41q0 26 -16.5 42t-42.5 16t-42.5 -16t-16.5 -41z" />
    <glyph glyph-name="threeeighths" unicode="&#x215c;" horiz-adv-x="871" 
d="M116 532h-92q1 67 40 103t110 36q63 0 102.5 -31.5t39.5 -81.5q0 -45 -45 -79q31 -18 43.5 -37.5t12.5 -51.5q0 -58 -43.5 -94.5t-112.5 -36.5q-73 0 -113.5 38t-41.5 108h93q1 -70 61 -70q26 0 41.5 15t15.5 40q0 52 -66 52q-14 0 -29 -2v68q23 -1 28 -1q64 0 64 47
q0 19 -14.5 31t-36.5 12q-26 0 -41.5 -14.5t-15.5 -39.5v-11zM267 0l264 667h74l-264 -667h-74zM521 117q0 34 14.5 56.5t50.5 42.5q-52 25 -52 81q0 47 39 77t100 30t100 -30t39 -77q0 -56 -53 -81q36 -20 50.5 -42t14.5 -57q0 -56 -42.5 -90.5t-109.5 -34.5t-109 35
t-42 90zM626 291q0 -19 13 -31t34 -12t34 11.5t13 30.5q0 20 -13 32t-34 12t-34 -12t-13 -31zM613 124q0 -25 16.5 -41.5t42.5 -16.5t43 16t17 41t-17 41.5t-43 16.5t-42.5 -16t-16.5 -41z" />
    <glyph glyph-name="fiveeighths" unicode="&#x215d;" horiz-adv-x="871" 
d="M267 0l263 667h74l-264 -667h-73zM137 588l-6 -63q34 9 60 9q64 0 103 -37t39 -97q0 -65 -42.5 -103t-114.5 -38q-67 0 -106 32t-46 93h99q6 -49 54 -49q27 0 43 17.5t16 46.5q0 28 -15.5 44.5t-42.5 16.5q-26 0 -48 -19h-93l27 222h248v-75h-175zM521 117q0 35 14.5 57
t50.5 42q-52 25 -52 81q0 47 39 77t100 30t99.5 -30t38.5 -77q0 -56 -52 -81q36 -20 50.5 -42.5t14.5 -56.5q0 -56 -42.5 -90.5t-109.5 -34.5t-109 35t-42 90zM626 291q0 -19 13 -31t34 -12q20 0 33 11.5t13 30.5q0 20 -12.5 32t-34.5 12q-20 0 -33 -12t-13 -31zM613 124
q0 -25 16.5 -41.5t42.5 -16.5t43 16t17 41t-17 41.5t-43 16.5t-42.5 -16t-16.5 -41z" />
    <glyph glyph-name="seveneighths" unicode="&#x215e;" horiz-adv-x="871" 
d="M267 0l264 667h73l-264 -667h-73zM87 267q8 169 142 317h-186v79h302v-73q-66 -49 -108.5 -140.5t-41.5 -182.5h-108zM521 117q0 35 14.5 57t50.5 42q-52 25 -52 81q0 47 39 77t100 30t99.5 -30t38.5 -77q0 -56 -52 -81q36 -20 50.5 -42.5t14.5 -56.5q0 -56 -42.5 -90.5
t-109.5 -34.5t-109 35t-42 90zM626 291q0 -19 13 -31t34 -12q20 0 33 11.5t13 30.5q0 20 -12.5 32t-34.5 12q-20 0 -33 -12t-13 -31zM613 124q0 -25 16.5 -41.5t42.5 -16.5t43 16t17 41t-17 41.5t-43 16.5t-42.5 -16t-16.5 -41z" />
    <glyph glyph-name="partialdiff" unicode="&#x2202;" 
d="M60 551l16 114q184 -21 282 -107q124 -108 124 -296q0 -106 -44 -173q-65 -98 -191 -98q-99 0 -164 65t-65 163q0 91 57.5 152t143.5 61q39 0 65.5 -9.5t56.5 -34.5q-28 50 -44 68.5t-51 41.5q-88 45 -186 53zM147 215q0 -44 30 -76t71 -32q43 0 72.5 31.5t29.5 77.5
t-28.5 77t-69.5 31q-44 0 -74.5 -31.5t-30.5 -77.5z" />
    <glyph glyph-name="Delta" unicode="&#x2206;" horiz-adv-x="682" 
d="M12 0l260 667h138l260 -667h-658zM183 115h311l-157 409z" />
    <glyph glyph-name="product" unicode="&#x220f;" horiz-adv-x="667" 
d="M19 -133h73v766h-73v117h630v-117h-72v-766h72v-117h-268v117h65v766h-224v-766h63v-117h-266v117z" />
    <glyph glyph-name="summation" unicode="&#x2211;" horiz-adv-x="667" 
d="M34 -96l232 361l-232 330v155h588v-256h-132l-16 121h-276l242 -350l-241 -381h284l9 126h139v-260h-597v154z" />
    <glyph glyph-name="minus" unicode="&#x2212;" 
d="M10 322v73h481v-73h-481z" />
    <glyph glyph-name="radical" unicode="&#x221a;" horiz-adv-x="667" 
d="M148 0l-59 255h-89v121h172l28 -106q8 -30 21 -142h8q25 168 64 316l99 383h275v-121h-168l-180 -706h-171z" />
    <glyph glyph-name="infinity" unicode="&#x221e;" horiz-adv-x="667" 
d="M176 181q-70 0 -114 44.5t-44 114.5q0 68 44.5 112.5t113.5 44.5q88 0 156 -91q67 92 160 92q70 0 114 -44.5t44 -114.5q0 -69 -44 -113.5t-112 -44.5q-92 0 -158 92q-70 -92 -160 -92zM388 333q41 -61 91 -61q29 0 48 19.5t19 48.5t-19.5 48t-48.5 19q-47 0 -94 -68
q2 -2 4 -6zM190 272q48 0 94 67q-47 67 -95 67q-29 0 -48 -19t-19 -48t19.5 -48t48.5 -19z" />
    <glyph glyph-name="integral" unicode="&#x222b;" 
d="M69 -101q22 -10 42 -10q42 0 55 34q5 13 5 108v411q0 106 1.5 130.5t9.5 54.5q15 57 65 90t121 33q37 0 87 -10l-25 -139q-23 10 -43 10q-42 0 -54 -34q-5 -14 -5 -60v-455q0 -132 -5 -160q-25 -150 -200 -150q-50 0 -79 8z" />
    <glyph glyph-name="approxequal" unicode="&#x2248;" 
d="M83 348l-75 53q55 137 150 137q32 0 112 -33q59 -25 76 -25q21 0 35.5 10.5t35.5 40.5l75 -53q-31 -74 -66.5 -105t-90.5 -31q-21 0 -39.5 6t-71.5 29q-48 21 -73 21q-33 0 -68 -50zM83 129l-75 53q55 137 150 137q34 0 112 -33q60 -25 76 -25q22 0 36 10t35 41l75 -52
q-31 -75 -66.5 -106t-90.5 -31q-21 0 -39.5 6t-71.5 29q-48 21 -73 21q-33 0 -68 -50z" />
    <glyph glyph-name="notequal" unicode="&#x2260;" 
d="M82 85l34 61h-83v129h130l41 76h-171v129h224l68 130l96 -52l-42 -78h87v-129h-140l-40 -76h180l-1 -129h-227l-60 -113z" />
    <glyph glyph-name="lessequal" unicode="&#x2264;" 
d="M33 355v130l433 163v-145l-265 -84l264 -83l1 -144zM33 29v135h433v-135h-433z" />
    <glyph glyph-name="greaterequal" unicode="&#x2265;" 
d="M33 192l1 144l264 83l-265 84v145l433 -163v-130zM33 29v135h433v-135h-433z" />
    <glyph glyph-name="lozenge" unicode="&#x25ca;" horiz-adv-x="667" 
d="M334 -26l-260 360l260 359l259 -359zM334 63l197 271l-197 270l-197 -270z" />
    <glyph glyph-name="fi" unicode="&#xe103;" horiz-adv-x="581" 
d="M376 550v117h142v-117h-142zM76 0v377h-67v100h67v35q0 155 156 155h78v-113h-42q-50 0 -50 -43v-34h92v-100h-92v-377h-142zM376 0v483h142v-483h-142z" />
    <glyph glyph-name="fl" unicode="&#xe104;" horiz-adv-x="581" 
d="M376 0v667h142v-667h-142zM76 0v377h-67v100h67v35q0 155 156 155h78v-113h-42q-50 0 -50 -43v-34h92v-100h-92v-377h-142z" />
    <glyph glyph-name="onesuperior" unicode="&#xe105;" horiz-adv-x="373" 
d="M152 267v269h-113v61q66 1 90.5 13.5t35.5 52.5h85v-396h-98z" />
    <glyph glyph-name="twosuperior" unicode="&#xe107;" horiz-adv-x="373" 
d="M28 267q8 61 36.5 97t115.5 98q59 42 59 82q0 22 -15 35t-38 13q-30 0 -43 -17t-15 -57h-93q6 153 154 153q67 0 109.5 -36t42.5 -93q0 -54 -50 -100q-19 -16 -87 -61q-23 -15 -47 -37h183v-77h-312z" />
    <glyph glyph-name="threesuperior" unicode="&#xe108;" horiz-adv-x="373" 
d="M116 532h-92q1 67 40 103t110 36q63 0 102.5 -31.5t39.5 -81.5q0 -45 -45 -79q31 -18 43.5 -37.5t12.5 -51.5q0 -58 -43.5 -94.5t-112.5 -36.5q-73 0 -113.5 38t-41.5 108h93q1 -70 61 -70q26 0 41.5 15t15.5 40q0 52 -66 52q-14 0 -29 -2v68q23 -1 28 -1q64 0 64 47
q0 19 -14.5 31t-36.5 12q-26 0 -41.5 -14.5t-15.5 -39.5v-11z" />
    <glyph glyph-name="onehalf.alt" unicode="&#xec73;" horiz-adv-x="291" 
d="M121 393v185h-79v42q46 0 63.5 8.5t24.5 35.5h60v-271h-69zM0 302v61h291v-61h-291zM35 0q5 42 25 67t82 67q41 28 41 55q0 15 -10.5 24t-27.5 9q-21 0 -30 -11.5t-11 -38.5h-64q3 104 107 104q47 0 77 -24.5t30 -63.5q0 -37 -35 -68q-17 -14 -61 -42q-20 -13 -33 -25
h128v-53h-218z" />
    <glyph glyph-name="onethird.alt" unicode="&#xec74;" horiz-adv-x="291" 
d="M121 393v185h-79v42q46 0 63.5 8.5t24.5 35.5h60v-271h-69zM0 302v61h291v-61h-291zM26 94h65q1 -47 43 -47q40 0 40 37q0 35 -47 35h-20v46q13 -1 19 -1q46 0 46 33q0 13 -10 21.5t-26 8.5q-40 0 -40 -45h-64q0 46 27 70.5t77 24.5q44 0 72 -21.5t28 -55.5
q0 -31 -32 -55q40 -21 40 -61t-30.5 -64.5t-79.5 -24.5q-51 0 -79 26t-29 73z" />
    <glyph glyph-name="twothirds.alt" unicode="&#xec75;" horiz-adv-x="291" 
d="M35 393q5 42 25 66.5t82 67.5q41 28 41 56q0 15 -10.5 24t-27.5 9q-21 0 -30 -12t-11 -39h-64q3 105 107 105q47 0 77 -24.5t30 -63.5q0 -31 -18 -52t-78 -59q-20 -13 -33 -25h128v-53h-218zM0 302v61h291v-61h-291zM26 94h65q1 -47 43 -47q40 0 40 37q0 35 -47 35h-20
v46q13 -1 19 -1q46 0 46 33q0 13 -10 21.5t-26 8.5q-40 0 -40 -45h-64q0 46 27 70.5t77 24.5q44 0 72 -21.5t28 -55.5q0 -31 -32 -55q40 -21 40 -61t-30.5 -64.5t-79.5 -24.5q-51 0 -79 26t-29 73z" />
    <glyph glyph-name="onequarter.alt" unicode="&#xec76;" horiz-adv-x="291" 
d="M121 393v185h-79v42q46 0 63.5 8.5t24.5 35.5h60v-271h-69zM0 302v61h291v-61h-291zM35 56v63l100 152h84v-165h33v-50h-33v-56h-67v56h-117zM91 106h61v52q0 38 1 44l-8 -11q-5 -6 -9 -15l-9 -15z" />
    <glyph glyph-name="threequarters.alt" unicode="&#xec77;" horiz-adv-x="291" 
d="M96 575h-64q0 46 27 70.5t77 24.5q44 0 72 -21.5t28 -55.5q0 -31 -32 -54q23 -13 31.5 -26t8.5 -35q0 -40 -30.5 -65t-79.5 -25q-51 0 -79 26t-29 74h65q1 -48 43 -48q18 0 29 10t11 27q0 36 -47 36q-5 0 -20 -1v46h7h12q46 0 46 32q0 13 -10 21.5t-26 8.5q-40 0 -40 -45
zM0 302v61h291v-61h-291zM35 56v63l100 152h84v-165h33v-50h-33v-56h-67v56h-117zM91 106h61v52q0 38 1 44l-8 -11q-5 -6 -9 -15l-9 -15z" />
    <glyph glyph-name="oneeighth.alt" unicode="&#xec7c;" horiz-adv-x="291" 
d="M121 393v185h-79v42q46 0 63.5 8.5t24.5 35.5h60v-271h-69zM0 302v61h291v-61h-291zM32 80q0 42 45 68q-37 17 -37 55q0 32 27.5 52.5t70.5 20.5t70 -20.5t27 -52.5q0 -38 -37 -55q46 -25 46 -68q0 -37 -29.5 -61t-76.5 -24t-76.5 24t-29.5 61zM138 169q14 0 23.5 8.5
t9.5 21.5q0 14 -9 22t-24 8t-24.5 -8.5t-9.5 -21.5t9.5 -21.5t24.5 -8.5zM96 84q0 -17 12 -28t30 -11t30 11t12 27q0 18 -11.5 29t-30.5 11q-18 0 -30 -11t-12 -28z" />
    <glyph glyph-name="threeeighths.alt" unicode="&#xec7d;" horiz-adv-x="291" 
d="M96 575h-64q0 46 27 70.5t77 24.5q44 0 72 -21.5t28 -55.5q0 -31 -32 -54q23 -13 31.5 -26t8.5 -35q0 -40 -30.5 -65t-79.5 -25q-51 0 -79 26t-29 74h65q1 -48 43 -48q18 0 29 10t11 27q0 36 -47 36q-5 0 -20 -1v46h7h12q46 0 46 32q0 13 -10 21.5t-26 8.5q-40 0 -40 -45
zM0 302v61h291v-61h-291zM32 80q0 42 45 68q-37 17 -37 55q0 32 27.5 52.5t70.5 20.5t70 -20.5t27 -52.5q0 -38 -37 -55q46 -25 46 -68q0 -37 -29.5 -61t-76.5 -24t-76.5 24t-29.5 61zM138 169q14 0 23.5 8.5t9.5 21.5q0 14 -9 22t-24 8t-24.5 -8.5t-9.5 -21.5t9.5 -21.5
t24.5 -8.5zM96 84q0 -17 12 -28t30 -11t30 11t12 27q0 18 -11.5 29t-30.5 11q-18 0 -30 -11t-12 -28z" />
    <glyph glyph-name="fiveeighths.alt" unicode="&#xec7e;" horiz-adv-x="291" 
d="M111 612l-5 -43q24 6 43 6q44 0 71.5 -25t27.5 -66q0 -44 -30 -70t-80 -26q-97 0 -106 85h69q3 -33 37 -33q19 0 30.5 12t11.5 32q0 19 -11 30t-30 11t-33 -13h-65l18 152h174v-52h-122zM0 302v61h291v-61h-291zM32 80q0 42 45 68q-37 17 -37 55q0 32 27.5 52.5
t70.5 20.5t70 -20.5t27 -52.5q0 -38 -37 -55q46 -25 46 -68q0 -37 -29.5 -61t-76.5 -24t-76.5 24t-29.5 61zM138 169q14 0 23.5 8.5t9.5 21.5q0 14 -9 22t-24 8t-24.5 -8.5t-9.5 -21.5t9.5 -21.5t24.5 -8.5zM96 84q0 -17 12 -28t30 -11t30 11t12 27q0 18 -11.5 29t-30.5 11
q-18 0 -30 -11t-12 -28z" />
    <glyph glyph-name="seveneighths.alt" unicode="&#xec7f;" horiz-adv-x="291" 
d="M76 393q5 117 99 217h-130v54h211v-50q-46 -34 -75.5 -96t-29.5 -125h-75zM0 302v61h291v-61h-291zM32 80q0 42 45 68q-37 17 -37 55q0 32 27.5 52.5t70.5 20.5t70 -20.5t27 -52.5q0 -38 -37 -55q46 -25 46 -68q0 -37 -29.5 -61t-76.5 -24t-76.5 24t-29.5 61zM138 169
q14 0 23.5 8.5t9.5 21.5q0 14 -9 22t-24 8t-24.5 -8.5t-9.5 -21.5t9.5 -21.5t24.5 -8.5zM96 84q0 -17 12 -28t30 -11t30 11t12 27q0 18 -11.5 29t-30.5 11q-18 0 -30 -11t-12 -28z" />
    <glyph glyph-name="zero.denominator" unicode="&#xf655;" horiz-adv-x="373" 
d="M186 -8q-74 0 -114 53.5t-40 152.5q0 98 40.5 152t113.5 54q83 0 124 -68q30 -51 30 -141q0 -96 -40.5 -149.5t-113.5 -53.5zM186 69q60 0 60 127q0 131 -60 131t-60 -129t60 -129z" />
    <glyph glyph-name="one.denominator" unicode="&#xf656;" horiz-adv-x="373" 
d="M152 0v270h-113v61q66 0 90.5 12.5t35.5 52.5h85v-396h-98z" />
    <glyph glyph-name="two.denominator" unicode="&#xf657;" horiz-adv-x="373" 
d="M28 0q8 61 36.5 97.5t115.5 98.5q59 42 59 81q0 22 -15 35t-38 13q-30 0 -43 -17t-15 -57h-93q6 153 154 153q67 0 109.5 -36t42.5 -93q0 -54 -50 -100q-22 -19 -87 -61q-23 -15 -47 -37h183v-77h-312z" />
    <glyph glyph-name="three.denominator" unicode="&#xf658;" horiz-adv-x="373" 
d="M16 138h93q1 -70 61 -70q26 0 41.5 14.5t15.5 39.5q0 52 -66 52h-29v67q19 -1 28 -1q30 0 47 12.5t17 34.5q0 19 -14.5 31t-36.5 12q-26 0 -41.5 -14.5t-15.5 -39.5v-10h-92q2 67 40.5 102.5t109.5 35.5q62 0 102 -31.5t40 -80.5q0 -45 -45 -80q31 -18 43.5 -37.5
t12.5 -51.5q0 -58 -43.5 -94.5t-112.5 -36.5q-73 0 -113.5 38t-41.5 108z" />
    <glyph glyph-name="four.denominator" unicode="&#xf659;" horiz-adv-x="373" 
d="M29 82v94l142 220h120v-240h48v-74h-48v-82h-95v82h-167zM109 156h87v75l1 65q-13 -20 -19 -30q-6 -9 -10 -17l-8 -13z" />
    <glyph glyph-name="five.denominator" unicode="&#xf65a;" horiz-adv-x="373" 
d="M24 117h99q6 -50 54 -50q27 0 43 18t16 47q0 28 -15.5 44.5t-42.5 16.5q-26 0 -48 -19h-93l27 222h248v-75h-175l-6 -63q34 9 60 9q64 0 103 -37t39 -97q0 -65 -42.5 -103t-114.5 -38q-67 0 -106 32t-46 93z" />
    <glyph glyph-name="six.denominator" unicode="&#xf65b;" horiz-adv-x="373" 
d="M336 288h-92q-7 48 -46 48q-60 0 -64 -96q34 23 76 23q60 0 96.5 -36.5t36.5 -96.5q0 -62 -40 -100t-105 -38q-78 0 -119 52t-41 152q0 208 164 208q58 0 92.5 -30t41.5 -86zM141 128q0 -30 14.5 -47t40.5 -17t40.5 17t14.5 46q0 30 -14.5 47t-40.5 17t-40.5 -17
t-14.5 -46z" />
    <glyph glyph-name="seven.denominator" unicode="&#xf65c;" horiz-adv-x="373" 
d="M87 0q8 169 142 317h-186v79h302v-73q-66 -49 -108.5 -140.5t-41.5 -182.5h-108z" />
    <glyph glyph-name="eight.denominator" unicode="&#xf65d;" horiz-adv-x="373" 
d="M24 117q0 35 14.5 57t50.5 42q-53 25 -53 81q0 47 39 77t100 30t100 -30t39 -77q0 -56 -52 -81q36 -20 50.5 -42.5t14.5 -56.5q0 -56 -42.5 -90.5t-109.5 -34.5t-109 35t-42 90zM175 248q21 0 34 11.5t13 30.5q0 20 -13 32t-34 12t-34 -12t-13 -31t13 -31t34 -12z
M116 124q0 -25 16.5 -41.5t42.5 -16.5t43 16t17 41t-17 41.5t-43 16.5t-42.5 -16t-16.5 -41z" />
    <glyph glyph-name="nine.denominator" unicode="&#xf65e;" horiz-adv-x="373" 
d="M37 108h92q8 -48 46 -48q29 0 46 25t18 70q-35 -22 -74 -22q-60 0 -97.5 37.5t-37.5 96.5q0 61 40.5 99t105.5 38q78 0 119 -52.5t41 -152.5q0 -207 -160 -207q-61 0 -94.5 28.5t-44.5 87.5zM177 205q25 0 40 17.5t15 45.5q0 29 -15 46.5t-40 17.5t-40 -17.5t-15 -45.5
q0 -29 15 -46.5t40 -17.5z" />
    <glyph glyph-name="zero.numerator" unicode="&#xf661;" horiz-adv-x="373" 
d="M186 259q-74 0 -114 53.5t-40 152.5q0 98 40.5 152t113.5 54q83 0 124 -68q30 -51 30 -141q0 -96 -40.5 -149.5t-113.5 -53.5zM186 336q60 0 60 127q0 131 -60 131t-60 -129t60 -129z" />
    <glyph glyph-name="one.numerator" unicode="&#xf662;" horiz-adv-x="373" 
d="M152 267v269h-113v61q66 1 90.5 13.5t35.5 52.5h85v-396h-98z" />
    <glyph glyph-name="two.numerator" unicode="&#xf663;" horiz-adv-x="373" 
d="M28 267q8 61 36.5 97t115.5 98q59 42 59 82q0 22 -15 35t-38 13q-30 0 -43 -17t-15 -57h-93q6 153 154 153q67 0 109.5 -36t42.5 -93q0 -54 -50 -100q-19 -16 -87 -61q-23 -15 -47 -37h183v-77h-312z" />
    <glyph glyph-name="three.numerator" unicode="&#xf664;" horiz-adv-x="373" 
d="M116 532h-92q1 67 40 103t110 36q63 0 102.5 -31.5t39.5 -81.5q0 -45 -45 -79q31 -18 43.5 -37.5t12.5 -51.5q0 -58 -43.5 -94.5t-112.5 -36.5q-73 0 -113.5 38t-41.5 108h93q1 -70 61 -70q26 0 41.5 15t15.5 40q0 52 -66 52q-14 0 -29 -2v68q23 -1 28 -1q64 0 64 47
q0 19 -14.5 31t-36.5 12q-26 0 -41.5 -14.5t-15.5 -39.5v-11z" />
    <glyph glyph-name="four.numerator" unicode="&#xf665;" horiz-adv-x="373" 
d="M196 267v81h-167v94l142 221h120v-241h48v-74h-48v-81h-95zM109 422h87v75l1 66l-19 -30l-10 -17l-8 -14z" />
    <glyph glyph-name="five.numerator" unicode="&#xf666;" horiz-adv-x="373" 
d="M137 588l-6 -63q34 9 60 9q64 0 103 -37t39 -97q0 -65 -42.5 -103t-114.5 -38q-67 0 -106 32t-46 93h99q6 -49 54 -49q27 0 43 17.5t16 46.5q0 28 -15.5 44.5t-42.5 16.5q-26 0 -48 -19h-93l27 222h248v-75h-175z" />
    <glyph glyph-name="six.numerator" unicode="&#xf667;" horiz-adv-x="373" 
d="M336 554h-92q-7 49 -46 49q-59 0 -64 -97q34 23 76 23q60 0 96.5 -36.5t36.5 -96.5q0 -62 -40 -100t-105 -38q-78 0 -119 52t-41 152q0 209 164 209q58 0 92.5 -30.5t41.5 -86.5zM196 330q26 0 40.5 17t14.5 46q0 30 -14.5 47t-40.5 17t-40.5 -17t-14.5 -46
q0 -30 14.5 -47t40.5 -17z" />
    <glyph glyph-name="seven.numerator" unicode="&#xf668;" horiz-adv-x="373" 
d="M87 267q8 169 142 317h-186v79h302v-73q-66 -49 -108.5 -140.5t-41.5 -182.5h-108z" />
    <glyph glyph-name="eight.numerator" unicode="&#xf669;" horiz-adv-x="373" 
d="M175 259q-67 0 -109 35t-42 90q0 35 14.5 57t50.5 42q-53 25 -53 81q0 47 39 77t100 30t100 -30t39 -77q0 -56 -52 -81q36 -20 50.5 -42.5t14.5 -56.5q0 -56 -42.5 -90.5t-109.5 -34.5zM175 515q21 0 34 11.5t13 30.5q0 20 -13 32t-34 12t-34 -12t-13 -31t13 -31t34 -12z
M175 333q26 0 43 16t17 41t-17 41.5t-43 16.5t-42.5 -16t-16.5 -41t16.5 -41.5t42.5 -16.5z" />
    <glyph glyph-name="nine.numerator" unicode="&#xf66a;" horiz-adv-x="373" 
d="M37 375h92q8 -48 46 -48q29 0 46 25t18 70q-36 -22 -74 -22q-60 0 -97.5 37t-37.5 97q0 61 40.5 99t105.5 38q78 0 119 -52.5t41 -152.5q0 -207 -160 -207q-61 0 -94.5 28.5t-44.5 87.5zM177 471q25 0 40 17.5t15 45.5q0 30 -15 47.5t-40 17.5t-40 -17.5t-15 -46.5
t15 -46.5t40 -17.5z" />
    <glyph glyph-name="cent.superior" unicode="&#xf6e0;" horiz-adv-x="373" 
d="M163 240v73q-59 9 -92 49t-33 102q0 63 33 102.5t92 49.5v64h58v-63q52 -4 86 -36.5t36 -79.5h-93q-8 43 -54 43q-60 0 -60 -78q0 -81 61 -81q24 0 37 11.5t18 37.5l95 -4q-7 -50 -40.5 -81.5t-85.5 -36.5v-72h-58z" />
    <glyph glyph-name="comma.superior" unicode="&#xf6e2;" horiz-adv-x="153" 
d="M43 170v40q40 15 44 56h-41v91h91v-75q0 -93 -94 -112z" />
    <glyph glyph-name="dollar.superior" unicode="&#xf6e4;" horiz-adv-x="373" 
d="M163 193v66q-71 6 -111.5 42t-41.5 94h99q2 -29 17 -42.5t47 -16.5h39q56 6 56 41q0 33 -57 44l-39 8q-60 12 -99 32q-54 29 -54 91q0 50 39.5 83.5t104.5 38.5v66h59v-66q59 -6 95.5 -39t41.5 -87h-97q-5 43 -50 49h-39q-53 -6 -53 -37q0 -30 54 -40l39 -7
q66 -12 100 -30q58 -30 58 -95q0 -52 -40.5 -86.5t-108.5 -41.5v-67h-59z" />
    <glyph glyph-name="hyphen.superior" unicode="&#xf6e6;" horiz-adv-x="260" 
d="M42 375v82h177v-82h-177z" />
    <glyph glyph-name="period.superior" unicode="&#xf6e8;" horiz-adv-x="153" 
d="M46 266v91h91v-91h-91z" />
    <glyph glyph-name="apple" unicode="&#xf8ff;" horiz-adv-x="800" 
d="M35 101v649h629q42 0 71.5 -29.5t29.5 -71.5v-649h-629q-42 0 -71.5 29.5t-29.5 71.5zM233 628v-169q0 -34 18 -53t52 -19t52 19t18 53v169q0 72 -70 72t-70 -72zM400 390h54v234q0 23 16 23t16 -23v-234h54v240q0 68 -58 68q-22 0 -27 -10v9h-55v-307zM581 459
q0 -34 18 -53t52 -19t52 19t18 53v34h-54v-31q0 -23 -16 -23t-16 23v128h78v52h-79v55h-54v-55h-18v-52h19v-131zM92 390h54v103h59v60h-59v84h67v60h-121v-307zM319 624v-162q0 -22 -16 -22t-16 22v162q0 23 16 23t16 -23zM526 122q0 -34 18 -53t52 -19t52 19t18 53v12h-54
v-9q0 -22 -16 -22t-16 22v39h86v127q0 72 -70 72t-70 -72v-169zM90 131q0 -81 73 -81t73 89q0 25 -12 45.5t-54 49.5q-26 17 -26 38q0 38 19 38q18 0 18 -32v-25h54v29q0 81 -72 81q-36 0 -55 -23.5t-19 -65.5q0 -17 3.5 -29t19 -30t44.5 -37q25 -17 25 -37q0 -38 -19 -38
q-18 0 -18 32v10h-54v-14zM365 122q0 -34 18 -53t52 -19t52 19t18 53v34h-54v-31q0 -22 -16 -22t-16 22v128h78v52h-79v55h-54v-55h-18v-52h19v-131zM266 299h54v61h-54v-61zM580 210v77q0 23 16 23t16 -23v-77h-32zM266 53h54v215h-54v-215zM706 53h6v27l9 -21h4l9 21v-27
h6v35h-8l-9 -21l-9 21h-8v-35zM674 82h10v-29h6v29h10v6h-26v-6z" />
    <glyph glyph-name="i.dot" horiz-adv-x="267" 
d="M63 550v117h142v-117h-142zM63 0v483h142v-483h-142z" />
    </font>
</defs>
</svg>
