<?xml version="1.0" standalone="no"?>
<!DOCTYPE svg PUBLIC "-//W3C//DTD SVG 1.1//EN" "http://www.w3.org/Graphics/SVG/1.1/DTD/svg11.dtd" >
<svg xmlns="http://www.w3.org/2000/svg" xmlns:xlink="http://www.w3.org/1999/xlink" version="1.1">
<metadata>
Created by FontForge 20161013 at Fri Mar  9 01:43:49 2012
 By ,,,
Copyright (c) 2002, 2011 by Nikola &#38; Zoran Kostic. All rights reserved.
</metadata>
<defs>
<font id="KosticSerif-Italic" horiz-adv-x="571" >
  <font-face 
    font-family="KosticSerif"
    font-weight="400"
    font-style="italic"
    font-stretch="normal"
    units-per-em="1000"
    panose-1="2 0 6 0 8 0 0 9 0 4"
    ascent="755"
    descent="-245"
    x-height="488"
    cap-height="696"
    bbox="-172 -252.765 1115 939"
    underline-thickness="50"
    underline-position="-200"
    unicode-range="U+0020-FB34"
  />
<missing-glyph horiz-adv-x="471" 
d="M117 59h235v616h-235v-616zM59 0v733h353v-733h-353z" />
    <glyph glyph-name="f_f" unicode="ff" horiz-adv-x="577" 
d="M692 652q0 -21 -13.5 -35.5t-34.5 -14.5q-17 0 -30.5 12.5t-13.5 31.5q0 7 3.5 20t3.5 15q0 17 -20 17q-26 0 -44 -22.5t-25 -58.5l-27 -138h94l-6 -30h-94l-87 -446q-25 -129 -78 -183.5t-117 -54.5q-39 0 -63 18t-24 47q0 22 14 37.5t37 15.5q19 0 30 -12.5t11 -29.5
q0 -6 -2.5 -16t-2.5 -14q0 -6 5.5 -11t14.5 -5q49 0 70 108l107 546h-204l-87 -446q-26 -130 -78 -184t-116 -54q-39 0 -63 18t-24 47q0 22 14 37.5t37 15.5q19 0 30 -12.5t11 -29.5q0 -6 -2.5 -16t-2.5 -14q0 -6 5.5 -11t14.5 -5q49 0 70 108l106 546h-75l6 30h75l15 75
q15 75 62.5 122.5t117.5 47.5q41 0 66 -20.5t25 -51.5q0 -21 -13.5 -35.5t-34.5 -14.5q-17 0 -30.5 12.5t-13.5 31.5q0 7 3.5 20t3.5 15q0 17 -20 17q-26 0 -44 -22.5t-25 -58.5l-27 -138h204l15 75q15 75 62.5 122.5t117.5 47.5q41 0 66 -20.5t25 -51.5z" />
    <glyph glyph-name="fi" unicode="fi" horiz-adv-x="577" 
d="M545 76q0 -9 -14.5 -28t-45.5 -38t-65 -19q-89 0 -89 82q0 18 5 48l51 266q12 62 -48 62h-143l-87 -446q-26 -130 -78 -184t-116 -54q-39 0 -63 18t-24 47q0 22 14 37.5t37 15.5q19 0 30 -12.5t11 -29.5q0 -6 -2.5 -16t-2.5 -14q0 -6 5.5 -11t14.5 -5q49 0 70 108
l106 546h-75l6 30h75l13 67q15 77 69.5 127.5t141.5 50.5q53 0 89 -24.5t36 -64.5q0 -22 -14.5 -38.5t-36.5 -16.5t-35.5 11.5t-13.5 32.5q0 9 4 24t4 19q0 31 -42 31q-41 0 -70 -27.5t-37 -71.5l-23 -120h226q31 0 43 -6t12 -23l-6 -41l-61 -316q-3 -15 -3 -26
q0 -40 40 -40q32 0 75 48q4 5 8 6.5t6.5 0t2.5 -5.5z" />
    <glyph glyph-name="fl" unicode="fl" horiz-adv-x="577" 
d="M545 76q0 -9 -14.5 -28t-45.5 -38t-65 -19q-89 0 -89 82q0 25 5 48l100 513q12 62 -58 62h-36q-99 0 -117 -97l-23 -120h94l-6 -30h-94l-87 -446q-26 -130 -78 -184t-116 -54q-39 0 -63 18t-24 47q0 22 14 37.5t37 15.5q19 0 30 -12.5t11 -29.5q0 -6 -2.5 -16t-2.5 -14
q0 -6 5.5 -11t14.5 -5q49 0 70 108l106 546h-75l6 30h75l13 67q15 79 70.5 128.5t147.5 49.5h125q55 0 55 -39l-5 -41l-107 -551q-3 -15 -3 -26q0 -40 40 -40q31 0 74 48q4 5 8.5 6.5t7 0t2.5 -5.5z" />
    <glyph glyph-name="f_f_i" unicode="ffi" horiz-adv-x="865" 
d="M833 76q0 -9 -14.5 -28t-45.5 -38t-65 -19q-89 0 -89 82q0 25 5 48l52 266q12 62 -48 62h-144l-87 -446q-26 -130 -78 -184t-116 -54q-39 0 -63 18t-24 47q0 22 14 37.5t37 15.5q19 0 30 -12.5t11 -29.5q0 -6 -2.5 -16t-2.5 -14q0 -6 5.5 -11t14.5 -5q49 0 70 108
l106 546h-203l-87 -446q-26 -130 -78 -184t-116 -54q-39 0 -63 18t-24 47q0 22 14 37.5t37 15.5q19 0 30 -12.5t11 -29.5q0 -6 -2.5 -16t-2.5 -14q0 -6 5.5 -11t14.5 -5q49 0 70 108l106 546h-75l6 30h75l15 75q15 75 62.5 122.5t117.5 47.5q41 0 66 -20.5t25 -51.5
q0 -21 -13.5 -35.5t-34.5 -14.5q-17 0 -30.5 12.5t-13.5 31.5q0 7 3.5 20t3.5 15q0 17 -20 17q-26 0 -44 -22.5t-25 -58.5l-27 -138h203l13 67q15 77 70 127.5t142 50.5q53 0 88.5 -24.5t35.5 -64.5q0 -22 -14.5 -38.5t-36.5 -16.5t-35.5 11.5t-13.5 32.5q0 9 4 24t4 19
q0 31 -42 31q-41 0 -70 -27.5t-37 -71.5l-23 -120h226q31 0 43 -6t12 -23l-6 -41l-61 -316q-3 -15 -3 -26q0 -40 40 -40q32 0 75 48q4 5 8 6.5t6.5 0t2.5 -5.5z" />
    <glyph glyph-name="f_f_l" unicode="ffl" horiz-adv-x="865" 
d="M833 76q0 -9 -14.5 -28t-45.5 -38t-65 -19q-89 0 -89 82q0 25 5 48l101 513q6 28 -8.5 45t-50.5 17h-35q-97 0 -117 -97l-24 -120h94l-6 -30h-94l-87 -446q-26 -130 -78 -184t-116 -54q-39 0 -63 18t-24 47q0 22 14 37.5t37 15.5q19 0 30 -12.5t11 -29.5q0 -6 -2.5 -16
t-2.5 -14q0 -6 5.5 -11t14.5 -5q49 0 70 108l106 546h-203l-87 -446q-26 -130 -78 -184t-116 -54q-39 0 -63 18t-24 47q0 22 14 37.5t37 15.5q19 0 30 -12.5t11 -29.5q0 -6 -2.5 -16t-2.5 -14q0 -6 5.5 -11t14.5 -5q49 0 70 108l106 546h-75l6 30h75l15 75q15 75 62.5 122.5
t117.5 47.5q41 0 66 -20.5t25 -51.5q0 -21 -13.5 -35.5t-34.5 -14.5q-17 0 -30.5 12.5t-13.5 31.5q0 7 3.5 20t3.5 15q0 17 -20 17q-26 0 -44 -22.5t-25 -58.5l-27 -138h203l14 67q17 79 72 128.5t146 49.5h125q55 0 55 -39l-5 -41l-108 -551q-3 -15 -3 -26q0 -40 40 -40
q31 0 74 48q4 5 8.5 6.5t7 0t2.5 -5.5z" />
    <glyph glyph-name="f_t" unicode="ft" horiz-adv-x="595" 
d="M491 479h94l-6 -30h-94l-69 -356q-3 -15 -3 -26q0 -40 40 -40q32 0 75 48q4 5 8 6.5t6.5 0t2.5 -5.5q0 -9 -14.5 -28t-45.5 -38t-65 -19q-89 0 -89 82q0 12 6 48l63 328h-204l-87 -446q-26 -130 -78 -184t-116 -54q-39 0 -63 18t-24 47q0 22 14 37.5t37 15.5
q19 0 30 -12.5t11 -29.5q0 -6 -2.5 -16t-2.5 -14q0 -6 5.5 -11t14.5 -5q49 0 70 108l106 546h-75l6 30h75l15 75q15 75 62.5 122.5t117.5 47.5q41 0 66 -20.5t25 -51.5q0 -21 -13.5 -35.5t-34.5 -14.5q-17 0 -30.5 12.5t-13.5 31.5q0 7 3.5 20t3.5 15q0 17 -20 17
q-26 0 -44 -22.5t-25 -58.5l-27 -138h129q98 26 165 146h23z" />
    <glyph glyph-name="f_f_t" unicode="fft" horiz-adv-x="883" 
d="M779 479h94l-6 -30h-94l-69 -356q-3 -15 -3 -26q0 -40 40 -40q32 0 75 48q4 5 8 6.5t6.5 0t2.5 -5.5q0 -9 -14.5 -28t-45.5 -38t-65 -19q-89 0 -89 82q0 12 6 48l63 328h-204l-87 -446q-26 -130 -78 -184t-116 -54q-39 0 -63 18t-24 47q0 22 14 37.5t37 15.5
q19 0 30 -12.5t11 -29.5q0 -6 -2.5 -16t-2.5 -14q0 -6 5.5 -11t14.5 -5q49 0 70 108l106 546h-203l-87 -446q-26 -130 -78 -184t-116 -54q-39 0 -63 18t-24 47q0 22 14 37.5t37 15.5q19 0 30 -12.5t11 -29.5q0 -6 -2.5 -16t-2.5 -14q0 -6 5.5 -11t14.5 -5q49 0 70 108
l106 546h-75l6 30h75l15 75q15 75 62.5 122.5t117.5 47.5q41 0 66 -20.5t25 -51.5q0 -21 -13.5 -35.5t-34.5 -14.5q-17 0 -30.5 12.5t-13.5 31.5q0 7 3.5 20t3.5 15q0 17 -20 17q-26 0 -44 -22.5t-25 -58.5l-27 -138h203l15 75q15 75 62.5 122.5t117.5 47.5q41 0 66 -20.5
t25 -51.5q0 -21 -13.5 -35.5t-34.5 -14.5q-17 0 -30.5 12.5t-13.5 31.5q0 7 3.5 20t3.5 15q0 17 -20 17q-26 0 -44 -22.5t-25 -58.5l-27 -138h129q98 26 165 146h23z" />
    <glyph glyph-name="f_b" unicode="fb" horiz-adv-x="849" 
d="M691 342q0 51 -19 80t-56 29q-66 0 -123 -83t-57 -207q0 -70 27.5 -101.5t64.5 -31.5q41 0 74 33.5t51.5 84t28 101.5t9.5 95zM779 331q0 -80 -27 -156t-85 -130.5t-134 -54.5q-42 0 -75.5 23t-43.5 53h-3q-42 -24 -72 -66h-26l124 634q6 28 -8.5 45t-50.5 17h-35
q-99 0 -117 -97l-23 -120h94l-6 -30h-94l-88 -446q-26 -130 -78 -184t-116 -54q-39 0 -63 18t-24 47q0 22 14 37.5t37 15.5q19 0 30 -12.5t11 -29.5q0 -6 -2.5 -16t-2.5 -14q0 -6 5.5 -11t14.5 -5q49 0 70 108l106 546h-75l7 30h74l14 67q17 79 72 128.5t146 49.5h125
q55 0 55 -39l-5 -41l-49 -245h3q67 90 167 90q68 0 101 -43.5t33 -114.5z" />
    <glyph glyph-name="f_h" unicode="fh" horiz-adv-x="859" 
d="M827 76q0 -9 -14.5 -28t-45.5 -38t-65 -19q-89 0 -89 82q0 25 5 48l42 216q4 24 4 35q0 70 -67 70q-43 0 -85 -35t-50 -75l-64 -332h-85l123 634q6 28 -8.5 45t-50.5 17h-35q-99 0 -117 -97l-23 -120h94l-6 -30h-94l-87 -446q-26 -130 -78 -184t-116 -54q-39 0 -63 18
t-24 47q0 22 14 37.5t37 15.5q19 0 30 -12.5t11 -29.5q0 -6 -2.5 -16t-2.5 -14q0 -6 5.5 -11t14.5 -5q49 0 70 108l106 546h-75l6 30h75l13 67q15 79 70.5 128.5t147.5 49.5h125q55 0 55 -39l-5 -41l-46 -235h3q71 80 156 80q43 0 78.5 -26t35.5 -84q0 -19 -4 -38l-48 -248
q-3 -15 -3 -26q0 -40 40 -40q32 0 75 48q4 5 8 6.5t6.5 0t2.5 -5.5z" />
    <glyph glyph-name="f_j" unicode="fj" horiz-adv-x="565" 
d="M483 450l-6 -41l-78 -406q-25 -129 -77.5 -183.5t-117.5 -54.5q-39 0 -63 18t-24 47q0 22 14 37.5t37 15.5q19 0 30 -12.5t11 -29.5q0 -6 -2.5 -16t-2.5 -14q0 -6 5.5 -11t14.5 -5q49 0 70 108l93 484q12 62 -49 62h-142l-87 -446q-26 -130 -78 -184t-116 -54
q-39 0 -63 18t-24 47q0 22 14 37.5t37 15.5q19 0 30 -12.5t11 -29.5q0 -6 -2.5 -16t-2.5 -14q0 -6 5.5 -11t14.5 -5q49 0 70 108l106 546h-75l6 30h75l13 67q15 77 69.5 127.5t141.5 50.5q53 0 89 -24.5t36 -64.5q0 -22 -14.5 -38.5t-36.5 -16.5t-35.5 11.5t-13.5 32.5
q0 9 4 24t4 19q0 31 -42 31q-41 0 -70 -27.5t-37 -71.5l-23 -120h226q31 0 43 -6t12 -23z" />
    <glyph glyph-name="f_k" unicode="fk" horiz-adv-x="844" 
d="M812 76q0 -9 -14.5 -28.5t-46 -38t-67.5 -18.5q-64 0 -93 56l-82 156q-11 21 -20.5 29t-24.5 8h-20l-46 -240h-85l123 634q12 62 -58 62h-36q-99 0 -117 -97l-23 -120h94l-6 -30h-94l-87 -446q-26 -130 -78 -184t-116 -54q-39 0 -63 18t-24 47q0 22 14 37.5t37 15.5
q19 0 30 -12.5t11 -29.5q0 -6 -2.5 -16t-2.5 -14q0 -6 5.5 -11t14.5 -5q49 0 70 108l106 546h-75l6 30h75l13 67q15 79 70.5 128.5t147.5 49.5h125q55 0 55 -39l-5 -41l-71 -367q37 0 54.5 8.5t30.5 25.5l94 125q21 29 41.5 41t49.5 12q28 0 44.5 -17t16.5 -39
q0 -23 -13 -39.5t-35 -16.5q-18 0 -28.5 10.5t-17 21t-14.5 10.5q-12 0 -32 -25l-67 -86q-23 -29 -43 -38v-3q41 -9 58 -41l84 -158q11 -22 21.5 -31.5t26.5 -9.5q29 0 72 48q5 6 9 7t6 -1t2 -5z" />
    <glyph glyph-name="f_y" unicode="fy" horiz-adv-x="693" 
d="M643 391q0 -52 -26 -115.5t-73 -152.5l-77 -146q-57 -109 -104.5 -160.5t-96.5 -51.5q-29 0 -49 18.5t-20 48.5q0 21 14.5 36t34.5 15q16 0 26 -8.5t13.5 -19t10 -19t17.5 -8.5q46 0 119 148l2 4l-140 418q-9 28 -21.5 39.5t-37.5 11.5h-39l-87 -446q-26 -130 -78 -184
t-116 -54q-39 0 -63 18t-24 47q0 22 14 37.5t37 15.5q19 0 30 -12.5t11 -29.5q0 -6 -2.5 -16t-2.5 -14q0 -6 5.5 -11t14.5 -5q49 0 70 108l106 546h-75l6 30h75l15 75q15 75 62.5 122.5t117.5 47.5q41 0 66 -20.5t25 -51.5q0 -21 -13.5 -35.5t-34.5 -14.5q-17 0 -30.5 12.5
t-13.5 31.5q0 7 3.5 20t3.5 15q0 17 -20 17q-26 0 -44 -22.5t-25 -58.5l-27 -138h94q60 0 73 -43l117 -358l29 54q26 49 46 107t20 87q0 36 -29 59t-29 55q0 20 15 34.5t37 14.5q33 0 50.5 -26t17.5 -72z" />
    <glyph glyph-name="f_f_b" unicode="ffb" horiz-adv-x="1137" 
d="M979 342q0 51 -19 80t-56 29q-66 0 -123 -83t-57 -207q0 -70 27.5 -101.5t64.5 -31.5q41 0 74 33.5t51.5 84t28 101.5t9.5 95zM1067 331q0 -80 -27 -156t-85 -130.5t-134 -54.5q-42 0 -75.5 23t-43.5 53h-3q-42 -24 -72 -66h-26l124 634q6 28 -8.5 45t-50.5 17h-35
q-97 0 -117 -97l-24 -120h94l-6 -30h-94l-87 -446q-26 -130 -78 -184t-116 -54q-39 0 -63 18t-24 47q0 22 14 37.5t37 15.5q19 0 30 -12.5t11 -29.5q0 -6 -2.5 -16t-2.5 -14q0 -6 5.5 -11t14.5 -5q49 0 70 108l106 546h-203l-87 -446q-26 -130 -78 -184t-116 -54
q-39 0 -63 18t-24 47q0 22 14 37.5t37 15.5q19 0 30 -12.5t11 -29.5q0 -6 -2.5 -16t-2.5 -14q0 -6 5.5 -11t14.5 -5q49 0 70 108l106 546h-75l6 30h75l15 75q15 75 62.5 122.5t117.5 47.5q41 0 66 -20.5t25 -51.5q0 -21 -13.5 -35.5t-34.5 -14.5q-17 0 -30.5 12.5
t-13.5 31.5q0 7 3.5 20t3.5 15q0 17 -20 17q-26 0 -44 -22.5t-25 -58.5l-27 -138h203l14 67q17 79 72 128.5t146 49.5h125q55 0 55 -39l-5 -41l-49 -245h3q67 90 167 90q68 0 101 -43.5t33 -114.5z" />
    <glyph glyph-name="f_f_h" unicode="ffh" horiz-adv-x="1147" 
d="M1115 76q0 -9 -14.5 -28t-45.5 -38t-65 -19q-89 0 -89 82q0 25 5 48l42 216q4 24 4 35q0 70 -67 70q-43 0 -85 -35t-50 -75l-64 -332h-85l123 634q12 62 -58 62h-36q-99 0 -117 -97l-23 -120h94l-6 -30h-94l-87 -446q-26 -130 -78 -184t-116 -54q-39 0 -63 18t-24 47
q0 22 14 37.5t37 15.5q19 0 30 -12.5t11 -29.5q0 -6 -2.5 -16t-2.5 -14q0 -6 5.5 -11t14.5 -5q49 0 70 108l106 546h-203l-87 -446q-26 -130 -78 -184t-116 -54q-39 0 -63 18t-24 47q0 22 14 37.5t37 15.5q19 0 30 -12.5t11 -29.5q0 -6 -2.5 -16t-2.5 -14q0 -6 5.5 -11
t14.5 -5q49 0 70 108l106 546h-75l6 30h75l15 75q15 75 62.5 122.5t117.5 47.5q41 0 66 -20.5t25 -51.5q0 -21 -13.5 -35.5t-34.5 -14.5q-17 0 -30.5 12.5t-13.5 31.5q0 7 3.5 20t3.5 15q0 17 -20 17q-26 0 -44 -22.5t-25 -58.5l-27 -138h203l13 67q15 79 70.5 128.5
t147.5 49.5h125q55 0 55 -39l-5 -41l-46 -235h3q71 80 156 80q43 0 78.5 -26t35.5 -84q0 -19 -4 -38l-48 -248q-3 -15 -3 -26q0 -40 40 -40q32 0 75 48q4 5 8 6.5t6.5 0t2.5 -5.5z" />
    <glyph glyph-name="f_f_j" unicode="ffj" horiz-adv-x="853" 
d="M771 450l-6 -41l-78 -406q-25 -129 -77.5 -183.5t-117.5 -54.5q-39 0 -63 18t-24 47q0 22 14 37.5t37 15.5q19 0 30 -12.5t11 -29.5q0 -6 -2.5 -16t-2.5 -14q0 -6 5.5 -11t14.5 -5q49 0 70 108l93 484q12 62 -49 62h-142l-87 -446q-26 -130 -78 -184t-116 -54
q-39 0 -63 18t-24 47q0 22 14 37.5t37 15.5q19 0 30 -12.5t11 -29.5q0 -6 -2.5 -16t-2.5 -14q0 -6 5.5 -11t14.5 -5q49 0 70 108l106 546h-203l-87 -446q-26 -130 -78 -184t-116 -54q-39 0 -63 18t-24 47q0 22 14 37.5t37 15.5q19 0 30 -12.5t11 -29.5q0 -6 -2.5 -16
t-2.5 -14q0 -6 5.5 -11t14.5 -5q49 0 70 108l106 546h-75l6 30h75l15 75q15 75 62.5 122.5t117.5 47.5q41 0 66 -20.5t25 -51.5q0 -21 -13.5 -35.5t-34.5 -14.5q-17 0 -30.5 12.5t-13.5 31.5q0 7 3.5 20t3.5 15q0 17 -20 17q-26 0 -44 -22.5t-25 -58.5l-27 -138h203l13 67
q15 77 69.5 127.5t141.5 50.5q53 0 89 -24.5t36 -64.5q0 -22 -14.5 -38.5t-36.5 -16.5t-35.5 11.5t-13.5 32.5q0 9 4 24t4 19q0 31 -42 31q-41 0 -70 -27.5t-37 -71.5l-23 -120h226q31 0 43 -6t12 -23z" />
    <glyph glyph-name="f_f_k" unicode="ffk" horiz-adv-x="1132" 
d="M1100 76q0 -9 -14.5 -28.5t-46 -38t-67.5 -18.5q-64 0 -93 56l-82 156q-11 21 -20.5 29t-24.5 8h-20l-46 -240h-85l123 634q12 62 -58 62h-36q-99 0 -117 -97l-23 -120h94l-6 -30h-94l-87 -446q-26 -130 -78 -184t-116 -54q-39 0 -63 18t-24 47q0 22 14 37.5t37 15.5
q19 0 30 -12.5t11 -29.5q0 -6 -2.5 -16t-2.5 -14q0 -6 5.5 -11t14.5 -5q49 0 70 108l106 546h-203l-87 -446q-26 -130 -78 -184t-116 -54q-39 0 -63 18t-24 47q0 22 14 37.5t37 15.5q19 0 30 -12.5t11 -29.5q0 -6 -2.5 -16t-2.5 -14q0 -6 5.5 -11t14.5 -5q49 0 70 108
l106 546h-75l6 30h75l15 75q15 75 62.5 122.5t117.5 47.5q41 0 66 -20.5t25 -51.5q0 -21 -13.5 -35.5t-34.5 -14.5q-17 0 -30.5 12.5t-13.5 31.5q0 7 3.5 20t3.5 15q0 17 -20 17q-26 0 -44 -22.5t-25 -58.5l-27 -138h203l13 67q15 79 70.5 128.5t147.5 49.5h125q55 0 55 -39
l-5 -41l-71 -367q37 0 54.5 8.5t30.5 25.5l94 125q21 29 41.5 41t49.5 12q28 0 44.5 -17t16.5 -39q0 -23 -13 -39.5t-35 -16.5q-18 0 -28.5 10.5t-17 21t-14.5 10.5q-12 0 -32 -25l-67 -86q-23 -29 -43 -38v-3q41 -9 58 -41l84 -158q11 -22 21.5 -31.5t26.5 -9.5q29 0 72 48
q5 6 9 7t6 -1t2 -5z" />
    <glyph glyph-name="f_f_y" unicode="ffy" horiz-adv-x="981" 
d="M931 391q0 -52 -26 -115.5t-73 -152.5l-77 -146q-57 -109 -104.5 -160.5t-96.5 -51.5q-29 0 -49 18.5t-20 48.5q0 21 14.5 36t34.5 15q16 0 26 -8.5t13.5 -19t10 -19t17.5 -8.5q46 0 119 148l2 4l-140 418q-9 28 -21.5 39.5t-37.5 11.5h-39l-87 -446q-26 -130 -78 -184
t-116 -54q-39 0 -63 18t-24 47q0 22 14 37.5t37 15.5q19 0 30 -12.5t11 -29.5q0 -6 -2.5 -16t-2.5 -14q0 -6 5.5 -11t14.5 -5q49 0 70 108l106 546h-203l-87 -446q-26 -130 -78 -184t-116 -54q-39 0 -63 18t-24 47q0 22 14 37.5t37 15.5q19 0 30 -12.5t11 -29.5
q0 -6 -2.5 -16t-2.5 -14q0 -6 5.5 -11t14.5 -5q49 0 70 108l106 546h-75l6 30h75l15 75q15 75 62.5 122.5t117.5 47.5q41 0 66 -20.5t25 -51.5q0 -21 -13.5 -35.5t-34.5 -14.5q-17 0 -30.5 12.5t-13.5 31.5q0 7 3.5 20t3.5 15q0 17 -20 17q-26 0 -44 -22.5t-25 -58.5
l-27 -138h203l15 75q15 75 62.5 122.5t117.5 47.5q41 0 66 -20.5t25 -51.5q0 -21 -13.5 -35.5t-34.5 -14.5q-17 0 -30.5 12.5t-13.5 31.5q0 7 3.5 20t3.5 15q0 17 -20 17q-26 0 -44 -22.5t-25 -58.5l-27 -138h94q60 0 73 -43l117 -358l29 54q26 49 46 107t20 87q0 36 -29 59
t-29 55q0 20 15 34.5t37 14.5q33 0 50.5 -26t17.5 -72z" />
    <glyph glyph-name="t_t" unicode="tt" horiz-adv-x="596" 
d="M492 479h94l-6 -30h-94l-69 -356q-3 -15 -3 -26q0 -40 40 -40q32 0 75 48q4 5 8 6.5t6.5 0t2.5 -5.5q0 -9 -14.5 -28t-45.5 -38t-65 -19q-89 0 -89 82q0 12 6 48l63 328h-204l-69 -356q-3 -15 -3 -26q0 -40 40 -40q32 0 75 48q4 5 8 6.5t6.5 0t2.5 -5.5q0 -9 -14.5 -28
t-45.5 -38t-65 -19q-89 0 -89 82q0 12 6 48l63 328h-75l4 21q98 32 167 155h23l-28 -146h150q83 38 144 146h23z" />
    <glyph glyph-name="t_y" unicode="ty" horiz-adv-x="717" 
d="M667 391q0 -52 -26 -115.5t-73 -152.5l-77 -146q-57 -109 -104.5 -160.5t-96.5 -51.5q-29 0 -49 18.5t-20 48.5q0 21 14.5 36t34.5 15q16 0 26 -8.5t13.5 -19t10 -19t17.5 -8.5q46 0 119 148l2 4l-140 418q-9 28 -21.5 39.5t-37.5 11.5h-62l-69 -356q-3 -15 -3 -26
q0 -40 40 -40q32 0 75 48q4 5 8 6.5t6.5 0t2.5 -5.5q0 -9 -14.5 -28t-45.5 -38t-65 -19q-89 0 -89 82q0 12 6 48l63 328h-75l4 21q98 32 167 155h23l-28 -146h117q60 0 73 -43l117 -358l29 54q26 49 46 107t20 87q0 36 -29 59t-29 55q0 20 15 34.5t37 14.5q33 0 50.5 -26
t17.5 -72z" />
    <glyph glyph-name="t_t_y" unicode="tty" horiz-adv-x="1006" 
d="M956 391q0 -52 -26 -115.5t-73 -152.5l-77 -146q-57 -109 -104.5 -160.5t-96.5 -51.5q-29 0 -49 18.5t-20 48.5q0 21 14.5 36t34.5 15q17 0 26.5 -8.5t13 -19t10 -19t17.5 -8.5q46 0 119 148l2 4l-140 418q-9 28 -21.5 39.5t-37.5 11.5h-62l-69 -356q-3 -15 -3 -26
q0 -40 40 -40q32 0 75 48q4 5 8 6.5t6.5 0t2.5 -5.5q0 -9 -14.5 -28t-45.5 -38t-65 -19q-89 0 -89 82q0 12 6 48l63 328h-204l-69 -356q-3 -15 -3 -26q0 -40 40 -40q32 0 75 48q4 5 8 6.5t6.5 0t2.5 -5.5q0 -9 -14.5 -28t-45.5 -38t-65 -19q-89 0 -89 82q0 12 6 48l63 328
h-75l4 21q98 32 167 155h23l-28 -146h149q84 39 145 146h23l-28 -146h118q60 0 73 -43l116 -358l29 54q26 49 46 107t20 87q0 36 -29 59t-29 55q0 20 15 34.5t37 14.5q33 0 50.5 -26t17.5 -72z" />
    <glyph glyph-name="f_r" unicode="fr" horiz-adv-x="676" 
d="M676 433q0 -21 -13 -36t-33 -15q-21 0 -36 23.5t-32 23.5q-19 0 -45.5 -20t-50.5 -57l-69 -352h-85l76 387q12 62 -49 62h-143l-87 -446q-26 -130 -78 -184t-116 -54q-39 0 -63 18t-24 47q0 22 14 37.5t37 15.5q19 0 30 -12.5t11 -29.5q0 -6 -2.5 -16t-2.5 -14
q0 -6 5.5 -11t14.5 -5q49 0 70 108l106 546h-75l6 30h75l15 75q15 75 62.5 122.5t117.5 47.5q41 0 66 -20.5t25 -51.5q0 -21 -13.5 -35.5t-34.5 -14.5q-17 0 -30.5 12.5t-13.5 31.5q0 7 3.5 20t3.5 15q0 17 -20 17q-26 0 -44 -22.5t-25 -58.5l-27 -138h223q32 0 45 -6
t13 -23l-6 -41l-1 -7h3q34 49 72.5 68t62.5 19q29 0 45.5 -16.5t16.5 -39.5z" />
    <glyph glyph-name="f_f_r" unicode="ffr" horiz-adv-x="965" 
d="M965 433q0 -21 -13 -36t-33 -15q-21 0 -36 23.5t-32 23.5q-19 0 -45.5 -20t-50.5 -57l-69 -352h-85l75 387q12 62 -49 62h-143l-87 -446q-26 -130 -78 -184t-116 -54q-39 0 -63 18t-24 47q0 22 14 37.5t37 15.5q19 0 30 -12.5t11 -29.5q0 -6 -2.5 -16t-2.5 -14
q0 -6 5.5 -11t14.5 -5q49 0 70 108l106 546h-203l-87 -446q-26 -130 -78 -184t-116 -54q-39 0 -63 18t-24 47q0 22 14 37.5t37 15.5q19 0 30 -12.5t11 -29.5q0 -6 -2.5 -16t-2.5 -14q0 -6 5.5 -11t14.5 -5q49 0 70 108l106 546h-75l6 30h75l15 75q15 75 62.5 122.5
t117.5 47.5q41 0 66 -20.5t25 -51.5q0 -21 -13.5 -35.5t-34.5 -14.5q-17 0 -30.5 12.5t-13.5 31.5q0 7 3.5 20t3.5 15q0 17 -20 17q-26 0 -44 -22.5t-25 -58.5l-27 -138h203l15 75q15 75 62.5 122.5t117.5 47.5q41 0 66 -20.5t25 -51.5q0 -21 -13.5 -35.5t-34.5 -14.5
q-17 0 -30.5 12.5t-13.5 31.5q0 7 3.5 20t3.5 15q0 17 -20 17q-26 0 -44 -22.5t-25 -58.5l-27 -138h224q32 0 45 -6t13 -23l-6 -41l-1 -7h3q34 49 72.5 68t62.5 19q29 0 45.5 -16.5t16.5 -39.5z" />
    <glyph glyph-name="f_t_y" unicode="fty" horiz-adv-x="1005" 
d="M491 479h117q60 0 73 -43l117 -358l29 54q26 49 46 107t20 87q0 36 -29 59t-29 55q0 20 15 34.5t37 14.5q33 0 50.5 -26t17.5 -72q0 -52 -26 -115.5t-73 -152.5l-77 -146q-57 -109 -104.5 -160.5t-96.5 -51.5q-29 0 -49 18.5t-20 48.5q0 21 14.5 36t34.5 15q16 0 26 -8.5
t13.5 -19t10 -19t17.5 -8.5q46 0 119 148l2 4l-140 418q-9 28 -21.5 39.5t-37.5 11.5h-62l-69 -356q-3 -15 -3 -26q0 -40 40 -40q32 0 75 48q4 5 8 6.5t6.5 0t2.5 -5.5q0 -9 -14.5 -28t-45.5 -38t-65 -19q-89 0 -89 82q0 12 6 48l63 328h-204l-87 -446q-26 -130 -78 -184
t-116 -54q-39 0 -63 18t-24 47q0 22 14 37.5t37 15.5q19 0 30 -12.5t11 -29.5q0 -6 -2.5 -16t-2.5 -14q0 -6 5.5 -11t14.5 -5q49 0 70 108l106 546h-75l6 30h75l15 75q15 75 62.5 122.5t117.5 47.5q41 0 66 -20.5t25 -51.5q0 -21 -13.5 -35.5t-34.5 -14.5q-17 0 -30.5 12.5
t-13.5 31.5q0 7 3.5 20t3.5 15q0 17 -20 17q-26 0 -44 -22.5t-25 -58.5l-27 -138h129q98 26 165 146h23z" />
    <glyph glyph-name=".notdef" horiz-adv-x="471" 
d="M117 59h235v616h-235v-616zM59 0v733h353v-733h-353z" />
    <glyph glyph-name=".null" horiz-adv-x="0" 
 />
    <glyph glyph-name="nonmarkingreturn" horiz-adv-x="333" 
 />
    <glyph glyph-name="space" unicode=" " horiz-adv-x="235" 
 />
    <glyph glyph-name="exclam" unicode="!" horiz-adv-x="286" 
d="M138 47q0 -23 -17 -39.5t-40 -16.5t-39.5 16.5t-16.5 39.5t16.5 39.5t39.5 16.5t40 -16.5t17 -39.5zM246 642q0 -26 -18.5 -93.5t-55 -185.5t-54.5 -180h-19q8 76 17 178.5t15 167.5t10 87q7 37 24.5 56.5t39.5 19.5q20 0 30.5 -14t10.5 -36z" />
    <glyph glyph-name="quotedbl" unicode="&#x22;" horiz-adv-x="341" 
d="M196 673q0 -16 -33.5 -97.5t-37.5 -105.5h-28q3 19 3 184q0 26 16.5 41.5t39.5 15.5q17 0 28.5 -11t11.5 -27zM331 673q0 -16 -33.5 -97.5t-37.5 -105.5h-28q3 19 3 184q0 26 16.5 41.5t39.5 15.5q17 0 28.5 -11t11.5 -27z" />
    <glyph glyph-name="numbersign" unicode="#" horiz-adv-x="485" 
d="M272 274l20 131h-99l-19 -131h98zM435 460v-55h-86l-20 -131h85v-57h-93l-31 -217h-57l31 217h-97l-37 -217h-54l32 217h-88v57h98l18 131h-93v55h100l33 218h57l-33 -218h98l33 218h57l-33 -218h80z" />
    <glyph glyph-name="dollar" unicode="$" horiz-adv-x="526" 
d="M374 155q7 71 -55 111l-36 23l-51 -267q56 3 96 39.5t46 93.5zM251 421l47 235q-53 -6 -93 -40t-40 -81q0 -31 11 -51.5t37 -37.5zM513 565q0 -31 -16 -52t-46 -21q-18 0 -31.5 12.5t-13.5 30.5q0 14 7.5 32t7.5 27q0 53 -65 62l-53 -267l69 -44q49 -31 71.5 -65
t22.5 -80q0 -85 -62 -143.5t-179 -70.5l-15 -78h-58l15 78q-81 5 -129 43t-48 88q0 39 19.5 60.5t47.5 21.5q25 0 37.5 -14.5t12.5 -34.5q0 -13 -7 -29.5t-7 -27.5q0 -61 81 -72l56 301l-57 36q-30 19 -48.5 34.5t-35 43t-16.5 59.5q0 81 64.5 135t167.5 64l11 58h58
l-11 -58q70 -6 110 -45t40 -84z" />
    <glyph glyph-name="percent" unicode="%" horiz-adv-x="676" 
d="M538 210q0 74 -44 74q-38 0 -71 -61.5t-33 -129.5q0 -72 45 -72q38 0 70.5 61.5t32.5 127.5zM286 584q0 74 -44 74q-38 0 -71 -61.5t-33 -129.5q0 -72 45 -72q38 0 70.5 61.5t32.5 127.5zM610 190q0 -82 -56 -145t-123 -63q-50 0 -81.5 37t-31.5 94q0 77 55 142.5
t124 65.5q50 0 81.5 -37t31.5 -94zM358 564q0 -82 -56 -145t-123 -63q-50 0 -81.5 37t-31.5 94q0 77 55 142.5t124 65.5q50 0 81.5 -37t31.5 -94zM575 696h55l-511 -696h-55z" />
    <glyph glyph-name="ampersand" unicode="&#x26;" horiz-adv-x="696" 
d="M425 166l-6 -9l66 -91q25 -36 55 -36q8 0 16 3.5t15.5 10t12 11.5t11.5 13l7 8q6 7 10 7q9 0 9 -7q0 -10 -12.5 -30t-42.5 -40.5t-67 -20.5q-39 0 -60 14.5t-46 49.5l-27 37q-84 -101 -184 -101q-82 0 -132 41.5t-50 118.5q0 74 47.5 130t122.5 86q-48 71 -48 132
q0 89 61 144t147 55q72 0 119 -41q23 11 42 41h18l-42 -218h-18q-8 85 -36 132.5t-85 47.5q-52 0 -88 -40t-36 -105q0 -55 47 -120l148 -204l5 8q71 114 110 157t86 43q27 0 44 -16t17 -40q0 -23 -15 -39t-35 -16q-22 0 -35 18.5t-24 18.5q-18 0 -41.5 -29.5t-68.5 -97.5
q-11 -17 -17 -26zM200 21q71 0 147 92l-143 201q-50 -23 -83 -67.5t-33 -96.5q0 -58 32 -93.5t80 -35.5z" />
    <glyph glyph-name="quotesingle" unicode="'" horiz-adv-x="206" 
d="M196 673q0 -16 -33.5 -97.5t-37.5 -105.5h-28q3 19 3 184q0 26 16.5 41.5t39.5 15.5q17 0 28.5 -11t11.5 -27z" />
    <glyph glyph-name="parenleft" unicode="(" horiz-adv-x="329" 
d="M389 736q0 -8 -11 -16q-122 -96 -196.5 -277t-74.5 -351q0 -100 18.5 -176t70.5 -134q10 -10 3.5 -19t-19.5 3q-69 68 -108.5 152.5t-39.5 207.5q0 184 89.5 340.5t246.5 270.5q6 4 11 5t7.5 -0.5t2.5 -5.5z" />
    <glyph glyph-name="parenright" unicode=")" horiz-adv-x="329" 
d="M253 377q0 -184 -89.5 -340.5t-246.5 -270.5q-6 -4 -11 -5t-7.5 0.5t-2.5 5.5q0 8 11 16q122 96 196.5 277t74.5 351q0 100 -18.5 176t-70.5 134q-10 10 -3.5 19t19.5 -3q69 -68 108.5 -152.5t39.5 -207.5z" />
    <glyph glyph-name="asterisk" unicode="*" horiz-adv-x="423" 
d="M410 590q4 -13 -2 -26t-18 -19q-4 -2 -58 -19.5t-94 -36.5q33 -18 79 -35t51 -20q11 -7 11.5 -19.5t-9.5 -26.5q-10 -13 -23.5 -16.5t-23.5 3.5q-4 2 -37.5 36.5t-63.5 56.5q-5 -37 -5 -83q0 -59 -1 -65q-2 -14 -13.5 -23.5t-26.5 -9.5t-22.5 9.5t-5.5 23.5
q1 5 20.5 56.5t29.5 91.5q-38 -21 -84 -55.5t-51 -37.5q-13 -6 -25.5 -2.5t-17.5 16.5q-4 13 2 26t18 19q4 2 57.5 19t93.5 36q-32 18 -78 35.5t-51 20.5q-10 7 -11 19.5t9 26.5q10 13 23.5 16.5t23.5 -3.5q3 -2 36 -37.5t63 -57.5q6 40 6.5 92t1.5 58q2 14 13.5 23.5
t26.5 9.5t22.5 -9.5t5.5 -23.5q-1 -5 -21.5 -57t-30.5 -93q38 22 85 57t52 38q13 6 25.5 2.5t17.5 -16.5z" />
    <glyph glyph-name="plus" unicode="+" horiz-adv-x="500" 
d="M258 261h182l-8 -46h-183l-35 -179h-46l35 179h-183l8 46h184l36 187h46z" />
    <glyph glyph-name="comma" unicode="," horiz-adv-x="225" 
d="M138 40q0 -56 -34 -101.5t-84 -71.5q-16 -8 -16 1q0 7 9 13q61 44 70 87q2 14 -1.5 19.5t-16.5 6.5q-16 2 -28 19t-12 33q0 22 16.5 39.5t40.5 17.5q28 0 42 -18t14 -45z" />
    <glyph glyph-name="hyphen" unicode="-" horiz-adv-x="329" 
d="M48 268h245l-12 -57h-245z" />
    <glyph glyph-name="period" unicode="." horiz-adv-x="225" 
d="M138 47q0 -23 -17 -39.5t-40 -16.5t-39.5 16.5t-16.5 39.5t16.5 39.5t39.5 16.5t40 -16.5t17 -39.5z" />
    <glyph glyph-name="slash" unicode="/" horiz-adv-x="282" 
d="M267 693h65l-317 -708h-65z" />
    <glyph glyph-name="zero" unicode="0" horiz-adv-x="531" 
d="M403 509q0 140 -77 140q-47 0 -86.5 -54.5t-62.5 -133.5t-36 -155t-13 -130q0 -69 19.5 -108.5t57.5 -39.5q53 0 99.5 76t72.5 186.5t26 218.5zM491 468q0 -114 -35.5 -224t-104.5 -184.5t-154 -74.5q-73 0 -115 63.5t-42 163.5q0 199 89.5 336.5t203.5 137.5
q79 0 118.5 -58.5t39.5 -159.5z" />
    <glyph glyph-name="one" unicode="1" horiz-adv-x="310" 
d="M253 686h20l-120 -615q-5 -27 15 -39.5t66 -12.5l-4 -19h-265l4 19q90 0 100 52l85 435q10 43 10 58t-19 15q-8 0 -74 -14l4 19z" />
    <glyph glyph-name="two" unicode="2" horiz-adv-x="516" 
d="M476 526q0 -69 -47.5 -127.5t-167.5 -160.5l-177 -151v-2h217q6 0 12 0.5t11.5 3.5t9 4.5t9 6t7.5 6.5t8 9t7.5 9t8 11t7.5 11h19l-29 -146h-406l6 27l254 244q86 83 125 144.5t39 120.5q0 47 -30.5 81.5t-80.5 34.5q-51 0 -79.5 -27t-28.5 -62q0 -8 1.5 -21t1.5 -19
q0 -17 -13 -31t-34 -14q-20 0 -34 14t-14 39q0 58 58.5 106.5t153.5 48.5q85 0 135.5 -48t50.5 -112z" />
    <glyph glyph-name="three" unicode="3" horiz-adv-x="492" 
d="M452 548q0 -105 -130 -161l-1 -3q48 -22 76 -64.5t28 -94.5q0 -94 -74.5 -167t-196.5 -73q-66 0 -115 30.5t-49 76.5q0 24 17 42t41 18q20 0 32 -13.5t12 -33.5q0 -8 -3 -19.5t-3 -17.5q0 -21 21 -35t54 -14q73 0 125 52t52 141q0 140 -163 140l7 37q79 0 132.5 44
t53.5 118q0 42 -23.5 72t-69.5 30q-45 0 -69 -22.5t-24 -50.5q0 -5 1 -16t1 -15q0 -18 -12 -30t-32 -12q-21 0 -32.5 14.5t-11.5 33.5q0 48 54.5 89.5t133.5 41.5q80 0 124 -41.5t44 -96.5z" />
    <glyph glyph-name="four" unicode="4" horiz-adv-x="492" 
d="M269 221l65 335h-2l-266 -335h203zM353 221h89l-11 -57h-89l-18 -93q-5 -28 15 -40t65 -12l-4 -19h-265l4 19q91 0 101 52l18 93h-258l7 37l379 478h56z" />
    <glyph glyph-name="five" unicode="5" horiz-adv-x="484" 
d="M190 671h284l-32 -84h-244l-61 -163h51q104 0 164 -58t60 -150q0 -94 -75 -162.5t-181 -68.5q-71 0 -118.5 32t-47.5 78q0 27 16.5 46t42.5 19q18 0 30 -12t12 -32q0 -6 -2.5 -18t-2.5 -18q0 -26 20 -43.5t56 -17.5q65 0 107.5 54.5t42.5 130.5q0 78 -39.5 128t-122.5 50
h-72z" />
    <glyph glyph-name="six" unicode="6" horiz-adv-x="525" 
d="M373 264q0 61 -28 96.5t-72 35.5q-49 0 -112 -44q-34 -96 -34 -186q0 -66 24.5 -104.5t69.5 -38.5q65 0 108.5 73t43.5 168zM501 686l-4 -19q-218 -41 -322 -280h3q26 22 62.5 37.5t67.5 15.5q73 0 112.5 -54t39.5 -126q0 -66 -29 -128t-88 -104.5t-135 -42.5
q-74 0 -121 58t-47 152q0 83 30 165t86 152t146 117.5t199 56.5z" />
    <glyph glyph-name="seven" unicode="7" horiz-adv-x="444" 
d="M90 671h394l-9 -47l-374 -624h-81l397 584l1 3h-256q-29 0 -46 -14t-36 -48h-18z" />
    <glyph glyph-name="eight" unicode="8" horiz-adv-x="516" 
d="M362 161q0 53 -74 121l-57 53q-54 -32 -92 -85t-38 -106q0 -56 32.5 -88.5t87.5 -32.5q65 0 103 42.5t38 95.5zM399 542q0 44 -29.5 75.5t-74.5 31.5q-47 0 -79 -30.5t-32 -75.5q0 -49 50 -97l62 -58q103 69 103 154zM466 538q0 -42 -27.5 -77.5t-58 -53.5t-66.5 -32
l-1 -3l34 -32q20 -19 33 -32.5t31.5 -37t28 -48t9.5 -49.5q0 -86 -71.5 -137t-169.5 -51q-77 0 -132.5 43t-55.5 110q0 66 49 117.5t144 96.5l-37 34q-72 65 -72 133q0 72 57 119.5t138 47.5q70 0 118.5 -42t48.5 -106z" />
    <glyph glyph-name="nine" unicode="9" horiz-adv-x="525" 
d="M397 506q0 66 -25 104.5t-70 38.5q-59 0 -104.5 -67.5t-45.5 -174.5q0 -59 28.5 -92.5t71.5 -33.5q49 0 116 47q29 116 29 178zM485 480q0 -55 -14.5 -115.5t-48 -125.5t-82 -118.5t-123.5 -91t-166 -44.5l4 19q122 32 195 111.5t106 180.5h-3q-19 -21 -57.5 -40
t-78.5 -19q-72 0 -112 52t-40 122q0 109 68.5 192t183.5 83q75 0 121.5 -55t46.5 -151z" />
    <glyph glyph-name="colon" unicode=":" horiz-adv-x="249" 
d="M138 47q0 -23 -17 -39.5t-40 -16.5t-39.5 16.5t-16.5 39.5t16.5 39.5t39.5 16.5t40 -16.5t17 -39.5zM209 397q0 -23 -17 -39.5t-40 -16.5t-39.5 16.5t-16.5 39.5t16.5 39.5t39.5 16.5t40 -16.5t17 -39.5z" />
    <glyph glyph-name="semicolon" unicode=";" horiz-adv-x="249" 
d="M138 40q0 -56 -34 -101.5t-84 -71.5q-16 -8 -16 1q0 7 9 13q61 44 70 87q2 14 -1.5 19.5t-16.5 6.5q-16 2 -28 19t-12 33q0 22 16.5 39.5t40.5 17.5q28 0 42 -18t14 -45zM209 397q0 -23 -17 -39.5t-40 -16.5t-39.5 16.5t-16.5 39.5t16.5 39.5t39.5 16.5t40 -16.5
t17 -39.5z" />
    <glyph glyph-name="less" unicode="&#x3c;" horiz-adv-x="500" 
d="M50 265l453 220l-10 -53l-402 -197l325 -197l-9 -47l-367 220z" />
    <glyph glyph-name="equal" unicode="=" horiz-adv-x="500" 
d="M39 211h410l-9 -47h-410zM60 315h410l-9 -47h-410z" />
    <glyph glyph-name="greater" unicode="&#x3e;" horiz-adv-x="500" 
d="M72 485l367 -220l-10 -54l-453 -220l10 53l402 197l-325 197z" />
    <glyph glyph-name="question" unicode="?" horiz-adv-x="449" 
d="M202 47q0 -23 -17 -39.5t-40 -16.5t-39.5 16.5t-16.5 39.5t16.5 39.5t39.5 16.5t40 -16.5t17 -39.5zM429 575q0 -39 -21 -72t-53 -61t-66 -58.5t-65 -79.5t-44 -110h-19q0 73 30 135q12 25 48.5 72t61.5 91t25 83t-23.5 64t-66.5 25q-34 0 -60.5 -20t-26.5 -45
q0 -15 11.5 -36t11.5 -35q0 -19 -13.5 -33t-34.5 -14q-24 0 -39 18.5t-15 45.5q0 68 57.5 117t140.5 49q69 0 115 -40t46 -96z" />
    <glyph glyph-name="at" unicode="@" horiz-adv-x="770" 
d="M410 279l27 143q10 56 -26 56q-49 0 -93.5 -62t-44.5 -154q0 -56 39 -56q30 0 61.5 24.5t36.5 48.5zM720 437q0 -108 -68.5 -196t-164.5 -88q-71 0 -87 68h-3q-58 -61 -113 -61q-41 0 -68.5 28.5t-27.5 72.5q0 98 80 173.5t176 75.5q51 0 70.5 -14.5t13.5 -41.5l-39 -202
q-5 -25 3 -41t25 -16q45 0 97 71t52 162q0 89 -60.5 149t-160.5 60q-144 0 -256 -117.5t-112 -269.5q0 -106 66.5 -166.5t176.5 -60.5q127 0 262 79q21 12 29 12q12 0 -3 -18q-5 -5 -11 -10q-125 -101 -292 -101q-138 0 -216.5 72t-78.5 187q0 77 34 154.5t91.5 139.5
t141.5 100.5t176 38.5q119 0 193 -65.5t74 -174.5z" />
    <glyph glyph-name="A" unicode="A" horiz-adv-x="713" 
d="M222 282h210l-51 267h-9zM638 19l-3 -19h-231l3 19q40 0 53.5 26.5t5.5 64.5l-26 134h-239l-70 -127q-28 -50 -28 -64q0 -34 62 -34l-3 -19h-220l3 19q80 0 138 101l334 583h30l116 -593q6 -31 11 -46.5t21 -30t43 -14.5z" />
    <glyph glyph-name="B" unicode="B" horiz-adv-x="607" 
d="M432 225q0 52 -32 85t-97 35l-86 3l-50 -258q-7 -35 10 -43.5t82 -8.5q80 0 126.5 53.5t46.5 133.5zM467 562q0 46 -28 71t-75 25h-21q-35 0 -52.5 -10.5t-23.5 -42.5l-43 -220h68q75 0 125 51.5t50 125.5zM557 570q0 -62 -40 -113.5t-101 -75.5v-2q58 -17 88.5 -57
t30.5 -90q0 -103 -83 -167.5t-190 -64.5h-297l4 19q42 0 69.5 19t34.5 52l100 515q7 34 -13 53t-63 19l4 19h287q82 0 125.5 -33.5t43.5 -92.5z" />
    <glyph glyph-name="C" unicode="C" horiz-adv-x="620" 
d="M611 698h19l-43 -218h-19q-11 84 -48 139.5t-106 55.5q-110 0 -188 -117t-78 -275q0 -117 44 -187.5t125 -70.5q17 0 32 2.5t30.5 10.5t26 13t25 20t21.5 21t22 26t19 25t20.5 28.5t18.5 26.5h19l-39 -197h-19q-9 28 -33 39q-3 -2 -17 -9.5t-23 -12t-25.5 -11.5
t-30.5 -11t-33 -7t-37 -3q-107 0 -178 76t-71 215q0 180 112.5 308t258.5 128q79 0 152 -46q10 3 21 10.5t17 14.5z" />
    <glyph glyph-name="D" unicode="D" horiz-adv-x="698" 
d="M551 453q0 96 -48 150.5t-148 54.5h-11q-36 0 -53.5 -10.5t-23.5 -42.5l-100 -515q-6 -32 7.5 -42t49.5 -10h15q82 0 144.5 37t97.5 98.5t52.5 132t17.5 147.5zM654 457q0 -130 -49 -232.5t-147 -163.5t-231 -61h-262l4 19q42 0 69.5 19t34.5 52l100 515q7 34 -13 53
t-63 19l4 19h271q138 0 210 -60t72 -179z" />
    <glyph glyph-name="E" unicode="E" horiz-adv-x="576" 
d="M101 696h483l-33 -170h-18q-17 86 -40.5 109t-94.5 23q-32 0 -44.5 -0.5t-32.5 -3t-27.5 -7.5t-15.5 -15.5t-11 -26.5l-43 -220h84q36 0 68 25.5t40 68.5h18l-43 -225h-18q8 43 -14.5 68.5t-57.5 25.5h-84l-50 -258q-4 -19 -1 -30t19 -15.5t30.5 -5.5t50.5 -1h12
q81 0 118.5 26t90.5 114h19l-35 -178h-506l4 19q42 0 69.5 19t34.5 52l100 515q7 34 -13 53t-63 19z" />
    <glyph glyph-name="F" unicode="F" horiz-adv-x="525" 
d="M101 696h473l-33 -170h-18q-17 86 -40.5 109t-94.5 23h-11q-26 0 -37.5 -0.5t-27 -3t-22.5 -8t-13.5 -15.5t-9.5 -26l-51 -264h74q35 0 66.5 25.5t40.5 68.5h20l-44 -225h-20q9 43 -13.5 68.5t-57.5 25.5h-74l-41 -214q-6 -33 14 -52t62 -19l-4 -19h-274l4 19
q42 0 69.5 19t34.5 52l100 515q7 34 -13 53t-63 19z" />
    <glyph glyph-name="G" unicode="G" horiz-adv-x="722" 
d="M432 322h275l-4 -18q-39 0 -68.5 -18t-35.5 -51l-47 -244h-18q-5 38 -30 59q-96 -65 -194 -65q-112 0 -188.5 72t-76.5 218q0 114 47.5 213t139.5 161.5t210 62.5q51 0 99 -17t68 -33q14 2 38 35h19l-43 -218h-19q-14 87 -60 141t-110 54q-68 0 -124 -38.5t-90.5 -99.5
t-53 -130.5t-18.5 -135.5q0 -116 52.5 -181.5t128.5 -65.5q81 0 147 69l28 140q7 34 -13.5 53t-62.5 19z" />
    <glyph glyph-name="H" unicode="H" horiz-adv-x="768" 
d="M530 696h273l-4 -19q-43 0 -70 -19t-34 -53l-100 -515q-7 -33 13 -52t63 -19l-4 -19h-273l4 19q88 0 103 71l50 258h-334l-50 -258q-7 -33 13.5 -52t63.5 -19l-4 -19h-275l4 19q42 0 69.5 19t34.5 52l100 515q7 34 -13 53t-63 19l4 19h275l-4 -19q-43 0 -70.5 -19
t-34.5 -53l-43 -219h334l43 219q7 34 -12.5 53t-62.5 19z" />
    <glyph glyph-name="I" unicode="I" horiz-adv-x="340" 
d="M101 696h274l-4 -19q-43 0 -70 -19t-34 -53l-100 -515q-7 -33 13 -52t63 -19l-4 -19h-274l4 19q42 0 69.5 19t34.5 52l100 515q7 34 -13 53t-63 19z" />
    <glyph glyph-name="J" unicode="J" horiz-adv-x="406" 
d="M175 696h276l-3 -18q-43 0 -71.5 -19.5t-35.5 -53.5l-81 -417q-18 -97 -70 -150t-124 -53q-52 0 -82.5 25.5t-30.5 62.5q0 27 17 45t42 18q20 0 33 -12.5t13 -32.5q0 -15 -8.5 -31.5t-8.5 -21.5q0 -22 31 -22q62 0 80 92l96 497q7 34 -13 53.5t-63 19.5z" />
    <glyph glyph-name="K" unicode="K" horiz-adv-x="703" 
d="M529 696h189l-4 -19q-49 0 -85 -21t-98 -80l-181 -173l-1 -2l149 -264q2 -3 11.5 -21t13 -23.5t13 -20t17 -20.5t18 -15t22.5 -13t26 -5l-4 -19h-150l-174 309q-16 29 -26.5 34t-46.5 5l-50 -258q-7 -33 13 -52t62 -19l-4 -19h-274l4 19q89 0 104 71l100 515
q7 34 -13 53.5t-63 19.5l4 18h274l-4 -18q-42 0 -69 -19.5t-34 -53.5l-43 -220q42 0 57.5 7t44.5 36l162 164q5 5 12.5 12t11 11t9.5 10l9.5 9.5t7.5 8t6 7.5t4 6.5t3 6t1 4.5q0 11 -28 11z" />
    <glyph glyph-name="L" unicode="L" horiz-adv-x="542" 
d="M471 178h18l-35 -178h-489l4 19q42 0 70 20t35 53l100 513q7 34 -13.5 53.5t-63.5 19.5l4 18h275l-4 -18q-43 0 -70.5 -19.5t-34.5 -53.5l-100 -515q-6 -32 7 -42t49 -10h39q79 0 115.5 24t93.5 116z" />
    <glyph glyph-name="M" unicode="M" horiz-adv-x="908" 
d="M759 696h184l-4 -19q-43 0 -70 -19t-34 -53l-100 -515q-7 -33 13 -52t63 -19l-4 -19h-276l4 19q43 0 71 19t35 52l98 500h-4l-363 -567q-5 -8 -11 -8t-8 8l-149 526h-4l-90 -459q-7 -33 13 -52t62 -19l-4 -19h-216l4 19q42 0 69.5 19t34.5 52l100 515q7 34 -13 53t-63 19
l4 19h155l156 -538h3z" />
    <glyph glyph-name="N" unicode="N" horiz-adv-x="765" 
d="M581 696h219l-4 -19q-43 0 -70.5 -19t-34.5 -53l-118 -605h-33l-325 587h-4l-100 -497q-7 -33 13.5 -52t63.5 -19l-4 -19h-219l4 19q43 0 70.5 19t34.5 52l100 515q7 34 -13.5 53t-63.5 19l4 19h157l301 -548h4l90 457q7 34 -13 53t-63 19z" />
    <glyph glyph-name="O" unicode="O" horiz-adv-x="709" 
d="M561 467q0 92 -34.5 149t-108.5 57q-67 0 -121 -46.5t-85 -117t-47.5 -144t-16.5 -136.5q0 -92 35 -149t109 -57q54 0 100 31t76.5 80t52 109t31 117.5t9.5 106.5zM664 456q0 -79 -27.5 -162t-75 -152t-121 -113t-156.5 -44q-117 0 -178 68t-61 187q0 79 27.5 162
t75.5 152t121.5 113t156.5 44q117 0 177.5 -68t60.5 -187z" />
    <glyph glyph-name="P" unicode="P" horiz-adv-x="602" 
d="M487 535q0 50 -25 85t-78 37l-29 1q-78 2 -88 -48l-52 -274h68q94 0 149 53t55 146zM590 540q0 -75 -44 -131.5t-108.5 -82.5t-138.5 -26h-91l-41 -210q-7 -33 13.5 -52t63.5 -19l-4 -19h-275l4 19q89 0 104 71l100 515q7 34 -13 53.5t-63 19.5l4 18h300q93 0 141 -44.5
t48 -111.5z" />
    <glyph glyph-name="Q" unicode="Q" horiz-adv-x="709" 
d="M561 467q0 92 -34.5 149t-108.5 57q-67 0 -121 -46.5t-85 -117t-47.5 -144t-16.5 -136.5q0 -92 35 -149t109 -57q54 0 100 31t76.5 80t52 109t31 117.5t9.5 106.5zM664 456q0 -104 -42.5 -207.5t-127 -179.5t-188.5 -84v-3q40 -10 94 -58q43 -37 65.5 -53t38.5 -16
q7 0 13.5 2.5t12.5 8t9.5 8.5t10 11t6.5 9q5 6 8 6.5t4.5 -1.5t1.5 -4q0 -20 -30 -59.5t-76 -39.5q-13 0 -24.5 3.5t-24.5 13t-21.5 17.5t-26.5 25t-29 27q-6 5 -19 17.5t-19.5 18t-18 15.5t-18 14.5t-15.5 10.5t-16 8t-13 2q-16 0 -24.5 -8.5t-8.5 -20.5q0 -7 3.5 -18
t3.5 -18q0 -15 -11.5 -25.5t-27.5 -10.5q-19 0 -31.5 12.5t-12.5 32.5q0 29 26 53t70 26v3q-79 21 -120 85t-41 161q0 79 27.5 162t75.5 152t121.5 113t156.5 44q117 0 177.5 -68t60.5 -187z" />
    <glyph glyph-name="R" unicode="R" horiz-adv-x="706" 
d="M490 533q0 59 -34.5 92t-97.5 33q-82 0 -91 -49l-51 -266h82q87 0 139.5 52t52.5 138zM632 19l-4 -19h-161l-18 26q-42 69 -152 279h-88l-42 -215q-7 -33 13.5 -52t63.5 -19l-4 -19h-275l4 19q89 0 104 71l100 515q7 34 -13 53.5t-63 19.5l4 18h300q96 0 144 -40.5
t48 -104.5q0 -82 -58.5 -148t-140.5 -80v-3l106 -186q37 -65 54 -83q31 -32 78 -32z" />
    <glyph glyph-name="S" unicode="S" horiz-adv-x="591" 
d="M513 711h18l-44 -222h-18q-19 90 -51 137t-102 47q-59 0 -97 -37t-38 -93q0 -60 68 -101l117 -69q119 -70 119 -176q0 -93 -68.5 -152.5t-173.5 -59.5q-96 0 -185 57q-10 -5 -20.5 -15.5t-15.5 -18.5l-5 -8h-17l43 217h17q56 -197 189 -197q61 0 97 41t36 105
q0 53 -17 81t-59 52l-106 63q-101 60 -101 154q0 85 64.5 140t156.5 55q71 0 151 -41q10 5 20.5 15t16.5 18z" />
    <glyph glyph-name="T" unicode="T" horiz-adv-x="549" 
d="M77 696h531l-33 -170h-20q-14 80 -33 106.5t-78 26.5h-5q-56 0 -69 -64l-98 -505q-7 -33 13.5 -52t63.5 -19l-4 -19h-275l4 19q88 0 103 71l98 505q13 64 -43 64h-8q-31 0 -51.5 -6t-39.5 -25t-32 -39t-37 -63h-20z" />
    <glyph glyph-name="U" unicode="U" horiz-adv-x="707" 
d="M534 696h219l-3 -18q-43 0 -70.5 -19.5t-34.5 -53.5l-70 -363q-26 -133 -103 -195t-188 -62q-197 0 -197 183q0 38 9 85l68 352q7 34 -13 53.5t-62 19.5l3 18h274l-3 -18q-43 0 -70.5 -19.5t-34.5 -53.5l-73 -378q-7 -40 -7 -62q0 -71 38 -106.5t103 -35.5q79 0 138 53.5
t80 165.5l70 363q7 34 -13 53.5t-63 19.5z" />
    <glyph glyph-name="V" unicode="V" horiz-adv-x="710" 
d="M544 696h225l-4 -19q-42 0 -73.5 -22t-64.5 -79l-331 -576h-34l-114 586q-6 31 -11 46.5t-21 30t-43 14.5l4 19h240l-4 -19q-40 0 -59.5 -24t-11.5 -67l87 -444h5l245 437q23 41 23 63q0 35 -62 35z" />
    <glyph glyph-name="W" unicode="W" horiz-adv-x="1015" 
d="M891 696h183l-4 -19q-40 0 -64.5 -16.5t-44.5 -55.5l-313 -605h-33l-71 502h-3l-265 -502h-35l-86 605q-11 73 -82 73l4 18h243l-4 -18q-74 0 -64 -73l61 -447h3l274 514q6 11 15.5 11t11.5 -11l72 -513h2l216 433q21 40 21 60q0 26 -41 26z" />
    <glyph glyph-name="X" unicode="X" horiz-adv-x="658" 
d="M491 696h226l-4 -19q-50 0 -87 -25.5t-80 -75.5l-173 -202l101 -240q28 -67 47 -89.5t64 -25.5l-4 -19h-232l4 19q26 2 37 8t11 20q0 15 -16 55l-81 194h-3l-158 -194q-32 -38 -32 -59q0 -24 50 -24l-4 -19h-216l4 19q44 3 79 26.5t81 77.5l183 211l-118 285
q-25 59 -97 59l4 18h240l-4 -18q-43 0 -43 -33q0 -23 18 -66l68 -165h4l142 178q32 40 32 61q0 25 -47 25z" />
    <glyph glyph-name="Y" unicode="Y" horiz-adv-x="669" 
d="M519 696h209l-4 -18q-38 0 -61 -19.5t-62 -72.5l-224 -303l-37 -193q-6 -33 14 -52t62 -19l-4 -19h-274l4 19q42 0 69.5 19t34.5 52l33 171l-112 325q-18 52 -36.5 72t-57.5 20l4 18h262l-4 -18q-76 0 -76 -50q0 -15 8 -41l91 -263h2l184 262q26 37 26 60q0 32 -55 32z
" />
    <glyph glyph-name="Z" unicode="Z" horiz-adv-x="537" 
d="M124 696h441l-4 -18l-468 -638v-2h144q83 0 119.5 27t88.5 113h19l-35 -178h-464l4 19l469 636v3h-147q-69 0 -100.5 -26t-80.5 -106h-19z" />
    <glyph glyph-name="bracketleft" unicode="[" horiz-adv-x="301" 
d="M179 733h178l-4 -19l-44 -7q-47 -7 -56 -15t-16 -48l-154 -790q-5 -25 -5 -34q0 -14 10 -18.5t43 -10.5l42 -7l-4 -19h-178z" />
    <glyph glyph-name="backslash" unicode="\" horiz-adv-x="282" 
d="M153 693l41 -708h-65l-41 708h65z" />
    <glyph glyph-name="bracketright" unicode="]" horiz-adv-x="267" 
d="M98 733h178l-188 -968h-178l4 19l44 7q46 7 55 15.5t17 47.5l154 790q5 27 5 35q0 13 -9.5 17.5t-43.5 10.5l-42 7z" />
    <glyph glyph-name="asciicircum" unicode="^" horiz-adv-x="564" 
d="M342 677l154 -339h-52l-140 284l-250 -284h-52l286 339h54z" />
    <glyph glyph-name="underscore" unicode="_" horiz-adv-x="470" 
d="M470 -71v-46h-470v46h470z" />
    <glyph glyph-name="grave" unicode="`" horiz-adv-x="414" 
d="M191 649l115 -115h-32l-125 71q-28 15 -28 40q0 11 7.5 18.5t19.5 7.5q21 0 43 -22z" />
    <glyph glyph-name="a" unicode="a" horiz-adv-x="544" 
d="M309 148l48 251q12 62 -49 62q-76 0 -143.5 -96t-67.5 -229q0 -45 19 -72t52 -27q42 0 88.5 38.5t52.5 72.5zM512 76q0 -9 -14.5 -28t-45.5 -38t-65 -19q-89 0 -89 82v5h-4q-84 -87 -161 -87q-57 0 -90 40t-33 104q0 142 101.5 248t235.5 106q51 0 77.5 -21.5t19.5 -58.5
l-61 -316q-3 -15 -3 -26q0 -40 40 -40q31 0 74 48q4 5 8.5 6.5t7 0t2.5 -5.5z" />
    <glyph glyph-name="b" unicode="b" horiz-adv-x="561" 
d="M403 342q0 51 -19 80t-56 29q-66 0 -123 -83t-57 -207q0 -70 27.5 -101.5t64.5 -31.5q41 0 74 33.5t51.5 84t28 101.5t9.5 95zM491 331q0 -80 -27 -156t-85 -130.5t-134 -54.5q-42 0 -75.5 23t-43.5 53h-3q-19 -11 -37 -27.5t-26 -27.5l-9 -11h-26l124 642q12 62 -48 62
l3 18q39 10 83 10q55 0 55 -33q0 -11 -6 -47l-49 -253h3q67 90 167 90q68 0 101 -43.5t33 -114.5z" />
    <glyph glyph-name="c" unicode="c" horiz-adv-x="454" 
d="M424 385q0 -26 -14.5 -45t-39.5 -19q-20 0 -33 13.5t-13 31.5q0 13 8 32t8 27q0 14 -13.5 23t-39.5 9q-57 0 -102.5 -47.5t-66.5 -108.5t-21 -117q0 -74 31.5 -115t90.5 -41q65 0 139 63q5 5 9.5 5t6.5 -3t1 -7q0 -2 -3 -5q-33 -41 -82 -65.5t-97 -24.5q-89 0 -136 50
t-47 129q0 133 82 226.5t199 93.5q63 0 98 -31t35 -74z" />
    <glyph glyph-name="d" unicode="d" horiz-adv-x="570" 
d="M354 335q0 116 -82 116q-58 0 -99.5 -52.5t-58.5 -116.5t-17 -123q0 -124 82 -124q54 0 95.5 52.5t60 119t19.5 128.5zM528 76q0 -9 -14.5 -28t-45.5 -38t-65 -19q-89 0 -89 82v2h-3q-74 -85 -162 -85q-69 0 -104 48t-35 126q0 74 29.5 147t91 125.5t138.5 52.5
q78 0 107 -59h3l42 213q12 61 -48 61l3 18q39 10 83 10q55 0 55 -33q0 -11 -6 -47l-109 -559q-3 -15 -3 -26q0 -40 40 -40q31 0 74 48q4 5 8.5 6.5t7 0t2.5 -5.5z" />
    <glyph glyph-name="e" unicode="e" horiz-adv-x="466" 
d="M340 401q0 22 -15 38t-43 16q-54 0 -103 -53.5t-70 -132.5q118 9 174.5 49.5t56.5 82.5zM426 394q0 -129 -323 -152q-6 -32 -6 -65q0 -76 34 -112.5t85 -36.5q72 0 149 63q14 11 18 3v-5q-2 -6 -4 -8q-31 -37 -82 -63.5t-105 -26.5q-81 0 -131.5 47.5t-50.5 128.5
q0 135 91 229t197 94q55 0 91.5 -28.5t36.5 -67.5z" />
    <glyph glyph-name="f" unicode="f" horiz-adv-x="288" 
d="M403 652q0 -21 -13.5 -35.5t-34.5 -14.5q-17 0 -30.5 12.5t-13.5 31.5q0 7 3.5 20t3.5 15q0 17 -20 17q-26 0 -44 -22.5t-25 -58.5l-27 -138h94l-6 -30h-94l-87 -446q-26 -130 -78 -184t-116 -54q-39 0 -63 18t-24 47q0 22 14 37.5t37 15.5q19 0 30 -12.5t11 -29.5
q0 -6 -2.5 -16t-2.5 -14q0 -6 5.5 -11t14.5 -5q49 0 70 108l106 546h-75l6 30h75l15 75q15 75 62.5 122.5t117.5 47.5q41 0 66 -20.5t25 -51.5z" />
    <glyph glyph-name="g" unicode="g" horiz-adv-x="520" 
d="M333 -93q0 32 -25.5 55t-72.5 30q-40 6 -89 13q-37 -4 -66.5 -33.5t-29.5 -70.5q0 -50 36 -77t96 -27q70 0 110.5 32t40.5 78zM366 375q0 43 -20.5 64t-55.5 21q-64 0 -99.5 -55t-34.5 -120q0 -43 22.5 -64.5t59.5 -21.5q36 0 62.5 18.5t40 47.5t19.5 57t6 53zM530 514
q0 -15 -11 -27t-28 -12q-11 0 -24 9t-19 9q-11 0 -21.5 -13.5t-14.5 -35.5q40 -38 40 -94q0 -77 -64 -130.5t-157 -53.5q-47 0 -76 9q-22 -9 -35.5 -24.5t-13.5 -31.5q0 -17 14 -24t43 -11l82 -12q78 -11 120 -48t42 -95q0 -72 -64.5 -118t-164.5 -46q-91 0 -145.5 35
t-54.5 92q0 42 28 72.5t73 48.5l1 2q-38 22 -38 66q0 63 88 103v3q-61 36 -61 111q0 83 67.5 137t155.5 54q56 0 98 -27q10 37 36.5 65t58.5 28q20 0 32.5 -11.5t12.5 -29.5z" />
    <glyph glyph-name="h" unicode="h" 
d="M539 76q0 -9 -14.5 -28t-45.5 -38t-65 -19q-89 0 -89 82q0 25 5 48l42 216q4 24 4 35q0 70 -67 70q-43 0 -85 -35t-50 -75l-64 -332h-85l125 643q12 61 -48 61l3 18q39 10 83 10q55 0 55 -33q0 -11 -6 -47l-48 -243h3q71 80 156 80q43 0 78.5 -26t35.5 -84q0 -19 -4 -38
l-48 -248q-3 -15 -3 -26q0 -40 40 -40q32 0 75 48q4 5 8 6.5t6.5 0t2.5 -5.5z" />
    <glyph glyph-name="i" unicode="i" horiz-adv-x="289" 
d="M257 76q0 -9 -14.5 -28t-45.5 -38t-65 -19q-89 0 -89 82q0 25 5 48l54 278q12 62 -48 62l3 18q39 10 83 10q55 0 55 -33q0 -11 -6 -47l-61 -316q-3 -15 -3 -26q0 -40 40 -40q32 0 75 48q4 5 8 6.5t6.5 0t2.5 -5.5zM232 637q0 -23 -16.5 -40t-39.5 -17t-40 17t-17 40
t17 39.5t40 16.5t39.5 -16.5t16.5 -39.5z" />
    <glyph glyph-name="j" unicode="j" horiz-adv-x="278" 
d="M197 456q0 -11 -6 -47l-79 -406q-25 -129 -78 -183.5t-117 -54.5q-39 0 -63 18t-24 47q0 22 14 37.5t37 15.5q19 0 30 -12.5t11 -29.5q0 -6 -2.5 -16t-2.5 -14q0 -6 5.5 -11t14.5 -5q49 0 70 108l97 496q12 62 -48 62l3 18q39 10 83 10q55 0 55 -33zM233 637
q0 -23 -16.5 -40t-39.5 -17t-40 17t-17 40t17 39.5t40 16.5t39.5 -16.5t16.5 -39.5z" />
    <glyph glyph-name="k" unicode="k" horiz-adv-x="556" 
d="M524 76q0 -9 -14.5 -28.5t-46 -38t-67.5 -18.5q-64 0 -93 56l-82 156q-11 21 -20.5 29t-24.5 8h-20l-46 -240h-85l125 643q12 61 -48 61l3 18q39 10 83 10q55 0 55 -33q0 -11 -6 -47l-74 -375q38 0 55.5 8.5t30.5 25.5l94 125q21 29 41.5 41t49.5 12q28 0 44.5 -17
t16.5 -39q0 -23 -13 -39.5t-35 -16.5q-18 0 -28.5 10.5t-17 21t-14.5 10.5q-12 0 -32 -25l-67 -86q-23 -29 -43 -38v-3q41 -9 58 -41l84 -158q11 -22 21.5 -31.5t26.5 -9.5q29 0 72 48q5 6 9 7t6 -1t2 -5z" />
    <glyph glyph-name="l" unicode="l" horiz-adv-x="289" 
d="M257 76q0 -9 -14.5 -28t-45.5 -38t-65 -19q-89 0 -89 82q0 25 5 48l102 522q12 61 -48 61l3 18q39 10 83 10q55 0 55 -33q0 -11 -6 -47l-109 -559q-3 -15 -3 -26q0 -40 40 -40q31 0 74 48q4 5 8.5 6.5t7 0t2.5 -5.5z" />
    <glyph glyph-name="m" unicode="m" horiz-adv-x="836" 
d="M804 76q0 -9 -14.5 -28t-45.5 -38t-65 -19q-89 0 -89 82q0 25 5 48l42 216q4 19 4 39q0 66 -58 66q-43 0 -84.5 -33t-49.5 -72l-65 -337h-85l65 337q4 19 4 39q0 66 -59 66q-43 0 -85 -35t-50 -75l-64 -332h-85l77 399q12 62 -48 62l3 18q39 10 83 10q55 0 55 -33l-6 -47
h3q74 80 153 80q38 0 67.5 -22.5t37.5 -67.5h2q66 90 164 90q42 0 76.5 -26t34.5 -83q0 -20 -4 -39l-48 -248q-3 -15 -3 -26q0 -40 40 -40q31 0 74 48q4 5 8.5 6.5t7 0t2.5 -5.5z" />
    <glyph glyph-name="n" unicode="n" 
d="M539 76q0 -9 -14.5 -28t-45.5 -38t-65 -19q-89 0 -89 82q0 25 5 48l42 216q4 24 4 35q0 70 -67 70q-43 0 -85 -35t-50 -75l-64 -332h-85l77 399q12 62 -48 62l3 18q39 10 83 10q55 0 55 -33q0 -6 -1.5 -17.5t-2.5 -20.5t-2 -9h1q71 80 158 80q43 0 78.5 -26t35.5 -84
q0 -19 -4 -38l-48 -248q-3 -15 -3 -26q0 -40 40 -40q31 0 74 48q4 5 8.5 6.5t7 0t2.5 -5.5z" />
    <glyph glyph-name="o" unicode="o" horiz-adv-x="509" 
d="M352 334q0 117 -82 117q-54 0 -94.5 -51t-59 -118.5t-19.5 -135.5q0 -56 17.5 -87t63.5 -31q49 0 89.5 45.5t62.5 115.5t22 145zM439 319q0 -55 -17 -111t-48.5 -105.5t-83 -80.5t-114.5 -31q-84 0 -125 44.5t-41 125.5q0 80 31 154.5t93 124t139 49.5q83 0 124.5 -44.5
t41.5 -125.5z" />
    <glyph glyph-name="p" unicode="p" horiz-adv-x="562" 
d="M405 342q0 51 -19.5 80t-56.5 29q-66 0 -123 -83t-57 -207q0 -70 27.5 -101.5t64.5 -31.5q41 0 74.5 33.5t52 84t28 101.5t9.5 95zM492 331q0 -80 -27 -156t-85 -130.5t-134 -54.5q-42 0 -76 23t-44 53h-3l-47 -244q-4 -20 7.5 -25t47.5 -5l-4 -19h-207l4 19q37 0 50 5.5
t17 24.5l112 577q12 62 -48 62l3 18q39 10 83 10q55 0 55 -33l-8 -57h3q67 90 167 90q68 0 101 -43.5t33 -114.5z" />
    <glyph glyph-name="q" unicode="q" horiz-adv-x="548" 
d="M354 335q0 116 -82 116q-58 0 -99.5 -52.5t-58.5 -116.5t-17 -123q0 -124 82 -124q54 0 95.5 52.5t60 119t19.5 128.5zM442 479h32l-128 -657q-4 -20 7.5 -25t47.5 -5l-4 -19h-207l4 19q37 0 50 5.5t17 24.5l48 249h-3q-70 -81 -158 -81q-69 0 -103.5 47.5t-34.5 125.5
q0 54 18 111t50 105t82.5 79t108.5 31q78 0 107 -59h3q35 16 63 49z" />
    <glyph glyph-name="r" unicode="r" horiz-adv-x="389" 
d="M389 433q0 -21 -13 -36t-33 -15q-21 0 -36 23.5t-32 23.5q-19 0 -45.5 -20t-50.5 -57l-69 -352h-85l78 399q12 62 -48 62l3 18q39 10 83 10q55 0 55 -33q0 -8 -6 -47l-1 -7h3q34 49 72.5 68t62.5 19q29 0 45.5 -16.5t16.5 -39.5z" />
    <glyph glyph-name="s" unicode="s" horiz-adv-x="413" 
d="M353 396q0 -23 -14 -38.5t-37 -15.5q-20 0 -33.5 11.5t-13.5 31.5q0 11 6 25t6 19q0 16 -18 24t-38 8q-41 0 -70.5 -24t-29.5 -59q0 -47 47 -68l81 -36q105 -46 105 -136q0 -60 -55 -103.5t-137 -43.5q-66 0 -109 29.5t-43 70.5q0 26 16.5 43.5t38.5 17.5q20 0 33.5 -14
t13.5 -34q0 -14 -7 -27.5t-7 -20.5q0 -17 20 -27t47 -10q48 0 78.5 27t30.5 67q0 58 -71 90l-81 37q-72 33 -72 104q0 56 49 100.5t127 44.5q60 0 98.5 -28t38.5 -65z" />
    <glyph glyph-name="t" unicode="t" horiz-adv-x="307" 
d="M203 479h94l-6 -30h-94l-69 -356q-3 -15 -3 -26q0 -40 40 -40q32 0 75 48q4 5 8 6.5t6.5 0t2.5 -5.5q0 -9 -14.5 -28t-45.5 -38t-65 -19q-89 0 -89 82q0 12 6 48l63 328h-75l4 21q98 32 167 155h23z" />
    <glyph glyph-name="u" unicode="u" 
d="M539 76q0 -6 -9.5 -19t-24.5 -28t-40 -26t-51 -11q-48 0 -70 22t-20 59h-3q-27 -35 -68.5 -58.5t-90.5 -23.5q-47 0 -80.5 27.5t-33.5 83.5q0 18 4 37l51 260q12 62 -48 62l3 18q39 10 83 10q55 0 55 -33q0 -11 -6 -47l-52 -266q-4 -24 -4 -35q0 -70 67 -70q43 0 85 35
t50 75l64 332h85l-75 -386q-3 -15 -3 -26q0 -40 40 -40q32 0 75 48q4 5 8 6t6.5 -0.5t2.5 -5.5z" />
    <glyph glyph-name="v" unicode="v" horiz-adv-x="506" 
d="M456 362q0 -81 -31 -153t-79.5 -118.5t-104.5 -73t-107 -26.5q-45 0 -67 24t-22 59q0 26 7 65l51 260q12 62 -48 62l3 18q39 10 83 10q55 0 55 -33q0 -11 -6 -47l-52 -266q-8 -48 -8 -59q0 -46 51 -46q80 0 146.5 79.5t66.5 178.5q0 38 -11.5 57t-34.5 29q-42 19 -42 54
q0 22 16.5 37.5t41.5 15.5q43 0 67.5 -38.5t24.5 -88.5z" />
    <glyph glyph-name="w" unicode="w" horiz-adv-x="769" 
d="M719 362q0 -158 -93 -264.5t-205 -106.5q-40 0 -67 22.5t-32 68.5h-3q-71 -91 -166 -91q-45 0 -75 27.5t-30 83.5q0 18 4 37l51 260q12 62 -48 62l3 18q39 10 83 10q55 0 55 -33q0 -11 -6 -47l-52 -266q-4 -24 -4 -35q0 -35 12 -52.5t46 -17.5q43 0 84.5 36t49.5 76
l65 330h85l-66 -340q-4 -22 -4 -32q0 -38 12.5 -54t39.5 -16q71 0 135 82t64 176q0 38 -11.5 57t-34.5 29q-42 19 -42 54q0 22 16.5 37.5t41.5 15.5q43 0 67.5 -38.5t24.5 -88.5z" />
    <glyph glyph-name="x" unicode="x" horiz-adv-x="600" 
d="M543 76q0 -9 -13 -28t-42 -38t-64 -19q-76 0 -114 84l-49 107h-3q-89 -191 -192 -191q-30 0 -48 16.5t-18 39.5q0 20 13.5 35.5t34.5 15.5q17 0 32 -20.5t28 -20.5q50 0 135 160l-85 178q-15 33 -31 49.5t-46 16.5l4 18q33 10 74 10q46 0 70 -49l68 -140h3
q79 189 180 189q27 0 44 -16t17 -40q0 -23 -15 -39t-35 -16q-22 0 -35 18.5t-24 18.5q-41 0 -119 -150l84 -179q14 -30 27.5 -44.5t31.5 -14.5q13 0 27 8t21.5 16.5t20.5 23.5q4 4 8 6t7 0.5t3 -5.5z" />
    <glyph glyph-name="y" unicode="y" horiz-adv-x="446" 
d="M396 391q0 -52 -26 -115.5t-73 -152.5l-77 -146q-57 -109 -104.5 -160.5t-96.5 -51.5q-29 0 -49 18.5t-20 48.5q0 21 14.5 36t34.5 15q17 0 26.5 -8.5t13 -19t10 -19t17.5 -8.5q46 0 119 148l2 4l-144 430q-9 28 -21.5 39.5t-37.5 11.5l4 18q34 10 58 10q60 0 73 -43
l120 -368l29 54q26 49 46 107t20 87q0 36 -29 59t-29 55q0 20 15 34.5t37 14.5q33 0 50.5 -26t17.5 -72z" />
    <glyph glyph-name="z" unicode="z" horiz-adv-x="509" 
d="M469 440q0 -29 -13.5 -54.5t-45 -51.5t-56.5 -42.5t-74 -46.5q-15 -9 -23 -14q-47 -29 -65 -40t-47 -31t-42 -33t-19 -26q48 5 127 -12t109 -17q33 0 48.5 13t15.5 32q0 30 -30 56q-7 7 -5 11t8 4q16 0 41.5 -31t25.5 -74q0 -41 -28 -67t-78 -26q-45 0 -85.5 18.5
t-73.5 37t-59 18.5q-23 0 -23 -19q0 -2 1.5 -9.5t1.5 -11.5q0 -16 -11 -25t-27 -9q-19 0 -30.5 12.5t-11.5 36.5q0 21 10.5 42t23 36t40 35t45 30.5t55.5 33t54 32.5q140 85 157 129q-49 -4 -118 15t-94 19q-49 0 -49 -33q0 -19 23 -45q4 -5 2.5 -9.5t-6.5 -4.5
q-14 0 -34.5 28t-20.5 57q0 38 25 61t69 23q45 0 101 -37t85 -37q24 0 24 19q0 2 -1.5 10t-1.5 12q0 16 11 24.5t27 8.5q42 0 42 -48z" />
    <glyph glyph-name="braceleft" unicode="{" horiz-adv-x="302" 
d="M355 733l-3 -19q-28 0 -59 -23t-36 -58l-29 -226q-7 -60 -42 -102.5t-70 -54.5l-1 -4q30 -12 48.5 -54t2.5 -103l-58 -226q-9 -35 13 -58t50 -23l-4 -19q-73 0 -106.5 23t-19.5 77l68 255q15 57 -8.5 89t-47.5 32l3 18q23 0 59.5 32t43.5 89l32 255q12 100 164 100z" />
    <glyph glyph-name="bar" unicode="|" horiz-adv-x="282" 
d="M174 692v-692h-66v692h66z" />
    <glyph glyph-name="braceright" unicode="}" horiz-adv-x="265" 
d="M224 633l-68 -255q-15 -57 8.5 -89t47.5 -32l-3 -18q-24 0 -60.5 -32t-43.5 -89l-31 -255q-12 -100 -164 -100l3 19q29 0 60 23t35 58l28 226q7 61 42.5 103t70.5 54l1 4q-31 12 -49.5 54t-2.5 103l59 226q9 35 -13 58t-50 23l4 19q74 0 107 -23t19 -77z" />
    <glyph glyph-name="asciitilde" unicode="~" horiz-adv-x="564" 
d="M446 299h41q-9 -40 -41 -77t-84 -30l-165 23q-68 10 -79 -41h-41q9 40 41 77t84 30l165 -23q68 -10 79 41z" />
    <glyph glyph-name="nbspace" unicode="&#xa0;" horiz-adv-x="235" 
 />
    <glyph glyph-name="exclamdown" unicode="&#xa1;" horiz-adv-x="281" 
d="M158 297h19q-8 -76 -17 -178.5t-15 -167.5t-10 -87q-7 -37 -24.5 -56.5t-39.5 -19.5q-20 0 -30.5 14t-10.5 36q0 26 18.5 93.5t55 185.5t54.5 180zM247 451q0 -23 -16.5 -39.5t-39.5 -16.5t-40 16.5t-17 39.5t17 39.5t40 16.5t39.5 -16.5t16.5 -39.5z" />
    <glyph glyph-name="cent" unicode="&#xa2;" horiz-adv-x="454" 
d="M424 384q0 -26 -14.5 -45t-39.5 -19q-20 0 -33 13.5t-13 31.5q0 13 8 32t8 27q0 14 -13.5 23t-39.5 9q-57 0 -102.5 -47.5t-66.5 -108.5t-21 -117q0 -67 32 -111.5t90 -44.5q65 0 139 63q5 5 9.5 5t6.5 -3t1 -7q0 -2 -3 -5q-61 -75 -154 -88l-12 -61h-57l12 61
q-74 9 -112.5 57.5t-38.5 119.5q0 123 71.5 213.5t176.5 104.5l13 70h57l-13 -70q52 -6 80.5 -35.5t28.5 -67.5z" />
    <glyph glyph-name="sterling" unicode="&#xa3;" horiz-adv-x="536" 
d="M515 595q0 -28 -15.5 -48t-39.5 -20q-18 0 -29 11t-11 29q0 11 7 30t7 26q0 12 -10.5 21.5t-32.5 9.5q-43 0 -77 -41.5t-55 -150.5l-17 -86h141l-8 -38h-141q-48 -224 -144 -291q0 -1 -0.5 -2.5t-0.5 -2.5l78 6q26 2 70 -2.5t65 -4.5q22 0 38.5 9.5t16.5 24.5
q0 4 -1.5 11t-1.5 11q0 16 12 27.5t31 11.5q22 0 36.5 -16t14.5 -40q0 -38 -33.5 -63t-91.5 -25q-46 0 -124 11t-106 11q-60 0 -128 -23l7 37q20 8 37 18.5t31 27.5t24 28t20 36.5t15.5 35.5t13 41.5t9.5 38.5t9.5 44t8.5 40h-94l8 38h94l17 87q21 104 82.5 166.5
t148.5 62.5q56 0 87.5 -28t31.5 -69z" />
    <glyph glyph-name="currency" unicode="&#xa4;" horiz-adv-x="499" 
d="M368 287q0 67 -33.5 116t-85.5 49q-51 0 -86 -49.5t-35 -115.5t35 -115t86 -49q52 0 85.5 48.5t33.5 115.5zM396 181l73 -74l-40 -39l-68 67q-63 -60 -140 -48q-50 7 -89 43l-63 -62l-39 39l67 68q-33 66 -23 136q8 45 28 83l-72 73l39 39l68 -67q63 60 140 48
q51 -7 89 -44l63 63l40 -39l-68 -69q32 -63 22 -135q-7 -42 -27 -82z" />
    <glyph glyph-name="yen" unicode="&#xa5;" horiz-adv-x="669" 
d="M519 696h209l-4 -18q-38 0 -61 -19.5t-62 -72.5l-219 -297h143l-7 -38h-147l-11 -60h146l-7 -38h-147l-12 -63q-6 -33 14 -52t62 -19l-4 -19h-274l4 19q43 0 70.5 19t33.5 52l12 63h-154l7 38h155l11 60h-154l7 38h140l-103 297q-18 52 -36.5 72t-57.5 20l4 18h262
l-4 -18q-76 0 -76 -50q0 -15 8 -41l91 -263h2l184 262q26 37 26 60q0 32 -55 32z" />
    <glyph glyph-name="brokenbar" unicode="&#xa6;" horiz-adv-x="292" 
d="M179 165v-352q-21 2 -33 2l-33 -2v352q21 -1 33 -1zM179 691v-352q-21 1 -33 1l-33 -1v352q21 -2 33 -2z" />
    <glyph glyph-name="section" unicode="&#xa7;" horiz-adv-x="484" 
d="M332 245q0 61 -64 92l-76 38q0 1 -2 1t-2 1q-32 -18 -59 -50.5t-27 -67.5q0 -61 63 -92l77 -38q0 -1 2 -1t2 -1q33 19 59.5 50.5t26.5 67.5zM434 600q0 -29 -15.5 -49t-39.5 -20q-17 0 -29 11.5t-12 31.5q0 6 1.5 19.5t1.5 18.5q0 23 -10 32.5t-35 9.5q-44 0 -79.5 -32
t-35.5 -75q0 -35 14.5 -55t45.5 -36l81 -41q47 -24 71.5 -61.5t24.5 -79.5q0 -57 -37.5 -102t-97.5 -71q46 -41 46 -106q0 -75 -59.5 -129t-139.5 -54q-55 0 -92.5 25.5t-37.5 66.5q0 29 15.5 49t39.5 20q17 0 28.5 -11.5t11.5 -31.5q0 -6 -1.5 -19.5t-1.5 -18.5
q0 -23 10.5 -32.5t35.5 -9.5q44 0 79 32t35 75q0 35 -14.5 55t-45.5 36l-80 41q-47 24 -71.5 61.5t-24.5 79.5q0 57 37 102t97 71q-45 40 -45 106q0 75 59.5 129t139.5 54q55 0 92.5 -25.5t37.5 -66.5z" />
    <glyph glyph-name="dieresis" unicode="&#xa8;" horiz-adv-x="470" 
d="M197 590q0 -23 -16.5 -39.5t-39.5 -16.5t-40 16.5t-17 39.5t17 39.5t40 16.5t39.5 -16.5t16.5 -39.5zM386 590q0 -23 -17 -39.5t-40 -16.5t-39.5 16.5t-16.5 39.5t16.5 39.5t39.5 16.5t40 -16.5t17 -39.5z" />
    <glyph glyph-name="copyright" unicode="&#xa9;" horiz-adv-x="768" 
d="M671 320q0 119 -84 202.5t-203 83.5t-203 -84t-84 -203t84.5 -203t203.5 -84q118 0 202 84.5t84 203.5zM718 320q0 -139 -97.5 -237t-235.5 -98q-139 0 -237 97.5t-98 236.5t97.5 236.5t236.5 97.5t236.5 -97.5t97.5 -235.5zM535 214q4 -4 -1 -12q-20 -34 -58.5 -57.5
t-88.5 -23.5q-75 0 -128.5 49t-53.5 150q0 88 54.5 142.5t140.5 54.5q58 0 96.5 -29t38.5 -67q0 -24 -12.5 -37.5t-32.5 -13.5q-24 0 -34 16.5t-6 36.5q1 5 4 15t3 15q0 16 -15.5 25t-39.5 9q-51 0 -83.5 -46t-32.5 -126q0 -67 30 -113.5t89 -46.5q27 0 52.5 11.5t34 19
t28.5 25.5q10 8 15 3z" />
    <glyph glyph-name="ordfeminine" unicode="&#xaa;" horiz-adv-x="312" 
d="M180 525l21 114q2 10 2 14q0 22 -24 22q-36 0 -66 -46.5t-30 -107.5q0 -49 32 -49q19 0 40.5 19.5t24.5 33.5zM294 485q0 -4 -7.5 -13.5t-24.5 -19t-37 -9.5q-51 0 -51 44h-2q-39 -44 -82 -44q-30 0 -47.5 20t-17.5 54q0 66 49.5 120.5t121.5 54.5q62 0 62 -37
q0 -3 -0.5 -8.5t-0.5 -6.5l-27 -144q-1 -5 -1 -14q0 -18 17 -18q12 0 36 21q5 4 9 4q3 0 3 -4z" />
    <glyph glyph-name="guillemotleft" unicode="&#xab;" horiz-adv-x="479" 
d="M265 432l-7 -38q-148 -126 -183 -160v-4q8 -14 38.5 -52.5t56.5 -69.5l26 -32l-7 -38q-125 122 -165 154v76zM444 432l-8 -38q-148 -126 -184 -160v-4q9 -14 39.5 -52.5t56.5 -69.5l26 -32l-8 -38q-123 122 -164 154v76z" />
    <glyph glyph-name="logicalnot" unicode="&#xac;" horiz-adv-x="500" 
d="M30 261h410l-30 -150h-47l20 103h-363z" />
    <glyph glyph-name="dash" unicode="&#xad;" horiz-adv-x="500" 
d="M28 261h412l-8 -46h-412z" />
    <glyph glyph-name="registered" unicode="&#xae;" horiz-adv-x="479" 
d="M281 555q0 46 -41 46q-20 0 -20 -14v-77h20q19 0 30 12.5t11 32.5zM356 420v-11h-54l-66 90h-16v-59q0 -20 17 -20v-11h-74v11q16 0 16 20v141q0 22 -16 22v10h87q36 0 54.5 -15t18.5 -37q0 -23 -14.5 -38t-30.5 -19v-1l42 -55q20 -28 36 -28zM412 509q0 71 -46.5 121
t-115.5 50t-116 -50t-47 -121t47 -121.5t116 -50.5t115.5 50.5t46.5 121.5zM449 509q0 -83 -58 -141.5t-141 -58.5t-141.5 58.5t-58.5 141.5t58.5 141t141.5 58t141 -58t58 -141z" />
    <glyph glyph-name="macron" unicode="&#xaf;" horiz-adv-x="470" 
d="M357 600v-66h-244v66h244z" />
    <glyph glyph-name="degree" unicode="&#xb0;" horiz-adv-x="375" 
d="M314 567q0 40 -28.5 68.5t-69.5 28.5q-40 0 -68.5 -28.5t-28.5 -69.5q0 -40 29 -68.5t69 -28.5t68.5 28.5t28.5 69.5zM361 567q0 -60 -42.5 -102.5t-101.5 -42.5q-60 0 -102.5 42.5t-42.5 101.5q0 60 42.5 102.5t101.5 42.5q60 0 102.5 -42.5t42.5 -101.5z" />
    <glyph glyph-name="plusminus" unicode="&#xb1;" horiz-adv-x="500" 
d="M-1 47h410l-9 -47h-410zM270 261h181l-9 -47h-181l-25 -126h-47l25 126h-182l9 47h182l35 182h47z" />
    <glyph glyph-name="twosuperior" unicode="&#xb2;" horiz-adv-x="298" 
d="M279 613q0 -10 -2 -19t-7 -19t-9 -17t-13.5 -17t-15 -16t-18 -16.5t-18 -15t-20.5 -16.5l-20 -16l-90 -71v-1h117q3 0 6.5 0.5t6.5 2t5 2t4.5 3.5t4 4t4.5 5t4 5t4.5 6t4.5 6h17l-19 -96h-243l4 19l137 125q48 43 71.5 77.5t23.5 72.5q0 27 -16 46t-43 19q-26 0 -41 -15
t-15 -36q0 -5 1.5 -14t1.5 -13q0 -12 -8.5 -21.5t-24.5 -9.5q-15 0 -24 10t-9 26q0 37 37 64t90 27q51 0 81.5 -26.5t30.5 -64.5z" />
    <glyph glyph-name="threesuperior" unicode="&#xb3;" horiz-adv-x="291" 
d="M267 626q0 -59 -76 -87v-1q28 -12 45.5 -35t17.5 -53q0 -55 -45 -93t-113 -38q-42 0 -70.5 18t-28.5 46q0 16 11.5 27.5t27.5 11.5q14 0 21.5 -9t7.5 -21q0 -6 -2.5 -15t-2.5 -13q0 -12 10.5 -19.5t29.5 -7.5q38 0 64 29.5t26 77.5q0 75 -83 77l4 20q44 1 72 25t28 64
q0 24 -14 40t-38 16q-22 0 -34 -11.5t-12 -26.5q0 -4 1.5 -11t1.5 -10q0 -13 -8.5 -21.5t-22.5 -8.5q-15 0 -23.5 9.5t-8.5 22.5q0 31 32.5 53t76.5 22q50 0 77.5 -22t27.5 -56z" />
    <glyph glyph-name="acute" unicode="&#xb4;" horiz-adv-x="413" 
d="M257 645q0 -25 -28 -40l-125 -71h-32l115 115q22 22 43 22q12 0 19.5 -7.5t7.5 -18.5z" />
    <glyph glyph-name="mu" unicode="&#xb5;" horiz-adv-x="570" 
d="M538 76q0 -6 -9.5 -19t-24.5 -28t-40 -26t-51 -11q-48 0 -70 22t-20 59h-3q-27 -35 -68.5 -58.5t-90.5 -23.5q-43 0 -72 21q-8 -49 -16 -116.5t-10 -78.5q-11 -59 -54 -59q-34 0 -34 39q0 14 9 48t22.5 83t20.5 85l91 467h84l-65 -337q-4 -24 -4 -35q0 -70 67 -70
q43 0 85 35t50 75l64 332h85l-75 -386q-3 -15 -3 -26q0 -40 40 -40q32 0 75 48q4 5 8 6t6.5 -0.5t2.5 -5.5z" />
    <glyph glyph-name="mu" unicode="&#x3bc;" horiz-adv-x="570" 
d="M538 76q0 -6 -9.5 -19t-24.5 -28t-40 -26t-51 -11q-48 0 -70 22t-20 59h-3q-27 -35 -68.5 -58.5t-90.5 -23.5q-43 0 -72 21q-8 -49 -16 -116.5t-10 -78.5q-11 -59 -54 -59q-34 0 -34 39q0 14 9 48t22.5 83t20.5 85l91 467h84l-65 -337q-4 -24 -4 -35q0 -70 67 -70
q43 0 85 35t50 75l64 332h85l-75 -386q-3 -15 -3 -26q0 -40 40 -40q32 0 75 48q4 5 8 6t6.5 -0.5t2.5 -5.5z" />
    <glyph glyph-name="paragraph" unicode="&#xb6;" horiz-adv-x="461" 
d="M274 676h234l-8 -38h-65l-125 -638h-46l123 638h-82l-123 -638h-48l70 358q-64 3 -104 38.5t-40 80.5q0 97 61 148t153 51z" />
    <glyph glyph-name="periodcentered" unicode="&#xb7;" horiz-adv-x="245" 
d="M175 248q0 -23 -16.5 -39.5t-39.5 -16.5t-39.5 16.5t-16.5 39.5t16.5 40t39.5 17t39.5 -17t16.5 -40z" />
    <glyph glyph-name="cedilla" unicode="&#xb8;" horiz-adv-x="470" 
d="M397 -116q0 -44 -39 -72t-93 -28q-51 0 -86 20q-9 5 -10.5 10.5t4.5 8t18 0.5q51 -9 58 -9q38 0 60 17.5t22 44.5q0 41 -61 41h-52l51 87h46l-28 -51h20q46 0 68 -19t22 -50z" />
    <glyph glyph-name="onesuperior" unicode="&#xb9;" horiz-adv-x="188" 
d="M149 704h17l-64 -332q-3 -16 6.5 -24.5t31.5 -8.5l-3 -12h-151l3 12q43 0 51 33l45 233q1 4 2 10t1.5 9.5t0.5 4.5q0 10 -11 10q-12 0 -39 -6l2 12z" />
    <glyph glyph-name="ordmasculine" unicode="&#xba;" horiz-adv-x="285" 
d="M204 613q0 60 -39 60q-38 0 -60 -47.5t-22 -102.5q0 -61 39 -61q36 0 59 47t23 104zM262 600q0 -59 -37.5 -108t-105.5 -49q-46 0 -70 24.5t-24 66.5q0 63 40.5 110.5t102.5 47.5q46 0 70 -25t24 -67z" />
    <glyph glyph-name="guillemotright" unicode="&#xbb;" horiz-adv-x="478" 
d="M233 278v-76l-242 -164l8 38q148 126 184 160v4q-9 14 -39.5 52.5t-56.5 69.5l-26 32l8 38q123 -122 164 -154zM411 278l1 -76l-242 -164l7 38q148 126 183 160v4q-8 14 -38.5 52.5t-56.5 69.5l-26 32l7 38q125 -122 165 -154z" />
    <glyph glyph-name="onequarter" unicode="&#xbc;" horiz-adv-x="595" 
d="M512 696h55l-511 -696h-55zM149 686h17l-64 -332q-3 -16 6.5 -24.5t31.5 -8.5l-3 -12h-151l3 12q43 0 51 33l45 233q1 4 2 10t1.5 9.5t0.5 4.5q0 10 -11 10q-12 0 -39 -6l2 12zM409 127l35 179h-2l-144 -178v-1h111zM471 127h48l-6 -37h-49l-8 -47q-2 -17 6 -24t31 -7
l-2 -12h-151l2 12q44 0 51 35l9 43h-147l4 21l213 262h47z" />
    <glyph glyph-name="onehalf" unicode="&#xbd;" horiz-adv-x="623" 
d="M512 696h55l-511 -696h-55zM149 686h17l-64 -332q-3 -16 6.5 -24.5t31.5 -8.5l-3 -12h-151l3 12q43 0 51 33l45 233q1 4 2 10t1.5 9.5t0.5 4.5q0 10 -11 10q-12 0 -39 -6l2 12zM604 286q0 -10 -2 -19t-7 -19t-9 -17t-13.5 -17t-15 -16t-18 -16.5t-18 -15t-20.5 -16.5
l-20 -16l-90 -71v-1h117q3 0 6.5 0.5t6.5 2t5 2t4.5 3.5t4 4t4.5 5t4 5t4.5 6t4.5 6h17l-19 -96h-243l4 19l137 125q48 43 71.5 77.5t23.5 72.5q0 27 -16 46t-43 19q-26 0 -41 -15t-15 -36q0 -4 1.5 -13t1.5 -14q0 -12 -8.5 -21.5t-24.5 -9.5q-15 0 -24 10t-9 26q0 37 37 64
t90 27q51 0 81.5 -26.5t30.5 -64.5z" />
    <glyph glyph-name="threequarters" unicode="&#xbe;" horiz-adv-x="624" 
d="M266 629q0 -32 -22 -55.5t-54 -35.5v-2q26 -7 43 -29t17 -53q0 -62 -47.5 -100.5t-109.5 -38.5q-42 0 -69 15t-27 41q0 42 37 42q15 0 24.5 -8t9.5 -20q0 -6 -2.5 -12t-3.5 -9q-2 -11 5.5 -17.5t22.5 -6.5q42 0 68 31.5t26 77.5q0 31 -23 49.5t-62 18.5l4 20
q44 0 73 23.5t29 65.5q0 21 -11.5 35t-33.5 14q-18 0 -32 -9t-14 -20q0 -2 1 -11t1 -12q0 -11 -8 -19t-23 -8q-13 0 -21.5 9t-8.5 18q0 37 32.5 57t72.5 20q46 0 76 -18.5t30 -52.5zM541 696h55l-511 -696h-55zM440 127l35 179h-2l-144 -178v-1h111zM502 127h48l-6 -37h-49
l-8 -47q-2 -17 6 -24t31 -7l-2 -12h-151l2 12q44 0 51 35l9 43h-147l4 21l213 262h47z" />
    <glyph glyph-name="questiondown" unicode="&#xbf;" horiz-adv-x="449" 
d="M379 -46q0 -68 -57.5 -117t-140.5 -49q-69 0 -115 40t-46 96q0 39 21 72t53 61t66 58.5t65 79.5t44 110h19q0 -73 -30 -135q-12 -25 -48.5 -72t-61.5 -91t-25 -83t23.5 -64t66.5 -25q34 0 60.5 20t26.5 45q0 14 -11.5 35t-11.5 36q0 19 13.5 33t34.5 14q24 0 39 -18.5
t15 -45.5zM360 456q0 -23 -16.5 -39.5t-39.5 -16.5t-40 16.5t-17 39.5t17 39.5t40 16.5t39.5 -16.5t16.5 -39.5z" />
    <glyph glyph-name="Agrave" unicode="&#xc0;" horiz-adv-x="713" 
d="M222 282h210l-51 267h-9zM638 19l-3 -19h-231l3 19q40 0 53.5 26.5t5.5 64.5l-26 134h-239l-70 -127q-28 -50 -28 -64q0 -34 62 -34l-3 -19h-220l3 19q80 0 138 101l334 583h30l116 -593q6 -31 11 -46.5t21 -30t43 -14.5zM327 851l115 -115h-32l-125 71q-28 15 -28 40
q0 11 7.5 18.5t19.5 7.5q21 0 43 -22z" />
    <glyph glyph-name="Aacute" unicode="&#xc1;" horiz-adv-x="713" 
d="M222 282h210l-51 267h-9zM638 19l-3 -19h-231l3 19q40 0 53.5 26.5t5.5 64.5l-26 134h-239l-70 -127q-28 -50 -28 -64q0 -34 62 -34l-3 -19h-220l3 19q80 0 138 101l334 583h30l116 -593q6 -31 11 -46.5t21 -30t43 -14.5zM601 844q0 -25 -28 -40l-125 -71h-32l115 115
q22 22 43 22q12 0 19.5 -7.5t7.5 -18.5z" />
    <glyph glyph-name="Acircumflex" unicode="&#xc2;" horiz-adv-x="713" 
d="M222 282h210l-51 267h-9zM638 19l-3 -19h-231l3 19q40 0 53.5 26.5t5.5 64.5l-26 134h-239l-70 -127q-28 -50 -28 -64q0 -34 62 -34l-3 -19h-220l3 19q80 0 138 101l334 583h30l116 -593q6 -31 11 -46.5t21 -30t43 -14.5zM566 746q5 -5 -0.5 -11t-12.5 -2q-8 6 -98 66h-3
l-124 -66q-8 -4 -11.5 2t2.5 11q15 13 142 122h11z" />
    <glyph glyph-name="Atilde" unicode="&#xc3;" horiz-adv-x="713" 
d="M222 282h210l-51 267h-9zM638 19l-3 -19h-231l3 19q40 0 53.5 26.5t5.5 64.5l-26 134h-239l-70 -127q-28 -50 -28 -64q0 -34 62 -34l-3 -19h-220l3 19q80 0 138 101l334 583h30l116 -593q6 -31 11 -46.5t21 -30t43 -14.5zM567 823h31q-30 -85 -96 -85q-16 0 -66 12.5
t-68 12.5q-30 0 -49 -29h-30q31 85 96 85q16 0 65.5 -12.5t67.5 -12.5q30 0 49 29z" />
    <glyph glyph-name="Adieresis" unicode="&#xc4;" horiz-adv-x="713" 
d="M222 282h210l-51 267h-9zM638 19l-3 -19h-231l3 19q40 0 53.5 26.5t5.5 64.5l-26 134h-239l-70 -127q-28 -50 -28 -64q0 -34 62 -34l-3 -19h-220l3 19q80 0 138 101l334 583h30l116 -593q6 -31 11 -46.5t21 -30t43 -14.5zM395 789q0 -23 -16.5 -39.5t-39.5 -16.5
t-40 16.5t-17 39.5t17 39.5t40 16.5t39.5 -16.5t16.5 -39.5zM584 789q0 -23 -17 -39.5t-40 -16.5t-39.5 16.5t-16.5 39.5t16.5 39.5t39.5 16.5t40 -16.5t17 -39.5z" />
    <glyph glyph-name="Aring" unicode="&#xc5;" horiz-adv-x="713" 
d="M222 282h210l-51 267h-9zM638 19l-3 -19h-231l3 19q40 0 53.5 26.5t5.5 64.5l-26 134h-239l-70 -127q-28 -50 -28 -64q0 -34 62 -34l-3 -19h-220l3 19q80 0 138 101l334 583h30l116 -593q6 -31 11 -46.5t21 -30t43 -14.5zM499 836q0 23 -16.5 39.5t-39.5 16.5
t-39.5 -16.5t-16.5 -39.5t16.5 -39.5t39.5 -16.5t39.5 16.5t16.5 39.5zM546 836q0 -43 -30 -73t-73 -30t-73 30t-30 73t30 73t73 30t73 -30t30 -73z" />
    <glyph glyph-name="AE" unicode="&#xc6;" horiz-adv-x="985" 
d="M519 282l46 252h-3l-235 -252h192zM510 696h483l-33 -170h-18q-17 86 -40.5 109t-94.5 23h-37.5t-29 -1.5t-25.5 -4.5t-17 -9t-14 -15.5t-7 -22.5l-43 -220h83q36 0 68 25.5t40 68.5h18l-43 -225h-18q8 43 -14.5 68.5t-57.5 25.5h-83l-50 -258q-5 -25 6 -36.5t28.5 -13.5
t63.5 -2h12q81 0 118.5 26t90.5 114h19l-35 -178h-506l4 19q42 0 69.5 19t34.5 52l30 154h-220l-118 -127q-45 -47 -45 -72q0 -26 51 -26l-4 -19h-234l4 19q72 0 169 101l468 489q5 32 -15.5 50t-61.5 18z" />
    <glyph glyph-name="Ccedilla" unicode="&#xc7;" horiz-adv-x="620" 
d="M398 -116q0 -44 -39 -72t-93 -28q-51 0 -86 20q-9 5 -10.5 10.5t4.5 8t18 0.5q51 -9 58 -9q38 0 60 17.5t22 44.5q0 41 -61 41h-52l41 71q-95 12 -155 87t-60 202q0 180 112.5 308t258.5 128q79 0 152 -46q10 3 21 10.5t17 14.5l5 6h19l-43 -218h-19q-11 84 -48 139.5
t-106 55.5q-110 0 -188 -117t-78 -275q0 -117 44 -187.5t125 -70.5q17 0 32 2.5t30.5 10.5t26 13t25 20t21.5 21t22 26t19 25t20.5 28.5t18.5 26.5h19l-39 -197h-19q-9 28 -33 39q-3 -1 -20 -10.5t-27.5 -14t-29 -12t-38 -11.5t-39.5 -5l-18 -34h20q46 0 68 -19t22 -50z" />
    <glyph glyph-name="Egrave" unicode="&#xc8;" horiz-adv-x="576" 
d="M101 696h483l-33 -170h-18q-17 86 -40.5 109t-94.5 23q-32 0 -44.5 -0.5t-32.5 -3t-27.5 -7.5t-15.5 -15.5t-11 -26.5l-43 -220h84q36 0 68 25.5t40 68.5h18l-43 -225h-18q8 43 -14.5 68.5t-57.5 25.5h-84l-50 -258q-4 -19 -1 -30t19 -15.5t30.5 -5.5t50.5 -1h12
q81 0 118.5 26t90.5 114h19l-35 -178h-506l4 19q42 0 69.5 19t34.5 52l100 515q7 34 -13 53t-63 19zM281 848l115 -115h-32l-125 71q-28 15 -28 40q0 11 7.5 18.5t19.5 7.5q21 0 43 -22z" />
    <glyph glyph-name="Eacute" unicode="&#xc9;" horiz-adv-x="576" 
d="M101 696h483l-33 -170h-18q-17 86 -40.5 109t-94.5 23q-32 0 -44.5 -0.5t-32.5 -3t-27.5 -7.5t-15.5 -15.5t-11 -26.5l-43 -220h84q36 0 68 25.5t40 68.5h18l-43 -225h-18q8 43 -14.5 68.5t-57.5 25.5h-84l-50 -258q-4 -19 -1 -30t19 -15.5t30.5 -5.5t50.5 -1h12
q81 0 118.5 26t90.5 114h19l-35 -178h-506l4 19q42 0 69.5 19t34.5 52l100 515q7 34 -13 53t-63 19zM499 844q0 -25 -28 -40l-125 -71h-32l115 115q22 22 43 22q12 0 19.5 -7.5t7.5 -18.5z" />
    <glyph glyph-name="Ecircumflex" unicode="&#xca;" horiz-adv-x="576" 
d="M101 696h483l-33 -170h-18q-17 86 -40.5 109t-94.5 23q-32 0 -44.5 -0.5t-32.5 -3t-27.5 -7.5t-15.5 -15.5t-11 -26.5l-43 -220h84q36 0 68 25.5t40 68.5h18l-43 -225h-18q8 43 -14.5 68.5t-57.5 25.5h-84l-50 -258q-4 -19 -1 -30t19 -15.5t30.5 -5.5t50.5 -1h12
q81 0 118.5 26t90.5 114h19l-35 -178h-506l4 19q42 0 69.5 19t34.5 52l100 515q7 34 -13 53t-63 19zM493 746q5 -5 -0.5 -11t-12.5 -2q-8 6 -98 66h-3l-124 -66q-8 -4 -11.5 2t2.5 11q15 13 142 122h11z" />
    <glyph glyph-name="Edieresis" unicode="&#xcb;" horiz-adv-x="576" 
d="M101 696h483l-33 -170h-18q-17 86 -40.5 109t-94.5 23q-32 0 -44.5 -0.5t-32.5 -3t-27.5 -7.5t-15.5 -15.5t-11 -26.5l-43 -220h84q36 0 68 25.5t40 68.5h18l-43 -225h-18q8 43 -14.5 68.5t-57.5 25.5h-84l-50 -258q-4 -19 -1 -30t19 -15.5t30.5 -5.5t50.5 -1h12
q81 0 118.5 26t90.5 114h19l-35 -178h-506l4 19q42 0 69.5 19t34.5 52l100 515q7 34 -13 53t-63 19zM316 789q0 -23 -16.5 -39.5t-39.5 -16.5t-40 16.5t-17 39.5t17 39.5t40 16.5t39.5 -16.5t16.5 -39.5zM505 789q0 -23 -17 -39.5t-40 -16.5t-39.5 16.5t-16.5 39.5
t16.5 39.5t39.5 16.5t40 -16.5t17 -39.5z" />
    <glyph glyph-name="Igrave" unicode="&#xcc;" horiz-adv-x="340" 
d="M101 696h274l-4 -19q-43 0 -70 -19t-34 -53l-100 -515q-7 -33 13 -52t63 -19l-4 -19h-274l4 19q42 0 69.5 19t34.5 52l100 515q7 34 -13 53t-63 19zM151 848l115 -115h-32l-125 71q-28 15 -28 40q0 11 7.5 18.5t19.5 7.5q21 0 43 -22z" />
    <glyph glyph-name="Iacute" unicode="&#xcd;" horiz-adv-x="340" 
d="M101 696h274l-4 -19q-43 0 -70 -19t-34 -53l-100 -515q-7 -33 13 -52t63 -19l-4 -19h-274l4 19q42 0 69.5 19t34.5 52l100 515q7 34 -13 53t-63 19zM394 844q0 -25 -28 -40l-125 -71h-32l115 115q22 22 43 22q12 0 19.5 -7.5t7.5 -18.5z" />
    <glyph glyph-name="Icircumflex" unicode="&#xce;" horiz-adv-x="340" 
d="M101 696h274l-4 -19q-43 0 -70 -19t-34 -53l-100 -515q-7 -33 13 -52t63 -19l-4 -19h-274l4 19q42 0 69.5 19t34.5 52l100 515q7 34 -13 53t-63 19zM372 746q5 -5 -0.5 -11t-12.5 -2q-8 6 -98 66h-3l-124 -66q-8 -4 -11.5 2t2.5 11q15 13 142 122h11z" />
    <glyph glyph-name="Idieresis" unicode="&#xcf;" horiz-adv-x="340" 
d="M101 696h274l-4 -19q-43 0 -70 -19t-34 -53l-100 -515q-7 -33 13 -52t63 -19l-4 -19h-274l4 19q42 0 69.5 19t34.5 52l100 515q7 34 -13 53t-63 19zM205 789q0 -23 -16.5 -39.5t-39.5 -16.5t-40 16.5t-17 39.5t17 39.5t40 16.5t39.5 -16.5t16.5 -39.5zM394 789
q0 -23 -17 -39.5t-40 -16.5t-39.5 16.5t-16.5 39.5t16.5 39.5t39.5 16.5t40 -16.5t17 -39.5z" />
    <glyph glyph-name="Eth" unicode="&#xd0;" horiz-adv-x="698" 
d="M551 453q0 96 -48 150.5t-148 54.5h-11q-36 0 -53.5 -10.5t-23.5 -42.5l-46 -238h153l-8 -38h-153l-46 -239q-6 -32 7.5 -42t49.5 -10h15q82 0 144.5 37t97.5 98.5t52.5 132t17.5 147.5zM654 457q0 -130 -49 -232.5t-147 -163.5t-231 -61h-262l4 19q42 0 69.5 19t34.5 52
l46 239h-52l8 38h52l46 238q7 34 -13 53t-63 19l4 19h271q138 0 210 -60t72 -179z" />
    <glyph glyph-name="Ntilde" unicode="&#xd1;" horiz-adv-x="765" 
d="M581 696h219l-4 -19q-43 0 -70.5 -19t-34.5 -53l-118 -605h-33l-325 587h-4l-100 -497q-7 -33 13.5 -52t63.5 -19l-4 -19h-219l4 19q43 0 70.5 19t34.5 52l100 515q7 34 -13.5 53t-63.5 19l4 19h157l301 -548h4l90 457q7 34 -13 53t-63 19zM601 823h31q-30 -85 -96 -85
q-16 0 -66 12.5t-68 12.5q-30 0 -49 -29h-30q31 85 96 85q16 0 65.5 -12.5t67.5 -12.5q30 0 49 29z" />
    <glyph glyph-name="Ograve" unicode="&#xd2;" horiz-adv-x="709" 
d="M561 467q0 92 -34.5 149t-108.5 57q-67 0 -121 -46.5t-85 -117t-47.5 -144t-16.5 -136.5q0 -92 35 -149t109 -57q54 0 100 31t76.5 80t52 109t31 117.5t9.5 106.5zM664 456q0 -79 -27.5 -162t-75 -152t-121 -113t-156.5 -44q-117 0 -178 68t-61 187q0 79 27.5 162
t75.5 152t121.5 113t156.5 44q117 0 177.5 -68t60.5 -187zM335 848l115 -115h-32l-125 71q-28 15 -28 40q0 11 7.5 18.5t19.5 7.5q21 0 43 -22z" />
    <glyph glyph-name="Oacute" unicode="&#xd3;" horiz-adv-x="709" 
d="M561 467q0 92 -34.5 149t-108.5 57q-67 0 -121 -46.5t-85 -117t-47.5 -144t-16.5 -136.5q0 -92 35 -149t109 -57q54 0 100 31t76.5 80t52 109t31 117.5t9.5 106.5zM664 456q0 -79 -27.5 -162t-75 -152t-121 -113t-156.5 -44q-117 0 -178 68t-61 187q0 79 27.5 162
t75.5 152t121.5 113t156.5 44q117 0 177.5 -68t60.5 -187zM595 844q0 -25 -28 -40l-125 -71h-32l115 115q22 22 43 22q12 0 19.5 -7.5t7.5 -18.5z" />
    <glyph glyph-name="Ocircumflex" unicode="&#xd4;" horiz-adv-x="709" 
d="M561 467q0 92 -34.5 149t-108.5 57q-67 0 -121 -46.5t-85 -117t-47.5 -144t-16.5 -136.5q0 -92 35 -149t109 -57q54 0 100 31t76.5 80t52 109t31 117.5t9.5 106.5zM664 456q0 -79 -27.5 -162t-75 -152t-121 -113t-156.5 -44q-117 0 -178 68t-61 187q0 79 27.5 162
t75.5 152t121.5 113t156.5 44q117 0 177.5 -68t60.5 -187zM562 746q5 -5 -0.5 -11t-12.5 -2q-8 6 -98 66h-3l-124 -66q-8 -4 -11.5 2t2.5 11q15 13 142 122h11z" />
    <glyph glyph-name="Otilde" unicode="&#xd5;" horiz-adv-x="709" 
d="M561 467q0 92 -34.5 149t-108.5 57q-67 0 -121 -46.5t-85 -117t-47.5 -144t-16.5 -136.5q0 -92 35 -149t109 -57q54 0 100 31t76.5 80t52 109t31 117.5t9.5 106.5zM664 456q0 -79 -27.5 -162t-75 -152t-121 -113t-156.5 -44q-117 0 -178 68t-61 187q0 79 27.5 162
t75.5 152t121.5 113t156.5 44q117 0 177.5 -68t60.5 -187zM573 823h31q-30 -85 -96 -85q-16 0 -66 12.5t-68 12.5q-30 0 -49 -29h-30q31 85 96 85q16 0 65.5 -12.5t67.5 -12.5q30 0 49 29z" />
    <glyph glyph-name="Odieresis" unicode="&#xd6;" horiz-adv-x="709" 
d="M561 467q0 92 -34.5 149t-108.5 57q-67 0 -121 -46.5t-85 -117t-47.5 -144t-16.5 -136.5q0 -92 35 -149t109 -57q54 0 100 31t76.5 80t52 109t31 117.5t9.5 106.5zM664 456q0 -79 -27.5 -162t-75 -152t-121 -113t-156.5 -44q-117 0 -178 68t-61 187q0 79 27.5 162
t75.5 152t121.5 113t156.5 44q117 0 177.5 -68t60.5 -187zM397 789q0 -23 -16.5 -39.5t-39.5 -16.5t-40 16.5t-17 39.5t17 39.5t40 16.5t39.5 -16.5t16.5 -39.5zM586 789q0 -23 -17 -39.5t-40 -16.5t-39.5 16.5t-16.5 39.5t16.5 39.5t39.5 16.5t40 -16.5t17 -39.5z" />
    <glyph glyph-name="multiply" unicode="&#xd7;" horiz-adv-x="500" 
d="M363 401l33 -32l-130 -129l127 -127l-33 -33l-126 127l-129 -129l-34 31l130 131l-132 132l33 32l132 -132z" />
    <glyph glyph-name="Oslash" unicode="&#xd8;" horiz-adv-x="709" 
d="M561 467q0 29 -3 56l-398 -389q30 -111 132 -111q54 0 100 31t76.5 80t52 109t31 117.5t9.5 106.5zM152 173l398 388q-31 112 -132 112q-67 0 -121 -46.5t-85 -117t-47.5 -144t-16.5 -136.5q0 -32 4 -56zM689 696h46l-101 -98q30 -58 30 -142q0 -79 -27.5 -162t-75 -152
t-121 -113t-156.5 -44q-129 0 -191 84l-70 -69h-49l101 98q-30 58 -30 142q0 79 27.5 162t75.5 152t121.5 113t156.5 44q130 0 191 -85z" />
    <glyph glyph-name="Ugrave" unicode="&#xd9;" horiz-adv-x="707" 
d="M534 696h219l-3 -18q-43 0 -70.5 -19.5t-34.5 -53.5l-70 -363q-26 -133 -103 -195t-188 -62q-197 0 -197 183q0 38 9 85l68 352q7 34 -13 53.5t-62 19.5l3 18h274l-3 -18q-43 0 -70.5 -19.5t-34.5 -53.5l-73 -378q-7 -40 -7 -62q0 -71 38 -106.5t103 -35.5q79 0 138 53.5
t80 165.5l70 363q7 34 -13 53.5t-63 19.5zM348 848l115 -115h-32l-125 71q-28 15 -28 40q0 11 7.5 18.5t19.5 7.5q21 0 43 -22z" />
    <glyph glyph-name="Uacute" unicode="&#xda;" horiz-adv-x="707" 
d="M534 696h219l-3 -18q-43 0 -70.5 -19.5t-34.5 -53.5l-70 -363q-26 -133 -103 -195t-188 -62q-197 0 -197 183q0 38 9 85l68 352q7 34 -13 53.5t-62 19.5l3 18h274l-3 -18q-43 0 -70.5 -19.5t-34.5 -53.5l-73 -378q-7 -40 -7 -62q0 -71 38 -106.5t103 -35.5q79 0 138 53.5
t80 165.5l70 363q7 34 -13 53.5t-63 19.5zM610 844q0 -25 -28 -40l-125 -71h-32l115 115q22 22 43 22q12 0 19.5 -7.5t7.5 -18.5z" />
    <glyph glyph-name="Ucircumflex" unicode="&#xdb;" horiz-adv-x="707" 
d="M534 696h219l-3 -18q-43 0 -70.5 -19.5t-34.5 -53.5l-70 -363q-26 -133 -103 -195t-188 -62q-197 0 -197 183q0 38 9 85l68 352q7 34 -13 53.5t-62 19.5l3 18h274l-3 -18q-43 0 -70.5 -19.5t-34.5 -53.5l-73 -378q-7 -40 -7 -62q0 -71 38 -106.5t103 -35.5q79 0 138 53.5
t80 165.5l70 363q7 34 -13 53.5t-63 19.5zM581 746q5 -5 -0.5 -11t-12.5 -2q-8 6 -98 66h-3l-124 -66q-8 -4 -11.5 2t2.5 11q15 13 142 122h11z" />
    <glyph glyph-name="Udieresis" unicode="&#xdc;" horiz-adv-x="707" 
d="M534 696h219l-3 -18q-43 0 -70.5 -19.5t-34.5 -53.5l-70 -363q-26 -133 -103 -195t-188 -62q-197 0 -197 183q0 38 9 85l68 352q7 34 -13 53.5t-62 19.5l3 18h274l-3 -18q-43 0 -70.5 -19.5t-34.5 -53.5l-73 -378q-7 -40 -7 -62q0 -71 38 -106.5t103 -35.5q79 0 138 53.5
t80 165.5l70 363q7 34 -13 53.5t-63 19.5zM420 789q0 -23 -16.5 -39.5t-39.5 -16.5t-40 16.5t-17 39.5t17 39.5t40 16.5t39.5 -16.5t16.5 -39.5zM609 789q0 -23 -17 -39.5t-40 -16.5t-39.5 16.5t-16.5 39.5t16.5 39.5t39.5 16.5t40 -16.5t17 -39.5z" />
    <glyph glyph-name="Yacute" unicode="&#xdd;" horiz-adv-x="669" 
d="M519 696h209l-4 -18q-38 0 -61 -19.5t-62 -72.5l-224 -303l-37 -193q-6 -33 14 -52t62 -19l-4 -19h-274l4 19q42 0 69.5 19t34.5 52l33 171l-112 325q-18 52 -36.5 72t-57.5 20l4 18h262l-4 -18q-76 0 -76 -50q0 -15 8 -41l91 -263h2l184 262q26 37 26 60q0 32 -55 32z
M587 844q0 -25 -28 -40l-125 -71h-32l115 115q22 22 43 22q12 0 19.5 -7.5t7.5 -18.5z" />
    <glyph glyph-name="Thorn" unicode="&#xde;" horiz-adv-x="610" 
d="M457 391q0 58 -38 88.5t-108 30.5h-63l-62 -324h63q93 0 150.5 56.5t57.5 148.5zM560 387q0 -110 -87.5 -173.5t-202.5 -63.5h-91l-12 -60q-7 -33 13.5 -52t63.5 -19l-4 -19h-275l4 19q89 0 104 71l100 515q7 34 -13 53.5t-63 19.5l4 18h274l-4 -19q-43 0 -70 -19
t-34 -53l-12 -59h91q100 0 157 -43t57 -116z" />
    <glyph glyph-name="germandbls" unicode="&#xdf;" horiz-adv-x="554" 
d="M512 580q0 -63 -32.5 -107.5t-80.5 -67.5v-4q79 -39 79 -147q0 -102 -86 -181.5t-190 -82.5q-20 -1 -19 9q1 11 19 18l6 2q76 13 129.5 77.5t53.5 141.5q0 142 -154 131l8 37q78 -5 132.5 42t54.5 128q0 47 -22.5 80.5t-64.5 33.5q-52 0 -85.5 -50t-55.5 -159l-96 -483
q-23 -119 -59.5 -176t-110.5 -57q-39 0 -61.5 20t-22.5 46q0 24 15.5 38t34.5 14q17 0 29.5 -10.5t12.5 -30.5q0 -7 -2.5 -16.5t-2.5 -12.5q0 -18 14 -18q27 0 40 62q9 36 30 141l90 457q30 150 92 209.5t147 59.5q77 0 117.5 -44.5t40.5 -99.5z" />
    <glyph glyph-name="agrave" unicode="&#xe0;" horiz-adv-x="544" 
d="M309 148l48 251q12 62 -49 62q-76 0 -143.5 -96t-67.5 -229q0 -45 19 -72t52 -27q42 0 88.5 38.5t52.5 72.5zM512 76q0 -9 -14.5 -28t-45.5 -38t-65 -19q-89 0 -89 82v5h-4q-84 -87 -161 -87q-57 0 -90 40t-33 104q0 142 101.5 248t235.5 106q51 0 77.5 -21.5t19.5 -58.5
l-61 -316q-3 -15 -3 -26q0 -40 40 -40q31 0 74 48q4 5 8.5 6.5t7 0t2.5 -5.5zM253 649l115 -115h-32l-125 71q-28 15 -28 40q0 11 7.5 18.5t19.5 7.5q21 0 43 -22z" />
    <glyph glyph-name="aacute" unicode="&#xe1;" horiz-adv-x="544" 
d="M309 148l48 251q12 62 -49 62q-76 0 -143.5 -96t-67.5 -229q0 -45 19 -72t52 -27q42 0 88.5 38.5t52.5 72.5zM512 76q0 -9 -14.5 -28t-45.5 -38t-65 -19q-89 0 -89 82v5h-4q-84 -87 -161 -87q-57 0 -90 40t-33 104q0 142 101.5 248t235.5 106q51 0 77.5 -21.5t19.5 -58.5
l-61 -316q-3 -15 -3 -26q0 -40 40 -40q31 0 74 48q4 5 8.5 6.5t7 0t2.5 -5.5zM479 645q0 -25 -28 -40l-125 -71h-32l115 115q22 22 43 22q12 0 19.5 -7.5t7.5 -18.5z" />
    <glyph glyph-name="acircumflex" unicode="&#xe2;" horiz-adv-x="544" 
d="M309 148l48 251q12 62 -49 62q-76 0 -143.5 -96t-67.5 -229q0 -45 19 -72t52 -27q42 0 88.5 38.5t52.5 72.5zM512 76q0 -9 -14.5 -28t-45.5 -38t-65 -19q-89 0 -89 82v5h-4q-84 -87 -161 -87q-57 0 -90 40t-33 104q0 142 101.5 248t235.5 106q51 0 77.5 -21.5t19.5 -58.5
l-61 -316q-3 -15 -3 -26q0 -40 40 -40q31 0 74 48q4 5 8.5 6.5t7 0t2.5 -5.5zM475 547q5 -5 -0.5 -11t-12.5 -2q-8 6 -98 66h-3l-124 -66q-8 -4 -11.5 2t2.5 11q15 13 142 122h11z" />
    <glyph glyph-name="atilde" unicode="&#xe3;" horiz-adv-x="544" 
d="M309 148l48 251q12 62 -49 62q-76 0 -143.5 -96t-67.5 -229q0 -45 19 -72t52 -27q42 0 88.5 38.5t52.5 72.5zM512 76q0 -9 -14.5 -28t-45.5 -38t-65 -19q-89 0 -89 82v5h-4q-84 -87 -161 -87q-57 0 -90 40t-33 104q0 142 101.5 248t235.5 106q51 0 77.5 -21.5t19.5 -58.5
l-61 -316q-3 -15 -3 -26q0 -40 40 -40q31 0 74 48q4 5 8.5 6.5t7 0t2.5 -5.5zM475 624h31q-30 -85 -96 -85q-16 0 -66 12.5t-68 12.5q-30 0 -49 -29h-30q31 85 96 85q16 0 65.5 -12.5t67.5 -12.5q30 0 49 29z" />
    <glyph glyph-name="adieresis" unicode="&#xe4;" horiz-adv-x="544" 
d="M309 148l48 251q12 62 -49 62q-76 0 -143.5 -96t-67.5 -229q0 -45 19 -72t52 -27q42 0 88.5 38.5t52.5 72.5zM512 76q0 -9 -14.5 -28t-45.5 -38t-65 -19q-89 0 -89 82v5h-4q-84 -87 -161 -87q-57 0 -90 40t-33 104q0 142 101.5 248t235.5 106q51 0 77.5 -21.5t19.5 -58.5
l-61 -316q-3 -15 -3 -26q0 -40 40 -40q31 0 74 48q4 5 8.5 6.5t7 0t2.5 -5.5zM305 590q0 -23 -16.5 -39.5t-39.5 -16.5t-40 16.5t-17 39.5t17 39.5t40 16.5t39.5 -16.5t16.5 -39.5zM494 590q0 -23 -17 -39.5t-40 -16.5t-39.5 16.5t-16.5 39.5t16.5 39.5t39.5 16.5t40 -16.5
t17 -39.5z" />
    <glyph glyph-name="aring" unicode="&#xe5;" horiz-adv-x="544" 
d="M309 148l48 251q12 62 -49 62q-76 0 -143.5 -96t-67.5 -229q0 -45 19 -72t52 -27q42 0 88.5 38.5t52.5 72.5zM512 76q0 -9 -14.5 -28t-45.5 -38t-65 -19q-89 0 -89 82v5h-4q-84 -87 -161 -87q-57 0 -90 40t-33 104q0 142 101.5 248t235.5 106q51 0 77.5 -21.5t19.5 -58.5
l-61 -316q-3 -15 -3 -26q0 -40 40 -40q31 0 74 48q4 5 8.5 6.5t7 0t2.5 -5.5zM411 637q0 23 -16.5 39.5t-39.5 16.5t-39.5 -16.5t-16.5 -39.5t16.5 -39.5t39.5 -16.5t39.5 16.5t16.5 39.5zM458 637q0 -43 -30 -73t-73 -30t-73 30t-30 73t30 73t73 30t73 -30t30 -73z" />
    <glyph glyph-name="ae" unicode="&#xe6;" horiz-adv-x="773" 
d="M310 148l48 251q12 62 -50 62q-76 0 -143.5 -96t-67.5 -229q0 -45 19 -72t52 -27q42 0 89 38.5t53 72.5zM647 401q0 22 -15 38t-43 16q-53 0 -101 -53t-69 -133q118 9 173 49.5t55 82.5zM733 394q0 -129 -320 -152q-6 -32 -6 -65q0 -76 33 -112.5t83 -36.5q72 0 149 63
q14 11 18 3v-5q-2 -6 -4 -8q-31 -37 -82 -63.5t-105 -26.5q-65 0 -111.5 32t-61.5 86h-3q-23 -40 -77 -79t-113 -39q-57 0 -90 40t-33 104q0 142 101.5 248t235.5 106q43 0 69.5 -16t29.5 -43h3q28 26 73 43t83 17q55 0 91.5 -28.5t36.5 -67.5z" />
    <glyph glyph-name="ccedilla" unicode="&#xe7;" horiz-adv-x="454" 
d="M289 -116q0 -44 -39 -72t-93 -28q-51 0 -86 20q-9 5 -10.5 10.5t4.5 8t18 0.5q51 -9 58 -9q38 0 60 17.5t22 44.5q0 41 -61 41h-52l45 77q-71 10 -108 58t-37 118q0 133 82 226.5t199 93.5q63 0 98 -31t35 -74q0 -26 -14.5 -45t-39.5 -19q-20 0 -33 13.5t-13 31.5
q0 13 8 32t8 27q0 14 -13.5 23t-39.5 9q-57 0 -102.5 -47.5t-66.5 -108.5t-21 -117q0 -74 31.5 -115t90.5 -41q65 0 139 63q5 5 9.5 5t6.5 -3t1 -7q0 -2 -3 -5q-32 -39 -78.5 -63.5t-93.5 -26.5l-21 -38h20q46 0 68 -19t22 -50z" />
    <glyph glyph-name="egrave" unicode="&#xe8;" horiz-adv-x="466" 
d="M340 401q0 22 -15 38t-43 16q-54 0 -103 -53.5t-70 -132.5q118 9 174.5 49.5t56.5 82.5zM426 394q0 -129 -323 -152q-6 -32 -6 -65q0 -76 34 -112.5t85 -36.5q72 0 149 63q14 11 18 3v-5q-2 -6 -4 -8q-31 -37 -82 -63.5t-105 -26.5q-81 0 -131.5 47.5t-50.5 128.5
q0 135 91 229t197 94q55 0 91.5 -28.5t36.5 -67.5zM214 649l115 -115h-32l-125 71q-28 15 -28 40q0 11 7.5 18.5t19.5 7.5q21 0 43 -22z" />
    <glyph glyph-name="eacute" unicode="&#xe9;" horiz-adv-x="466" 
d="M340 401q0 22 -15 38t-43 16q-54 0 -103 -53.5t-70 -132.5q118 9 174.5 49.5t56.5 82.5zM426 394q0 -129 -323 -152q-6 -32 -6 -65q0 -76 34 -112.5t85 -36.5q72 0 149 63q14 11 18 3v-5q-2 -6 -4 -8q-31 -37 -82 -63.5t-105 -26.5q-81 0 -131.5 47.5t-50.5 128.5
q0 135 91 229t197 94q55 0 91.5 -28.5t36.5 -67.5zM434 645q0 -25 -28 -40l-125 -71h-32l115 115q22 22 43 22q12 0 19.5 -7.5t7.5 -18.5z" />
    <glyph glyph-name="ecircumflex" unicode="&#xea;" horiz-adv-x="466" 
d="M340 401q0 22 -15 38t-43 16q-54 0 -103 -53.5t-70 -132.5q118 9 174.5 49.5t56.5 82.5zM426 394q0 -129 -323 -152q-6 -32 -6 -65q0 -76 34 -112.5t85 -36.5q72 0 149 63q14 11 18 3v-5q-2 -6 -4 -8q-31 -37 -82 -63.5t-105 -26.5q-81 0 -131.5 47.5t-50.5 128.5
q0 135 91 229t197 94q55 0 91.5 -28.5t36.5 -67.5zM437 547q5 -5 -0.5 -11t-12.5 -2q-8 6 -98 66h-3l-124 -66q-8 -4 -11.5 2t2.5 11q15 13 142 122h11z" />
    <glyph glyph-name="edieresis" unicode="&#xeb;" horiz-adv-x="466" 
d="M340 401q0 22 -15 38t-43 16q-54 0 -103 -53.5t-70 -132.5q118 9 174.5 49.5t56.5 82.5zM426 394q0 -129 -323 -152q-6 -32 -6 -65q0 -76 34 -112.5t85 -36.5q72 0 149 63q14 11 18 3v-5q-2 -6 -4 -8q-31 -37 -82 -63.5t-105 -26.5q-81 0 -131.5 47.5t-50.5 128.5
q0 135 91 229t197 94q55 0 91.5 -28.5t36.5 -67.5zM268 590q0 -23 -16.5 -39.5t-39.5 -16.5t-40 16.5t-17 39.5t17 39.5t40 16.5t39.5 -16.5t16.5 -39.5zM457 590q0 -23 -17 -39.5t-40 -16.5t-39.5 16.5t-16.5 39.5t16.5 39.5t39.5 16.5t40 -16.5t17 -39.5z" />
    <glyph glyph-name="igrave" unicode="&#xec;" horiz-adv-x="289" 
d="M257 76q0 -9 -14.5 -28t-45.5 -38t-65 -19q-89 0 -89 82q0 25 5 48l54 278q12 62 -48 62l3 18q39 10 83 10q55 0 55 -33q0 -11 -6 -47l-61 -316q-3 -15 -3 -26q0 -40 40 -40q32 0 75 48q4 5 8 6.5t6.5 0t2.5 -5.5zM97 649l115 -115h-32l-125 71q-28 15 -28 40
q0 11 7.5 18.5t19.5 7.5q21 0 43 -22z" />
    <glyph glyph-name="iacute" unicode="&#xed;" horiz-adv-x="289" 
d="M257 76q0 -9 -14.5 -28t-45.5 -38t-65 -19q-89 0 -89 82q0 25 5 48l54 278q12 62 -48 62l3 18q39 10 83 10q55 0 55 -33q0 -11 -6 -47l-61 -316q-3 -15 -3 -26q0 -40 40 -40q32 0 75 48q4 5 8 6.5t6.5 0t2.5 -5.5zM291 645q0 -25 -28 -40l-125 -71h-32l115 115
q22 22 43 22q12 0 19.5 -7.5t7.5 -18.5z" />
    <glyph glyph-name="icircumflex" unicode="&#xee;" horiz-adv-x="289" 
d="M261 76q0 -9 -14.5 -28t-45.5 -38t-65 -19q-89 0 -89 82q0 25 5 48l54 278q12 62 -48 62l3 18q39 10 83 10q55 0 55 -33q0 -11 -6 -47l-61 -316q-3 -15 -3 -26q0 -40 40 -40q32 0 75 48q4 5 8 6.5t6.5 0t2.5 -5.5zM277 547q5 -5 -0.5 -11t-12.5 -2q-8 6 -98 66h-3
l-124 -66q-8 -4 -11.5 2t2.5 11q15 13 142 122h11z" />
    <glyph glyph-name="idieresis" unicode="&#xef;" horiz-adv-x="289" 
d="M257 76q0 -9 -14.5 -28t-45.5 -38t-65 -19q-89 0 -89 82q0 25 5 48l54 278q12 62 -48 62l3 18q39 10 83 10q55 0 55 -33q0 -11 -6 -47l-61 -316q-3 -15 -3 -26q0 -40 40 -40q32 0 75 48q4 5 8 6.5t6.5 0t2.5 -5.5zM107 590q0 -23 -16.5 -39.5t-39.5 -16.5t-40 16.5
t-17 39.5t17 39.5t40 16.5t39.5 -16.5t16.5 -39.5zM296 590q0 -23 -17 -39.5t-40 -16.5t-39.5 16.5t-16.5 39.5t16.5 39.5t39.5 16.5t40 -16.5t17 -39.5z" />
    <glyph glyph-name="eth" unicode="&#xf0;" horiz-adv-x="509" 
d="M352 334q0 117 -82 117q-54 0 -94.5 -51t-59 -118.5t-19.5 -135.5q0 -56 17.5 -87t63.5 -31q49 0 89.5 45.5t62.5 115.5t22 145zM439 319q0 -55 -17 -111t-48.5 -105.5t-83 -80.5t-114.5 -31q-84 0 -125 44.5t-41 125.5q0 80 31 154.5t93 124t139 49.5q43 0 74 -18l2 2
q-30 110 -90 175l-65 -53l-24 29l61 51q-42 37 -92 60q-15 7 -7 18t24 4q60 -26 106 -57l66 55l23 -30l-58 -48q59 -48 91.5 -111t48.5 -153q6 -31 6 -94z" />
    <glyph glyph-name="ntilde" unicode="&#xf1;" 
d="M539 76q0 -9 -14.5 -28t-45.5 -38t-65 -19q-89 0 -89 82q0 25 5 48l42 216q4 24 4 35q0 70 -67 70q-43 0 -85 -35t-50 -75l-64 -332h-85l77 399q12 62 -48 62l3 18q39 10 83 10q55 0 55 -33q0 -6 -1.5 -17.5t-2.5 -20.5t-2 -9h1q71 80 158 80q43 0 78.5 -26t35.5 -84
q0 -19 -4 -38l-48 -248q-3 -15 -3 -26q0 -40 40 -40q31 0 74 48q4 5 8.5 6.5t7 0t2.5 -5.5zM440 624h31q-30 -85 -96 -85q-16 0 -66 12.5t-68 12.5q-30 0 -49 -29h-30q31 85 96 85q16 0 65.5 -12.5t67.5 -12.5q30 0 49 29z" />
    <glyph glyph-name="ograve" unicode="&#xf2;" horiz-adv-x="509" 
d="M352 334q0 117 -82 117q-54 0 -94.5 -51t-59 -118.5t-19.5 -135.5q0 -56 17.5 -87t63.5 -31q49 0 89.5 45.5t62.5 115.5t22 145zM439 319q0 -55 -17 -111t-48.5 -105.5t-83 -80.5t-114.5 -31q-84 0 -125 44.5t-41 125.5q0 80 31 154.5t93 124t139 49.5q83 0 124.5 -44.5
t41.5 -125.5zM206 649l115 -115h-32l-125 71q-28 15 -28 40q0 11 7.5 18.5t19.5 7.5q21 0 43 -22z" />
    <glyph glyph-name="oacute" unicode="&#xf3;" horiz-adv-x="509" 
d="M352 334q0 117 -82 117q-54 0 -94.5 -51t-59 -118.5t-19.5 -135.5q0 -56 17.5 -87t63.5 -31q49 0 89.5 45.5t62.5 115.5t22 145zM439 319q0 -55 -17 -111t-48.5 -105.5t-83 -80.5t-114.5 -31q-84 0 -125 44.5t-41 125.5q0 80 31 154.5t93 124t139 49.5q83 0 124.5 -44.5
t41.5 -125.5zM441 645q0 -25 -28 -40l-125 -71h-32l115 115q22 22 43 22q12 0 19.5 -7.5t7.5 -18.5z" />
    <glyph glyph-name="ocircumflex" unicode="&#xf4;" horiz-adv-x="509" 
d="M352 334q0 117 -82 117q-54 0 -94.5 -51t-59 -118.5t-19.5 -135.5q0 -56 17.5 -87t63.5 -31q49 0 89.5 45.5t62.5 115.5t22 145zM439 319q0 -55 -17 -111t-48.5 -105.5t-83 -80.5t-114.5 -31q-84 0 -125 44.5t-41 125.5q0 80 31 154.5t93 124t139 49.5q83 0 124.5 -44.5
t41.5 -125.5zM422 547q5 -5 -0.5 -11t-12.5 -2q-8 6 -98 66h-3l-124 -66q-8 -4 -11.5 2t2.5 11q15 13 142 122h11z" />
    <glyph glyph-name="otilde" unicode="&#xf5;" horiz-adv-x="509" 
d="M352 334q0 117 -82 117q-54 0 -94.5 -51t-59 -118.5t-19.5 -135.5q0 -56 17.5 -87t63.5 -31q49 0 89.5 45.5t62.5 115.5t22 145zM439 319q0 -55 -17 -111t-48.5 -105.5t-83 -80.5t-114.5 -31q-84 0 -125 44.5t-41 125.5q0 80 31 154.5t93 124t139 49.5q83 0 124.5 -44.5
t41.5 -125.5zM422 624h31q-30 -85 -96 -85q-16 0 -66 12.5t-68 12.5q-30 0 -49 -29h-30q31 85 96 85q16 0 65.5 -12.5t67.5 -12.5q30 0 49 29z" />
    <glyph glyph-name="odieresis" unicode="&#xf6;" horiz-adv-x="509" 
d="M352 334q0 117 -82 117q-54 0 -94.5 -51t-59 -118.5t-19.5 -135.5q0 -56 17.5 -87t63.5 -31q49 0 89.5 45.5t62.5 115.5t22 145zM439 319q0 -55 -17 -111t-48.5 -105.5t-83 -80.5t-114.5 -31q-84 0 -125 44.5t-41 125.5q0 80 31 154.5t93 124t139 49.5q83 0 124.5 -44.5
t41.5 -125.5zM262 590q0 -23 -16.5 -39.5t-39.5 -16.5t-40 16.5t-17 39.5t17 39.5t40 16.5t39.5 -16.5t16.5 -39.5zM451 590q0 -23 -17 -39.5t-40 -16.5t-39.5 16.5t-16.5 39.5t16.5 39.5t39.5 16.5t40 -16.5t17 -39.5z" />
    <glyph glyph-name="divide" unicode="&#xf7;" horiz-adv-x="500" 
d="M286 92q0 -23 -16.5 -39.5t-39.5 -16.5t-39.5 16.5t-16.5 39.5t16.5 40t39.5 17t39.5 -17t16.5 -40zM435 261v-47h-410v47h410zM286 385q0 -23 -16.5 -39.5t-39.5 -16.5t-39.5 16.5t-16.5 39.5t16.5 40t39.5 17t39.5 -17t16.5 -40z" />
    <glyph glyph-name="oslash" unicode="&#xf8;" horiz-adv-x="509" 
d="M352 334v9l-251 -248q13 -67 77 -67q49 0 89.5 45.5t62.5 115.5t22 145zM97 136l251 248q-15 67 -78 67q-54 0 -94.5 -51t-59 -118.5t-19.5 -135.5v-10zM443 479h46l-68 -68q18 -38 18 -92q0 -55 -17 -111t-48.5 -105.5t-83 -80.5t-114.5 -31q-88 0 -130 50l-41 -41h-45
l69 68q-19 38 -19 93q0 80 31 154.5t93 124t139 49.5q88 0 130 -50z" />
    <glyph glyph-name="ugrave" unicode="&#xf9;" 
d="M539 76q0 -6 -9.5 -19t-24.5 -28t-40 -26t-51 -11q-48 0 -70 22t-20 59h-3q-27 -35 -68.5 -58.5t-90.5 -23.5q-47 0 -80.5 27.5t-33.5 83.5q0 18 4 37l51 260q12 62 -48 62l3 18q39 10 83 10q55 0 55 -33q0 -11 -6 -47l-52 -266q-4 -24 -4 -35q0 -70 67 -70q43 0 85 35
t50 75l64 332h85l-75 -386q-3 -15 -3 -26q0 -40 40 -40q32 0 75 48q4 5 8 6t6.5 -0.5t2.5 -5.5zM212 649l115 -115h-32l-125 71q-28 15 -28 40q0 11 7.5 18.5t19.5 7.5q21 0 43 -22z" />
    <glyph glyph-name="uacute" unicode="&#xfa;" 
d="M539 76q0 -6 -9.5 -19t-24.5 -28t-40 -26t-51 -11q-48 0 -70 22t-20 59h-3q-27 -35 -68.5 -58.5t-90.5 -23.5q-47 0 -80.5 27.5t-33.5 83.5q0 18 4 37l51 260q12 62 -48 62l3 18q39 10 83 10q55 0 55 -33q0 -11 -6 -47l-52 -266q-4 -24 -4 -35q0 -70 67 -70q43 0 85 35
t50 75l64 332h85l-75 -386q-3 -15 -3 -26q0 -40 40 -40q32 0 75 48q4 5 8 6t6.5 -0.5t2.5 -5.5zM463 645q0 -25 -28 -40l-125 -71h-32l115 115q22 22 43 22q12 0 19.5 -7.5t7.5 -18.5z" />
    <glyph glyph-name="ucircumflex" unicode="&#xfb;" 
d="M539 76q0 -6 -9.5 -19t-24.5 -28t-40 -26t-51 -11q-48 0 -70 22t-20 59h-3q-27 -35 -68.5 -58.5t-90.5 -23.5q-47 0 -80.5 27.5t-33.5 83.5q0 18 4 37l51 260q12 62 -48 62l3 18q39 10 83 10q55 0 55 -33q0 -11 -6 -47l-52 -266q-4 -24 -4 -35q0 -70 67 -70q43 0 85 35
t50 75l64 332h85l-75 -386q-3 -15 -3 -26q0 -40 40 -40q32 0 75 48q4 5 8 6t6.5 -0.5t2.5 -5.5zM429 547q5 -5 -0.5 -11t-12.5 -2q-8 6 -98 66h-3l-124 -66q-8 -4 -11.5 2t2.5 11q15 13 142 122h11z" />
    <glyph glyph-name="udieresis" unicode="&#xfc;" 
d="M539 76q0 -6 -9.5 -19t-24.5 -28t-40 -26t-51 -11q-48 0 -70 22t-20 59h-3q-27 -35 -68.5 -58.5t-90.5 -23.5q-47 0 -80.5 27.5t-33.5 83.5q0 18 4 37l51 260q12 62 -48 62l3 18q39 10 83 10q55 0 55 -33q0 -11 -6 -47l-52 -266q-4 -24 -4 -35q0 -70 67 -70q43 0 85 35
t50 75l64 332h85l-75 -386q-3 -15 -3 -26q0 -40 40 -40q32 0 75 48q4 5 8 6t6.5 -0.5t2.5 -5.5zM262 590q0 -23 -16.5 -39.5t-39.5 -16.5t-40 16.5t-17 39.5t17 39.5t40 16.5t39.5 -16.5t16.5 -39.5zM451 590q0 -23 -17 -39.5t-40 -16.5t-39.5 16.5t-16.5 39.5t16.5 39.5
t39.5 16.5t40 -16.5t17 -39.5z" />
    <glyph glyph-name="yacute" unicode="&#xfd;" horiz-adv-x="446" 
d="M396 391q0 -52 -26 -115.5t-73 -152.5l-77 -146q-57 -109 -104.5 -160.5t-96.5 -51.5q-29 0 -49 18.5t-20 48.5q0 21 14.5 36t34.5 15q17 0 26.5 -8.5t13 -19t10 -19t17.5 -8.5q46 0 119 148l2 4l-144 430q-9 28 -21.5 39.5t-37.5 11.5l4 18q34 10 58 10q60 0 73 -43
l120 -368l29 54q26 49 46 107t20 87q0 36 -29 59t-29 55q0 20 15 34.5t37 14.5q33 0 50.5 -26t17.5 -72zM381 645q0 -25 -28 -40l-125 -71h-32l115 115q22 22 43 22q12 0 19.5 -7.5t7.5 -18.5z" />
    <glyph glyph-name="thorn" unicode="&#xfe;" horiz-adv-x="562" 
d="M405 342q0 51 -19.5 80t-56.5 29q-66 0 -123 -83t-57 -207q0 -70 27.5 -101.5t64.5 -31.5q41 0 74.5 33.5t52 84t28 101.5t9.5 95zM492 331q0 -80 -27 -156t-85 -130.5t-134 -54.5q-42 0 -76 23t-44 53h-3l-47 -244q-4 -20 7.5 -25t47.5 -5l-4 -19h-207l4 19q37 0 50 5.5
t17 24.5l159 820q12 62 -48 62l3 18q39 10 83 10q55 0 55 -33q0 -11 -6 -47l-49 -253h3q67 90 167 90q68 0 101 -43.5t33 -114.5z" />
    <glyph glyph-name="ydieresis" unicode="&#xff;" horiz-adv-x="446" 
d="M396 391q0 -52 -26 -115.5t-73 -152.5l-77 -146q-57 -109 -104.5 -160.5t-96.5 -51.5q-29 0 -49 18.5t-20 48.5q0 21 14.5 36t34.5 15q17 0 26.5 -8.5t13 -19t10 -19t17.5 -8.5q46 0 119 148l2 4l-144 430q-9 28 -21.5 39.5t-37.5 11.5l4 18q34 10 58 10q60 0 73 -43
l120 -368l29 54q26 49 46 107t20 87q0 36 -29 59t-29 55q0 20 15 34.5t37 14.5q33 0 50.5 -26t17.5 -72zM168 590q0 -23 -16.5 -39.5t-39.5 -16.5t-40 16.5t-17 39.5t17 39.5t40 16.5t39.5 -16.5t16.5 -39.5zM357 590q0 -23 -17 -39.5t-40 -16.5t-39.5 16.5t-16.5 39.5
t16.5 39.5t39.5 16.5t40 -16.5t17 -39.5z" />
    <glyph glyph-name="Amacron" unicode="&#x100;" horiz-adv-x="713" 
d="M222 282h210l-51 267h-9zM638 19l-3 -19h-231l3 19q40 0 53.5 26.5t5.5 64.5l-26 134h-239l-70 -127q-28 -50 -28 -64q0 -34 62 -34l-3 -19h-220l3 19q80 0 138 101l334 583h30l116 -593q6 -31 11 -46.5t21 -30t43 -14.5zM557 807v-66h-244v66h244z" />
    <glyph glyph-name="amacron" unicode="&#x101;" horiz-adv-x="544" 
d="M309 148l48 251q12 62 -49 62q-76 0 -143.5 -96t-67.5 -229q0 -45 19 -72t52 -27q42 0 88.5 38.5t52.5 72.5zM512 76q0 -9 -14.5 -28t-45.5 -38t-65 -19q-89 0 -89 82v5h-4q-84 -87 -161 -87q-57 0 -90 40t-33 104q0 142 101.5 248t235.5 106q51 0 77.5 -21.5t19.5 -58.5
l-61 -316q-3 -15 -3 -26q0 -40 40 -40q31 0 74 48q4 5 8.5 6.5t7 0t2.5 -5.5zM462 610v-66h-244v66h244z" />
    <glyph glyph-name="Abreve" unicode="&#x102;" horiz-adv-x="713" 
d="M222 282h210l-51 267h-9zM638 19l-3 -19h-231l3 19q40 0 53.5 26.5t5.5 64.5l-26 134h-239l-70 -127q-28 -50 -28 -64q0 -34 62 -34l-3 -19h-220l3 19q80 0 138 101l334 583h30l116 -593q6 -31 11 -46.5t21 -30t43 -14.5zM554 869h37q-26 -136 -148 -136q-120 0 -96 136
h38q-6 -36 10.5 -58.5t57.5 -22.5q42 0 68 22.5t33 58.5z" />
    <glyph glyph-name="abreve" unicode="&#x103;" horiz-adv-x="544" 
d="M309 148l48 251q12 62 -49 62q-76 0 -143.5 -96t-67.5 -229q0 -45 19 -72t52 -27q42 0 88.5 38.5t52.5 72.5zM512 76q0 -9 -14.5 -28t-45.5 -38t-65 -19q-89 0 -89 82v5h-4q-84 -87 -161 -87q-57 0 -90 40t-33 104q0 142 101.5 248t235.5 106q51 0 77.5 -21.5t19.5 -58.5
l-61 -316q-3 -15 -3 -26q0 -40 40 -40q31 0 74 48q4 5 8.5 6.5t7 0t2.5 -5.5zM459 670h37q-26 -136 -148 -136q-120 0 -96 136h38q-6 -36 10.5 -58.5t57.5 -22.5q42 0 68 22.5t33 58.5z" />
    <glyph glyph-name="Aogonek" unicode="&#x104;" horiz-adv-x="713" 
d="M222 282h210l-51 267h-9zM638 19l-3 -19h-157q-35 -3 -67 -33q-60 -53 -60 -104q0 -20 13 -34.5t40 -14.5q18 0 59 9q7 2 11.5 1.5t6.5 -2t1 -4.5q-2 -8 -15 -15q-38 -19 -81 -19q-48 0 -75 18t-27 51q0 80 121 151q44 26 56 48t5 58l-26 134h-239l-70 -127
q-28 -50 -28 -64q0 -34 62 -34l-3 -19h-220l3 19q80 0 138 101l334 583h30l116 -593q6 -31 11 -46.5t21 -30t43 -14.5z" />
    <glyph glyph-name="aogonek" unicode="&#x105;" horiz-adv-x="544" 
d="M309 148l48 251q12 62 -49 62q-76 0 -143.5 -96t-67.5 -229q0 -45 19 -72t52 -27q42 0 88.5 38.5t52.5 72.5zM465 -182q-2 -8 -15 -15q-38 -19 -81 -19q-48 0 -75 18t-27 51q0 40 29 76.5t71 62.5q-69 8 -69 81v5h-4q-84 -87 -161 -87q-57 0 -90 40t-33 104
q0 142 101.5 248t235.5 106q51 0 77.5 -21.5t19.5 -58.5l-61 -316q-3 -15 -3 -26q0 -40 40 -40q31 0 74 48q4 5 8.5 6.5t7 0t2.5 -5.5q0 -9 -22 -34t-50 -41q-47 -27 -76.5 -63.5t-29.5 -74.5q0 -20 13 -34.5t40 -14.5q19 0 59 9q7 2 11.5 1.5t6.5 -2t1 -4.5z" />
    <glyph glyph-name="Cacute" unicode="&#x106;" horiz-adv-x="620" 
d="M611 698h19l-43 -218h-19q-11 84 -48 139.5t-106 55.5q-110 0 -188 -117t-78 -275q0 -117 44 -187.5t125 -70.5q17 0 32 2.5t30.5 10.5t26 13t25 20t21.5 21t22 26t19 25t20.5 28.5t18.5 26.5h19l-39 -197h-19q-9 28 -33 39q-3 -2 -17 -9.5t-23 -12t-25.5 -11.5
t-30.5 -11t-33 -7t-37 -3q-107 0 -178 76t-71 215q0 180 112.5 308t258.5 128q79 0 152 -46q10 3 21 10.5t17 14.5zM585 844q0 -25 -28 -40l-125 -71h-32l115 115q22 22 43 22q12 0 19.5 -7.5t7.5 -18.5z" />
    <glyph glyph-name="cacute" unicode="&#x107;" horiz-adv-x="454" 
d="M424 385q0 -26 -14.5 -45t-39.5 -19q-20 0 -33 13.5t-13 31.5q0 13 8 32t8 27q0 14 -13.5 23t-39.5 9q-57 0 -102.5 -47.5t-66.5 -108.5t-21 -117q0 -74 31.5 -115t90.5 -41q65 0 139 63q5 5 9.5 5t6.5 -3t1 -7q0 -2 -3 -5q-33 -41 -82 -65.5t-97 -24.5q-89 0 -136 50
t-47 129q0 133 82 226.5t199 93.5q63 0 98 -31t35 -74zM442 645q0 -25 -28 -40l-125 -71h-32l115 115q22 22 43 22q12 0 19.5 -7.5t7.5 -18.5z" />
    <glyph glyph-name="Ccircumflex" unicode="&#x108;" horiz-adv-x="620" 
d="M611 698h19l-43 -218h-19q-11 84 -48 139.5t-106 55.5q-110 0 -188 -117t-78 -275q0 -117 44 -187.5t125 -70.5q17 0 32 2.5t30.5 10.5t26 13t25 20t21.5 21t22 26t19 25t20.5 28.5t18.5 26.5h19l-39 -197h-19q-9 28 -33 39q-3 -2 -17 -9.5t-23 -12t-25.5 -11.5
t-30.5 -11t-33 -7t-37 -3q-107 0 -178 76t-71 215q0 180 112.5 308t258.5 128q79 0 152 -46q10 3 21 10.5t17 14.5zM580 746q5 -5 -0.5 -11t-12.5 -2q-8 6 -98 66h-3l-124 -66q-8 -4 -11.5 2t2.5 11q15 13 142 122h11z" />
    <glyph glyph-name="ccircumflex" unicode="&#x109;" horiz-adv-x="454" 
d="M424 385q0 -26 -14.5 -45t-39.5 -19q-20 0 -33 13.5t-13 31.5q0 13 8 32t8 27q0 14 -13.5 23t-39.5 9q-57 0 -102.5 -47.5t-66.5 -108.5t-21 -117q0 -74 31.5 -115t90.5 -41q65 0 139 63q5 5 9.5 5t6.5 -3t1 -7q0 -2 -3 -5q-33 -41 -82 -65.5t-97 -24.5q-89 0 -136 50
t-47 129q0 133 82 226.5t199 93.5q63 0 98 -31t35 -74zM433 547q5 -5 -0.5 -11t-12.5 -2q-8 6 -98 66h-3l-124 -66q-8 -4 -11.5 2t2.5 11q15 13 142 122h11z" />
    <glyph glyph-name="Cdotaccent" unicode="&#x10a;" horiz-adv-x="620" 
d="M611 698h19l-43 -218h-19q-11 84 -48 139.5t-106 55.5q-110 0 -188 -117t-78 -275q0 -117 44 -187.5t125 -70.5q17 0 32 2.5t30.5 10.5t26 13t25 20t21.5 21t22 26t19 25t20.5 28.5t18.5 26.5h19l-39 -197h-19q-9 28 -33 39q-3 -2 -17 -9.5t-23 -12t-25.5 -11.5
t-30.5 -11t-33 -7t-37 -3q-107 0 -178 76t-71 215q0 180 112.5 308t258.5 128q79 0 152 -46q10 3 21 10.5t17 14.5zM514 789q0 -23 -16.5 -39.5t-39.5 -16.5t-39.5 16.5t-16.5 39.5t16.5 39.5t39.5 16.5t39.5 -16.5t16.5 -39.5z" />
    <glyph glyph-name="cdotaccent" unicode="&#x10b;" horiz-adv-x="454" 
d="M424 385q0 -26 -14.5 -45t-39.5 -19q-20 0 -33 13.5t-13 31.5q0 13 8 32t8 27q0 14 -13.5 23t-39.5 9q-57 0 -102.5 -47.5t-66.5 -108.5t-21 -117q0 -74 31.5 -115t90.5 -41q65 0 139 63q5 5 9.5 5t6.5 -3t1 -7q0 -2 -3 -5q-33 -41 -82 -65.5t-97 -24.5q-89 0 -136 50
t-47 129q0 133 82 226.5t199 93.5q63 0 98 -31t35 -74zM375 590q0 -23 -16.5 -39.5t-39.5 -16.5t-39.5 16.5t-16.5 39.5t16.5 39.5t39.5 16.5t39.5 -16.5t16.5 -39.5z" />
    <glyph glyph-name="Ccaron" unicode="&#x10c;" horiz-adv-x="620" 
d="M611 698h19l-43 -218h-19q-11 84 -48 139.5t-106 55.5q-110 0 -188 -117t-78 -275q0 -117 44 -187.5t125 -70.5q17 0 32 2.5t30.5 10.5t26 13t25 20t21.5 21t22 26t19 25t20.5 28.5t18.5 26.5h19l-39 -197h-19q-9 28 -33 39q-3 -2 -17 -9.5t-23 -12t-25.5 -11.5
t-30.5 -11t-33 -7t-37 -3q-107 0 -178 76t-71 215q0 180 112.5 308t258.5 128q79 0 152 -46q10 3 21 10.5t17 14.5zM598 855q-15 -13 -142 -122h-11l-94 122q-5 5 0.5 11t12.5 2q8 -6 98 -66h3l124 66q8 4 11.5 -2t-2.5 -11z" />
    <glyph glyph-name="ccaron" unicode="&#x10d;" horiz-adv-x="454" 
d="M424 385q0 -26 -14.5 -45t-39.5 -19q-20 0 -33 13.5t-13 31.5q0 13 8 32t8 27q0 14 -13.5 23t-39.5 9q-57 0 -102.5 -47.5t-66.5 -108.5t-21 -117q0 -74 31.5 -115t90.5 -41q65 0 139 63q5 5 9.5 5t6.5 -3t1 -7q0 -2 -3 -5q-33 -41 -82 -65.5t-97 -24.5q-89 0 -136 50
t-47 129q0 133 82 226.5t199 93.5q63 0 98 -31t35 -74zM442 656q-15 -13 -142 -122h-11l-94 122q-5 5 0.5 11t12.5 2q8 -6 98 -66h3l124 66q8 4 11.5 -2t-2.5 -11z" />
    <glyph glyph-name="Dcaron" unicode="&#x10e;" horiz-adv-x="698" 
d="M551 453q0 96 -48 150.5t-148 54.5h-11q-36 0 -53.5 -10.5t-23.5 -42.5l-100 -515q-6 -32 7.5 -42t49.5 -10h15q82 0 144.5 37t97.5 98.5t52.5 132t17.5 147.5zM654 457q0 -130 -49 -232.5t-147 -163.5t-231 -61h-262l4 19q42 0 69.5 19t34.5 52l100 515q7 34 -13 53
t-63 19l4 19h271q138 0 210 -60t72 -179zM516 855q-15 -13 -142 -122h-11l-94 122q-5 5 0.5 11t12.5 2q8 -6 98 -66h3l124 66q8 4 11.5 -2t-2.5 -11z" />
    <glyph glyph-name="dcaron" unicode="&#x10f;" horiz-adv-x="668" 
d="M354 335q0 116 -82 116q-58 0 -99.5 -52.5t-58.5 -116.5t-17 -123q0 -124 82 -124q54 0 95.5 52.5t60 119t19.5 128.5zM528 76q0 -9 -14.5 -28t-45.5 -38t-65 -19q-89 0 -89 82v2h-3q-74 -85 -162 -85q-69 0 -104 48t-35 126q0 74 29.5 147t91 125.5t138.5 52.5
q78 0 107 -59h3l42 213q12 61 -48 61l3 18q39 10 83 10q55 0 55 -33q0 -11 -6 -47l-109 -559q-3 -15 -3 -26q0 -40 40 -40q31 0 74 48q4 5 8.5 6.5t7 0t2.5 -5.5zM688 666q0 -56 -34 -101.5t-84 -71.5q-16 -8 -16 1q0 7 9 13q61 44 70 87q2 14 -1.5 19.5t-16.5 6.5
q-16 2 -28 19t-12 33q0 22 16.5 39.5t40.5 17.5q28 0 42 -18t14 -45z" />
    <glyph glyph-name="Dmacron" unicode="&#x110;" horiz-adv-x="698" 
d="M551 453q0 96 -48 150.5t-148 54.5h-11q-36 0 -53.5 -10.5t-23.5 -42.5l-46 -238h153l-8 -38h-153l-46 -239q-6 -32 7.5 -42t49.5 -10h15q82 0 144.5 37t97.5 98.5t52.5 132t17.5 147.5zM654 457q0 -130 -49 -232.5t-147 -163.5t-231 -61h-262l4 19q42 0 69.5 19t34.5 52
l46 239h-52l8 38h52l46 238q7 34 -13 53t-63 19l4 19h271q138 0 210 -60t72 -179z" />
    <glyph glyph-name="dmacron" unicode="&#x111;" horiz-adv-x="570" 
d="M354 335q0 116 -82 116q-44 0 -79 -30.5t-54.5 -77t-29.5 -94.5t-10 -90q0 -124 80 -124q54 0 95.5 52.5t60 119t19.5 128.5zM496 593h65l-7 -38h-65l-90 -462q-3 -15 -3 -26q0 -40 40 -40q31 0 74 48q4 5 8.5 6.5t7 0t2.5 -5.5q0 -9 -14.5 -28t-45.5 -38t-65 -19
q-89 0 -89 82v2h-3q-74 -85 -162 -85q-69 0 -104 48t-35 126q0 74 29.5 147t91 125.5t138.5 52.5q78 0 107 -59h3l25 125h-160l7 38h160l10 50q12 61 -48 61l3 18q39 10 83 10q55 0 55 -33q0 -23 -6 -47z" />
    <glyph glyph-name="Emacron" unicode="&#x112;" horiz-adv-x="576" 
d="M101 696h483l-33 -170h-18q-17 86 -40.5 109t-94.5 23q-32 0 -44.5 -0.5t-32.5 -3t-27.5 -7.5t-15.5 -15.5t-11 -26.5l-43 -220h84q36 0 68 25.5t40 68.5h18l-43 -225h-18q8 43 -14.5 68.5t-57.5 25.5h-84l-50 -258q-4 -19 -1 -30t19 -15.5t30.5 -5.5t50.5 -1h12
q81 0 118.5 26t90.5 114h19l-35 -178h-506l4 19q42 0 69.5 19t34.5 52l100 515q7 34 -13 53t-63 19zM475 807v-66h-244v66h244z" />
    <glyph glyph-name="emacron" unicode="&#x113;" horiz-adv-x="466" 
d="M340 401q0 22 -15 38t-43 16q-54 0 -103 -53.5t-70 -132.5q118 9 174.5 49.5t56.5 82.5zM426 394q0 -129 -323 -152q-6 -32 -6 -65q0 -76 34 -112.5t85 -36.5q72 0 149 63q14 11 18 3v-5q-2 -6 -4 -8q-31 -37 -82 -63.5t-105 -26.5q-81 0 -131.5 47.5t-50.5 128.5
q0 135 91 229t197 94q55 0 91.5 -28.5t36.5 -67.5zM424 610v-66h-244v66h244z" />
    <glyph glyph-name="Ebreve" unicode="&#x114;" horiz-adv-x="576" 
d="M101 696h483l-33 -170h-18q-17 86 -40.5 109t-94.5 23q-32 0 -44.5 -0.5t-32.5 -3t-27.5 -7.5t-15.5 -15.5t-11 -26.5l-43 -220h84q36 0 68 25.5t40 68.5h18l-43 -225h-18q8 43 -14.5 68.5t-57.5 25.5h-84l-50 -258q-4 -19 -1 -30t19 -15.5t30.5 -5.5t50.5 -1h12
q81 0 118.5 26t90.5 114h19l-35 -178h-506l4 19q42 0 69.5 19t34.5 52l100 515q7 34 -13 53t-63 19zM487 869h37q-26 -136 -148 -136q-120 0 -96 136h38q-6 -36 10.5 -58.5t57.5 -22.5q42 0 68 22.5t33 58.5z" />
    <glyph glyph-name="ebreve" unicode="&#x115;" horiz-adv-x="466" 
d="M340 401q0 22 -15 38t-43 16q-54 0 -103 -53.5t-70 -132.5q118 9 174.5 49.5t56.5 82.5zM426 394q0 -129 -323 -152q-6 -32 -6 -65q0 -76 34 -112.5t85 -36.5q72 0 149 63q14 11 18 3v-5q-2 -6 -4 -8q-31 -37 -82 -63.5t-105 -26.5q-81 0 -131.5 47.5t-50.5 128.5
q0 135 91 229t197 94q55 0 91.5 -28.5t36.5 -67.5zM426 670h37q-26 -136 -148 -136q-120 0 -96 136h38q-6 -36 10.5 -58.5t57.5 -22.5q42 0 68 22.5t33 58.5z" />
    <glyph glyph-name="Edotaccent" unicode="&#x116;" horiz-adv-x="576" 
d="M101 696h483l-33 -170h-18q-17 86 -40.5 109t-94.5 23q-32 0 -44.5 -0.5t-32.5 -3t-27.5 -7.5t-15.5 -15.5t-11 -26.5l-43 -220h84q36 0 68 25.5t40 68.5h18l-43 -225h-18q8 43 -14.5 68.5t-57.5 25.5h-84l-50 -258q-4 -19 -1 -30t19 -15.5t30.5 -5.5t50.5 -1h12
q81 0 118.5 26t90.5 114h19l-35 -178h-506l4 19q42 0 69.5 19t34.5 52l100 515q7 34 -13 53t-63 19zM433 789q0 -23 -16.5 -39.5t-39.5 -16.5t-39.5 16.5t-16.5 39.5t16.5 39.5t39.5 16.5t39.5 -16.5t16.5 -39.5z" />
    <glyph glyph-name="edotaccent" unicode="&#x117;" horiz-adv-x="466" 
d="M340 401q0 22 -15 38t-43 16q-54 0 -103 -53.5t-70 -132.5q118 9 174.5 49.5t56.5 82.5zM426 394q0 -129 -323 -152q-6 -32 -6 -65q0 -76 34 -112.5t85 -36.5q72 0 149 63q14 11 18 3v-5q-2 -6 -4 -8q-31 -37 -82 -63.5t-105 -26.5q-81 0 -131.5 47.5t-50.5 128.5
q0 135 91 229t197 94q55 0 91.5 -28.5t36.5 -67.5zM374 590q0 -23 -16.5 -39.5t-39.5 -16.5t-39.5 16.5t-16.5 39.5t16.5 39.5t39.5 16.5t39.5 -16.5t16.5 -39.5z" />
    <glyph glyph-name="Eogonek" unicode="&#x118;" horiz-adv-x="576" 
d="M327 -182q-2 -8 -15 -15q-38 -19 -81 -19q-48 0 -75 18t-27 51q0 43 34 82t79 65h-277l4 19q42 0 69.5 19t34.5 52l100 515q7 34 -13 53t-63 19l4 19h483l-33 -170h-18q-17 86 -40.5 109t-94.5 23q-32 0 -44.5 -0.5t-32.5 -3t-27.5 -7.5t-15.5 -15.5t-11 -26.5l-43 -220
h84q36 0 68 25.5t40 68.5h18l-43 -225h-18q8 43 -14.5 68.5t-57.5 25.5h-84l-50 -258q-4 -19 -1 -30t19 -15.5t30.5 -5.5t50.5 -1h12q81 0 118.5 26t90.5 114h19l-35 -178h-173q-102 -67 -102 -137q0 -20 13 -34.5t40 -14.5q19 0 59 9q7 2 11.5 1.5t6.5 -2t1 -4.5z" />
    <glyph glyph-name="eogonek" unicode="&#x119;" horiz-adv-x="466" 
d="M287 -182q-2 -8 -15 -15q-38 -19 -81 -19q-48 0 -75 18t-27 51q0 39 29 75.5t70 62.5q-80 2 -129 49t-49 127q0 135 91 229t197 94q55 0 91.5 -28.5t36.5 -67.5q0 -129 -323 -152q-6 -32 -6 -65q0 -76 34 -112.5t85 -36.5q72 0 149 63q14 11 18 3v-5q-2 -6 -4 -8
q-38 -46 -116 -83q-45 -21 -76 -59.5t-31 -75.5q0 -20 13 -34.5t40 -14.5q19 0 59 9q7 2 11.5 1.5t6.5 -2t1 -4.5zM340 401q0 22 -15 38t-43 16q-54 0 -103 -53.5t-70 -132.5q118 9 174.5 49.5t56.5 82.5z" />
    <glyph glyph-name="Ecaron" unicode="&#x11a;" horiz-adv-x="576" 
d="M101 696h483l-33 -170h-18q-17 86 -40.5 109t-94.5 23q-32 0 -44.5 -0.5t-32.5 -3t-27.5 -7.5t-15.5 -15.5t-11 -26.5l-43 -220h84q36 0 68 25.5t40 68.5h18l-43 -225h-18q8 43 -14.5 68.5t-57.5 25.5h-84l-50 -258q-4 -19 -1 -30t19 -15.5t30.5 -5.5t50.5 -1h12
q81 0 118.5 26t90.5 114h19l-35 -178h-506l4 19q42 0 69.5 19t34.5 52l100 515q7 34 -13 53t-63 19zM515 855q-15 -13 -142 -122h-11l-94 122q-5 5 0.5 11t12.5 2q8 -6 98 -66h3l124 66q8 4 11.5 -2t-2.5 -11z" />
    <glyph glyph-name="ecaron" unicode="&#x11b;" horiz-adv-x="466" 
d="M340 401q0 22 -15 38t-43 16q-54 0 -103 -53.5t-70 -132.5q118 9 174.5 49.5t56.5 82.5zM426 394q0 -129 -323 -152q-6 -32 -6 -65q0 -76 34 -112.5t85 -36.5q72 0 149 63q14 11 18 3v-5q-2 -6 -4 -8q-31 -37 -82 -63.5t-105 -26.5q-81 0 -131.5 47.5t-50.5 128.5
q0 135 91 229t197 94q55 0 91.5 -28.5t36.5 -67.5zM450 656q-15 -13 -142 -122h-11l-94 122q-5 5 0.5 11t12.5 2q8 -6 98 -66h3l124 66q8 4 11.5 -2t-2.5 -11z" />
    <glyph glyph-name="Gcircumflex" unicode="&#x11c;" horiz-adv-x="722" 
d="M432 322h275l-4 -18q-39 0 -68.5 -18t-35.5 -51l-47 -244h-18q-5 38 -30 59q-96 -65 -194 -65q-112 0 -188.5 72t-76.5 218q0 114 47.5 213t139.5 161.5t210 62.5q51 0 99 -17t68 -33q14 2 38 35h19l-43 -218h-19q-14 87 -60 141t-110 54q-68 0 -124 -38.5t-90.5 -99.5
t-53 -130.5t-18.5 -135.5q0 -116 52.5 -181.5t128.5 -65.5q81 0 147 69l28 140q7 34 -13.5 53t-62.5 19zM585 746q5 -5 -0.5 -11t-12.5 -2q-8 6 -98 66h-3l-124 -66q-8 -4 -11.5 2t2.5 11q15 13 142 122h11z" />
    <glyph glyph-name="gcircumflex" unicode="&#x11d;" horiz-adv-x="520" 
d="M333 -93q0 32 -25.5 55t-72.5 30q-40 6 -89 13q-37 -4 -66.5 -33.5t-29.5 -70.5q0 -50 36 -77t96 -27q70 0 110.5 32t40.5 78zM366 375q0 43 -20.5 64t-55.5 21q-64 0 -99.5 -55t-34.5 -120q0 -43 22.5 -64.5t59.5 -21.5q36 0 62.5 18.5t40 47.5t19.5 57t6 53zM359 479
h152l-5 -30h-30q-37 0 -67 8l-2 -3q45 -43 45 -104q0 -77 -64 -130.5t-157 -53.5q-47 0 -76 9q-22 -9 -35.5 -24.5t-13.5 -31.5q0 -17 14 -24t43 -11l82 -12q78 -11 120 -48t42 -95q0 -72 -64.5 -118t-164.5 -46q-91 0 -145.5 35t-54.5 92q0 42 28 72.5t73 48.5l1 2
q-38 22 -38 66q0 63 88 103v3q-61 36 -61 111q0 83 67.5 137t155.5 54q27 0 67 -10zM435 547q5 -5 -0.5 -11t-12.5 -2q-8 6 -98 66h-3l-124 -66q-8 -4 -11.5 2t2.5 11q15 13 142 122h11z" />
    <glyph glyph-name="Gbreve" unicode="&#x11e;" horiz-adv-x="722" 
d="M432 322h275l-4 -18q-39 0 -68.5 -18t-35.5 -51l-47 -244h-18q-5 38 -30 59q-96 -65 -194 -65q-112 0 -188.5 72t-76.5 218q0 114 47.5 213t139.5 161.5t210 62.5q51 0 99 -17t68 -33q14 2 38 35h19l-43 -218h-19q-14 87 -60 141t-110 54q-68 0 -124 -38.5t-90.5 -99.5
t-53 -130.5t-18.5 -135.5q0 -116 52.5 -181.5t128.5 -65.5q81 0 147 69l28 140q7 34 -13.5 53t-62.5 19zM576 869h37q-26 -136 -148 -136q-120 0 -96 136h38q-6 -36 10.5 -58.5t57.5 -22.5q42 0 68 22.5t33 58.5z" />
    <glyph glyph-name="gbreve" unicode="&#x11f;" horiz-adv-x="520" 
d="M333 -93q0 32 -25.5 55t-72.5 30q-40 6 -89 13q-37 -4 -66.5 -33.5t-29.5 -70.5q0 -50 36 -77t96 -27q70 0 110.5 32t40.5 78zM366 375q0 43 -20.5 64t-55.5 21q-64 0 -99.5 -55t-34.5 -120q0 -43 22.5 -64.5t59.5 -21.5q36 0 62.5 18.5t40 47.5t19.5 57t6 53zM359 479
h152l-5 -30h-30q-37 0 -67 8l-2 -3q45 -43 45 -104q0 -77 -64 -130.5t-157 -53.5q-47 0 -76 9q-22 -9 -35.5 -24.5t-13.5 -31.5q0 -17 14 -24t43 -11l82 -12q78 -11 120 -48t42 -95q0 -72 -64.5 -118t-164.5 -46q-91 0 -145.5 35t-54.5 92q0 42 28 72.5t73 48.5l1 2
q-38 22 -38 66q0 63 88 103v3q-61 36 -61 111q0 83 67.5 137t155.5 54q27 0 67 -10zM420 670h37q-26 -136 -148 -136q-120 0 -96 136h38q-6 -36 10.5 -58.5t57.5 -22.5q42 0 68 22.5t33 58.5z" />
    <glyph glyph-name="Gdotaccent" unicode="&#x120;" horiz-adv-x="722" 
d="M432 322h275l-4 -18q-39 0 -68.5 -18t-35.5 -51l-47 -244h-18q-5 38 -30 59q-96 -65 -194 -65q-112 0 -188.5 72t-76.5 218q0 114 47.5 213t139.5 161.5t210 62.5q51 0 99 -17t68 -33q14 2 38 35h19l-43 -218h-19q-14 87 -60 141t-110 54q-68 0 -124 -38.5t-90.5 -99.5
t-53 -130.5t-18.5 -135.5q0 -116 52.5 -181.5t128.5 -65.5q81 0 147 69l28 140q7 34 -13.5 53t-62.5 19zM518 789q0 -23 -16.5 -39.5t-39.5 -16.5t-39.5 16.5t-16.5 39.5t16.5 39.5t39.5 16.5t39.5 -16.5t16.5 -39.5z" />
    <glyph glyph-name="gdotaccent" unicode="&#x121;" horiz-adv-x="520" 
d="M333 -93q0 32 -25.5 55t-72.5 30q-40 6 -89 13q-37 -4 -66.5 -33.5t-29.5 -70.5q0 -50 36 -77t96 -27q70 0 110.5 32t40.5 78zM366 375q0 43 -20.5 64t-55.5 21q-64 0 -99.5 -55t-34.5 -120q0 -43 22.5 -64.5t59.5 -21.5q36 0 62.5 18.5t40 47.5t19.5 57t6 53zM359 479
h152l-5 -30h-30q-37 0 -67 8l-2 -3q45 -43 45 -104q0 -77 -64 -130.5t-157 -53.5q-47 0 -76 9q-22 -9 -35.5 -24.5t-13.5 -31.5q0 -17 14 -24t43 -11l82 -12q78 -11 120 -48t42 -95q0 -72 -64.5 -118t-164.5 -46q-91 0 -145.5 35t-54.5 92q0 42 28 72.5t73 48.5l1 2
q-38 22 -38 66q0 63 88 103v3q-61 36 -61 111q0 83 67.5 137t155.5 54q27 0 67 -10zM363 590q0 -23 -16.5 -39.5t-39.5 -16.5t-39.5 16.5t-16.5 39.5t16.5 39.5t39.5 16.5t39.5 -16.5t16.5 -39.5z" />
    <glyph glyph-name="Gcommaaccent" unicode="&#x122;" horiz-adv-x="722" 
d="M432 322h275l-4 -18q-39 0 -68.5 -18t-35.5 -51l-47 -244h-18q-5 38 -30 59q-96 -65 -194 -65q-112 0 -188.5 72t-76.5 218q0 114 47.5 213t139.5 161.5t210 62.5q51 0 99 -17t68 -33q14 2 38 35h19l-43 -218h-19q-14 87 -60 141t-110 54q-68 0 -124 -38.5t-90.5 -99.5
t-53 -130.5t-18.5 -135.5q0 -116 52.5 -181.5t128.5 -65.5q81 0 147 69l28 140q7 34 -13.5 53t-62.5 19zM341 -93q0 -103 -97 -156q-16 -8 -16 1q0 7 9 13q41 31 49 70q3 14 -1 19.5t-17 6.5q-16 2 -28 19t-12 33q0 22 16.5 39.5t40.5 17.5q28 0 42 -18t14 -45z" />
    <glyph glyph-name="gcommaaccent" unicode="&#x123;" horiz-adv-x="520" 
d="M333 -93q0 32 -25.5 55t-72.5 30q-40 6 -89 13q-37 -4 -66.5 -33.5t-29.5 -70.5q0 -50 36 -77t96 -27q70 0 110.5 32t40.5 78zM366 375q0 43 -20.5 64t-55.5 21q-64 0 -99.5 -55t-34.5 -120q0 -43 22.5 -64.5t59.5 -21.5q36 0 62.5 18.5t40 47.5t19.5 57t6 53zM359 479
h152l-5 -30h-30q-37 0 -67 8l-2 -3q45 -43 45 -104q0 -77 -64 -130.5t-157 -53.5q-47 0 -76 9q-22 -9 -35.5 -24.5t-13.5 -31.5q0 -17 14 -24t43 -11l82 -12q78 -11 120 -48t42 -95q0 -72 -64.5 -118t-164.5 -46q-91 0 -145.5 35t-54.5 92q0 42 28 72.5t73 48.5l1 2
q-38 22 -38 66q0 63 88 103v3q-61 36 -61 111q0 83 67.5 137t155.5 54q27 0 67 -10zM384 769q0 -7 -9 -13q-61 -44 -70 -87q-2 -14 1.5 -19.5t16.5 -6.5q16 -2 28 -19t12 -33q0 -22 -16.5 -39.5t-40.5 -17.5q-28 0 -42 18t-14 45q0 56 34 101.5t84 71.5q16 8 16 -1z" />
    <glyph glyph-name="Imacron" unicode="&#x12a;" horiz-adv-x="340" 
d="M101 696h274l-4 -19q-43 0 -70 -19t-34 -53l-100 -515q-7 -33 13 -52t63 -19l-4 -19h-274l4 19q42 0 69.5 19t34.5 52l100 515q7 34 -13 53t-63 19zM361 807v-66h-244v66h244z" />
    <glyph glyph-name="imacron" unicode="&#x12b;" horiz-adv-x="289" 
d="M257 76q0 -9 -14.5 -28t-45.5 -38t-65 -19q-89 0 -89 82q0 25 5 48l54 278q12 62 -48 62l3 18q39 10 83 10q55 0 55 -33q0 -11 -6 -47l-61 -316q-3 -15 -3 -26q0 -40 40 -40q32 0 75 48q4 5 8 6.5t6.5 0t2.5 -5.5zM267 610v-66h-244v66h244z" />
    <glyph glyph-name="Iogonek" unicode="&#x12e;" horiz-adv-x="340" 
d="M172 -182q-2 -8 -15 -15q-38 -19 -81 -19q-48 0 -75 18t-27 51q0 43 34 82t79 65h-122l4 19q42 0 69.5 19t34.5 52l100 515q7 34 -13 53t-63 19l4 19h274l-4 -19q-43 0 -70 -19t-34 -53l-100 -515q-7 -33 13 -52t63 -19l-4 -19h-96q-102 -67 -102 -137q0 -20 13 -34.5
t40 -14.5q18 0 59 9q7 2 11.5 1.5t6.5 -2t1 -4.5z" />
    <glyph glyph-name="iogonek" unicode="&#x12f;" horiz-adv-x="289" 
d="M232 637q0 -23 -16.5 -40t-39.5 -17t-40 17t-17 40t17 39.5t40 16.5t39.5 -16.5t16.5 -39.5zM211 -182q-2 -8 -15 -15q-38 -19 -81 -19q-48 0 -75 18t-27 51q0 40 29 76.5t71 62.5q-70 8 -70 81q0 25 5 48l54 278q12 62 -48 62l3 18q39 10 83 10q55 0 55 -33
q0 -11 -6 -47l-61 -316q-3 -15 -3 -26q0 -40 40 -40q32 0 75 48q4 5 8 6.5t6.5 0t2.5 -5.5q0 -10 -20.5 -34.5t-50.5 -41.5q-48 -28 -77 -64t-29 -73q0 -20 13 -34.5t40 -14.5q19 0 59 9q7 2 11.5 1.5t6.5 -2t1 -4.5z" />
    <glyph glyph-name="Idotaccent" unicode="&#x130;" horiz-adv-x="340" 
d="M101 696h274l-4 -19q-43 0 -70 -19t-34 -53l-100 -515q-7 -33 13 -52t63 -19l-4 -19h-274l4 19q42 0 69.5 19t34.5 52l100 515q7 34 -13 53t-63 19zM309 789q0 -23 -16.5 -39.5t-39.5 -16.5t-39.5 16.5t-16.5 39.5t16.5 39.5t39.5 16.5t39.5 -16.5t16.5 -39.5z" />
    <glyph glyph-name="dotlessi" unicode="&#x131;" horiz-adv-x="289" 
d="M257 76q0 -9 -14.5 -28t-45.5 -38t-65 -19q-89 0 -89 82q0 25 5 48l54 278q12 62 -48 62l3 18q39 10 83 10q55 0 55 -33q0 -11 -6 -47l-61 -316q-3 -15 -3 -26q0 -40 40 -40q32 0 75 48q4 5 8 6.5t6.5 0t2.5 -5.5z" />
    <glyph glyph-name="Jcircumflex" unicode="&#x134;" horiz-adv-x="406" 
d="M175 696h276l-3 -18q-43 0 -71.5 -19.5t-35.5 -53.5l-81 -417q-18 -97 -70 -150t-124 -53q-52 0 -82.5 25.5t-30.5 62.5q0 27 17 45t42 18q20 0 33 -12.5t13 -32.5q0 -15 -8.5 -31.5t-8.5 -21.5q0 -22 31 -22q62 0 80 92l96 497q7 34 -13 53.5t-63 19.5zM443 746
q5 -5 -0.5 -11t-12.5 -2q-8 6 -98 66h-3l-124 -66q-8 -4 -11.5 2t2.5 11q15 13 142 122h11z" />
    <glyph glyph-name="jcircumflex" unicode="&#x135;" horiz-adv-x="278" 
d="M196 450q-1 -16 -6 -41l-78 -406q-25 -129 -77.5 -183.5t-117.5 -54.5q-39 0 -63 18t-24 47q0 22 14 37.5t37 15.5q19 0 30 -12.5t11 -29.5q0 -6 -2.5 -16t-2.5 -14q0 -6 5.5 -11t14.5 -5q49 0 70 108l97 496q12 62 -49 62l3 18q36 10 83 10q30 0 43.5 -10.5t11.5 -28.5z
M268 547q5 -5 -0.5 -11t-12.5 -2q-8 6 -98 66h-3l-124 -66q-8 -4 -11.5 2t2.5 11q15 13 142 122h11z" />
    <glyph glyph-name="Kcommaaccent" unicode="&#x136;" horiz-adv-x="703" 
d="M529 696h189l-4 -19q-49 0 -85 -21t-98 -80l-181 -173l-1 -2l149 -264q2 -3 11.5 -21t13 -23.5t13 -20t17 -20.5t18 -15t22.5 -13t26 -5l-4 -19h-150l-174 309q-16 29 -26.5 34t-46.5 5l-50 -258q-7 -33 13 -52t62 -19l-4 -19h-274l4 19q89 0 104 71l100 515
q7 34 -13 53.5t-63 19.5l4 18h274l-4 -18q-42 0 -69 -19.5t-34 -53.5l-43 -220q42 0 57.5 7t44.5 36l162 164q5 5 12.5 12t11 11t9.5 10l9.5 9.5t7.5 8t6 7.5t4 6.5t3 6t1 4.5q0 11 -28 11zM383 -93q0 -103 -97 -156q-16 -8 -16 1q0 7 9 13q41 31 49 70q3 14 -1 19.5
t-17 6.5q-16 2 -28 19t-12 33q0 22 16.5 39.5t40.5 17.5q28 0 42 -18t14 -45z" />
    <glyph glyph-name="kcommaaccent" unicode="&#x137;" horiz-adv-x="556" 
d="M524 76q0 -9 -14.5 -28.5t-46 -38t-67.5 -18.5q-64 0 -93 56l-82 156q-11 21 -20.5 29t-24.5 8h-20l-46 -240h-85l125 643q12 61 -48 61l3 18q39 10 83 10q55 0 55 -33q0 -11 -6 -47l-74 -375q38 0 55.5 8.5t30.5 25.5l94 125q21 29 41.5 41t49.5 12q28 0 44.5 -17
t16.5 -39q0 -23 -13 -39.5t-35 -16.5q-18 0 -28.5 10.5t-17 21t-14.5 10.5q-12 0 -32 -25l-67 -86q-23 -29 -43 -38v-3q41 -9 58 -41l84 -158q11 -22 21.5 -31.5t26.5 -9.5q29 0 72 48q5 6 9 7t6 -1t2 -5zM264 -93q0 -103 -97 -156q-16 -8 -16 1q0 7 9 13q41 31 49 70
q3 14 -1 19.5t-17 6.5q-16 2 -28 19t-12 33q0 22 16.5 39.5t40.5 17.5q28 0 42 -18t14 -45z" />
    <glyph glyph-name="Lacute" unicode="&#x139;" horiz-adv-x="542" 
d="M471 178h18l-35 -178h-489l4 19q42 0 70 20t35 53l100 513q7 34 -13.5 53.5t-63.5 19.5l4 18h275l-4 -18q-43 0 -70.5 -19.5t-34.5 -53.5l-100 -515q-6 -32 7 -42t49 -10h39q79 0 115.5 24t93.5 116zM383 844q0 -25 -28 -40l-125 -71h-32l115 115q22 22 43 22
q12 0 19.5 -7.5t7.5 -18.5z" />
    <glyph glyph-name="lacute" unicode="&#x13a;" horiz-adv-x="289" 
d="M257 76q0 -9 -14.5 -28t-45.5 -38t-65 -19q-89 0 -89 82q0 25 5 48l102 522q12 61 -48 61l3 18q39 10 83 10q55 0 55 -33q0 -11 -6 -47l-109 -559q-3 -15 -3 -26q0 -40 40 -40q31 0 74 48q4 5 8.5 6.5t7 0t2.5 -5.5zM352 873q0 -25 -28 -40l-125 -71h-32l115 115
q22 22 43 22q12 0 19.5 -7.5t7.5 -18.5z" />
    <glyph glyph-name="Lcommaaccent" unicode="&#x13b;" horiz-adv-x="542" 
d="M471 178h18l-35 -178h-489l4 19q42 0 70 20t35 53l100 513q7 34 -13.5 53.5t-63.5 19.5l4 18h275l-4 -18q-43 0 -70.5 -19.5t-34.5 -53.5l-100 -515q-6 -32 7 -42t49 -10h39q79 0 115.5 24t93.5 116zM302 -93q0 -103 -97 -156q-16 -8 -16 1q0 7 9 13q41 31 49 70
q3 14 -1 19.5t-17 6.5q-16 2 -28 19t-12 33q0 22 16.5 39.5t40.5 17.5q28 0 42 -18t14 -45z" />
    <glyph glyph-name="lcommaaccent" unicode="&#x13c;" horiz-adv-x="289" 
d="M257 76q0 -9 -14.5 -28t-45.5 -38t-65 -19q-89 0 -89 82q0 25 5 48l102 522q12 61 -48 61l3 18q39 10 83 10q55 0 55 -33q0 -11 -6 -47l-109 -559q-3 -15 -3 -26q0 -40 40 -40q31 0 74 48q4 5 8.5 6.5t7 0t2.5 -5.5zM155 -93q0 -103 -97 -156q-16 -8 -16 1q0 7 9 13
q41 31 49 70q3 14 -1 19.5t-17 6.5q-16 2 -28 19t-12 33q0 22 16.5 39.5t40.5 17.5q28 0 42 -18t14 -45z" />
    <glyph glyph-name="Lcaron" unicode="&#x13d;" horiz-adv-x="542" 
d="M471 178h18l-35 -178h-489l4 19q42 0 70 20t35 53l100 513q7 34 -13.5 53.5t-63.5 19.5l4 18h275l-4 -18q-43 0 -70.5 -19.5t-34.5 -53.5l-100 -515q-6 -32 7 -42t49 -10h39q79 0 115.5 24t93.5 116zM522 645q0 -56 -34 -101.5t-84 -71.5q-16 -8 -16 1q0 7 9 13
q61 44 70 87q2 14 -1.5 19.5t-16.5 6.5q-16 2 -28 19t-12 33q0 22 16.5 39.5t40.5 17.5q28 0 42 -18t14 -45z" />
    <glyph glyph-name="lcaron" unicode="&#x13e;" horiz-adv-x="399" 
d="M257 76q0 -9 -14.5 -28t-45.5 -38t-65 -19q-89 0 -89 82q0 25 5 48l102 522q12 61 -48 61l3 18q39 10 83 10q55 0 55 -33q0 -11 -6 -47l-109 -559q-3 -15 -3 -26q0 -40 40 -40q31 0 74 48q4 5 8.5 6.5t7 0t2.5 -5.5zM419 668q0 -56 -34 -101.5t-84 -71.5q-16 -8 -16 1
q0 7 9 13q61 44 70 87q2 14 -1.5 19.5t-16.5 6.5q-16 2 -28 19t-12 33q0 22 16.5 39.5t40.5 17.5q28 0 42 -18t14 -45z" />
    <glyph glyph-name="Ldot" unicode="&#x13f;" horiz-adv-x="542" 
d="M471 178h18l-35 -178h-489l4 19q42 0 70 20t35 53l100 513q7 34 -13.5 53.5t-63.5 19.5l4 18h275l-4 -18q-43 0 -70.5 -19.5t-34.5 -53.5l-100 -515q-6 -32 7 -42t49 -10h39q79 0 115.5 24t93.5 116zM388 376q0 -23 -16.5 -39.5t-39.5 -16.5t-39.5 16.5t-16.5 39.5
t16.5 40t39.5 17t39.5 -17t16.5 -40z" />
    <glyph glyph-name="ldot" unicode="&#x140;" horiz-adv-x="373" 
d="M257 76q0 -9 -14.5 -28t-45.5 -38t-65 -19q-89 0 -89 82q0 25 5 48l102 522q12 61 -48 61l3 18q39 10 83 10q55 0 55 -33q0 -11 -6 -47l-109 -559q-3 -15 -3 -26q0 -40 40 -40q31 0 74 48q4 5 8.5 6.5t7 0t2.5 -5.5zM363 389q0 -23 -16.5 -39.5t-39.5 -16.5t-39.5 16.5
t-16.5 39.5t16.5 40t39.5 17t39.5 -17t16.5 -40z" />
    <glyph glyph-name="Lslash" unicode="&#x141;" horiz-adv-x="542" 
d="M471 178h18l-35 -178h-489l4 19q42 0 70 20t35 53l41 210h-3l-75 -40l-12 33l99 51l50 259q7 34 -13.5 53.5t-63.5 19.5l4 18h275l-4 -18q-43 0 -70.5 -19.5t-34.5 -53.5l-40 -205h3l124 65l12 -33l-147 -76l-52 -266q-6 -32 7 -42t49 -10h39q79 0 115.5 24t93.5 116z
" />
    <glyph glyph-name="lslash" unicode="&#x142;" horiz-adv-x="299" 
d="M260 432l11 -33l-93 -47l-50 -259q-3 -15 -3 -26q0 -40 40 -40q31 0 74 48q4 5 8.5 6.5t7 0t2.5 -5.5q0 -9 -14.5 -28t-45.5 -38t-65 -19q-89 0 -89 82q0 25 5 48l36 183l-59 -30l-11 33l78 40l58 296q12 61 -48 61l3 18q39 10 83 10q55 0 55 -33q0 -11 -6 -47l-50 -257z
" />
    <glyph glyph-name="Nacute" unicode="&#x143;" horiz-adv-x="765" 
d="M581 696h219l-4 -19q-43 0 -70.5 -19t-34.5 -53l-118 -605h-33l-325 587h-4l-100 -497q-7 -33 13.5 -52t63.5 -19l-4 -19h-219l4 19q43 0 70.5 19t34.5 52l100 515q7 34 -13.5 53t-63.5 19l4 19h157l301 -548h4l90 457q7 34 -13 53t-63 19zM615 844q0 -25 -28 -40
l-125 -71h-32l115 115q22 22 43 22q12 0 19.5 -7.5t7.5 -18.5z" />
    <glyph glyph-name="nacute" unicode="&#x144;" 
d="M539 76q0 -9 -14.5 -28t-45.5 -38t-65 -19q-89 0 -89 82q0 25 5 48l42 216q4 24 4 35q0 70 -67 70q-43 0 -85 -35t-50 -75l-64 -332h-85l77 399q12 62 -48 62l3 18q39 10 83 10q55 0 55 -33q0 -6 -1.5 -17.5t-2.5 -20.5t-2 -9h1q71 80 158 80q43 0 78.5 -26t35.5 -84
q0 -19 -4 -38l-48 -248q-3 -15 -3 -26q0 -40 40 -40q31 0 74 48q4 5 8.5 6.5t7 0t2.5 -5.5zM427 645q0 -25 -28 -40l-125 -71h-32l115 115q22 22 43 22q12 0 19.5 -7.5t7.5 -18.5z" />
    <glyph glyph-name="Ncommaaccent" unicode="&#x145;" horiz-adv-x="765" 
d="M581 696h219l-4 -19q-43 0 -70.5 -19t-34.5 -53l-118 -605h-33l-325 587h-4l-100 -497q-7 -33 13.5 -52t63.5 -19l-4 -19h-219l4 19q43 0 70.5 19t34.5 52l100 515q7 34 -13.5 53t-63.5 19l4 19h157l301 -548h4l90 457q7 34 -13 53t-63 19zM381 -93q0 -103 -97 -156
q-16 -8 -16 1q0 7 9 13q41 31 49 70q3 14 -1 19.5t-17 6.5q-16 2 -28 19t-12 33q0 22 16.5 39.5t40.5 17.5q28 0 42 -18t14 -45z" />
    <glyph glyph-name="ncommaaccent" unicode="&#x146;" 
d="M539 76q0 -9 -14.5 -28t-45.5 -38t-65 -19q-89 0 -89 82q0 25 5 48l42 216q4 24 4 35q0 70 -67 70q-43 0 -85 -35t-50 -75l-64 -332h-85l77 399q12 62 -48 62l3 18q39 10 83 10q55 0 55 -33q0 -6 -1.5 -17.5t-2.5 -20.5t-2 -9h1q71 80 158 80q43 0 78.5 -26t35.5 -84
q0 -19 -4 -38l-48 -248q-3 -15 -3 -26q0 -40 40 -40q31 0 74 48q4 5 8.5 6.5t7 0t2.5 -5.5zM275 -93q0 -103 -97 -156q-16 -8 -16 1q0 7 9 13q41 31 49 70q3 14 -1 19.5t-17 6.5q-16 2 -28 19t-12 33q0 22 16.5 39.5t40.5 17.5q28 0 42 -18t14 -45z" />
    <glyph glyph-name="Ncaron" unicode="&#x147;" horiz-adv-x="765" 
d="M581 696h219l-4 -19q-43 0 -70.5 -19t-34.5 -53l-118 -605h-33l-325 587h-4l-100 -497q-7 -33 13.5 -52t63.5 -19l-4 -19h-219l4 19q43 0 70.5 19t34.5 52l100 515q7 34 -13.5 53t-63.5 19l4 19h157l301 -548h4l90 457q7 34 -13 53t-63 19zM613 855q-15 -13 -142 -122
h-11l-94 122q-5 5 0.5 11t12.5 2q8 -6 98 -66h3l124 66q8 4 11.5 -2t-2.5 -11z" />
    <glyph glyph-name="ncaron" unicode="&#x148;" 
d="M539 76q0 -9 -14.5 -28t-45.5 -38t-65 -19q-89 0 -89 82q0 25 5 48l42 216q4 24 4 35q0 70 -67 70q-43 0 -85 -35t-50 -75l-64 -332h-85l77 399q12 62 -48 62l3 18q39 10 83 10q55 0 55 -33q0 -6 -1.5 -17.5t-2.5 -20.5t-2 -9h1q71 80 158 80q43 0 78.5 -26t35.5 -84
q0 -19 -4 -38l-48 -248q-3 -15 -3 -26q0 -40 40 -40q31 0 74 48q4 5 8.5 6.5t7 0t2.5 -5.5zM448 656q-15 -13 -142 -122h-11l-94 122q-5 5 0.5 11t12.5 2q8 -6 98 -66h3l124 66q8 4 11.5 -2t-2.5 -11z" />
    <glyph glyph-name="Omacron" unicode="&#x14c;" horiz-adv-x="709" 
d="M561 467q0 92 -34.5 149t-108.5 57q-67 0 -121 -46.5t-85 -117t-47.5 -144t-16.5 -136.5q0 -92 35 -149t109 -57q54 0 100 31t76.5 80t52 109t31 117.5t9.5 106.5zM664 456q0 -79 -27.5 -162t-75 -152t-121 -113t-156.5 -44q-117 0 -178 68t-61 187q0 79 27.5 162
t75.5 152t121.5 113t156.5 44q117 0 177.5 -68t60.5 -187zM575 807v-66h-244v66h244z" />
    <glyph glyph-name="omacron" unicode="&#x14d;" horiz-adv-x="509" 
d="M352 334q0 117 -82 117q-54 0 -94.5 -51t-59 -118.5t-19.5 -135.5q0 -56 17.5 -87t63.5 -31q49 0 89.5 45.5t62.5 115.5t22 145zM439 319q0 -55 -17 -111t-48.5 -105.5t-83 -80.5t-114.5 -31q-84 0 -125 44.5t-41 125.5q0 80 31 154.5t93 124t139 49.5q83 0 124.5 -44.5
t41.5 -125.5zM410 610v-66h-244v66h244z" />
    <glyph glyph-name="Obreve" unicode="&#x14e;" horiz-adv-x="709" 
d="M561 467q0 92 -34.5 149t-108.5 57q-67 0 -121 -46.5t-85 -117t-47.5 -144t-16.5 -136.5q0 -92 35 -149t109 -57q54 0 100 31t76.5 80t52 109t31 117.5t9.5 106.5zM664 456q0 -79 -27.5 -162t-75 -152t-121 -113t-156.5 -44q-117 0 -178 68t-61 187q0 79 27.5 162
t75.5 152t121.5 113t156.5 44q117 0 177.5 -68t60.5 -187zM560 869h37q-26 -136 -148 -136q-120 0 -96 136h38q-6 -36 10.5 -58.5t57.5 -22.5q42 0 68 22.5t33 58.5z" />
    <glyph glyph-name="obreve" unicode="&#x14f;" horiz-adv-x="509" 
d="M352 334q0 117 -82 117q-54 0 -94.5 -51t-59 -118.5t-19.5 -135.5q0 -56 17.5 -87t63.5 -31q49 0 89.5 45.5t62.5 115.5t22 145zM439 319q0 -55 -17 -111t-48.5 -105.5t-83 -80.5t-114.5 -31q-84 0 -125 44.5t-41 125.5q0 80 31 154.5t93 124t139 49.5q83 0 124.5 -44.5
t41.5 -125.5zM415 670h37q-26 -136 -148 -136q-120 0 -96 136h38q-6 -36 10.5 -58.5t57.5 -22.5q42 0 68 22.5t33 58.5z" />
    <glyph glyph-name="Ohungarumlaut" unicode="&#x150;" horiz-adv-x="709" 
d="M561 467q0 92 -34.5 149t-108.5 57q-67 0 -121 -46.5t-85 -117t-47.5 -144t-16.5 -136.5q0 -92 35 -149t109 -57q54 0 100 31t76.5 80t52 109t31 117.5t9.5 106.5zM664 456q0 -79 -27.5 -162t-75 -152t-121 -113t-156.5 -44q-117 0 -178 68t-61 187q0 79 27.5 162
t75.5 152t121.5 113t156.5 44q117 0 177.5 -68t60.5 -187zM533 844q0 -25 -28 -40l-125 -71h-32l115 115q22 22 43 22q12 0 19.5 -7.5t7.5 -18.5zM657 844q0 -25 -27 -40l-126 -71h-32l115 115q22 22 44 22q12 0 19 -7.5t7 -18.5z" />
    <glyph glyph-name="ohungarumlaut" unicode="&#x151;" horiz-adv-x="509" 
d="M352 334q0 117 -82 117q-54 0 -94.5 -51t-59 -118.5t-19.5 -135.5q0 -56 17.5 -87t63.5 -31q49 0 89.5 45.5t62.5 115.5t22 145zM439 319q0 -55 -17 -111t-48.5 -105.5t-83 -80.5t-114.5 -31q-84 0 -125 44.5t-41 125.5q0 80 31 154.5t93 124t139 49.5q83 0 124.5 -44.5
t41.5 -125.5zM379 645q0 -25 -28 -40l-125 -71h-32l115 115q22 22 43 22q12 0 19.5 -7.5t7.5 -18.5zM503 645q0 -25 -27 -40l-126 -71h-32l115 115q22 22 44 22q12 0 19 -7.5t7 -18.5z" />
    <glyph glyph-name="OE" unicode="&#x152;" horiz-adv-x="982" 
d="M561 467q0 92 -34.5 149t-108.5 57q-67 0 -121 -46.5t-85 -117t-47.5 -144t-16.5 -136.5q0 -92 35 -149t109 -57q54 0 100 31t76.5 80t52 109t31 117.5t9.5 106.5zM664 452q0 -30 -5 -67h55q36 0 68 25.5t40 68.5h18l-43 -225h-18q8 43 -14.5 68.5t-57.5 25.5h-54
q-18 -92 -64 -172.5t-116 -130.5l4 -7h207q81 0 118.5 26t90.5 114h19l-35 -178h-495q-50 -15 -98 -15q-117 0 -178 68t-61 187q0 79 27.5 162t75.5 152t121.5 113t156.5 44q59 0 101 -15h463l-33 -170h-18q-17 86 -40.5 109t-94.5 23h-204l-3 -5q67 -64 67 -201z" />
    <glyph glyph-name="oe" unicode="&#x153;" horiz-adv-x="790" 
d="M352 334q0 117 -82 117q-54 0 -94.5 -51t-59 -118.5t-19.5 -135.5q0 -56 17.5 -87t63.5 -31q49 0 89.5 45.5t62.5 115.5t22 145zM664 401q0 22 -15 38t-43 16q-53 0 -101 -53t-69 -133q118 9 173 49.5t55 82.5zM750 394q0 -129 -320 -152q-6 -32 -6 -65q0 -76 33 -112.5
t83 -36.5q72 0 149 63q14 11 18 3v-5q-2 -6 -4 -8q-31 -37 -82 -63.5t-105 -26.5q-116 0 -161 87q-72 -87 -179 -87q-84 0 -125 44.5t-41 125.5q0 80 31 154.5t93 124t139 49.5q120 0 153 -92q42 44 94 68.5t102 24.5q55 0 91.5 -28.5t36.5 -67.5z" />
    <glyph glyph-name="Racute" unicode="&#x154;" horiz-adv-x="706" 
d="M490 533q0 59 -34.5 92t-97.5 33q-82 0 -91 -49l-51 -266h82q87 0 139.5 52t52.5 138zM632 19l-4 -19h-161l-18 26q-42 69 -152 279h-88l-42 -215q-7 -33 13.5 -52t63.5 -19l-4 -19h-275l4 19q89 0 104 71l100 515q7 34 -13 53.5t-63 19.5l4 18h300q96 0 144 -40.5
t48 -104.5q0 -82 -58.5 -148t-140.5 -80v-3l106 -186q37 -65 54 -83q31 -32 78 -32zM489 844q0 -25 -28 -40l-125 -71h-32l115 115q22 22 43 22q12 0 19.5 -7.5t7.5 -18.5z" />
    <glyph glyph-name="racute" unicode="&#x155;" horiz-adv-x="389" 
d="M389 433q0 -21 -13 -36t-33 -15q-21 0 -36 23.5t-32 23.5q-19 0 -45.5 -20t-50.5 -57l-69 -352h-85l78 399q12 62 -48 62l3 18q39 10 83 10q55 0 55 -33q0 -8 -6 -47l-1 -7h3q34 49 72.5 68t62.5 19q29 0 45.5 -16.5t16.5 -39.5zM406 645q0 -25 -28 -40l-125 -71h-32
l115 115q22 22 43 22q12 0 19.5 -7.5t7.5 -18.5z" />
    <glyph glyph-name="Rcommaaccent" unicode="&#x156;" horiz-adv-x="706" 
d="M490 533q0 59 -34.5 92t-97.5 33q-82 0 -91 -49l-51 -266h82q87 0 139.5 52t52.5 138zM632 19l-4 -19h-161l-18 26q-42 69 -152 279h-88l-42 -215q-7 -33 13.5 -52t63.5 -19l-4 -19h-275l4 19q89 0 104 71l100 515q7 34 -13 53.5t-63 19.5l4 18h300q96 0 144 -40.5
t48 -104.5q0 -82 -58.5 -148t-140.5 -80v-3l106 -186q37 -65 54 -83q31 -32 78 -32zM395 -93q0 -103 -97 -156q-16 -8 -16 1q0 7 9 13q41 31 49 70q3 14 -1 19.5t-17 6.5q-16 2 -28 19t-12 33q0 22 16.5 39.5t40.5 17.5q28 0 42 -18t14 -45z" />
    <glyph glyph-name="rcommaaccent" unicode="&#x157;" horiz-adv-x="389" 
d="M389 433q0 -21 -13 -36t-33 -15q-21 0 -36 23.5t-32 23.5q-19 0 -45.5 -20t-50.5 -57l-69 -352h-85l78 399q12 62 -48 62l3 18q39 10 83 10q55 0 55 -33q0 -8 -6 -47l-1 -7h3q34 49 72.5 68t62.5 19q29 0 45.5 -16.5t16.5 -39.5zM111 -93q0 -103 -97 -156q-16 -8 -16 1
q0 7 9 13q41 31 49 70q3 14 -1 19.5t-17 6.5q-16 2 -28 19t-12 33q0 22 16.5 39.5t40.5 17.5q28 0 42 -18t14 -45z" />
    <glyph glyph-name="Rcaron" unicode="&#x158;" horiz-adv-x="706" 
d="M490 533q0 59 -34.5 92t-97.5 33q-82 0 -91 -49l-51 -266h82q87 0 139.5 52t52.5 138zM632 19l-4 -19h-161l-18 26q-42 69 -152 279h-88l-42 -215q-7 -33 13.5 -52t63.5 -19l-4 -19h-275l4 19q89 0 104 71l100 515q7 34 -13 53.5t-63 19.5l4 18h300q96 0 144 -40.5
t48 -104.5q0 -82 -58.5 -148t-140.5 -80v-3l106 -186q37 -65 54 -83q31 -32 78 -32zM499 855q-15 -13 -142 -122h-11l-94 122q-5 5 0.5 11t12.5 2q8 -6 98 -66h3l124 66q8 4 11.5 -2t-2.5 -11z" />
    <glyph glyph-name="rcaron" unicode="&#x159;" horiz-adv-x="389" 
d="M389 433q0 -21 -13 -36t-33 -15q-21 0 -36 23.5t-32 23.5q-19 0 -45.5 -20t-50.5 -57l-69 -352h-85l78 399q12 62 -48 62l3 18q39 10 83 10q55 0 55 -33q0 -8 -6 -47l-1 -7h3q34 49 72.5 68t62.5 19q29 0 45.5 -16.5t16.5 -39.5zM386 656q-15 -13 -142 -122h-11l-94 122
q-5 5 0.5 11t12.5 2q8 -6 98 -66h3l124 66q8 4 11.5 -2t-2.5 -11z" />
    <glyph glyph-name="Sacute" unicode="&#x15a;" horiz-adv-x="591" 
d="M513 711h18l-44 -222h-18q-19 90 -51 137t-102 47q-59 0 -97 -37t-38 -93q0 -60 68 -101l117 -69q119 -70 119 -176q0 -93 -68.5 -152.5t-173.5 -59.5q-96 0 -185 57q-10 -5 -20.5 -15.5t-15.5 -18.5l-5 -8h-17l43 217h17q56 -197 189 -197q61 0 97 41t36 105
q0 53 -17 81t-59 52l-106 63q-101 60 -101 154q0 85 64.5 140t156.5 55q71 0 151 -41q10 5 20.5 15t16.5 18zM477 844q0 -25 -28 -40l-125 -71h-32l115 115q22 22 43 22q12 0 19.5 -7.5t7.5 -18.5z" />
    <glyph glyph-name="sacute" unicode="&#x15b;" horiz-adv-x="413" 
d="M353 396q0 -23 -14 -38.5t-37 -15.5q-20 0 -33.5 11.5t-13.5 31.5q0 11 6 25t6 19q0 16 -18 24t-38 8q-41 0 -70.5 -24t-29.5 -59q0 -47 47 -68l81 -36q105 -46 105 -136q0 -60 -55 -103.5t-137 -43.5q-66 0 -109 29.5t-43 70.5q0 26 16.5 43.5t38.5 17.5q20 0 33.5 -14
t13.5 -34q0 -14 -7 -27.5t-7 -20.5q0 -17 20 -27t47 -10q48 0 78.5 27t30.5 67q0 58 -71 90l-81 37q-72 33 -72 104q0 56 49 100.5t127 44.5q60 0 98.5 -28t38.5 -65zM362 645q0 -25 -28 -40l-125 -71h-32l115 115q22 22 43 22q12 0 19.5 -7.5t7.5 -18.5z" />
    <glyph glyph-name="Scircumflex" unicode="&#x15c;" horiz-adv-x="591" 
d="M513 711h18l-44 -222h-18q-19 90 -51 137t-102 47q-59 0 -97 -37t-38 -93q0 -60 68 -101l117 -69q119 -70 119 -176q0 -93 -68.5 -152.5t-173.5 -59.5q-96 0 -185 57q-10 -5 -20.5 -15.5t-15.5 -18.5l-5 -8h-17l43 217h17q56 -197 189 -197q61 0 97 41t36 105
q0 53 -17 81t-59 52l-106 63q-101 60 -101 154q0 85 64.5 140t156.5 55q71 0 151 -41q10 5 20.5 15t16.5 18zM450 746q5 -5 -0.5 -11t-12.5 -2q-8 6 -98 66h-3l-124 -66q-8 -4 -11.5 2t2.5 11q15 13 142 122h11z" />
    <glyph glyph-name="scircumflex" unicode="&#x15d;" horiz-adv-x="413" 
d="M353 396q0 -23 -14 -38.5t-37 -15.5q-20 0 -33.5 11.5t-13.5 31.5q0 11 6 25t6 19q0 16 -18 24t-38 8q-41 0 -70.5 -24t-29.5 -59q0 -47 47 -68l81 -36q105 -46 105 -136q0 -60 -55 -103.5t-137 -43.5q-66 0 -109 29.5t-43 70.5q0 26 16.5 43.5t38.5 17.5q20 0 33.5 -14
t13.5 -34q0 -14 -7 -27.5t-7 -20.5q0 -17 20 -27t47 -10q48 0 78.5 27t30.5 67q0 58 -71 90l-81 37q-72 33 -72 104q0 56 49 100.5t127 44.5q60 0 98.5 -28t38.5 -65zM347 547q5 -5 -0.5 -11t-12.5 -2q-8 6 -98 66h-3l-124 -66q-8 -4 -11.5 2t2.5 11q15 13 142 122h11z" />
    <glyph glyph-name="Scedilla" unicode="&#x15e;" horiz-adv-x="591" 
d="M335 -112q0 -45 -38.5 -74.5t-85.5 -29.5q-50 0 -85 20q-9 5 -10.5 10.5t4.5 8t18 0.5q51 -9 57 -9q31 0 52.5 19t21.5 49q0 35 -60 35h-20l13 70q-71 8 -144 55q-10 -5 -20.5 -15.5t-15.5 -18.5l-5 -8h-17l43 217h17q56 -197 189 -197q61 0 97 41t36 105q0 53 -17 81
t-59 52l-106 63q-101 60 -101 154q0 85 64.5 140t156.5 55q71 0 151 -41q10 5 20.5 15t16.5 18l5 8h18l-44 -222h-18q-19 90 -51 137t-102 47q-59 0 -97 -37t-38 -93q0 -60 68 -101l117 -69q119 -70 119 -176q0 -93 -68.5 -152.5t-173.5 -59.5h-3l-6 -32h11q44 0 67 -17.5
t23 -47.5z" />
    <glyph glyph-name="scedilla" unicode="&#x15f;" horiz-adv-x="413" 
d="M263 -112q0 -45 -38.5 -74.5t-85.5 -29.5q-50 0 -85 20q-9 5 -10.5 10.5t4.5 8t18 0.5q51 -9 57 -9q31 0 52.5 19t21.5 49q0 35 -60 35h-20l14 75q-58 5 -94.5 33.5t-36.5 65.5q0 26 16.5 43.5t38.5 17.5q20 0 33.5 -14t13.5 -34q0 -14 -7 -27.5t-7 -20.5q0 -17 20 -27
t47 -10q48 0 78.5 27t30.5 67q0 58 -71 90l-81 37q-72 33 -72 104q0 56 49 100.5t127 44.5q60 0 98.5 -28t38.5 -65q0 -23 -14 -38.5t-37 -15.5q-20 0 -33.5 11.5t-13.5 31.5q0 11 6 25t6 19q0 16 -18 24t-38 8q-41 0 -70.5 -24t-29.5 -59q0 -47 47 -68l81 -36
q105 -46 105 -136q0 -56 -49.5 -98.5t-125.5 -47.5l-7 -39h11q44 0 67 -17.5t23 -47.5z" />
    <glyph glyph-name="Scaron" unicode="&#x160;" horiz-adv-x="591" 
d="M513 711h18l-44 -222h-18q-19 90 -51 137t-102 47q-59 0 -97 -37t-38 -93q0 -60 68 -101l117 -69q119 -70 119 -176q0 -93 -68.5 -152.5t-173.5 -59.5q-96 0 -185 57q-10 -5 -20.5 -15.5t-15.5 -18.5l-5 -8h-17l43 217h17q56 -197 189 -197q61 0 97 41t36 105
q0 53 -17 81t-59 52l-106 63q-101 60 -101 154q0 85 64.5 140t156.5 55q71 0 151 -41q10 5 20.5 15t16.5 18zM465 855q-15 -13 -142 -122h-11l-94 122q-5 5 0.5 11t12.5 2q8 -6 98 -66h3l124 66q8 4 11.5 -2t-2.5 -11z" />
    <glyph glyph-name="scaron" unicode="&#x161;" horiz-adv-x="413" 
d="M353 396q0 -23 -14 -38.5t-37 -15.5q-20 0 -33.5 11.5t-13.5 31.5q0 11 6 25t6 19q0 16 -18 24t-38 8q-41 0 -70.5 -24t-29.5 -59q0 -47 47 -68l81 -36q105 -46 105 -136q0 -60 -55 -103.5t-137 -43.5q-66 0 -109 29.5t-43 70.5q0 26 16.5 43.5t38.5 17.5q20 0 33.5 -14
t13.5 -34q0 -14 -7 -27.5t-7 -20.5q0 -17 20 -27t47 -10q48 0 78.5 27t30.5 67q0 58 -71 90l-81 37q-72 33 -72 104q0 56 49 100.5t127 44.5q60 0 98.5 -28t38.5 -65zM369 656q-15 -13 -142 -122h-11l-94 122q-5 5 0.5 11t12.5 2q8 -6 98 -66h3l124 66q8 4 11.5 -2t-2.5 -11
z" />
    <glyph glyph-name="Tcommaaccent" unicode="&#x162;" horiz-adv-x="549" 
d="M77 696h531l-33 -170h-20q-14 80 -33 106.5t-78 26.5h-5q-56 0 -69 -64l-98 -505q-7 -33 13.5 -52t63.5 -19l-4 -19h-275l4 19q88 0 103 71l98 505q13 64 -43 64h-8q-31 0 -51.5 -6t-39.5 -25t-32 -39t-37 -63h-20zM258 -93q0 -103 -97 -156q-16 -8 -16 1q0 7 9 13
q41 31 49 70q3 14 -1 19.5t-17 6.5q-16 2 -28 19t-12 33q0 22 16.5 39.5t40.5 17.5q28 0 42 -18t14 -45z" />
    <glyph glyph-name="Tcommaaccent" unicode="&#x21a;" horiz-adv-x="549" 
d="M77 696h531l-33 -170h-20q-14 80 -33 106.5t-78 26.5h-5q-56 0 -69 -64l-98 -505q-7 -33 13.5 -52t63.5 -19l-4 -19h-275l4 19q88 0 103 71l98 505q13 64 -43 64h-8q-31 0 -51.5 -6t-39.5 -25t-32 -39t-37 -63h-20zM258 -93q0 -103 -97 -156q-16 -8 -16 1q0 7 9 13
q41 31 49 70q3 14 -1 19.5t-17 6.5q-16 2 -28 19t-12 33q0 22 16.5 39.5t40.5 17.5q28 0 42 -18t14 -45z" />
    <glyph glyph-name="tcommaaccent" unicode="&#x163;" horiz-adv-x="307" 
d="M203 479h94l-6 -30h-94l-69 -356q-3 -15 -3 -26q0 -40 40 -40q32 0 75 48q4 5 8 6.5t6.5 0t2.5 -5.5q0 -9 -14.5 -28t-45.5 -38t-65 -19q-89 0 -89 82q0 12 6 48l63 328h-75l4 21q98 32 167 155h23zM167 -93q0 -103 -97 -156q-16 -8 -16 1q0 7 9 13q41 31 49 70
q3 14 -1 19.5t-17 6.5q-16 2 -28 19t-12 33q0 22 16.5 39.5t40.5 17.5q28 0 42 -18t14 -45z" />
    <glyph glyph-name="tcommaaccent" unicode="&#x21b;" horiz-adv-x="307" 
d="M203 479h94l-6 -30h-94l-69 -356q-3 -15 -3 -26q0 -40 40 -40q32 0 75 48q4 5 8 6.5t6.5 0t2.5 -5.5q0 -9 -14.5 -28t-45.5 -38t-65 -19q-89 0 -89 82q0 12 6 48l63 328h-75l4 21q98 32 167 155h23zM167 -93q0 -103 -97 -156q-16 -8 -16 1q0 7 9 13q41 31 49 70
q3 14 -1 19.5t-17 6.5q-16 2 -28 19t-12 33q0 22 16.5 39.5t40.5 17.5q28 0 42 -18t14 -45z" />
    <glyph glyph-name="Tcaron" unicode="&#x164;" horiz-adv-x="549" 
d="M77 696h531l-33 -170h-20q-14 80 -33 106.5t-78 26.5h-5q-56 0 -69 -64l-98 -505q-7 -33 13.5 -52t63.5 -19l-4 -19h-275l4 19q88 0 103 71l98 505q13 64 -43 64h-8q-31 0 -51.5 -6t-39.5 -25t-32 -39t-37 -63h-20zM491 855q-15 -13 -142 -122h-11l-94 122q-5 5 0.5 11
t12.5 2q8 -6 98 -66h3l124 66q8 4 11.5 -2t-2.5 -11z" />
    <glyph glyph-name="tcaron" unicode="&#x165;" horiz-adv-x="307" 
d="M203 479h94l-6 -30h-94l-69 -356q-3 -15 -3 -26q0 -40 40 -40q32 0 75 48q4 5 8 6.5t6.5 0t2.5 -5.5q0 -9 -14.5 -28t-45.5 -38t-65 -19q-89 0 -89 82q0 12 6 48l63 328h-75l4 21q98 32 167 155h23zM405 692q0 -56 -34 -101.5t-84 -71.5q-16 -8 -16 1q0 7 9 13
q61 44 70 87q2 14 -1.5 19.5t-16.5 6.5q-16 2 -28 19t-12 33q0 22 16.5 39.5t40.5 17.5q28 0 42 -18t14 -45z" />
    <glyph glyph-name="Utilde" unicode="&#x168;" horiz-adv-x="707" 
d="M534 696h219l-3 -18q-43 0 -70.5 -19.5t-34.5 -53.5l-70 -363q-26 -133 -103 -195t-188 -62q-197 0 -197 183q0 38 9 85l68 352q7 34 -13 53.5t-62 19.5l3 18h274l-3 -18q-43 0 -70.5 -19.5t-34.5 -53.5l-73 -378q-7 -40 -7 -62q0 -71 38 -106.5t103 -35.5q79 0 138 53.5
t80 165.5l70 363q7 34 -13 53.5t-63 19.5zM582 823h31q-30 -85 -96 -85q-16 0 -66 12.5t-68 12.5q-30 0 -49 -29h-30q31 85 96 85q16 0 65.5 -12.5t67.5 -12.5q30 0 49 29z" />
    <glyph glyph-name="utilde" unicode="&#x169;" 
d="M539 76q0 -6 -9.5 -19t-24.5 -28t-40 -26t-51 -11q-48 0 -70 22t-20 59h-3q-27 -35 -68.5 -58.5t-90.5 -23.5q-47 0 -80.5 27.5t-33.5 83.5q0 18 4 37l51 260q12 62 -48 62l3 18q39 10 83 10q55 0 55 -33q0 -11 -6 -47l-52 -266q-4 -24 -4 -35q0 -70 67 -70q43 0 85 35
t50 75l64 332h85l-75 -386q-3 -15 -3 -26q0 -40 40 -40q32 0 75 48q4 5 8 6t6.5 -0.5t2.5 -5.5zM433 624h31q-30 -85 -96 -85q-16 0 -66 12.5t-68 12.5q-30 0 -49 -29h-30q31 85 96 85q16 0 65.5 -12.5t67.5 -12.5q30 0 49 29z" />
    <glyph glyph-name="Umacron" unicode="&#x16a;" horiz-adv-x="707" 
d="M534 696h219l-3 -18q-43 0 -70.5 -19.5t-34.5 -53.5l-70 -363q-26 -133 -103 -195t-188 -62q-197 0 -197 183q0 38 9 85l68 352q7 34 -13 53.5t-62 19.5l3 18h274l-3 -18q-43 0 -70.5 -19.5t-34.5 -53.5l-73 -378q-7 -40 -7 -62q0 -71 38 -106.5t103 -35.5q79 0 138 53.5
t80 165.5l70 363q7 34 -13 53.5t-63 19.5zM585 807v-66h-244v66h244z" />
    <glyph glyph-name="umacron" unicode="&#x16b;" 
d="M539 76q0 -6 -9.5 -19t-24.5 -28t-40 -26t-51 -11q-48 0 -70 22t-20 59h-3q-27 -35 -68.5 -58.5t-90.5 -23.5q-47 0 -80.5 27.5t-33.5 83.5q0 18 4 37l51 260q12 62 -48 62l3 18q39 10 83 10q55 0 55 -33q0 -11 -6 -47l-52 -266q-4 -24 -4 -35q0 -70 67 -70q43 0 85 35
t50 75l64 332h85l-75 -386q-3 -15 -3 -26q0 -40 40 -40q32 0 75 48q4 5 8 6t6.5 -0.5t2.5 -5.5zM424 610v-66h-244v66h244z" />
    <glyph glyph-name="Ubreve" unicode="&#x16c;" horiz-adv-x="707" 
d="M534 696h219l-3 -18q-43 0 -70.5 -19.5t-34.5 -53.5l-70 -363q-26 -133 -103 -195t-188 -62q-197 0 -197 183q0 38 9 85l68 352q7 34 -13 53.5t-62 19.5l3 18h274l-3 -18q-43 0 -70.5 -19.5t-34.5 -53.5l-73 -378q-7 -40 -7 -62q0 -71 38 -106.5t103 -35.5q79 0 138 53.5
t80 165.5l70 363q7 34 -13 53.5t-63 19.5zM576 869h37q-26 -136 -148 -136q-120 0 -96 136h38q-6 -36 10.5 -58.5t57.5 -22.5q42 0 68 22.5t33 58.5z" />
    <glyph glyph-name="ubreve" unicode="&#x16d;" 
d="M539 76q0 -6 -9.5 -19t-24.5 -28t-40 -26t-51 -11q-48 0 -70 22t-20 59h-3q-27 -35 -68.5 -58.5t-90.5 -23.5q-47 0 -80.5 27.5t-33.5 83.5q0 18 4 37l51 260q12 62 -48 62l3 18q39 10 83 10q55 0 55 -33q0 -11 -6 -47l-52 -266q-4 -24 -4 -35q0 -70 67 -70q43 0 85 35
t50 75l64 332h85l-75 -386q-3 -15 -3 -26q0 -40 40 -40q32 0 75 48q4 5 8 6t6.5 -0.5t2.5 -5.5zM429 670h37q-26 -136 -148 -136q-120 0 -96 136h38q-6 -36 10.5 -58.5t57.5 -22.5q42 0 68 22.5t33 58.5z" />
    <glyph glyph-name="Uring" unicode="&#x16e;" horiz-adv-x="707" 
d="M534 696h219l-3 -18q-43 0 -70.5 -19.5t-34.5 -53.5l-70 -363q-26 -133 -103 -195t-188 -62q-197 0 -197 183q0 38 9 85l68 352q7 34 -13 53.5t-62 19.5l3 18h274l-3 -18q-43 0 -70.5 -19.5t-34.5 -53.5l-73 -378q-7 -40 -7 -62q0 -71 38 -106.5t103 -35.5q79 0 138 53.5
t80 165.5l70 363q7 34 -13 53.5t-63 19.5zM520 836q0 23 -16.5 39.5t-39.5 16.5t-39.5 -16.5t-16.5 -39.5t16.5 -39.5t39.5 -16.5t39.5 16.5t16.5 39.5zM567 836q0 -43 -30 -73t-73 -30t-73 30t-30 73t30 73t73 30t73 -30t30 -73z" />
    <glyph glyph-name="uring" unicode="&#x16f;" 
d="M539 76q0 -6 -9.5 -19t-24.5 -28t-40 -26t-51 -11q-48 0 -70 22t-20 59h-3q-27 -35 -68.5 -58.5t-90.5 -23.5q-47 0 -80.5 27.5t-33.5 83.5q0 18 4 37l51 260q12 62 -48 62l3 18q39 10 83 10q55 0 55 -33q0 -11 -6 -47l-52 -266q-4 -24 -4 -35q0 -70 67 -70q43 0 85 35
t50 75l64 332h85l-75 -386q-3 -15 -3 -26q0 -40 40 -40q32 0 75 48q4 5 8 6t6.5 -0.5t2.5 -5.5zM373 637q0 23 -16.5 39.5t-39.5 16.5t-39.5 -16.5t-16.5 -39.5t16.5 -39.5t39.5 -16.5t39.5 16.5t16.5 39.5zM420 637q0 -43 -30 -73t-73 -30t-73 30t-30 73t30 73t73 30
t73 -30t30 -73z" />
    <glyph glyph-name="Uhungarumlaut" unicode="&#x170;" horiz-adv-x="707" 
d="M534 696h219l-3 -18q-43 0 -70.5 -19.5t-34.5 -53.5l-70 -363q-26 -133 -103 -195t-188 -62q-197 0 -197 183q0 38 9 85l68 352q7 34 -13 53.5t-62 19.5l3 18h274l-3 -18q-43 0 -70.5 -19.5t-34.5 -53.5l-73 -378q-7 -40 -7 -62q0 -71 38 -106.5t103 -35.5q79 0 138 53.5
t80 165.5l70 363q7 34 -13 53.5t-63 19.5zM544 844q0 -25 -28 -40l-125 -71h-32l115 115q22 22 43 22q12 0 19.5 -7.5t7.5 -18.5zM668 844q0 -25 -27 -40l-126 -71h-32l115 115q22 22 44 22q12 0 19 -7.5t7 -18.5z" />
    <glyph glyph-name="uhungarumlaut" unicode="&#x171;" 
d="M539 76q0 -6 -9.5 -19t-24.5 -28t-40 -26t-51 -11q-48 0 -70 22t-20 59h-3q-27 -35 -68.5 -58.5t-90.5 -23.5q-47 0 -80.5 27.5t-33.5 83.5q0 18 4 37l51 260q12 62 -48 62l3 18q39 10 83 10q55 0 55 -33q0 -11 -6 -47l-52 -266q-4 -24 -4 -35q0 -70 67 -70q43 0 85 35
t50 75l64 332h85l-75 -386q-3 -15 -3 -26q0 -40 40 -40q32 0 75 48q4 5 8 6t6.5 -0.5t2.5 -5.5zM401 645q0 -25 -28 -40l-125 -71h-32l115 115q22 22 43 22q12 0 19.5 -7.5t7.5 -18.5zM525 645q0 -25 -27 -40l-126 -71h-32l115 115q22 22 44 22q12 0 19 -7.5t7 -18.5z" />
    <glyph glyph-name="Uogonek" unicode="&#x172;" horiz-adv-x="707" 
d="M381 -182q-2 -8 -15 -15q-38 -19 -81 -19q-48 0 -75 18t-27 51q0 70 90 132q-186 5 -186 183q0 38 9 85l68 352q7 34 -13 53.5t-62 19.5l3 18h274l-3 -18q-43 0 -70.5 -19.5t-34.5 -53.5l-73 -378q-7 -40 -7 -62q0 -71 38 -106.5t103 -35.5q79 0 138 53.5t80 165.5
l70 363q7 34 -13 53.5t-63 19.5l3 18h219l-3 -18q-43 0 -70.5 -19.5t-34.5 -53.5l-70 -363q-23 -117 -85.5 -178.5t-153.5 -74.5q-86 -65 -86 -126q0 -20 13 -34.5t40 -14.5q19 0 59 9q7 2 11.5 1.5t6.5 -2t1 -4.5z" />
    <glyph glyph-name="uogonek" unicode="&#x173;" 
d="M254 -182q-2 -8 -15 -15q-38 -19 -81 -19q-48 0 -75 18t-27 51q0 39 29 75.5t70 62.5q-45 3 -76 30t-31 81q0 18 4 37l51 260q12 62 -48 62l3 18q39 10 83 10q55 0 55 -33q0 -11 -6 -47l-52 -266q-4 -24 -4 -35q0 -70 67 -70q43 0 85 35t50 75l64 332h85l-75 -386
q-3 -15 -3 -26q0 -40 40 -40q32 0 75 48q4 5 8 6t6.5 -0.5t2.5 -5.5q0 -6 -9.5 -19t-24.5 -28t-40 -26t-51 -11q-48 0 -70 22t-20 59h-3q-31 -40 -91 -74q-48 -27 -77.5 -62.5t-29.5 -73.5q0 -20 13 -34.5t40 -14.5q18 0 59 9q7 2 11.5 1.5t6.5 -2t1 -4.5z" />
    <glyph glyph-name="Wcircumflex" unicode="&#x174;" horiz-adv-x="1015" 
d="M891 696h183l-4 -19q-40 0 -64.5 -16.5t-44.5 -55.5l-313 -605h-33l-71 502h-3l-265 -502h-35l-86 605q-11 73 -82 73l4 18h243l-4 -18q-74 0 -64 -73l61 -447h3l274 514q6 11 15.5 11t11.5 -11l72 -513h2l216 433q21 40 21 60q0 26 -41 26zM743 746q5 -5 -0.5 -11
t-12.5 -2q-8 6 -98 66h-3l-124 -66q-8 -4 -11.5 2t2.5 11q15 13 142 122h11z" />
    <glyph glyph-name="wcircumflex" unicode="&#x175;" horiz-adv-x="766" 
d="M719 362q0 -158 -93 -264.5t-205 -106.5q-40 0 -67 22.5t-32 68.5h-3q-71 -91 -166 -91q-45 0 -75 27.5t-30 83.5q0 18 4 37l51 260q12 62 -48 62l3 18q39 10 83 10q55 0 55 -33q0 -11 -6 -47l-52 -266q-4 -24 -4 -35q0 -35 12 -52.5t46 -17.5q43 0 84.5 36t49.5 76
l65 330h85l-66 -340q-4 -22 -4 -32q0 -38 12.5 -54t39.5 -16q71 0 135 82t64 176q0 38 -11.5 57t-34.5 29q-42 19 -42 54q0 22 16.5 37.5t41.5 15.5q43 0 67.5 -38.5t24.5 -88.5zM571 547q5 -5 -0.5 -11t-12.5 -2q-8 6 -98 66h-3l-124 -66q-8 -4 -11.5 2t2.5 11
q15 13 142 122h11z" />
    <glyph glyph-name="Ycircumflex" unicode="&#x176;" horiz-adv-x="669" 
d="M519 696h209l-4 -18q-38 0 -61 -19.5t-62 -72.5l-224 -303l-37 -193q-6 -33 14 -52t62 -19l-4 -19h-274l4 19q42 0 69.5 19t34.5 52l33 171l-112 325q-18 52 -36.5 72t-57.5 20l4 18h262l-4 -18q-76 0 -76 -50q0 -15 8 -41l91 -263h2l184 262q26 37 26 60q0 32 -55 32z
M568 746q5 -5 -0.5 -11t-12.5 -2q-8 6 -98 66h-3l-124 -66q-8 -4 -11.5 2t2.5 11q15 13 142 122h11z" />
    <glyph glyph-name="ycircumflex" unicode="&#x177;" horiz-adv-x="446" 
d="M396 391q0 -52 -26 -115.5t-73 -152.5l-77 -146q-57 -109 -104.5 -160.5t-96.5 -51.5q-29 0 -49 18.5t-20 48.5q0 21 14.5 36t34.5 15q17 0 26.5 -8.5t13 -19t10 -19t17.5 -8.5q46 0 119 148l2 4l-144 430q-9 28 -21.5 39.5t-37.5 11.5l4 18q34 10 58 10q60 0 73 -43
l120 -368l29 54q26 49 46 107t20 87q0 36 -29 59t-29 55q0 20 15 34.5t37 14.5q33 0 50.5 -26t17.5 -72zM329 547q5 -5 -0.5 -11t-12.5 -2q-8 6 -98 66h-3l-124 -66q-8 -4 -11.5 2t2.5 11q15 13 142 122h11z" />
    <glyph glyph-name="Ydieresis" unicode="&#x178;" horiz-adv-x="669" 
d="M519 696h209l-4 -18q-38 0 -61 -19.5t-62 -72.5l-224 -303l-37 -193q-6 -33 14 -52t62 -19l-4 -19h-274l4 19q42 0 69.5 19t34.5 52l33 171l-112 325q-18 52 -36.5 72t-57.5 20l4 18h262l-4 -18q-76 0 -76 -50q0 -15 8 -41l91 -263h2l184 262q26 37 26 60q0 32 -55 32z
M407 789q0 -23 -16.5 -39.5t-39.5 -16.5t-40 16.5t-17 39.5t17 39.5t40 16.5t39.5 -16.5t16.5 -39.5zM596 789q0 -23 -17 -39.5t-40 -16.5t-39.5 16.5t-16.5 39.5t16.5 39.5t39.5 16.5t40 -16.5t17 -39.5z" />
    <glyph glyph-name="Zacute" unicode="&#x179;" horiz-adv-x="537" 
d="M124 696h441l-4 -18l-468 -638v-2h144q83 0 119.5 27t88.5 113h19l-35 -178h-464l4 19l469 636v3h-147q-69 0 -100.5 -26t-80.5 -106h-19zM482 844q0 -25 -28 -40l-125 -71h-32l115 115q22 22 43 22q12 0 19.5 -7.5t7.5 -18.5z" />
    <glyph glyph-name="zacute" unicode="&#x17a;" horiz-adv-x="509" 
d="M469 440q0 -29 -13.5 -54.5t-45 -51.5t-56.5 -42.5t-74 -46.5q-15 -9 -23 -14q-47 -29 -65 -40t-47 -31t-42 -33t-19 -26q48 5 127 -12t109 -17q33 0 48.5 13t15.5 32q0 30 -30 56q-7 7 -5 11t8 4q16 0 41.5 -31t25.5 -74q0 -41 -28 -67t-78 -26q-45 0 -85.5 18.5
t-73.5 37t-59 18.5q-23 0 -23 -19q0 -2 1.5 -9.5t1.5 -11.5q0 -16 -11 -25t-27 -9q-19 0 -30.5 12.5t-11.5 36.5q0 21 10.5 42t23 36t40 35t45 30.5t55.5 33t54 32.5q140 85 157 129q-49 -4 -118 15t-94 19q-49 0 -49 -33q0 -19 23 -45q4 -5 2.5 -9.5t-6.5 -4.5
q-14 0 -34.5 28t-20.5 57q0 38 25 61t69 23q45 0 101 -37t85 -37q24 0 24 19q0 2 -1.5 10t-1.5 12q0 16 11 24.5t27 8.5q42 0 42 -48zM473 645q0 -25 -28 -40l-125 -71h-32l115 115q22 22 43 22q12 0 19.5 -7.5t7.5 -18.5z" />
    <glyph glyph-name="Zdotaccent" unicode="&#x17b;" horiz-adv-x="537" 
d="M124 696h441l-4 -18l-468 -638v-2h144q83 0 119.5 27t88.5 113h19l-35 -178h-464l4 19l469 636v3h-147q-69 0 -100.5 -26t-80.5 -106h-19zM411 789q0 -23 -16.5 -39.5t-39.5 -16.5t-39.5 16.5t-16.5 39.5t16.5 39.5t39.5 16.5t39.5 -16.5t16.5 -39.5z" />
    <glyph glyph-name="zdotaccent" unicode="&#x17c;" horiz-adv-x="509" 
d="M469 440q0 -29 -13.5 -54.5t-45 -51.5t-56.5 -42.5t-74 -46.5q-15 -9 -23 -14q-47 -29 -65 -40t-47 -31t-42 -33t-19 -26q48 5 127 -12t109 -17q33 0 48.5 13t15.5 32q0 30 -30 56q-7 7 -5 11t8 4q16 0 41.5 -31t25.5 -74q0 -41 -28 -67t-78 -26q-45 0 -85.5 18.5
t-73.5 37t-59 18.5q-23 0 -23 -19q0 -2 1.5 -9.5t1.5 -11.5q0 -16 -11 -25t-27 -9q-19 0 -30.5 12.5t-11.5 36.5q0 21 10.5 42t23 36t40 35t45 30.5t55.5 33t54 32.5q140 85 157 129q-49 -4 -118 15t-94 19q-49 0 -49 -33q0 -19 23 -45q4 -5 2.5 -9.5t-6.5 -4.5
q-14 0 -34.5 28t-20.5 57q0 38 25 61t69 23q45 0 101 -37t85 -37q24 0 24 19q0 2 -1.5 10t-1.5 12q0 16 11 24.5t27 8.5q42 0 42 -48zM382 590q0 -23 -16.5 -39.5t-39.5 -16.5t-39.5 16.5t-16.5 39.5t16.5 39.5t39.5 16.5t39.5 -16.5t16.5 -39.5z" />
    <glyph glyph-name="Zcaron" unicode="&#x17d;" horiz-adv-x="537" 
d="M124 696h441l-4 -18l-468 -638v-2h144q83 0 119.5 27t88.5 113h19l-35 -178h-464l4 19l469 636v3h-147q-69 0 -100.5 -26t-80.5 -106h-19zM484 855q-15 -13 -142 -122h-11l-94 122q-5 5 0.5 11t12.5 2q8 -6 98 -66h3l124 66q8 4 11.5 -2t-2.5 -11z" />
    <glyph glyph-name="zcaron" unicode="&#x17e;" horiz-adv-x="509" 
d="M469 440q0 -29 -13.5 -54.5t-45 -51.5t-56.5 -42.5t-74 -46.5q-15 -9 -23 -14q-47 -29 -65 -40t-47 -31t-42 -33t-19 -26q48 5 127 -12t109 -17q33 0 48.5 13t15.5 32q0 30 -30 56q-7 7 -5 11t8 4q16 0 41.5 -31t25.5 -74q0 -41 -28 -67t-78 -26q-45 0 -85.5 18.5
t-73.5 37t-59 18.5q-23 0 -23 -19q0 -2 1.5 -9.5t1.5 -11.5q0 -16 -11 -25t-27 -9q-19 0 -30.5 12.5t-11.5 36.5q0 21 10.5 42t23 36t40 35t45 30.5t55.5 33t54 32.5q140 85 157 129q-49 -4 -118 15t-94 19q-49 0 -49 -33q0 -19 23 -45q4 -5 2.5 -9.5t-6.5 -4.5
q-14 0 -34.5 28t-20.5 57q0 38 25 61t69 23q45 0 101 -37t85 -37q24 0 24 19q0 2 -1.5 10t-1.5 12q0 16 11 24.5t27 8.5q42 0 42 -48zM468 656q-15 -13 -142 -122h-11l-94 122q-5 5 0.5 11t12.5 2q8 -6 98 -66h3l124 66q8 4 11.5 -2t-2.5 -11z" />
    <glyph glyph-name="florin" unicode="&#x192;" horiz-adv-x="288" 
d="M403 652q0 -21 -13.5 -35.5t-34.5 -14.5q-17 0 -30.5 12.5t-13.5 31.5q0 7 3.5 20t3.5 15q0 17 -20 17q-26 0 -44 -22.5t-25 -58.5l-27 -138h94l-6 -30h-94l-87 -446q-26 -130 -78 -184t-116 -54q-39 0 -63 18t-24 47q0 22 14 37.5t37 15.5q19 0 30 -12.5t11 -29.5
q0 -6 -2.5 -16t-2.5 -14q0 -6 5.5 -11t14.5 -5q49 0 70 108l106 546h-75l6 30h75l15 75q15 75 62.5 122.5t117.5 47.5q41 0 66 -20.5t25 -51.5z" />
    <glyph glyph-name="AEacute" unicode="&#x1fc;" horiz-adv-x="985" 
d="M519 282l46 252h-3l-235 -252h192zM510 696h483l-33 -170h-18q-17 86 -40.5 109t-94.5 23h-37.5t-29 -1.5t-25.5 -4.5t-17 -9t-14 -15.5t-7 -22.5l-43 -220h83q36 0 68 25.5t40 68.5h18l-43 -225h-18q8 43 -14.5 68.5t-57.5 25.5h-83l-50 -258q-5 -25 6 -36.5t28.5 -13.5
t63.5 -2h12q81 0 118.5 26t90.5 114h19l-35 -178h-506l4 19q42 0 69.5 19t34.5 52l30 154h-220l-118 -127q-45 -47 -45 -72q0 -26 51 -26l-4 -19h-234l4 19q72 0 169 101l468 489q5 32 -15.5 50t-61.5 18zM931 852q0 -25 -28 -40l-125 -71h-32l115 115q22 22 43 22
q12 0 19.5 -7.5t7.5 -18.5z" />
    <glyph glyph-name="aeacute" unicode="&#x1fd;" horiz-adv-x="773" 
d="M310 148l48 251q12 62 -50 62q-76 0 -143.5 -96t-67.5 -229q0 -45 19 -72t52 -27q42 0 89 38.5t53 72.5zM647 401q0 22 -15 38t-43 16q-53 0 -101 -53t-69 -133q118 9 173 49.5t55 82.5zM733 394q0 -129 -320 -152q-6 -32 -6 -65q0 -76 33 -112.5t83 -36.5q72 0 149 63
q14 11 18 3v-5q-2 -6 -4 -8q-31 -37 -82 -63.5t-105 -26.5q-65 0 -111.5 32t-61.5 86h-3q-23 -40 -77 -79t-113 -39q-57 0 -90 40t-33 104q0 142 101.5 248t235.5 106q43 0 69.5 -16t29.5 -43h3q28 26 73 43t83 17q55 0 91.5 -28.5t36.5 -67.5zM653 645q0 -25 -28 -40
l-125 -71h-32l115 115q22 22 43 22q12 0 19.5 -7.5t7.5 -18.5z" />
    <glyph glyph-name="Oslashacute" unicode="&#x1fe;" horiz-adv-x="709" 
d="M561 467q0 29 -3 56l-398 -389q30 -111 132 -111q54 0 100 31t76.5 80t52 109t31 117.5t9.5 106.5zM152 173l398 388q-31 112 -132 112q-67 0 -121 -46.5t-85 -117t-47.5 -144t-16.5 -136.5q0 -32 4 -56zM689 696h46l-101 -98q30 -58 30 -142q0 -79 -27.5 -162t-75 -152
t-121 -113t-156.5 -44q-129 0 -191 84l-70 -69h-49l101 98q-30 58 -30 142q0 79 27.5 162t75.5 152t121.5 113t156.5 44q130 0 191 -85zM575 844q0 -25 -28 -40l-125 -71h-32l115 115q22 22 43 22q12 0 19.5 -7.5t7.5 -18.5z" />
    <glyph glyph-name="oslashacute" unicode="&#x1ff;" horiz-adv-x="509" 
d="M352 334v9l-251 -248q13 -67 77 -67q49 0 89.5 45.5t62.5 115.5t22 145zM97 136l251 248q-15 67 -78 67q-54 0 -94.5 -51t-59 -118.5t-19.5 -135.5v-10zM443 479h46l-68 -68q18 -38 18 -92q0 -55 -17 -111t-48.5 -105.5t-83 -80.5t-114.5 -31q-88 0 -130 50l-41 -41h-45
l69 68q-19 38 -19 93q0 80 31 154.5t93 124t139 49.5q88 0 130 -50zM424 645q0 -25 -28 -40l-125 -71h-32l115 115q22 22 43 22q12 0 19.5 -7.5t7.5 -18.5z" />
    <glyph glyph-name="Adblgrave" unicode="&#x200;" horiz-adv-x="713" 
d="M222 282h210l-51 267h-9zM638 19l-3 -19h-231l3 19q40 0 53.5 26.5t5.5 64.5l-26 134h-239l-70 -127q-28 -50 -28 -64q0 -34 62 -34l-3 -19h-220l3 19q80 0 138 101l334 583h30l116 -593q6 -31 11 -46.5t21 -30t43 -14.5zM272 848l115 -115h-32l-126 71q-27 15 -27 40
q0 11 7 18.5t19 7.5q22 0 44 -22zM396 848l115 -115h-32l-125 71q-28 15 -28 40q0 11 7.5 18.5t19.5 7.5q21 0 43 -22z" />
    <glyph glyph-name="adblgrave" unicode="&#x201;" horiz-adv-x="544" 
d="M309 148l48 251q12 62 -49 62q-76 0 -143.5 -96t-67.5 -229q0 -45 19 -72t52 -27q42 0 88.5 38.5t52.5 72.5zM512 76q0 -9 -14.5 -28t-45.5 -38t-65 -19q-89 0 -89 82v5h-4q-84 -87 -161 -87q-57 0 -90 40t-33 104q0 142 101.5 248t235.5 106q51 0 77.5 -21.5t19.5 -58.5
l-61 -316q-3 -15 -3 -26q0 -40 40 -40q31 0 74 48q4 5 8.5 6.5t7 0t2.5 -5.5zM187 649l115 -115h-32l-126 71q-27 15 -27 40q0 11 7 18.5t19 7.5q22 0 44 -22zM311 649l115 -115h-32l-125 71q-28 15 -28 40q0 11 7.5 18.5t19.5 7.5q21 0 43 -22z" />
    <glyph glyph-name="Ainvertedbreve" unicode="&#x202;" horiz-adv-x="713" 
d="M222 282h210l-51 267h-9zM638 19l-3 -19h-231l3 19q40 0 53.5 26.5t5.5 64.5l-26 134h-239l-70 -127q-28 -50 -28 -64q0 -34 62 -34l-3 -19h-220l3 19q80 0 138 101l334 583h30l116 -593q6 -31 11 -46.5t21 -30t43 -14.5zM553 733h-38q6 36 -10.5 58.5t-57.5 22.5
q-42 0 -68 -22.5t-33 -58.5h-37q26 136 146 136q122 0 98 -136z" />
    <glyph glyph-name="ainvertedbreve" unicode="&#x203;" horiz-adv-x="544" 
d="M309 148l48 251q12 62 -49 62q-76 0 -143.5 -96t-67.5 -229q0 -45 19 -72t52 -27q42 0 88.5 38.5t52.5 72.5zM512 76q0 -9 -14.5 -28t-45.5 -38t-65 -19q-89 0 -89 82v5h-4q-84 -87 -161 -87q-57 0 -90 40t-33 104q0 142 101.5 248t235.5 106q51 0 77.5 -21.5t19.5 -58.5
l-61 -316q-3 -15 -3 -26q0 -40 40 -40q31 0 74 48q4 5 8.5 6.5t7 0t2.5 -5.5zM469 534h-38q6 36 -10.5 58.5t-57.5 22.5q-42 0 -68 -22.5t-33 -58.5h-37q26 136 146 136q122 0 98 -136z" />
    <glyph glyph-name="Edblgrave" unicode="&#x204;" horiz-adv-x="576" 
d="M101 696h483l-33 -170h-18q-17 86 -40.5 109t-94.5 23q-32 0 -44.5 -0.5t-32.5 -3t-27.5 -7.5t-15.5 -15.5t-11 -26.5l-43 -220h84q36 0 68 25.5t40 68.5h18l-43 -225h-18q8 43 -14.5 68.5t-57.5 25.5h-84l-50 -258q-4 -19 -1 -30t19 -15.5t30.5 -5.5t50.5 -1h12
q81 0 118.5 26t90.5 114h19l-35 -178h-506l4 19q42 0 69.5 19t34.5 52l100 515q7 34 -13 53t-63 19zM203 848l115 -115h-32l-126 71q-27 15 -27 40q0 11 7 18.5t19 7.5q22 0 44 -22zM327 848l115 -115h-32l-125 71q-28 15 -28 40q0 11 7.5 18.5t19.5 7.5q21 0 43 -22z" />
    <glyph glyph-name="edblgrave" unicode="&#x205;" horiz-adv-x="466" 
d="M340 401q0 22 -15 38t-43 16q-54 0 -103 -53.5t-70 -132.5q118 9 174.5 49.5t56.5 82.5zM426 394q0 -129 -323 -152q-6 -32 -6 -65q0 -76 34 -112.5t85 -36.5q72 0 149 63q14 11 18 3v-5q-2 -6 -4 -8q-31 -37 -82 -63.5t-105 -26.5q-81 0 -131.5 47.5t-50.5 128.5
q0 135 91 229t197 94q55 0 91.5 -28.5t36.5 -67.5zM148 649l115 -115h-32l-126 71q-27 15 -27 40q0 11 7 18.5t19 7.5q22 0 44 -22zM272 649l115 -115h-32l-125 71q-28 15 -28 40q0 11 7.5 18.5t19.5 7.5q21 0 43 -22z" />
    <glyph glyph-name="Einvertedbreve" unicode="&#x206;" horiz-adv-x="576" 
d="M101 696h483l-33 -170h-18q-17 86 -40.5 109t-94.5 23q-32 0 -44.5 -0.5t-32.5 -3t-27.5 -7.5t-15.5 -15.5t-11 -26.5l-43 -220h84q36 0 68 25.5t40 68.5h18l-43 -225h-18q8 43 -14.5 68.5t-57.5 25.5h-84l-50 -258q-4 -19 -1 -30t19 -15.5t30.5 -5.5t50.5 -1h12
q81 0 118.5 26t90.5 114h19l-35 -178h-506l4 19q42 0 69.5 19t34.5 52l100 515q7 34 -13 53t-63 19zM479 733h-38q6 36 -10.5 58.5t-57.5 22.5q-42 0 -68 -22.5t-33 -58.5h-37q26 136 146 136q122 0 98 -136z" />
    <glyph glyph-name="einvertedbreve" unicode="&#x207;" horiz-adv-x="466" 
d="M340 401q0 22 -15 38t-43 16q-54 0 -103 -53.5t-70 -132.5q118 9 174.5 49.5t56.5 82.5zM426 394q0 -129 -323 -152q-6 -32 -6 -65q0 -76 34 -112.5t85 -36.5q72 0 149 63q14 11 18 3v-5q-2 -6 -4 -8q-31 -37 -82 -63.5t-105 -26.5q-81 0 -131.5 47.5t-50.5 128.5
q0 135 91 229t197 94q55 0 91.5 -28.5t36.5 -67.5zM420 534h-38q6 36 -10.5 58.5t-57.5 22.5q-42 0 -68 -22.5t-33 -58.5h-37q26 136 146 136q122 0 98 -136z" />
    <glyph glyph-name="Idblgrave" unicode="&#x208;" horiz-adv-x="340" 
d="M101 696h274l-4 -19q-43 0 -70 -19t-34 -53l-100 -515q-7 -33 13 -52t63 -19l-4 -19h-274l4 19q42 0 69.5 19t34.5 52l100 515q7 34 -13 53t-63 19zM86 848l115 -115h-32l-126 71q-27 15 -27 40q0 11 7 18.5t19 7.5q22 0 44 -22zM210 848l115 -115h-32l-125 71
q-28 15 -28 40q0 11 7.5 18.5t19.5 7.5q21 0 43 -22z" />
    <glyph glyph-name="idblgrave" unicode="&#x209;" horiz-adv-x="289" 
d="M257 76q0 -9 -14.5 -28t-45.5 -38t-65 -19q-89 0 -89 82q0 25 5 48l54 278q12 62 -48 62l3 18q39 10 83 10q30 0 43.5 -10.5t11.5 -28.5q-1 -16 -6 -41l-61 -316q-3 -15 -3 -26q0 -40 40 -40q32 0 75 48q4 5 8 6.5t6.5 0t2.5 -5.5zM7 649l115 -115h-32l-126 71
q-27 15 -27 40q0 11 7 18.5t19 7.5q22 0 44 -22zM131 649l115 -115h-32l-125 71q-28 15 -28 40q0 11 7.5 18.5t19.5 7.5q21 0 43 -22z" />
    <glyph glyph-name="Iinvertedbreve" unicode="&#x20a;" horiz-adv-x="340" 
d="M101 696h274l-4 -19q-43 0 -70 -19t-34 -53l-100 -515q-7 -33 13 -52t63 -19l-4 -19h-274l4 19q42 0 69.5 19t34.5 52l100 515q7 34 -13 53t-63 19zM363 733h-38q6 36 -10.5 58.5t-57.5 22.5q-42 0 -68 -22.5t-33 -58.5h-37q26 136 146 136q122 0 98 -136z" />
    <glyph glyph-name="iinvertedbreve" unicode="&#x20b;" horiz-adv-x="289" 
d="M257 76q0 -9 -14.5 -28t-45.5 -38t-65 -19q-89 0 -89 82q0 25 5 48l54 278q12 62 -48 62l3 18q39 10 83 10q30 0 43.5 -10.5t11.5 -28.5q-1 -16 -6 -41l-61 -316q-3 -15 -3 -26q0 -40 40 -40q32 0 75 48q4 5 8 6.5t6.5 0t2.5 -5.5zM259 534h-38q6 36 -10.5 58.5
t-57.5 22.5q-42 0 -68 -22.5t-33 -58.5h-37q26 136 146 136q122 0 98 -136z" />
    <glyph glyph-name="Odblgrave" unicode="&#x20c;" horiz-adv-x="709" 
d="M561 467q0 92 -34.5 149t-108.5 57q-67 0 -121 -46.5t-85 -117t-47.5 -144t-16.5 -136.5q0 -92 35 -149t109 -57q54 0 100 31t76.5 80t52 109t31 117.5t9.5 106.5zM664 456q0 -79 -27.5 -162t-75 -152t-121 -113t-156.5 -44q-117 0 -178 68t-61 187q0 79 27.5 162
t75.5 152t121.5 113t156.5 44q117 0 177.5 -68t60.5 -187zM270 848l115 -115h-32l-126 71q-27 15 -27 40q0 11 7 18.5t19 7.5q22 0 44 -22zM394 848l115 -115h-32l-125 71q-28 15 -28 40q0 11 7.5 18.5t19.5 7.5q21 0 43 -22z" />
    <glyph glyph-name="odblgrave" unicode="&#x20d;" horiz-adv-x="509" 
d="M352 334q0 117 -82 117q-54 0 -94.5 -51t-59 -118.5t-19.5 -135.5q0 -56 17.5 -87t63.5 -31q49 0 89.5 45.5t62.5 115.5t22 145zM439 319q0 -55 -17 -111t-48.5 -105.5t-83 -80.5t-114.5 -31q-84 0 -125 44.5t-41 125.5q0 80 31 154.5t93 124t139 49.5q83 0 124.5 -44.5
t41.5 -125.5zM136 649l115 -115h-32l-126 71q-27 15 -27 40q0 11 7 18.5t19 7.5q22 0 44 -22zM260 649l115 -115h-32l-125 71q-28 15 -28 40q0 11 7.5 18.5t19.5 7.5q21 0 43 -22z" />
    <glyph glyph-name="Oinvertedbreve" unicode="&#x20e;" horiz-adv-x="709" 
d="M561 467q0 92 -34.5 149t-108.5 57q-67 0 -121 -46.5t-85 -117t-47.5 -144t-16.5 -136.5q0 -92 35 -149t109 -57q54 0 100 31t76.5 80t52 109t31 117.5t9.5 106.5zM664 456q0 -79 -27.5 -162t-75 -152t-121 -113t-156.5 -44q-117 0 -178 68t-61 187q0 79 27.5 162
t75.5 152t121.5 113t156.5 44q117 0 177.5 -68t60.5 -187zM568 733h-38q6 36 -10.5 58.5t-57.5 22.5q-42 0 -68 -22.5t-33 -58.5h-37q26 136 146 136q122 0 98 -136z" />
    <glyph glyph-name="oinvertedbreve" unicode="&#x20f;" horiz-adv-x="509" 
d="M352 334q0 117 -82 117q-54 0 -94.5 -51t-59 -118.5t-19.5 -135.5q0 -56 17.5 -87t63.5 -31q49 0 89.5 45.5t62.5 115.5t22 145zM439 319q0 -55 -17 -111t-48.5 -105.5t-83 -80.5t-114.5 -31q-84 0 -125 44.5t-41 125.5q0 80 31 154.5t93 124t139 49.5q83 0 124.5 -44.5
t41.5 -125.5zM422 534h-38q6 36 -10.5 58.5t-57.5 22.5q-42 0 -68 -22.5t-33 -58.5h-37q26 136 146 136q122 0 98 -136z" />
    <glyph glyph-name="Rdblgrave" unicode="&#x210;" horiz-adv-x="706" 
d="M490 533q0 59 -34.5 92t-97.5 33q-82 0 -91 -49l-51 -266h82q87 0 139.5 52t52.5 138zM632 19l-4 -19h-161l-18 26q-42 69 -152 279h-88l-42 -215q-7 -33 13.5 -52t63.5 -19l-4 -19h-275l4 19q89 0 104 71l100 515q7 34 -13 53.5t-63 19.5l4 18h300q96 0 144 -40.5
t48 -104.5q0 -82 -58.5 -148t-140.5 -80v-3l106 -186q37 -65 54 -83q31 -32 78 -32zM208 848l115 -115h-32l-126 71q-27 15 -27 40q0 11 7 18.5t19 7.5q22 0 44 -22zM332 848l115 -115h-32l-125 71q-28 15 -28 40q0 11 7.5 18.5t19.5 7.5q21 0 43 -22z" />
    <glyph glyph-name="rdblgrave" unicode="&#x211;" horiz-adv-x="389" 
d="M389 433q0 -21 -13 -36t-33 -15q-21 0 -36 23.5t-32 23.5q-19 0 -45.5 -20t-50.5 -57l-69 -352h-85l78 399q12 62 -48 62l3 18q39 10 83 10q55 0 55 -33q0 -8 -6 -47l-1 -7h3q34 49 72.5 68t62.5 19q29 0 45.5 -16.5t16.5 -39.5zM91 649l115 -115h-32l-126 71
q-27 15 -27 40q0 11 7 18.5t19 7.5q22 0 44 -22zM215 649l115 -115h-32l-125 71q-28 15 -28 40q0 11 7.5 18.5t19.5 7.5q21 0 43 -22z" />
    <glyph glyph-name="Rinvertedbreve" unicode="&#x212;" horiz-adv-x="706" 
d="M490 533q0 59 -34.5 92t-97.5 33q-82 0 -91 -49l-51 -266h82q87 0 139.5 52t52.5 138zM632 19l-4 -19h-161l-18 26q-42 69 -152 279h-88l-42 -215q-7 -33 13.5 -52t63.5 -19l-4 -19h-275l4 19q89 0 104 71l100 515q7 34 -13 53.5t-63 19.5l4 18h300q96 0 144 -40.5
t48 -104.5q0 -82 -58.5 -148t-140.5 -80v-3l106 -186q37 -65 54 -83q31 -32 78 -32zM467 733h-38q6 36 -10.5 58.5t-57.5 22.5q-42 0 -68 -22.5t-33 -58.5h-37q26 136 146 136q122 0 98 -136z" />
    <glyph glyph-name="rinvertedbreve" unicode="&#x213;" horiz-adv-x="389" 
d="M389 433q0 -21 -13 -36t-33 -15q-21 0 -36 23.5t-32 23.5q-19 0 -45.5 -20t-50.5 -57l-69 -352h-85l78 399q12 62 -48 62l3 18q39 10 83 10q55 0 55 -33q0 -8 -6 -47l-1 -7h3q34 49 72.5 68t62.5 19q29 0 45.5 -16.5t16.5 -39.5zM365 534h-38q6 36 -10.5 58.5t-57.5 22.5
q-42 0 -68 -22.5t-33 -58.5h-37q26 136 146 136q122 0 98 -136z" />
    <glyph glyph-name="Udblgrave" unicode="&#x214;" horiz-adv-x="707" 
d="M534 696h219l-3 -18q-43 0 -70.5 -19.5t-34.5 -53.5l-70 -363q-26 -133 -103 -195t-188 -62q-197 0 -197 183q0 38 9 85l68 352q7 34 -13 53.5t-62 19.5l3 18h274l-3 -18q-43 0 -70.5 -19.5t-34.5 -53.5l-73 -378q-7 -40 -7 -62q0 -71 38 -106.5t103 -35.5q79 0 138 53.5
t80 165.5l70 363q7 34 -13 53.5t-63 19.5zM298 848l115 -115h-32l-126 71q-27 15 -27 40q0 11 7 18.5t19 7.5q22 0 44 -22zM422 848l115 -115h-32l-125 71q-28 15 -28 40q0 11 7.5 18.5t19.5 7.5q21 0 43 -22z" />
    <glyph glyph-name="udblgrave" unicode="&#x215;" 
d="M539 76q0 -6 -9.5 -19t-24.5 -28t-40 -26t-51 -11q-48 0 -70 22t-20 59h-3q-27 -35 -68.5 -58.5t-90.5 -23.5q-47 0 -80.5 27.5t-33.5 83.5q0 18 4 37l51 260q12 62 -48 62l3 18q39 10 83 10q55 0 55 -33q0 -11 -6 -47l-52 -266q-4 -24 -4 -35q0 -70 67 -70q43 0 85 35
t50 75l64 332h85l-75 -386q-3 -15 -3 -26q0 -40 40 -40q32 0 75 48q4 5 8 6t6.5 -0.5t2.5 -5.5zM138 649l115 -115h-32l-126 71q-27 15 -27 40q0 11 7 18.5t19 7.5q22 0 44 -22zM262 649l115 -115h-32l-125 71q-28 15 -28 40q0 11 7.5 18.5t19.5 7.5q21 0 43 -22z" />
    <glyph glyph-name="Uinvertedbreve" unicode="&#x216;" horiz-adv-x="707" 
d="M534 696h219l-3 -18q-43 0 -70.5 -19.5t-34.5 -53.5l-70 -363q-26 -133 -103 -195t-188 -62q-197 0 -197 183q0 38 9 85l68 352q7 34 -13 53.5t-62 19.5l3 18h274l-3 -18q-43 0 -70.5 -19.5t-34.5 -53.5l-73 -378q-7 -40 -7 -62q0 -71 38 -106.5t103 -35.5q79 0 138 53.5
t80 165.5l70 363q7 34 -13 53.5t-63 19.5zM577 733h-38q6 36 -10.5 58.5t-57.5 22.5q-42 0 -68 -22.5t-33 -58.5h-37q26 136 146 136q122 0 98 -136z" />
    <glyph glyph-name="uinvertedbreve" unicode="&#x217;" 
d="M539 76q0 -6 -9.5 -19t-24.5 -28t-40 -26t-51 -11q-48 0 -70 22t-20 59h-3q-27 -35 -68.5 -58.5t-90.5 -23.5q-47 0 -80.5 27.5t-33.5 83.5q0 18 4 37l51 260q12 62 -48 62l3 18q39 10 83 10q55 0 55 -33q0 -11 -6 -47l-52 -266q-4 -24 -4 -35q0 -70 67 -70q43 0 85 35
t50 75l64 332h85l-75 -386q-3 -15 -3 -26q0 -40 40 -40q32 0 75 48q4 5 8 6t6.5 -0.5t2.5 -5.5zM424 534h-38q6 36 -10.5 58.5t-57.5 22.5q-42 0 -68 -22.5t-33 -58.5h-37q26 136 146 136q122 0 98 -136z" />
    <glyph glyph-name="Scommaaccent" unicode="&#x218;" horiz-adv-x="591" 
d="M513 711h18l-44 -222h-18q-19 90 -51 137t-102 47q-59 0 -97 -37t-38 -93q0 -60 68 -101l117 -69q119 -70 119 -176q0 -93 -68.5 -152.5t-173.5 -59.5q-96 0 -185 57q-10 -5 -20.5 -15.5t-15.5 -18.5l-5 -8h-17l43 217h17q56 -197 189 -197q61 0 97 41t36 105
q0 53 -17 81t-59 52l-106 63q-101 60 -101 154q0 85 64.5 140t156.5 55q71 0 151 -41q10 5 20.5 15t16.5 18zM287 -93q0 -103 -97 -156q-16 -8 -16 1q0 7 9 13q41 31 49 70q3 14 -1 19.5t-17 6.5q-16 2 -28 19t-12 33q0 22 16.5 39.5t40.5 17.5q28 0 42 -18t14 -45z" />
    <glyph glyph-name="scommaaccent" unicode="&#x219;" horiz-adv-x="413" 
d="M353 396q0 -23 -14 -38.5t-37 -15.5q-20 0 -33.5 11.5t-13.5 31.5q0 11 6 25t6 19q0 16 -18 24t-38 8q-41 0 -70.5 -24t-29.5 -59q0 -47 47 -68l81 -36q105 -46 105 -136q0 -60 -55 -103.5t-137 -43.5q-66 0 -109 29.5t-43 70.5q0 26 16.5 43.5t38.5 17.5q20 0 33.5 -14
t13.5 -34q0 -14 -7 -27.5t-7 -20.5q0 -17 20 -27t47 -10q48 0 78.5 27t30.5 67q0 58 -71 90l-81 37q-72 33 -72 104q0 56 49 100.5t127 44.5q60 0 98.5 -28t38.5 -65zM207 -93q0 -103 -97 -156q-16 -8 -16 1q0 7 9 13q41 31 49 70q3 14 -1 19.5t-17 6.5q-16 2 -28 19t-12 33
q0 22 16.5 39.5t40.5 17.5q28 0 42 -18t14 -45z" />
    <glyph glyph-name="circumflex" unicode="&#x2c6;" horiz-adv-x="470" 
d="M351 547q5 -5 -0.5 -11t-12.5 -2q-8 6 -98 66h-3l-124 -66q-8 -4 -11.5 2t2.5 11q15 13 142 122h11z" />
    <glyph glyph-name="caron" unicode="&#x2c7;" horiz-adv-x="469" 
d="M382 656q-15 -13 -142 -122h-11l-94 122q-5 5 0.5 11t12.5 2q8 -6 98 -66h3l124 66q8 4 11.5 -2t-2.5 -11z" />
    <glyph glyph-name="breve" unicode="&#x2d8;" horiz-adv-x="470" 
d="M353 670h37q-26 -136 -148 -136q-120 0 -96 136h38q-6 -36 10.5 -58.5t57.5 -22.5q42 0 68 22.5t33 58.5z" />
    <glyph glyph-name="dotaccent" unicode="&#x2d9;" horiz-adv-x="470" 
d="M291 590q0 -23 -16.5 -39.5t-39.5 -16.5t-39.5 16.5t-16.5 39.5t16.5 39.5t39.5 16.5t39.5 -16.5t16.5 -39.5z" />
    <glyph glyph-name="ring" unicode="&#x2da;" horiz-adv-x="470" 
d="M291 637q0 23 -16.5 39.5t-39.5 16.5t-39.5 -16.5t-16.5 -39.5t16.5 -39.5t39.5 -16.5t39.5 16.5t16.5 39.5zM338 637q0 -43 -30 -73t-73 -30t-73 30t-30 73t30 73t73 30t73 -30t30 -73z" />
    <glyph glyph-name="ogonek" unicode="&#x2db;" horiz-adv-x="470" 
d="M337 -182q-2 -8 -15 -15q-38 -19 -81 -19q-48 0 -75 18t-27 51q0 45 37 85.5t84 65.5h54q-108 -71 -108 -141q0 -20 13 -34.5t40 -14.5q19 0 59 9q7 2 11.5 1.5t6.5 -2t1 -4.5z" />
    <glyph glyph-name="tilde" unicode="&#x2dc;" horiz-adv-x="470" 
d="M358 624h31q-30 -85 -96 -85q-16 0 -66 12.5t-68 12.5q-30 0 -49 -29h-30q31 85 96 85q16 0 65.5 -12.5t67.5 -12.5q30 0 49 29z" />
    <glyph glyph-name="hungarumlaut" unicode="&#x2dd;" horiz-adv-x="469" 
d="M257 645q0 -25 -28 -40l-125 -71h-32l115 115q22 22 43 22q12 0 19.5 -7.5t7.5 -18.5zM381 645q0 -25 -27 -40l-126 -71h-32l115 115q22 22 44 22q12 0 19 -7.5t7 -18.5z" />
    <glyph glyph-name="invertedbreve" unicode="&#x311;" horiz-adv-x="470" 
d="M354 534h-38q6 36 -10.5 58.5t-57.5 22.5q-42 0 -68 -22.5t-33 -58.5h-37q26 136 146 136q122 0 98 -136z" />
    <glyph glyph-name="tonos" unicode="&#x384;" horiz-adv-x="470" 
d="M293 684q0 -32 -23 -69l-50 -81h-35q21 105 25 118q18 57 52 57q31 0 31 -25z" />
    <glyph glyph-name="dieresistonos" unicode="&#x385;" horiz-adv-x="470" 
d="M294 682q0 -25 -23 -64l-50 -84h-35q23 105 26 118q13 57 51 57q31 0 31 -27zM167 590q0 -23 -16.5 -39.5t-39.5 -16.5t-39.5 16.5t-16.5 39.5t16.5 40t39.5 17t39.5 -17t16.5 -40zM412 590q0 -23 -16.5 -39.5t-39.5 -16.5t-39.5 16.5t-16.5 39.5t16.5 40t39.5 17
t39.5 -17t16.5 -40z" />
    <glyph glyph-name="Alphatonos" unicode="&#x386;" horiz-adv-x="713" 
d="M222 282h210l-51 267h-9zM638 19l-3 -19h-231l3 19q40 0 53.5 26.5t5.5 64.5l-26 134h-239l-70 -127q-28 -50 -28 -64q0 -34 62 -34l-3 -19h-220l3 19q80 0 138 101l334 583h30l116 -593q6 -31 11 -46.5t21 -30t43 -14.5zM528 885q0 -32 -23 -69l-50 -81h-35
q21 105 25 118q18 57 52 57q31 0 31 -25z" />
    <glyph glyph-name="Epsilontonos" unicode="&#x388;" horiz-adv-x="576" 
d="M101 696h483l-33 -170h-18q-17 86 -40.5 109t-94.5 23q-32 0 -44.5 -0.5t-32.5 -3t-27.5 -7.5t-15.5 -15.5t-11 -26.5l-43 -220h84q36 0 68 25.5t40 68.5h18l-43 -225h-18q8 43 -14.5 68.5t-57.5 25.5h-84l-50 -258q-4 -19 -1 -30t19 -15.5t30.5 -5.5t50.5 -1h12
q81 0 118.5 26t90.5 114h19l-35 -178h-506l4 19q42 0 69.5 19t34.5 52l100 515q7 34 -13 53t-63 19zM459 883q0 -32 -23 -69l-50 -81h-35q21 105 25 118q18 57 52 57q31 0 31 -25z" />
    <glyph glyph-name="Etatonos" unicode="&#x389;" horiz-adv-x="768" 
d="M530 696h273l-4 -19q-43 0 -70 -19t-34 -53l-100 -515q-7 -33 13 -52t63 -19l-4 -19h-273l4 19q88 0 103 71l50 258h-334l-50 -258q-7 -33 13.5 -52t63.5 -19l-4 -19h-275l4 19q42 0 69.5 19t34.5 52l100 515q7 34 -13 53t-63 19l4 19h275l-4 -19q-43 0 -70.5 -19
t-34.5 -53l-43 -219h334l43 219q7 34 -12.5 53t-62.5 19zM546 883q0 -32 -23 -69l-50 -81h-35q21 105 25 118q18 57 52 57q31 0 31 -25z" />
    <glyph glyph-name="Iotatonos" unicode="&#x38a;" horiz-adv-x="340" 
d="M101 696h274l-4 -19q-43 0 -70 -19t-34 -53l-100 -515q-7 -33 13 -52t63 -19l-4 -19h-274l4 19q42 0 69.5 19t34.5 52l100 515q7 34 -13 53t-63 19zM333 882q0 -32 -23 -69l-50 -81h-35q21 105 25 118q18 57 52 57q31 0 31 -25z" />
    <glyph glyph-name="Omicrontonos" unicode="&#x38c;" horiz-adv-x="709" 
d="M561 467q0 92 -34.5 149t-108.5 57q-67 0 -121 -46.5t-85 -117t-47.5 -144t-16.5 -136.5q0 -92 35 -149t109 -57q54 0 100 31t76.5 80t52 109t31 117.5t9.5 106.5zM664 456q0 -79 -27.5 -162t-75 -152t-121 -113t-156.5 -44q-117 0 -178 68t-61 187q0 79 27.5 162
t75.5 152t121.5 113t156.5 44q117 0 177.5 -68t60.5 -187zM526 883q0 -32 -23 -69l-50 -81h-35q21 105 25 118q18 57 52 57q31 0 31 -25z" />
    <glyph glyph-name="Upsilontonos" unicode="&#x38e;" horiz-adv-x="605" 
d="M663 696l-4 -18q-42 0 -67 -13t-57 -65l-199 -317l-37 -193q-6 -33 14 -52t62 -19l-4 -19h-274l4 19q42 0 69.5 19t34.5 52l33 171l-81 339q-12 50 -27 64t-56 14l4 18h71q14 0 24.5 -1t19 -1.5t15.5 -4.5t11.5 -5t9 -8.5t6.5 -9t5.5 -13t4.5 -14.5t4.5 -18.5t4.5 -20.5
l64 -266h2l158 263q37 61 60 80t57 19h68zM471 882q0 -32 -23 -69l-50 -81h-35q21 105 25 118q18 57 52 57q31 0 31 -25z" />
    <glyph glyph-name="Omegatonos" unicode="&#x38f;" horiz-adv-x="771" 
d="M686 178l-34 -178h-294l19 99q93 47 154.5 145.5t61.5 217.5q0 87 -40.5 148.5t-118.5 61.5q-93 0 -167 -93.5t-74 -240.5q0 -75 28 -142.5t73 -96.5l-19 -99h-294l34 178h20q9 -57 21 -70.5t50 -13.5h108l3 17q-58 33 -92.5 101t-34.5 141q0 142 101.5 250t243.5 108
q116 0 188 -75.5t72 -184.5q0 -111 -67.5 -201.5t-169.5 -138.5l-3 -17h108q38 0 55 13.5t48 70.5h20zM528 883q0 -32 -23 -69l-50 -81h-35q21 105 25 118q18 57 52 57q31 0 31 -25z" />
    <glyph glyph-name="iotadieresistonos" unicode="&#x390;" horiz-adv-x="289" 
d="M257 76q0 -9 -14.5 -28t-45.5 -38t-65 -19q-89 0 -89 82q0 25 5 48l54 278q12 62 -48 62l3 18q39 10 83 10q55 0 55 -33q0 -11 -6 -47l-61 -316q-3 -15 -3 -26q0 -40 40 -40q32 0 75 48q4 5 8 6.5t6.5 0t2.5 -5.5zM232 682q0 -25 -23 -64l-50 -84h-35q23 105 26 118
q13 57 51 57q31 0 31 -27zM105 590q0 -23 -16.5 -39.5t-39.5 -16.5t-39.5 16.5t-16.5 39.5t16.5 40t39.5 17t39.5 -17t16.5 -40zM350 590q0 -23 -16.5 -39.5t-39.5 -16.5t-39.5 16.5t-16.5 39.5t16.5 40t39.5 17t39.5 -17t16.5 -40z" />
    <glyph glyph-name="Alpha" unicode="&#x391;" horiz-adv-x="713" 
d="M222 282h210l-51 267h-9zM638 19l-3 -19h-231l3 19q40 0 53.5 26.5t5.5 64.5l-26 134h-239l-70 -127q-28 -50 -28 -64q0 -34 62 -34l-3 -19h-220l3 19q80 0 138 101l334 583h30l116 -593q6 -31 11 -46.5t21 -30t43 -14.5z" />
    <glyph glyph-name="Beta" unicode="&#x392;" horiz-adv-x="607" 
d="M432 225q0 52 -32 85t-97 35l-86 3l-50 -258q-7 -35 10 -43.5t82 -8.5q80 0 126.5 53.5t46.5 133.5zM467 562q0 46 -28 71t-75 25h-21q-35 0 -52.5 -10.5t-23.5 -42.5l-43 -220h68q75 0 125 51.5t50 125.5zM557 570q0 -62 -40 -113.5t-101 -75.5v-2q58 -17 88.5 -57
t30.5 -90q0 -103 -83 -167.5t-190 -64.5h-297l4 19q42 0 69.5 19t34.5 52l100 515q7 34 -13 53t-63 19l4 19h287q82 0 125.5 -33.5t43.5 -92.5z" />
    <glyph glyph-name="Gamma" unicode="&#x393;" horiz-adv-x="559" 
d="M101 696h503l-33 -170h-20q-14 80 -33 106.5t-78 25.5l-108 -1q-29 0 -43.5 -10t-20.5 -42l-100 -515q-7 -33 13 -52t63 -19l-4 -19h-275l4 19q42 0 69.5 19t34.5 52l100 515q7 34 -13 53t-63 19z" />
    <glyph glyph-name="Delta" unicode="&#x394;" horiz-adv-x="714" 
d="M71 38h395l-101 509h-9zM432 703l137 -684l-3 -19h-558l3 19l395 684h26z" />
    <glyph glyph-name="Delta" unicode="&#x2206;" horiz-adv-x="714" 
d="M71 38h395l-101 509h-9zM432 703l137 -684l-3 -19h-558l3 19l395 684h26z" />
    <glyph glyph-name="Epsilon" unicode="&#x395;" horiz-adv-x="576" 
d="M101 696h483l-33 -170h-18q-17 86 -40.5 109t-94.5 23q-32 0 -44.5 -0.5t-32.5 -3t-27.5 -7.5t-15.5 -15.5t-11 -26.5l-43 -220h84q36 0 68 25.5t40 68.5h18l-43 -225h-18q8 43 -14.5 68.5t-57.5 25.5h-84l-50 -258q-4 -19 -1 -30t19 -15.5t30.5 -5.5t50.5 -1h12
q81 0 118.5 26t90.5 114h19l-35 -178h-506l4 19q42 0 69.5 19t34.5 52l100 515q7 34 -13 53t-63 19z" />
    <glyph glyph-name="Zeta" unicode="&#x396;" horiz-adv-x="537" 
d="M124 696h441l-4 -18l-468 -638v-2h144q83 0 119.5 27t88.5 113h19l-35 -178h-464l4 19l469 636v3h-147q-69 0 -100.5 -26t-80.5 -106h-19z" />
    <glyph glyph-name="Eta" unicode="&#x397;" horiz-adv-x="768" 
d="M530 696h273l-4 -19q-43 0 -70 -19t-34 -53l-100 -515q-7 -33 13 -52t63 -19l-4 -19h-273l4 19q88 0 103 71l50 258h-334l-50 -258q-7 -33 13.5 -52t63.5 -19l-4 -19h-275l4 19q42 0 69.5 19t34.5 52l100 515q7 34 -13 53t-63 19l4 19h275l-4 -19q-43 0 -70.5 -19
t-34.5 -53l-43 -219h334l43 219q7 34 -12.5 53t-62.5 19z" />
    <glyph glyph-name="Theta" unicode="&#x398;" horiz-adv-x="709" 
d="M509 446l-38 -198h-25q0 49 -10 62t-52 13h-70q-41 0 -56 -12q-15 -11 -34 -63h-25l38 198h25q0 -49 8 -61q8 -13 46 -13h78q42 0 56 12q17 14 34 62h25zM561 467q0 92 -34.5 149t-108.5 57q-67 0 -121 -46.5t-85 -117t-47.5 -144t-16.5 -136.5q0 -92 35 -149t109 -57
q54 0 100 31t76.5 80t52 109t31 117.5t9.5 106.5zM664 456q0 -79 -27.5 -162t-75 -152t-121 -113t-156.5 -44q-117 0 -178 68t-61 187q0 79 27.5 162t75.5 152t121.5 113t156.5 44q117 0 177.5 -68t60.5 -187z" />
    <glyph glyph-name="Iota" unicode="&#x399;" horiz-adv-x="340" 
d="M101 696h274l-4 -19q-43 0 -70 -19t-34 -53l-100 -515q-7 -33 13 -52t63 -19l-4 -19h-274l4 19q42 0 69.5 19t34.5 52l100 515q7 34 -13 53t-63 19z" />
    <glyph glyph-name="Kappa" unicode="&#x39a;" horiz-adv-x="703" 
d="M529 696h189l-4 -19q-49 0 -85 -21t-98 -80l-181 -173l-1 -2l149 -264q2 -3 11.5 -21t13 -23.5t13 -20t17 -20.5t18 -15t22.5 -13t26 -5l-4 -19h-150l-174 309q-16 29 -26.5 34t-46.5 5l-50 -258q-7 -33 13 -52t62 -19l-4 -19h-274l4 19q89 0 104 71l100 515
q7 34 -13 53.5t-63 19.5l4 18h274l-4 -18q-42 0 -69 -19.5t-34 -53.5l-43 -220q42 0 57.5 7t44.5 36l162 164q5 5 12.5 12t11 11t9.5 10l9.5 9.5t7.5 8t6 7.5t4 6.5t3 6t1 4.5q0 11 -28 11z" />
    <glyph glyph-name="Lambda" unicode="&#x39b;" horiz-adv-x="713" 
d="M466 110l-85 439h-9l-241 -432q-28 -50 -28 -64q0 -34 62 -34l-3 -19h-220l3 19q80 0 138 101l334 583h30l116 -593q6 -31 11 -46.5t21 -30t43 -14.5l-3 -19h-231l3 19q40 0 53.5 26.5t5.5 64.5z" />
    <glyph glyph-name="Mu" unicode="&#x39c;" horiz-adv-x="908" 
d="M759 696h184l-4 -19q-43 0 -70 -19t-34 -53l-100 -515q-7 -33 13 -52t63 -19l-4 -19h-276l4 19q43 0 71 19t35 52l98 500h-4l-363 -567q-5 -8 -11 -8t-8 8l-149 526h-4l-90 -459q-7 -33 13 -52t62 -19l-4 -19h-216l4 19q42 0 69.5 19t34.5 52l100 515q7 34 -13 53t-63 19
l4 19h155l156 -538h3z" />
    <glyph glyph-name="Nu" unicode="&#x39d;" horiz-adv-x="765" 
d="M581 696h219l-4 -19q-43 0 -70.5 -19t-34.5 -53l-118 -605h-33l-325 587h-4l-100 -497q-7 -33 13.5 -52t63.5 -19l-4 -19h-219l4 19q43 0 70.5 19t34.5 52l100 515q7 34 -13.5 53t-63.5 19l4 19h157l301 -548h4l90 457q7 34 -13 53t-63 19z" />
    <glyph glyph-name="Xi" unicode="&#x39e;" horiz-adv-x="652" 
d="M547 178h20l-35 -178h-548l35 178h20q2 -53 21 -68.5t61 -15.5h36h240h37q42 0 66.5 15.5t46.5 68.5zM455 446h25l-38 -198h-25q0 49 -10 62t-52 13h-70q-41 0 -56 -12q-15 -11 -34 -63h-25l38 198h25q0 -49 8 -61q8 -13 46 -13h78q42 0 56 12q17 14 34 62zM120 696h548
l-35 -178h-20q-2 53 -21 68.5t-60 15.5h-37h-240h-36q-42 0 -67 -15.5t-47 -68.5h-20z" />
    <glyph glyph-name="Omicron" unicode="&#x39f;" horiz-adv-x="709" 
d="M561 467q0 92 -34.5 149t-108.5 57q-67 0 -121 -46.5t-85 -117t-47.5 -144t-16.5 -136.5q0 -92 35 -149t109 -57q54 0 100 31t76.5 80t52 109t31 117.5t9.5 106.5zM664 456q0 -79 -27.5 -162t-75 -152t-121 -113t-156.5 -44q-117 0 -178 68t-61 187q0 79 27.5 162
t75.5 152t121.5 113t156.5 44q117 0 177.5 -68t60.5 -187z" />
    <glyph glyph-name="Pi" unicode="&#x3a0;" horiz-adv-x="748" 
d="M101 696h682l-4 -19q-43 0 -70 -19t-34 -53l-100 -515q-7 -33 13 -52t63 -19l-4 -19h-273l4 19q88 0 103 71l100 515q6 32 -7 42.5t-48 10.5h-183q-35 0 -52.5 -10.5t-23.5 -42.5l-100 -515q-7 -33 13.5 -52t63.5 -19l-4 -19h-275l4 19q42 0 69.5 19t34.5 52l100 515
q7 34 -13 53t-63 19z" />
    <glyph glyph-name="Rho" unicode="&#x3a1;" horiz-adv-x="602" 
d="M487 535q0 50 -25 85t-78 37l-29 1q-78 2 -88 -48l-52 -274h68q94 0 149 53t55 146zM590 540q0 -75 -44 -131.5t-108.5 -82.5t-138.5 -26h-91l-41 -210q-7 -33 13.5 -52t63.5 -19l-4 -19h-275l4 19q89 0 104 71l100 515q7 34 -13 53.5t-63 19.5l4 18h300q93 0 141 -44.5
t48 -111.5z" />
    <glyph glyph-name="Sigma" unicode="&#x3a3;" horiz-adv-x="617" 
d="M89 696h523l-33 -170h-18q-17 86 -40.5 109t-94.5 23h-98q-40 0 -40 -27q0 -14 11 -45l81 -221l-197 -212q-42 -44 -34 -53q5 -6 23 -6h174q81 0 111.5 15.5t57.5 68.5h19l-35 -178h-546l4 19q26 0 55.5 17.5t45 32.5t39.5 41l196 215l-93 261q-12 34 -44 62t-71 28z" />
    <glyph glyph-name="Tau" unicode="&#x3a4;" horiz-adv-x="549" 
d="M77 696h531l-33 -170h-20q-14 80 -33 106.5t-78 26.5h-5q-56 0 -69 -64l-98 -505q-7 -33 13.5 -52t63.5 -19l-4 -19h-275l4 19q88 0 103 71l98 505q13 64 -43 64h-8q-31 0 -51.5 -6t-39.5 -25t-32 -39t-37 -63h-20z" />
    <glyph glyph-name="Upsilon" unicode="&#x3a5;" horiz-adv-x="605" 
d="M663 696l-4 -18q-42 0 -67 -13t-57 -65l-199 -317l-37 -193q-6 -33 14 -52t62 -19l-4 -19h-274l4 19q42 0 69.5 19t34.5 52l33 171l-81 339q-12 50 -27 64t-56 14l4 18h71q14 0 24.5 -1t19 -1.5t15.5 -4.5t11.5 -5t9 -8.5t6.5 -9t5.5 -13t4.5 -14.5t4.5 -18.5t4.5 -20.5
l64 -266h2l158 263q37 61 60 80t57 19h68z" />
    <glyph glyph-name="Phi" unicode="&#x3a6;" horiz-adv-x="856" 
d="M326 38l110 564q-93 -6 -160 -63.5t-97.5 -138t-30.5 -172.5q0 -99 45.5 -141t132.5 -49zM708 405q0 89 -45.5 140t-132.5 57l-110 -564q74 5 130.5 37t90 83t50.5 113.5t17 133.5zM811 383q0 -104 -56.5 -191.5t-147.5 -137t-194 -54.5q-7 -36 12 -63.5t60 -27.5l-3 -19
h-275l3 19q41 0 71.5 27.5t37.5 63.5q-126 6 -200 75.5t-74 181.5q0 108 55 195t145 134.5t198 52.5q7 37 -12.5 64t-60.5 27l3 19h275l-3 -19q-41 0 -71 -27t-37 -64q134 -6 204 -73.5t70 -182.5z" />
    <glyph glyph-name="Chi" unicode="&#x3a7;" horiz-adv-x="658" 
d="M491 696h226l-4 -19q-50 0 -87 -25.5t-80 -75.5l-173 -202l101 -240q28 -67 47 -89.5t64 -25.5l-4 -19h-232l4 19q26 2 37 8t11 20q0 15 -16 55l-81 194h-3l-158 -194q-32 -38 -32 -59q0 -24 50 -24l-4 -19h-216l4 19q44 3 79 26.5t81 77.5l183 211l-118 285
q-25 59 -97 59l4 18h240l-4 -18q-43 0 -43 -33q0 -23 18 -66l68 -165h4l142 178q32 40 32 61q0 25 -47 25z" />
    <glyph glyph-name="Psi" unicode="&#x3a8;" horiz-adv-x="737" 
d="M786 647q0 -20 -13 -35t-35 -15q-9 0 -26 5.5t-22 5.5q-17 0 -31 -17t-33 -69l-96 -264h-121l-33 -168q-7 -33 13 -52t63 -19l-4 -19h-274l4 19q42 0 69.5 19t34.5 52l33 168h-178l13 327q3 92 -76 92l4 19h38q76 0 104 -27.5t25 -96.5l-12 -276h89l60 309q7 34 -13 53
t-63 19l4 19h274l-4 -19q-43 0 -70 -19t-34 -53l-60 -309h89l79 227q32 92 66.5 132.5t79.5 40.5q26 0 41 -14t15 -35z" />
    <glyph glyph-name="Omega" unicode="&#x3a9;" horiz-adv-x="771" 
d="M686 178l-34 -178h-294l19 99q93 47 154.5 145.5t61.5 217.5q0 87 -40.5 148.5t-118.5 61.5q-93 0 -167 -93.5t-74 -240.5q0 -75 28 -142.5t73 -96.5l-19 -99h-294l34 178h20q9 -57 21 -70.5t50 -13.5h108l3 17q-58 33 -92.5 101t-34.5 141q0 142 101.5 250t243.5 108
q116 0 188 -75.5t72 -184.5q0 -111 -67.5 -201.5t-169.5 -138.5l-3 -17h108q38 0 55 13.5t48 70.5h20z" />
    <glyph glyph-name="Omega" unicode="&#x2126;" horiz-adv-x="771" 
d="M686 178l-34 -178h-294l19 99q93 47 154.5 145.5t61.5 217.5q0 87 -40.5 148.5t-118.5 61.5q-93 0 -167 -93.5t-74 -240.5q0 -75 28 -142.5t73 -96.5l-19 -99h-294l34 178h20q9 -57 21 -70.5t50 -13.5h108l3 17q-58 33 -92.5 101t-34.5 141q0 142 101.5 250t243.5 108
q116 0 188 -75.5t72 -184.5q0 -111 -67.5 -201.5t-169.5 -138.5l-3 -17h108q38 0 55 13.5t48 70.5h20z" />
    <glyph glyph-name="Iotadieresis" unicode="&#x3aa;" horiz-adv-x="340" 
d="M101 696h274l-4 -19q-43 0 -70 -19t-34 -53l-100 -515q-7 -33 13 -52t63 -19l-4 -19h-274l4 19q42 0 69.5 19t34.5 52l100 515q7 34 -13 53t-63 19zM209 788q0 -23 -16.5 -39.5t-39.5 -16.5t-39.5 16.5t-16.5 39.5t16.5 40t39.5 17t39.5 -17t16.5 -40zM397 788
q0 -23 -16.5 -39.5t-39.5 -16.5t-39.5 16.5t-16.5 39.5t16.5 40t39.5 17t39.5 -17t16.5 -40z" />
    <glyph glyph-name="Upsilondieresis" unicode="&#x3ab;" horiz-adv-x="605" 
d="M663 696l-4 -18q-42 0 -67 -13t-57 -65l-199 -317l-37 -193q-6 -33 14 -52t62 -19l-4 -19h-274l4 19q42 0 69.5 19t34.5 52l33 171l-81 339q-12 50 -27 64t-56 14l4 18h71q14 0 24.5 -1t19 -1.5t15.5 -4.5t11.5 -5t9 -8.5t6.5 -9t5.5 -13t4.5 -14.5t4.5 -18.5t4.5 -20.5
l64 -266h2l158 263q37 61 60 80t57 19h68zM346 789q0 -23 -16.5 -39.5t-39.5 -16.5t-39.5 16.5t-16.5 39.5t16.5 40t39.5 17t39.5 -17t16.5 -40zM534 789q0 -23 -16.5 -39.5t-39.5 -16.5t-39.5 16.5t-16.5 39.5t16.5 40t39.5 17t39.5 -17t16.5 -40z" />
    <glyph glyph-name="alphatonos" unicode="&#x3ac;" horiz-adv-x="613" 
d="M320 213l24 48l-17 77q-13 60 -33 86.5t-51 26.5q-59 0 -102 -85t-43 -206q0 -57 17.5 -94.5t51.5 -37.5q37 0 69 40.5t84 144.5zM454 479h89l-149 -295l7 -35q17 -88 52 -88q9 0 17 3t16 9.5t12.5 11.5t12 13t8.5 10q7 7 14 3.5t3 -12.5q-14 -32 -24 -51.5t-28.5 -38
t-38.5 -18.5t-33.5 16.5t-17 29t-11.5 48.5q-1 5 -2 7q-2 7 -5 23t-5 24h-2q-90 -148 -208 -148q-75 0 -113 52.5t-38 138.5q0 128 68 217.5t159 89.5q57 0 83 -32t39 -99l9 -44h3zM341 684q0 -32 -23 -69l-50 -81h-35q21 105 25 118q18 57 52 57q31 0 31 -25z" />
    <glyph glyph-name="epsilontonos" unicode="&#x3ad;" horiz-adv-x="467" 
d="M427 407q0 -17 -11 -28.5t-28 -11.5q-18 0 -33.5 13t-25.5 29t-30 29t-47 13q-41 0 -67.5 -24.5t-26.5 -64.5q0 -41 25 -65.5t72 -24.5h33l-7 -36h-38q-68 0 -106.5 -28.5t-38.5 -84.5q0 -41 25 -68t73 -27q29 0 53.5 14t38 31t32 31t37.5 14q16 0 25 -9.5t9 -23.5
q0 -35 -58 -64.5t-140 -29.5q-83 0 -133 37t-50 98q0 50 34.5 85.5t80.5 50.5l1 2q-21 14 -34 38t-13 47q0 59 53.5 99.5t135.5 40.5q70 0 114.5 -24t44.5 -58zM361 684q0 -32 -23 -69l-50 -81h-35q21 105 25 118q18 57 52 57q31 0 31 -25z" />
    <glyph glyph-name="etatonos" unicode="&#x3ae;" horiz-adv-x="559" 
d="M462 379q0 -19 -4 -38l-109 -568h-85l108 564q4 24 4 35q0 70 -67 70q-43 0 -85 -35t-50 -75l-64 -332h-85l77 399q12 62 -48 62l3 18q39 10 83 10q55 0 55 -33q0 -6 -1.5 -17.5t-2.5 -20.5t-2 -9h1q71 80 158 80q43 0 78.5 -26t35.5 -84zM379 684q0 -32 -23 -69l-50 -81
h-35q21 105 25 118q18 57 52 57q31 0 31 -25z" />
    <glyph glyph-name="iotatonos" unicode="&#x3af;" horiz-adv-x="289" 
d="M257 76q0 -9 -14.5 -28t-45.5 -38t-65 -19q-89 0 -89 82q0 25 5 48l54 278q12 62 -48 62l3 18q39 10 83 10q55 0 55 -33q0 -11 -6 -47l-61 -316q-3 -15 -3 -26q0 -40 40 -40q32 0 75 48q4 5 8 6.5t6.5 0t2.5 -5.5zM237 684q0 -32 -23 -69l-50 -81h-35q21 105 25 118
q18 57 52 57q31 0 31 -25z" />
    <glyph glyph-name="upsilondieresistonos" unicode="&#x3b0;" horiz-adv-x="534" 
d="M464 330q0 -85 -49.5 -164.5t-124 -127t-147.5 -47.5q-97 0 -97 94q0 25 6 53l51 261q12 62 -49 62l3 18q39 10 83 10q55 0 55 -33q0 -11 -6 -47l-51 -266q-12 -45 -1 -75t53 -30q72 0 130 82.5t58 210.5q0 96 -59 140q-8 6 -8 9q0 9 14 9q64 0 101.5 -46.5t37.5 -112.5z
M345 682q0 -25 -23 -64l-50 -84h-35q23 105 26 118q13 57 51 57q31 0 31 -27zM218 590q0 -23 -16.5 -39.5t-39.5 -16.5t-39.5 16.5t-16.5 39.5t16.5 40t39.5 17t39.5 -17t16.5 -40zM463 590q0 -23 -16.5 -39.5t-39.5 -16.5t-39.5 16.5t-16.5 39.5t16.5 40t39.5 17t39.5 -17
t16.5 -40z" />
    <glyph glyph-name="alpha" unicode="&#x3b1;" horiz-adv-x="613" 
d="M320 213l24 48l-17 77q-13 60 -33 86.5t-51 26.5q-59 0 -102 -85t-43 -206q0 -57 17.5 -94.5t51.5 -37.5q37 0 69 40.5t84 144.5zM454 479h89l-149 -295l7 -35q17 -88 52 -88q9 0 17 3t16 9.5t12.5 11.5t12 13t8.5 10q7 7 14 3.5t3 -12.5q-14 -32 -24 -51.5t-28.5 -38
t-38.5 -18.5t-33.5 16.5t-17 29t-11.5 48.5q-1 5 -2 7q-2 7 -5 23t-5 24h-2q-90 -148 -208 -148q-75 0 -113 52.5t-38 138.5q0 128 68 217.5t159 89.5q57 0 83 -32t39 -99l9 -44h3z" />
    <glyph glyph-name="beta" unicode="&#x3b2;" horiz-adv-x="569" 
d="M424 579q0 49 -22.5 78t-60.5 29q-97 0 -132 -180l-59 -301q-15 -75 18 -126t92 -51q61 0 96.5 62t35.5 145q0 64 -27.5 102t-83.5 38h-48l8 38h79q13 0 20 -1q37 17 60.5 67.5t23.5 99.5zM499 570q0 -52 -31.5 -100t-82.5 -70v-3q45 -22 70 -70t25 -102
q0 -91 -58.5 -163t-152.5 -72q-49 0 -87 23.5t-56 52.5h-3l-10 -53q-8 -43 -19.5 -117t-13.5 -83q-5 -26 -22.5 -40.5t-39.5 -14.5q-41 0 -41 41q0 18 22.5 99t28.5 115l92 476q23 121 83 178t140 57q73 0 114.5 -44t41.5 -110z" />
    <glyph glyph-name="gamma" unicode="&#x3b3;" horiz-adv-x="444" 
d="M404 431q0 -50 -39 -135t-122 -191q-14 -18 -42 -58q0 -1 -1 -4t-1.5 -7t-1.5 -9q-6 -33 -8.5 -45.5t-9.5 -44t-11.5 -46.5t-12.5 -40.5t-16 -38.5t-18.5 -27.5t-22 -20.5t-25.5 -6q-36 0 -36 35q0 54 87 206q22 142 0.5 275t-57.5 168q-21 19 -57 19l3 18q37 10 80 10
q47 0 64 -35q28 -57 44.5 -157.5t5.5 -193.5h3l24 33q41 56 71 122.5t30 123.5q0 16 -5 35t-5 30q0 18 10.5 30t27.5 12q19 0 30 -15.5t11 -42.5z" />
    <glyph glyph-name="delta" unicode="&#x3b4;" horiz-adv-x="509" 
d="M346 231q-2 84 -88 165l-15 14q-58 -29 -102 -96.5t-44 -155.5q0 -66 21 -98t78 -32q66 0 108.5 63t41.5 140zM439 653q0 -15 -10.5 -26t-28.5 -11q-16 0 -32.5 19t-38 38t-49.5 19q-37 0 -61 -23.5t-24 -58.5q0 -24 16 -47.5t53 -59.5l69 -66q51 -48 75.5 -92.5
t24.5 -102.5q0 -104 -72 -177.5t-177 -73.5q-82 0 -128 44.5t-46 125.5q0 97 62.5 166.5t149.5 99.5l-27 25q-66 62 -66 123q0 65 50.5 107t131.5 42q60 0 94 -21t34 -50z" />
    <glyph glyph-name="epsilon" unicode="&#x3b5;" horiz-adv-x="467" 
d="M427 407q0 -17 -11 -28.5t-28 -11.5q-18 0 -33.5 13t-25.5 29t-30 29t-47 13q-41 0 -67.5 -24.5t-26.5 -64.5q0 -41 25 -65.5t72 -24.5h33l-7 -36h-38q-68 0 -106.5 -28.5t-38.5 -84.5q0 -41 25 -68t73 -27q29 0 53.5 14t38 31t32 31t37.5 14q16 0 25 -9.5t9 -23.5
q0 -35 -58 -64.5t-140 -29.5q-83 0 -133 37t-50 98q0 50 34.5 85.5t80.5 50.5l1 2q-21 14 -34 38t-13 47q0 59 53.5 99.5t135.5 40.5q70 0 114.5 -24t44.5 -58z" />
    <glyph glyph-name="zeta" unicode="&#x3b6;" horiz-adv-x="454" 
d="M504 695q0 -39 -55.5 -71.5t-132.5 -41.5q-88 -78 -146 -181.5t-58 -189.5q0 -58 20 -83t68 -38l52 -14q119 -31 119 -144q0 -76 -52 -125t-136 -49q-45 0 -71 18t-26 46q0 19 14 32.5t34 13.5q18 0 47.5 -21.5t61.5 -21.5q41 0 64.5 24.5t23.5 55.5q0 33 -20.5 54.5
t-69.5 33.5l-71 18q-145 38 -145 170q0 87 66.5 195.5t162.5 202.5q-88 3 -88 59q0 31 29 58.5t47 27.5q8 0 4 -9q-3 -5 -7 -8q-34 -21 -34 -46q0 -27 62 -27q26 0 53 5q103 85 151 85q16 0 24.5 -9t8.5 -20z" />
    <glyph glyph-name="eta" unicode="&#x3b7;" horiz-adv-x="559" 
d="M462 379q0 -19 -4 -38l-109 -568h-85l108 564q4 24 4 35q0 70 -67 70q-43 0 -85 -35t-50 -75l-64 -332h-85l77 399q12 62 -48 62l3 18q39 10 83 10q55 0 55 -33q0 -6 -1.5 -17.5t-2.5 -20.5t-2 -9h1q71 80 158 80q43 0 78.5 -26t35.5 -84z" />
    <glyph glyph-name="theta" unicode="&#x3b8;" horiz-adv-x="566" 
d="M374 494q0 193 -90 193q-52 0 -85 -57.5t-33 -147.5q0 -110 105 -110h96q7 59 7 122zM536 328q0 -37 -27 -87h-18q7 33 -5 47t-45 14h-3q-32 -132 -102.5 -221.5t-164.5 -89.5q-60 0 -92 28.5t-32 78.5l8 58q9 62 -48 62l3 18q39 10 83 10q55 0 55 -33q0 -11 -6 -47
q-11 -50 -11 -75q0 -63 58 -63q62 0 104.5 77.5t63.5 196.5h-70q-192 0 -192 155q0 113 61 190t144 77q70 0 114 -64t44 -192q0 -51 -7 -96h14q71 0 71 -44z" />
    <glyph glyph-name="iota" unicode="&#x3b9;" horiz-adv-x="289" 
d="M257 76q0 -9 -14.5 -28t-45.5 -38t-65 -19q-89 0 -89 82q0 25 5 48l54 278q12 62 -48 62l3 18q39 10 83 10q55 0 55 -33q0 -11 -6 -47l-61 -316q-3 -15 -3 -26q0 -40 40 -40q32 0 75 48q4 5 8 6.5t6.5 0t2.5 -5.5z" />
    <glyph glyph-name="kappa" unicode="&#x3ba;" horiz-adv-x="556" 
d="M524 76q0 -9 -14.5 -28.5t-46 -38t-67.5 -18.5q-64 0 -93 56l-82 156q-11 21 -20.5 29t-24.5 8h-20l-46 -240h-85l77 399q12 62 -48 62l3 18q39 10 83 10q55 0 55 -33q0 -11 -6 -47l-26 -132q38 0 55.5 8.5t30.5 25.5l94 125q21 29 41.5 41t49.5 12q28 0 44.5 -17
t16.5 -39q0 -23 -13 -39.5t-35 -16.5q-18 0 -28.5 10.5t-17 21t-14.5 10.5q-12 0 -32 -25l-67 -86q-23 -29 -43 -38v-3q41 -9 58 -41l84 -158q11 -22 21.5 -31.5t26.5 -9.5q29 0 72 48q5 6 9 7t6 -1t2 -5z" />
    <glyph glyph-name="lambda" unicode="&#x3bb;" horiz-adv-x="573" 
d="M541 76q0 -9 -14 -28t-45.5 -38t-69.5 -19q-45 0 -69 22t-31 73l-44 303h-2l-142 -312q-20 -43 -44 -64.5t-59 -21.5q-21 0 -36 12.5t-15 30.5t15 31.5t40 13.5q37 0 57.5 19t45.5 73l131 278l-27 185q-5 33 -17.5 47.5t-43.5 14.5l3 18q16 4 34 6.5t28 3.5h11
q57 0 63 -40l85 -586q10 -71 54 -71q32 0 75 48q4 5 8 6.5t6.5 0t2.5 -5.5z" />
    <glyph glyph-name="nu" unicode="&#x3bd;" horiz-adv-x="484" 
d="M432 432q0 -69 -74.5 -191.5t-187.5 -240.5h-32l-62 399q-5 33 -19.5 47.5t-46.5 14.5l3 18q45 10 75 10q58 0 66 -45l53 -345h3q144 167 144 280q0 12 -6 32.5t-6 32.5q0 19 12 32t32 13q21 0 33.5 -16t12.5 -41z" />
    <glyph glyph-name="xi" unicode="&#x3be;" horiz-adv-x="436" 
d="M486 693q0 -36 -69 -68t-135 -38q-64 -62 -64 -126q0 -89 96 -89h19l-7 -36h-19q-91 0 -143 -44.5t-52 -106.5q0 -41 21.5 -62t70.5 -34l48 -13q118 -32 118 -144q0 -76 -52 -125t-136 -49q-45 0 -71 18t-26 46q0 19 14 32.5t34 13.5q18 0 48 -21.5t62 -21.5
q41 0 64 24.5t23 55.5q0 33 -20.5 54.5t-69.5 33.5l-71 18q-144 37 -144 156q0 68 49 119.5t101 68.5v2q-27 36 -27 80q0 72 79 151q-67 8 -67 55q0 28 29.5 54.5t42.5 26.5q4 0 6 -2.5t0.5 -7t-6.5 -7.5q-32 -20 -32 -42q0 -24 61 -24q20 0 29 1q49 36 96 59t68 23
q14 0 23 -8.5t9 -22.5z" />
    <glyph glyph-name="omicron" unicode="&#x3bf;" horiz-adv-x="509" 
d="M352 334q0 117 -82 117q-54 0 -94.5 -51t-59 -118.5t-19.5 -135.5q0 -56 17.5 -87t63.5 -31q49 0 89.5 45.5t62.5 115.5t22 145zM439 319q0 -55 -17 -111t-48.5 -105.5t-83 -80.5t-114.5 -31q-84 0 -125 44.5t-41 125.5q0 80 31 154.5t93 124t139 49.5q83 0 124.5 -44.5
t41.5 -125.5z" />
    <glyph glyph-name="pi" unicode="&#x3c0;" horiz-adv-x="587" 
d="M577 509l-11 -54q-7 -31 -29 -46t-74 -15h-25l-58 -301q-3 -15 -3 -26q0 -40 40 -40q32 0 75 48q4 5 8 6.5t6.5 0t2.5 -5.5q0 -9 -14.5 -28t-45.5 -38t-65 -19q-89 0 -89 82q0 25 5 48q18 90 91 273h-143q-18 -26 -41 -104l-37 -127q-1 -3 -9.5 -33.5t-12 -41t-15 -34.5
t-23 -34t-31 -19.5t-42.5 -9.5t-40 12t-17 33q0 20 14.5 31.5t37.5 11.5q40 0 62.5 20t37.5 66l43 137q18 59 38 92h-44q-73 0 -130 -19l-3 19q27 38 88 59t108 23l48 3h207q44 0 71 30h19z" />
    <glyph glyph-name="rho" unicode="&#x3c1;" horiz-adv-x="560" 
d="M403 329q0 59 -21.5 90.5t-62.5 31.5q-77 0 -124.5 -85.5t-47.5 -204.5q0 -70 27.5 -101.5t64.5 -31.5q41 0 74.5 31.5t52 79.5t28 97.5t9.5 92.5zM490 308q0 -72 -27 -143t-85.5 -123t-133.5 -52q-42 0 -76 23t-44 53h-3l-56 -293h-85l90 467q23 118 91 183.5t165 65.5
q77 0 120.5 -49t43.5 -132z" />
    <glyph glyph-name="sigma1" unicode="&#x3c2;" horiz-adv-x="441" 
d="M404 417q0 -18 -12.5 -32.5t-32.5 -14.5q-18 0 -30.5 12.5t-19.5 28t-20.5 28t-32.5 12.5q-52 0 -98 -69t-46 -169q0 -61 19.5 -85.5t68.5 -37.5l52 -14q119 -31 119 -144q0 -76 -52.5 -125t-136.5 -49q-45 0 -71 18t-26 46q0 19 14 32.5t34 13.5q18 0 48 -21.5t62 -21.5
q41 0 64 24.5t23 55.5q0 33 -20.5 54t-69.5 34l-70 18q-145 38 -145 170q0 129 81 218.5t182 89.5q56 0 86 -20.5t30 -51.5z" />
    <glyph glyph-name="sigma" unicode="&#x3c3;" horiz-adv-x="526" 
d="M347 290q0 57 -22.5 93t-69.5 36q-71 0 -114.5 -72.5t-43.5 -184.5q0 -55 23 -94.5t69 -39.5q67 0 112.5 78t45.5 184zM288 479h252l-17 -85h-50q-33 0 -93 18l-4 -5q56 -56 56 -139q0 -109 -73.5 -193t-181.5 -84q-82 0 -124.5 53.5t-42.5 135.5q0 140 77.5 219.5
t200.5 79.5z" />
    <glyph glyph-name="tau" unicode="&#x3c4;" horiz-adv-x="372" 
d="M358 509h19l-11 -54q-7 -31 -29 -46t-74 -15h-47l-58 -301q-3 -15 -3 -26q0 -40 40 -40q32 0 75 48q4 5 8 6.5t6.5 0t2.5 -5.5q0 -9 -14.5 -28t-45.5 -38t-65 -19q-89 0 -89 82q0 25 5 48q18 90 91 273h-156l4 18q25 28 77.5 47.5t108.5 19.5h83q45 0 72 30z" />
    <glyph glyph-name="upsilon" unicode="&#x3c5;" horiz-adv-x="534" 
d="M464 330q0 -85 -49.5 -164.5t-124 -127t-147.5 -47.5q-97 0 -97 94q0 25 6 53l51 261q12 62 -49 62l3 18q39 10 83 10q55 0 55 -33q0 -11 -6 -47l-51 -266q-12 -45 -1 -75t53 -30q72 0 130 82.5t58 210.5q0 96 -59 140q-8 6 -8 9q0 9 14 9q64 0 101.5 -46.5t37.5 -112.5z
" />
    <glyph glyph-name="phi" unicode="&#x3c6;" horiz-adv-x="643" 
d="M486 286q0 62 -20 113.5t-57 51.5q-32 0 -40 -46l-73 -376q53 2 92 27.5t59 65t29.5 80.5t9.5 84zM573 274q0 -112 -74 -195.5t-210 -87.5l-43 -218h-85l42 218q-79 3 -136 58t-57 147q0 125 71.5 204t169.5 79l-3 -18q-71 -28 -111 -101t-40 -162q0 -69 30.5 -117
t82.5 -52l68 349q10 52 41.5 81.5t78.5 29.5q76 0 125.5 -61.5t49.5 -153.5z" />
    <glyph glyph-name="chi" unicode="&#x3c7;" horiz-adv-x="499" 
d="M236 143l82 -295q9 -32 17 -43t26 -11q13 0 27 8t21.5 16.5t20.5 23.5q4 4 8 6t7 0.5t3 -5.5q0 -18 -34 -51.5t-82 -33.5q-41 0 -64.5 20.5t-37.5 70.5l-59 215h-1l-135 -230q-45 -76 -100 -76q-21 0 -33 11.5t-12 29.5t14.5 31t37.5 13q52 0 92 66l124 203l-79 287
q-7 25 -11 35.5t-14 18.5t-27 8l3 18q35 10 62 10q50 0 59 -35l72 -262h2l129 221q45 76 100 76q21 0 33 -11.5t12 -29.5t-14.5 -31t-37.5 -13q-52 0 -92 -66z" />
    <glyph glyph-name="psi" unicode="&#x3c8;" horiz-adv-x="716" 
d="M716 479l-4 -18q-61 0 -73 -62l-30 -159q-22 -119 -85 -183.5t-182 -65.5l-43 -218h-85l43 218q-218 3 -171 249l31 159q12 62 -48 62l3 18q39 10 83 10q55 0 55 -33q0 -11 -6 -47l-33 -169q-41 -207 93 -212l87 451h85l-87 -451q43 1 74.5 19t50.5 50t30 65t20 78
l32 169q9 46 26.5 63t60.5 17q36 0 73 -10z" />
    <glyph glyph-name="omega" unicode="&#x3c9;" horiz-adv-x="723" 
d="M653 269q0 -116 -62 -197t-157 -81q-84 0 -121 79q-59 -79 -150 -79q-74 0 -113.5 51t-39.5 131q0 127 77 221.5t167 94.5q9 0 9 -8q0 -5 -7 -10q-61 -35 -111.5 -118.5t-50.5 -175.5q0 -66 24.5 -102.5t61.5 -36.5q72 0 115 91q-13 74 3 152q19 96 66 96q48 0 28 -101
q-18 -93 -48 -154q10 -42 34 -63t54 -21q62 0 100 71.5t38 181.5q0 57 -20 107t-43 73q-5 5 -5 10q0 8 9 8q43 0 92.5 -63t49.5 -157z" />
    <glyph glyph-name="iotadieresis" unicode="&#x3ca;" horiz-adv-x="289" 
d="M257 76q0 -9 -14.5 -28t-45.5 -38t-65 -19q-89 0 -89 82q0 25 5 48l54 278q12 62 -48 62l3 18q39 10 83 10q55 0 55 -33q0 -11 -6 -47l-61 -316q-3 -15 -3 -26q0 -40 40 -40q32 0 75 48q4 5 8 6.5t6.5 0t2.5 -5.5zM106 590q0 -23 -16.5 -39.5t-39.5 -16.5t-40 16.5
t-17 39.5t17 39.5t40 16.5t39.5 -16.5t16.5 -39.5zM295 590q0 -23 -17 -39.5t-40 -16.5t-39.5 16.5t-16.5 39.5t16.5 39.5t39.5 16.5t40 -16.5t17 -39.5z" />
    <glyph glyph-name="upsilondieresis" unicode="&#x3cb;" horiz-adv-x="534" 
d="M464 330q0 -85 -49.5 -164.5t-124 -127t-147.5 -47.5q-97 0 -97 94q0 25 6 53l51 261q12 62 -49 62l3 18q39 10 83 10q55 0 55 -33q0 -11 -6 -47l-51 -266q-12 -45 -1 -75t53 -30q72 0 130 82.5t58 210.5q0 96 -59 140q-8 6 -8 9q0 9 14 9q64 0 101.5 -46.5t37.5 -112.5z
M213 590q0 -23 -16.5 -39.5t-39.5 -16.5t-40 16.5t-17 39.5t17 39.5t40 16.5t39.5 -16.5t16.5 -39.5zM402 590q0 -23 -17 -39.5t-40 -16.5t-39.5 16.5t-16.5 39.5t16.5 39.5t39.5 16.5t40 -16.5t17 -39.5z" />
    <glyph glyph-name="omicrontonos" unicode="&#x3cc;" horiz-adv-x="509" 
d="M352 334q0 117 -82 117q-54 0 -94.5 -51t-59 -118.5t-19.5 -135.5q0 -56 17.5 -87t63.5 -31q49 0 89.5 45.5t62.5 115.5t22 145zM439 319q0 -55 -17 -111t-48.5 -105.5t-83 -80.5t-114.5 -31q-84 0 -125 44.5t-41 125.5q0 80 31 154.5t93 124t139 49.5q83 0 124.5 -44.5
t41.5 -125.5zM378 684q0 -32 -23 -69l-50 -81h-35q21 105 25 118q18 57 52 57q31 0 31 -25z" />
    <glyph glyph-name="upsilontonos" unicode="&#x3cd;" horiz-adv-x="534" 
d="M464 330q0 -85 -49.5 -164.5t-124 -127t-147.5 -47.5q-97 0 -97 94q0 25 6 53l51 261q12 62 -49 62l3 18q39 10 83 10q55 0 55 -33q0 -11 -6 -47l-51 -266q-12 -45 -1 -75t53 -30q72 0 130 82.5t58 210.5q0 96 -59 140q-8 6 -8 9q0 9 14 9q64 0 101.5 -46.5t37.5 -112.5z
M355 684q0 -32 -23 -69l-50 -81h-35q21 105 25 118q18 57 52 57q31 0 31 -25z" />
    <glyph glyph-name="omegatonos" unicode="&#x3ce;" horiz-adv-x="723" 
d="M653 269q0 -116 -62 -197t-157 -81q-84 0 -121 79q-59 -79 -150 -79q-74 0 -113.5 51t-39.5 131q0 127 77 221.5t167 94.5q9 0 9 -8q0 -5 -7 -10q-61 -35 -111.5 -118.5t-50.5 -175.5q0 -66 24.5 -102.5t61.5 -36.5q72 0 115 91q-13 74 3 152q19 96 66 96q48 0 28 -101
q-18 -93 -48 -154q10 -42 34 -63t54 -21q62 0 100 71.5t38 181.5q0 57 -20 107t-43 73q-5 5 -5 10q0 8 9 8q43 0 92.5 -63t49.5 -157zM477 684q0 -32 -23 -69l-50 -81h-35q21 105 25 118q18 57 52 57q31 0 31 -25z" />
    <glyph glyph-name="Iegrave" unicode="&#x400;" horiz-adv-x="576" 
d="M101 696h483l-33 -170h-18q-17 86 -40.5 109t-94.5 23q-32 0 -44.5 -0.5t-32.5 -3t-27.5 -7.5t-15.5 -15.5t-11 -26.5l-43 -220h84q36 0 68 25.5t40 68.5h18l-43 -225h-18q8 43 -14.5 68.5t-57.5 25.5h-84l-50 -258q-4 -19 -1 -30t19 -15.5t30.5 -5.5t50.5 -1h12
q81 0 118.5 26t90.5 114h19l-35 -178h-506l4 19q42 0 69.5 19t34.5 52l100 515q7 34 -13 53t-63 19zM281 848l115 -115h-32l-125 71q-28 15 -28 40q0 11 7.5 18.5t19.5 7.5q21 0 43 -22z" />
    <glyph glyph-name="Io" unicode="&#x401;" horiz-adv-x="576" 
d="M101 696h483l-33 -170h-18q-17 86 -40.5 109t-94.5 23q-32 0 -44.5 -0.5t-32.5 -3t-27.5 -7.5t-15.5 -15.5t-11 -26.5l-43 -220h84q36 0 68 25.5t40 68.5h18l-43 -225h-18q8 43 -14.5 68.5t-57.5 25.5h-84l-50 -258q-4 -19 -1 -30t19 -15.5t30.5 -5.5t50.5 -1h12
q81 0 118.5 26t90.5 114h19l-35 -178h-506l4 19q42 0 69.5 19t34.5 52l100 515q7 34 -13 53t-63 19zM339 793q0 -23 -16 -39t-35 -16q-20 0 -36.5 16t-16.5 39t16.5 39t36.5 16q19 0 35 -16t16 -39zM508 793q0 -23 -16 -39t-35 -16q-20 0 -36.5 16.5t-16.5 38.5t16.5 38.5
t36.5 16.5q19 0 35 -16t16 -39z" />
    <glyph glyph-name="Dje" unicode="&#x402;" horiz-adv-x="717" 
d="M657 237q0 -104 -71.5 -198.5t-175.5 -166.5q-3 -2 -6.5 -2.5t-5 1t-2.5 3.5t0.5 5.5t4.5 6.5q153 159 153 325q0 159 -119 159q-13 0 -26.5 -1.5t-23.5 -3.5t-24 -6t-20.5 -6.5t-21.5 -7.5t-20 -7l-47 -248q-6 -33 14 -52t63 -19l-4 -19h-275l4 19q88 0 103 71l100 515
q10 53 -39 53h-15q-69 0 -130 -132h-20l33 170h540l-33 -170h-20q-13 80 -32 106t-78 26h-44q-29 0 -45.5 -11t-22.5 -42l-45 -229q100 47 178 47q91 0 132 -53t41 -133z" />
    <glyph glyph-name="Gje" unicode="&#x403;" horiz-adv-x="559" 
d="M101 696h503l-33 -170h-20q-14 80 -33 106.5t-78 25.5l-108 -1q-29 0 -43.5 -10t-20.5 -42l-100 -515q-7 -33 13 -52t63 -19l-4 -19h-275l4 19q42 0 69.5 19t34.5 52l100 515q7 34 -13 53t-63 19zM531 844q0 -25 -27 -40l-126 -71h-32l115 115q22 22 44 22q12 0 19 -7.5
t7 -18.5z" />
    <glyph glyph-name="Ecyril" unicode="&#x404;" horiz-adv-x="619" 
d="M610 696h19l-43 -218h-19q-12 84 -48.5 139.5t-103.5 55.5q-71 0 -127.5 -46t-88 -111t-44.5 -140h284l-7 -38h-282q-2 -28 -2 -40q0 -129 44 -198t125 -69q107 0 203 77q9 7 16.5 8t11 -2t2.5 -9q-2 -6 -8 -12q-45 -51 -109 -79.5t-133 -28.5q-115 0 -185 77t-70 215
q0 119 53.5 220t138.5 157.5t179 56.5q47 0 90.5 -16.5t60.5 -29.5q23 6 43 31z" />
    <glyph glyph-name="Dze" unicode="&#x405;" horiz-adv-x="591" 
d="M513 711h18l-44 -222h-18q-19 90 -51 137t-102 47q-59 0 -97 -37t-38 -93q0 -60 68 -101l117 -69q119 -70 119 -176q0 -55 -22.5 -97t-59.5 -66.5t-79.5 -36.5t-87.5 -12q-69 0 -129.5 32t-81.5 93q-5 15 -5 17q0 6 3.5 11.5t9.5 5.5q8 0 11 -7q50 -109 170 -109
q74 0 121 35.5t47 102.5q0 53 -18.5 81.5t-57.5 51.5l-106 63q-101 60 -101 154q0 85 64.5 140t156.5 55q71 0 151 -41q10 5 20.5 15t16.5 18z" />
    <glyph glyph-name="Icyril" unicode="&#x406;" horiz-adv-x="340" 
d="M101 696h274l-4 -19q-43 0 -70 -19t-34 -53l-100 -515q-7 -33 13 -52t63 -19l-4 -19h-274l4 19q42 0 69.5 19t34.5 52l100 515q7 34 -13 53t-63 19z" />
    <glyph glyph-name="Yi" unicode="&#x407;" horiz-adv-x="340" 
d="M101 696h274l-4 -19q-43 0 -70 -19t-34 -53l-100 -515q-7 -33 13 -52t63 -19l-4 -19h-274l4 19q42 0 69.5 19t34.5 52l100 515q7 34 -13 53t-63 19zM216 793q0 -23 -16 -39t-36 -16t-36 16t-16 39t16 39t36 16t36 -16t16 -39zM385 793q0 -23 -16 -39t-36 -16
q-19 0 -35.5 16t-16.5 39t16.5 39t35.5 16q20 0 36 -16t16 -39z" />
    <glyph glyph-name="Je" unicode="&#x408;" horiz-adv-x="406" 
d="M175 696h276l-3 -18q-43 0 -71.5 -19.5t-35.5 -53.5l-81 -417q-18 -97 -70 -150t-124 -53q-52 0 -82.5 25.5t-30.5 62.5q0 27 17 45t42 18q20 0 33 -12.5t13 -32.5q0 -15 -8.5 -31.5t-8.5 -21.5q0 -22 31 -22q62 0 80 92l96 497q7 34 -13 53.5t-63 19.5z" />
    <glyph glyph-name="Lje" unicode="&#x409;" horiz-adv-x="1010" 
d="M827 228q0 50 -30 83t-85 34l-110 3l-48 -247q-8 -41 2.5 -52t49.5 -11h48q79 0 126 55.5t47 134.5zM930 231q0 -106 -85.5 -168.5t-196.5 -62.5h-296l4 19q87 0 102 71l100 515q6 32 -6.5 42.5t-47.5 10.5h-106q-40 0 -55.5 -12t-21.5 -41q-36 -162 -53 -229
q-24 -95 -43 -149q-11 -32 -15 -42.5t-17.5 -43.5t-23 -48t-27.5 -40t-35.5 -36.5t-42 -21.5t-52.5 -10q-27 0 -42 11.5t-15 30.5q0 43 44 58q9 3 42 5t44 7q50 24 91 126q24 61 49 153l58 231q8 33 -13 51.5t-64 18.5l4 19h550l-4 -19q-43 0 -70 -19t-34 -53l-42 -219h130
q100 0 145 -42.5t45 -112.5z" />
    <glyph glyph-name="Nje" unicode="&#x40a;" horiz-adv-x="1037" 
d="M854 228q0 50 -30 83t-85 34l-110 3l-48 -247q-8 -41 2.5 -52t49.5 -11h48q79 0 126 55.5t47 134.5zM957 231q0 -106 -85.5 -168.5t-196.5 -62.5h-296l4 19q88 0 103 71l50 258h-319l-50 -258q-7 -33 13.5 -52t63.5 -19l-4 -19h-275l4 19q42 0 69.5 19t34.5 52l100 515
q7 34 -13 53t-63 19l4 19h275l-4 -19q-43 0 -70.5 -19t-34.5 -53l-43 -219h319l43 219q7 34 -12.5 53t-62.5 19l4 19h273l-4 -19q-43 0 -70 -19t-34 -53l-43 -219h130q100 0 145 -42.5t45 -112.5z" />
    <glyph glyph-name="Tshe" unicode="&#x40b;" horiz-adv-x="798" 
d="M711 19l-4 -19h-273l4 19q43 0 70 19t33 52l28 145q15 75 -11.5 105t-101.5 30q-66 0 -157 -32l-47 -248q-6 -33 14 -52t63 -19l-4 -19h-275l4 19q88 0 103 71l100 515q9 52 -39 52h-15q-29 0 -64.5 -34t-64.5 -97h-20l33 170h540l-33 -170h-20q-13 79 -32.5 105
t-78.5 26h-44q-29 0 -45.5 -10.5t-22.5 -41.5l-45 -229q117 49 199 49q195 0 160 -180l-30 -155q-7 -33 13 -52t63 -19z" />
    <glyph glyph-name="Kje" unicode="&#x40c;" horiz-adv-x="704" 
d="M716 667q0 -26 -21.5 -45t-48.5 -19q-11 0 -28 4t-29 4q-7 0 -14.5 -3t-16 -10t-14.5 -12.5t-16 -18t-15 -18.5t-16 -21t-15 -20l-68 -89q-33 -42 -60 -53l-1 -3q29 -14 44 -41l101 -185q1 -2 8.5 -16t10 -18t9.5 -16.5t11.5 -17t12.5 -14.5t14.5 -14.5t15.5 -10t18.5 -8
t20.5 -3.5l-4 -19h-151l-157 295q-11 20 -23 32t-27 16t-20 4.5t-20 0.5l-51 -258q-7 -33 13.5 -52t63.5 -19l-4 -19h-274l4 19q88 0 103 71l100 515q7 34 -13 53t-63 19l4 19h274l-4 -19q-43 0 -70 -19t-34 -53l-42 -220h80q38 0 71 44l90 120q34 46 50 66t42.5 47.5t49 38
t48.5 10.5q27 0 44 -11t17 -33zM635 844q0 -25 -27 -40l-126 -71h-32l115 115q22 22 44 22q12 0 19 -7.5t7 -18.5z" />
    <glyph glyph-name="Iigrave" unicode="&#x40d;" horiz-adv-x="788" 
d="M549 696h274l-4 -19q-43 0 -70 -19t-34 -53l-100 -515q-7 -33 13 -52t63 -19l-4 -19h-274l4 19q43 0 70.5 19t33.5 52l80 415h-3l-425 -383l-6 -32q-6 -33 14 -52t62 -19l-4 -19h-274l4 19q42 0 69.5 19t34.5 52l100 515q7 34 -13 53t-63 19l4 19h274l-4 -19
q-43 0 -70 -19t-34 -53l-82 -421h3l426 384l7 37q7 34 -13 53t-63 19zM370 847l115 -115h-32l-125 71q-28 15 -28 40q0 11 7.5 18.5t19.5 7.5q21 0 43 -22z" />
    <glyph glyph-name="Ucyrilbreve" unicode="&#x40e;" horiz-adv-x="661" 
d="M496 696h225l-4 -19q-42 0 -73 -22t-64 -79l-243 -422q-99 -169 -207 -169q-62 0 -62 43q0 23 17 42t40 19q10 0 29 -6t30 -6q32 0 62 17.5t47 50.5l19 35l-143 406q-18 50 -38.5 70.5t-56.5 20.5l4 19h265l-4 -19q-36 0 -60.5 -21t-7.5 -69l100 -290h3l157 282
q9 16 14 26.5t8 25.5t-1.5 24t-19 15.5t-40.5 6.5zM539 870h37q-26 -136 -148 -136q-120 0 -96 136h38q-6 -36 10.5 -58.5t57.5 -22.5q42 0 68 22.5t33 58.5z" />
    <glyph glyph-name="Dzhe" unicode="&#x40f;" horiz-adv-x="747" 
d="M509 696h273l-4 -19q-88 0 -103 -71l-100 -515q-7 -34 13 -53t63 -19l-4 -19h-186q-24 0 -42.5 -5.5t-43 -22.5t-48.5 -55t-46 -97h-20q1 59 -8 97t-27 55t-34.5 22.5t-40.5 5.5h-186l4 19q43 0 70 19t34 53l100 515q7 33 -13.5 52t-63.5 19l4 19h275l-4 -19
q-42 0 -69.5 -19t-34.5 -52l-100 -515q-6 -32 7 -42.5t48 -10.5h183q35 0 52.5 10.5t23.5 42.5l100 515q7 33 -13 52t-63 19z" />
    </font>
</defs>
</svg>
