<?xml version="1.0" standalone="no"?>
<!DOCTYPE svg PUBLIC "-//W3C//DTD SVG 1.1//EN" "http://www.w3.org/Graphics/SVG/1.1/DTD/svg11.dtd" >
<svg xmlns="http://www.w3.org/2000/svg" xmlns:xlink="http://www.w3.org/1999/xlink" version="1.1">
<metadata>
Created by FontForge 20161013 at Fri Mar  9 01:43:29 2012
 By ,,,
Copyright (c) 2011 by Nikola &#38; Zoran Kostic. All rights reserved.
</metadata>
<defs>
<font id="KosticSerif-Medium" horiz-adv-x="528" >
  <font-face 
    font-family="KosticSerif Md"
    font-weight="500"
    font-stretch="normal"
    units-per-em="1000"
    panose-1="2 0 0 0 0 0 0 0 0 0"
    ascent="755"
    descent="-245"
    x-height="479"
    cap-height="696"
    bbox="-165 -288.174 1291 963"
    underline-thickness="50"
    underline-position="-200"
    unicode-range="U+0020-FB34"
  />
<missing-glyph horiz-adv-x="470" 
d="M117 59h235v616h-235v-616zM59 0v733h353v-733h-353z" />
    <glyph glyph-name="f_f" unicode="ff" horiz-adv-x="641" 
d="M687 638q0 -24 -14 -39.5t-35 -15.5q-23 0 -35.5 16.5t-5.5 47.5q1 3 4 14t3 15q0 19 -27 19q-28 0 -43.5 -22t-15.5 -57v-137h93v-35h-93v-364q0 -26 14.5 -42.5t39.5 -16.5v-21h-221v21q25 0 39.5 16.5t14.5 42.5v364h-201v-364q0 -26 14.5 -42.5t39.5 -16.5v-21h-221
v21q25 0 39.5 16.5t14.5 42.5v364h-62v35h62v67q0 79 46 128.5t127 49.5q49 0 79 -25.5t30 -60.5q0 -24 -14 -39.5t-35 -15.5q-23 0 -35.5 16.5t-5.5 47.5q1 3 4 14t3 15q0 19 -27 19q-28 0 -43.5 -22t-15.5 -57v-137h201v67q0 79 46 128.5t127 49.5q49 0 79 -25.5t30 -60.5
z" />
    <glyph glyph-name="fi" unicode="fi" horiz-adv-x="604" 
d="M572 21v-21h-221v21q25 0 39.5 16.5t14.5 42.5v305q0 26 -15 42.5t-40 16.5h-146v-364q0 -26 14.5 -42.5t39.5 -16.5v-21h-221v21q25 0 39.5 16.5t14.5 42.5v364h-62v35h62v51q0 82 53.5 138t150.5 56q73 0 111 -28t38 -69q0 -26 -15.5 -42.5t-40.5 -16.5q-29 0 -43.5 20
t-6.5 52q6 20 6 27q0 28 -47 28q-93 0 -93 -132v-84h314v-399q0 -26 15 -42.5t39 -16.5z" />
    <glyph glyph-name="fl" unicode="fl" horiz-adv-x="604" 
d="M572 22v-22h-221v22q25 0 39.5 16t14.5 42v551q0 63 -70 63h-15q-116 0 -116 -134v-81h93v-35h-93v-364q0 -26 14.5 -42.5t39.5 -16.5v-21h-221v21q25 0 39.5 16.5t14.5 42.5v364h-62v35h62v12q0 232 219 232h208v-643q0 -26 14.5 -42t39.5 -16z" />
    <glyph glyph-name="f_f_i" unicode="ffi" horiz-adv-x="918" 
d="M886 21v-21h-222v21q25 0 39.5 16t14.5 43v305q0 26 -14.5 42.5t-39.5 16.5h-147v-364q0 -26 15 -42.5t40 -16.5v-21h-222v21q26 0 40 16.5t14 42.5v364h-201v-364q0 -26 15 -42.5t40 -16.5v-21h-221v21q25 0 39 16.5t14 42.5v364h-61v35h61v67q0 79 46.5 128.5
t127.5 49.5q49 0 79 -25.5t30 -60.5q0 -24 -14 -39.5t-35 -15.5q-23 0 -35.5 16.5t-5.5 47.5q1 3 4 14t3 15q0 19 -27 19q-28 0 -44 -22t-16 -57v-137h201v51q0 82 54 138t151 56q73 0 111 -28t38 -69q0 -26 -15.5 -42.5t-40.5 -16.5q-29 0 -43.5 20t-6.5 52q6 20 6 27
q0 28 -47 28q-94 0 -94 -132v-84h314v-399q0 -26 15 -42.5t40 -16.5z" />
    <glyph glyph-name="f_f_l" unicode="ffl" horiz-adv-x="918" 
d="M886 22v-22h-221v22q25 0 39.5 16t14.5 42v551q0 63 -70 63h-15q-116 0 -116 -134v-81h93v-35h-93v-364q0 -26 14.5 -42.5t39.5 -16.5v-21h-221v21q25 0 39.5 16.5t14.5 42.5v364h-201v-364q0 -26 14.5 -42.5t39.5 -16.5v-21h-221v21q25 0 39.5 16.5t14.5 42.5v364h-62
v35h62v67q0 79 46 128.5t127 49.5q49 0 79 -25.5t30 -60.5q0 -24 -14 -39.5t-35 -15.5q-23 0 -35.5 16.5t-5.5 47.5q1 3 4 14t3 15q0 19 -27 19q-28 0 -43.5 -22t-15.5 -57v-137h201v12q0 232 220 232h207v-643q0 -26 14.5 -42t39.5 -16z" />
    <glyph glyph-name="f_t" unicode="ft" horiz-adv-x="651" 
d="M651 72q0 -4 -3 -10q-38 -72 -119 -72q-124 0 -124 131v323h-201v-364q0 -26 14.5 -42.5t39.5 -16.5v-21h-221v21q25 0 39.5 16.5t14.5 42.5v364h-62v35h62v67q0 79 46 128.5t127 49.5q49 0 79 -25.5t30 -60.5q0 -24 -14 -39.5t-35 -15.5q-23 0 -35.5 16.5t-5.5 47.5
q1 3 4 14t3 15q0 19 -27 19q-28 0 -43.5 -22t-15.5 -57v-137h126q100 0 160 146h28v-146h94v-35h-94v-349q0 -63 46 -63q36 0 66 44q7 8 14 6t7 -10z" />
    <glyph glyph-name="f_f_t" unicode="fft" horiz-adv-x="965" 
d="M965 72q0 -2 -1 -6q-2 -2 -2 -4q-38 -72 -119 -72q-124 0 -124 131v323h-201v-364q0 -26 14.5 -42.5t39.5 -16.5v-21h-221v21q25 0 39.5 16.5t14.5 42.5v364h-201v-364q0 -26 14.5 -42.5t39.5 -16.5v-21h-221v21q25 0 39.5 16.5t14.5 42.5v364h-62v35h62v67
q0 79 46 128.5t127 49.5q49 0 79 -25.5t30 -60.5q0 -24 -14 -39.5t-35 -15.5q-24 0 -36.5 17t-4.5 47q7 23 7 29q0 19 -27 19q-28 0 -43.5 -22t-15.5 -57v-137h201v67q0 79 46 128.5t127 49.5q49 0 79 -25.5t30 -60.5q0 -24 -14 -39.5t-35 -15.5q-24 0 -37 16.5t-5 47.5
q8 27 8 29q0 19 -27 19q-28 0 -43.5 -22t-15.5 -57v-137h126q99 0 159 146h29v-146h94v-35h-94v-349q0 -63 46 -63q36 0 66 44q7 8 14 6t7 -10z" />
    <glyph glyph-name="f_b" unicode="fb" horiz-adv-x="904" 
d="M743 245q0 199 -95 199q-57 0 -93.5 -57.5t-36.5 -147.5q0 -99 33.5 -152.5t87.5 -53.5q104 0 104 212zM858 257q0 -122 -55 -194t-149 -72q-42 0 -77.5 18.5t-56.5 41.5h-2q-14 -5 -36.5 -21t-34.5 -30h-42v631q0 30 -18.5 46.5t-51.5 16.5h-15q-116 0 -116 -134v-81h93
v-35h-93v-364q0 -26 14.5 -42.5t39.5 -16.5v-21h-221v21q25 0 39.5 16.5t14.5 42.5v364h-62v35h62v12q0 232 219 232h208v-320h2q16 31 59 58.5t97 27.5q82 0 132 -61t50 -171z" />
    <glyph glyph-name="f_h" unicode="fh" horiz-adv-x="904" 
d="M872 22v-22h-217v22q22 0 36 15t14 38v262q0 41 -22 67.5t-64 26.5q-43 0 -72 -32t-29 -74v-250q0 -24 13.5 -38.5t36.5 -14.5v-22h-216v22q24 0 38.5 16t14.5 42v551q0 63 -70 63h-14q-117 0 -117 -134v-81h93v-35h-93v-364q0 -26 14.5 -42.5t39.5 -16.5v-21h-221v21
q25 0 39.5 16.5t14.5 42.5v364h-62v35h62v12q0 232 220 232h207v-310h3q24 33 63.5 54.5t87.5 21.5q33 0 64 -12t56.5 -48t25.5 -90v-259q0 -26 14.5 -42t39.5 -16z" />
    <glyph glyph-name="f_j" unicode="fj" horiz-adv-x="595" 
d="M518 479v-476q0 -120 -47.5 -179t-125.5 -59q-50 0 -83 22.5t-33 62.5q0 24 15.5 39t36.5 15q22 1 36 -13.5t10 -39.5q0 -5 -3.5 -15t-3.5 -15q0 -22 30 -22q28 0 41.5 24t13.5 82v480q0 26 -15 42.5t-40 16.5h-146v-364q0 -26 14.5 -42.5t39.5 -16.5v-21h-221v21
q25 0 39.5 16.5t14.5 42.5v364h-62v35h62v51q0 82 53.5 138t150.5 56q73 0 111.5 -28t38.5 -69q0 -26 -16 -42.5t-41 -16.5q-28 0 -42.5 20t-6.5 52q5 17 5 27q0 28 -47 28q-93 0 -93 -132v-84h314z" />
    <glyph glyph-name="f_k" unicode="fk" horiz-adv-x="890" 
d="M880 22v-22h-168l-125 197q-19 30 -31 37t-38 7v-161q0 -27 14.5 -42.5t39.5 -15.5v-22h-221v22q25 0 39.5 15.5t14.5 42.5v551q0 63 -70 63h-15q-116 0 -116 -134v-81h93v-35h-93v-364q0 -24 15.5 -41.5t38.5 -17.5v-21h-221v21q25 0 39.5 16.5t14.5 42.5v364h-62v35h62
v12q0 232 219 232h208v-444q36 -1 53 7.5t44 39.5l70 80q20 20 16.5 36t-33.5 16v21h182v-21q-28 -1 -51.5 -11.5t-58.5 -47.5l-96 -100v-4l164 -236q15 -22 31 -29.5t41 -7.5z" />
    <glyph glyph-name="f_y" unicode="fy" horiz-adv-x="851" 
d="M842 479v-21q-30 0 -47 -22t-38 -74l-181 -457q-29 -71 -57 -105.5t-74 -34.5q-37 0 -59.5 22.5t-22.5 54.5q0 29 17 46t40 17q41 0 41 -42q0 -3 -1 -10.5t-1 -10.5q0 -18 18 -18q17 0 30.5 22t30.5 67l30 79l-179 372q-26 53 -43 66.5t-62 13.5h-80v-364
q0 -26 14.5 -42.5t39.5 -16.5v-21h-221v21q25 0 39.5 16.5t14.5 42.5v364h-62v35h62v67q0 79 46 128.5t127 49.5q49 0 79 -25.5t30 -60.5q0 -24 -14 -39.5t-35 -15.5q-17 0 -30 12t-13 33q0 8 4.5 25t4.5 23q0 19 -27 19q-28 0 -43.5 -22t-15.5 -57v-137h328v-21
q-63 0 -30 -72l118 -257h3l92 272q18 54 -37 57v21h164z" />
    <glyph glyph-name="f_f_b" unicode="ffb" horiz-adv-x="1218" 
d="M1057 245q0 199 -95 199q-57 0 -93.5 -57.5t-36.5 -147.5q0 -99 33.5 -152.5t87.5 -53.5q104 0 104 212zM1172 257q0 -122 -55 -194t-149 -72q-42 0 -77.5 18.5t-56.5 41.5h-2q-14 -5 -36.5 -21t-34.5 -30h-42v631q0 63 -70 63h-15q-116 0 -116 -134v-81h93v-35h-93v-364
q0 -26 14.5 -42.5t39.5 -16.5v-21h-221v21q25 0 39.5 16.5t14.5 42.5v364h-201v-364q0 -26 14.5 -42.5t39.5 -16.5v-21h-221v21q25 0 39.5 16.5t14.5 42.5v364h-62v35h62v67q0 79 46 128.5t127 49.5q48 0 78.5 -26t30.5 -60q0 -24 -14 -39.5t-35 -15.5q-17 0 -30 12t-13 33
q0 8 4.5 25t4.5 23q0 19 -27 19q-28 0 -43.5 -22t-15.5 -57v-137h201v1v11q0 232 220 232h207v-320h2q16 31 59 58.5t97 27.5q82 0 132 -61t50 -171z" />
    <glyph glyph-name="f_f_h" unicode="ffh" horiz-adv-x="1218" 
d="M1186 22v-22h-217v22q22 0 36 15t14 38v262q0 41 -22 67.5t-64 26.5q-43 0 -72 -32t-29 -74v-250q0 -24 13.5 -38.5t36.5 -14.5v-22h-216v22q24 0 38.5 16t14.5 42v551q0 63 -70 63h-14q-117 0 -117 -134v-81h93v-35h-93v-364q0 -26 14.5 -42.5t39.5 -16.5v-21h-221v21
q25 0 39.5 16.5t14.5 42.5v364h-201v-364q0 -26 14.5 -42.5t39.5 -16.5v-21h-221v21q25 0 39.5 16.5t14.5 42.5v364h-62v35h62v67q0 79 46 128.5t127 49.5q49 0 79 -25.5t30 -60.5q0 -24 -14 -39.5t-35 -15.5q-23 0 -35.5 16.5t-5.5 47.5q1 3 4 14t3 15q0 19 -27 19
q-28 0 -43.5 -22t-15.5 -57v-137h201v12q0 232 220 232h207v-310h3q24 33 63.5 54.5t87.5 21.5q33 0 64 -12t56.5 -48t25.5 -90v-259q0 -26 14.5 -42t39.5 -16z" />
    <glyph glyph-name="f_f_j" unicode="ffj" horiz-adv-x="909" 
d="M832 479v-476q0 -120 -47.5 -179t-125.5 -59q-50 0 -83 22.5t-33 62.5q0 24 15.5 39t36.5 15q22 1 36 -13.5t10 -39.5q0 -5 -3.5 -15t-3.5 -15q0 -22 30 -22q28 0 41.5 24t13.5 82v480q0 26 -15 42.5t-40 16.5h-146v-364q0 -26 14.5 -42.5t39.5 -16.5v-21h-221v21
q25 0 39.5 16.5t14.5 42.5v364h-201v-364q0 -26 14.5 -42.5t39.5 -16.5v-21h-221v21q25 0 39.5 16.5t14.5 42.5v364h-62v35h62v67q0 79 46 128.5t127 49.5q49 0 79 -25.5t30 -60.5q0 -24 -14 -39.5t-35 -15.5q-23 0 -35.5 16.5t-5.5 47.5q1 3 4 14t3 15q0 19 -27 19
q-28 0 -43.5 -22t-15.5 -57v-137h201v51q0 82 53.5 138t150.5 56q73 0 111 -27.5t38 -68.5q0 -26 -15.5 -43t-40.5 -17q-28 0 -43 20.5t-7 52.5q0 1 3 11t3 15q0 28 -47 28q-93 0 -93 -132v-84h314z" />
    <glyph glyph-name="f_f_k" unicode="ffk" horiz-adv-x="1204" 
d="M1194 22v-22h-168l-125 197q-19 30 -31 37t-38 7v-161q0 -27 14.5 -42.5t39.5 -15.5v-22h-221v22q25 0 39.5 15.5t14.5 42.5v551q0 63 -70 63h-15q-116 0 -116 -134v-81h93v-35h-93v-364q0 -24 15.5 -41.5t38.5 -17.5v-21h-221v21q25 0 39.5 16.5t14.5 42.5v364h-201
v-364q0 -28 14.5 -43.5t39.5 -15.5v-21h-221v21q25 0 39.5 15.5t14.5 43.5v364h-62v35h62v67q0 79 46 128.5t127 49.5q49 0 79 -25.5t30 -60.5q0 -24 -14 -39.5t-35 -15.5q-23 0 -35 16.5t-6 47.5q1 3 4 14t3 15q0 19 -27 19q-28 0 -43.5 -22t-15.5 -57v-137h201v12
q0 232 219 232h208v-444q36 -1 53 7.5t44 39.5l70 80q20 20 16.5 36t-33.5 16v21h182v-21q-28 -1 -51.5 -11.5t-58.5 -47.5l-96 -100v-4l164 -236q15 -22 31 -29.5t41 -7.5z" />
    <glyph glyph-name="f_f_y" unicode="ffy" horiz-adv-x="1165" 
d="M577 695q-28 0 -43.5 -22t-15.5 -57v-137h328v-21q-63 0 -30 -72l118 -257h3l92 272q18 54 -37 57v21h164v-21q-30 0 -47 -22t-38 -74l-181 -457q-29 -71 -57 -105.5t-74 -34.5q-37 0 -59.5 22.5t-22.5 54.5q0 29 17 46t40 17q41 0 41 -42q0 -3 -1 -10.5t-1 -10.5
q0 -18 18 -18q17 0 30.5 22t30.5 67l30 79l-179 372q-26 53 -43 66.5t-62 13.5h-80v-364q0 -26 14.5 -42.5t39.5 -16.5v-21h-221v21q25 0 39.5 16.5t14.5 42.5v364h-201v-364q0 -28 14.5 -43.5t39.5 -15.5v-21h-221v21q25 0 39.5 15.5t14.5 43.5v364h-62v35h62v67
q0 79 46 128.5t127 49.5q49 0 79 -25.5t30 -60.5q0 -24 -14 -39.5t-35 -15.5q-24 0 -37 17t-4 47q7 23 7 29q0 19 -27 19q-28 0 -43.5 -22t-15.5 -57v-137h201v67q0 79 46 128.5t127 49.5q49 0 79 -25.5t30 -60.5q0 -24 -14 -39.5t-35 -15.5q-24 0 -37 17t-4 47q7 23 7 29
q0 19 -27 19z" />
    <glyph glyph-name="t_t" unicode="tt" horiz-adv-x="651" 
d="M651 72q0 -2 -4 -10q-38 -72 -119 -72q-123 0 -123 131v323h-201v-349q0 -63 46 -63q34 0 66 44q6 8 13.5 6t7.5 -10q0 -2 -4 -10q-38 -72 -119 -72q-123 0 -123 131v323h-71v26q54 17 94 61t61 94h29v-146h153q89 41 132 146h29v-146h93v-35h-93v-349q0 -63 46 -63
q34 0 66 44q6 8 13.5 6t7.5 -10z" />
    <glyph glyph-name="t_y" unicode="ty" horiz-adv-x="853" 
d="M204 479h330v-21q-63 0 -30 -72l118 -257h3l92 272q18 54 -37 57v21h164v-21q-30 0 -47 -22t-38 -74l-181 -457q-29 -71 -57 -105.5t-74 -34.5q-37 0 -59.5 22.5t-22.5 54.5q0 29 17 46t40 17q41 0 41 -42q0 -3 -1 -10.5t-1 -10.5q0 -18 18 -18q17 0 30.5 22t30.5 67
l30 79l-179 372q-26 54 -42 67t-63 13h-82v-349q0 -63 46 -63q34 0 66 44q6 9 13.5 7t7.5 -10q0 -3 -4 -11q-38 -72 -119 -72q-123 0 -123 131v323h-71v26q54 17 94 61t61 94h29v-146z" />
    <glyph glyph-name="t_t_y" unicode="tty" horiz-adv-x="1167" 
d="M600 444h-82v-349q0 -63 46 -63q34 0 66 44q6 8 13.5 6t7.5 -10q0 -2 -4 -10q-38 -72 -119 -72q-123 0 -123 131v323h-201v-349q0 -63 46 -63q34 0 66 44q6 8 13.5 6t7.5 -10q0 -2 -4 -10q-38 -72 -119 -72q-123 0 -123 131v323h-71v26q54 17 94 61t61 94h29v-146h153
q89 41 132 146h29v-146h330v-21q-63 0 -30 -72l118 -257h3l92 272q18 54 -37 57v21h164v-21q-30 0 -47 -22t-38 -74l-181 -457q-29 -71 -57 -105.5t-74 -34.5q-37 0 -59.5 22.5t-22.5 54.5q0 29 17 46t40 17q41 0 41 -42q0 -3 -1 -10.5t-1 -10.5q0 -18 18 -18q17 0 30.5 22
t30.5 67l30 79l-179 372q-26 54 -42 67t-63 13z" />
    <glyph glyph-name="f_r" unicode="fr" horiz-adv-x="749" 
d="M373 638q0 -24 -14 -39.5t-35 -15.5q-23 0 -35 16.5t-6 47.5q1 3 4 14t3 15q0 19 -27 19q-28 0 -43.5 -22t-15.5 -57v-137h314v-80h3q17 31 51.5 60.5t79.5 29.5q38 0 58 -22.5t20 -53.5q0 -29 -16 -47t-41 -18q-22 0 -35.5 12.5t-13.5 32.5q0 8 2 18.5t2 14.5
q0 13 -13 13q-23 0 -51.5 -28.5t-45.5 -69.5v-261q0 -26 14.5 -42t39.5 -16v-22h-221v22q25 0 39.5 16t14.5 42v305q0 27 -14.5 43t-39.5 16h-147v-364q0 -28 14.5 -43.5t39.5 -15.5v-21h-221v21q25 0 39.5 15.5t14.5 43.5v364h-62v35h62v67q0 79 46 128.5t127 49.5
q49 0 79 -25.5t30 -60.5z" />
    <glyph glyph-name="f_f_r" unicode="ffr" horiz-adv-x="1063" 
d="M687 638q0 -24 -14 -39.5t-35 -15.5q-23 0 -35 16.5t-6 47.5q1 3 4 14t3 15q0 19 -27 19q-28 0 -43.5 -22t-15.5 -57v-137h314v-80h3q17 31 51.5 60.5t79.5 29.5q38 0 58 -22.5t20 -53.5q0 -29 -16 -47t-41 -18q-22 0 -35.5 12.5t-13.5 32.5q0 8 2 18.5t2 14.5
q0 13 -13 13q-23 0 -51.5 -28.5t-45.5 -69.5v-261q0 -26 14.5 -42t39.5 -16v-22h-221v22q25 0 39.5 16t14.5 42v305q0 27 -14.5 43t-39.5 16h-147v-364q0 -28 14.5 -43.5t39.5 -15.5v-21h-221v21q25 0 39.5 15.5t14.5 43.5v364h-201v-364q0 -28 14.5 -43.5t39.5 -15.5v-21
h-221v21q25 0 39.5 15.5t14.5 43.5v364h-62v35h62v67q0 79 46 128.5t127 49.5q49 0 79 -25.5t30 -60.5q0 -24 -14 -39.5t-35 -15.5q-23 0 -35 16.5t-6 47.5q1 3 4 14t3 15q0 19 -27 19q-28 0 -43.5 -22t-15.5 -57v-137h201v67q0 79 46 128.5t127 49.5q49 0 79 -25.5
t30 -60.5z" />
    <glyph glyph-name="f_t_y" unicode="fty" horiz-adv-x="1167" 
d="M651 72q0 -4 -3 -10q-38 -72 -119 -72q-124 0 -124 131v323h-201v-364q0 -26 14.5 -42.5t39.5 -16.5v-21h-221v21q25 0 39.5 16.5t14.5 42.5v364h-62v35h62v67q0 79 46 128.5t127 49.5q49 0 79 -25.5t30 -60.5q0 -24 -14 -39.5t-35 -15.5q-23 0 -35.5 16.5t-5.5 47.5
q1 3 4 14t3 15q0 19 -27 19q-28 0 -43.5 -22t-15.5 -57v-137h126q100 0 160 146h28v-146h330v-21q-63 0 -30 -72l118 -257h3l92 272q18 54 -37 57v21h164v-21q-30 0 -47 -22t-38 -74l-181 -457q-29 -71 -57 -105.5t-74 -34.5q-37 0 -59.5 22.5t-22.5 54.5q0 29 17 46t40 17
q41 0 41 -42q0 -3 -1 -10.5t-1 -10.5q0 -18 18 -18q17 0 30.5 22t30.5 67l30 79l-179 372q-26 54 -42 67t-63 13h-82v-349q0 -63 46 -63q36 0 66 44q7 8 14 6t7 -10z" />
    <glyph glyph-name=".notdef" horiz-adv-x="470" 
d="M117 59h235v616h-235v-616zM59 0v733h353v-733h-353z" />
    <glyph glyph-name=".null" horiz-adv-x="0" 
 />
    <glyph glyph-name="nonmarkingreturn" horiz-adv-x="333" 
 />
    <glyph glyph-name="space" unicode=" " horiz-adv-x="235" 
 />
    <glyph glyph-name="exclam" unicode="!" horiz-adv-x="284" 
d="M214 59q0 -29 -21.5 -50t-50.5 -21q-30 0 -51 21t-21 50q0 30 21 51t51 21q29 0 50.5 -21t21.5 -51zM205 618q0 -38 -21 -189t-28 -230h-27q-7 81 -28.5 231t-21.5 188q0 32 17.5 53t45.5 21t45.5 -20.5t17.5 -53.5z" />
    <glyph glyph-name="quotedbl" unicode="&#x22;" horiz-adv-x="381" 
d="M168 635q0 -12 -16.5 -89t-18.5 -116h-43q-2 39 -18.5 116t-16.5 89q0 24 16.5 40.5t40.5 16.5q23 0 39.5 -16.5t16.5 -40.5zM326 635q0 -12 -16.5 -89.5t-19.5 -115.5h-42q-3 38 -19 115.5t-16 89.5q0 24 16 40.5t40 16.5t40.5 -16.5t16.5 -40.5z" />
    <glyph glyph-name="numbersign" unicode="#" horiz-adv-x="500" 
d="M294 282l17 112h-96l-16 -112h95zM482 478v-84h-90q-11 -80 -16 -112h83v-85h-95l-30 -204h-82l30 204h-94l-34 -204h-80q11 68 31 204h-87v85h99l17 112h-92v84h102l31 199h82l-31 -199h95l31 199h81l-30 -199h79z" />
    <glyph glyph-name="dollar" unicode="$" horiz-adv-x="561" 
d="M211 458l40 -22v219q-46 -4 -75 -35.5t-29 -72.5q0 -53 64 -89zM412 145q0 42 -25.5 70t-77.5 53v-244q43 5 73 39t30 82zM515 183q0 -81 -57 -134.5t-149 -61.5v-79h-58v78q-89 6 -149 48t-60 102q0 31 18.5 51t47.5 20q26 0 40 -15t14 -36q0 -9 -3 -22t-3 -22
q0 -31 24 -57t71 -33v271l-89 42q-118 55 -118 165q0 80 57.5 133t149.5 61v58h58v-58q84 -7 132 -50t48 -92q0 -31 -16 -49t-40 -18q-23 0 -37 14.5t-14 35.5q0 8 3 22.5t3 22.5q0 27 -19.5 48.5t-59.5 27.5v-252l66 -31q139 -65 140 -190z" />
    <glyph glyph-name="percent" unicode="%" horiz-adv-x="729" 
d="M255 520q2 58 -14.5 94.5t-47.5 36.5q-28 0 -49 -36t-22 -91q-2 -58 14 -95t48 -37q28 0 48.5 36t22.5 92zM607 153q2 58 -14.5 95t-48.5 37q-27 0 -47.5 -36t-22.5 -92q-2 -57 14 -94t48 -37q28 0 48.5 36t22.5 91zM339 521q0 -71 -44 -121t-107 -50q-62 0 -106.5 50.5
t-44.5 120.5q0 71 44.5 121.5t106.5 50.5q63 0 107 -50.5t44 -121.5zM506 691h71l-354 -696h-71zM692 154q0 -70 -44.5 -120.5t-106.5 -50.5q-63 0 -107 50t-44 121t44 121.5t107 50.5q62 0 106.5 -50.5t44.5 -121.5z" />
    <glyph glyph-name="ampersand" unicode="&#x26;" horiz-adv-x="648" 
d="M343 373h290v-40h-90v-279q-35 -24 -97.5 -46.5t-128.5 -22.5q-123 0 -199.5 50.5t-76.5 145.5q0 64 43 113t103 70v2q-49 19 -80.5 57.5t-31.5 91.5q0 72 60.5 124.5t160.5 52.5q73 0 153 -41q8 4 18.5 17t15.5 24h26v-218h-26q-40 93 -76.5 136.5t-98.5 43.5
q-53 0 -89 -38t-36 -98q0 -62 41.5 -103.5t118.5 -41.5zM421 52v281h-95q-75 0 -119 -47t-44 -110q0 -76 43.5 -116t113.5 -40q34 0 61.5 10.5t39.5 21.5z" />
    <glyph glyph-name="quotesingle" unicode="'" horiz-adv-x="223" 
d="M168 635q0 -12 -16.5 -89t-18.5 -116h-43q-2 39 -18.5 116t-16.5 89q0 24 16.5 40.5t40.5 16.5q23 0 39.5 -16.5t16.5 -40.5z" />
    <glyph glyph-name="parenleft" unicode="(" horiz-adv-x="329" 
d="M281 -234q-50 42 -86.5 82t-73 98.5t-55.5 135.5t-19 169t19 169t55.5 135.5t72.5 98.5t87 83q21 18 31 6t-10 -32q-87 -87 -119 -202t-32 -258q0 -144 32 -257.5t119 -201.5q12 -12 11.5 -22.5t-10 -11.5t-22.5 8z" />
    <glyph glyph-name="parenright" unicode=")" horiz-adv-x="329" 
d="M52 -234q-12 -10 -22 -8t-10 11.5t11 22.5q87 88 119 201.5t32 257.5q0 143 -32 258t-119 202q-20 20 -10 32t31 -6q51 -43 87 -83t72.5 -98.5t55.5 -135.5t19 -169t-19 -169t-55.5 -135.5t-73 -98.5t-86.5 -82z" />
    <glyph glyph-name="asterisk" unicode="*" horiz-adv-x="436" 
d="M340 382q-7 4 -40.5 36t-62.5 52q-1 0 -1 -1q3 -32 13.5 -74.5t11.5 -49.5q0 -21 -11 -35t-30 -14q-17 0 -29 12.5t-12 30.5q0 10 11 54t14 77h-1q-27 -19 -53.5 -44t-41.5 -37t-29 -12t-26.5 11.5t-12.5 29.5q0 22 13.5 31t56 21t77.5 28q-33 16 -75.5 28t-57 21.5
t-14.5 32.5q0 17 12 28.5t26 11.5q15 0 29.5 -11.5t41 -37t54.5 -45.5q0 1 1 1q-3 33 -14 77t-11 54q0 18 11.5 30.5t29.5 12.5q41 0 41 -43q0 -11 -11 -56t-14 -75l1 -1q27 19 53 44.5t41.5 37.5t30.5 12q14 0 26.5 -12t12.5 -29q0 -22 -13 -30t-56 -20.5t-79 -29.5
q29 -14 61 -24.5t48.5 -14.5t27.5 -14t11 -28q0 -17 -13 -29.5t-28 -12.5q-11 0 -20 6z" />
    <glyph glyph-name="plus" unicode="+" horiz-adv-x="500" 
d="M457 274v-71h-172v-172h-70v172h-173v71h173v172h70v-172h172z" />
    <glyph glyph-name="comma" unicode="," horiz-adv-x="245" 
d="M198 30q0 -121 -115 -175q-13 -7 -17.5 1t6.5 16q27 19 45.5 44t18.5 48q0 24 -23 24q-28 0 -47.5 19t-19.5 51q0 29 21 51t50 22q39 0 60 -29t21 -72z" />
    <glyph glyph-name="hyphen" unicode="-" horiz-adv-x="328" 
d="M286 271v-76h-244v76h244z" />
    <glyph glyph-name="period" unicode="." horiz-adv-x="245" 
d="M190 59q0 -29 -21.5 -50t-51.5 -21q-29 0 -50 21t-21 50q0 30 21 51t50 21q30 0 51.5 -21t21.5 -51z" />
    <glyph glyph-name="slash" unicode="/" horiz-adv-x="298" 
d="M199 692h79l-179 -707h-79z" />
    <glyph glyph-name="zero" unicode="0" horiz-adv-x="571" 
d="M403 338q0 61 -5.5 113t-18 98.5t-36.5 73t-58 26.5q-117 0 -117 -311q0 -310 117 -310q34 0 58 26.5t36.5 73t18 98t5.5 112.5zM523 338q0 -157 -66 -255t-172 -98t-171.5 97.5t-65.5 255.5q0 157 65.5 252.5t171.5 95.5t172 -95.5t66 -252.5z" />
    <glyph glyph-name="one" unicode="1" horiz-adv-x="341" 
d="M315 21v-21h-275v21q36 0 58.5 19.5t22.5 51.5v414q0 43 -13.5 51t-80.5 8v19q42 16 95.5 46.5t79.5 55.5h31v-594q0 -28 23.5 -49.5t58.5 -21.5z" />
    <glyph glyph-name="two" unicode="2" horiz-adv-x="540" 
d="M488 506q0 -25 -8.5 -50t-18.5 -43.5t-30.5 -43.5t-32.5 -36.5t-38 -36.5t-33 -32l-151 -149v-2h212q17 0 30 8.5t18 16t16 29.5q3 4 4 7h31v-174h-441v35l205 227q61 68 89 125t28 122q0 62 -26 102.5t-83 40.5q-48 0 -74 -25.5t-26 -68.5q0 -8 3 -24.5t3 -22.5
q0 -23 -14.5 -40t-40.5 -17q-27 0 -45 17.5t-18 51.5q0 64 63.5 113.5t158.5 49.5q93 0 156 -48.5t63 -131.5z" />
    <glyph glyph-name="three" unicode="3" horiz-adv-x="530" 
d="M483 201q0 -98 -68.5 -157t-180.5 -59q-86 0 -139.5 33t-53.5 86q0 30 19 49t47 19t41 -17t13 -40q0 -6 -2 -17t-2 -16q0 -29 23 -46t61 -17q55 0 87.5 44.5t32.5 126.5q0 73 -44.5 117.5t-125.5 44.5v37q62 0 105.5 34.5t43.5 110.5q0 53 -25 86t-71 33q-40 0 -62 -20
t-22 -55q0 -5 1.5 -17t1.5 -16q0 -24 -15 -39t-37 -15q-27 0 -42 17t-15 44q0 50 52 92t143 42q92 0 144 -44.5t52 -111.5q0 -55 -33.5 -91t-71.5 -52v-3q62 -18 102.5 -67t40.5 -116z" />
    <glyph glyph-name="four" unicode="4" horiz-adv-x="542" 
d="M104 230h202v326h-2q-187 -305 -200 -326zM499 21v-21h-275v21q37 0 59.5 19.5t22.5 51.5v72h-268v37l296 478h84v-449h89v-66h-89v-72q0 -32 22.5 -51.5t58.5 -19.5z" />
    <glyph glyph-name="five" unicode="5" horiz-adv-x="521" 
d="M471 201q0 -93 -70.5 -154.5t-181.5 -61.5q-85 0 -135 35t-50 87q0 31 19 50.5t45 19.5q24 0 39 -15.5t15 -40.5q0 -5 -1.5 -16t-1.5 -16q0 -32 19.5 -51t57.5 -19q53 0 88 47.5t35 122.5q0 83 -50 130t-142 47h-85l49 305h331l-18 -113h-288l-23 -142h79
q130 0 199.5 -60t69.5 -155z" />
    <glyph glyph-name="six" unicode="6" horiz-adv-x="559" 
d="M393 218q0 90 -31 133t-84 43q-57 0 -108 -42q-7 -43 -7 -81q0 -112 31 -180t91 -68q46 0 77 50.5t31 144.5zM513 227q0 -97 -62 -169.5t-172 -72.5q-101 0 -166 75t-65 208q0 121 55 214.5t143 144t195 59.5v-31q-112 -21 -175.5 -94.5t-87.5 -171.5h3q24 23 63.5 37
t73.5 14q94 0 144.5 -63t50.5 -150z" />
    <glyph glyph-name="seven" unicode="7" horiz-adv-x="461" 
d="M451 671v-47l-251 -624h-111l293 555v3h-248q-30 0 -44.5 -11t-25.5 -40h-30v164h417z" />
    <glyph glyph-name="eight" unicode="8" horiz-adv-x="562" 
d="M397 137q0 36 -20.5 67t-68.5 66l-72 53q-35 -25 -56.5 -71.5t-21.5 -87.5q0 -59 32.5 -100t90.5 -41q53 0 84.5 34.5t31.5 79.5zM397 531q0 49 -30.5 83.5t-80.5 34.5q-41 0 -70.5 -26.5t-29.5 -67.5q0 -32 20 -57t62 -56l63 -46q66 54 66 135zM517 172
q0 -83 -67.5 -135t-169.5 -52q-40 0 -79.5 10t-75.5 29.5t-58 54.5t-22 79q0 114 153 191l-35 26q-45 33 -66 65t-20 74q0 73 61 122.5t148 49.5q85 0 143 -46t58 -112q0 -57 -37 -96.5t-87 -55.5v-3l34 -25q120 -88 120 -176z" />
    <glyph glyph-name="nine" unicode="9" horiz-adv-x="558" 
d="M395 406q0 112 -30.5 177.5t-90.5 65.5q-46 0 -77 -48.5t-31 -141.5q0 -177 116 -177q56 0 110 46q3 45 3 78zM510 408q0 -185 -99 -297.5t-264 -125.5v31q63 13 108.5 40.5t71 67t39 78.5t20.5 88h-3q-14 -19 -56 -36t-88 -17q-90 0 -141.5 60.5t-51.5 149.5
q0 97 61.5 168t172.5 71q101 0 165.5 -73t64.5 -205z" />
    <glyph glyph-name="colon" unicode=":" horiz-adv-x="245" 
d="M190 381q0 -30 -21.5 -51t-51.5 -21q-29 0 -50 21t-21 51q0 29 21 50.5t50 21.5q30 0 51.5 -21.5t21.5 -50.5zM190 59q0 -29 -21.5 -50t-51.5 -21q-29 0 -50 21t-21 50q0 30 21 51t50 21q30 0 51.5 -21t21.5 -51z" />
    <glyph glyph-name="semicolon" unicode=";" horiz-adv-x="250" 
d="M198 30q0 -121 -115 -175q-13 -7 -17.5 1t6.5 16q27 19 45.5 44t18.5 48q0 24 -23 24q-28 0 -47.5 19t-19.5 51q0 29 21 51t50 22q39 0 60 -29t21 -72zM190 381q0 -30 -21.5 -51t-51.5 -21q-29 0 -50 21t-21 51q0 29 21 50.5t50 21.5q30 0 51.5 -21.5t21.5 -50.5z" />
    <glyph glyph-name="less" unicode="&#x3c;" horiz-adv-x="500" 
d="M457 67v-74l-415 212v69l415 211v-74l-319 -172z" />
    <glyph glyph-name="equal" unicode="=" horiz-adv-x="500" 
d="M42 279v71h415v-71h-415zM42 129v71h415v-71h-415z" />
    <glyph glyph-name="greater" unicode="&#x3e;" horiz-adv-x="500" 
d="M458 274v-69l-415 -212v74l319 172l-319 172v74z" />
    <glyph glyph-name="question" unicode="?" horiz-adv-x="466" 
d="M299 59q0 -29 -21 -50t-50 -21q-30 0 -51.5 21t-21.5 50q0 30 21.5 51t51.5 21q29 0 50 -21t21 -51zM425 541q0 -22 -5 -41t-20.5 -40.5t-22 -30.5t-32 -35t-29.5 -30q-40 -42 -55 -74.5t-20 -95.5h-28q-6 32 -6 73q0 33 9 58.5t32 65.5q50 83 50 146q0 44 -26 73.5
t-69 29.5q-33 0 -57 -16t-24 -38q0 -11 18.5 -33.5t18.5 -44.5t-14.5 -38t-39.5 -16q-27 0 -45.5 22t-18.5 56q0 69 55.5 114.5t138.5 45.5q80 0 135 -42t55 -109z" />
    <glyph glyph-name="at" unicode="@" horiz-adv-x="783" 
d="M451 314l12 46q12 32 2.5 65.5t-44.5 33.5q-43 0 -80 -58.5t-37 -122.5q0 -29 12 -48t38 -19q31 0 58.5 29.5t38.5 73.5zM743 377q0 -99 -59 -166t-141 -67q-48 0 -71 25t-29 59h-2q-19 -27 -50.5 -47.5t-68.5 -20.5q-55 0 -86.5 38.5t-31.5 96.5q0 83 55 149.5t133 66.5
q41 0 65 -18.5t30 -40.5h2l13 48h89l-65 -236q-10 -33 -0.5 -54t33.5 -21q47 0 84 56.5t37 134.5q0 106 -73 178t-188 72q-128 0 -215.5 -92.5t-87.5 -225.5q0 -131 83.5 -206.5t200.5 -75.5q75 0 130.5 17t128.5 59q15 9 23 9q7 0 7 -6q0 -7 -14 -21.5t-41 -32t-61.5 -33.5
t-81 -26.5t-94.5 -10.5q-162 0 -259 92t-97 237q0 152 111.5 257.5t266.5 105.5q138 0 231 -83t93 -217z" />
    <glyph glyph-name="A" unicode="A" horiz-adv-x="738" 
d="M232 278h197l-98 241h-6zM728 21v-21h-268v21q27 0 38.5 13.5t10.5 29t-8 33.5l-57 142h-227l-53 -133q-33 -85 50 -85v-21h-204v21q37 0 66 25t43 61l240 595h31l242 -600q32 -81 96 -81z" />
    <glyph glyph-name="B" unicode="B" horiz-adv-x="635" 
d="M457 182q0 69 -39.5 113t-114.5 48l-69 3v-245q0 -44 16 -53t84 -9q60 0 91.5 38.5t31.5 104.5zM435 530q0 57 -31.5 92t-87.5 35h-17q-37 0 -51 -13.5t-14 -47.5v-211h57q75 0 109.5 42t34.5 103zM589 195q0 -84 -61 -139.5t-170 -55.5h-327v21q36 0 58.5 19.5
t22.5 51.5v511q0 32 -22.5 52t-58.5 20v21h313q98 0 150 -43.5t52 -117.5q0 -50 -29.5 -91t-84.5 -63v-2q73 -20 115 -70t42 -114z" />
    <glyph glyph-name="C" unicode="C" horiz-adv-x="641" 
d="M602 0h-22q-5 10 -18 22t-23 17q-79 -54 -178 -54q-61 0 -114.5 21t-98 63t-70 113.5t-25.5 165.5q0 154 90 258.5t226 104.5q74 0 156 -46q9 2 20.5 12t16.5 19h22v-230h-33q-23 94 -68 150t-110 56q-82 0 -135 -84.5t-53 -239.5q0 -141 53 -232.5t142 -91.5
q121 0 193 179h29v-203z" />
    <glyph glyph-name="D" unicode="D" horiz-adv-x="727" 
d="M542 346q0 150 -59.5 230.5t-161.5 80.5h-22q-33 0 -49 -13.5t-16 -46.5v-497q0 -61 65 -61h25q117 0 167.5 79t50.5 228zM674 360q0 -177 -93.5 -268.5t-257.5 -91.5h-292v21q36 0 58.5 19.5t22.5 51.5v511q0 32 -22.5 52t-58.5 20v21h288q168 0 261.5 -83t93.5 -253z
" />
    <glyph glyph-name="E" unicode="E" horiz-adv-x="585" 
d="M549 190v-190h-518v21q36 0 58.5 19.5t22.5 51.5v511q0 32 -22.5 52t-58.5 20v21h495v-182h-23q-33 90 -62.5 116t-98.5 26h-11q-35 0 -52.5 -2.5t-30.5 -15.5t-13 -39v-216h78q35 0 62.5 26.5t27.5 69.5h23v-230h-23q0 43 -27.5 69.5t-62.5 26.5h-78v-249
q0 -31 17.5 -44.5t54.5 -13.5h21q33 0 55.5 2t41.5 10t30 16t24.5 29t22 39t25.5 56h22z" />
    <glyph glyph-name="F" unicode="F" horiz-adv-x="541" 
d="M521 696v-182h-23q-33 90 -63.5 116.5t-98.5 26.5h-8q-50 0 -71.5 -10t-21.5 -48v-252h67q35 0 62 25t27 68h24v-225h-24q0 43 -27 68t-62 25h-67v-216q0 -32 22 -51.5t58 -19.5v-21h-284v21q36 0 58.5 19.5t22.5 51.5v511q0 32 -22.5 52t-58.5 20v21h490z" />
    <glyph glyph-name="G" unicode="G" horiz-adv-x="743" 
d="M733 299q-40 0 -65 -21.5t-25 -55.5v-226h-21q-10 31 -41 48q-100 -59 -203 -59q-150 0 -237.5 93t-87.5 263q0 160 97 265t239 105q91 0 175 -48q8 2 16.5 10t13.5 15l4 8h22v-228h-31q-35 95 -81 149.5t-113 54.5q-97 0 -153.5 -92t-56.5 -231q0 -158 55.5 -241.5
t147.5 -83.5q37 0 77 15.5t56 41.5v139q0 34 -25 56.5t-66 22.5v22h303v-22z" />
    <glyph glyph-name="H" unicode="H" horiz-adv-x="767" 
d="M736 21v-21h-278v21q34 0 54.5 18t20.5 48v260h-299v-260q0 -29 21 -47.5t55 -18.5v-21h-279v21q37 0 59 19.5t22 51.5v511q0 32 -22 52t-59 20v21h279v-21q-34 0 -55 -19t-21 -48v-223h299v223q0 30 -20.5 48.5t-54.5 18.5v21h278v-21q-36 0 -58.5 -20t-22.5 -52v-511
q0 -32 22.5 -51.5t58.5 -19.5z" />
    <glyph glyph-name="I" unicode="I" horiz-adv-x="346" 
d="M315 21v-21h-284v21q37 0 59 19.5t22 51.5v511q0 32 -22 51.5t-59 19.5v22h284v-22q-36 0 -58.5 -19.5t-22.5 -51.5v-511q0 -32 22.5 -51.5t58.5 -19.5z" />
    <glyph glyph-name="J" unicode="J" horiz-adv-x="445" 
d="M419 696v-21q-37 0 -59.5 -20t-22.5 -52v-400q0 -100 -50 -159t-141 -59q-58 0 -95.5 27.5t-37.5 74.5q0 28 17.5 45.5t44.5 17.5q24 0 38.5 -14.5t14.5 -39.5q0 -11 -3.5 -26.5t-3.5 -22.5q0 -29 31 -29q30 0 46.5 25.5t16.5 71.5v488q0 32 -22.5 52t-58.5 20v21h285z
" />
    <glyph glyph-name="K" unicode="K" horiz-adv-x="725" 
d="M710 21v-21h-188l-220 308q-20 28 -30 33.5t-37 4.5v-259q0 -29 20.5 -47.5t54.5 -18.5v-21h-279v21q37 0 59 19.5t22 51.5v511q0 32 -22 52t-59 20v21h279v-21q-34 0 -54.5 -19t-20.5 -48v-223q44 0 63 7.5t41 35.5l130 162q22 27 29.5 45t-1 29t-36.5 11v21h219v-22
q-34 0 -62 -13t-45 -29t-50 -54l-150 -169v-3l200 -268q3 -4 16 -22t18 -23.5t17 -20t19.5 -20.5t19 -14.5t23 -12t24.5 -4.5z" />
    <glyph glyph-name="L" unicode="L" horiz-adv-x="543" 
d="M523 190v-190h-492v21q37 0 59.5 20t22.5 52v510q0 32 -22.5 52t-59.5 20v21h279v-21q-34 0 -55 -19t-21 -48v-512q0 -57 64 -57h36q70 0 98.5 28.5t67.5 122.5h23z" />
    <glyph glyph-name="M" unicode="M" horiz-adv-x="909" 
d="M878 21v-21h-279v21q34 0 55 18.5t21 47.5v501h-4l-238 -564q-4 -9 -9.5 -9t-10.5 9l-251 564h-4v-492q0 -35 24 -55t63 -20v-21h-214v21q41 0 64.5 19.5t23.5 55.5v507q0 32 -22 52t-59 20v21h206l219 -495h3l205 495h207v-21q-37 0 -59 -20t-22 -52v-511
q0 -32 22 -51.5t59 -19.5z" />
    <glyph glyph-name="N" unicode="N" horiz-adv-x="765" 
d="M734 696v-22q-41 0 -64.5 -19.5t-23.5 -55.5v-599h-37l-446 561h-4v-465q0 -35 24 -55t64 -20v-21h-216v21q41 0 65 19.5t24 55.5v507q0 32 -22.5 52t-59.5 20v21h170l395 -504h4v407q0 35 -24.5 55t-63.5 20v22h215z" />
    <glyph glyph-name="O" unicode="O" horiz-adv-x="731" 
d="M547 348q0 88 -17.5 158.5t-59.5 118t-104 47.5t-104 -47.5t-59.5 -118t-17.5 -158.5t17.5 -158.5t59.5 -118t104 -47.5t104 47.5t59.5 118t17.5 158.5zM678 348q0 -147 -88 -255t-224 -108q-146 0 -229.5 96t-83.5 267q0 147 88.5 255t224.5 108q145 0 228.5 -96.5
t83.5 -266.5z" />
    <glyph glyph-name="P" unicode="P" horiz-adv-x="626" 
d="M337 300h-103v-213q0 -29 21 -47.5t55 -18.5v-21h-279v21q37 0 59 19.5t22 51.5v511q0 32 -22 52t-59 20v21h331q106 0 163.5 -57t57.5 -134q0 -100 -68.5 -152.5t-177.5 -52.5zM325 654h-18q-73 0 -73 -58v-258h69q73 1 113 41.5t40 113.5q0 65 -33 113t-98 48z" />
    <glyph glyph-name="Q" unicode="Q" horiz-adv-x="731" 
d="M679 -130v-23q-33 -13 -70 -13q-70 0 -127 36l-198 124q-111 24 -171 116t-60 238q0 147 88.5 255t224.5 108q145 0 228.5 -96.5t83.5 -266.5q0 -129 -68.5 -230t-180.5 -125v-4q29 -3 62 -23l122 -78q25 -16 66 -18zM366 672q-62 0 -104 -47.5t-59.5 -118t-17.5 -158.5
t17.5 -158.5t59.5 -118t104 -47.5t104 47.5t59.5 118t17.5 158.5t-17.5 158.5t-59.5 118t-104 47.5z" />
    <glyph glyph-name="R" unicode="R" horiz-adv-x="721" 
d="M456 491q0 72 -36.5 118t-105.5 46h-7q-73 0 -73 -59v-254h78q64 0 104 39.5t40 109.5zM711 21v-21h-193l-197 271q-15 21 -31 26.5t-56 5.5v-216q0 -29 21 -47.5t55 -18.5v-21h-279v21q36 0 58.5 19.5t22.5 51.5v511q0 32 -22.5 52t-58.5 20v21h330q108 0 165 -51.5
t57 -127.5q0 -45 -15 -82.5t-39 -60.5t-49 -37t-51 -20v-3l139 -182q29 -38 46.5 -57.5t44 -36.5t52.5 -17z" />
    <glyph glyph-name="S" unicode="S" horiz-adv-x="574" 
d="M521 190q0 -94 -63.5 -149.5t-165.5 -55.5q-84 0 -182 57q-20 -12 -32 -42h-25v217h25q18 -38 35.5 -66.5t44 -61.5t60.5 -51t72 -18q54 0 88 34.5t34 90.5q0 85 -97 134l-140 70q-122 60 -122 171q0 82 60.5 136.5t147.5 54.5q70 0 146 -41q8 4 18.5 17t15.5 24h26v-222
h-26q-19 46 -32 72.5t-34 56t-47.5 42.5t-60.5 13q-52 0 -83 -31t-31 -76q0 -67 74 -105l160 -81q134 -69 134 -190z" />
    <glyph glyph-name="T" unicode="T" horiz-adv-x="581" 
d="M571 696v-182h-25q-29 86 -53.5 114.5t-74.5 28.5h-10q-56 0 -56 -63v-502q0 -32 22 -51.5t59 -19.5v-21h-284v21q36 0 58 19.5t22 51.5v502q0 63 -55 63h-11q-49 0 -73.5 -28.5t-54.5 -114.5h-25v182h561z" />
    <glyph glyph-name="U" unicode="U" horiz-adv-x="727" 
d="M702 696v-21q-41 0 -64.5 -20t-23.5 -56v-357q0 -126 -69 -191.5t-179 -65.5q-120 0 -190 64.5t-70 203.5v350q0 33 -22 52.5t-59 19.5v21h284v-21q-36 0 -58.5 -20t-22.5 -52v-361q0 -105 41 -161.5t121 -56.5q88 0 136.5 58t48.5 155v362q0 35 -24 55.5t-64 20.5v21
h215z" />
    <glyph glyph-name="V" unicode="V" horiz-adv-x="716" 
d="M485 696h221v-22q-42 0 -66 -22t-45 -76l-220 -576h-35l-232 586q-14 37 -40 63t-58 26v21h283v-21q-43 0 -56.5 -26.5t2.5 -62.5l159 -410h4l139 400q18 45 5.5 71.5t-61.5 27.5v21z" />
    <glyph glyph-name="W" unicode="W" horiz-adv-x="1017" 
d="M1007 696v-22q-43 0 -65 -20.5t-38 -72.5l-187 -581h-35l-172 472h-3l-160 -472h-37l-197 585q-30 90 -103 90v21h275v-21q-36 0 -48.5 -21.5t-0.5 -58.5l133 -399h3l157 467q6 18 17 18q12 0 18 -18l172 -473h3l117 396q27 86 -41 89v21h192z" />
    <glyph glyph-name="X" unicode="X" horiz-adv-x="689" 
d="M679 0h-281v21q27 1 36.5 11t5.5 26.5t-20 43.5l-104 178h-3l-117 -181q-25 -34 -18.5 -55.5t52.5 -22.5v-21h-220v21q41 1 74.5 26t69.5 76l139 198l-151 261q-28 49 -58 71t-73 22v21h286v-21q-23 0 -33.5 -7t-7 -24.5t8 -27.5t17.5 -33q1 -3 2 -4l85 -152h4l98 165
q48 79 -32 83v21h229v-22q-48 0 -81 -25t-67 -73l-129 -183l150 -259q33 -57 64 -84.5t74 -28.5v-21z" />
    <glyph glyph-name="Y" unicode="Y" horiz-adv-x="696" 
d="M686 696v-21q-21 0 -35.5 -5t-28 -21t-20 -27t-22.5 -41l-165 -294v-195q0 -32 22.5 -51.5t58.5 -19.5v-21h-284v21q37 0 59 19.5t22 51.5v168l-177 326q-25 46 -49 67.5t-57 21.5v21h292v-21q-43 0 -56 -24t8 -65l136 -257h3l131 257q20 41 6.5 65t-53.5 24v21h209z" />
    <glyph glyph-name="Z" unicode="Z" horiz-adv-x="558" 
d="M518 180v-180h-484v21l340 632v4h-155q-55 0 -82 -27.5t-53 -103.5h-23v170h457v-21l-342 -634v-2h153q76 0 101.5 22.5t56.5 97.5l9 21h22z" />
    <glyph glyph-name="bracketleft" unicode="[" horiz-adv-x="314" 
d="M286 -212v-23h-202v968h202v-24l-43 -6q-44 -6 -52 -15t-8 -49v-780q0 -39 8 -48t52 -16z" />
    <glyph glyph-name="backslash" unicode="\" horiz-adv-x="298" 
d="M99 692l179 -707h-79l-179 707h79z" />
    <glyph glyph-name="bracketright" unicode="]" horiz-adv-x="314" 
d="M230 733v-968h-202v23l43 7q44 7 52 16t8 48v780q0 39 -8 48t-52 16l-43 6v24h202z" />
    <glyph glyph-name="asciicircum" unicode="^" horiz-adv-x="564" 
d="M317 677l211 -344h-77l-169 248l-170 -248h-76l211 344h70z" />
    <glyph glyph-name="underscore" unicode="_" horiz-adv-x="470" 
d="M470 -71v-47h-470v47h470z" />
    <glyph glyph-name="grave" unicode="`" horiz-adv-x="470" 
d="M132 649q0 15 10 25.5t27 10.5q24 0 45 -26l101 -125h-32l-123 75q-28 17 -28 40z" />
    <glyph glyph-name="a" unicode="a" horiz-adv-x="538" 
d="M339 130v135q-81 -12 -131 -47.5t-50 -92.5q0 -37 19.5 -57t50.5 -20q37 0 74 29.5t37 52.5zM521 58q0 -10 -15 -25q-40 -42 -96 -42q-60 0 -70 73h-4q-77 -73 -160 -73q-55 0 -95 31.5t-40 91.5q0 31 11.5 56t34.5 43t48.5 31t63 23t68 16.5t72.5 12.5v58q0 97 -94 97
q-35 0 -56.5 -10.5t-21.5 -28.5q0 -7 4.5 -21t4.5 -26q0 -24 -14.5 -39.5t-41.5 -15.5q-25 0 -41 18.5t-16 43.5q0 52 54.5 84.5t134.5 32.5q90 0 145 -39t55 -127v-230q0 -48 27 -48q9 0 27 18q4 5 9.5 3t5.5 -8z" />
    <glyph glyph-name="b" unicode="b" horiz-adv-x="583" 
d="M420 245q0 199 -95 199q-55 0 -92.5 -58t-37.5 -147q0 -99 33.5 -152.5t87.5 -53.5q104 0 104 212zM537 257q0 -122 -56 -194.5t-150 -72.5q-75 0 -134 61h-2q-21 -6 -41.5 -21t-29.5 -30h-42v643q0 26 -15 42t-40 16v22h168v-320h2q19 33 60 59.5t96 26.5
q82 0 133 -61.5t51 -170.5z" />
    <glyph glyph-name="c" unicode="c" horiz-adv-x="491" 
d="M465 91q0 -5 -3 -9q-29 -46 -82 -69t-99 -23q-105 0 -170 61.5t-65 185.5q0 112 67.5 182t176.5 70q75 0 120.5 -35.5t45.5 -80.5q0 -29 -17.5 -47.5t-42.5 -18.5q-31 0 -44 21t-8 48l5 33q0 44 -60 44q-59 0 -92.5 -56.5t-33.5 -153.5q0 -94 41.5 -151.5t105.5 -57.5
q72 0 134 62q8 8 14.5 5.5t6.5 -10.5z" />
    <glyph glyph-name="d" unicode="d" horiz-adv-x="588" 
d="M388 240q0 205 -111 205q-41 0 -67.5 -30.5t-36.5 -75t-10 -103.5q0 -90 28 -144.5t80 -54.5q57 0 87 56t30 147zM556 21v-21h-142q-11 10 -17.5 27.5t-7.5 30.5l-1 13h-3q-53 -80 -149 -80q-84 0 -137 62t-53 175q0 118 58.5 189.5t150.5 71.5q43 0 78 -17.5t52 -41.5h3
v213q0 26 -14.5 42t-39.5 16v22h167v-643q0 -27 15 -43t40 -16z" />
    <glyph glyph-name="e" unicode="e" horiz-adv-x="526" 
d="M166 302h200q0 76 -20 112t-68 36q-43 0 -74.5 -40t-37.5 -108zM485 267h-321q0 -47 8 -87t25 -73.5t47.5 -52.5t71.5 -19q78 0 146 66q5 5 11 5q10 0 10 -10q0 -4 -3 -9q-24 -38 -73.5 -67t-118.5 -29q-101 0 -171.5 64.5t-70.5 184.5q0 103 67 176.5t170 73.5
q91 0 146.5 -58.5t55.5 -164.5z" />
    <glyph glyph-name="f" unicode="f" horiz-adv-x="327" 
d="M373 638q0 -24 -14 -39.5t-35 -15.5q-23 0 -35 16.5t-6 47.5q1 3 4 14t3 15q0 19 -27 19q-28 0 -43.5 -22t-15.5 -57v-137h93v-35h-93v-364q0 -28 14.5 -43.5t39.5 -15.5v-21h-221v21q25 0 39.5 15.5t14.5 43.5v364h-62v35h62v67q0 79 46 128.5t127 49.5q49 0 79 -25.5
t30 -60.5z" />
    <glyph glyph-name="g" unicode="g" horiz-adv-x="524" 
d="M410 -91q0 80 -84 80h-132q-31 0 -49.5 -25t-18.5 -59q0 -50 35 -79t101 -29q72 0 110 31.5t38 80.5zM358 325q0 64 -24.5 98.5t-67.5 34.5q-46 0 -71 -36t-25 -97q0 -62 25.5 -96.5t69.5 -34.5q45 0 69 34t24 97zM512 515q0 -20 -11.5 -33t-30.5 -13q-15 0 -25 8.5
t-10 22.5q0 3 2 11t2 12t-5 5q-13 0 -38.5 -16t-39.5 -40q53 -20 83 -60t30 -89q0 -74 -56.5 -118t-147.5 -44q-7 0 -28 1.5t-29 1.5q-36 0 -59 -13.5t-23 -41.5q0 -38 48 -38h150q84 0 130.5 -37t46.5 -101q0 -72 -62 -120t-180 -48q-109 0 -166 34t-57 96q0 70 71 104v2
q-45 27 -45 75q0 67 82 105v3q-85 42 -85 137q0 70 58.5 119t147.5 49q31 0 63 -8q20 39 52.5 63.5t67.5 24.5q33 0 48.5 -16t15.5 -38z" />
    <glyph glyph-name="h" unicode="h" horiz-adv-x="590" 
d="M558 22v-22h-217v22q22 0 36 15t14 38v262q0 41 -22 67.5t-64 26.5q-43 0 -72 -32t-29 -74v-250q0 -24 13.5 -38.5t36.5 -14.5v-22h-216v22q24 0 38.5 16t14.5 42v563q0 27 -14.5 42.5t-39.5 15.5v22h167v-310h3q24 33 63.5 54.5t87.5 21.5q33 0 64 -12t56.5 -48
t25.5 -90v-259q0 -26 14.5 -42t39.5 -16z" />
    <glyph glyph-name="i" unicode="i" horiz-adv-x="291" 
d="M259 21v-21h-222v21q25 0 39.5 16t14.5 43v319q0 26 -14.5 42.5t-39.5 16.5v21h167v-399q0 -26 15 -42.5t40 -16.5zM209 635q0 -28 -20.5 -47.5t-48.5 -19.5q-27 0 -47.5 20t-20.5 47q0 28 20.5 48t47.5 20q28 0 48.5 -20t20.5 -48z" />
    <glyph glyph-name="j" unicode="j" horiz-adv-x="286" 
d="M204 479v-476q0 -120 -47 -179t-126 -59q-50 0 -83 22.5t-33 62.5q0 23 15.5 38.5t37.5 15.5q21 1 35 -13.5t10 -39.5q-1 -3 -3.5 -14t-2.5 -16q0 -22 29 -22q28 0 41.5 24t13.5 82v494q0 26 -14.5 42.5t-39.5 16.5v21h167zM209 636q0 -27 -21 -47t-48 -20t-47.5 20
t-20.5 47q0 28 20.5 48t47.5 20t48 -20t21 -48z" />
    <glyph glyph-name="k" unicode="k" horiz-adv-x="576" 
d="M566 22v-22h-168l-125 197q-19 30 -31 37t-38 7v-161q0 -27 14.5 -42.5t39.5 -15.5v-22h-221v22q25 0 39.5 15.5t14.5 42.5v563q0 26 -14.5 42t-39.5 16v22h167v-444q36 -1 53 7.5t44 39.5l70 80q20 20 16.5 36t-33.5 16v21h182v-21q-28 -1 -51.5 -11.5t-58.5 -47.5
l-96 -100v-4l164 -236q15 -22 31 -29.5t41 -7.5z" />
    <glyph glyph-name="l" unicode="l" horiz-adv-x="291" 
d="M259 22v-22h-222v22q25 0 39.5 16t14.5 42v563q0 26 -14.5 42t-39.5 16v22h167v-643q0 -26 15 -42t40 -16z" />
    <glyph glyph-name="m" unicode="m" horiz-adv-x="866" 
d="M834 22v-22h-217v22q23 0 36.5 14.5t13.5 38.5v266q0 39 -20.5 64.5t-55.5 25.5q-39 0 -69 -29.5t-30 -73.5v-253q0 -24 13.5 -38.5t35.5 -14.5v-22h-212v22q23 0 36.5 14.5t13.5 38.5v266q0 40 -19.5 65t-57.5 25q-39 0 -68.5 -31t-29.5 -75v-250q0 -24 13.5 -38.5
t36.5 -14.5v-22h-217v22q25 0 39.5 16t14.5 42v319q0 27 -14.5 43t-39.5 16v21h167v-65h3q59 75 144 75q45 0 79.5 -23t49.5 -63h3q21 35 60.5 60.5t94.5 25.5q58 0 100 -39t42 -109v-261q0 -26 14.5 -42t39.5 -16z" />
    <glyph glyph-name="n" unicode="n" horiz-adv-x="590" 
d="M558 22v-22h-217v22q22 0 36 15t14 38v262q0 41 -22 67.5t-64 26.5q-43 0 -72 -32t-29 -74v-250q0 -24 13.5 -38.5t36.5 -14.5v-22h-216v22q24 0 38.5 16t14.5 42v319q0 27 -14.5 43t-39.5 16v21h167v-66h3q57 76 151 76q33 0 64 -12t56.5 -48t25.5 -90v-259
q0 -26 14.5 -42t39.5 -16z" />
    <glyph glyph-name="o" unicode="o" horiz-adv-x="550" 
d="M387 238q0 212 -112 212t-112 -212q0 -94 26.5 -151.5t85.5 -57.5t85.5 57.5t26.5 151.5zM504 240q0 -111 -59 -180.5t-170 -69.5q-113 0 -171 65.5t-58 184.5q0 105 59 177t170 72q113 0 171 -67.5t58 -181.5z" />
    <glyph glyph-name="p" unicode="p" horiz-adv-x="593" 
d="M430 245q0 199 -96 199q-55 0 -92.5 -56.5t-37.5 -148.5q0 -111 36.5 -158.5t85.5 -47.5q104 0 104 212zM547 255q0 -129 -58 -197t-146 -68q-45 0 -81 20t-55 47h-3v-204q0 -25 15 -41.5t40 -16.5v-22h-222v22q25 0 39.5 16t14.5 42v546q0 26 -14.5 42.5t-39.5 16.5v21
h167v-76h3q19 34 61 60t95 26q83 0 133.5 -62.5t50.5 -171.5z" />
    <glyph glyph-name="q" unicode="q" horiz-adv-x="588" 
d="M388 245q0 200 -111 200q-41 0 -67.5 -30.5t-36.5 -75t-10 -103.5q0 -86 26.5 -142.5t80.5 -56.5q53 0 85.5 53t32.5 155zM556 -205v-22h-222v22q25 0 39.5 16t14.5 42v218h-3q-56 -80 -148 -80q-87 0 -139 64t-52 172q0 117 57.5 189.5t152.5 72.5q43 0 77 -17.5
t52 -41.5h3q15 3 32.5 17t27.5 32h53v-626q0 -25 15.5 -41.5t39.5 -16.5z" />
    <glyph glyph-name="r" unicode="r" horiz-adv-x="435" 
d="M416 413q0 -29 -16 -47t-41 -18q-22 0 -35.5 12.5t-13.5 32.5q0 8 2 18.5t2 14.5q0 13 -13 13q-23 0 -51.5 -28.5t-45.5 -69.5v-261q0 -26 14.5 -42t39.5 -16v-22h-221v22q25 0 39.5 16t14.5 42v319q0 27 -14.5 43t-39.5 16v21h167v-80h3q17 31 51.5 60.5t79.5 29.5
q38 0 58 -22.5t20 -53.5z" />
    <glyph glyph-name="s" unicode="s" horiz-adv-x="460" 
d="M423 138q0 -64 -48 -106t-131 -42q-75 0 -147 41l-23 -31h-23v176h36q65 -154 162 -154q39 0 61.5 21.5t22.5 55.5q0 29 -19 49t-64 35q-82 28 -104 37q-95 32 -95 124q0 60 46.5 102.5t121.5 42.5q58 0 115 -30q20 4 32 25h26v-156h-37q-50 129 -138 129
q-36 0 -58 -20.5t-22 -49.5q0 -50 55 -68l103 -35q128 -43 128 -146z" />
    <glyph glyph-name="t" unicode="t" horiz-adv-x="337" 
d="M337 73q0 -3 -4 -11q-38 -72 -119 -72q-123 0 -123 131v323h-71v26q54 17 94 61t61 94h29v-146h93v-35h-93v-349q0 -63 46 -63q34 0 66 44q6 9 13.5 7t7.5 -10z" />
    <glyph glyph-name="u" unicode="u" horiz-adv-x="580" 
d="M548 21v-21h-143q-19 27 -24 60h-3q-56 -69 -150 -69q-61 0 -104 34t-43 113v261q0 25 -15.5 42t-38.5 17v21h167v-1v-335q0 -50 24 -72.5t60 -22.5q43 0 73 32t30 77v242q0 25 -15.5 42t-38.5 17v21h167v-399q0 -26 15.5 -42.5t38.5 -16.5z" />
    <glyph glyph-name="v" unicode="v" horiz-adv-x="530" 
d="M521 479v-21q-30 0 -45.5 -21t-39.5 -80l-148 -357h-37l-150 360q-14 35 -20.5 48t-17.5 28t-22.5 18.5t-31.5 3.5v21h229v-21q-38 0 -40.5 -22t15.5 -57l94 -231h3l86 234q15 32 9.5 54t-39.5 22v21h155z" />
    <glyph glyph-name="w" unicode="w" horiz-adv-x="743" 
d="M734 479v-21q-14 0 -26.5 -7t-20 -15t-16 -24.5t-12 -26l-10.5 -28.5l-125 -357h-37q-87 218 -117 285h-3q-37 -98 -98 -285h-38l-133 360q-24 64 -34 77q-19 21 -55 21v21h229v-21q-33 0 -37 -22t13 -65l71 -202h3l101 291q3 11 13 11t14 -11l122 -301h2l76 245
q16 53 -38 54v21h156z" />
    <glyph glyph-name="x" unicode="x" horiz-adv-x="538" 
d="M529 21v-21h-233v21q19 0 27.5 4t7.5 12t-6.5 18.5t-15.5 25.5q-3 4 -5 7l-66 98h-3l-76 -108q-25 -35 -25 -43q0 -14 38 -14v-21h-163v21q28 1 49 13.5t53 53.5l105 133l-96 145q-28 42 -39 56.5t-26 25t-35 10.5v21h226v-21q-19 0 -26.5 -6t-5 -16.5t9 -22t14.5 -23.5
q4 -5 5 -7l52 -79h3l56 83q12 18 17.5 28t8 21.5t-5.5 16.5t-26 5v21h170v-21q-33 0 -58.5 -16.5t-60.5 -63.5l-81 -108l110 -166q31 -47 51.5 -65t49.5 -18z" />
    <glyph glyph-name="y" unicode="y" horiz-adv-x="576" 
d="M567 479v-21q-30 0 -47 -22t-38 -74l-181 -457q-29 -71 -57 -105.5t-74 -34.5q-37 0 -59.5 22.5t-22.5 54.5q0 29 17 46t40 17q41 0 41 -42q0 -3 -1 -10.5t-1 -10.5q0 -18 18 -18q17 0 30.5 22t30.5 67l30 79l-179 372q-27 56 -46.5 75t-58.5 19v21h248v-21
q-63 0 -30 -72l118 -257h3l92 272q18 54 -37 57v21h164z" />
    <glyph glyph-name="z" unicode="z" horiz-adv-x="482" 
d="M427 150v-150h-388v19l253 419v3h-47q-84 0 -114.5 -21t-46.5 -91h-24v150h373v-14l-255 -425v-2h68q53 0 82 11t44.5 33t31.5 68h23z" />
    <glyph glyph-name="braceleft" unicode="{" horiz-adv-x="303" 
d="M263 -237q-80 0 -124 21t-40 79l18 254q4 58 -26 90t-54 32v18q24 0 54 32t26 89l-18 255q-3 40 20.5 63t58 30t85.5 7v-24q-28 0 -50 -20.5t-20 -55.5l15 -226q4 -61 -22.5 -103.5t-59.5 -53.5v-4q33 -12 59.5 -54.5t22.5 -103.5l-15 -225q-2 -36 20 -56.5t50 -20.5v-23
z" />
    <glyph glyph-name="bar" unicode="|" horiz-adv-x="270" 
d="M175 694v-694h-80v694h80z" />
    <glyph glyph-name="braceright" unicode="}" horiz-adv-x="303" 
d="M266 239q-24 0 -54 -32t-26 -90l18 -254q4 -58 -40 -79t-124 -21v23q28 0 50 20.5t20 56.5l-15 225q-4 61 22.5 103.5t59.5 54.5v4q-33 11 -59.5 53.5t-22.5 103.5l15 226q2 36 -19 56t-51 20v24q51 0 85.5 -7t58 -30t20.5 -63l-18 -255q-4 -57 26 -89t54 -32v-18z" />
    <glyph glyph-name="asciitilde" unicode="~" horiz-adv-x="532" 
d="M412 311h49q0 -24 -5 -45t-16.5 -41.5t-36 -31t-58.5 -6.5l-152 17q-74 9 -74 -38h-48q0 55 27 93.5t89 31.5l152 -18q73 -9 73 38z" />
    <glyph glyph-name="nbspace" unicode="&#xa0;" horiz-adv-x="235" 
 />
    <glyph glyph-name="exclamdown" unicode="&#xa1;" horiz-adv-x="284" 
d="M70 421q0 29 21.5 50t50.5 21q30 0 51 -21t21 -50q0 -30 -21 -51t-51 -21q-29 0 -50.5 21t-21.5 51zM79 -138q0 38 21 189t28 230h27q7 -81 28.5 -231t21.5 -188q0 -32 -17.5 -53t-45.5 -21t-45.5 20.5t-17.5 53.5z" />
    <glyph glyph-name="cent" unicode="&#xa2;" horiz-adv-x="491" 
d="M465 89q0 -1 -2 -7q-46 -73 -148 -89v-62h-57v61q-96 6 -154 67.5t-58 177.5q0 103 58 171t154 79v70h57v-69q64 -6 102.5 -40t38.5 -75q0 -29 -17.5 -47.5t-42.5 -18.5q-31 0 -44 21t-8 48q1 5 3.5 16.5t2.5 16.5q0 44 -60 44q-59 0 -93 -56t-34 -154q0 -94 42 -151.5
t106 -57.5q70 0 134 62q7 8 13.5 4.5t6.5 -11.5z" />
    <glyph glyph-name="sterling" unicode="&#xa3;" horiz-adv-x="567" 
d="M488 580q0 -27 -16 -45.5t-40 -18.5q-20 0 -33 12.5t-13 32.5q0 6 3 22t3 23q0 18 -12 33t-39 15q-89 0 -89 -178v-100h141v-38h-141q-5 -222 -88 -289v-5q26 4 70 4q32 0 76 -4.5t60 -4.5q47 0 47 31q0 4 -1.5 15t-1.5 16q0 21 12.5 34t34.5 13q28 0 45 -18.5t17 -47.5
q0 -39 -27.5 -64.5t-83.5 -25.5q-36 0 -116.5 9t-134.5 11q-60 0 -139 -21v37q37 17 60.5 46.5t32.5 71.5t11.5 78t3.5 88v26h-94v38h94v81q0 107 56 171t153 64q65 0 107 -31.5t42 -80.5z" />
    <glyph glyph-name="currency" unicode="&#xa4;" horiz-adv-x="539" 
d="M389 287q0 74 -32 124t-88 50t-88.5 -50t-32.5 -124q0 -75 32.5 -124.5t88.5 -49.5t88 49.5t32 124.5zM433 183l76 -76l-60 -60l-69 69q-53 -45 -117 -45q-61 0 -110 40l-20 -20t-24 -23.5t-20 -20.5l-59 60l71 71q-23 45 -23 104q0 57 27 109l-75 75l59 60l69 -69
q51 45 118 45q60 0 109 -40q10 9 20.5 20t23.5 24l20 20l60 -60l-72 -71q22 -45 22 -102q0 -61 -26 -110z" />
    <glyph glyph-name="yen" unicode="&#xa5;" horiz-adv-x="685" 
d="M151 251v38h121l-161 297q-25 46 -49 67.5t-57 21.5v21h292v-21q-43 0 -56 -25.5t8 -63.5l136 -257h3l132 260q18 33 7 59t-48 27v21h201v-21q-20 0 -34.5 -5t-28 -21.5t-20 -26.5t-23.5 -41l-163 -292h135v-38h-136v-60h136v-38h-136v-61q0 -32 22 -51.5t59 -19.5v-21
h-284v21q36 0 58.5 19.5t22.5 51.5v61h-137v38h137v60h-137z" />
    <glyph glyph-name="brokenbar" unicode="&#xa6;" horiz-adv-x="270" 
d="M175 165v-353h-80v353h80zM175 691v-353h-80v353h80z" />
    <glyph glyph-name="section" unicode="&#xa7;" horiz-adv-x="511" 
d="M466 265q0 -43 -21 -78.5t-40.5 -50.5t-39.5 -25q64 -50 64 -126q0 -74 -53 -123.5t-133 -49.5q-68 0 -110.5 34t-42.5 78q0 24 14.5 40.5t36.5 16.5q21 0 34 -13.5t13 -35.5q0 -5 -1 -13t-1 -11q0 -27 16.5 -42.5t45.5 -15.5q42 0 68.5 27.5t26.5 65.5q0 59 -64 89
l-141 66q-91 43 -93 140q0 101 100 155q-63 48 -63 126q0 74 53 123.5t132 49.5q68 0 111 -34t43 -78q0 -24 -14.5 -40.5t-36.5 -16.5q-21 0 -34 13.5t-13 35.5q0 7 1.5 18.5t1.5 15.5q0 48 -64 48q-42 0 -68.5 -27.5t-26.5 -65.5q0 -58 65 -89l95 -45q73 -35 106 -71
t33 -91zM210 189q62 -28 93 -43l17 -8q52 34 52 89t-53 79l-129 59q-52 -35 -52 -89q0 -53 72 -87z" />
    <glyph glyph-name="dieresis" unicode="&#xa8;" horiz-adv-x="470" 
d="M207 600q0 -28 -19 -47t-47 -19q-27 0 -46 19t-19 47q0 27 19 46.5t46 19.5q28 0 47 -19.5t19 -46.5zM394 600q0 -28 -19 -47t-46 -19q-28 0 -47 19t-19 47q0 27 19 46.5t47 19.5q27 0 46 -19.5t19 -46.5z" />
    <glyph glyph-name="copyright" unicode="&#xa9;" horiz-adv-x="758" 
d="M534 214q2 -3 -2 -9q-19 -33 -60.5 -53.5t-84.5 -20.5q-79 0 -129 46.5t-50 141.5q0 85 53.5 136.5t137.5 51.5q58 0 94.5 -27t36.5 -63q0 -24 -13 -38.5t-34 -14.5q-25 0 -35 16.5t-6 38.5q1 4 2 10t2 10t1 7q0 32 -47 32q-43 0 -71.5 -40.5t-28.5 -117.5
q0 -71 30 -112.5t80 -41.5q54 0 108 50q12 12 16 -2zM656 320q0 118 -80.5 201t-196.5 83q-117 0 -197.5 -83.5t-80.5 -201.5t81 -201.5t197 -83.5t196.5 84t80.5 202zM713 320q0 -139 -97.5 -237t-236.5 -98t-236.5 97.5t-97.5 236.5t97.5 236.5t236.5 97.5t236.5 -97.5
t97.5 -235.5z" />
    <glyph glyph-name="ordfeminine" unicode="&#xaa;" horiz-adv-x="310" 
d="M190 510v73q-32 -5 -57 -21.5t-25 -44.5q0 -37 32 -37q16 0 33 12t17 18zM294 482q0 -3 -1 -5q-20 -31 -57 -31q-35 0 -46 33h-2q-42 -33 -82 -33q-29 0 -50 15.5t-21 46.5q0 22 13 38.5t38.5 26.5t48 15.5t55.5 10.5v27q0 49 -45 49q-36 0 -36 -19q0 -7 3 -16
q3 -15 -5.5 -27t-27.5 -12q-15 0 -24.5 9.5t-9.5 25.5q0 26 28.5 42.5t77.5 16.5q45 0 77 -18.5t32 -61.5v-115q0 -18 6.5 -23.5t19.5 9.5q2 4 5 2t3 -6z" />
    <glyph glyph-name="guillemotleft" unicode="&#xab;" horiz-adv-x="477" 
d="M432 28q-164 134 -209 167v80l209 166v-65q-104 -104 -135 -139v-4q11 -14 45 -49t62 -62l28 -28v-66zM254 28q-165 134 -209 167v80l209 166v-65q-104 -104 -135 -139v-4q11 -14 45 -49t62 -62l28 -28v-66z" />
    <glyph glyph-name="logicalnot" unicode="&#xac;" horiz-adv-x="500" 
d="M457 274v-164h-70v93h-345v71h415z" />
    <glyph glyph-name="dash" unicode="&#xad;" horiz-adv-x="500" 
d="M457 274v-71h-415v71h415z" />
    <glyph glyph-name="registered" unicode="&#xae;" horiz-adv-x="465" 
d="M265 553q0 45 -42 45q-15 0 -19 -5t-4 -17v-63h23q19 0 30.5 10.5t11.5 29.5zM394 509q0 71 -46.5 121t-115.5 50t-116 -50t-47 -121t47 -121.5t116 -50.5t115.5 50.5t46.5 121.5zM433 508q0 -83 -58 -142.5t-143 -59.5q-84 0 -142 59.5t-58 142.5q0 84 58 143.5
t142 59.5q86 0 143.5 -59t57.5 -144zM342 420v-11h-60l-55 78q-7 11 -27 11v-60q0 -18 16 -18v-11h-74v11q16 0 16 18v145q0 19 -16 19v11h104q32 0 47.5 -15.5t15.5 -38.5q0 -47 -43 -58v-1l52 -66q10 -14 24 -14z" />
    <glyph glyph-name="macron" unicode="&#xaf;" horiz-adv-x="470" 
d="M368 606v-69h-266v69h266z" />
    <glyph glyph-name="degree" unicode="&#xb0;" horiz-adv-x="376" 
d="M265 557q0 32 -23 55t-56 23q-32 0 -55 -22.5t-23 -55.5t23 -56t55 -23q33 0 56 23t23 56zM331 557q0 -60 -42.5 -102.5t-101.5 -42.5q-60 0 -102.5 42.5t-42.5 101.5q0 60 42.5 102.5t101.5 42.5q60 0 102.5 -42.5t42.5 -101.5z" />
    <glyph glyph-name="plusminus" unicode="&#xb1;" horiz-adv-x="500" 
d="M457 70v-70h-415v70h415zM457 323v-70h-172v-145h-70v145h-173v70h173v173h70v-173h172z" />
    <glyph glyph-name="twosuperior" unicode="&#xb2;" horiz-adv-x="318" 
d="M288 599q0 -12 -3 -23.5t-11.5 -23.5t-13.5 -19.5t-19 -20.5t-18.5 -17t-21 -17t-17.5 -14l-72 -58v-1h114q10 0 17.5 5t10.5 10t9 18h24v-111h-262v24l112 115q71 73 71 140q0 80 -58 80q-24 0 -38 -14t-14 -40q0 -5 2 -16t2 -15q0 -15 -10 -26t-27 -11t-28.5 11
t-11.5 33q0 41 39 68.5t92 27.5q57 0 94.5 -29.5t37.5 -75.5z" />
    <glyph glyph-name="threesuperior" unicode="&#xb3;" horiz-adv-x="312" 
d="M287 435q0 -54 -39 -85t-108 -31q-54 0 -84.5 20.5t-30.5 51.5q0 19 12 30.5t29 11.5q19 0 27.5 -11t8.5 -24q0 -5 -1.5 -13.5t-1.5 -12.5q0 -16 13 -25.5t33 -9.5q29 0 45.5 24.5t16.5 68.5q0 41 -23.5 66t-67.5 25v20q34 0 56.5 19t22.5 61q0 65 -50 65q-43 0 -43 -42
q0 -3 0.5 -11t0.5 -10q0 -15 -9.5 -24.5t-24.5 -9.5q-37 0 -37 39q0 30 30.5 53t85.5 23q54 0 85.5 -25.5t31.5 -60.5q0 -32 -20.5 -52t-43.5 -27v-2q86 -26 86 -102z" />
    <glyph glyph-name="acute" unicode="&#xb4;" horiz-adv-x="470" 
d="M373 649q0 -23 -28 -40l-123 -75h-32l101 125q21 26 45 26q17 0 27 -10.5t10 -25.5z" />
    <glyph glyph-name="mu" unicode="&#xb5;" horiz-adv-x="583" 
d="M550 21v-21h-143q-19 27 -24 60h-3q-49 -69 -128 -69q-40 0 -70 23h-2q1 -55 6.5 -120t5.5 -74q0 -31 -16 -46.5t-40 -15.5q-25 0 -41 15.5t-16 46.5q0 10 6 76t6 117v466h113v-337q0 -50 24 -72t58 -22q42 0 69.5 31.5t27.5 74.5v325h113v-399q0 -27 14.5 -43t39.5 -16z
" />
    <glyph glyph-name="mu" unicode="&#x3bc;" horiz-adv-x="583" 
d="M550 21v-21h-143q-19 27 -24 60h-3q-49 -69 -128 -69q-40 0 -70 23h-2q1 -55 6.5 -120t5.5 -74q0 -31 -16 -46.5t-40 -15.5q-25 0 -41 15.5t-16 46.5q0 10 6 76t6 117v466h113v-337q0 -50 24 -72t58 -22q42 0 69.5 31.5t27.5 74.5v325h113v-399q0 -27 14.5 -43t39.5 -16z
" />
    <glyph glyph-name="paragraph" unicode="&#xb6;" horiz-adv-x="464" 
d="M444 676v-42h-61v-634h-52v634h-78v-634h-51v358q-79 4 -125.5 48t-46.5 113q0 70 49 113.5t132 43.5h233z" />
    <glyph glyph-name="periodcentered" unicode="&#xb7;" horiz-adv-x="239" 
d="M174 246q0 -23 -16 -38.5t-39 -15.5q-22 0 -38 16t-16 38q0 23 15.5 39.5t38.5 16.5t39 -16.5t16 -39.5z" />
    <glyph glyph-name="cedilla" unicode="&#xb8;" horiz-adv-x="470" 
d="M372 -136q0 -38 -30.5 -63.5t-87.5 -25.5q-54 0 -95 25q-7 4 -9.5 9.5t-0.5 9t9 3.5q6 0 33 -6t44 -6q31 0 47 13.5t16 36.5q0 46 -68 46h-36l27 98h47l-13 -58h16q101 0 101 -82z" />
    <glyph glyph-name="onesuperior" unicode="&#xb9;" horiz-adv-x="209" 
d="M189 340v-13h-157v13q17 0 28.5 11.5t11.5 27.5v226q0 24 -7.5 28.5t-44.5 4.5v10q26 10 52.5 24t39.5 23l14 9h23v-325q0 -16 11.5 -27.5t28.5 -11.5z" />
    <glyph glyph-name="ordmasculine" unicode="&#xba;" horiz-adv-x="312" 
d="M209 570q0 106 -53 106q-54 0 -54 -106q0 -46 13.5 -74.5t40.5 -28.5q53 0 53 103zM282 572q0 -60 -32 -92.5t-94 -32.5t-94 32.5t-32 92.5q0 56 32 90t94 34q61 0 93.5 -34t32.5 -90z" />
    <glyph glyph-name="guillemotright" unicode="&#xbb;" horiz-adv-x="477" 
d="M432 195l-209 -167v66q110 107 135 139v4l-135 139v65q164 -131 209 -166v-80zM254 195l-209 -167v66q110 107 135 139v4l-135 139v65q163 -131 209 -166v-80z" />
    <glyph glyph-name="onequarter" unicode="&#xbc;" horiz-adv-x="642" 
d="M480 696h68l-375 -696h-68zM189 322v-13h-157v13q17 0 28.5 11.5t11.5 27.5v226q0 24 -7.5 28.5t-44.5 4.5v10q26 10 52.5 24t39.5 23l14 9h23v-325q0 -16 11.5 -27.5t28.5 -11.5zM385 131h111v175h-1l-110 -172v-3zM622 131v-41h-49v-38q0 -16 11.5 -27.5t28.5 -11.5
v-13h-157v13q17 0 28.5 11.5t11.5 27.5v38h-153v21l168 262h62v-242h49z" />
    <glyph glyph-name="onehalf" unicode="&#xbd;" horiz-adv-x="712" 
d="M480 696h68l-375 -696h-68zM189 322v-13h-157v13q17 0 28.5 11.5t11.5 27.5v226q0 24 -7.5 28.5t-44.5 4.5v10q26 10 52.5 24t39.5 23l14 9h23v-325q0 -16 11.5 -27.5t28.5 -11.5zM682 272q0 -12 -3 -23.5t-11.5 -23.5t-13.5 -19.5t-19 -20.5t-18.5 -17t-21 -17
t-17.5 -14l-72 -58v-1h114q10 0 17.5 5t10.5 10t9 18h24v-111h-262v24l112 115q71 73 71 140q0 80 -58 80q-24 0 -38 -14t-14 -40q0 -5 2 -16t2 -15q0 -15 -10 -26t-27 -11t-28.5 11t-11.5 33q0 41 39 68.5t92 27.5q57 0 94.5 -29.5t37.5 -75.5z" />
    <glyph glyph-name="threequarters" unicode="&#xbe;" horiz-adv-x="703" 
d="M287 417q0 -54 -39 -85t-108 -31q-54 0 -84.5 20.5t-30.5 51.5q0 19 12 30.5t29 11.5q19 0 27.5 -11t8.5 -24q0 -5 -1.5 -13.5t-1.5 -12.5q0 -16 13 -25.5t33 -9.5q29 0 45.5 24.5t16.5 68.5q0 41 -23.5 66t-67.5 25v20q34 0 56.5 19t22.5 61q0 65 -50 65q-43 0 -43 -42
q0 -3 0.5 -11t0.5 -10q0 -15 -9.5 -24.5t-24.5 -9.5q-37 0 -37 39q0 30 30.5 53t85.5 23q54 0 85.5 -25.5t31.5 -60.5q0 -32 -20.5 -52t-43.5 -27v-2q86 -26 86 -102zM541 696h68l-375 -696h-68zM446 131h111v175h-1l-110 -172v-3zM683 131v-41h-49v-38q0 -16 11.5 -27.5
t28.5 -11.5v-13h-157v13q17 0 28.5 11.5t11.5 27.5v38h-153v21l168 262h62v-242h49z" />
    <glyph glyph-name="questiondown" unicode="&#xbf;" horiz-adv-x="466" 
d="M167 421q0 29 21 50t50 21q30 0 51.5 -21t21.5 -50q0 -30 -21.5 -51t-51.5 -21q-29 0 -50 21t-21 51zM41 -61q0 22 5 41t20.5 40.5t22 30.5t32 35t29.5 30q40 42 55 74.5t20 95.5h28q6 -31 6 -73q0 -33 -9 -58.5t-32 -65.5q-50 -83 -50 -146q0 -44 26 -73.5t69 -29.5
q33 0 57 16t24 38q0 11 -18.5 33.5t-18.5 44.5t14.5 38t39.5 16q27 0 45.5 -22t18.5 -56q0 -69 -55.5 -114.5t-138.5 -45.5q-80 0 -135 42t-55 109z" />
    <glyph glyph-name="Agrave" unicode="&#xc0;" horiz-adv-x="738" 
d="M232 278h197l-98 241h-6zM728 21v-21h-268v21q27 0 38.5 13.5t10.5 29t-8 33.5l-57 142h-227l-53 -133q-33 -85 50 -85v-21h-204v21q37 0 66 25t43 61l240 595h31l242 -600q32 -81 96 -81zM239 852q0 15 10 25.5t27 10.5q24 0 45 -26l101 -125h-32l-123 75q-28 17 -28 40
z" />
    <glyph glyph-name="Aacute" unicode="&#xc1;" horiz-adv-x="738" 
d="M232 278h197l-98 241h-6zM728 21v-21h-268v21q27 0 38.5 13.5t10.5 29t-8 33.5l-57 142h-227l-53 -133q-33 -85 50 -85v-21h-204v21q37 0 66 25t43 61l240 595h31l242 -600q32 -81 96 -81zM517 851q0 -23 -28 -40l-123 -75h-32l101 125q21 26 45 26q17 0 27 -10.5
t10 -25.5z" />
    <glyph glyph-name="Acircumflex" unicode="&#xc2;" horiz-adv-x="738" 
d="M232 278h197l-98 241h-6zM728 21v-21h-268v21q27 0 38.5 13.5t10.5 29t-8 33.5l-57 142h-227l-53 -133q-33 -85 50 -85v-21h-204v21q37 0 66 25t43 61l240 595h31l242 -600q32 -81 96 -81zM243 756l127 117h11l127 -117q6 -6 6 -11t-5 -7.5t-10 -0.5l-122 60h-3l-122 -60
q-5 -2 -10 0.5t-5 7.5t6 11z" />
    <glyph glyph-name="Atilde" unicode="&#xc3;" horiz-adv-x="738" 
d="M232 278h197l-98 241h-6zM728 21v-21h-268v21q27 0 38.5 13.5t10.5 29t-8 33.5l-57 142h-227l-53 -133q-33 -85 50 -85v-21h-204v21q37 0 66 25t43 61l240 595h31l242 -600q32 -81 96 -81zM497 832h35q-17 -93 -85 -93q-16 0 -70.5 13.5t-72.5 13.5q-32 0 -45 -29h-34
q15 93 83 93q17 0 71.5 -13.5t73.5 -13.5q32 0 44 29z" />
    <glyph glyph-name="Adieresis" unicode="&#xc4;" horiz-adv-x="738" 
d="M232 278h197l-98 241h-6zM728 21v-21h-268v21q27 0 38.5 13.5t10.5 29t-8 33.5l-57 142h-227l-53 -133q-33 -85 50 -85v-21h-204v21q37 0 66 25t43 61l240 595h31l242 -600q32 -81 96 -81zM349 803q0 -28 -19 -47t-47 -19q-27 0 -46 19t-19 47q0 27 19 46.5t46 19.5
q28 0 47 -19.5t19 -46.5zM536 803q0 -28 -19 -47t-46 -19q-28 0 -47 19t-19 47q0 27 19 46.5t47 19.5q27 0 46 -19.5t19 -46.5z" />
    <glyph glyph-name="Aring" unicode="&#xc5;" horiz-adv-x="738" 
d="M232 278h197l-98 241h-6zM728 21v-21h-268v21q27 0 38.5 13.5t10.5 29t-8 33.5l-57 142h-227l-53 -133q-33 -85 50 -85v-21h-204v21q37 0 66 25t43 61l240 595h31l242 -600q32 -81 96 -81zM436 850q0 23 -16.5 39.5t-39.5 16.5t-39.5 -16.5t-16.5 -39.5t16.5 -39.5
t39.5 -16.5t39.5 16.5t16.5 39.5zM492 850q0 -47 -32.5 -80t-79.5 -33t-80 33t-33 80t33 80t80 33t79.5 -33t32.5 -80z" />
    <glyph glyph-name="AE" unicode="&#xc6;" horiz-adv-x="989" 
d="M326 282h190v254h-3zM953 190v-190h-518v21q36 0 58.5 19.5t22.5 51.5v151h-219l-102 -137q-25 -33 -25 -57q0 -28 44 -28v-21h-204v21q31 0 63.5 22.5t47.5 40t37 46.5l358 470v5q0 31 -23 50.5t-58 19.5v21h495v-182h-23q-30 87 -61.5 115t-104.5 28h-19
q-44 0 -63.5 -12t-19.5 -46v-216h78q35 0 62.5 26.5t27.5 69.5h23v-230h-23q0 43 -27.5 69.5t-62.5 26.5h-78v-249q0 -58 73 -58q39 0 65 2t47.5 10t33.5 16t26 28.5t22.5 39.5t24.5 56h22z" />
    <glyph glyph-name="Ccedilla" unicode="&#xc7;" horiz-adv-x="641" 
d="M479 -135q0 -38 -30.5 -64t-87.5 -26q-32 0 -58.5 8.5t-37.5 17.5t-11 15t11 6q6 0 33 -6t44 -6q31 0 47 14t16 37q0 45 -63 45h-41l23 82q-117 11 -194 101t-77 259q0 154 90 258.5t226 104.5q74 0 156 -46q9 2 20.5 12t16.5 19h22v-230h-33q-23 94 -68 150t-110 56
q-82 0 -135 -84.5t-53 -239.5q0 -141 53 -232.5t142 -91.5q110 0 193 179h29v-203h-22q-5 10 -18 22t-23 17q-92 -51 -168 -54l-9 -39h13q50 0 77 -22t27 -59z" />
    <glyph glyph-name="Egrave" unicode="&#xc8;" horiz-adv-x="585" 
d="M549 190v-190h-518v21q36 0 58.5 19.5t22.5 51.5v511q0 32 -22.5 52t-58.5 20v21h495v-182h-23q-33 90 -62.5 116t-98.5 26h-11q-35 0 -52.5 -2.5t-30.5 -15.5t-13 -39v-216h78q35 0 62.5 26.5t27.5 69.5h23v-230h-23q0 43 -27.5 69.5t-62.5 26.5h-78v-249
q0 -31 17.5 -44.5t54.5 -13.5h21q33 0 55.5 2t41.5 10t30 16t24.5 29t22 39t25.5 56h22zM156 852q0 15 10 25.5t27 10.5q24 0 45 -26l101 -125h-32l-123 75q-28 17 -28 40z" />
    <glyph glyph-name="Eacute" unicode="&#xc9;" horiz-adv-x="585" 
d="M549 190v-190h-518v21q36 0 58.5 19.5t22.5 51.5v511q0 32 -22.5 52t-58.5 20v21h495v-182h-23q-33 90 -62.5 116t-98.5 26h-11q-35 0 -52.5 -2.5t-30.5 -15.5t-13 -39v-216h78q35 0 62.5 26.5t27.5 69.5h23v-230h-23q0 43 -27.5 69.5t-62.5 26.5h-78v-249
q0 -31 17.5 -44.5t54.5 -13.5h21q33 0 55.5 2t41.5 10t30 16t24.5 29t22 39t25.5 56h22zM450 851q0 -23 -28 -40l-123 -75h-32l101 125q21 26 45 26q17 0 27 -10.5t10 -25.5z" />
    <glyph glyph-name="Ecircumflex" unicode="&#xca;" horiz-adv-x="585" 
d="M549 190v-190h-518v21q36 0 58.5 19.5t22.5 51.5v511q0 32 -22.5 52t-58.5 20v21h495v-182h-23q-33 90 -62.5 116t-98.5 26h-11q-35 0 -52.5 -2.5t-30.5 -15.5t-13 -39v-216h78q35 0 62.5 26.5t27.5 69.5h23v-230h-23q0 43 -27.5 69.5t-62.5 26.5h-78v-249
q0 -31 17.5 -44.5t54.5 -13.5h21q33 0 55.5 2t41.5 10t30 16t24.5 29t22 39t25.5 56h22zM168 758l127 117h11l127 -117q6 -6 6 -11t-5 -7.5t-10 -0.5l-122 60h-3l-122 -60q-5 -2 -10 0.5t-5 7.5t6 11z" />
    <glyph glyph-name="Edieresis" unicode="&#xcb;" horiz-adv-x="585" 
d="M549 190v-190h-518v21q36 0 58.5 19.5t22.5 51.5v511q0 32 -22.5 52t-58.5 20v21h495v-182h-23q-33 90 -62.5 116t-98.5 26h-11q-35 0 -52.5 -2.5t-30.5 -15.5t-13 -39v-216h78q35 0 62.5 26.5t27.5 69.5h23v-230h-23q0 43 -27.5 69.5t-62.5 26.5h-78v-249
q0 -31 17.5 -44.5t54.5 -13.5h21q33 0 55.5 2t41.5 10t30 16t24.5 29t22 39t25.5 56h22zM266 802q0 -28 -19 -47t-47 -19q-27 0 -46 19t-19 47q0 27 19 46.5t46 19.5q28 0 47 -19.5t19 -46.5zM453 802q0 -28 -19 -47t-46 -19q-28 0 -47 19t-19 47q0 27 19 46.5t47 19.5
q27 0 46 -19.5t19 -46.5z" />
    <glyph glyph-name="Igrave" unicode="&#xcc;" horiz-adv-x="346" 
d="M315 21v-21h-284v21q37 0 59 19.5t22 51.5v511q0 32 -22 51.5t-59 19.5v22h284v-22q-36 0 -58.5 -19.5t-22.5 -51.5v-511q0 -32 22.5 -51.5t58.5 -19.5zM47 852q0 15 10 25.5t27 10.5q24 0 45 -26l101 -125h-32l-123 75q-28 17 -28 40z" />
    <glyph glyph-name="Iacute" unicode="&#xcd;" horiz-adv-x="346" 
d="M315 21v-21h-284v21q37 0 59 19.5t22 51.5v511q0 32 -22 51.5t-59 19.5v22h284v-22q-36 0 -58.5 -19.5t-22.5 -51.5v-511q0 -32 22.5 -51.5t58.5 -19.5zM310 852q0 -23 -28 -40l-123 -75h-32l101 125q21 26 45 26q17 0 27 -10.5t10 -25.5z" />
    <glyph glyph-name="Icircumflex" unicode="&#xce;" horiz-adv-x="346" 
d="M315 21v-21h-284v21q37 0 59 19.5t22 51.5v511q0 32 -22 51.5t-59 19.5v22h284v-22q-36 0 -58.5 -19.5t-22.5 -51.5v-511q0 -32 22.5 -51.5t58.5 -19.5zM37 758l127 117h11l127 -117q6 -6 6 -11t-5 -7.5t-10 -0.5l-122 60h-3l-122 -60q-5 -2 -10 0.5t-5 7.5t6 11z" />
    <glyph glyph-name="Idieresis" unicode="&#xcf;" horiz-adv-x="346" 
d="M145 803q0 -28 -19 -47t-47 -19q-27 0 -46 19t-19 47q0 27 19 46.5t46 19.5q28 0 47 -19.5t19 -46.5zM332 803q0 -28 -19 -47t-46 -19q-28 0 -47 19t-19 47q0 27 19 46.5t47 19.5q27 0 46 -19.5t19 -46.5zM315 21v-21h-284v21q37 0 59 19.5t22 51.5v511q0 32 -22 51.5
t-59 19.5v22h284v-22q-36 0 -58.5 -19.5t-22.5 -51.5v-511q0 -32 22.5 -51.5t58.5 -19.5z" />
    <glyph glyph-name="Eth" unicode="&#xd0;" horiz-adv-x="727" 
d="M542 346q0 150 -59.5 230.5t-161.5 80.5h-22q-33 0 -49 -13.5t-16 -46.5v-230h156v-39h-156v-228q0 -61 65 -61h25q117 0 167.5 79t50.5 228zM674 360q0 -177 -93.5 -268.5t-257.5 -91.5h-292v21q36 0 58.5 19.5t22.5 51.5v236h-56v39h56v236q0 32 -22.5 52t-58.5 20v21
h288q168 0 261.5 -83t93.5 -253z" />
    <glyph glyph-name="Ntilde" unicode="&#xd1;" horiz-adv-x="765" 
d="M734 696v-22q-41 0 -64.5 -19.5t-23.5 -55.5v-599h-37l-446 561h-4v-465q0 -35 24 -55t64 -20v-21h-216v21q41 0 65 19.5t24 55.5v507q0 32 -22.5 52t-59.5 20v21h170l395 -504h4v407q0 35 -24.5 55t-63.5 20v22h215zM512 832h35q-17 -93 -85 -93q-16 0 -70.5 13.5
t-72.5 13.5q-32 0 -45 -29h-34q15 93 83 93q17 0 71.5 -13.5t73.5 -13.5q32 0 44 29z" />
    <glyph glyph-name="Ograve" unicode="&#xd2;" horiz-adv-x="731" 
d="M547 348q0 88 -17.5 158.5t-59.5 118t-104 47.5t-104 -47.5t-59.5 -118t-17.5 -158.5t17.5 -158.5t59.5 -118t104 -47.5t104 47.5t59.5 118t17.5 158.5zM678 348q0 -147 -88 -255t-224 -108q-146 0 -229.5 96t-83.5 267q0 147 88.5 255t224.5 108q145 0 228.5 -96.5
t83.5 -266.5zM224 851q0 15 10 25.5t27 10.5q24 0 45 -26l101 -125h-32l-123 75q-28 17 -28 40z" />
    <glyph glyph-name="Oacute" unicode="&#xd3;" horiz-adv-x="731" 
d="M547 348q0 88 -17.5 158.5t-59.5 118t-104 47.5t-104 -47.5t-59.5 -118t-17.5 -158.5t17.5 -158.5t59.5 -118t104 -47.5t104 47.5t59.5 118t17.5 158.5zM678 348q0 -147 -88 -255t-224 -108q-146 0 -229.5 96t-83.5 267q0 147 88.5 255t224.5 108q145 0 228.5 -96.5
t83.5 -266.5zM512 851q0 -23 -28 -40l-123 -75h-32l101 125q21 26 45 26q17 0 27 -10.5t10 -25.5z" />
    <glyph glyph-name="Ocircumflex" unicode="&#xd4;" horiz-adv-x="731" 
d="M547 348q0 88 -17.5 158.5t-59.5 118t-104 47.5t-104 -47.5t-59.5 -118t-17.5 -158.5t17.5 -158.5t59.5 -118t104 -47.5t104 47.5t59.5 118t17.5 158.5zM678 348q0 -147 -88 -255t-224 -108q-146 0 -229.5 96t-83.5 267q0 147 88.5 255t224.5 108q145 0 228.5 -96.5
t83.5 -266.5zM235 758l127 117h11l127 -117q6 -6 6 -11t-5 -7.5t-10 -0.5l-122 60h-3l-122 -60q-5 -2 -10 0.5t-5 7.5t6 11z" />
    <glyph glyph-name="Otilde" unicode="&#xd5;" horiz-adv-x="731" 
d="M547 348q0 88 -17.5 158.5t-59.5 118t-104 47.5t-104 -47.5t-59.5 -118t-17.5 -158.5t17.5 -158.5t59.5 -118t104 -47.5t104 47.5t59.5 118t17.5 158.5zM678 348q0 -147 -88 -255t-224 -108q-146 0 -229.5 96t-83.5 267q0 147 88.5 255t224.5 108q145 0 228.5 -96.5
t83.5 -266.5zM486 832h35q-17 -93 -85 -93q-16 0 -70.5 13.5t-72.5 13.5q-32 0 -45 -29h-34q15 93 83 93q17 0 71.5 -13.5t73.5 -13.5q32 0 44 29z" />
    <glyph glyph-name="Odieresis" unicode="&#xd6;" horiz-adv-x="731" 
d="M547 348q0 88 -17.5 158.5t-59.5 118t-104 47.5t-104 -47.5t-59.5 -118t-17.5 -158.5t17.5 -158.5t59.5 -118t104 -47.5t104 47.5t59.5 118t17.5 158.5zM678 348q0 -147 -88 -255t-224 -108q-146 0 -229.5 96t-83.5 267q0 147 88.5 255t224.5 108q145 0 228.5 -96.5
t83.5 -266.5zM337 802q0 -28 -19 -47t-47 -19q-27 0 -46 19t-19 47q0 27 19 46.5t46 19.5q28 0 47 -19.5t19 -46.5zM524 802q0 -28 -19 -47t-46 -19q-28 0 -47 19t-19 47q0 27 19 46.5t47 19.5q27 0 46 -19.5t19 -46.5z" />
    <glyph glyph-name="multiply" unicode="&#xd7;" horiz-adv-x="500" 
d="M371 410l51 -50l-123 -121l123 -122l-51 -50l-121 122l-122 -122q-5 5 -15.5 15t-19 18.5t-15.5 16.5q18 18 38.5 38t45 45t38.5 39l-122 121l50 50l122 -122z" />
    <glyph glyph-name="Oslash" unicode="&#xd8;" horiz-adv-x="731" 
d="M547 348q0 91 -21 158l-306 -366q47 -116 146 -116q62 0 104 47.5t59.5 118t17.5 158.5zM206 187q204 244 307 366q-47 119 -147 119q-62 0 -104 -47.5t-59.5 -118t-17.5 -158.5q0 -89 19 -161h2zM636 696h51l-80 -96q71 -96 71 -252q0 -147 -88 -255t-224 -108
q-130 0 -212 77l-52 -62h-58l81 94q-72 95 -72 254q0 147 88.5 255t224.5 108q131 0 213 -80z" />
    <glyph glyph-name="Ugrave" unicode="&#xd9;" horiz-adv-x="727" 
d="M702 696v-21q-41 0 -64.5 -20t-23.5 -56v-357q0 -126 -69 -191.5t-179 -65.5q-120 0 -190 64.5t-70 203.5v350q0 33 -22 52.5t-59 19.5v21h284v-21q-36 0 -58.5 -20t-22.5 -52v-361q0 -105 41 -161.5t121 -56.5q88 0 136.5 58t48.5 155v362q0 35 -24 55.5t-64 20.5v21
h215zM239 852q0 15 10 25.5t27 10.5q24 0 45 -26l101 -125h-32l-123 75q-28 17 -28 40z" />
    <glyph glyph-name="Uacute" unicode="&#xda;" horiz-adv-x="727" 
d="M702 696v-21q-41 0 -64.5 -20t-23.5 -56v-357q0 -126 -69 -191.5t-179 -65.5q-120 0 -190 64.5t-70 203.5v350q0 33 -22 52.5t-59 19.5v21h284v-21q-36 0 -58.5 -20t-22.5 -52v-361q0 -105 41 -161.5t121 -56.5q88 0 136.5 58t48.5 155v362q0 35 -24 55.5t-64 20.5v21
h215zM548 852q0 -23 -28 -40l-123 -75h-32l101 125q21 26 45 26q17 0 27 -10.5t10 -25.5z" />
    <glyph glyph-name="Ucircumflex" unicode="&#xdb;" horiz-adv-x="727" 
d="M702 696v-21q-41 0 -64.5 -20t-23.5 -56v-357q0 -126 -69 -191.5t-179 -65.5q-120 0 -190 64.5t-70 203.5v350q0 33 -22 52.5t-59 19.5v21h284v-21q-36 0 -58.5 -20t-22.5 -52v-361q0 -105 41 -161.5t121 -56.5q88 0 136.5 58t48.5 155v362q0 35 -24 55.5t-64 20.5v21
h215zM267 758l127 117h11l127 -117q6 -6 6 -11t-5 -7.5t-10 -0.5l-122 60h-3l-122 -60q-5 -2 -10 0.5t-5 7.5t6 11z" />
    <glyph glyph-name="Udieresis" unicode="&#xdc;" horiz-adv-x="727" 
d="M702 696v-21q-41 0 -64.5 -20t-23.5 -56v-357q0 -126 -69 -191.5t-179 -65.5q-120 0 -190 64.5t-70 203.5v350q0 33 -22 52.5t-59 19.5v21h284v-21q-36 0 -58.5 -20t-22.5 -52v-361q0 -105 41 -161.5t121 -56.5q88 0 136.5 58t48.5 155v362q0 35 -24 55.5t-64 20.5v21
h215zM370 803q0 -28 -19 -47t-47 -19q-27 0 -46 19t-19 47q0 27 19 46.5t46 19.5q28 0 47 -19.5t19 -46.5zM557 803q0 -28 -19 -47t-46 -19q-28 0 -47 19t-19 47q0 27 19 46.5t47 19.5q27 0 46 -19.5t19 -46.5z" />
    <glyph glyph-name="Yacute" unicode="&#xdd;" horiz-adv-x="696" 
d="M686 696v-21q-21 0 -35.5 -5t-28 -21t-20 -27t-22.5 -41l-165 -294v-195q0 -32 22.5 -51.5t58.5 -19.5v-21h-284v21q37 0 59 19.5t22 51.5v168l-177 326q-25 46 -49 67.5t-57 21.5v21h292v-21q-43 0 -56 -24t8 -65l136 -257h3l131 257q20 41 6.5 65t-53.5 24v21h209z
M562 851q0 -23 -28 -40l-123 -75h-32l101 125q21 26 45 26q17 0 27 -10.5t10 -25.5z" />
    <glyph glyph-name="Thorn" unicode="&#xde;" horiz-adv-x="622" 
d="M583 357q0 -97 -68.5 -149.5t-177.5 -52.5h-103v-68q0 -29 21 -47.5t55 -18.5v-21h-279v21q37 0 59 19.5t22 51.5v511q0 32 -22 52t-59 20v21h284v-21q-36 0 -58.5 -20t-22.5 -52v-52h92q124 0 190.5 -52t66.5 -142zM453 351q0 72 -38 117.5t-111 45.5h-6q-32 0 -48 -14
t-16 -48v-258l69 1q71 1 110.5 42t39.5 114z" />
    <glyph glyph-name="germandbls" unicode="&#xdf;" horiz-adv-x="580" 
d="M534 202q0 -88 -53.5 -147t-153.5 -66q-21 -2 -23 8.5t17 19.5q55 27 75.5 68.5t20.5 102.5q0 84 -40.5 123.5t-114.5 38.5v39q70 -2 104.5 37t34.5 105q0 51 -25 87.5t-71 36.5q-101 0 -101 -191v-395q0 -20 14.5 -34t34.5 -14v-21h-216v21q23 0 38.5 15.5t15.5 38.5
v368q0 125 62 187t153 62q94 0 140 -50.5t46 -108.5q0 -106 -78 -153v-2q52 -19 86 -68t34 -108z" />
    <glyph glyph-name="agrave" unicode="&#xe0;" horiz-adv-x="538" 
d="M339 130v135q-81 -12 -131 -47.5t-50 -92.5q0 -37 19.5 -57t50.5 -20q37 0 74 29.5t37 52.5zM521 58q0 -10 -15 -25q-40 -42 -96 -42q-60 0 -70 73h-4q-77 -73 -160 -73q-55 0 -95 31.5t-40 91.5q0 31 11.5 56t34.5 43t48.5 31t63 23t68 16.5t72.5 12.5v58q0 97 -94 97
q-35 0 -56.5 -10.5t-21.5 -28.5q0 -7 4.5 -21t4.5 -26q0 -24 -14.5 -39.5t-41.5 -15.5q-25 0 -41 18.5t-16 43.5q0 52 54.5 84.5t134.5 32.5q90 0 145 -39t55 -127v-230q0 -48 27 -48q9 0 27 18q4 5 9.5 3t5.5 -8zM141 649q0 15 10 25.5t27 10.5q24 0 45 -26l101 -125h-32
l-123 75q-28 17 -28 40z" />
    <glyph glyph-name="aacute" unicode="&#xe1;" horiz-adv-x="538" 
d="M339 130v135q-81 -12 -131 -47.5t-50 -92.5q0 -37 19.5 -57t50.5 -20q37 0 74 29.5t37 52.5zM521 58q0 -10 -15 -25q-40 -42 -96 -42q-60 0 -70 73h-4q-77 -73 -160 -73q-55 0 -95 31.5t-40 91.5q0 31 11.5 56t34.5 43t48.5 31t63 23t68 16.5t72.5 12.5v58q0 97 -94 97
q-35 0 -56.5 -10.5t-21.5 -28.5q0 -7 4.5 -21t4.5 -26q0 -24 -14.5 -39.5t-41.5 -15.5q-25 0 -41 18.5t-16 43.5q0 52 54.5 84.5t134.5 32.5q90 0 145 -39t55 -127v-230q0 -48 27 -48q9 0 27 18q4 5 9.5 3t5.5 -8zM414 649q0 -23 -28 -40l-123 -75h-32l101 125q21 26 45 26
q17 0 27 -10.5t10 -25.5z" />
    <glyph glyph-name="acircumflex" unicode="&#xe2;" horiz-adv-x="538" 
d="M339 130v135q-81 -12 -131 -47.5t-50 -92.5q0 -37 19.5 -57t50.5 -20q37 0 74 29.5t37 52.5zM521 58q0 -10 -15 -25q-40 -42 -96 -42q-60 0 -70 73h-4q-77 -73 -160 -73q-55 0 -95 31.5t-40 91.5q0 31 11.5 56t34.5 43t48.5 31t63 23t68 16.5t72.5 12.5v58q0 97 -94 97
q-35 0 -56.5 -10.5t-21.5 -28.5q0 -7 4.5 -21t4.5 -26q0 -24 -14.5 -39.5t-41.5 -15.5q-25 0 -41 18.5t-16 43.5q0 52 54.5 84.5t134.5 32.5q90 0 145 -39t55 -127v-230q0 -48 27 -48q9 0 27 18q4 5 9.5 3t5.5 -8zM144 553l127 117h11l127 -117q6 -6 6 -11t-5 -7.5t-10 -0.5
l-122 60h-3l-122 -60q-5 -2 -10 0.5t-5 7.5t6 11z" />
    <glyph glyph-name="atilde" unicode="&#xe3;" horiz-adv-x="538" 
d="M339 130v135q-81 -12 -131 -47.5t-50 -92.5q0 -37 19.5 -57t50.5 -20q37 0 74 29.5t37 52.5zM521 58q0 -10 -15 -25q-40 -42 -96 -42q-60 0 -70 73h-4q-77 -73 -160 -73q-55 0 -95 31.5t-40 91.5q0 31 11.5 56t34.5 43t48.5 31t63 23t68 16.5t72.5 12.5v58q0 97 -94 97
q-35 0 -56.5 -10.5t-21.5 -28.5q0 -7 4.5 -21t4.5 -26q0 -24 -14.5 -39.5t-41.5 -15.5q-25 0 -41 18.5t-16 43.5q0 52 54.5 84.5t134.5 32.5q90 0 145 -39t55 -127v-230q0 -48 27 -48q9 0 27 18q4 5 9.5 3t5.5 -8zM393 630h35q-17 -93 -85 -93q-16 0 -70.5 13.5t-72.5 13.5
q-32 0 -45 -29h-34q15 93 83 93q17 0 71.5 -13.5t73.5 -13.5q32 0 44 29z" />
    <glyph glyph-name="adieresis" unicode="&#xe4;" horiz-adv-x="538" 
d="M339 130v135q-81 -12 -131 -47.5t-50 -92.5q0 -37 19.5 -57t50.5 -20q37 0 74 29.5t37 52.5zM521 58q0 -10 -15 -25q-40 -42 -96 -42q-60 0 -70 73h-4q-77 -73 -160 -73q-55 0 -95 31.5t-40 91.5q0 31 11.5 56t34.5 43t48.5 31t63 23t68 16.5t72.5 12.5v58q0 97 -94 97
q-35 0 -56.5 -10.5t-21.5 -28.5q0 -7 4.5 -21t4.5 -26q0 -24 -14.5 -39.5t-41.5 -15.5q-25 0 -41 18.5t-16 43.5q0 52 54.5 84.5t134.5 32.5q90 0 145 -39t55 -127v-230q0 -48 27 -48q9 0 27 18q4 5 9.5 3t5.5 -8zM242 600q0 -28 -19 -47t-47 -19q-27 0 -46 19t-19 47
q0 27 19 46.5t46 19.5q28 0 47 -19.5t19 -46.5zM429 600q0 -28 -19 -47t-46 -19q-28 0 -47 19t-19 47q0 27 19 46.5t47 19.5q27 0 46 -19.5t19 -46.5z" />
    <glyph glyph-name="aring" unicode="&#xe5;" horiz-adv-x="538" 
d="M339 130v135q-81 -12 -131 -47.5t-50 -92.5q0 -37 19.5 -57t50.5 -20q37 0 74 29.5t37 52.5zM521 58q0 -10 -15 -25q-40 -42 -96 -42q-60 0 -70 73h-4q-77 -73 -160 -73q-55 0 -95 31.5t-40 91.5q0 31 11.5 56t34.5 43t48.5 31t63 23t68 16.5t72.5 12.5v58q0 97 -94 97
q-35 0 -56.5 -10.5t-21.5 -28.5q0 -7 4.5 -21t4.5 -26q0 -24 -14.5 -39.5t-41.5 -15.5q-25 0 -41 18.5t-16 43.5q0 52 54.5 84.5t134.5 32.5q90 0 145 -39t55 -127v-230q0 -48 27 -48q9 0 27 18q4 5 9.5 3t5.5 -8zM320 647q0 23 -16.5 39.5t-39.5 16.5t-39.5 -16.5
t-16.5 -39.5t16.5 -39.5t39.5 -16.5t39.5 16.5t16.5 39.5zM376 647q0 -47 -32.5 -80t-79.5 -33t-80 33t-33 80t33 80t80 33t79.5 -33t32.5 -80z" />
    <glyph glyph-name="ae" unicode="&#xe6;" horiz-adv-x="814" 
d="M339 138v126q-82 -13 -131.5 -47.5t-49.5 -91.5q0 -37 19.5 -57t50.5 -20q37 0 74 32.5t37 57.5zM454 302h200q0 79 -19.5 113.5t-68.5 34.5q-43 0 -74.5 -40t-37.5 -108zM771 96q0 -4 -3 -9q-24 -38 -73.5 -67t-118.5 -29q-68 0 -122.5 27.5t-85.5 80.5h-4
q-41 -52 -83 -80t-105 -28q-55 0 -95 31.5t-40 91.5q0 37 18 66t44.5 47.5t69.5 33t79.5 22t86.5 15.5v56q0 46 -25 71.5t-69 25.5q-37 0 -57.5 -11t-20.5 -28q0 -7 5 -21t5 -25q0 -24 -14.5 -40t-42.5 -16q-25 0 -41 18.5t-16 43.5q0 52 54.5 84.5t134.5 32.5
q48 0 93.5 -14t69.5 -43h3q64 57 153 57q93 0 147.5 -56.5t54.5 -165.5h-321q0 -232 152 -232q78 0 146 66q5 5 11 5q10 0 10 -10z" />
    <glyph glyph-name="ccedilla" unicode="&#xe7;" horiz-adv-x="491" 
d="M392 -135q0 -38 -30.5 -64t-87.5 -26q-56 0 -95 25q-14 9 -12 17t19 4q3 -1 16.5 -4t26 -5t26.5 -2q31 0 47 14t16 37q0 18 -14.5 31.5t-48.5 13.5h-41l24 88q-88 11 -140 71.5t-52 171.5q0 112 67.5 182t176.5 70q75 0 120.5 -35.5t45.5 -80.5q0 -29 -17.5 -47.5
t-42.5 -18.5q-26 0 -40 15.5t-14 37.5q0 10 3.5 27t3.5 22q0 18 -15.5 31t-44.5 13q-59 0 -92.5 -56.5t-33.5 -153.5q0 -94 41.5 -151.5t105.5 -57.5q72 0 134 62q4 5 10 5q11 0 11 -12q0 -1 -3 -7q-28 -46 -78.5 -68t-97.5 -23l-11 -45h13q50 0 77 -22t27 -59z" />
    <glyph glyph-name="egrave" unicode="&#xe8;" horiz-adv-x="526" 
d="M166 302h200q0 76 -20 112t-68 36q-43 0 -74.5 -40t-37.5 -108zM485 267h-321q0 -47 8 -87t25 -73.5t47.5 -52.5t71.5 -19q78 0 146 66q5 5 11 5q10 0 10 -10q0 -4 -3 -9q-24 -38 -73.5 -67t-118.5 -29q-101 0 -171.5 64.5t-70.5 184.5q0 103 67 176.5t170 73.5
q91 0 146.5 -58.5t55.5 -164.5zM153 649q0 15 10 25.5t27 10.5q24 0 45 -26l101 -125h-32l-123 75q-28 17 -28 40z" />
    <glyph glyph-name="eacute" unicode="&#xe9;" horiz-adv-x="526" 
d="M166 302h200q0 76 -20 112t-68 36q-43 0 -74.5 -40t-37.5 -108zM485 267h-321q0 -47 8 -87t25 -73.5t47.5 -52.5t71.5 -19q78 0 146 66q5 5 11 5q10 0 10 -10q0 -4 -3 -9q-24 -38 -73.5 -67t-118.5 -29q-101 0 -171.5 64.5t-70.5 184.5q0 103 67 176.5t170 73.5
q91 0 146.5 -58.5t55.5 -164.5zM422 649q0 -23 -28 -40l-123 -75h-32l101 125q21 26 45 26q17 0 27 -10.5t10 -25.5z" />
    <glyph glyph-name="ecircumflex" unicode="&#xea;" horiz-adv-x="526" 
d="M166 302h200q0 76 -20 112t-68 36q-43 0 -74.5 -40t-37.5 -108zM485 267h-321q0 -47 8 -87t25 -73.5t47.5 -52.5t71.5 -19q78 0 146 66q5 5 11 5q10 0 10 -10q0 -4 -3 -9q-24 -38 -73.5 -67t-118.5 -29q-101 0 -171.5 64.5t-70.5 184.5q0 103 67 176.5t170 73.5
q91 0 146.5 -58.5t55.5 -164.5zM148 553l127 117h11l127 -117q6 -6 6 -11t-5 -7.5t-10 -0.5l-122 60h-3l-122 -60q-5 -2 -10 0.5t-5 7.5t6 11z" />
    <glyph glyph-name="edieresis" unicode="&#xeb;" horiz-adv-x="526" 
d="M166 302h200q0 76 -20 112t-68 36q-43 0 -74.5 -40t-37.5 -108zM485 267h-321q0 -47 8 -87t25 -73.5t47.5 -52.5t71.5 -19q78 0 146 66q5 5 11 5q10 0 10 -10q0 -4 -3 -9q-24 -38 -73.5 -67t-118.5 -29q-101 0 -171.5 64.5t-70.5 184.5q0 103 67 176.5t170 73.5
q91 0 146.5 -58.5t55.5 -164.5zM253 600q0 -28 -19 -47t-47 -19q-27 0 -46 19t-19 47q0 27 19 46.5t46 19.5q28 0 47 -19.5t19 -46.5zM440 600q0 -28 -19 -47t-46 -19q-28 0 -47 19t-19 47q0 27 19 46.5t47 19.5q27 0 46 -19.5t19 -46.5z" />
    <glyph glyph-name="igrave" unicode="&#xec;" horiz-adv-x="291" 
d="M259 21v-21h-222v21q25 0 39.5 16t14.5 43v319q0 26 -14.5 42.5t-39.5 16.5v21h167v-399q0 -26 15 -42.5t40 -16.5zM3 649q0 15 10 25.5t27 10.5q24 0 45 -26l101 -125h-32l-123 75q-28 17 -28 40z" />
    <glyph glyph-name="iacute" unicode="&#xed;" horiz-adv-x="291" 
d="M259 21v-21h-222v21q25 0 39.5 16t14.5 43v319q0 26 -14.5 42.5t-39.5 16.5v21h167v-399q0 -26 15 -42.5t40 -16.5zM271 649q0 -23 -28 -40l-123 -75h-32l101 125q21 26 45 26q17 0 27 -10.5t10 -25.5z" />
    <glyph glyph-name="icircumflex" unicode="&#xee;" horiz-adv-x="291" 
d="M259 21v-21h-222v21q25 0 39.5 16t14.5 43v319q0 26 -14.5 42.5t-39.5 16.5v21h167v-399q0 -26 15 -42.5t40 -16.5zM5 553l127 117h11l127 -117q6 -6 6 -11t-5 -7.5t-10 -0.5l-122 60h-3l-122 -60q-5 -2 -10 0.5t-5 7.5t6 11z" />
    <glyph glyph-name="idieresis" unicode="&#xef;" horiz-adv-x="291" 
d="M259 21v-21h-222v21q25 0 39.5 16t14.5 43v319q0 26 -14.5 42.5t-39.5 16.5v21h167v-399q0 -26 15 -42.5t40 -16.5zM106 600q0 -28 -19 -47t-47 -19q-27 0 -46 19t-19 47q0 27 19 46.5t46 19.5q28 0 47 -19.5t19 -46.5zM293 600q0 -28 -19 -47t-46 -19q-28 0 -47 19
t-19 47q0 27 19 46.5t47 19.5q27 0 46 -19.5t19 -46.5z" />
    <glyph glyph-name="eth" unicode="&#xf0;" horiz-adv-x="550" 
d="M387 238q0 212 -112 212t-112 -212q0 -94 26.5 -151.5t85.5 -57.5t85.5 57.5t26.5 151.5zM504 240q0 -111 -59 -180t-170 -69q-113 0 -171 65t-58 184q0 105 59 177t170 72q18 0 46 -7h3q-54 67 -111 120l-50 -54q-3 3 -9.5 8.5t-11.5 10.5t-10 9l49 54q-19 17 -67 54
l28 39q58 -39 76 -52l51 57q5 -4 10 -9t11.5 -10.5t9.5 -8.5l-48 -54q77 -61 147 -137q105 -114 105 -269z" />
    <glyph glyph-name="ntilde" unicode="&#xf1;" horiz-adv-x="590" 
d="M558 22v-22h-217v22q22 0 36 15t14 38v262q0 41 -22 67.5t-64 26.5q-43 0 -72 -32t-29 -74v-250q0 -24 13.5 -38.5t36.5 -14.5v-22h-216v22q24 0 38.5 16t14.5 42v319q0 27 -14.5 43t-39.5 16v21h167v-66h3q57 76 151 76q33 0 64 -12t56.5 -48t25.5 -90v-259
q0 -26 14.5 -42t39.5 -16zM432 630h35q-17 -93 -85 -93q-16 0 -70.5 13.5t-72.5 13.5q-32 0 -45 -29h-34q15 93 83 93q17 0 71.5 -13.5t73.5 -13.5q32 0 44 29z" />
    <glyph glyph-name="ograve" unicode="&#xf2;" horiz-adv-x="550" 
d="M387 238q0 212 -112 212t-112 -212q0 -94 26.5 -151.5t85.5 -57.5t85.5 57.5t26.5 151.5zM504 240q0 -111 -59 -180.5t-170 -69.5q-113 0 -171 65.5t-58 184.5q0 105 59 177t170 72q113 0 171 -67.5t58 -181.5zM142 649q0 15 10 25.5t27 10.5q24 0 45 -26l101 -125h-32
l-123 75q-28 17 -28 40z" />
    <glyph glyph-name="oacute" unicode="&#xf3;" horiz-adv-x="550" 
d="M387 238q0 212 -112 212t-112 -212q0 -94 26.5 -151.5t85.5 -57.5t85.5 57.5t26.5 151.5zM504 240q0 -111 -59 -180.5t-170 -69.5q-113 0 -171 65.5t-58 184.5q0 105 59 177t170 72q113 0 171 -67.5t58 -181.5zM428 649q0 -23 -28 -40l-123 -75h-32l101 125q21 26 45 26
q17 0 27 -10.5t10 -25.5z" />
    <glyph glyph-name="ocircumflex" unicode="&#xf4;" horiz-adv-x="550" 
d="M387 238q0 212 -112 212t-112 -212q0 -94 26.5 -151.5t85.5 -57.5t85.5 57.5t26.5 151.5zM504 240q0 -111 -59 -180.5t-170 -69.5q-113 0 -171 65.5t-58 184.5q0 105 59 177t170 72q113 0 171 -67.5t58 -181.5zM150 553l127 117h11l127 -117q6 -6 6 -11t-5 -7.5t-10 -0.5
l-122 60h-3l-122 -60q-5 -2 -10 0.5t-5 7.5t6 11z" />
    <glyph glyph-name="otilde" unicode="&#xf5;" horiz-adv-x="550" 
d="M387 238q0 212 -112 212t-112 -212q0 -94 26.5 -151.5t85.5 -57.5t85.5 57.5t26.5 151.5zM504 240q0 -111 -59 -180.5t-170 -69.5q-113 0 -171 65.5t-58 184.5q0 105 59 177t170 72q113 0 171 -67.5t58 -181.5zM400 630h35q-17 -93 -85 -93q-16 0 -70.5 13.5t-72.5 13.5
q-32 0 -45 -29h-34q15 93 83 93q17 0 71.5 -13.5t73.5 -13.5q32 0 44 29z" />
    <glyph glyph-name="odieresis" unicode="&#xf6;" horiz-adv-x="550" 
d="M387 238q0 212 -112 212t-112 -212q0 -94 26.5 -151.5t85.5 -57.5t85.5 57.5t26.5 151.5zM504 240q0 -111 -59 -180.5t-170 -69.5q-113 0 -171 65.5t-58 184.5q0 105 59 177t170 72q113 0 171 -67.5t58 -181.5zM253 600q0 -28 -19 -47t-47 -19q-27 0 -46 19t-19 47
q0 27 19 46.5t46 19.5q28 0 47 -19.5t19 -46.5zM440 600q0 -28 -19 -47t-46 -19q-28 0 -47 19t-19 47q0 27 19 46.5t47 19.5q27 0 46 -19.5t19 -46.5z" />
    <glyph glyph-name="divide" unicode="&#xf7;" horiz-adv-x="500" 
d="M322 84q0 -30 -21 -51.5t-51 -21.5t-51.5 21.5t-21.5 51.5q0 29 21.5 51t51.5 22t51 -21.5t21 -51.5zM457 274v-71h-415v71h415zM322 394q0 -29 -21 -50.5t-51 -21.5t-51.5 21.5t-21.5 50.5q0 30 21.5 52t51.5 22t51 -22t21 -52z" />
    <glyph glyph-name="oslash" unicode="&#xf8;" horiz-adv-x="550" 
d="M387 238q0 50 -8 85l-196 -223q29 -71 92 -71q59 0 85.5 57.5t26.5 151.5zM172 147q66 75 196 225q-26 78 -93 78q-112 0 -112 -212q0 -56 9 -91zM465 480h54l-62 -72q47 -65 47 -168q0 -111 -59 -180t-170 -69q-93 0 -149 45l-33 -37l-53 1l57 64q-51 64 -51 176
q0 105 59 177t170 72q94 0 153 -51z" />
    <glyph glyph-name="ugrave" unicode="&#xf9;" horiz-adv-x="580" 
d="M548 21v-21h-143q-19 27 -24 60h-3q-56 -69 -150 -69q-61 0 -104 34t-43 113v261q0 25 -15.5 42t-38.5 17v21h167v-1v-335q0 -50 24 -72.5t60 -22.5q43 0 73 32t30 77v242q0 25 -15.5 42t-38.5 17v21h167v-399q0 -26 15.5 -42.5t38.5 -16.5zM117 649q0 15 10 25.5
t27 10.5q24 0 45 -26l101 -125h-32l-123 75q-28 17 -28 40z" />
    <glyph glyph-name="uacute" unicode="&#xfa;" horiz-adv-x="580" 
d="M548 21v-21h-143q-19 27 -24 60h-3q-56 -69 -150 -69q-61 0 -104 34t-43 113v261q0 25 -15.5 42t-38.5 17v21h167v-1v-335q0 -50 24 -72.5t60 -22.5q43 0 73 32t30 77v242q0 25 -15.5 42t-38.5 17v21h167v-399q0 -26 15.5 -42.5t38.5 -16.5zM439 649q0 -23 -28 -40
l-123 -75h-32l101 125q21 26 45 26q17 0 27 -10.5t10 -25.5z" />
    <glyph glyph-name="ucircumflex" unicode="&#xfb;" horiz-adv-x="580" 
d="M548 21v-21h-143q-19 27 -24 60h-3q-56 -69 -150 -69q-61 0 -104 34t-43 113v261q0 25 -15.5 42t-38.5 17v21h167v-1v-335q0 -50 24 -72.5t60 -22.5q43 0 73 32t30 77v242q0 25 -15.5 42t-38.5 17v21h167v-399q0 -26 15.5 -42.5t38.5 -16.5zM155 553l127 117h11l127 -117
q6 -6 6 -11t-5 -7.5t-10 -0.5l-122 60h-3l-122 -60q-5 -2 -10 0.5t-5 7.5t6 11z" />
    <glyph glyph-name="udieresis" unicode="&#xfc;" horiz-adv-x="580" 
d="M548 21v-21h-143q-19 27 -24 60h-3q-56 -69 -150 -69q-61 0 -104 34t-43 113v261q0 25 -15.5 42t-38.5 17v21h167v-1v-335q0 -50 24 -72.5t60 -22.5q43 0 73 32t30 77v242q0 25 -15.5 42t-38.5 17v21h167v-399q0 -26 15.5 -42.5t38.5 -16.5zM253 600q0 -28 -19 -47
t-47 -19q-27 0 -46 19t-19 47q0 27 19 46.5t46 19.5q28 0 47 -19.5t19 -46.5zM440 600q0 -28 -19 -47t-46 -19q-28 0 -47 19t-19 47q0 27 19 46.5t47 19.5q27 0 46 -19.5t19 -46.5z" />
    <glyph glyph-name="yacute" unicode="&#xfd;" horiz-adv-x="576" 
d="M567 479v-21q-30 0 -47 -22t-38 -74l-181 -457q-29 -71 -57 -105.5t-74 -34.5q-37 0 -59.5 22.5t-22.5 54.5q0 29 17 46t40 17q41 0 41 -42q0 -3 -1 -10.5t-1 -10.5q0 -18 18 -18q17 0 30.5 22t30.5 67l30 79l-179 372q-27 56 -46.5 75t-58.5 19v21h248v-21
q-63 0 -30 -72l118 -257h3l92 272q18 54 -37 57v21h164zM493 649q0 -23 -28 -40l-123 -75h-32l101 125q21 26 45 26q17 0 27 -10.5t10 -25.5z" />
    <glyph glyph-name="thorn" unicode="&#xfe;" horiz-adv-x="593" 
d="M430 245q0 199 -96 199q-55 0 -92.5 -56.5t-37.5 -148.5q0 -111 36.5 -158.5t85.5 -47.5q104 0 104 212zM547 255q0 -129 -58 -197t-146 -68q-45 0 -81 20t-55 47h-3v-204q0 -25 15 -41.5t40 -16.5v-22h-222v22q25 0 39.5 16t14.5 42v790q0 26 -14.5 42.5t-39.5 16.5v21
h167v-320h3q19 34 61 60t95 26q83 0 133.5 -62.5t50.5 -171.5z" />
    <glyph glyph-name="ydieresis" unicode="&#xff;" horiz-adv-x="576" 
d="M567 479v-21q-30 0 -47 -22t-38 -74l-181 -457q-29 -71 -57 -105.5t-74 -34.5q-37 0 -59.5 22.5t-22.5 54.5q0 29 17 46t40 17q41 0 41 -42q0 -3 -1 -10.5t-1 -10.5q0 -18 18 -18q17 0 30.5 22t30.5 67l30 79l-179 372q-27 56 -46.5 75t-58.5 19v21h248v-21
q-63 0 -30 -72l118 -257h3l92 272q18 54 -37 57v21h164zM308 600q0 -28 -19 -47t-47 -19q-27 0 -46 19t-19 47q0 27 19 46.5t46 19.5q28 0 47 -19.5t19 -46.5zM495 600q0 -28 -19 -47t-46 -19q-28 0 -47 19t-19 47q0 27 19 46.5t47 19.5q27 0 46 -19.5t19 -46.5z" />
    <glyph glyph-name="Amacron" unicode="&#x100;" horiz-adv-x="738" 
d="M232 278h197l-98 241h-6zM728 21v-21h-268v21q27 0 38.5 13.5t10.5 29t-8 33.5l-57 142h-227l-53 -133q-33 -85 50 -85v-21h-204v21q37 0 66 25t43 61l240 595h31l242 -600q32 -81 96 -81zM514 813v-69h-266v69h266z" />
    <glyph glyph-name="amacron" unicode="&#x101;" horiz-adv-x="538" 
d="M339 130v135q-81 -12 -131 -47.5t-50 -92.5q0 -37 19.5 -57t50.5 -20q37 0 74 29.5t37 52.5zM521 58q0 -10 -15 -25q-40 -42 -96 -42q-60 0 -70 73h-4q-77 -73 -160 -73q-55 0 -95 31.5t-40 91.5q0 31 11.5 56t34.5 43t48.5 31t63 23t68 16.5t72.5 12.5v58q0 97 -94 97
q-35 0 -56.5 -10.5t-21.5 -28.5q0 -7 4.5 -21t4.5 -26q0 -24 -14.5 -39.5t-41.5 -15.5q-25 0 -41 18.5t-16 43.5q0 52 54.5 84.5t134.5 32.5q90 0 145 -39t55 -127v-230q0 -48 27 -48q9 0 27 18q4 5 9.5 3t5.5 -8zM390 616v-69h-266v69h266z" />
    <glyph glyph-name="Abreve" unicode="&#x102;" horiz-adv-x="738" 
d="M232 278h197l-98 241h-6zM728 21v-21h-268v21q27 0 38.5 13.5t10.5 29t-8 33.5l-57 142h-227l-53 -133q-33 -85 50 -85v-21h-204v21q37 0 66 25t43 61l240 595h31l242 -600q32 -81 96 -81zM472 879h39q0 -60 -36.5 -101t-96.5 -41q-61 0 -97 41t-36 101h38q3 -31 27 -53
t68 -22q43 0 67 22t27 53z" />
    <glyph glyph-name="abreve" unicode="&#x103;" horiz-adv-x="538" 
d="M339 130v135q-81 -12 -131 -47.5t-50 -92.5q0 -37 19.5 -57t50.5 -20q37 0 74 29.5t37 52.5zM521 58q0 -10 -15 -25q-40 -42 -96 -42q-60 0 -70 73h-4q-77 -73 -160 -73q-55 0 -95 31.5t-40 91.5q0 31 11.5 56t34.5 43t48.5 31t63 23t68 16.5t72.5 12.5v58q0 97 -94 97
q-35 0 -56.5 -10.5t-21.5 -28.5q0 -7 4.5 -21t4.5 -26q0 -24 -14.5 -39.5t-41.5 -15.5q-25 0 -41 18.5t-16 43.5q0 52 54.5 84.5t134.5 32.5q90 0 145 -39t55 -127v-230q0 -48 27 -48q9 0 27 18q4 5 9.5 3t5.5 -8zM355 676h39q0 -60 -36.5 -101t-96.5 -41q-61 0 -97 41
t-36 101h38q3 -31 27 -53t68 -22q43 0 67 22t27 53z" />
    <glyph glyph-name="Aogonek" unicode="&#x104;" horiz-adv-x="738" 
d="M232 278h197l-98 241h-6zM590 -177q0 -9 -14 -19q-40 -29 -93 -29q-57 0 -87 25t-30 65q0 79 109 151q46 30 26 81l-57 142h-227l-53 -133q-33 -85 50 -85v-21h-204v21q37 0 66 25t43 61l240 595h31l242 -600q32 -81 96 -81v-21h-182q-34 0 -69.5 -40.5t-35.5 -92.5
q0 -26 16 -40.5t44 -14.5q32 0 68 19q11 4 16 1t5 -9z" />
    <glyph glyph-name="aogonek" unicode="&#x105;" horiz-adv-x="538" 
d="M534 -175q0 -7 -12 -18q-37 -32 -95 -32t-88 25.5t-30 65.5q0 70 82 128q-41 12 -51 70h-4q-81 -73 -160 -73q-55 0 -95 31.5t-40 91.5q0 31 11.5 56t34.5 43t48.5 31t63 23t68 16.5t72.5 12.5v58q0 46 -25 71.5t-69 25.5q-35 0 -56.5 -10.5t-21.5 -28.5q0 -7 4.5 -21
t4.5 -26q0 -24 -14.5 -39.5t-41.5 -15.5q-25 0 -41 18.5t-16 43.5q0 52 54.5 84.5t134.5 32.5q89 0 144.5 -39t55.5 -125v-232q0 -48 27 -48q12 0 29 20q4 5 9.5 3t5.5 -8q0 -15 -21.5 -34t-47.5 -35.5t-47.5 -47t-21.5 -66.5q0 -28 16.5 -46.5t44.5 -18.5q32 0 68 19
q8 4 14 2.5t6 -8.5zM339 130v135q-81 -12 -131 -47.5t-50 -92.5q0 -37 19.5 -57t50.5 -20q37 0 74 29.5t37 52.5z" />
    <glyph glyph-name="Cacute" unicode="&#x106;" horiz-adv-x="641" 
d="M602 0h-22q-5 10 -18 22t-23 17q-79 -54 -178 -54q-61 0 -114.5 21t-98 63t-70 113.5t-25.5 165.5q0 154 90 258.5t226 104.5q74 0 156 -46q9 2 20.5 12t16.5 19h22v-230h-33q-23 94 -68 150t-110 56q-82 0 -135 -84.5t-53 -239.5q0 -141 53 -232.5t142 -91.5
q121 0 193 179h29v-203zM526 847q0 -23 -28 -40l-123 -75h-32l101 125q21 26 45 26q17 0 27 -10.5t10 -25.5z" />
    <glyph glyph-name="cacute" unicode="&#x107;" horiz-adv-x="491" 
d="M465 91q0 -5 -3 -9q-29 -46 -82 -69t-99 -23q-105 0 -170 61.5t-65 185.5q0 112 67.5 182t176.5 70q75 0 120.5 -35.5t45.5 -80.5q0 -29 -17.5 -47.5t-42.5 -18.5q-31 0 -44 21t-8 48l5 33q0 44 -60 44q-59 0 -92.5 -56.5t-33.5 -153.5q0 -94 41.5 -151.5t105.5 -57.5
q72 0 134 62q8 8 14.5 5.5t6.5 -10.5zM428 649q0 -23 -28 -40l-123 -75h-32l101 125q21 26 45 26q17 0 27 -10.5t10 -25.5z" />
    <glyph glyph-name="Ccircumflex" unicode="&#x108;" horiz-adv-x="641" 
d="M602 0h-22q-5 10 -18 22t-23 17q-79 -54 -178 -54q-61 0 -114.5 21t-98 63t-70 113.5t-25.5 165.5q0 154 90 258.5t226 104.5q74 0 156 -46q9 2 20.5 12t16.5 19h22v-230h-33q-23 94 -68 150t-110 56q-82 0 -135 -84.5t-53 -239.5q0 -141 53 -232.5t142 -91.5
q121 0 193 179h29v-203zM236 758l127 117h11l127 -117q6 -6 6 -11t-5 -7.5t-10 -0.5l-122 60h-3l-122 -60q-5 -2 -10 0.5t-5 7.5t6 11z" />
    <glyph glyph-name="ccircumflex" unicode="&#x109;" horiz-adv-x="491" 
d="M465 91q0 -5 -3 -9q-29 -46 -82 -69t-99 -23q-105 0 -170 61.5t-65 185.5q0 112 67.5 182t176.5 70q75 0 120.5 -35.5t45.5 -80.5q0 -29 -17.5 -47.5t-42.5 -18.5q-31 0 -44 21t-8 48l5 33q0 44 -60 44q-59 0 -92.5 -56.5t-33.5 -153.5q0 -94 41.5 -151.5t105.5 -57.5
q72 0 134 62q8 8 14.5 5.5t6.5 -10.5zM152 553l127 117h11l127 -117q6 -6 6 -11t-5 -7.5t-10 -0.5l-122 60h-3l-122 -60q-5 -2 -10 0.5t-5 7.5t6 11z" />
    <glyph glyph-name="Cdotaccent" unicode="&#x10a;" horiz-adv-x="641" 
d="M602 0h-22q-5 10 -18 22t-23 17q-79 -54 -178 -54q-61 0 -114.5 21t-98 63t-70 113.5t-25.5 165.5q0 154 90 258.5t226 104.5q74 0 156 -46q9 2 20.5 12t16.5 19h22v-230h-33q-23 94 -68 150t-110 56q-82 0 -135 -84.5t-53 -239.5q0 -141 53 -232.5t142 -91.5
q121 0 193 179h29v-203zM433 809q0 -28 -19 -47t-46 -19q-28 0 -47 19t-19 47q0 27 19 46.5t47 19.5q27 0 46 -19.5t19 -46.5z" />
    <glyph glyph-name="cdotaccent" unicode="&#x10b;" horiz-adv-x="491" 
d="M465 91q0 -5 -3 -9q-29 -46 -82 -69t-99 -23q-105 0 -170 61.5t-65 185.5q0 112 67.5 182t176.5 70q75 0 120.5 -35.5t45.5 -80.5q0 -29 -17.5 -47.5t-42.5 -18.5q-31 0 -44 21t-8 48l5 33q0 44 -60 44q-59 0 -92.5 -56.5t-33.5 -153.5q0 -94 41.5 -151.5t105.5 -57.5
q72 0 134 62q8 8 14.5 5.5t6.5 -10.5zM354 600q0 -28 -19 -47t-46 -19q-28 0 -47 19t-19 47q0 27 19 46.5t47 19.5q27 0 46 -19.5t19 -46.5z" />
    <glyph glyph-name="Ccaron" unicode="&#x10c;" horiz-adv-x="641" 
d="M602 0h-22q-5 10 -18 22t-23 17q-79 -54 -178 -54q-61 0 -114.5 21t-98 63t-70 113.5t-25.5 165.5q0 154 90 258.5t226 104.5q74 0 156 -46q9 2 20.5 12t16.5 19h22v-230h-33q-23 94 -68 150t-110 56q-82 0 -135 -84.5t-53 -239.5q0 -141 53 -232.5t142 -91.5
q121 0 193 179h29v-203zM502 853l-127 -117h-11l-127 117q-6 6 -6 11t5 7.5t10 0.5l122 -60h3l122 60q5 2 10 -0.5t5 -7.5t-6 -11z" />
    <glyph glyph-name="ccaron" unicode="&#x10d;" horiz-adv-x="491" 
d="M465 91q0 -5 -3 -9q-29 -46 -82 -69t-99 -23q-105 0 -170 61.5t-65 185.5q0 112 67.5 182t176.5 70q75 0 120.5 -35.5t45.5 -80.5q0 -29 -17.5 -47.5t-42.5 -18.5q-31 0 -44 21t-8 48l5 33q0 44 -60 44q-59 0 -92.5 -56.5t-33.5 -153.5q0 -94 41.5 -151.5t105.5 -57.5
q72 0 134 62q8 8 14.5 5.5t6.5 -10.5zM418 651l-127 -117h-11l-127 117q-6 6 -6 11t5 7.5t10 0.5l122 -60h3l122 60q5 2 10 -0.5t5 -7.5t-6 -11z" />
    <glyph glyph-name="Dcaron" unicode="&#x10e;" horiz-adv-x="727" 
d="M542 346q0 150 -59.5 230.5t-161.5 80.5h-22q-33 0 -49 -13.5t-16 -46.5v-497q0 -61 65 -61h25q117 0 167.5 79t50.5 228zM674 360q0 -177 -93.5 -268.5t-257.5 -91.5h-292v21q36 0 58.5 19.5t22.5 51.5v511q0 32 -22.5 52t-58.5 20v21h288q168 0 261.5 -83t93.5 -253z
M441 854l-127 -117h-11l-127 117q-6 6 -6 11t5 7.5t10 0.5l122 -60h3l122 60q5 2 10 -0.5t5 -7.5t-6 -11z" />
    <glyph glyph-name="dcaron" unicode="&#x10f;" horiz-adv-x="665" 
d="M388 240q0 205 -111 205q-41 0 -67.5 -30.5t-36.5 -75t-10 -103.5q0 -90 28 -144.5t80 -54.5q57 0 87 56t30 147zM556 21v-21h-142q-11 10 -17.5 27.5t-7.5 30.5l-1 13h-3q-53 -80 -149 -80q-84 0 -137 62t-53 175q0 118 58.5 189.5t150.5 71.5q43 0 78 -17.5t52 -41.5h3
v213q0 26 -14.5 42t-39.5 16v22h167v-643q0 -27 15 -43t40 -16zM665 654q0 -96 -92 -141q-10 -4 -14 1.5t5 12.5q51 36 51 73q0 20 -18 20q-22 0 -38 15t-16 41q0 24 17 41.5t41 17.5q31 0 47.5 -23.5t16.5 -57.5z" />
    <glyph glyph-name="Dmacron" unicode="&#x110;" horiz-adv-x="727" 
d="M542 346q0 150 -59.5 230.5t-161.5 80.5h-22q-33 0 -49 -13.5t-16 -46.5v-230h156v-39h-156v-228q0 -61 65 -61h25q117 0 167.5 79t50.5 228zM674 360q0 -177 -93.5 -268.5t-257.5 -91.5h-292v21q36 0 58.5 19.5t22.5 51.5v236h-56v39h56v236q0 32 -22.5 52t-58.5 20v21
h288q168 0 261.5 -83t93.5 -253z" />
    <glyph glyph-name="dmacron" unicode="&#x111;" horiz-adv-x="588" 
d="M388 240q0 205 -111 205q-41 0 -67.5 -30.5t-36.5 -75t-10 -103.5q0 -90 28 -144.5t80 -54.5q57 0 87 56t30 147zM556 21v-21h-142q-11 10 -17.5 27.5t-7.5 30.5l-1 13h-3q-53 -80 -149 -80q-84 0 -137 62t-53 175q0 118 58.5 189.5t150.5 71.5q43 0 78 -17.5t52 -41.5h3
v123h-170v39h170v51q0 25 -16 41.5t-38 16.5v22h167v-131h55v-39h-55v-473q0 -26 16 -42.5t39 -16.5z" />
    <glyph glyph-name="Emacron" unicode="&#x112;" horiz-adv-x="585" 
d="M549 190v-190h-518v21q36 0 58.5 19.5t22.5 51.5v511q0 32 -22.5 52t-58.5 20v21h495v-182h-23q-33 90 -62.5 116t-98.5 26h-11q-35 0 -52.5 -2.5t-30.5 -15.5t-13 -39v-216h78q35 0 62.5 26.5t27.5 69.5h23v-230h-23q0 43 -27.5 69.5t-62.5 26.5h-78v-249
q0 -31 17.5 -44.5t54.5 -13.5h21q33 0 55.5 2t41.5 10t30 16t24.5 29t22 39t25.5 56h22zM424 817v-69h-266v69h266z" />
    <glyph glyph-name="emacron" unicode="&#x113;" horiz-adv-x="526" 
d="M166 302h200q0 76 -20 112t-68 36q-43 0 -74.5 -40t-37.5 -108zM485 267h-321q0 -47 8 -87t25 -73.5t47.5 -52.5t71.5 -19q78 0 146 66q5 5 11 5q10 0 10 -10q0 -4 -3 -9q-24 -38 -73.5 -67t-118.5 -29q-101 0 -171.5 64.5t-70.5 184.5q0 103 67 176.5t170 73.5
q91 0 146.5 -58.5t55.5 -164.5zM414 616v-69h-266v69h266z" />
    <glyph glyph-name="Ebreve" unicode="&#x114;" horiz-adv-x="585" 
d="M549 190v-190h-518v21q36 0 58.5 19.5t22.5 51.5v511q0 32 -22.5 52t-58.5 20v21h495v-182h-23q-33 90 -62.5 116t-98.5 26h-11q-35 0 -52.5 -2.5t-30.5 -15.5t-13 -39v-216h78q35 0 62.5 26.5t27.5 69.5h23v-230h-23q0 43 -27.5 69.5t-62.5 26.5h-78v-249
q0 -31 17.5 -44.5t54.5 -13.5h21q33 0 55.5 2t41.5 10t30 16t24.5 29t22 39t25.5 56h22zM391 879h39q0 -60 -36.5 -101t-96.5 -41q-61 0 -97 41t-36 101h38q3 -31 27 -53t68 -22q43 0 67 22t27 53z" />
    <glyph glyph-name="ebreve" unicode="&#x115;" horiz-adv-x="526" 
d="M166 302h200q0 76 -20 112t-68 36q-43 0 -74.5 -40t-37.5 -108zM485 267h-321q0 -47 8 -87t25 -73.5t47.5 -52.5t71.5 -19q78 0 146 66q5 5 11 5q10 0 10 -10q0 -4 -3 -9q-24 -38 -73.5 -67t-118.5 -29q-101 0 -171.5 64.5t-70.5 184.5q0 103 67 176.5t170 73.5
q91 0 146.5 -58.5t55.5 -164.5zM374 676h39q0 -60 -36.5 -101t-96.5 -41q-61 0 -97 41t-36 101h38q3 -31 27 -53t68 -22q43 0 67 22t27 53z" />
    <glyph glyph-name="Edotaccent" unicode="&#x116;" horiz-adv-x="585" 
d="M549 190v-190h-518v21q36 0 58.5 19.5t22.5 51.5v511q0 32 -22.5 52t-58.5 20v21h495v-182h-23q-33 90 -62.5 116t-98.5 26h-11q-35 0 -52.5 -2.5t-30.5 -15.5t-13 -39v-216h78q35 0 62.5 26.5t27.5 69.5h23v-230h-23q0 43 -27.5 69.5t-62.5 26.5h-78v-249
q0 -31 17.5 -44.5t54.5 -13.5h21q33 0 55.5 2t41.5 10t30 16t24.5 29t22 39t25.5 56h22zM365 807q0 -28 -19 -47t-46 -19q-28 0 -47 19t-19 47q0 27 19 46.5t47 19.5q27 0 46 -19.5t19 -46.5z" />
    <glyph glyph-name="edotaccent" unicode="&#x117;" horiz-adv-x="526" 
d="M166 302h200q0 76 -20 112t-68 36q-43 0 -74.5 -40t-37.5 -108zM485 267h-321q0 -47 8 -87t25 -73.5t47.5 -52.5t71.5 -19q78 0 146 66q5 5 11 5q10 0 10 -10q0 -4 -3 -9q-24 -38 -73.5 -67t-118.5 -29q-101 0 -171.5 64.5t-70.5 184.5q0 103 67 176.5t170 73.5
q91 0 146.5 -58.5t55.5 -164.5zM347 600q0 -28 -19 -47t-46 -19q-28 0 -47 19t-19 47q0 27 19 46.5t47 19.5q27 0 46 -19.5t19 -46.5z" />
    <glyph glyph-name="Eogonek" unicode="&#x118;" horiz-adv-x="585" 
d="M434 -177q0 -9 -14 -19q-40 -29 -93 -29q-57 0 -87 25t-30 65q0 45 29 80t62 55h-270v21q36 0 58.5 19.5t22.5 51.5v511q0 32 -22.5 52t-58.5 20v21h495v-182h-23q-33 90 -63 116t-99 26q-30 0 -45 -1t-31.5 -6.5t-23 -17.5t-6.5 -32v-216h78q35 0 62.5 26.5t27.5 69.5
h23v-230h-23q0 43 -27.5 69.5t-62.5 26.5h-78v-249q0 -33 18.5 -45t60.5 -12q44 0 71 4t47.5 11t36 27.5t27 42t31.5 66.5h22v-190h-185q-79 -67 -79 -134q0 -26 16 -40t44 -14q32 0 68 19q11 4 16 1t5 -9z" />
    <glyph glyph-name="eogonek" unicode="&#x119;" horiz-adv-x="526" 
d="M166 302h200q0 76 -20 112t-68 36q-43 0 -74.5 -40t-37.5 -108zM404 -177q0 -9 -14 -19q-40 -29 -93 -29q-57 0 -87 25t-30 65q0 72 81 128q-92 8 -153.5 71.5t-61.5 175.5q0 103 67 176.5t170 73.5q91 0 146.5 -58.5t55.5 -164.5h-321q0 -47 8 -87t25 -73.5t47.5 -52.5
t71.5 -19q78 0 146 66q5 5 11 5q10 0 10 -10q0 -4 -3 -9q-20 -32 -59.5 -58.5t-93.5 -34.5q-72 -63 -72 -128q0 -26 16 -40t44 -14q32 0 68 19q11 4 16 1t5 -9z" />
    <glyph glyph-name="Ecaron" unicode="&#x11a;" horiz-adv-x="585" 
d="M549 190v-190h-518v21q36 0 58.5 19.5t22.5 51.5v511q0 32 -22.5 52t-58.5 20v21h495v-182h-23q-33 90 -62.5 116t-98.5 26h-11q-35 0 -52.5 -2.5t-30.5 -15.5t-13 -39v-216h78q35 0 62.5 26.5t27.5 69.5h23v-230h-23q0 43 -27.5 69.5t-62.5 26.5h-78v-249
q0 -31 17.5 -44.5t54.5 -13.5h21q33 0 55.5 2t41.5 10t30 16t24.5 29t22 39t25.5 56h22zM431 854l-127 -117h-11l-127 117q-6 6 -6 11t5 7.5t10 0.5l122 -60h3l122 60q5 2 10 -0.5t5 -7.5t-6 -11z" />
    <glyph glyph-name="ecaron" unicode="&#x11b;" horiz-adv-x="526" 
d="M166 302h200q0 76 -20 112t-68 36q-43 0 -74.5 -40t-37.5 -108zM485 267h-321q0 -47 8 -87t25 -73.5t47.5 -52.5t71.5 -19q78 0 146 66q5 5 11 5q10 0 10 -10q0 -4 -3 -9q-24 -38 -73.5 -67t-118.5 -29q-101 0 -171.5 64.5t-70.5 184.5q0 103 67 176.5t170 73.5
q91 0 146.5 -58.5t55.5 -164.5zM413 651l-127 -117h-11l-127 117q-6 6 -6 11t5 7.5t10 0.5l122 -60h3l122 60q5 2 10 -0.5t5 -7.5t-6 -11z" />
    <glyph glyph-name="Gcircumflex" unicode="&#x11c;" horiz-adv-x="743" 
d="M733 299q-40 0 -65 -21.5t-25 -55.5v-226h-21q-10 31 -41 48q-100 -59 -203 -59q-150 0 -237.5 93t-87.5 263q0 160 97 265t239 105q91 0 175 -48q8 2 16.5 10t13.5 15l4 8h22v-228h-31q-35 95 -81 149.5t-113 54.5q-97 0 -153.5 -92t-56.5 -231q0 -158 55.5 -241.5
t147.5 -83.5q37 0 77 15.5t56 41.5v139q0 34 -25 56.5t-66 22.5v22h303v-22zM256 758l127 117h11l127 -117q6 -6 6 -11t-5 -7.5t-10 -0.5l-122 60h-3l-122 -60q-5 -2 -10 0.5t-5 7.5t6 11z" />
    <glyph glyph-name="gcircumflex" unicode="&#x11d;" horiz-adv-x="524" 
d="M410 -91q0 80 -84 80h-132q-31 0 -49.5 -25t-18.5 -59q0 -50 35 -79t101 -29q72 0 110 31.5t38 80.5zM358 325q0 64 -24.5 98.5t-67.5 34.5q-46 0 -71 -36t-25 -97q0 -62 25.5 -96.5t69.5 -34.5q45 0 69 34t24 97zM502 474v-38h-30q-32 0 -61 8l-1 -1v-2q59 -46 59 -118
q0 -74 -56.5 -118t-147.5 -44q-37 0 -77 6q-26 -1 -44 -19t-18 -40q0 -37 48 -37h150q84 0 130.5 -37t46.5 -101q0 -72 -62 -120t-180 -48q-108 0 -165.5 35t-57.5 95q0 35 20.5 62.5t50.5 41.5v2q-45 27 -45 75q0 34 24 61.5t58 43.5v3q-85 42 -85 137q0 70 58.5 119
t147.5 49q42 0 87 -15h150zM129 553l127 117h11l127 -117q6 -6 6 -11t-5 -7.5t-10 -0.5l-122 60h-3l-122 -60q-5 -2 -10 0.5t-5 7.5t6 11z" />
    <glyph glyph-name="Gbreve" unicode="&#x11e;" horiz-adv-x="743" 
d="M733 299q-40 0 -65 -21.5t-25 -55.5v-226h-21q-10 31 -41 48q-100 -59 -203 -59q-150 0 -237.5 93t-87.5 263q0 160 97 265t239 105q91 0 175 -48q8 2 16.5 10t13.5 15l4 8h22v-228h-31q-35 95 -81 149.5t-113 54.5q-97 0 -153.5 -92t-56.5 -231q0 -158 55.5 -241.5
t147.5 -83.5q37 0 77 15.5t56 41.5v139q0 34 -25 56.5t-66 22.5v22h303v-22zM481 878h39q0 -60 -36.5 -101t-96.5 -41q-61 0 -97 41t-36 101h38q3 -31 27 -53t68 -22q43 0 67 22t27 53z" />
    <glyph glyph-name="gbreve" unicode="&#x11f;" horiz-adv-x="524" 
d="M410 -91q0 80 -84 80h-132q-31 0 -49.5 -25t-18.5 -59q0 -50 35 -79t101 -29q72 0 110 31.5t38 80.5zM358 325q0 64 -24.5 98.5t-67.5 34.5q-46 0 -71 -36t-25 -97q0 -62 25.5 -96.5t69.5 -34.5q45 0 69 34t24 97zM502 474v-38h-30q-32 0 -61 8l-1 -1v-2q59 -46 59 -118
q0 -74 -56.5 -118t-147.5 -44q-37 0 -77 6q-26 -1 -44 -19t-18 -40q0 -37 48 -37h150q84 0 130.5 -37t46.5 -101q0 -72 -62 -120t-180 -48q-108 0 -165.5 35t-57.5 95q0 35 20.5 62.5t50.5 41.5v2q-45 27 -45 75q0 34 24 61.5t58 43.5v3q-85 42 -85 137q0 70 58.5 119
t147.5 49q42 0 87 -15h150zM358 676h39q0 -60 -36.5 -101t-96.5 -41q-61 0 -97 41t-36 101h38q3 -31 27 -53t68 -22q43 0 67 22t27 53z" />
    <glyph glyph-name="Gdotaccent" unicode="&#x120;" horiz-adv-x="743" 
d="M733 299q-40 0 -65 -21.5t-25 -55.5v-226h-21q-10 31 -41 48q-100 -59 -203 -59q-150 0 -237.5 93t-87.5 263q0 160 97 265t239 105q91 0 175 -48q8 2 16.5 10t13.5 15l4 8h22v-228h-31q-35 95 -81 149.5t-113 54.5q-97 0 -153.5 -92t-56.5 -231q0 -158 55.5 -241.5
t147.5 -83.5q37 0 77 15.5t56 41.5v139q0 34 -25 56.5t-66 22.5v22h303v-22zM447 811q0 -28 -19 -47t-46 -19q-28 0 -47 19t-19 47q0 27 19 46.5t47 19.5q27 0 46 -19.5t19 -46.5z" />
    <glyph glyph-name="gdotaccent" unicode="&#x121;" horiz-adv-x="524" 
d="M410 -91q0 80 -84 80h-132q-31 0 -49.5 -25t-18.5 -59q0 -50 35 -79t101 -29q72 0 110 31.5t38 80.5zM358 325q0 64 -24.5 98.5t-67.5 34.5q-46 0 -71 -36t-25 -97q0 -62 25.5 -96.5t69.5 -34.5q45 0 69 34t24 97zM512 515q0 -20 -11.5 -33t-30.5 -13q-15 0 -25 8.5
t-10 22.5q0 3 2 11t2 12t-5 5q-13 0 -38.5 -16t-39.5 -40q53 -20 83 -60t30 -89q0 -74 -56.5 -118t-147.5 -44q-7 0 -28 1.5t-29 1.5q-36 0 -59 -13.5t-23 -41.5q0 -38 48 -38h150q84 0 130.5 -37t46.5 -101q0 -72 -62 -120t-180 -48q-109 0 -166 34t-57 96q0 70 71 104v2
q-45 27 -45 75q0 67 82 105v3q-85 42 -85 137q0 70 58.5 119t147.5 49q31 0 63 -8q20 39 52.5 63.5t67.5 24.5q33 0 48.5 -16t15.5 -38zM331 600q0 -28 -19 -47t-46 -19q-28 0 -47 19t-19 47q0 27 19 46.5t47 19.5q27 0 46 -19.5t19 -46.5z" />
    <glyph glyph-name="Gcommaaccent" unicode="&#x122;" horiz-adv-x="743" 
d="M733 299q-40 0 -65 -21.5t-25 -55.5v-226h-21q-10 31 -41 48q-100 -59 -203 -59q-150 0 -237.5 93t-87.5 263q0 160 97 265t239 105q91 0 175 -48q8 2 16.5 10t13.5 15l4 8h22v-228h-31q-35 95 -81 149.5t-113 54.5q-97 0 -153.5 -92t-56.5 -231q0 -158 55.5 -241.5
t147.5 -83.5q37 0 77 15.5t56 41.5v139q0 34 -25 56.5t-66 22.5v22h303v-22zM438 -132q0 -106 -101 -154q-11 -5 -15 1.5t6 13.5q23 16 39.5 38.5t16.5 42.5q0 21 -20 21q-24 0 -41.5 17t-17.5 44q0 25 18.5 44.5t44.5 19.5q32 0 51 -25.5t19 -62.5z" />
    <glyph glyph-name="gcommaaccent" unicode="&#x123;" horiz-adv-x="524" 
d="M191 621q0 106 101 154q11 5 15 -1.5t-6 -13.5q-23 -16 -39.5 -38.5t-16.5 -42.5q0 -21 20 -21q24 0 41.5 -17t17.5 -44q0 -25 -18.5 -44.5t-44.5 -19.5q-32 0 -51 25.5t-19 62.5zM410 -91q0 80 -84 80h-132q-31 0 -49.5 -25t-18.5 -59q0 -50 35 -79t101 -29
q72 0 110 31.5t38 80.5zM358 325q0 64 -24.5 98.5t-67.5 34.5q-46 0 -71 -36t-25 -97q0 -62 25.5 -96.5t69.5 -34.5q45 0 69 34t24 97zM512 515q0 -20 -11.5 -33t-30.5 -13q-15 0 -25 8.5t-10 22.5q0 3 2 11t2 12t-5 5q-13 0 -38.5 -16t-39.5 -40q53 -20 83 -60t30 -89
q0 -74 -56.5 -118t-147.5 -44q-7 0 -28 1.5t-29 1.5q-36 0 -59 -13.5t-23 -41.5q0 -38 48 -38h150q84 0 130.5 -37t46.5 -101q0 -72 -62 -120t-180 -48q-109 0 -166 34t-57 96q0 70 71 104v2q-45 27 -45 75q0 67 82 105v3q-85 42 -85 137q0 70 58.5 119t147.5 49q31 0 63 -8
q20 39 52.5 63.5t67.5 24.5q33 0 48.5 -16t15.5 -38z" />
    <glyph glyph-name="Imacron" unicode="&#x12a;" horiz-adv-x="346" 
d="M315 21v-21h-284v21q37 0 59 19.5t22 51.5v511q0 32 -22 51.5t-59 19.5v22h284v-22q-36 0 -58.5 -19.5t-22.5 -51.5v-511q0 -32 22.5 -51.5t58.5 -19.5zM302 817v-69h-266v69h266z" />
    <glyph glyph-name="imacron" unicode="&#x12b;" horiz-adv-x="291" 
d="M259 21v-21h-222v21q25 0 39.5 16t14.5 43v319q0 26 -14.5 42.5t-39.5 16.5v21h167v-399q0 -26 15 -42.5t40 -16.5zM267 606v-69h-266v69h266z" />
    <glyph glyph-name="Iogonek" unicode="&#x12e;" horiz-adv-x="346" 
d="M275 -177q0 -8 -13 -18q-45 -30 -93 -30q-58 0 -88 25t-30 65q0 73 91 135h-111v21q37 0 59 19.5t22 51.5v511q0 32 -22 51.5t-59 19.5v22h284v-22q-36 0 -58.5 -19.5t-22.5 -51.5v-511q0 -32 22.5 -51.5t58.5 -19.5v-21h-110q-78 -64 -78 -126q0 -28 16.5 -45.5
t44.5 -17.5q11 0 21.5 2t15.5 4t15.5 7t13.5 6q10 3 15.5 1t5.5 -8z" />
    <glyph glyph-name="iogonek" unicode="&#x12f;" horiz-adv-x="291" 
d="M263 -177q0 -8 -13 -18q-45 -30 -93 -30q-58 0 -88 25t-30 65q0 73 91 135h-93v21q25 0 39.5 16t14.5 43v319q0 26 -14.5 42.5t-39.5 16.5v21h167v-399q0 -26 15 -42.5t40 -16.5v-21h-66q-78 -64 -78 -126q0 -28 16.5 -45.5t44.5 -17.5q11 0 21.5 2t15.5 4t15.5 7t13.5 6
q10 3 15.5 1t5.5 -8zM209 635q0 -28 -20.5 -47.5t-48.5 -19.5q-27 0 -47.5 20t-20.5 47q0 28 20.5 48t47.5 20q28 0 48.5 -20t20.5 -48z" />
    <glyph glyph-name="Idotaccent" unicode="&#x130;" horiz-adv-x="346" 
d="M315 21v-21h-284v21q37 0 59 19.5t22 51.5v511q0 32 -22 51.5t-59 19.5v22h284v-22q-36 0 -58.5 -19.5t-22.5 -51.5v-511q0 -32 22.5 -51.5t58.5 -19.5zM235 811q0 -28 -19 -47t-46 -19q-28 0 -47 19t-19 47q0 27 19 46.5t47 19.5q27 0 46 -19.5t19 -46.5z" />
    <glyph glyph-name="dotlessi" unicode="&#x131;" horiz-adv-x="291" 
d="M259 21v-21h-222v21q25 0 39.5 16t14.5 43v319q0 26 -14.5 42.5t-39.5 16.5v21h167v-399q0 -26 15 -42.5t40 -16.5z" />
    <glyph glyph-name="Jcircumflex" unicode="&#x134;" horiz-adv-x="445" 
d="M419 696v-21q-37 0 -59.5 -20t-22.5 -52v-400q0 -100 -50 -159t-141 -59q-58 0 -95.5 27.5t-37.5 74.5q0 28 17.5 45.5t44.5 17.5q24 0 38.5 -14.5t14.5 -39.5q0 -11 -3.5 -26.5t-3.5 -22.5q0 -29 31 -29q30 0 46.5 25.5t16.5 71.5v488q0 32 -22.5 52t-58.5 20v21h285z
M146 758l127 117h11l127 -117q6 -6 6 -11t-5 -7.5t-10 -0.5l-122 60h-3l-122 -60q-5 -2 -10 0.5t-5 7.5t6 11z" />
    <glyph glyph-name="jcircumflex" unicode="&#x135;" horiz-adv-x="286" 
d="M204 479v-476q0 -120 -47 -179t-126 -59q-50 0 -83 22.5t-33 62.5q0 23 15.5 38.5t37.5 15.5q21 1 35 -13.5t10 -39.5q0 -5 -3 -15t-3 -15q0 -22 29 -22q28 0 41.5 24t13.5 82v494q0 26 -14.5 42.5t-39.5 16.5v21h167zM3 553l127 117h11l127 -117q6 -6 6 -11t-5 -7.5
t-10 -0.5l-122 60h-3l-122 -60q-5 -2 -10 0.5t-5 7.5t6 11z" />
    <glyph glyph-name="Kcommaaccent" unicode="&#x136;" horiz-adv-x="725" 
d="M710 21v-21h-188l-220 308q-20 28 -30 33.5t-37 4.5v-259q0 -29 20.5 -47.5t54.5 -18.5v-21h-279v21q37 0 59 19.5t22 51.5v511q0 32 -22 52t-59 20v21h279v-21q-34 0 -54.5 -19t-20.5 -48v-223q44 0 63 7.5t41 35.5l130 162q22 27 29.5 45t-1 29t-36.5 11v21h219v-22
q-34 0 -62 -13t-45 -29t-50 -54l-150 -169v-3l200 -268q3 -4 16 -22t18 -23.5t17 -20t19.5 -20.5t19 -14.5t23 -12t24.5 -4.5zM448 -132q0 -106 -101 -154q-11 -5 -15 1.5t6 13.5q23 16 39.5 38.5t16.5 42.5q0 21 -20 21q-24 0 -41.5 17t-17.5 44q0 25 18.5 44.5t44.5 19.5
q32 0 51 -25.5t19 -62.5z" />
    <glyph glyph-name="kcommaaccent" unicode="&#x137;" horiz-adv-x="576" 
d="M566 22v-22h-168l-125 197q-19 30 -31 37t-38 7v-161q0 -27 14.5 -42.5t39.5 -15.5v-22h-221v22q25 0 39.5 15.5t14.5 42.5v563q0 26 -14.5 42t-39.5 16v22h167v-444q36 -1 53 7.5t44 39.5l70 80q20 20 16.5 36t-33.5 16v21h182v-21q-28 -1 -51.5 -11.5t-58.5 -47.5
l-96 -100v-4l164 -236q15 -22 31 -29.5t41 -7.5zM371 -132q0 -106 -101 -154q-11 -5 -15 1.5t6 13.5q23 16 39.5 38.5t16.5 42.5q0 21 -20 21q-24 0 -41.5 17t-17.5 44q0 25 18.5 44.5t44.5 19.5q32 0 51 -25.5t19 -62.5z" />
    <glyph glyph-name="Lacute" unicode="&#x139;" horiz-adv-x="543" 
d="M523 190v-190h-492v21q37 0 59.5 20t22.5 52v510q0 32 -22.5 52t-59.5 20v21h279v-21q-34 0 -55 -19t-21 -48v-512q0 -57 64 -57h36q70 0 98.5 28.5t67.5 122.5h23zM337 851q0 -23 -28 -40l-123 -75h-32l101 125q21 26 45 26q17 0 27 -10.5t10 -25.5z" />
    <glyph glyph-name="lacute" unicode="&#x13a;" horiz-adv-x="296" 
d="M259 22v-22h-222v22q25 0 39.5 16t14.5 42v563q0 26 -14.5 42t-39.5 16v22h167v-643q0 -26 15 -42t40 -16zM279 857q0 -23 -28 -40l-123 -75h-32l101 125q21 26 45 26q17 0 27 -10.5t10 -25.5z" />
    <glyph glyph-name="Lcommaaccent" unicode="&#x13b;" horiz-adv-x="543" 
d="M523 190v-190h-492v21q37 0 59.5 20t22.5 52v510q0 32 -22.5 52t-59.5 20v21h279v-21q-34 0 -55 -19t-21 -48v-512q0 -57 64 -57h36q70 0 98.5 28.5t67.5 122.5h23zM359 -132q0 -106 -101 -154q-11 -5 -15 1.5t6 13.5q23 16 39.5 38.5t16.5 42.5q0 21 -20 21
q-24 0 -41.5 17t-17.5 44q0 25 18.5 44.5t44.5 19.5q32 0 51 -25.5t19 -62.5z" />
    <glyph glyph-name="lcommaaccent" unicode="&#x13c;" horiz-adv-x="296" 
d="M259 22v-22h-222v22q25 0 39.5 16t14.5 42v563q0 26 -14.5 42t-39.5 16v22h167v-643q0 -26 15 -42t40 -16zM224 -132q0 -106 -101 -154q-11 -5 -15 1.5t6 13.5q23 16 39.5 38.5t16.5 42.5q0 21 -20 21q-24 0 -41.5 17t-17.5 44q0 25 18.5 44.5t44.5 19.5q32 0 51 -25.5
t19 -62.5z" />
    <glyph glyph-name="Lcaron" unicode="&#x13d;" horiz-adv-x="543" 
d="M523 190v-190h-492v21q37 0 59.5 20t22.5 52v510q0 32 -22.5 52t-59.5 20v21h279v-21q-34 0 -55 -19t-21 -48v-512q0 -57 64 -57h36q70 0 98.5 28.5t67.5 122.5h23zM469 629q0 -96 -92 -141q-10 -4 -14 1.5t5 12.5q51 36 51 73q0 20 -18 20q-22 0 -38 15t-16 41
q0 24 17 41.5t41 17.5q31 0 47.5 -23.5t16.5 -57.5z" />
    <glyph glyph-name="lcaron" unicode="&#x13e;" horiz-adv-x="368" 
d="M259 22v-22h-222v22q25 0 39.5 16t14.5 42v563q0 26 -14.5 42t-39.5 16v22h167v-643q0 -26 15 -42t40 -16zM366 651q0 -96 -92 -141q-10 -4 -14 1.5t5 12.5q51 36 51 73q0 20 -18 20q-22 0 -38 15t-16 41q0 24 17 41.5t41 17.5q31 0 47.5 -23.5t16.5 -57.5z" />
    <glyph glyph-name="Ldot" unicode="&#x13f;" horiz-adv-x="543" 
d="M523 190v-190h-492v21q37 0 59.5 20t22.5 52v510q0 32 -22.5 52t-59.5 20v21h279v-21q-34 0 -55 -19t-21 -48v-512q0 -57 64 -57h36q70 0 98.5 28.5t67.5 122.5h23zM384 392q0 -23 -16 -38.5t-39 -15.5q-22 0 -38 16t-16 38q0 23 15.5 39.5t38.5 16.5t39 -16.5t16 -39.5z
" />
    <glyph glyph-name="ldot" unicode="&#x140;" horiz-adv-x="381" 
d="M259 22v-22h-222v22q25 0 39.5 16t14.5 42v563q0 26 -14.5 42t-39.5 16v22h167v-643q0 -26 15 -42t40 -16zM349 391q0 -23 -16 -38.5t-39 -15.5q-22 0 -38 16t-16 38q0 23 15.5 39.5t38.5 16.5t39 -16.5t16 -39.5z" />
    <glyph glyph-name="Lslash" unicode="&#x141;" horiz-adv-x="543" 
d="M523 190v-190h-491v21q36 0 58.5 20t22.5 52v193q-27 -14 -60 -35l-22 38l82 47v267q0 32 -22.5 52t-58.5 20v21h279v-21q-34 0 -55 -19t-21 -48v-203h1l109 64l22 -38l-132 -75v-260q0 -57 73 -57h26q70 0 98.5 28.5t68.5 122.5h22z" />
    <glyph glyph-name="lslash" unicode="&#x142;" horiz-adv-x="296" 
d="M263 446l21 -37l-80 -45v-284q0 -26 15 -42t40 -16v-22h-222v22q25 0 39.5 16t14.5 42v220h-1l-46 -27l-21 37l68 39v294q0 26 -14.5 42t-39.5 16v22h167v-310z" />
    <glyph glyph-name="Nacute" unicode="&#x143;" horiz-adv-x="765" 
d="M734 696v-22q-41 0 -64.5 -19.5t-23.5 -55.5v-599h-37l-446 561h-4v-465q0 -35 24 -55t64 -20v-21h-216v21q41 0 65 19.5t24 55.5v507q0 32 -22.5 52t-59.5 20v21h170l395 -504h4v407q0 35 -24.5 55t-63.5 20v22h215zM549 852q0 -23 -28 -40l-123 -75h-32l101 125
q21 26 45 26q17 0 27 -10.5t10 -25.5z" />
    <glyph glyph-name="nacute" unicode="&#x144;" horiz-adv-x="590" 
d="M558 22v-22h-217v22q22 0 36 15t14 38v262q0 41 -22 67.5t-64 26.5q-43 0 -72 -32t-29 -74v-250q0 -24 13.5 -38.5t36.5 -14.5v-22h-216v22q24 0 38.5 16t14.5 42v319q0 27 -14.5 43t-39.5 16v21h167v-66h3q57 76 151 76q33 0 64 -12t56.5 -48t25.5 -90v-259
q0 -26 14.5 -42t39.5 -16zM439 649q0 -23 -28 -40l-123 -75h-32l101 125q21 26 45 26q17 0 27 -10.5t10 -25.5z" />
    <glyph glyph-name="Ncommaaccent" unicode="&#x145;" horiz-adv-x="765" 
d="M734 696v-22q-41 0 -64.5 -19.5t-23.5 -55.5v-599h-37l-446 561h-4v-465q0 -35 24 -55t64 -20v-21h-216v21q41 0 65 19.5t24 55.5v507q0 32 -22.5 52t-59.5 20v21h170l395 -504h4v407q0 35 -24.5 55t-63.5 20v22h215zM443 -132q0 -106 -101 -154q-11 -5 -15 1.5t6 13.5
q23 16 39.5 38.5t16.5 42.5q0 21 -20 21q-24 0 -41.5 17t-17.5 44q0 25 18.5 44.5t44.5 19.5q32 0 51 -25.5t19 -62.5z" />
    <glyph glyph-name="ncommaaccent" unicode="&#x146;" horiz-adv-x="590" 
d="M558 22v-22h-217v22q22 0 36 15t14 38v262q0 41 -22 67.5t-64 26.5q-43 0 -72 -32t-29 -74v-250q0 -24 13.5 -38.5t36.5 -14.5v-22h-216v22q24 0 38.5 16t14.5 42v319q0 27 -14.5 43t-39.5 16v21h167v-66h3q57 76 151 76q33 0 64 -12t56.5 -48t25.5 -90v-259
q0 -26 14.5 -42t39.5 -16zM367 -132q0 -106 -101 -154q-11 -5 -15 1.5t6 13.5q23 16 39.5 38.5t16.5 42.5q0 21 -20 21q-24 0 -41.5 17t-17.5 44q0 25 18.5 44.5t44.5 19.5q32 0 51 -25.5t19 -62.5z" />
    <glyph glyph-name="Ncaron" unicode="&#x147;" horiz-adv-x="765" 
d="M734 696v-22q-41 0 -64.5 -19.5t-23.5 -55.5v-599h-37l-446 561h-4v-465q0 -35 24 -55t64 -20v-21h-216v21q41 0 65 19.5t24 55.5v507q0 32 -22.5 52t-59.5 20v21h170l395 -504h4v407q0 35 -24.5 55t-63.5 20v22h215zM534 853l-127 -117h-11l-127 117q-6 6 -6 11t5 7.5
t10 0.5l122 -60h3l122 60q5 2 10 -0.5t5 -7.5t-6 -11z" />
    <glyph glyph-name="ncaron" unicode="&#x148;" horiz-adv-x="590" 
d="M558 22v-22h-217v22q22 0 36 15t14 38v262q0 41 -22 67.5t-64 26.5q-43 0 -72 -32t-29 -74v-250q0 -24 13.5 -38.5t36.5 -14.5v-22h-216v22q24 0 38.5 16t14.5 42v319q0 27 -14.5 43t-39.5 16v21h167v-66h3q57 76 151 76q33 0 64 -12t56.5 -48t25.5 -90v-259
q0 -26 14.5 -42t39.5 -16zM430 651l-127 -117h-11l-127 117q-6 6 -6 11t5 7.5t10 0.5l122 -60h3l122 60q5 2 10 -0.5t5 -7.5t-6 -11z" />
    <glyph glyph-name="Omacron" unicode="&#x14c;" horiz-adv-x="731" 
d="M547 348q0 88 -17.5 158.5t-59.5 118t-104 47.5t-104 -47.5t-59.5 -118t-17.5 -158.5t17.5 -158.5t59.5 -118t104 -47.5t104 47.5t59.5 118t17.5 158.5zM678 348q0 -147 -88 -255t-224 -108q-146 0 -229.5 96t-83.5 267q0 147 88.5 255t224.5 108q145 0 228.5 -96.5
t83.5 -266.5zM502 817v-69h-266v69h266z" />
    <glyph glyph-name="omacron" unicode="&#x14d;" horiz-adv-x="550" 
d="M387 238q0 212 -112 212t-112 -212q0 -94 26.5 -151.5t85.5 -57.5t85.5 57.5t26.5 151.5zM504 240q0 -111 -59 -180.5t-170 -69.5q-113 0 -171 65.5t-58 184.5q0 105 59 177t170 72q113 0 171 -67.5t58 -181.5zM410 616v-69h-266v69h266z" />
    <glyph glyph-name="Obreve" unicode="&#x14e;" horiz-adv-x="731" 
d="M547 348q0 88 -17.5 158.5t-59.5 118t-104 47.5t-104 -47.5t-59.5 -118t-17.5 -158.5t17.5 -158.5t59.5 -118t104 -47.5t104 47.5t59.5 118t17.5 158.5zM678 348q0 -147 -88 -255t-224 -108q-146 0 -229.5 96t-83.5 267q0 147 88.5 255t224.5 108q145 0 228.5 -96.5
t83.5 -266.5zM461 878h39q0 -60 -36.5 -101t-96.5 -41q-61 0 -97 41t-36 101h38q3 -31 27 -53t68 -22q43 0 67 22t27 53z" />
    <glyph glyph-name="obreve" unicode="&#x14f;" horiz-adv-x="550" 
d="M387 238q0 212 -112 212t-112 -212q0 -94 26.5 -151.5t85.5 -57.5t85.5 57.5t26.5 151.5zM504 240q0 -111 -59 -180.5t-170 -69.5q-113 0 -171 65.5t-58 184.5q0 105 59 177t170 72q113 0 171 -67.5t58 -181.5zM371 676h39q0 -60 -36.5 -101t-96.5 -41q-61 0 -97 41
t-36 101h38q3 -31 27 -53t68 -22q43 0 67 22t27 53z" />
    <glyph glyph-name="Ohungarumlaut" unicode="&#x150;" horiz-adv-x="731" 
d="M547 348q0 88 -17.5 158.5t-59.5 118t-104 47.5t-104 -47.5t-59.5 -118t-17.5 -158.5t17.5 -158.5t59.5 -118t104 -47.5t104 47.5t59.5 118t17.5 158.5zM678 348q0 -147 -88 -255t-224 -108q-146 0 -229.5 96t-83.5 267q0 147 88.5 255t224.5 108q145 0 228.5 -96.5
t83.5 -266.5zM450 852q0 -23 -28 -40l-123 -75h-32l101 125q21 26 45 26q15 0 26 -11t11 -25zM593 852q0 -23 -28 -40l-123 -75h-32l101 125q21 26 45 26q15 0 26 -11t11 -25z" />
    <glyph glyph-name="ohungarumlaut" unicode="&#x151;" horiz-adv-x="550" 
d="M387 238q0 212 -112 212t-112 -212q0 -94 26.5 -151.5t85.5 -57.5t85.5 57.5t26.5 151.5zM504 240q0 -111 -59 -180.5t-170 -69.5q-113 0 -171 65.5t-58 184.5q0 105 59 177t170 72q113 0 171 -67.5t58 -181.5zM367 649q0 -23 -28 -40l-123 -75h-32l101 125q21 26 45 26
q15 0 26 -11t11 -25zM510 649q0 -23 -28 -40l-123 -75h-32l101 125q21 26 45 26q15 0 26 -11t11 -25z" />
    <glyph glyph-name="OE" unicode="&#x152;" horiz-adv-x="986" 
d="M950 190v-190h-492q-44 -15 -92 -15q-146 0 -229.5 96t-83.5 267q0 147 88.5 255t224.5 108q56 0 103 -15h458v-182h-23q-33 90 -62.5 116t-98.5 26h-179l-5 -8q107 -86 118 -265h47q35 0 62.5 26.5t27.5 69.5h23v-230h-23q0 43 -27.5 69.5t-62.5 26.5h-46
q-1 -88 -36 -167t-97 -129l5 -11h179q33 0 55.5 2t41.5 10t30 16t24.5 29t22 39t25.5 56h22zM547 348q0 88 -17.5 158.5t-59.5 118t-104 47.5t-104 -47.5t-59.5 -118t-17.5 -158.5t17.5 -158.5t59.5 -118t104 -47.5t104 47.5t59.5 118t17.5 158.5z" />
    <glyph glyph-name="oe" unicode="&#x153;" horiz-adv-x="865" 
d="M387 238q0 212 -112 212t-112 -212q0 -94 26.5 -151.5t85.5 -57.5t85.5 57.5t26.5 151.5zM505 302h200q0 78 -19.5 113t-68.5 35q-42 0 -73.5 -40t-38.5 -108zM823 96q0 -4 -3 -9q-24 -37 -73.5 -66.5t-118.5 -29.5q-112 0 -180 74h-2q-57 -74 -171 -74q-113 0 -171 65
t-58 184q0 105 59 177t170 72q118 0 174 -75h2q68 75 172 75q91 0 146 -58t55 -164h-320q0 -101 36 -166.5t115 -65.5q80 0 147 67q6 6 13.5 4t7.5 -10z" />
    <glyph glyph-name="Racute" unicode="&#x154;" horiz-adv-x="721" 
d="M456 491q0 72 -36.5 118t-105.5 46h-7q-73 0 -73 -59v-254h78q64 0 104 39.5t40 109.5zM711 21v-21h-193l-197 271q-15 21 -31 26.5t-56 5.5v-216q0 -29 21 -47.5t55 -18.5v-21h-279v21q36 0 58.5 19.5t22.5 51.5v511q0 32 -22.5 52t-58.5 20v21h330q108 0 165 -51.5
t57 -127.5q0 -45 -15 -82.5t-39 -60.5t-49 -37t-51 -20v-3l139 -182q29 -38 46.5 -57.5t44 -36.5t52.5 -17zM447 852q0 -23 -28 -40l-123 -75h-32l101 125q21 26 45 26q17 0 27 -10.5t10 -25.5z" />
    <glyph glyph-name="racute" unicode="&#x155;" horiz-adv-x="435" 
d="M416 413q0 -29 -16 -47t-41 -18q-22 0 -35.5 12.5t-13.5 32.5q0 8 2 18.5t2 14.5q0 13 -13 13q-23 0 -51.5 -28.5t-45.5 -69.5v-261q0 -26 14.5 -42t39.5 -16v-22h-221v22q25 0 39.5 16t14.5 42v319q0 27 -14.5 43t-39.5 16v21h167v-80h3q17 31 51.5 60.5t79.5 29.5
q38 0 58 -22.5t20 -53.5zM399 649q0 -23 -28 -40l-123 -75h-32l101 125q21 26 45 26q17 0 27 -10.5t10 -25.5z" />
    <glyph glyph-name="Rcommaaccent" unicode="&#x156;" horiz-adv-x="721" 
d="M456 491q0 72 -36.5 118t-105.5 46h-7q-73 0 -73 -59v-254h78q64 0 104 39.5t40 109.5zM711 21v-21h-193l-197 271q-15 21 -31 26.5t-56 5.5v-216q0 -29 21 -47.5t55 -18.5v-21h-279v21q36 0 58.5 19.5t22.5 51.5v511q0 32 -22.5 52t-58.5 20v21h330q108 0 165 -51.5
t57 -127.5q0 -45 -15 -82.5t-39 -60.5t-49 -37t-51 -20v-3l139 -182q29 -38 46.5 -57.5t44 -36.5t52.5 -17zM438 -132q0 -106 -101 -154q-11 -5 -15 1.5t6 13.5q23 16 39.5 38.5t16.5 42.5q0 21 -20 21q-24 0 -41.5 17t-17.5 44q0 25 18.5 44.5t44.5 19.5q32 0 51 -25.5
t19 -62.5z" />
    <glyph glyph-name="rcommaaccent" unicode="&#x157;" horiz-adv-x="435" 
d="M416 413q0 -29 -16 -47t-41 -18q-22 0 -35.5 12.5t-13.5 32.5q0 8 2 18.5t2 14.5q0 13 -13 13q-23 0 -51.5 -28.5t-45.5 -69.5v-261q0 -26 14.5 -42t39.5 -16v-22h-221v22q25 0 39.5 16t14.5 42v319q0 27 -14.5 43t-39.5 16v21h167v-80h3q17 31 51.5 60.5t79.5 29.5
q38 0 58 -22.5t20 -53.5zM221 -132q0 -106 -101 -154q-11 -5 -15 1.5t6 13.5q23 16 39.5 38.5t16.5 42.5q0 21 -20 21q-24 0 -41.5 17t-17.5 44q0 25 18.5 44.5t44.5 19.5q32 0 51 -25.5t19 -62.5z" />
    <glyph glyph-name="Rcaron" unicode="&#x158;" horiz-adv-x="721" 
d="M456 491q0 72 -36.5 118t-105.5 46h-7q-73 0 -73 -59v-254h78q64 0 104 39.5t40 109.5zM711 21v-21h-193l-197 271q-15 21 -31 26.5t-56 5.5v-216q0 -29 21 -47.5t55 -18.5v-21h-279v21q36 0 58.5 19.5t22.5 51.5v511q0 32 -22.5 52t-58.5 20v21h330q108 0 165 -51.5
t57 -127.5q0 -45 -15 -82.5t-39 -60.5t-49 -37t-51 -20v-3l139 -182q29 -38 46.5 -57.5t44 -36.5t52.5 -17zM436 854l-127 -117h-11l-127 117q-6 6 -6 11t5 7.5t10 0.5l122 -60h3l122 60q5 2 10 -0.5t5 -7.5t-6 -11z" />
    <glyph glyph-name="rcaron" unicode="&#x159;" horiz-adv-x="435" 
d="M416 413q0 -29 -16 -47t-41 -18q-22 0 -35.5 12.5t-13.5 32.5q0 8 2 18.5t2 14.5q0 13 -13 13q-23 0 -51.5 -28.5t-45.5 -69.5v-261q0 -26 14.5 -42t39.5 -16v-22h-221v22q25 0 39.5 16t14.5 42v319q0 27 -14.5 43t-39.5 16v21h167v-80h3q17 31 51.5 60.5t79.5 29.5
q38 0 58 -22.5t20 -53.5zM371 651l-127 -117h-11l-127 117q-6 6 -6 11t5 7.5t10 0.5l122 -60h3l122 60q5 2 10 -0.5t5 -7.5t-6 -11z" />
    <glyph glyph-name="Sacute" unicode="&#x15a;" horiz-adv-x="574" 
d="M521 190q0 -94 -63.5 -149.5t-165.5 -55.5q-84 0 -182 57q-20 -12 -32 -42h-25v217h25q18 -38 35.5 -66.5t44 -61.5t60.5 -51t72 -18q54 0 88 34.5t34 90.5q0 85 -97 134l-140 70q-122 60 -122 171q0 82 60.5 136.5t147.5 54.5q70 0 146 -41q8 4 18.5 17t15.5 24h26v-222
h-26q-19 46 -32 72.5t-34 56t-47.5 42.5t-60.5 13q-52 0 -83 -31t-31 -76q0 -67 74 -105l160 -81q134 -69 134 -190zM408 851q0 -23 -28 -40l-123 -75h-32l101 125q21 26 45 26q17 0 27 -10.5t10 -25.5z" />
    <glyph glyph-name="sacute" unicode="&#x15b;" horiz-adv-x="460" 
d="M423 138q0 -64 -48 -106t-131 -42q-75 0 -147 41l-23 -31h-23v176h36q65 -154 162 -154q39 0 61.5 21.5t22.5 55.5q0 29 -19 49t-64 35q-82 28 -104 37q-95 32 -95 124q0 60 46.5 102.5t121.5 42.5q58 0 115 -30q20 4 32 25h26v-156h-37q-50 129 -138 129
q-36 0 -58 -20.5t-22 -49.5q0 -50 55 -68l103 -35q128 -43 128 -146zM381 649q0 -23 -28 -40l-123 -75h-32l101 125q21 26 45 26q17 0 27 -10.5t10 -25.5z" />
    <glyph glyph-name="Scircumflex" unicode="&#x15c;" horiz-adv-x="574" 
d="M521 190q0 -94 -63.5 -149.5t-165.5 -55.5q-84 0 -182 57q-20 -12 -32 -42h-25v217h25q18 -38 35.5 -66.5t44 -61.5t60.5 -51t72 -18q54 0 88 34.5t34 90.5q0 85 -97 134l-140 70q-122 60 -122 171q0 82 60.5 136.5t147.5 54.5q70 0 146 -41q8 4 18.5 17t15.5 24h26v-222
h-26q-19 46 -32 72.5t-34 56t-47.5 42.5t-60.5 13q-52 0 -83 -31t-31 -76q0 -67 74 -105l160 -81q134 -69 134 -190zM124 758l127 117h11l127 -117q6 -6 6 -11t-5 -7.5t-10 -0.5l-122 60h-3l-122 -60q-5 -2 -10 0.5t-5 7.5t6 11z" />
    <glyph glyph-name="scircumflex" unicode="&#x15d;" horiz-adv-x="460" 
d="M423 138q0 -64 -48 -106t-131 -42q-75 0 -147 41l-23 -31h-23v176h36q65 -154 162 -154q39 0 61.5 21.5t22.5 55.5q0 29 -19 49t-64 35q-82 28 -104 37q-95 32 -95 124q0 60 46.5 102.5t121.5 42.5q58 0 115 -30q20 4 32 25h26v-156h-37q-50 129 -138 129
q-36 0 -58 -20.5t-22 -49.5q0 -50 55 -68l103 -35q128 -43 128 -146zM90 553l127 117h11l127 -117q6 -6 6 -11t-5 -7.5t-10 -0.5l-122 60h-3l-122 -60q-5 -2 -10 0.5t-5 7.5t6 11z" />
    <glyph glyph-name="Scedilla" unicode="&#x15e;" horiz-adv-x="574" 
d="M421 -135q0 -37 -28.5 -63.5t-83.5 -26.5q-34 0 -60 8.5t-36.5 17.5t-10.5 15t11 6q8 0 31.5 -6t40.5 -6q29 0 45.5 15.5t16.5 35.5q0 16 -14.5 30.5t-49.5 14.5h-21v81q-67 7 -152 55q-20 -12 -32 -42h-25v217h25q18 -38 35.5 -66.5t44 -61.5t60.5 -51t72 -18
q54 0 88 34.5t34 90.5q0 81 -77 123l-39 21l-121 60q-122 60 -122 171q0 82 60.5 136.5t147.5 54.5q70 0 146 -41q8 4 18.5 17t15.5 24h26v-222h-26q-19 46 -32 72.5t-34 56t-47.5 42.5t-60.5 13q-52 0 -83 -31t-31 -76q0 -68 74 -105l143 -72q77 -42 114 -88.5t37 -110.5
q0 -91 -61 -146t-157 -59v-39h13q50 0 77.5 -23t27.5 -58z" />
    <glyph glyph-name="scedilla" unicode="&#x15f;" horiz-adv-x="460" 
d="M371 -135q0 -37 -28 -63.5t-83 -26.5q-34 0 -60 8.5t-37 17.5t-11 15t11 6q7 0 31.5 -6t41.5 -6q30 0 45.5 15t15.5 36q0 45 -64 45h-20v87q-70 10 -116 38l-23 -31h-23v176h36q65 -154 162 -154q39 0 61.5 21.5t22.5 55.5q0 63 -89 86l-98 35q-95 33 -95 124
q0 61 47 103t121 42q58 0 115 -30q20 4 32 25h26v-156h-37q-50 129 -138 129q-36 0 -58 -20.5t-22 -49.5q0 -50 55 -68l103 -35q128 -44 128 -146q0 -62 -45.5 -103t-124.5 -44v-45h14q50 0 77 -23t27 -58z" />
    <glyph glyph-name="Scaron" unicode="&#x160;" horiz-adv-x="574" 
d="M521 190q0 -94 -63.5 -149.5t-165.5 -55.5q-84 0 -182 57q-20 -12 -32 -42h-25v217h25q18 -38 35.5 -66.5t44 -61.5t60.5 -51t72 -18q54 0 88 34.5t34 90.5q0 85 -97 134l-140 70q-122 60 -122 171q0 82 60.5 136.5t147.5 54.5q70 0 146 -41q8 4 18.5 17t15.5 24h26v-222
h-26q-19 46 -32 72.5t-34 56t-47.5 42.5t-60.5 13q-52 0 -83 -31t-31 -76q0 -67 74 -105l160 -81q134 -69 134 -190zM393 852l-127 -117h-11l-127 117q-6 6 -6 11t5 7.5t10 0.5l122 -60h3l122 60q5 2 10 -0.5t5 -7.5t-6 -11z" />
    <glyph glyph-name="scaron" unicode="&#x161;" horiz-adv-x="460" 
d="M423 138q0 -64 -48 -106t-131 -42q-75 0 -147 41l-23 -31h-23v176h36q65 -154 162 -154q39 0 61.5 21.5t22.5 55.5q0 29 -19 49t-64 35q-82 28 -104 37q-95 32 -95 124q0 60 46.5 102.5t121.5 42.5q58 0 115 -30q20 4 32 25h26v-156h-37q-50 129 -138 129
q-36 0 -58 -20.5t-22 -49.5q0 -50 55 -68l103 -35q128 -43 128 -146zM349 651l-127 -117h-11l-127 117q-6 6 -6 11t5 7.5t10 0.5l122 -60h3l122 60q5 2 10 -0.5t5 -7.5t-6 -11z" />
    <glyph glyph-name="Tcommaaccent" unicode="&#x162;" horiz-adv-x="581" 
d="M571 696v-182h-25q-29 86 -53.5 114.5t-74.5 28.5h-10q-56 0 -56 -63v-502q0 -32 22 -51.5t59 -19.5v-21h-284v21q36 0 58 19.5t22 51.5v502q0 63 -55 63h-11q-49 0 -73.5 -28.5t-54.5 -114.5h-25v182h561zM361 -132q0 -106 -101 -154q-11 -5 -15 1.5t6 13.5
q23 16 39.5 38.5t16.5 42.5q0 21 -20 21q-24 0 -41.5 17t-17.5 44q0 25 18.5 44.5t44.5 19.5q32 0 51 -25.5t19 -62.5z" />
    <glyph glyph-name="Tcommaaccent" unicode="&#x21a;" horiz-adv-x="581" 
d="M571 696v-182h-25q-29 86 -53.5 114.5t-74.5 28.5h-10q-56 0 -56 -63v-502q0 -32 22 -51.5t59 -19.5v-21h-284v21q36 0 58 19.5t22 51.5v502q0 63 -55 63h-11q-49 0 -73.5 -28.5t-54.5 -114.5h-25v182h561zM361 -132q0 -106 -101 -154q-11 -5 -15 1.5t6 13.5
q23 16 39.5 38.5t16.5 42.5q0 21 -20 21q-24 0 -41.5 17t-17.5 44q0 25 18.5 44.5t44.5 19.5q32 0 51 -25.5t19 -62.5z" />
    <glyph glyph-name="tcommaaccent" unicode="&#x163;" horiz-adv-x="337" 
d="M337 73q0 -3 -4 -11q-38 -72 -119 -72q-123 0 -123 131v323h-71v26q54 17 94 61t61 94h29v-146h93v-35h-93v-349q0 -63 46 -63q34 0 66 44q6 9 13.5 7t7.5 -10zM263 -132q0 -106 -101 -154q-11 -5 -15 1.5t6 13.5q23 16 39.5 38.5t16.5 42.5q0 21 -20 21q-24 0 -41.5 17
t-17.5 44q0 25 18.5 44.5t44.5 19.5q32 0 51 -25.5t19 -62.5z" />
    <glyph glyph-name="tcommaaccent" unicode="&#x21b;" horiz-adv-x="337" 
d="M337 73q0 -3 -4 -11q-38 -72 -119 -72q-123 0 -123 131v323h-71v26q54 17 94 61t61 94h29v-146h93v-35h-93v-349q0 -63 46 -63q34 0 66 44q6 9 13.5 7t7.5 -10zM263 -132q0 -106 -101 -154q-11 -5 -15 1.5t6 13.5q23 16 39.5 38.5t16.5 42.5q0 21 -20 21q-24 0 -41.5 17
t-17.5 44q0 25 18.5 44.5t44.5 19.5q32 0 51 -25.5t19 -62.5z" />
    <glyph glyph-name="Tcaron" unicode="&#x164;" horiz-adv-x="581" 
d="M571 696v-182h-25q-29 86 -53.5 114.5t-74.5 28.5h-10q-56 0 -56 -63v-502q0 -32 22 -51.5t59 -19.5v-21h-284v21q36 0 58 19.5t22 51.5v502q0 63 -55 63h-11q-49 0 -73.5 -28.5t-54.5 -114.5h-25v182h561zM425 854l-127 -117h-11l-127 117q-6 6 -6 11t5 7.5t10 0.5
l122 -60h3l122 60q5 2 10 -0.5t5 -7.5t-6 -11z" />
    <glyph glyph-name="tcaron" unicode="&#x165;" horiz-adv-x="337" 
d="M337 73q0 -3 -4 -11q-38 -72 -119 -72q-123 0 -123 131v323h-71v26q54 17 94 61t61 94h29v-146h93v-35h-93v-349q0 -63 46 -63q34 0 66 44q6 9 13.5 7t7.5 -10zM357 669q0 -96 -92 -141q-10 -4 -14 1.5t5 12.5q51 36 51 73q0 20 -18 20q-22 0 -38 15t-16 41q0 24 17 41.5
t41 17.5q31 0 47.5 -23.5t16.5 -57.5z" />
    <glyph glyph-name="Utilde" unicode="&#x168;" horiz-adv-x="727" 
d="M702 696v-21q-41 0 -64.5 -20t-23.5 -56v-357q0 -126 -69 -191.5t-179 -65.5q-120 0 -190 64.5t-70 203.5v350q0 33 -22 52.5t-59 19.5v21h284v-21q-36 0 -58.5 -20t-22.5 -52v-361q0 -105 41 -161.5t121 -56.5q88 0 136.5 58t48.5 155v362q0 35 -24 55.5t-64 20.5v21
h215zM519 835h35q-17 -93 -85 -93q-16 0 -70.5 13.5t-72.5 13.5q-32 0 -45 -29h-34q15 93 83 93q17 0 71.5 -13.5t73.5 -13.5q32 0 44 29z" />
    <glyph glyph-name="utilde" unicode="&#x169;" horiz-adv-x="580" 
d="M548 21v-21h-143q-19 27 -24 60h-3q-56 -69 -150 -69q-61 0 -104 34t-43 113v261q0 25 -15.5 42t-38.5 17v21h167v-1v-335q0 -50 24 -72.5t60 -22.5q43 0 73 32t30 77v242q0 25 -15.5 42t-38.5 17v21h167v-399q0 -26 15.5 -42.5t38.5 -16.5zM412 630h35q-17 -93 -85 -93
q-16 0 -70.5 13.5t-72.5 13.5q-32 0 -45 -29h-34q15 93 83 93q17 0 71.5 -13.5t73.5 -13.5q32 0 44 29z" />
    <glyph glyph-name="Umacron" unicode="&#x16a;" horiz-adv-x="727" 
d="M702 696v-21q-41 0 -64.5 -20t-23.5 -56v-357q0 -126 -69 -191.5t-179 -65.5q-120 0 -190 64.5t-70 203.5v350q0 33 -22 52.5t-59 19.5v21h284v-21q-36 0 -58.5 -20t-22.5 -52v-361q0 -105 41 -161.5t121 -56.5q88 0 136.5 58t48.5 155v362q0 35 -24 55.5t-64 20.5v21
h215zM523 817v-69h-266v69h266z" />
    <glyph glyph-name="umacron" unicode="&#x16b;" horiz-adv-x="580" 
d="M548 21v-21h-143q-19 27 -24 60h-3q-56 -69 -150 -69q-61 0 -104 34t-43 113v261q0 25 -15.5 42t-38.5 17v21h167v-1v-335q0 -50 24 -72.5t60 -22.5q43 0 73 32t30 77v242q0 25 -15.5 42t-38.5 17v21h167v-399q0 -26 15.5 -42.5t38.5 -16.5zM426 616v-69h-266v69h266z
" />
    <glyph glyph-name="Ubreve" unicode="&#x16c;" horiz-adv-x="727" 
d="M702 696v-21q-41 0 -64.5 -20t-23.5 -56v-357q0 -126 -69 -191.5t-179 -65.5q-120 0 -190 64.5t-70 203.5v350q0 33 -22 52.5t-59 19.5v21h284v-21q-36 0 -58.5 -20t-22.5 -52v-361q0 -105 41 -161.5t121 -56.5q88 0 136.5 58t48.5 155v362q0 35 -24 55.5t-64 20.5v21
h215zM491 879h39q0 -60 -36.5 -101t-96.5 -41q-61 0 -97 41t-36 101h38q3 -31 27 -53t68 -22q43 0 67 22t27 53z" />
    <glyph glyph-name="ubreve" unicode="&#x16d;" horiz-adv-x="580" 
d="M548 21v-21h-143q-19 27 -24 60h-3q-56 -69 -150 -69q-61 0 -104 34t-43 113v261q0 25 -15.5 42t-38.5 17v21h167v-1v-335q0 -50 24 -72.5t60 -22.5q43 0 73 32t30 77v242q0 25 -15.5 42t-38.5 17v21h167v-399q0 -26 15.5 -42.5t38.5 -16.5zM379 676h39q0 -60 -36.5 -101
t-96.5 -41q-61 0 -97 41t-36 101h38q3 -31 27 -53t68 -22q43 0 67 22t27 53z" />
    <glyph glyph-name="Uring" unicode="&#x16e;" horiz-adv-x="727" 
d="M702 696v-21q-41 0 -64.5 -20t-23.5 -56v-357q0 -126 -69 -191.5t-179 -65.5q-120 0 -190 64.5t-70 203.5v350q0 33 -22 52.5t-59 19.5v21h284v-21q-36 0 -58.5 -20t-22.5 -52v-361q0 -105 41 -161.5t121 -56.5q88 0 136.5 58t48.5 155v362q0 35 -24 55.5t-64 20.5v21
h215zM450 849q0 23 -16.5 39.5t-39.5 16.5t-39.5 -16.5t-16.5 -39.5t16.5 -39.5t39.5 -16.5t39.5 16.5t16.5 39.5zM506 849q0 -47 -32.5 -80t-79.5 -33t-80 33t-33 80t33 80t80 33t79.5 -33t32.5 -80z" />
    <glyph glyph-name="uring" unicode="&#x16f;" horiz-adv-x="580" 
d="M548 21v-21h-143q-19 27 -24 60h-3q-56 -69 -150 -69q-61 0 -104 34t-43 113v261q0 25 -15.5 42t-38.5 17v21h167v-1v-335q0 -50 24 -72.5t60 -22.5q43 0 73 32t30 77v242q0 25 -15.5 42t-38.5 17v21h167v-399q0 -26 15.5 -42.5t38.5 -16.5zM350 647q0 23 -16.5 39.5
t-39.5 16.5t-39.5 -16.5t-16.5 -39.5t16.5 -39.5t39.5 -16.5t39.5 16.5t16.5 39.5zM406 647q0 -47 -32.5 -80t-79.5 -33t-80 33t-33 80t33 80t80 33t79.5 -33t32.5 -80z" />
    <glyph glyph-name="Uhungarumlaut" unicode="&#x170;" horiz-adv-x="727" 
d="M702 696v-21q-41 0 -64.5 -20t-23.5 -56v-357q0 -126 -69 -191.5t-179 -65.5q-120 0 -190 64.5t-70 203.5v350q0 33 -22 52.5t-59 19.5v21h284v-21q-36 0 -58.5 -20t-22.5 -52v-361q0 -105 41 -161.5t121 -56.5q88 0 136.5 58t48.5 155v362q0 35 -24 55.5t-64 20.5v21
h215zM476 852q0 -23 -28 -40l-123 -75h-32l101 125q21 26 45 26q15 0 26 -11t11 -25zM619 852q0 -23 -28 -40l-123 -75h-32l101 125q21 26 45 26q15 0 26 -11t11 -25z" />
    <glyph glyph-name="uhungarumlaut" unicode="&#x171;" horiz-adv-x="580" 
d="M548 21v-21h-143q-19 27 -24 60h-3q-56 -69 -150 -69q-61 0 -104 34t-43 113v261q0 25 -15.5 42t-38.5 17v21h167v-1v-335q0 -50 24 -72.5t60 -22.5q43 0 73 32t30 77v242q0 25 -15.5 42t-38.5 17v21h167v-399q0 -26 15.5 -42.5t38.5 -16.5zM361 649q0 -23 -28 -40
l-123 -75h-32l101 125q21 26 45 26q15 0 26 -11t11 -25zM504 649q0 -23 -28 -40l-123 -75h-32l101 125q21 26 45 26q15 0 26 -11t11 -25z" />
    <glyph glyph-name="Uogonek" unicode="&#x172;" horiz-adv-x="727" 
d="M504 -177q0 -9 -14 -18q-41 -30 -93 -30q-57 0 -87 25t-30 65q0 66 70 120q-114 4 -179 68.5t-65 199.5v350q0 32 -22.5 52t-58.5 20v21h284v-21q-36 0 -58.5 -20t-22.5 -52v-361q0 -105 41 -161.5t121 -56.5q88 0 136.5 58t48.5 155v362q0 35 -24 55.5t-64 20.5v21h215
v-21q-41 0 -64.5 -20t-23.5 -56v-357q0 -109 -52.5 -173t-139.5 -79q-67 -58 -67 -116q0 -28 16.5 -45.5t44.5 -17.5q23 0 66 19q10 3 16 1t6 -8z" />
    <glyph glyph-name="uogonek" unicode="&#x173;" horiz-adv-x="580" 
d="M362 -177q0 -9 -14 -19q-40 -29 -93 -29q-57 0 -87 25t-30 65q0 70 78 126q-57 4 -96 38t-39 109v261q0 25 -15.5 42t-38.5 17v21h167v-336q0 -50 24 -72.5t60 -22.5q43 0 73 32t30 77v242q0 25 -15.5 42t-38.5 17v21h167v-399q0 -26 15.5 -42.5t38.5 -16.5v-21h-143
q-19 27 -24 60h-3q-20 -23 -51 -44q-4 -3 -22 -14t-24 -15.5l-20 -15t-19.5 -19t-13.5 -20.5t-11 -25.5t-3 -29.5q0 -30 15.5 -48t43.5 -18q30 0 68 20q11 4 16 1t5 -9z" />
    <glyph glyph-name="Wcircumflex" unicode="&#x174;" horiz-adv-x="1017" 
d="M1007 696v-22q-43 0 -65 -20.5t-38 -72.5l-187 -581h-35l-172 472h-3l-160 -472h-37l-197 585q-30 90 -103 90v21h275v-21q-36 0 -48.5 -21.5t-0.5 -58.5l133 -399h3l157 467q6 18 17 18q12 0 18 -18l172 -473h3l117 396q27 86 -41 89v21h192zM417 758l127 117h11
l127 -117q6 -6 6 -11t-5 -7.5t-10 -0.5l-122 60h-3l-122 -60q-5 -2 -10 0.5t-5 7.5t6 11z" />
    <glyph glyph-name="wcircumflex" unicode="&#x175;" horiz-adv-x="743" 
d="M734 479v-21q-14 0 -26.5 -7t-20 -15t-16 -24.5t-12 -26l-10.5 -28.5l-125 -357h-37q-87 218 -117 285h-3q-37 -98 -98 -285h-38l-133 360q-24 64 -34 77q-19 21 -55 21v21h229v-21q-33 0 -37 -22t13 -65l71 -202h3l101 291q3 11 13 11t14 -11l122 -301h2l76 245
q16 53 -38 54v21h156zM272 553l127 117h11l127 -117q6 -6 6 -11t-5 -7.5t-10 -0.5l-122 60h-3l-122 -60q-5 -2 -10 0.5t-5 7.5t6 11z" />
    <glyph glyph-name="Ycircumflex" unicode="&#x176;" horiz-adv-x="696" 
d="M686 696v-21q-21 0 -35.5 -5t-28 -21t-20 -27t-22.5 -41l-165 -294v-195q0 -32 22.5 -51.5t58.5 -19.5v-21h-284v21q37 0 59 19.5t22 51.5v168l-177 326q-25 46 -49 67.5t-57 21.5v21h292v-21q-43 0 -56 -24t8 -65l136 -257h3l131 257q20 41 6.5 65t-53.5 24v21h209z
M269 758l127 117h11l127 -117q6 -6 6 -11t-5 -7.5t-10 -0.5l-122 60h-3l-122 -60q-5 -2 -10 0.5t-5 7.5t6 11z" />
    <glyph glyph-name="ycircumflex" unicode="&#x177;" horiz-adv-x="576" 
d="M567 479v-21q-30 0 -47 -22t-38 -74l-181 -457q-29 -71 -57 -105.5t-74 -34.5q-37 0 -59.5 22.5t-22.5 54.5q0 29 17 46t40 17q41 0 41 -42q0 -3 -1 -10.5t-1 -10.5q0 -18 18 -18q17 0 30.5 22t30.5 67l30 79l-179 372q-27 56 -46.5 75t-58.5 19v21h248v-21
q-63 0 -30 -72l118 -257h3l92 272q18 54 -37 57v21h164zM209 553l127 117h11l127 -117q6 -6 6 -11t-5 -7.5t-10 -0.5l-122 60h-3l-122 -60q-5 -2 -10 0.5t-5 7.5t6 11z" />
    <glyph glyph-name="Ydieresis" unicode="&#x178;" horiz-adv-x="696" 
d="M686 696v-21q-21 0 -35.5 -5t-28 -21t-20 -27t-22.5 -41l-165 -294v-195q0 -32 22.5 -51.5t58.5 -19.5v-21h-284v21q37 0 59 19.5t22 51.5v168l-177 326q-25 46 -49 67.5t-57 21.5v21h292v-21q-43 0 -56 -24t8 -65l136 -257h3l131 257q20 41 6.5 65t-53.5 24v21h209z
M368 803q0 -28 -19 -47t-47 -19q-27 0 -46 19t-19 47q0 27 19 46.5t46 19.5q28 0 47 -19.5t19 -46.5zM555 803q0 -28 -19 -47t-46 -19q-28 0 -47 19t-19 47q0 27 19 46.5t47 19.5q27 0 46 -19.5t19 -46.5z" />
    <glyph glyph-name="Zacute" unicode="&#x179;" horiz-adv-x="558" 
d="M518 180v-180h-484v21l340 632v4h-155q-55 0 -82 -27.5t-53 -103.5h-23v170h457v-21l-342 -634v-2h153q76 0 101.5 22.5t56.5 97.5l9 21h22zM446 852q0 -23 -28 -40l-123 -75h-32l101 125q21 26 45 26q17 0 27 -10.5t10 -25.5z" />
    <glyph glyph-name="zacute" unicode="&#x17a;" horiz-adv-x="482" 
d="M427 150v-150h-388v19l253 419v3h-47q-84 0 -114.5 -21t-46.5 -91h-24v150h373v-14l-255 -425v-2h68q53 0 82 11t44.5 33t31.5 68h23zM405 649q0 -23 -28 -40l-123 -75h-32l101 125q21 26 45 26q17 0 27 -10.5t10 -25.5z" />
    <glyph glyph-name="Zdotaccent" unicode="&#x17b;" horiz-adv-x="558" 
d="M518 180v-180h-484v21l340 632v4h-155q-55 0 -82 -27.5t-53 -103.5h-23v170h457v-21l-342 -634v-2h153q76 0 101.5 22.5t56.5 97.5l9 21h22zM362 811q0 -28 -19 -47t-46 -19q-28 0 -47 19t-19 47q0 27 19 46.5t47 19.5q27 0 46 -19.5t19 -46.5z" />
    <glyph glyph-name="zdotaccent" unicode="&#x17c;" horiz-adv-x="482" 
d="M427 150v-150h-388v19l253 419v3h-47q-84 0 -114.5 -21t-46.5 -91h-24v150h373v-14l-255 -425v-2h68q53 0 82 11t44.5 33t31.5 68h23zM321 600q0 -28 -19 -47t-46 -19q-28 0 -47 19t-19 47q0 27 19 46.5t47 19.5q27 0 46 -19.5t19 -46.5z" />
    <glyph glyph-name="Zcaron" unicode="&#x17d;" horiz-adv-x="558" 
d="M518 180v-180h-484v21l340 632v4h-155q-55 0 -82 -27.5t-53 -103.5h-23v170h457v-21l-342 -634v-2h153q76 0 101.5 22.5t56.5 97.5l9 21h22zM426 853l-127 -117h-11l-127 117q-6 6 -6 11t5 7.5t10 0.5l122 -60h3l122 60q5 2 10 -0.5t5 -7.5t-6 -11z" />
    <glyph glyph-name="zcaron" unicode="&#x17e;" horiz-adv-x="482" 
d="M427 150v-150h-388v19l253 419v3h-47q-84 0 -114.5 -21t-46.5 -91h-24v150h373v-14l-255 -425v-2h68q53 0 82 11t44.5 33t31.5 68h23zM378 651l-127 -117h-11l-127 117q-6 6 -6 11t5 7.5t10 0.5l122 -60h3l122 60q5 2 10 -0.5t5 -7.5t-6 -11z" />
    <glyph glyph-name="florin" unicode="&#x192;" horiz-adv-x="389" 
d="M436 649q0 -22 -12.5 -37.5t-32.5 -15.5q-16 0 -26.5 10.5t-10.5 27.5q0 5 2 15.5t2 15.5q0 21 -24 21q-23 0 -42.5 -23.5t-28.5 -71.5l-26 -130h96l-7 -38h-96l-83 -420q-47 -238 -211 -238q-44 0 -72.5 21t-28.5 53q0 24 15.5 39.5t34.5 15.5q17 0 27 -10.5t10 -26.5
q0 -5 -2 -15t-2 -14q0 -25 25 -25q50 0 85 175l89 445h-75l6 38h77l16 78q19 91 70 138t127 47q45 0 71.5 -22t26.5 -53z" />
    <glyph glyph-name="AEacute" unicode="&#x1fc;" horiz-adv-x="992" 
d="M326 282h190v254h-3zM953 190v-190h-518v21q36 0 58.5 19.5t22.5 51.5v151h-219l-102 -137q-25 -33 -25 -57q0 -28 44 -28v-21h-204v21q31 0 63.5 22.5t47.5 40t37 46.5l358 470v5q0 31 -23 50.5t-58 19.5v21h495v-182h-23q-30 87 -61.5 115t-104.5 28h-19
q-44 0 -63.5 -12t-19.5 -46v-216h78q35 0 62.5 26.5t27.5 69.5h23v-230h-23q0 43 -27.5 69.5t-62.5 26.5h-78v-249q0 -58 73 -58q39 0 65 2t47.5 10t33.5 16t26 28.5t22.5 39.5t24.5 56h22zM854 865q0 -23 -28 -40l-123 -75h-32l101 125q21 26 45 26q17 0 27 -10.5t10 -25.5
z" />
    <glyph glyph-name="aeacute" unicode="&#x1fd;" horiz-adv-x="814" 
d="M339 138v126q-82 -13 -131.5 -47.5t-49.5 -91.5q0 -37 19.5 -57t50.5 -20q37 0 74 32.5t37 57.5zM454 302h200q0 79 -19.5 113.5t-68.5 34.5q-43 0 -74.5 -40t-37.5 -108zM771 96q0 -4 -3 -9q-24 -38 -73.5 -67t-118.5 -29q-68 0 -122.5 27.5t-85.5 80.5h-4
q-41 -52 -83 -80t-105 -28q-55 0 -95 31.5t-40 91.5q0 37 18 66t44.5 47.5t69.5 33t79.5 22t86.5 15.5v56q0 46 -25 71.5t-69 25.5q-37 0 -57.5 -11t-20.5 -28q0 -7 5 -21t5 -25q0 -24 -14.5 -40t-42.5 -16q-25 0 -41 18.5t-16 43.5q0 52 54.5 84.5t134.5 32.5
q48 0 93.5 -14t69.5 -43h3q64 57 153 57q93 0 147.5 -56.5t54.5 -165.5h-321q0 -232 152 -232q78 0 146 66q5 5 11 5q10 0 10 -10zM585 649q0 -23 -28 -40l-123 -75h-32l101 125q21 26 45 26q17 0 27 -10.5t10 -25.5z" />
    <glyph glyph-name="Oslashacute" unicode="&#x1fe;" horiz-adv-x="731" 
d="M515 852q0 -23 -28 -40l-123 -75h-32l101 125q21 26 45 26q17 0 27 -10.5t10 -25.5zM547 348q0 91 -21 158l-306 -366q47 -116 146 -116q62 0 104 47.5t59.5 118t17.5 158.5zM206 187q204 244 307 366q-47 119 -147 119q-62 0 -104 -47.5t-59.5 -118t-17.5 -158.5
q0 -89 19 -161h2zM636 696h51l-80 -96q71 -96 71 -252q0 -147 -88 -255t-224 -108q-130 0 -212 77l-52 -62h-58l81 94q-72 95 -72 254q0 147 88.5 255t224.5 108q131 0 213 -80z" />
    <glyph glyph-name="oslashacute" unicode="&#x1ff;" horiz-adv-x="550" 
d="M456 649q0 -23 -28 -40l-123 -75h-32l101 125q21 26 45 26q17 0 27 -10.5t10 -25.5zM387 238q0 50 -8 85l-196 -223q29 -71 92 -71q59 0 85.5 57.5t26.5 151.5zM172 147q66 75 196 225q-26 78 -93 78q-112 0 -112 -212q0 -56 9 -91zM465 480h54l-62 -72q47 -65 47 -168
q0 -111 -59 -180t-170 -69q-93 0 -149 45l-33 -37l-53 1l57 64q-51 64 -51 176q0 105 59 177t170 72q94 0 153 -51z" />
    <glyph glyph-name="Adblgrave" unicode="&#x200;" horiz-adv-x="738" 
d="M232 278h197l-98 241h-6zM728 21v-21h-268v21q27 0 38.5 13.5t10.5 29t-8 33.5l-57 142h-227l-53 -133q-33 -85 50 -85v-21h-204v21q37 0 66 25t43 61l240 595h31l242 -600q32 -81 96 -81zM337 737h-32l-124 75q-27 16 -27 40q0 14 10.5 25t25.5 11q24 0 45 -26zM480 737
h-32l-124 75q-27 16 -27 40q0 14 10.5 25t25.5 11q24 0 45 -26z" />
    <glyph glyph-name="adblgrave" unicode="&#x201;" horiz-adv-x="538" 
d="M339 130v135q-81 -12 -131 -47.5t-50 -92.5q0 -37 19.5 -57t50.5 -20q37 0 74 29.5t37 52.5zM521 58q0 -10 -15 -25q-40 -42 -96 -42q-60 0 -70 73h-4q-77 -73 -160 -73q-55 0 -95 31.5t-40 91.5q0 31 11.5 56t34.5 43t48.5 31t63 23t68 16.5t72.5 12.5v58q0 97 -94 97
q-35 0 -56.5 -10.5t-21.5 -28.5q0 -7 4.5 -21t4.5 -26q0 -24 -14.5 -39.5t-41.5 -15.5q-25 0 -41 18.5t-16 43.5q0 52 54.5 84.5t134.5 32.5q90 0 145 -39t55 -127v-230q0 -48 27 -48q9 0 27 18q4 5 9.5 3t5.5 -8zM242 534h-32l-124 75q-27 16 -27 40q0 14 10.5 25t25.5 11
q24 0 45 -26zM385 534h-32l-124 75q-27 16 -27 40q0 14 10.5 25t25.5 11q24 0 45 -26z" />
    <glyph glyph-name="Ainvertedbreve" unicode="&#x202;" horiz-adv-x="738" 
d="M232 278h197l-98 241h-6zM728 21v-21h-268v21q27 0 38.5 13.5t10.5 29t-8 33.5l-57 142h-227l-53 -133q-33 -85 50 -85v-21h-204v21q37 0 66 25t43 61l240 595h31l242 -600q32 -81 96 -81zM510 737h-38q-4 32 -28 54t-67 22t-67 -22t-28 -54h-38q0 61 36 101.5t97 40.5
q60 0 96.5 -40.5t36.5 -101.5z" />
    <glyph glyph-name="ainvertedbreve" unicode="&#x203;" horiz-adv-x="538" 
d="M339 130v135q-81 -12 -131 -47.5t-50 -92.5q0 -37 19.5 -57t50.5 -20q37 0 74 29.5t37 52.5zM521 58q0 -10 -15 -25q-40 -42 -96 -42q-60 0 -70 73h-4q-77 -73 -160 -73q-55 0 -95 31.5t-40 91.5q0 31 11.5 56t34.5 43t48.5 31t63 23t68 16.5t72.5 12.5v58q0 97 -94 97
q-35 0 -56.5 -10.5t-21.5 -28.5q0 -7 4.5 -21t4.5 -26q0 -24 -14.5 -39.5t-41.5 -15.5q-25 0 -41 18.5t-16 43.5q0 52 54.5 84.5t134.5 32.5q90 0 145 -39t55 -127v-230q0 -48 27 -48q9 0 27 18q4 5 9.5 3t5.5 -8zM390 534h-38q-4 32 -28 54t-67 22t-67 -22t-28 -54h-38
q0 61 36 101.5t97 40.5q60 0 96.5 -40.5t36.5 -101.5z" />
    <glyph glyph-name="Edblgrave" unicode="&#x204;" horiz-adv-x="585" 
d="M549 190v-190h-518v21q36 0 58.5 19.5t22.5 51.5v511q0 32 -22.5 52t-58.5 20v21h495v-182h-23q-33 90 -62.5 116t-98.5 26h-11q-35 0 -52.5 -2.5t-30.5 -15.5t-13 -39v-216h78q35 0 62.5 26.5t27.5 69.5h23v-230h-23q0 43 -27.5 69.5t-62.5 26.5h-78v-249
q0 -31 17.5 -44.5t54.5 -13.5h21q33 0 55.5 2t41.5 10t30 16t24.5 29t22 39t25.5 56h22zM273 737h-32l-124 75q-27 16 -27 40q0 14 10.5 25t25.5 11q24 0 45 -26zM416 737h-32l-124 75q-27 16 -27 40q0 14 10.5 25t25.5 11q24 0 45 -26z" />
    <glyph glyph-name="edblgrave" unicode="&#x205;" horiz-adv-x="526" 
d="M166 302h200q0 76 -20 112t-68 36q-43 0 -74.5 -40t-37.5 -108zM485 267h-321q0 -47 8 -87t25 -73.5t47.5 -52.5t71.5 -19q78 0 146 66q5 5 11 5q10 0 10 -10q0 -4 -3 -9q-24 -38 -73.5 -67t-118.5 -29q-101 0 -171.5 64.5t-70.5 184.5q0 103 67 176.5t170 73.5
q91 0 146.5 -58.5t55.5 -164.5zM249 534h-32l-124 75q-27 16 -27 40q0 14 10.5 25t25.5 11q24 0 45 -26zM392 534h-32l-124 75q-27 16 -27 40q0 14 10.5 25t25.5 11q24 0 45 -26z" />
    <glyph glyph-name="Einvertedbreve" unicode="&#x206;" horiz-adv-x="585" 
d="M549 190v-190h-518v21q36 0 58.5 19.5t22.5 51.5v511q0 32 -22.5 52t-58.5 20v21h495v-182h-23q-33 90 -62.5 116t-98.5 26h-11q-35 0 -52.5 -2.5t-30.5 -15.5t-13 -39v-216h78q35 0 62.5 26.5t27.5 69.5h23v-230h-23q0 43 -27.5 69.5t-62.5 26.5h-78v-249
q0 -31 17.5 -44.5t54.5 -13.5h21q33 0 55.5 2t41.5 10t30 16t24.5 29t22 39t25.5 56h22zM436 736h-38q-4 32 -28 54t-67 22t-67 -22t-28 -54h-38q0 61 36 101.5t97 40.5q60 0 96.5 -40.5t36.5 -101.5z" />
    <glyph glyph-name="einvertedbreve" unicode="&#x207;" horiz-adv-x="526" 
d="M166 302h200q0 76 -20 112t-68 36q-43 0 -74.5 -40t-37.5 -108zM485 267h-321q0 -47 8 -87t25 -73.5t47.5 -52.5t71.5 -19q78 0 146 66q5 5 11 5q10 0 10 -10q0 -4 -3 -9q-24 -38 -73.5 -67t-118.5 -29q-101 0 -171.5 64.5t-70.5 184.5q0 103 67 176.5t170 73.5
q91 0 146.5 -58.5t55.5 -164.5zM413 534h-38q-4 32 -28 54t-67 22t-67 -22t-28 -54h-38q0 61 36 101.5t97 40.5q60 0 96.5 -40.5t36.5 -101.5z" />
    <glyph glyph-name="Idblgrave" unicode="&#x208;" horiz-adv-x="346" 
d="M133 737h-32l-124 75q-27 16 -27 40q0 14 10.5 25t25.5 11q24 0 45 -26zM276 737h-32l-124 75q-27 16 -27 40q0 14 10.5 25t25.5 11q24 0 45 -26zM315 21v-21h-284v21q37 0 59 19.5t22 51.5v511q0 32 -22 51.5t-59 19.5v22h284v-22q-36 0 -58.5 -19.5t-22.5 -51.5v-511
q0 -32 22.5 -51.5t58.5 -19.5z" />
    <glyph glyph-name="idblgrave" unicode="&#x209;" horiz-adv-x="291" 
d="M259 21v-21h-222v21q25 0 39.5 16t14.5 43v319q0 26 -14.5 42.5t-39.5 16.5v21h167v-399q0 -26 15 -42.5t40 -16.5zM54 534h-32l-124 75q-27 16 -27 40q0 14 10.5 25t25.5 11q24 0 45 -26zM197 534h-32l-124 75q-27 16 -27 40q0 14 10.5 25t25.5 11q24 0 45 -26z" />
    <glyph glyph-name="Iinvertedbreve" unicode="&#x20a;" horiz-adv-x="346" 
d="M315 21v-21h-284v21q37 0 59 19.5t22 51.5v511q0 32 -22 51.5t-59 19.5v22h284v-22q-36 0 -58.5 -19.5t-22.5 -51.5v-511q0 -32 22.5 -51.5t58.5 -19.5zM303 738h-38q-4 32 -28 54t-67 22t-67 -22t-28 -54h-38q0 61 36 101.5t97 40.5q60 0 96.5 -40.5t36.5 -101.5z" />
    <glyph glyph-name="iinvertedbreve" unicode="&#x20b;" horiz-adv-x="291" 
d="M259 21v-21h-222v21q25 0 39.5 16t14.5 43v319q0 26 -14.5 42.5t-39.5 16.5v21h167v-399q0 -26 15 -42.5t40 -16.5zM266 534h-38q-4 32 -28 54t-67 22t-67 -22t-28 -54h-38q0 61 36 101.5t97 40.5q60 0 96.5 -40.5t36.5 -101.5z" />
    <glyph glyph-name="Odblgrave" unicode="&#x20c;" horiz-adv-x="731" 
d="M547 348q0 88 -17.5 158.5t-59.5 118t-104 47.5t-104 -47.5t-59.5 -118t-17.5 -158.5t17.5 -158.5t59.5 -118t104 -47.5t104 47.5t59.5 118t17.5 158.5zM678 348q0 -147 -88 -255t-224 -108q-146 0 -229.5 96t-83.5 267q0 147 88.5 255t224.5 108q145 0 228.5 -96.5
t83.5 -266.5zM324 736h-32l-124 75q-27 16 -27 40q0 14 10.5 25t25.5 11q24 0 45 -26zM467 736h-32l-124 75q-27 16 -27 40q0 14 10.5 25t25.5 11q24 0 45 -26z" />
    <glyph glyph-name="odblgrave" unicode="&#x20d;" horiz-adv-x="550" 
d="M387 238q0 212 -112 212t-112 -212q0 -94 26.5 -151.5t85.5 -57.5t85.5 57.5t26.5 151.5zM504 240q0 -111 -59 -180.5t-170 -69.5q-113 0 -171 65.5t-58 184.5q0 105 59 177t170 72q113 0 171 -67.5t58 -181.5zM241 534h-32l-124 75q-27 16 -27 40q0 14 10.5 25t25.5 11
q24 0 45 -26zM384 534h-32l-124 75q-27 16 -27 40q0 14 10.5 25t25.5 11q24 0 45 -26z" />
    <glyph glyph-name="Oinvertedbreve" unicode="&#x20e;" horiz-adv-x="731" 
d="M547 348q0 88 -17.5 158.5t-59.5 118t-104 47.5t-104 -47.5t-59.5 -118t-17.5 -158.5t17.5 -158.5t59.5 -118t104 -47.5t104 47.5t59.5 118t17.5 158.5zM678 348q0 -147 -88 -255t-224 -108q-146 0 -229.5 96t-83.5 267q0 147 88.5 255t224.5 108q145 0 228.5 -96.5
t83.5 -266.5zM504 737h-38q-4 32 -28 54t-67 22t-67 -22t-28 -54h-38q0 61 36 101.5t97 40.5q60 0 96.5 -40.5t36.5 -101.5z" />
    <glyph glyph-name="oinvertedbreve" unicode="&#x20f;" horiz-adv-x="550" 
d="M387 238q0 212 -112 212t-112 -212q0 -94 26.5 -151.5t85.5 -57.5t85.5 57.5t26.5 151.5zM504 240q0 -111 -59 -180.5t-170 -69.5q-113 0 -171 65.5t-58 184.5q0 105 59 177t170 72q113 0 171 -67.5t58 -181.5zM414 534h-38q-4 32 -28 54t-67 22t-67 -22t-28 -54h-38
q0 61 36 101.5t97 40.5q60 0 96.5 -40.5t36.5 -101.5z" />
    <glyph glyph-name="Rdblgrave" unicode="&#x210;" horiz-adv-x="721" 
d="M456 491q0 72 -36.5 118t-105.5 46h-7q-73 0 -73 -59v-254h78q64 0 104 39.5t40 109.5zM711 21v-21h-193l-197 271q-15 21 -31 26.5t-56 5.5v-216q0 -29 21 -47.5t55 -18.5v-21h-279v21q36 0 58.5 19.5t22.5 51.5v511q0 32 -22.5 52t-58.5 20v21h330q108 0 165 -51.5
t57 -127.5q0 -45 -15 -82.5t-39 -60.5t-49 -37t-51 -20v-3l139 -182q29 -38 46.5 -57.5t44 -36.5t52.5 -17zM251 737h-32l-124 75q-27 16 -27 40q0 14 10.5 25t25.5 11q24 0 45 -26zM394 737h-32l-124 75q-27 16 -27 40q0 14 10.5 25t25.5 11q24 0 45 -26z" />
    <glyph glyph-name="rdblgrave" unicode="&#x211;" horiz-adv-x="435" 
d="M202 534h-32l-124 75q-27 16 -27 40q0 14 10.5 25t25.5 11q24 0 45 -26zM345 534h-32l-124 75q-27 16 -27 40q0 14 10.5 25t25.5 11q24 0 45 -26zM416 413q0 -29 -16 -47t-41 -18q-22 0 -35.5 12.5t-13.5 32.5q0 8 2 18.5t2 14.5q0 13 -13 13q-23 0 -51.5 -28.5
t-45.5 -69.5v-261q0 -26 14.5 -42t39.5 -16v-22h-221v22q25 0 39.5 16t14.5 42v319q0 27 -14.5 43t-39.5 16v21h167v-80h3q17 31 51.5 60.5t79.5 29.5q38 0 58 -22.5t20 -53.5z" />
    <glyph glyph-name="Rinvertedbreve" unicode="&#x212;" horiz-adv-x="721" 
d="M456 491q0 72 -36.5 118t-105.5 46h-7q-73 0 -73 -59v-254h78q64 0 104 39.5t40 109.5zM711 21v-21h-193l-197 271q-15 21 -31 26.5t-56 5.5v-216q0 -29 21 -47.5t55 -18.5v-21h-279v21q36 0 58.5 19.5t22.5 51.5v511q0 32 -22.5 52t-58.5 20v21h330q108 0 165 -51.5
t57 -127.5q0 -45 -15 -82.5t-39 -60.5t-49 -37t-51 -20v-3l139 -182q29 -38 46.5 -57.5t44 -36.5t52.5 -17zM430 737h-38q-4 32 -28 54t-67 22t-67 -22t-28 -54h-38q0 61 36 101.5t97 40.5q60 0 96.5 -40.5t36.5 -101.5z" />
    <glyph glyph-name="rinvertedbreve" unicode="&#x213;" horiz-adv-x="435" 
d="M416 413q0 -29 -16 -47t-41 -18q-22 0 -35.5 12.5t-13.5 32.5q0 8 2 18.5t2 14.5q0 13 -13 13q-23 0 -51.5 -28.5t-45.5 -69.5v-261q0 -26 14.5 -42t39.5 -16v-22h-221v22q25 0 39.5 16t14.5 42v319q0 27 -14.5 43t-39.5 16v21h167v-80h3q17 31 51.5 60.5t79.5 29.5
q38 0 58 -22.5t20 -53.5zM353 534h-38q-4 32 -28 54t-67 22t-67 -22t-28 -54h-38q0 61 36 101.5t97 40.5q60 0 96.5 -40.5t36.5 -101.5z" />
    <glyph glyph-name="Udblgrave" unicode="&#x214;" horiz-adv-x="727" 
d="M702 696v-21q-41 0 -64.5 -20t-23.5 -56v-357q0 -126 -69 -191.5t-179 -65.5q-120 0 -190 64.5t-70 203.5v350q0 33 -22 52.5t-59 19.5v21h284v-21q-36 0 -58.5 -20t-22.5 -52v-361q0 -105 41 -161.5t121 -56.5q88 0 136.5 58t48.5 155v362q0 35 -24 55.5t-64 20.5v21
h215zM346 736h-32l-124 75q-27 16 -27 40q0 14 10.5 25t25.5 11q24 0 45 -26zM489 736h-32l-124 75q-27 16 -27 40q0 14 10.5 25t25.5 11q24 0 45 -26z" />
    <glyph glyph-name="udblgrave" unicode="&#x215;" horiz-adv-x="580" 
d="M548 21v-21h-143q-19 27 -24 60h-3q-56 -69 -150 -69q-61 0 -104 34t-43 113v261q0 25 -15.5 42t-38.5 17v21h167v-1v-335q0 -50 24 -72.5t60 -22.5q43 0 73 32t30 77v242q0 25 -15.5 42t-38.5 17v21h167v-399q0 -26 15.5 -42.5t38.5 -16.5zM249 534h-32l-124 75
q-27 16 -27 40q0 14 10.5 25t25.5 11q24 0 45 -26zM392 534h-32l-124 75q-27 16 -27 40q0 14 10.5 25t25.5 11q24 0 45 -26z" />
    <glyph glyph-name="Uinvertedbreve" unicode="&#x216;" horiz-adv-x="727" 
d="M702 696v-21q-41 0 -64.5 -20t-23.5 -56v-357q0 -126 -69 -191.5t-179 -65.5q-120 0 -190 64.5t-70 203.5v350q0 33 -22 52.5t-59 19.5v21h284v-21q-36 0 -58.5 -20t-22.5 -52v-361q0 -105 41 -161.5t121 -56.5q88 0 136.5 58t48.5 155v362q0 35 -24 55.5t-64 20.5v21
h215zM530 736h-38q-4 32 -28 54t-67 22t-67 -22t-28 -54h-38q0 61 36 101.5t97 40.5q60 0 96.5 -40.5t36.5 -101.5z" />
    <glyph glyph-name="uinvertedbreve" unicode="&#x217;" horiz-adv-x="580" 
d="M548 21v-21h-143q-19 27 -24 60h-3q-56 -69 -150 -69q-61 0 -104 34t-43 113v261q0 25 -15.5 42t-38.5 17v21h167v-1v-335q0 -50 24 -72.5t60 -22.5q43 0 73 32t30 77v242q0 25 -15.5 42t-38.5 17v21h167v-399q0 -26 15.5 -42.5t38.5 -16.5zM417 534h-38q-4 32 -28 54
t-67 22t-67 -22t-28 -54h-38q0 61 36 101.5t97 40.5q60 0 96.5 -40.5t36.5 -101.5z" />
    <glyph glyph-name="Scommaaccent" unicode="&#x218;" horiz-adv-x="574" 
d="M521 190q0 -94 -63.5 -149.5t-165.5 -55.5q-84 0 -182 57q-20 -12 -32 -42h-25v217h25q18 -38 35.5 -66.5t44 -61.5t60.5 -51t72 -18q54 0 88 34.5t34 90.5q0 85 -97 134l-140 70q-122 60 -122 171q0 82 60.5 136.5t147.5 54.5q70 0 146 -41q8 4 18.5 17t15.5 24h26v-222
h-26q-19 46 -32 72.5t-34 56t-47.5 42.5t-60.5 13q-52 0 -83 -31t-31 -76q0 -67 74 -105l160 -81q134 -69 134 -190zM366 -132q0 -106 -101 -154q-11 -5 -15 1.5t6 13.5q23 16 39.5 38.5t16.5 42.5q0 21 -20 21q-24 0 -41.5 17t-17.5 44q0 25 18.5 44.5t44.5 19.5
q32 0 51 -25.5t19 -62.5z" />
    <glyph glyph-name="scommaaccent" unicode="&#x219;" horiz-adv-x="460" 
d="M423 138q0 -64 -48 -106t-131 -42q-75 0 -147 41l-23 -31h-23v176h36q65 -154 162 -154q39 0 61.5 21.5t22.5 55.5q0 29 -19 49t-64 35q-82 28 -104 37q-95 32 -95 124q0 60 46.5 102.5t121.5 42.5q58 0 115 -30q20 4 32 25h26v-156h-37q-50 129 -138 129
q-36 0 -58 -20.5t-22 -49.5q0 -50 55 -68l103 -35q128 -43 128 -146zM321 -132q0 -106 -101 -154q-11 -5 -15 1.5t6 13.5q23 16 39.5 38.5t16.5 42.5q0 21 -20 21q-24 0 -41.5 17t-17.5 44q0 25 18.5 44.5t44.5 19.5q32 0 51 -25.5t19 -62.5z" />
    <glyph glyph-name="circumflex" unicode="&#x2c6;" horiz-adv-x="470" 
d="M104 553l127 117h11l127 -117q6 -6 6 -11t-5 -7.5t-10 -0.5l-122 60h-3l-122 -60q-5 -2 -10 0.5t-5 7.5t6 11z" />
    <glyph glyph-name="caron" unicode="&#x2c7;" horiz-adv-x="470" 
d="M369 651l-127 -117h-11l-127 117q-6 6 -6 11t5 7.5t10 0.5l122 -60h3l122 60q5 2 10 -0.5t5 -7.5t-6 -11z" />
    <glyph glyph-name="breve" unicode="&#x2d8;" horiz-adv-x="470" 
d="M329 676h39q0 -60 -36.5 -101t-96.5 -41q-61 0 -97 41t-36 101h38q3 -31 27 -53t68 -22q43 0 67 22t27 53z" />
    <glyph glyph-name="dotaccent" unicode="&#x2d9;" horiz-adv-x="470" 
d="M300 600q0 -28 -19 -47t-46 -19q-28 0 -47 19t-19 47q0 27 19 46.5t47 19.5q27 0 46 -19.5t19 -46.5z" />
    <glyph glyph-name="ring" unicode="&#x2da;" horiz-adv-x="470" 
d="M291 647q0 23 -16.5 39.5t-39.5 16.5t-39.5 -16.5t-16.5 -39.5t16.5 -39.5t39.5 -16.5t39.5 16.5t16.5 39.5zM347 647q0 -47 -32.5 -80t-79.5 -33t-80 33t-33 80t33 80t80 33t79.5 -33t32.5 -80z" />
    <glyph glyph-name="ogonek" unicode="&#x2db;" horiz-adv-x="470" 
d="M354 -177q0 -9 -14 -19q-40 -29 -93 -29q-57 0 -87 25t-30 65q0 33 21 65t39.5 47.5t37.5 26.5h61q-84 -69 -84 -138q0 -26 16 -40t44 -14q32 0 68 19q11 4 16 1t5 -9z" />
    <glyph glyph-name="tilde" unicode="&#x2dc;" horiz-adv-x="470" 
d="M353 630h35q-17 -93 -85 -93q-16 0 -70.5 13.5t-72.5 13.5q-32 0 -45 -29h-34q15 93 83 93q17 0 71.5 -13.5t73.5 -13.5q32 0 44 29z" />
    <glyph glyph-name="hungarumlaut" unicode="&#x2dd;" horiz-adv-x="470" 
d="M258 649q0 -23 -28 -40l-123 -75h-32l101 125q21 26 45 26q15 0 26 -11t11 -25zM401 649q0 -23 -28 -40l-123 -75h-32l101 125q21 26 45 26q15 0 26 -11t11 -25z" />
    <glyph glyph-name="invertedbreve" unicode="&#x311;" horiz-adv-x="470" 
d="M368 534h-38q-4 32 -28 54t-67 22t-67 -22t-28 -54h-38q0 61 36 101.5t97 40.5q60 0 96.5 -40.5t36.5 -101.5z" />
    <glyph glyph-name="tonos" unicode="&#x384;" horiz-adv-x="435" 
d="M260 665q0 -12 -5.5 -30t-11 -30.5t-17.5 -37.5t-16 -35q-8 -18 -25 -18q-22 0 -22 19q0 67 3 113q3 61 51 61q19 0 31 -11t12 -31z" />
    <glyph glyph-name="dieresistonos" unicode="&#x385;" horiz-adv-x="435" 
d="M279 665q0 -12 -5.5 -30t-11 -30.5t-17.5 -37.5t-16 -35q-8 -18 -25 -18q-22 0 -22 19q0 67 3 113q3 61 51 61q19 0 31 -11t12 -31zM156 582q0 -23 -17.5 -40.5t-42.5 -17.5t-42.5 17t-17.5 41t17.5 40.5t42.5 16.5t42.5 -17t17.5 -40zM404 582q0 -24 -17.5 -41
t-42.5 -17t-42.5 17t-17.5 41t17.5 40.5t42.5 16.5t42.5 -16.5t17.5 -40.5z" />
    <glyph glyph-name="Alphatonos" unicode="&#x386;" horiz-adv-x="738" 
d="M232 278h197l-98 241h-6zM728 21v-21h-268v21q27 0 38.5 13.5t10.5 29t-8 33.5l-57 142h-227l-53 -133q-33 -85 50 -85v-21h-204v21q37 0 66 25t43 61l240 595h31l242 -600q32 -81 96 -81zM450 886q0 -12 -5.5 -30t-11 -30.5t-17.5 -37.5t-16 -35q-8 -18 -25 -18
q-22 0 -22 19q0 66 3 113q3 61 51 61q19 0 31 -11t12 -31z" />
    <glyph glyph-name="Epsilontonos" unicode="&#x388;" horiz-adv-x="588" 
d="M388 887q0 -12 -5.5 -30t-11 -30.5t-17.5 -37.5t-16 -35q-8 -18 -25 -18q-22 0 -22 19q0 67 3 113q3 61 51 61q19 0 31 -11t12 -31zM549 190v-190h-518v21q36 0 58.5 19.5t22.5 51.5v511q0 32 -22.5 52t-58.5 20v21h495v-182h-23q-33 90 -62.5 116t-98.5 26h-11
q-35 0 -52.5 -2.5t-30.5 -15.5t-13 -39v-216h78q35 0 62.5 26.5t27.5 69.5h23v-230h-23q0 43 -27.5 69.5t-62.5 26.5h-78v-249q0 -31 17.5 -44.5t54.5 -13.5h21q33 0 55.5 2t41.5 10t30 16t24.5 29t22 39t25.5 56h22z" />
    <glyph glyph-name="Etatonos" unicode="&#x389;" horiz-adv-x="768" 
d="M736 21v-21h-278v21q34 0 54.5 18t20.5 48v260h-299v-260q0 -29 21 -47.5t55 -18.5v-21h-279v21q37 0 59 19.5t22 51.5v511q0 32 -22 52t-59 20v21h279v-21q-34 0 -55 -19t-21 -48v-223h299v223q0 30 -20.5 48.5t-54.5 18.5v21h278v-21q-36 0 -58.5 -20t-22.5 -52v-511
q0 -32 22.5 -51.5t58.5 -19.5zM465 885q0 -12 -5.5 -30t-11 -30.5t-17.5 -37.5t-16 -35q-8 -18 -25 -18q-22 0 -22 19q0 67 3 113q3 61 51 61q19 0 31 -11t12 -31z" />
    <glyph glyph-name="Iotatonos" unicode="&#x38a;" horiz-adv-x="347" 
d="M315 21v-21h-284v21q37 0 59 19.5t22 51.5v511q0 32 -22 51.5t-59 19.5v22h284v-22q-36 0 -58.5 -19.5t-22.5 -51.5v-511q0 -32 22.5 -51.5t58.5 -19.5zM254 886q0 -12 -5.5 -30t-11 -30.5t-17.5 -37.5t-16 -35q-8 -18 -25 -18q-22 0 -22 19q0 66 3 113q3 61 51 61
q19 0 31 -11t12 -31z" />
    <glyph glyph-name="Omicrontonos" unicode="&#x38c;" horiz-adv-x="731" 
d="M447 886q0 -12 -5.5 -30t-11 -30.5t-17.5 -37.5t-16 -35q-8 -18 -25 -18q-22 0 -22 19q0 66 3 113q3 61 51 61q19 0 31 -11t12 -31zM547 348q0 88 -17.5 158.5t-59.5 118t-104 47.5t-104 -47.5t-59.5 -118t-17.5 -158.5t17.5 -158.5t59.5 -118t104 -47.5t104 47.5
t59.5 118t17.5 158.5zM678 348q0 -147 -88 -255t-224 -108q-146 0 -229.5 96t-83.5 267q0 147 88.5 255t224.5 108q145 0 228.5 -96.5t83.5 -266.5z" />
    <glyph glyph-name="Upsilontonos" unicode="&#x38e;" horiz-adv-x="629" 
d="M434 886q0 -12 -5.5 -30t-11 -30.5t-17.5 -37.5t-16 -35q-8 -18 -25 -18q-22 0 -22 19q0 66 3 113q3 61 51 61q19 0 31 -11t12 -31zM617 696v-21q-42 0 -63 -17t-44 -70l-133 -305v-191q0 -32 22 -51.5t58 -19.5v-21h-283v21q37 0 59 19.5t22 51.5v169l-145 332
q-21 48 -41.5 65t-58.5 17v21h68q72 0 102 -18.5t54 -71.5l121 -269h3l98 264q21 57 41.5 76t60.5 19h59z" />
    <glyph glyph-name="Omegatonos" unicode="&#x38f;" horiz-adv-x="817" 
d="M771 190v-190h-313v112q57 38 95 119t38 173q0 68 -18.5 127t-61.5 99.5t-102 40.5t-102 -40.5t-62 -99.5t-19 -127q0 -92 38.5 -173t94.5 -119v-112h-313v190h24q16 -46 30 -57t55 -11h113v14q-73 37 -123.5 106t-50.5 160q0 125 89 217t226 92q136 0 225 -92t89 -217
q0 -91 -50.5 -160t-123.5 -106v-14h113q41 0 55 11t30 57h24zM489 886q0 -12 -5.5 -30t-11 -30.5t-17.5 -37.5t-16 -35q-8 -18 -25 -18q-22 0 -22 19q0 66 3 113q3 61 51 61q19 0 31 -11t12 -31z" />
    <glyph glyph-name="iotadieresistonos" unicode="&#x390;" horiz-adv-x="312" 
d="M336 67q-4 -23 -37 -50t-87 -27q-121 0 -121 131v274q0 63 -55 63v21q43 10 87 10q46 0 63.5 -17t17.5 -59v-320q0 -60 46 -60q35 0 65 43q7 11 17 5q6 -3 4 -14zM200 684q0 -12 -5.5 -30t-11 -30.5t-17.5 -37.5t-16 -35q-8 -18 -25 -18q-22 0 -22 19q0 66 3 113
q3 61 51 61q19 0 31 -11t12 -31zM77 601q0 -23 -17.5 -40.5t-42.5 -17.5t-42.5 17t-17.5 41t17.5 40.5t42.5 16.5t42.5 -17t17.5 -40zM325 601q0 -24 -17.5 -41t-42.5 -17t-42.5 17t-17.5 41t17.5 40.5t42.5 16.5t42.5 -16.5t17.5 -40.5z" />
    <glyph glyph-name="Alpha" unicode="&#x391;" horiz-adv-x="738" 
d="M232 278h197l-98 241h-6zM728 21v-21h-268v21q27 0 38.5 13.5t10.5 29t-8 33.5l-57 142h-227l-53 -133q-33 -85 50 -85v-21h-204v21q37 0 66 25t43 61l240 595h31l242 -600q32 -81 96 -81z" />
    <glyph glyph-name="Beta" unicode="&#x392;" horiz-adv-x="635" 
d="M457 182q0 69 -39.5 113t-114.5 48l-69 3v-245q0 -44 16 -53t84 -9q60 0 91.5 38.5t31.5 104.5zM435 530q0 57 -31.5 92t-87.5 35h-17q-37 0 -51 -13.5t-14 -47.5v-211h57q75 0 109.5 42t34.5 103zM589 195q0 -84 -61 -139.5t-170 -55.5h-327v21q36 0 58.5 19.5
t22.5 51.5v511q0 32 -22.5 52t-58.5 20v21h313q98 0 150 -43.5t52 -117.5q0 -50 -29.5 -91t-84.5 -63v-2q73 -20 115 -70t42 -114z" />
    <glyph glyph-name="Gamma" unicode="&#x393;" horiz-adv-x="544" 
d="M535 696v-182h-25q-29 86 -53.5 114.5t-74.5 28.5h-85q-63 0 -63 -58v-507q0 -32 22 -51.5t59 -19.5v-21h-284v21q36 0 58.5 19.5t22.5 51.5v511q0 32 -22.5 52t-58.5 20v21h504z" />
    <glyph glyph-name="Delta" unicode="&#x394;" horiz-adv-x="719" 
d="M123 39h388l-195 480h-6zM651 21v-21h-583v21l276 681h31z" />
    <glyph glyph-name="Delta" unicode="&#x2206;" horiz-adv-x="719" 
d="M123 39h388l-195 480h-6zM651 21v-21h-583v21l276 681h31z" />
    <glyph glyph-name="Epsilon" unicode="&#x395;" horiz-adv-x="588" 
d="M549 190v-190h-518v21q36 0 58.5 19.5t22.5 51.5v511q0 32 -22.5 52t-58.5 20v21h495v-182h-23q-33 90 -62.5 116t-98.5 26h-11q-35 0 -52.5 -2.5t-30.5 -15.5t-13 -39v-216h78q35 0 62.5 26.5t27.5 69.5h23v-230h-23q0 43 -27.5 69.5t-62.5 26.5h-78v-249
q0 -31 17.5 -44.5t54.5 -13.5h21q33 0 55.5 2t41.5 10t30 16t24.5 29t22 39t25.5 56h22z" />
    <glyph glyph-name="Zeta" unicode="&#x396;" horiz-adv-x="558" 
d="M518 180v-180h-484v21l340 632v4h-155q-55 0 -82 -27.5t-53 -103.5h-23v170h457v-21l-342 -634v-2h153q76 0 101.5 22.5t56.5 97.5l9 21h22z" />
    <glyph glyph-name="Eta" unicode="&#x397;" horiz-adv-x="768" 
d="M736 21v-21h-278v21q34 0 54.5 18t20.5 48v260h-299v-260q0 -29 21 -47.5t55 -18.5v-21h-279v21q37 0 59 19.5t22 51.5v511q0 32 -22 52t-59 20v21h279v-21q-34 0 -55 -19t-21 -48v-223h299v223q0 30 -20.5 48.5t-54.5 18.5v21h278v-21q-36 0 -58.5 -20t-22.5 -52v-511
q0 -32 22.5 -51.5t58.5 -19.5z" />
    <glyph glyph-name="Theta" unicode="&#x398;" horiz-adv-x="731" 
d="M493 461v-227h-35q-1 4 -3 15t-3 14.5t-3.5 12t-5.5 11.5t-8 8.5t-11 7.5t-15 3.5t-20 1.5h-48q-20 0 -33 -4.5t-19.5 -14t-9 -20.5t-5.5 -27q-1 -5 -1 -8h-35v227h35q7 -47 17 -59q15 -15 47 -15h52q11 0 20 1.5t15 3.5t11 7.5t8 8t5.5 11.5t3.5 11.5t3 15t3 15.5h35z
M547 348q0 88 -17.5 158.5t-59.5 118t-104 47.5t-104 -47.5t-59.5 -118t-17.5 -158.5t17.5 -158.5t59.5 -118t104 -47.5t104 47.5t59.5 118t17.5 158.5zM678 348q0 -147 -88 -255t-224 -108q-146 0 -229.5 96t-83.5 267q0 147 88.5 255t224.5 108q145 0 228.5 -96.5
t83.5 -266.5z" />
    <glyph glyph-name="Iota" unicode="&#x399;" horiz-adv-x="347" 
d="M315 21v-21h-284v21q37 0 59 19.5t22 51.5v511q0 32 -22 51.5t-59 19.5v22h284v-22q-36 0 -58.5 -19.5t-22.5 -51.5v-511q0 -32 22.5 -51.5t58.5 -19.5z" />
    <glyph glyph-name="Kappa" unicode="&#x39a;" horiz-adv-x="725" 
d="M710 21v-21h-188l-220 308q-20 28 -30 33.5t-37 4.5v-259q0 -29 20.5 -47.5t54.5 -18.5v-21h-279v21q37 0 59 19.5t22 51.5v511q0 32 -22 52t-59 20v21h279v-21q-34 0 -54.5 -19t-20.5 -48v-223q44 0 63 7.5t41 35.5l130 162q22 27 29.5 45t-1 29t-36.5 11v21h219v-22
q-34 0 -62 -13t-45 -29t-50 -54l-150 -169v-3l200 -268q3 -4 16 -22t18 -23.5t17 -20t19.5 -20.5t19 -14.5t23 -12t24.5 -4.5z" />
    <glyph glyph-name="Lambda" unicode="&#x39b;" horiz-adv-x="738" 
d="M501 97l-170 422h-6l-161 -413q-33 -85 50 -85v-21h-204v21q37 0 66 25t43 61l240 595h31l242 -600q32 -81 96 -81v-21h-268v21q27 0 38.5 13.5t10.5 29t-8 33.5z" />
    <glyph glyph-name="Mu" unicode="&#x39c;" horiz-adv-x="902" 
d="M871 21v-21h-279v21q34 0 55 18.5t21 47.5v501h-4l-238 -564q-4 -9 -10 -9t-10 9l-251 564h-4v-492q0 -35 24 -55t63 -20v-21h-214v21q41 0 64.5 19.5t23.5 55.5v507q0 32 -22 52t-59 20v21h206l219 -495h3l205 495h207v-21q-37 0 -59 -20t-22 -52v-511q0 -32 22 -51.5
t59 -19.5z" />
    <glyph glyph-name="Nu" unicode="&#x39d;" horiz-adv-x="751" 
d="M727 696v-22q-41 0 -64.5 -19.5t-23.5 -55.5v-599h-37l-446 561h-4v-465q0 -35 24 -55t64 -20v-21h-216v21q41 0 65 19.5t24 55.5v507q0 32 -22.5 52t-59.5 20v21h170l395 -504h4v407q0 35 -24.5 55t-63.5 20v22h215z" />
    <glyph glyph-name="Xi" unicode="&#x39e;" horiz-adv-x="661" 
d="M614 190v-190h-567v190h24q15 -58 41.5 -72t103.5 -14h229q76 0 102.5 13.5t42.5 72.5h24zM481 461v-227h-35q-1 4 -3 15t-3 14.5t-3.5 12t-5.5 11.5t-8 8.5t-11 7.5t-15 3.5t-20 1.5h-97q-45 0 -57 -30q-3 -9 -9 -44h-35v227h35q3 -22 5 -31t8.5 -21.5t19 -17t33.5 -4.5
h97q21 0 34 5t20 17.5t9.5 22t5.5 29.5h35zM614 696v-190h-24q-17 57 -42 71t-97 14h-241q-72 0 -98 -14.5t-41 -70.5h-24v190h567z" />
    <glyph glyph-name="Omicron" unicode="&#x39f;" horiz-adv-x="731" 
d="M547 348q0 88 -17.5 158.5t-59.5 118t-104 47.5t-104 -47.5t-59.5 -118t-17.5 -158.5t17.5 -158.5t59.5 -118t104 -47.5t104 47.5t59.5 118t17.5 158.5zM678 348q0 -147 -88 -255t-224 -108q-146 0 -229.5 96t-83.5 267q0 147 88.5 255t224.5 108q145 0 228.5 -96.5
t83.5 -266.5z" />
    <glyph glyph-name="Pi" unicode="&#x3a0;" horiz-adv-x="751" 
d="M719 21v-21h-278v21q34 0 54.5 18t20.5 48v512q0 58 -63 58h-155q-64 0 -64 -58v-512q0 -29 21 -47.5t55 -18.5v-21h-279v21q37 0 59 19.5t22 51.5v511q0 32 -22 52t-59 20v21h688v-21q-36 0 -58.5 -20t-22.5 -52v-511q0 -32 22.5 -51.5t58.5 -19.5z" />
    <glyph glyph-name="Rho" unicode="&#x3a1;" horiz-adv-x="626" 
d="M337 300h-103v-213q0 -29 21 -47.5t55 -18.5v-21h-279v21q37 0 59 19.5t22 51.5v511q0 32 -22 52t-59 20v21h331q106 0 163.5 -57t57.5 -134q0 -100 -68.5 -152.5t-177.5 -52.5zM325 654h-18q-73 0 -73 -58v-258h69q73 1 113 41.5t40 113.5q0 65 -33 113t-98 48z" />
    <glyph glyph-name="Sigma" unicode="&#x3a3;" horiz-adv-x="628" 
d="M578 190v-190h-553v21q23 0 45 15t32.5 28t28.5 38l149 208l-153 283q-43 81 -102 81v22h525v-182h-23q-27 82 -58.5 112.5t-103.5 30.5h-78q-56 0 -22 -64l118 -220l-139 -191q-14 -19 -20 -28t-8 -17.5t4.5 -11.5t21.5 -3h194q60 0 81.5 12t36.5 56h24z" />
    <glyph glyph-name="Tau" unicode="&#x3a4;" horiz-adv-x="579" 
d="M570 696v-182h-25q-29 86 -53.5 114.5t-74.5 28.5h-10q-56 0 -56 -63v-502q0 -32 22 -51.5t59 -19.5v-21h-284v21q36 0 58 19.5t22 51.5v502q0 63 -55 63h-11q-49 0 -73.5 -28.5t-54.5 -114.5h-25v182h561z" />
    <glyph glyph-name="Upsilon" unicode="&#x3a5;" horiz-adv-x="627" 
d="M617 696v-21q-42 0 -63 -17t-44 -70l-133 -305v-191q0 -32 22 -51.5t58 -19.5v-21h-283v21q37 0 59 19.5t22 51.5v169l-145 332q-21 48 -41.5 65t-58.5 17v21h68q72 0 102 -18.5t54 -71.5l121 -269h3l98 264q21 57 41.5 76t60.5 19h59z" />
    <glyph glyph-name="Phi" unicode="&#x3a6;" horiz-adv-x="886" 
d="M382 39v562q-91 -4 -144 -83t-53 -198q0 -140 55 -209t142 -72zM504 601v-562q87 3 142 72t55 209q0 119 -53 198t-144 83zM504 0v-10q0 -28 23 -49.5t58 -21.5v-21h-284v21q34 0 57.5 22t23.5 49v10q-148 7 -238.5 97.5t-90.5 222.5q0 137 84 224t245 96v9
q0 28 -23 49.5t-58 21.5v21h284v-21q-36 0 -58.5 -21t-22.5 -50v-9q161 -9 245 -96t84 -224q0 -132 -90.5 -222.5t-238.5 -97.5z" />
    <glyph glyph-name="Chi" unicode="&#x3a7;" horiz-adv-x="687" 
d="M678 0h-281v21q27 1 36.5 11t5.5 26.5t-20 43.5l-104 178h-3l-117 -181q-25 -34 -18.5 -55.5t52.5 -22.5v-21h-220v21q41 1 74.5 26t69.5 76l139 198l-151 261q-28 49 -58 71t-73 22v21h286v-21q-23 0 -33.5 -7t-7 -24.5t8 -27.5t17.5 -33q1 -3 2 -4l85 -152h4l98 165
q48 79 -32 83v21h229v-22q-48 0 -81 -25t-67 -73l-129 -183l150 -259q33 -57 64 -84.5t74 -28.5v-21z" />
    <glyph glyph-name="Psi" unicode="&#x3a8;" horiz-adv-x="792" 
d="M775 644q0 -26 -18 -40.5t-50 -14.5q-35 0 -51.5 -20t-27.5 -92q-6 -37 -18.5 -110.5t-18.5 -109.5h-117v-165q0 -32 22 -51.5t59 -19.5v-21h-284v21q36 0 58.5 19.5t22.5 51.5v165h-202l-50 328q-15 92 -90 92v19h62q77 0 109.5 -27.5t43.5 -96.5l42 -276h85v307
q0 32 -22.5 51.5t-58.5 19.5v22h284v-22q-37 0 -59 -19.5t-22 -51.5v-307h84l35 231q14 90 43 131.5t78 41.5q28 0 44.5 -16t16.5 -40z" />
    <glyph glyph-name="Omega" unicode="&#x3a9;" horiz-adv-x="817" 
d="M771 190v-190h-313v112q57 38 95 119t38 173q0 68 -18.5 127t-61.5 99.5t-102 40.5t-102 -40.5t-62 -99.5t-19 -127q0 -92 38.5 -173t94.5 -119v-112h-313v190h24q16 -46 30 -57t55 -11h113v14q-73 37 -123.5 106t-50.5 160q0 125 89 217t226 92q136 0 225 -92t89 -217
q0 -91 -50.5 -160t-123.5 -106v-14h113q41 0 55 11t30 57h24z" />
    <glyph glyph-name="Omega" unicode="&#x2126;" horiz-adv-x="817" 
d="M771 190v-190h-313v112q57 38 95 119t38 173q0 68 -18.5 127t-61.5 99.5t-102 40.5t-102 -40.5t-62 -99.5t-19 -127q0 -92 38.5 -173t94.5 -119v-112h-313v190h24q16 -46 30 -57t55 -11h113v14q-73 37 -123.5 106t-50.5 160q0 125 89 217t226 92q136 0 225 -92t89 -217
q0 -91 -50.5 -160t-123.5 -106v-14h113q41 0 55 11t30 57h24z" />
    <glyph glyph-name="Iotadieresis" unicode="&#x3aa;" horiz-adv-x="347" 
d="M315 21v-21h-284v21q37 0 59 19.5t22 51.5v511q0 32 -22 51.5t-59 19.5v22h284v-22q-36 0 -58.5 -19.5t-22.5 -51.5v-511q0 -32 22.5 -51.5t58.5 -19.5zM145 807q0 -28 -19 -47t-47 -19q-27 0 -46 19t-19 47q0 27 19 46.5t46 19.5q28 0 47 -19.5t19 -46.5zM332 807
q0 -28 -19 -47t-46 -19q-28 0 -47 19t-19 47q0 27 19 46.5t47 19.5q27 0 46 -19.5t19 -46.5z" />
    <glyph glyph-name="Upsilondieresis" unicode="&#x3ab;" horiz-adv-x="627" 
d="M617 696v-21q-42 0 -63 -17t-44 -70l-133 -305v-191q0 -32 22 -51.5t58 -19.5v-21h-283v21q37 0 59 19.5t22 51.5v169l-145 332q-21 48 -41.5 65t-58.5 17v21h68q72 0 102 -18.5t54 -71.5l121 -269h3l98 264q21 57 41.5 76t60.5 19h59zM314 807q0 -28 -19 -47t-47 -19
q-27 0 -46 19t-19 47q0 27 19 46.5t46 19.5q28 0 47 -19.5t19 -46.5zM501 807q0 -28 -19 -47t-46 -19q-28 0 -47 19t-19 47q0 27 19 46.5t47 19.5q27 0 46 -19.5t19 -46.5z" />
    <glyph glyph-name="alphatonos" unicode="&#x3ac;" horiz-adv-x="652" 
d="M375 214l19 62q-40 101 -60 129q-31 45 -71 45q-100 0 -100 -210q0 -92 25.5 -151.5t71.5 -59.5q36 0 59 39.5t56 145.5zM629 102q0 -1 -2 -11q-26 -100 -77 -100q-28 0 -43.5 21.5t-36.5 75.5l-13 33q-67 -130 -205 -130q-96 0 -151 63.5t-55 185.5q0 109 53 179t144 70
q61 0 103.5 -43t65.5 -112l45 145h118l-96 -308l10 -26q18 -40 33 -60t35 -20q16 0 28 12t20 24t14 12q10 0 10 -11zM397 684q1 -17 -17 -58l-37 -83q-9 -8 -24 -8q-19 0 -19 16v29q-1 40 0 59t5.5 43t16.5 34t32 10q19 0 31 -11t12 -31z" />
    <glyph glyph-name="epsilontonos" unicode="&#x3ad;" horiz-adv-x="495" 
d="M348 683q0 -12 -5.5 -30t-11 -30.5t-17.5 -37.5t-16 -35q-8 -18 -25 -18q-22 0 -22 19q0 67 3 113q3 61 51 61q19 0 31 -11t12 -31zM471 87q0 -41 -60 -69t-143 -28q-108 0 -165 41t-57 106q0 39 22.5 73t59.5 52v2q-56 34 -56 90q0 54 54.5 94.5t143.5 40.5
q72 0 122 -25.5t50 -62.5q0 -17 -12 -30t-32 -13q-18 0 -33 14.5t-25.5 31.5t-30.5 31.5t-46 14.5q-38 0 -62.5 -25t-24.5 -59q0 -42 29.5 -67.5t81.5 -25.5h33v-38h-33q-61 0 -92.5 -29.5t-31.5 -74.5q0 -47 29.5 -74.5t80.5 -27.5q33 0 56 16t34 34.5t27.5 34.5t37.5 16
q19 0 31 -12t12 -31z" />
    <glyph glyph-name="etatonos" unicode="&#x3ae;" horiz-adv-x="590" 
d="M503 339v-566h-113v564q0 38 -22.5 66t-62.5 28q-43 0 -72 -32t-29 -74v-325h-113v395q0 63 -54 63q0 4 -0.5 11t-0.5 10q40 10 87 10q51 0 66 -19.5t15 -56.5h2q59 76 151 76q33 0 64 -12t56.5 -48t25.5 -90zM366 683q0 -12 -5.5 -30t-11 -30.5t-17.5 -37.5t-16 -35
q-8 -18 -25 -18q-22 0 -22 19q0 67 3 113q3 61 51 61q19 0 31 -11t12 -31z" />
    <glyph glyph-name="iotatonos" unicode="&#x3af;" horiz-adv-x="316" 
d="M336 67q-4 -23 -37 -50t-87 -27q-121 0 -121 131v274q0 63 -55 63v21q43 10 87 10q46 0 63.5 -17t17.5 -59v-320q0 -60 46 -60q35 0 65 43q7 11 17 5q6 -3 4 -14zM217 684q0 -12 -5.5 -30t-11 -30.5t-17.5 -37.5t-16 -35q-8 -18 -25 -18q-22 0 -22 19q0 66 3 113
q3 61 51 61q19 0 31 -11t12 -31z" />
    <glyph glyph-name="upsilondieresistonos" unicode="&#x3b0;" horiz-adv-x="559" 
d="M513 282q0 -116 -77.5 -204t-203.5 -88q-141 0 -141 147v258q0 63 -55 63v21q41 10 87 10q48 0 64.5 -19t16.5 -57v-279q0 -96 70 -96q55 0 90.5 59t35.5 178q0 59 -13.5 99t-29 57t-42.5 37v21q97 0 147.5 -54t50.5 -153zM344 684q0 -12 -5.5 -30t-11 -30.5t-17.5 -37.5
t-16 -35q-8 -18 -25 -18q-22 0 -22 19q0 66 3 113q3 61 51 61q19 0 31 -11t12 -31zM221 601q0 -23 -17.5 -40.5t-42.5 -17.5t-42.5 17t-17.5 41t17.5 40.5t42.5 16.5t42.5 -17t17.5 -40zM469 601q0 -24 -17.5 -41t-42.5 -17t-42.5 17t-17.5 41t17.5 40.5t42.5 16.5
t42.5 -16.5t17.5 -40.5z" />
    <glyph glyph-name="alpha" unicode="&#x3b1;" horiz-adv-x="652" 
d="M375 214l19 62q-40 101 -60 129q-31 45 -71 45q-100 0 -100 -210q0 -92 25.5 -151.5t71.5 -59.5q36 0 59 39.5t56 145.5zM629 102q0 -1 -2 -11q-26 -100 -77 -100q-28 0 -43.5 21.5t-36.5 75.5l-13 33q-67 -130 -205 -130q-96 0 -151 63.5t-55 185.5q0 109 53 179t144 70
q61 0 103.5 -43t65.5 -112l45 145h118l-96 -308l10 -26q31 -80 68 -80q16 0 28 12t20 24t14 12q10 0 10 -11z" />
    <glyph glyph-name="beta" unicode="&#x3b2;" horiz-adv-x="593" 
d="M429 202q0 172 -124 172h-51v39h91q50 29 50 145q0 59 -23 93t-67 34q-101 0 -101 -178v-314q0 -86 40.5 -125t86.5 -39q48 0 73 46t25 127zM547 211q0 -105 -56 -163t-144 -58q-49 0 -87.5 21.5t-52.5 49.5h-3v-48q0 -43 3.5 -115t3.5 -83q0 -57 -64 -57q-63 0 -63 57
q0 12 3.5 83.5t3.5 114.5v476q0 116 63.5 175t156.5 59q87 0 136.5 -49.5t49.5 -118.5q0 -49 -24 -91t-68 -60v-2q67 -19 104.5 -69.5t37.5 -121.5z" />
    <glyph glyph-name="gamma" unicode="&#x3b3;" horiz-adv-x="496" 
d="M450 395q1 -127 -107 -298l-35 -55v-15q0 -117 -9 -175t-26 -76t-52 -18q-29 0 -45 16t-16 43q0 32 19.5 95t24.5 86q-1 132 -46.5 270.5t-89.5 173.5q-24 19 -58 19q0 3 -0.5 9t-0.5 9q37 10 92 10t85 -30q38 -38 72.5 -144t46.5 -215l14 23q61 100 61 209
q0 35 -14 67.5t-14 48.5q0 17 12 29t30 12q56 0 56 -94z" />
    <glyph glyph-name="delta" unicode="&#x3b4;" horiz-adv-x="550" 
d="M387 197q0 107 -116 190l-19 14q-38 -25 -63.5 -74t-25.5 -111q0 -94 31.5 -140.5t80.5 -46.5q50 0 81 45t31 123zM504 221q0 -98 -64 -164.5t-168 -66.5q-97 0 -161.5 58.5t-64.5 158.5q0 77 46 136t122 84l-25 18q-83 59 -83 131q0 61 48.5 104.5t127.5 43.5
q69 0 108.5 -24t39.5 -55q0 -19 -11.5 -32t-32.5 -13q-16 0 -33 14t-29 30t-32 30t-42 14q-27 0 -45.5 -19t-18.5 -43q0 -29 19.5 -50t70.5 -57l91 -63q137 -94 137 -235z" />
    <glyph glyph-name="epsilon" unicode="&#x3b5;" horiz-adv-x="495" 
d="M471 87q0 -41 -60 -69t-143 -28q-108 0 -165 41t-57 106q0 39 22.5 73t59.5 52v2q-56 34 -56 90q0 54 54.5 94.5t143.5 40.5q72 0 122 -25.5t50 -62.5q0 -17 -12 -30t-32 -13q-18 0 -33 14.5t-25.5 31.5t-30.5 31.5t-46 14.5q-38 0 -62.5 -25t-24.5 -59q0 -42 29.5 -67.5
t81.5 -25.5h33v-38h-33q-61 0 -92.5 -29.5t-31.5 -74.5q0 -47 29.5 -74.5t80.5 -27.5q33 0 56 16t34 34.5t27.5 34.5t37.5 16q19 0 31 -12t12 -31z" />
    <glyph glyph-name="zeta" unicode="&#x3b6;" horiz-adv-x="513" 
d="M477 -43q0 -89 -54 -144t-145 -55q-61 0 -90.5 22.5t-29.5 50.5q0 20 14.5 35.5t36.5 15.5q21 0 57.5 -26.5t74.5 -26.5q43 0 66.5 26t23.5 66q0 34 -22.5 56.5t-69.5 22.5h-86q-100 0 -148.5 52.5t-48.5 138.5q0 91 43 189t110 183q-45 5 -72 26.5t-27 56.5q0 30 24 54
t39 24q8 0 8 -7q0 -3 -16.5 -19.5t-16.5 -29.5q0 -15 19 -24.5t54 -9.5q29 0 59 7q86 83 134 83q21 0 34 -13.5t13 -31.5q0 -44 -51.5 -76.5t-139.5 -42.5q-50 -64 -79 -149.5t-29 -163.5q0 -70 27 -102t89 -32h45q75 0 114.5 -42.5t39.5 -113.5z" />
    <glyph glyph-name="eta" unicode="&#x3b7;" horiz-adv-x="590" 
d="M503 339v-566h-113v564q0 38 -22.5 66t-62.5 28q-43 0 -72 -32t-29 -74v-325h-113v395q0 63 -54 63q0 4 -0.5 11t-0.5 10q40 10 87 10q51 0 66 -19.5t15 -56.5h2q59 76 151 76q33 0 64 -12t56.5 -48t25.5 -90z" />
    <glyph glyph-name="theta" unicode="&#x3b8;" horiz-adv-x="608" 
d="M292 395h90q-1 60 -6 107t-18 91t-38 68t-62 24q-46 0 -76 -38.5t-30 -105.5q0 -146 140 -146zM592 329q0 -48 -10 -88h-21q0 55 -61 55h-5q-11 -147 -70.5 -226t-167.5 -79q-83 0 -127.5 35.5t-44.5 102.5v23q0 33 -12.5 48t-41.5 15v21q41 10 87 10q80 0 80 -67v-41
q0 -59 19 -84t57 -25q50 0 76.5 58t30.5 209h-59q-124 0 -183.5 50t-59.5 161q0 90 54.5 153.5t140.5 63.5q32 0 60 -8t57.5 -30.5t50.5 -58.5t36 -95.5t18 -136.5h20q40 0 58 -16t18 -50z" />
    <glyph glyph-name="iota" unicode="&#x3b9;" horiz-adv-x="316" 
d="M336 67q-4 -23 -37 -50t-87 -27q-121 0 -121 131v274q0 63 -55 63v21q43 10 87 10q46 0 63.5 -17t17.5 -59v-320q0 -60 46 -60q35 0 65 43q7 11 17 5q6 -3 4 -14z" />
    <glyph glyph-name="kappa" unicode="&#x3ba;" horiz-adv-x="572" 
d="M204 241v-241h-113v395q0 63 -54 63q0 4 -0.5 11t-0.5 10q47 10 87 10q48 0 64.5 -18t16.5 -58v-133q38 0 54.5 8t36.5 33q10 13 27 37t19 27q1 2 11 15.5t12.5 16.5t11.5 15t13.5 15.5t14 12.5t16.5 12t16.5 8t20 6.5t21.5 1.5q28 0 46.5 -13t18.5 -35
q0 -23 -14.5 -35.5t-32.5 -12.5q-8 0 -27 7t-28 7q-20 0 -33.5 -10t-31.5 -35q-30 -40 -45 -59q-16 -20 -31 -27v-3q25 -2 56.5 -19t49.5 -46l90 -146q16 -25 29 -33t37 -8v-20h-162l-114 198q-25 43 -82 43z" />
    <glyph glyph-name="lambda" unicode="&#x3bb;" horiz-adv-x="543" 
d="M533 20v-20h-162l-130 379h-3l-98 -299q-10 -32 0.5 -45.5t50.5 -13.5v-21h-181v21q32 1 47 14.5t27 44.5l136 361l-57 166q-11 34 -18 48.5t-20.5 26t-34.5 11.5l-1 21q42 10 85 10q39 0 58 -13t29 -40l205 -601q18 -50 67 -50z" />
    <glyph glyph-name="nu" unicode="&#x3bd;" horiz-adv-x="491" 
d="M450 430q-1 -41 -26 -99l-147 -331h-62l-137 396q-11 32 -26 47t-42 15q0 4 -0.5 11t-0.5 10q40 10 82 10q46 0 65.5 -17t36.5 -64l96 -277h4l63 157q14 34 14 65q0 25 -10 51.5t-10 38.5q0 21 14 33.5t33 12.5q24 0 38.5 -16.5t14.5 -42.5z" />
    <glyph glyph-name="xi" unicode="&#x3be;" horiz-adv-x="498" 
d="M483 -43q0 -88 -54.5 -143.5t-144.5 -55.5q-62 0 -91.5 22.5t-29.5 50.5q0 21 14.5 36.5t37.5 15.5q21 0 57 -27t74 -27q43 0 66.5 26t23.5 66q0 34 -22.5 56.5t-69.5 22.5h-83q-104 0 -154.5 48t-50.5 120q0 63 35.5 111.5t80.5 75.5v3q-47 42 -47 101q0 57 48 120
q-65 14 -65 68q0 30 25 53.5t41 23.5q8 0 8 -7q0 -2 -15.5 -17.5t-15.5 -30.5q0 -29 74 -31h5q47 37 94.5 61.5t73.5 24.5q19 0 31 -11.5t12 -27.5q0 -38 -58 -70.5t-129 -39.5q-36 -43 -36 -100q0 -44 28 -73t81 -29h23v-38h-23q-70 0 -114.5 -36.5t-44.5 -93.5
q0 -92 109 -92h51q75 0 115 -43t40 -113z" />
    <glyph glyph-name="omicron" unicode="&#x3bf;" horiz-adv-x="550" 
d="M387 238q0 212 -112 212t-112 -212q0 -94 26.5 -151.5t85.5 -57.5t85.5 57.5t26.5 151.5zM504 240q0 -111 -59 -180.5t-170 -69.5q-113 0 -171 65.5t-58 184.5q0 105 59 177t170 72q113 0 171 -67.5t58 -181.5z" />
    <glyph glyph-name="pi" unicode="&#x3c0;" horiz-adv-x="628" 
d="M592 479v-113h-122v-250q0 -52 14 -73.5t45 -21.5v-21q-12 -4 -31.5 -6.5t-32.5 -3.5h-13q-94 0 -94 133q0 102 41 243h-153q-6 -72 -7 -85q0 -3 -2 -22.5t-5 -50.5t-5 -51q-15 -166 -119 -166q-26 0 -44 13t-18 37q0 20 13 33.5t33 13.5q10 0 24 -4.5t22 -4.5
q20 0 30 19t18 59q7 36 14 117q6 74 7 92h-39q-72 0 -126 -19l-12 19q25 54 93.5 83.5t139.5 29.5h329z" />
    <glyph glyph-name="rho" unicode="&#x3c1;" horiz-adv-x="586" 
d="M423 245q0 99 -29 149t-81 50q-56 0 -86 -53.5t-30 -151.5q0 -111 36.5 -158.5t85.5 -47.5q104 0 104 212zM540 255q0 -129 -58 -197t-146 -68q-45 0 -81 20t-55 47h-3v-284h-113v451q0 122 63.5 193.5t169.5 71.5q105 0 164 -65t59 -169z" />
    <glyph glyph-name="sigma1" unicode="&#x3c2;" horiz-adv-x="487" 
d="M467 -43q0 -89 -54 -144t-145 -55q-61 0 -90.5 22t-29.5 50q0 21 14 36.5t37 15.5q21 0 57 -26.5t74 -26.5q43 0 67 25.5t24 65.5q0 35 -23 57.5t-70 22.5h-75q-102 0 -154.5 58.5t-52.5 168.5q0 120 66 191t164 71q71 0 111 -25t40 -63q0 -16 -12 -29.5t-32 -13.5
q-21 0 -35.5 14.5t-22 31.5t-23 31.5t-37.5 14.5q-51 0 -80.5 -50.5t-29.5 -142.5q0 -78 26 -111t91 -33h38q77 0 117 -42.5t40 -113.5z" />
    <glyph glyph-name="sigma" unicode="&#x3c3;" horiz-adv-x="572" 
d="M387 221q0 81 -29.5 136t-83.5 55q-50 0 -80.5 -48.5t-30.5 -133.5q0 -94 28 -147.5t84 -53.5t84 55t28 137zM562 479v-113h-44q-36 0 -86 16l-3 -4q75 -68 75 -166q0 -90 -61.5 -156t-167.5 -66q-109 0 -169 65t-60 180q0 111 66.5 177.5t183.5 66.5h266z" />
    <glyph glyph-name="tau" unicode="&#x3c4;" horiz-adv-x="408" 
d="M390 479v-113h-137v-250q0 -52 14 -73.5t45 -21.5l1 -21q-30 -10 -79 -10q-94 0 -94 133q0 99 42 243h-170v21q28 43 92.5 67.5t121.5 24.5h164z" />
    <glyph glyph-name="upsilon" unicode="&#x3c5;" horiz-adv-x="559" 
d="M513 282q0 -116 -77.5 -204t-203.5 -88q-141 0 -141 147v258q0 63 -55 63v21q41 10 87 10q48 0 64.5 -19t16.5 -57v-279q0 -96 70 -96q55 0 90.5 59t35.5 178q0 59 -13.5 99t-29 57t-42.5 37v21q97 0 147.5 -54t50.5 -153z" />
    <glyph glyph-name="phi" unicode="&#x3c6;" horiz-adv-x="700" 
d="M537 238q0 92 -25.5 150t-71.5 58q-33 0 -33 -48v-369q130 4 130 209zM654 240q0 -110 -62.5 -179t-184.5 -71v-217h-113v217q-124 1 -186 66.5t-62 183.5q0 100 58.5 172t147.5 72v-21q-89 -51 -89 -225q0 -205 131 -209v351q0 109 110 109q122 0 186 -68t64 -181z" />
    <glyph glyph-name="chi" unicode="&#x3c7;" horiz-adv-x="526" 
d="M516 -211v-21q-38 -10 -78 -10q-39 0 -59.5 12.5t-32.5 39.5l-111 238h-3l-79 -203q-35 -87 -97 -87q-23 0 -37 13.5t-14 32.5q0 44 49 49q30 2 46 14.5t30 42.5l82 188l-125 270q-2 4 -6 13q-13 29 -20.5 42t-20.5 24t-30 11v21q40 10 78 10q68 0 92 -52l105 -226h3
l72 191q32 87 98 87q22 0 36 -13.5t14 -33.5t-13 -33.5t-36 -14.5q-30 -2 -45.5 -14.5t-29.5 -42.5l-77 -175l132 -284q29 -63 44 -76q14 -13 33 -13z" />
    <glyph glyph-name="psi" unicode="&#x3c8;" horiz-adv-x="775" 
d="M739 479v-21q-55 0 -55 -63v-155q0 -119 -59.5 -183.5t-180.5 -65.5v-218h-113v218q-122 1 -181 65.5t-59 183.5v155q0 63 -55 63v21q41 10 87 10q47 0 64 -17.5t17 -58.5v-175q0 -206 127 -209v450h113v-450q127 3 127 209v175q0 42 17.5 59t63.5 17t87 -10z" />
    <glyph glyph-name="omega" unicode="&#x3c9;" horiz-adv-x="800" 
d="M754 232q0 -111 -55.5 -176.5t-145.5 -65.5q-49 0 -89 25t-62 61h-4q-23 -36 -63 -61t-89 -25q-90 0 -145 65.5t-55 176.5q0 118 59.5 187.5t143.5 69.5v-21q-88 -80 -88 -235q0 -98 28.5 -146.5t72.5 -48.5q36 0 58.5 28.5t22.5 72.5v234h113v-234q0 -44 22.5 -72.5
t58.5 -28.5q44 0 72.5 48.5t28.5 146.5q0 156 -87 235v21q84 0 143.5 -69.5t59.5 -187.5z" />
    <glyph glyph-name="iotadieresis" unicode="&#x3ca;" horiz-adv-x="316" 
d="M336 67q-4 -23 -37 -50t-87 -27q-121 0 -121 131v274q0 63 -55 63v21q43 10 87 10q46 0 63.5 -17t17.5 -59v-320q0 -60 46 -60q35 0 65 43q7 11 17 5q6 -3 4 -14zM95 600q0 -28 -19 -47t-47 -19q-27 0 -46 19t-19 47q0 27 19 46.5t46 19.5q28 0 47 -19.5t19 -46.5z
M282 600q0 -28 -19 -47t-46 -19q-28 0 -47 19t-19 47q0 27 19 46.5t47 19.5q27 0 46 -19.5t19 -46.5z" />
    <glyph glyph-name="upsilondieresis" unicode="&#x3cb;" horiz-adv-x="559" 
d="M513 282q0 -116 -77.5 -204t-203.5 -88q-141 0 -141 147v258q0 63 -55 63v21q41 10 87 10q48 0 64.5 -19t16.5 -57v-279q0 -96 70 -96q55 0 90.5 59t35.5 178q0 59 -13.5 99t-29 57t-42.5 37v21q97 0 147.5 -54t50.5 -153zM230 600q0 -28 -19 -47t-47 -19q-27 0 -46 19
t-19 47q0 27 19 46.5t46 19.5q28 0 47 -19.5t19 -46.5zM417 600q0 -28 -19 -47t-46 -19q-28 0 -47 19t-19 47q0 27 19 46.5t47 19.5q27 0 46 -19.5t19 -46.5z" />
    <glyph glyph-name="omicrontonos" unicode="&#x3cc;" horiz-adv-x="550" 
d="M354 683q0 -12 -5.5 -30t-11 -30.5t-17.5 -37.5t-16 -35q-8 -18 -25 -18q-22 0 -22 19q0 67 3 113q3 61 51 61q19 0 31 -11t12 -31zM387 238q0 212 -112 212t-112 -212q0 -94 26.5 -151.5t85.5 -57.5t85.5 57.5t26.5 151.5zM504 240q0 -111 -59 -180.5t-170 -69.5
q-113 0 -171 65.5t-58 184.5q0 105 59 177t170 72q113 0 171 -67.5t58 -181.5z" />
    <glyph glyph-name="upsilontonos" unicode="&#x3cd;" horiz-adv-x="559" 
d="M334 682q0 -12 -5.5 -30t-11 -30.5t-17.5 -37.5t-16 -35q-8 -18 -25 -18q-22 0 -22 19q0 66 3 113q3 61 51 61q19 0 31 -11t12 -31zM513 282q0 -116 -77.5 -204t-203.5 -88q-141 0 -141 147v258q0 63 -55 63v21q41 10 87 10q48 0 64.5 -19t16.5 -57v-279q0 -96 70 -96
q55 0 90.5 59t35.5 178q0 59 -13.5 99t-29 57t-42.5 37v21q97 0 147.5 -54t50.5 -153z" />
    <glyph glyph-name="omegatonos" unicode="&#x3ce;" horiz-adv-x="800" 
d="M754 232q0 -111 -55.5 -176.5t-145.5 -65.5q-49 0 -89 25t-62 61h-4q-23 -36 -63 -61t-89 -25q-90 0 -145 65.5t-55 176.5q0 118 59.5 187.5t143.5 69.5v-21q-88 -80 -88 -235q0 -98 28.5 -146.5t72.5 -48.5q36 0 58.5 28.5t22.5 72.5v234h113v-234q0 -44 22.5 -72.5
t58.5 -28.5q44 0 72.5 48.5t28.5 146.5q0 156 -87 235v21q84 0 143.5 -69.5t59.5 -187.5zM482 683q0 -12 -5.5 -30t-11 -30.5t-17.5 -37.5t-16 -35q-8 -18 -25 -18q-22 0 -22 19q0 67 3 113q3 61 51 61q19 0 31 -11t12 -31z" />
    <glyph glyph-name="Iegrave" unicode="&#x400;" horiz-adv-x="585" 
d="M549 190v-190h-518v21q36 0 58.5 19.5t22.5 51.5v511q0 32 -22.5 52t-58.5 20v21h495v-182h-23q-33 90 -62.5 116t-98.5 26h-11q-35 0 -52.5 -2.5t-30.5 -15.5t-13 -39v-216h78q35 0 62.5 26.5t27.5 69.5h23v-230h-23q0 43 -27.5 69.5t-62.5 26.5h-78v-249
q0 -31 17.5 -44.5t54.5 -13.5h21q33 0 55.5 2t41.5 10t30 16t24.5 29t22 39t25.5 56h22zM156 852q0 15 10 25.5t27 10.5q24 0 45 -26l101 -125h-32l-123 75q-28 17 -28 40z" />
    <glyph glyph-name="Io" unicode="&#x401;" horiz-adv-x="585" 
d="M549 190v-190h-518v21q36 0 58.5 19.5t22.5 51.5v511q0 32 -22.5 52t-58.5 20v21h495v-182h-23q-33 90 -63 116t-99 26h-8q-36 0 -53.5 -2.5t-31 -15.5t-13.5 -39v-216h78q35 0 62.5 26.5t27.5 69.5h23v-230h-23q0 43 -27.5 69.5t-62.5 26.5h-78v-249q0 -31 17.5 -44.5
t54.5 -13.5q47 0 75 4t48.5 10.5t36.5 28t27.5 42.5t32.5 67h22zM270 803q0 -28 -19 -47t-46 -19q-28 0 -47 19t-19 47q0 27 19 46.5t47 19.5q27 0 46 -19.5t19 -46.5zM458 803q0 -28 -19 -47t-47 -19q-27 0 -46 19t-19 47q0 27 19 46.5t46 19.5q28 0 47 -19.5t19 -46.5z
" />
    <glyph glyph-name="Dje" unicode="&#x402;" horiz-adv-x="756" 
d="M710 208q0 -85 -57 -181t-137 -151q-4 -3 -8 -3q-11 0 -11 10q0 6 4 10q84 107 84 257q0 220 -149 220q-37 0 -111 -29v-254q0 -29 21 -47.5t55 -18.5v-21h-279v21q36 0 58 20t22 51v508q0 57 -49 57q-37 0 -65.5 -30.5t-52.5 -112.5h-25v182h570v-182h-24
q-30 86 -54.5 114.5t-74.5 28.5h-43q-27 0 -43 -14.5t-16 -43.5v-219q96 52 169 52q216 0 216 -224z" />
    <glyph glyph-name="Gje" unicode="&#x403;" horiz-adv-x="545" 
d="M535 696v-182h-25q-29 86 -53.5 114.5t-74.5 28.5h-85q-63 0 -63 -58v-507q0 -32 22 -51.5t59 -19.5v-21h-284v21q36 0 58.5 19.5t22.5 51.5v511q0 32 -22.5 52t-58.5 20v21h504zM452 845q0 -22 -26 -39l-111 -73h-39l91 118q22 29 50 29q15 0 25 -10t10 -25z" />
    <glyph glyph-name="Ecyril" unicode="&#x404;" horiz-adv-x="641" 
d="M602 110q0 -6 -4 -12q-74 -113 -231 -113q-134 0 -224 90.5t-90 272.5q0 154 90 258.5t226 104.5q74 0 156 -46q9 2 20.5 12t16.5 19h22v-230h-33q-23 94 -68 150t-110 56q-78 0 -130.5 -77.5t-57.5 -220.5h238v-39h-238q2 -136 56 -218t139 -82q111 0 192 81q8 8 16 8
q14 0 14 -14z" />
    <glyph glyph-name="Dze" unicode="&#x405;" horiz-adv-x="574" 
d="M521 190q0 -94 -67.5 -149.5t-181.5 -55.5q-69 0 -131 34.5t-94 94.5q-2 6 -2 9q0 9 9.5 12.5t16.5 -4.5q80 -99 200 -99q60 0 98.5 32t38.5 87q0 79 -103 130l-131 66q-121 61 -121 173q0 83 59 137t149 54q73 0 146 -41q9 5 17.5 15t12.5 18l4 8h26v-222h-26
q-19 46 -32 72.5t-34 56t-47.5 42.5t-60.5 13q-52 0 -83 -31t-31 -76q0 -66 74 -104l148 -74q69 -34 107.5 -85t38.5 -113z" />
    <glyph glyph-name="Icyril" unicode="&#x406;" horiz-adv-x="346" 
d="M315 21v-21h-284v21q37 0 59 19.5t22 51.5v511q0 32 -22 51.5t-59 19.5v22h284v-22q-36 0 -58.5 -19.5t-22.5 -51.5v-511q0 -32 22.5 -51.5t58.5 -19.5z" />
    <glyph glyph-name="Yi" unicode="&#x407;" horiz-adv-x="346" 
d="M315 21v-21h-284v21q36 0 58.5 19.5t22.5 51.5v510q0 32 -22.5 52t-58.5 20v22h284v-22q-37 0 -59 -20t-22 -52v-510q0 -32 22 -51.5t59 -19.5zM144 803q0 -27 -19 -46t-46 -19q-28 0 -47 19t-19 46q0 28 19 47t47 19q27 0 46 -19t19 -47zM332 803q0 -27 -19 -46t-47 -19
q-27 0 -46 19t-19 46q0 28 19 47t46 19q28 0 47 -19t19 -47z" />
    <glyph glyph-name="Je" unicode="&#x408;" horiz-adv-x="445" 
d="M419 696v-21q-37 0 -59.5 -20t-22.5 -52v-400q0 -100 -50 -159t-141 -59q-58 0 -95.5 27.5t-37.5 74.5q0 28 17.5 45.5t44.5 17.5q24 0 38.5 -14.5t14.5 -39.5q0 -11 -3.5 -26.5t-3.5 -22.5q0 -29 31 -29q30 0 46.5 25.5t16.5 71.5v488q0 32 -22.5 52t-58.5 20v21h285z
" />
    <glyph glyph-name="Lje" unicode="&#x409;" horiz-adv-x="1001" 
d="M831 189q0 57 -29.5 100.5t-83.5 52.5q-21 4 -61.5 4.5t-46.5 0.5v-240q0 -43 11.5 -55.5t46.5 -12.5h49q60 0 87 45t27 105zM963 196q0 -79 -61 -137.5t-169 -58.5h-321v21q34 0 54.5 18t20.5 48v512q0 58 -63 58h-94q-61 0 -64 -58q-8 -193 -23 -377
q-19 -237 -155 -237q-36 0 -56 17t-20 44q0 30 22 43t52 13q54 0 78.5 33t33.5 88q8 47 18.5 184.5t10.5 196.5q0 32 -22 51t-59 19v22h544v-22q-36 0 -58 -19.5t-22 -51.5v-217h123q119 0 174.5 -55t55.5 -135z" />
    <glyph glyph-name="Nje" unicode="&#x40a;" horiz-adv-x="1019" 
d="M849 189q0 63 -34.5 109t-98.5 47l-88 2v-240q0 -43 11.5 -55.5t46.5 -12.5h49q60 0 87 45t27 105zM981 196q0 -80 -61 -138t-169 -58h-320v21q34 0 54.5 18.5t20.5 47.5v260h-272v-260q0 -29 21 -47.5t55 -18.5v-21h-279v21q37 0 59 19.5t22 51.5v511q0 32 -22 52
t-59 20v21h279v-21q-34 0 -55 -19t-21 -48v-222h272v222q0 29 -20.5 48t-54.5 19v21h278v-22q-37 0 -59 -19.5t-22 -51.5v-217h124q119 0 174 -55t55 -135z" />
    <glyph glyph-name="Tshe" unicode="&#x40b;" horiz-adv-x="821" 
d="M790 21v-21h-278v21q34 0 54.5 18.5t20.5 47.5v154q0 70 -26.5 101t-97.5 31q-59 0 -138 -32v-254q0 -29 21 -47.5t55 -18.5v-21h-279v21q36 0 58 19.5t22 51.5v508q0 25 -13 41t-36 16q-37 0 -65.5 -30.5t-52.5 -112.5h-25v182h570v-182h-24q-30 86 -54.5 114.5
t-74.5 28.5h-43q-27 0 -43 -14.5t-16 -43.5v-218q109 49 190 49q194 0 194 -180v-158q0 -32 22.5 -51.5t58.5 -19.5z" />
    <glyph glyph-name="Kje" unicode="&#x40c;" horiz-adv-x="729" 
d="M554 848q0 -18 -17 -32l-120 -80h-38l84 111l14 16q17 20 43 20q15 0 24.5 -10t9.5 -25zM714 21v-21h-194l-199 298q-28 48 -87 49v-260q0 -29 21 -47.5t55 -18.5v-21h-279v21q36 0 58.5 19.5t22.5 51.5v511q0 32 -22.5 52t-58.5 20v21h279v-21q-34 0 -55 -18.5
t-21 -48.5v-223h11q32 0 49.5 1.5t42 15t41.5 40.5q17 26 38.5 69t38 74t39 62t51.5 47.5t65 16.5q33 0 52.5 -17t19.5 -42q0 -22 -15.5 -41t-41.5 -19q-14 0 -35 8.5t-33 8.5q-27 0 -46 -22.5t-43 -72.5q-1 -1 -7 -13.5t-10 -20t-12 -21t-15 -24t-16 -21.5t-18.5 -20
t-18.5 -14v-3q50 -17 87 -71l127 -186q37 -55 62.5 -76.5t66.5 -22.5z" />
    <glyph glyph-name="Iigrave" unicode="&#x40d;" horiz-adv-x="776" 
d="M745 21v-21h-278v21q34 0 54.5 18.5t20.5 47.5v420h-3l-305 -389v-31q0 -29 21 -47.5t55 -18.5v-21h-279v21q37 0 59 19.5t22 51.5v511q0 32 -22 52t-59 20v21h279v-21q-34 0 -55 -19t-21 -48v-423h3l305 389v34q0 29 -20.5 48t-54.5 19v21h278v-21q-36 0 -58.5 -20
t-22.5 -52v-511q0 -32 22.5 -51.5t58.5 -19.5zM232 852q0 15 10 25.5t27 10.5q24 0 45 -26l101 -125h-32l-123 75q-28 17 -28 40z" />
    <glyph glyph-name="Ucyrilbreve" unicode="&#x40e;" horiz-adv-x="688" 
d="M472 878h43q0 -61 -33.5 -101.5t-91.5 -40.5q-59 0 -92.5 40.5t-33.5 101.5h43q0 -29 23.5 -51.5t59.5 -22.5q35 0 58.5 23t23.5 51zM678 696v-22q-72 0 -111 -94l-184 -443q-11 -27 -18 -41.5t-22.5 -39t-31.5 -37.5t-41.5 -23.5t-56.5 -10.5q-38 0 -61.5 16.5
t-23.5 46.5q0 26 15.5 42t40.5 16q16 0 40.5 -10t34.5 -10q60 0 84 56l13 32l-234 411q-25 44 -51 66.5t-61 22.5v22h286v-22q-21 0 -34 -7t-17.5 -26.5t16.5 -54.5l150 -272h3l100 268q11 28 13.5 46.5t-10 32t-44.5 13.5v22h205z" />
    <glyph glyph-name="Dzhe" unicode="&#x40f;" horiz-adv-x="750" 
d="M719 21v-21h-192q-54 0 -87 -40t-53 -135h-25q-21 99 -54 137t-85 38h-192v21q37 0 59 20t22 52v510q0 32 -22.5 52t-58.5 20v21h279v-21q-34 0 -55 -19t-21 -48v-512q0 -57 64 -57h155q63 0 63 57v512q0 27 -21.5 47t-53.5 20v21h278v-21q-36 0 -58.5 -20t-22.5 -52
v-510q0 -30 23.5 -51t57.5 -21z" />
    <glyph glyph-name="Acyril" unicode="&#x410;" horiz-adv-x="738" 
d="M232 278h197l-98 241h-6zM728 21v-21h-268v21q27 0 38.5 13.5t10.5 29t-8 33.5l-57 142h-227l-53 -133q-33 -85 50 -85v-21h-204v21q37 0 66 25t43 61l240 595h31l242 -600q32 -81 96 -81z" />
    <glyph glyph-name="Be" unicode="&#x411;" horiz-adv-x="644" 
d="M466 182q0 66 -37 113t-108 49l-88 3v-246q0 -43 14.5 -52.5t79.5 -9.5q139 0 139 143zM598 203q0 -81 -53.5 -137t-142.5 -63q-32 -3 -66 -3h-305v21q36 0 58 19.5t22 51.5v511q0 32 -22 51.5t-58 19.5v22h503v-182h-25q-29 86 -53.5 114.5t-74.5 28.5h-84
q-64 0 -64 -58v-214h129q110 0 173 -49t63 -133z" />
    <glyph glyph-name="Ve" unicode="&#x412;" horiz-adv-x="635" 
d="M457 182q0 69 -39.5 113t-114.5 48l-69 3v-245q0 -44 16 -53t84 -9q60 0 91.5 38.5t31.5 104.5zM435 530q0 57 -31.5 92t-87.5 35h-17q-37 0 -51 -13.5t-14 -47.5v-211h57q75 0 109.5 42t34.5 103zM589 195q0 -84 -61 -139.5t-170 -55.5h-327v21q36 0 58.5 19.5
t22.5 51.5v511q0 32 -22.5 52t-58.5 20v21h313q98 0 150 -43.5t52 -117.5q0 -50 -29.5 -91t-84.5 -63v-2q73 -20 115 -70t42 -114z" />
    <glyph glyph-name="Ge" unicode="&#x413;" horiz-adv-x="545" 
d="M535 696v-182h-25q-29 86 -53.5 114.5t-74.5 28.5h-85q-63 0 -63 -58v-507q0 -32 22 -51.5t59 -19.5v-21h-284v21q36 0 58.5 19.5t22.5 51.5v511q0 32 -22.5 52t-58.5 20v21h504z" />
    <glyph glyph-name="De" unicode="&#x414;" horiz-adv-x="708" 
d="M474 94v506q0 57 -76 57h-93q-68 0 -71 -57l-10 -211q-4 -94 -13 -155q-22 -149 -52 -193v-2h243q72 0 72 55zM677 21v-201h-24q-32 180 -156 180h-294q-22 0 -41 -5.5t-43 -22t-43 -55.5t-30 -97h-23v201q55 10 87.5 56t51.5 133q33 153 33 393q0 32 -22 51.5t-59 19.5
v22h563v-22q-37 0 -59 -19.5t-22 -51.5v-507q0 -33 20.5 -54t60.5 -21z" />
    <glyph glyph-name="Ie" unicode="&#x415;" horiz-adv-x="585" 
d="M549 190v-190h-518v21q36 0 58.5 19.5t22.5 51.5v511q0 32 -22.5 52t-58.5 20v21h495v-182h-23q-33 90 -62.5 116t-98.5 26h-11q-35 0 -52.5 -2.5t-30.5 -15.5t-13 -39v-216h78q35 0 62.5 26.5t27.5 69.5h23v-230h-23q0 43 -27.5 69.5t-62.5 26.5h-78v-249
q0 -31 17.5 -44.5t54.5 -13.5h21q33 0 55.5 2t41.5 10t30 16t24.5 29t22 39t25.5 56h22z" />
    <glyph glyph-name="Zhe" unicode="&#x416;" horiz-adv-x="1038" 
d="M458 87v260q-38 -1 -67 -49l-178 -298h-197v21q44 2 73.5 30t65.5 85l106 168q35 56 88 72v3q-26 13 -52 54q-22 34 -46 84.5t-39 71t-37 20.5q-12 0 -33 -8.5t-35 -8.5q-25 0 -44 15t-19 45q0 27 19 43t57 16q44 0 79.5 -31t55 -70t48 -95.5t51.5 -87.5q16 -22 37.5 -32
t32.5 -10.5t34 0.5v223q0 30 -20.5 48.5t-54.5 18.5v21h272v-21q-34 0 -54.5 -18.5t-20.5 -48.5v-223q23 -1 34 -0.5t32.5 10.5t37.5 32q23 31 51.5 87.5t48 95.5t55 70t79.5 31q38 0 57 -16t19 -43q0 -30 -19 -45t-44 -15q-14 0 -35 8.5t-33 8.5q-22 0 -37 -20.5t-39 -71
t-46 -84.5q-26 -41 -52 -54v-3q53 -16 88 -72l106 -168q36 -57 65.5 -85t73.5 -30v-21h-197l-178 298q-29 48 -67 49v-260q0 -29 20.5 -47.5t54.5 -18.5v-21h-272v21q34 0 54.5 18.5t20.5 47.5z" />
    <glyph glyph-name="Ze" unicode="&#x417;" horiz-adv-x="586" 
d="M540 206q0 -102 -78.5 -161.5t-181.5 -59.5q-81 0 -142 31.5t-93 79.5q-5 8 -5 13q0 10 9.5 13t18.5 -5q80 -82 189 -82q66 0 108.5 45t42.5 109q0 79 -53 119t-129 37v40q91 -2 135 40.5t44 105.5q0 61 -34 101t-90 40q-67 0 -115 -52t-73 -154h-33v230h21
q15 -25 37 -31q82 46 172 46q99 0 157.5 -47.5t58.5 -124.5q0 -98 -77 -157v-2q111 -56 111 -174z" />
    <glyph glyph-name="Ii" unicode="&#x418;" horiz-adv-x="776" 
d="M745 21v-21h-278v21q34 0 54.5 18.5t20.5 47.5v420h-3l-305 -389v-31q0 -29 21 -47.5t55 -18.5v-21h-279v21q37 0 59 19.5t22 51.5v511q0 32 -22 52t-59 20v21h279v-21q-34 0 -55 -19t-21 -48v-423h3l305 389v34q0 29 -20.5 48t-54.5 19v21h278v-21q-36 0 -58.5 -20
t-22.5 -52v-511q0 -32 22.5 -51.5t58.5 -19.5z" />
    <glyph glyph-name="Iibreve" unicode="&#x419;" horiz-adv-x="776" 
d="M745 21v-21h-278v21q34 0 54.5 18.5t20.5 47.5v420h-3l-305 -389v-31q0 -29 21 -47.5t55 -18.5v-21h-279v21q37 0 59 19.5t22 51.5v511q0 32 -22 52t-59 20v21h279v-21q-34 0 -55 -19t-21 -48v-423h3l305 389v34q0 29 -20.5 48t-54.5 19v21h278v-21q-36 0 -58.5 -20
t-22.5 -52v-511q0 -32 22.5 -51.5t58.5 -19.5zM470 878h44q0 -61 -33.5 -101.5t-92.5 -40.5q-58 0 -92 40.5t-34 101.5h44q0 -29 23 -51.5t59 -22.5t59 22.5t23 51.5z" />
    <glyph glyph-name="Ka" unicode="&#x41a;" horiz-adv-x="729" 
d="M714 21v-21h-194l-199 298q-28 48 -87 49v-260q0 -29 21 -47.5t55 -18.5v-21h-279v21q36 0 58.5 19.5t22.5 51.5v511q0 32 -22.5 52t-58.5 20v21h279v-21q-34 0 -55 -18.5t-21 -48.5v-223h11q32 0 49.5 1.5t42 15t41.5 40.5q17 26 38.5 69t38 74t39 62t51.5 47.5t65 16.5
q33 0 52.5 -17t19.5 -42q0 -22 -15.5 -41t-41.5 -19q-14 0 -35 8.5t-33 8.5q-27 0 -46 -22.5t-43 -72.5q-1 -1 -7 -13.5t-10 -20t-12 -21t-15 -24t-16 -21.5t-18.5 -20t-18.5 -14v-3q50 -17 87 -71l127 -186q37 -55 62.5 -76.5t66.5 -22.5z" />
    <glyph glyph-name="El" unicode="&#x41b;" horiz-adv-x="735" 
d="M704 21v-21h-278v21q34 0 54.5 18t20.5 48v512q0 58 -63 58h-108q-61 0 -64 -58q-8 -193 -23 -377q-19 -237 -155 -237q-36 0 -56 17t-20 44q0 30 22 43t52 13q54 0 78.5 33t33.5 88q8 47 18.5 184.5t10.5 196.5q0 32 -22 51t-59 19v22h558v-22q-36 0 -58 -19.5
t-22 -51.5v-511q0 -32 22 -51.5t58 -19.5z" />
    <glyph glyph-name="Em" unicode="&#x41c;" horiz-adv-x="902" 
d="M871 21v-21h-279v21q34 0 55 18.5t21 47.5v501h-4l-238 -564q-4 -9 -10 -9t-10 9l-251 564h-4v-501q0 -29 20.5 -47.5t54.5 -18.5v-21h-195v21q37 0 59 19.5t22 51.5v511q0 32 -22 52t-59 20v21h206l219 -495h3l205 495h207v-21q-37 0 -59 -20t-22 -52v-511
q0 -32 22 -51.5t59 -19.5z" />
    <glyph glyph-name="En" unicode="&#x41d;" horiz-adv-x="767" 
d="M736 21v-21h-278v21q34 0 54.5 18t20.5 48v260h-299v-260q0 -29 21 -47.5t55 -18.5v-21h-279v21q37 0 59 19.5t22 51.5v511q0 32 -22 52t-59 20v21h279v-21q-34 0 -55 -19t-21 -48v-223h299v223q0 30 -20.5 48.5t-54.5 18.5v21h278v-21q-36 0 -58.5 -20t-22.5 -52v-511
q0 -32 22.5 -51.5t58.5 -19.5z" />
    <glyph glyph-name="Ocyril" unicode="&#x41e;" horiz-adv-x="731" 
d="M547 348q0 88 -17.5 158.5t-59.5 118t-104 47.5t-104 -47.5t-59.5 -118t-17.5 -158.5t17.5 -158.5t59.5 -118t104 -47.5t104 47.5t59.5 118t17.5 158.5zM678 348q0 -147 -88 -255t-224 -108q-146 0 -229.5 96t-83.5 267q0 147 88.5 255t224.5 108q145 0 228.5 -96.5
t83.5 -266.5z" />
    <glyph glyph-name="Pecyril" unicode="&#x41f;" horiz-adv-x="750" 
d="M719 21v-21h-278v21q34 0 54.5 18t20.5 48v512q0 58 -63 58h-155q-64 0 -64 -58v-512q0 -29 21 -47.5t55 -18.5v-21h-279v21q37 0 59 19.5t22 51.5v511q0 32 -22 52t-59 20v21h688v-21q-36 0 -58.5 -20t-22.5 -52v-511q0 -32 22.5 -51.5t58.5 -19.5z" />
    <glyph glyph-name="Er" unicode="&#x420;" horiz-adv-x="626" 
d="M456 493q0 67 -32 114t-97 47h-30q-29 0 -46 -15t-17 -43v-258q47 0 71 1q72 2 111.5 42t39.5 112zM583 505q0 -100 -68.5 -152.5t-177.5 -52.5h-103v-213q0 -29 21 -47.5t55 -18.5v-21h-279v21q37 0 59 19.5t22 51.5v511q0 32 -22 52t-59 20v21h331q106 0 163.5 -57
t57.5 -134z" />
    <glyph glyph-name="Es" unicode="&#x421;" horiz-adv-x="641" 
d="M602 111q0 -6 -4 -12q-75 -114 -231 -114q-134 0 -224 90.5t-90 272.5q0 154 90 258.5t226 104.5q74 0 156 -46q9 2 20.5 12t16.5 19h22v-230h-33q-23 94 -68 150t-110 56q-82 0 -135 -84.5t-53 -239.5q0 -142 53.5 -227.5t141.5 -85.5q111 0 192 81q8 8 16 8
q14 0 14 -13z" />
    <glyph glyph-name="Te" unicode="&#x422;" horiz-adv-x="581" 
d="M571 696v-182h-25q-29 86 -53.5 114.5t-74.5 28.5h-10q-56 0 -56 -63v-502q0 -32 22 -51.5t59 -19.5v-21h-284v21q36 0 58 19.5t22 51.5v502q0 63 -55 63h-11q-49 0 -73.5 -28.5t-54.5 -114.5h-25v182h561z" />
    <glyph glyph-name="Ucyril" unicode="&#x423;" horiz-adv-x="688" 
d="M678 696v-22q-72 0 -111 -94l-184 -443q-11 -27 -18 -41.5t-22.5 -39t-31.5 -37.5t-41.5 -23.5t-56.5 -10.5q-38 0 -61.5 16.5t-23.5 46.5q0 26 15.5 42t40.5 16q16 0 40.5 -10t34.5 -10q60 0 84 56l13 32l-234 411q-25 44 -51 66.5t-61 22.5v22h286v-22q-21 0 -34 -7
t-17.5 -26.5t16.5 -54.5l150 -272h3l100 268q11 28 13.5 46.5t-10 32t-44.5 13.5v22h205z" />
    <glyph glyph-name="Ef" unicode="&#x424;" horiz-adv-x="880" 
d="M379 39v562q-91 -4 -144 -83t-53 -198q0 -140 55 -209t142 -72zM501 601v-562q87 3 142 72t55 209q0 119 -53 198t-144 83zM501 0v-10q0 -28 23 -49.5t58 -21.5v-21h-284v21q34 0 57.5 22t23.5 49v10q-148 7 -238.5 97.5t-90.5 222.5q0 137 84 224t245 96v9
q0 28 -23 49.5t-58 21.5v21h284v-21q-36 0 -58.5 -21t-22.5 -50v-9q161 -9 245 -96t84 -224q0 -132 -90.5 -222.5t-238.5 -97.5z" />
    <glyph glyph-name="Kha" unicode="&#x425;" horiz-adv-x="689" 
d="M679 0h-281v21q27 1 36.5 11t5.5 26.5t-20 43.5l-104 178h-3l-117 -181q-25 -34 -18.5 -55.5t52.5 -22.5v-21h-220v21q41 1 74.5 26t69.5 76l139 198l-151 261q-28 49 -58 71t-73 22v21h286v-21q-23 0 -33.5 -7t-7 -24.5t8 -27.5t17.5 -33q1 -3 2 -4l85 -152h4l98 165
q48 79 -32 83v21h229v-22q-48 0 -81 -25t-67 -73l-129 -183l150 -259q33 -57 64 -84.5t74 -28.5v-21z" />
    <glyph glyph-name="Tse" unicode="&#x426;" horiz-adv-x="757" 
d="M726 21v-201h-23q-33 180 -157 180h-515v21q36 0 58.5 20t22.5 52v510q0 32 -22.5 51.5t-58.5 19.5v22h284v-22q-36 0 -58.5 -19.5t-22.5 -51.5v-507q0 -57 63 -57h163q63 0 63 57v507q0 32 -22 51.5t-58 19.5v22h283v-22q-36 0 -58.5 -19.5t-22.5 -51.5v-507
q0 -33 21 -54t60 -21z" />
    <glyph glyph-name="Che" unicode="&#x427;" horiz-adv-x="733" 
d="M702 21v-21h-279v21q34 0 55 18.5t21 47.5v241h-1q-23 -19 -84.5 -37.5t-125.5 -18.5q-81 0 -133.5 39t-52.5 127v165q0 32 -22 52t-59 20v21h279v-21q-34 0 -55 -18.5t-21 -48.5v-163q0 -123 110 -123q81 0 165 46v240q0 30 -21 48.5t-55 18.5v21h279v-21q-37 0 -59 -20
t-22 -52v-511q0 -32 22 -51.5t59 -19.5z" />
    <glyph glyph-name="Sha" unicode="&#x428;" horiz-adv-x="1028" 
d="M997 21v-21h-966v21q37 0 59 20t22 52v510q0 32 -22.5 52t-58.5 20v21h279v-21q-34 0 -55 -19t-21 -48v-512q0 -57 64 -57h92q63 0 63 57v512q0 29 -20.5 48t-54.5 19v21h273v-21q-34 0 -55 -18.5t-21 -48.5v-512q0 -57 63 -57h93q63 0 63 57v512q0 30 -20.5 48.5
t-54.5 18.5v21h278v-21q-36 0 -58.5 -20t-22.5 -52v-510q0 -32 22.5 -52t58.5 -20z" />
    <glyph glyph-name="Shta" unicode="&#x429;" horiz-adv-x="1028" 
d="M997 21v-201h-23q-33 180 -156 180h-787v21q37 0 59 20t22 52v510q0 32 -22.5 52t-58.5 20v21h279v-21q-34 0 -55 -19t-21 -48v-512q0 -57 64 -57h92q63 0 63 57v512q0 29 -20.5 48t-54.5 19v21h273v-21q-34 0 -55 -18.5t-21 -48.5v-512q0 -57 63 -57h93q63 0 63 57v512
q0 30 -20.5 48.5t-54.5 18.5v21h278v-21q-36 0 -58.5 -20t-22.5 -52v-507q0 -33 21 -54t60 -21z" />
    <glyph glyph-name="YerFat" unicode="&#x42a;" horiz-adv-x="716" 
d="M546 189q0 57 -29.5 101t-83.5 52q-21 3 -61 4t-47 1v-240q0 -43 11.5 -55.5t46.5 -12.5h49q60 0 87 45t27 105zM678 196q0 -79 -61 -137.5t-169 -58.5h-326v21q36 0 58 19.5t22 51.5v507q0 24 -12.5 41t-35.5 17q-38 0 -66.5 -30.5t-52.5 -112.5h-25v182h395v-22
q-36 0 -58.5 -19.5t-22.5 -51.5v-217h124q119 0 174.5 -55t55.5 -135z" />
    <glyph glyph-name="YeriThin" unicode="&#x42b;" horiz-adv-x="956" 
d="M455 189q0 63 -35 109t-98 47l-88 2v-240q0 -43 11.5 -55.5t46.5 -12.5h49q60 0 87 45t27 105zM587 196q0 -80 -61 -138t-169 -58h-326v21q37 0 59 19.5t22 51.5v511q0 32 -22 52t-59 20v21h284v-22q-36 0 -58.5 -19.5t-22.5 -51.5v-217h124q119 0 174 -55t55 -135z
M925 21v-21h-284v21q37 0 59 19.5t22 51.5v511q0 32 -22 52t-59 20v21h284v-21q-36 0 -58.5 -20t-22.5 -52v-511q0 -32 22.5 -51.5t58.5 -19.5z" />
    <glyph glyph-name="YerThin" unicode="&#x42c;" horiz-adv-x="625" 
d="M455 189q0 63 -35 109t-98 47l-88 2v-240q0 -43 11.5 -55.5t46.5 -12.5h49q60 0 87 45t27 105zM587 196q0 -80 -61 -138t-169 -58h-326v21q37 0 59 19.5t22 51.5v511q0 32 -22 52t-59 20v21h284v-22q-36 0 -58.5 -19.5t-22.5 -51.5v-217h124q119 0 174 -55t55 -135z" />
    <glyph glyph-name="Ecyrilrev" unicode="&#x42d;" horiz-adv-x="641" 
d="M588 360q0 -162 -93 -268.5t-221 -106.5q-158 0 -231 115q-4 6 -4 9q0 14 15 14q8 0 15 -7q81 -81 192 -81q89 0 141.5 85.5t53.5 214.5h-238v39h238q-6 131 -50 214.5t-125 83.5q-139 0 -190 -206h-33v230h22q5 -9 16.5 -19t20.5 -12q82 46 165 46q136 0 221 -94.5
t85 -256.5z" />
    <glyph glyph-name="Iu" unicode="&#x42e;" horiz-adv-x="1053" 
d="M868 348q0 88 -17.5 158.5t-59.5 118t-104 47.5t-104 -47.5t-59.5 -118t-17.5 -158.5t17.5 -158.5t59.5 -118t104 -47.5t104 47.5t59.5 118t17.5 158.5zM1000 348q0 -147 -88.5 -255t-224.5 -108q-145 0 -228.5 96t-84.5 266h-140v-255q0 -32 22.5 -51.5t58.5 -19.5v-21
h-284v21q37 0 59 19.5t22 51.5v511q0 32 -22 52t-59 20v21h284v-21q-36 0 -58.5 -20t-22.5 -52v-218h142q12 136 98.5 231t212.5 95q145 0 229 -96.5t84 -266.5z" />
    <glyph glyph-name="Ia" unicode="&#x42f;" horiz-adv-x="721" 
d="M265 491q0 -70 40 -109.5t104 -39.5h78v254q0 59 -73 59h-7q-69 0 -105.5 -46t-36.5 -118zM10 0v21q38 0 68.5 27t74.5 84l83 109q39 52 73 68v3q-67 14 -119 66t-52 139q0 76 57 127.5t165 51.5h330v-21q-36 0 -58.5 -20t-22.5 -52v-511q0 -32 22.5 -51.5t58.5 -19.5
v-21h-279v21q34 0 55 18.5t21 47.5v216q-40 0 -56 -5.5t-31 -26.5l-197 -271h-193z" />
    <glyph glyph-name="acyril" unicode="&#x430;" horiz-adv-x="538" 
d="M339 130v135q-81 -12 -131 -47.5t-50 -92.5q0 -37 19.5 -57t50.5 -20q37 0 74 29.5t37 52.5zM521 58q0 -10 -15 -25q-40 -42 -96 -42q-60 0 -70 73h-4q-77 -73 -160 -73q-55 0 -95 31.5t-40 91.5q0 31 11.5 56t34.5 43t48.5 31t63 23t68 16.5t72.5 12.5v58q0 97 -94 97
q-35 0 -56.5 -10.5t-21.5 -28.5q0 -7 4.5 -21t4.5 -26q0 -24 -14.5 -39.5t-41.5 -15.5q-25 0 -41 18.5t-16 43.5q0 52 54.5 84.5t134.5 32.5q90 0 145 -39t55 -127v-230q0 -48 27 -48q9 0 27 18q4 5 9.5 3t5.5 -8z" />
    <glyph glyph-name="be" unicode="&#x431;" horiz-adv-x="549" 
d="M387 238q0 209 -112 209t-112 -209q0 -94 26.5 -151.5t85.5 -57.5t85.5 57.5t26.5 151.5zM503 243q0 -108 -57 -180t-171 -72q-113 0 -171 65.5t-58 186.5q0 90 46.5 149t95.5 76v3q-47 10 -84.5 36.5t-37.5 72.5q0 44 31.5 69.5t80.5 27.5l204 6q72 3 74 43q0 12 12 12
q11 0 11 -12q0 -78 -36.5 -109.5t-121.5 -32.5l-105 -1q-63 0 -63 -32q0 -36 80 -53q7 -2 34.5 -6t47 -8t47.5 -14t48 -23q93 -60 93 -204z" />
    <glyph glyph-name="ve" unicode="&#x432;" horiz-adv-x="529" 
d="M372 128q0 49 -31 81t-95 32h-42v-166q0 -37 52 -37h51q31 0 48 27t17 63zM356 361q0 32 -18 55.5t-51 23.5h-44q-23 0 -31 -10t-8 -31v-119h91q31 0 46 24.5t15 56.5zM488 129q0 -51 -40.5 -90t-103.5 -39h-307v21q23 0 38.5 14t15.5 36v333q0 20 -16.5 37t-37.5 17v21
h291q60 0 96 -31.5t36 -73.5q0 -36 -20 -66.5t-58 -46.5v-2q52 -14 79 -50t27 -80z" />
    <glyph glyph-name="ge" unicode="&#x433;" horiz-adv-x="420" 
d="M410 479v-154h-23q-5 52 -30.5 83.5t-67.5 31.5h-53q-14 0 -23 -12t-9 -27v-326q0 -23 16 -38.5t38 -15.5v-21h-221v21q23 0 38.5 15.5t15.5 38.5v329q0 22 -15.5 38t-38.5 16v21h373z" />
    <glyph glyph-name="de" unicode="&#x434;" horiz-adv-x="527" 
d="M320 70v339q0 13 -9.5 22t-23.5 9h-90q-14 0 -23 -9t-10 -22q-4 -80 -6 -129q0 -2 -1.5 -34t-2 -44.5t-3.5 -42.5t-6.5 -47t-9.5 -38t-14 -34v-2h166q13 0 23 9.5t10 22.5zM490 28v-188h-23q-29 160 -112 160h-207q-84 0 -112 -160h-24v188q34 1 56.5 21.5t32 63.5
t12.5 67.5t5 73.5q1 12 1 18l6 131q1 23 -14.5 38.5t-38.5 15.5v22h415v-22q-23 0 -38.5 -15.5t-15.5 -38.5v-320q0 -55 57 -55z" />
    <glyph glyph-name="ie" unicode="&#x435;" horiz-adv-x="526" 
d="M166 302h200q0 76 -20 112t-68 36q-43 0 -74.5 -40t-37.5 -108zM485 267h-321q0 -47 8 -87t25 -73.5t47.5 -52.5t71.5 -19q78 0 146 66q5 5 11 5q10 0 10 -10q0 -4 -3 -9q-24 -38 -73.5 -67t-118.5 -29q-101 0 -171.5 64.5t-70.5 184.5q0 103 67 176.5t170 73.5
q91 0 146.5 -58.5t55.5 -164.5z" />
    <glyph glyph-name="zhe" unicode="&#x436;" horiz-adv-x="805" 
d="M344 68v173q-46 0 -69 -43l-105 -198h-161v20q25 0 39 8t28 33l80 140q38 67 105 71v3q-17 9 -28 26q-7 10 -19.5 31t-17.5 29q-30 45 -63 45q-9 0 -28 -7t-28 -7q-17 0 -31 12.5t-14 35.5t17 35.5t43 12.5q49 0 79.5 -26.5t59.5 -76.5q1 -1 8 -14.5t15 -27.5t13 -22
q18 -24 32 -32.5t45 -8.5v130q0 20 -15 34t-36 14v21h219v-21q-21 0 -36 -14t-15 -34v-130q31 0 45 8.5t32 32.5q5 8 13 22t15 27.5t8 14.5q29 50 59.5 76.5t79.5 26.5q25 0 42.5 -12.5t17.5 -35.5t-14 -35.5t-31 -12.5q-8 0 -28 7t-28 7q-33 0 -63 -45q-5 -8 -17.5 -29
t-19.5 -31q-11 -17 -28 -26v-3q67 -4 105 -71l80 -140q14 -25 28 -33t39 -8v-20h-161l-105 198q-23 43 -69 43v-173q0 -20 15 -34t36 -14v-20h-219v20q21 0 36 14t15 34z" />
    <glyph glyph-name="ze" unicode="&#x437;" horiz-adv-x="458" 
d="M417 149q0 -67 -54 -112.5t-145 -45.5q-40 0 -74.5 10.5t-56 27t-32.5 28t-18 22.5q-3 4 -3 8q0 11 11 11q6 0 10 -4q58 -58 136 -58q53 0 81 29.5t28 77.5q0 45 -29 71.5t-86 26.5v41q54 0 84 23.5t30 62.5q0 35 -21.5 58.5t-65.5 23.5q-38 0 -60 -16t-22 -44
q0 -6 1.5 -13.5t1.5 -12.5q0 -22 -11.5 -33t-29.5 -11q-21 0 -34 13t-13 36q0 56 53.5 88t120.5 32q76 0 124 -33t48 -90q0 -55 -52 -92v-2q78 -40 78 -123z" />
    <glyph glyph-name="ii" unicode="&#x438;" horiz-adv-x="603" 
d="M566 21v-21h-217v21q20 0 35 14.5t15 33.5v262h-3l-192 -251v-11q0 -20 14.5 -34t34.5 -14v-21h-216v21q23 0 38.5 15.5t15.5 38.5v329q0 22 -15.5 38t-38.5 16v21h216v-21q-20 0 -34.5 -14t-14.5 -34v-261h3l192 250v11q0 19 -15 33.5t-35 14.5v21h217v-21
q-22 0 -38 -16t-16 -38v-329q0 -23 16 -38.5t38 -15.5z" />
    <glyph glyph-name="iibreve" unicode="&#x439;" horiz-adv-x="603" 
d="M566 21v-21h-217v21q20 0 35 14.5t15 33.5v262h-3l-192 -251v-11q0 -20 14.5 -34t34.5 -14v-21h-216v21q23 0 38.5 15.5t15.5 38.5v329q0 22 -15.5 38t-38.5 16v21h216v-21q-20 0 -34.5 -14t-14.5 -34v-261h3l192 250v11q0 19 -15 33.5t-35 14.5v21h217v-21
q-22 0 -38 -16t-16 -38v-329q0 -23 16 -38.5t38 -15.5zM383 676h44q0 -61 -33.5 -101.5t-92.5 -40.5q-58 0 -92 40.5t-34 101.5h44q0 -29 23 -51.5t59 -22.5t59 22.5t23 51.5z" />
    </font>
</defs>
</svg>
