<?xml version="1.0" standalone="no"?>
<!DOCTYPE svg PUBLIC "-//W3C//DTD SVG 1.1//EN" "http://www.w3.org/Graphics/SVG/1.1/DTD/svg11.dtd" >
<svg xmlns="http://www.w3.org/2000/svg" xmlns:xlink="http://www.w3.org/1999/xlink" version="1.1">
<metadata>
Created by FontForge 20161013 at Fri Mar  9 01:41:36 2012
 By ,,,
Copyright (c) 2011 by Nikola &#38; Zoran Kostic. All rights reserved.
</metadata>
<defs>
<font id="KosticSerif-Regular" horiz-adv-x="555" >
  <font-face 
    font-family="KosticSerif"
    font-weight="400"
    font-stretch="normal"
    units-per-em="1000"
    panose-1="2 0 0 0 0 0 0 0 0 0"
    ascent="755"
    descent="-245"
    x-height="479"
    cap-height="696"
    bbox="-200 -283.625 1228 940"
    underline-thickness="50"
    underline-position="-200"
    unicode-range="U+0020-FB34"
  />
<missing-glyph horiz-adv-x="470" 
d="M117 59h235v616h-235v-616zM59 0v733h353v-733h-353z" />
    <glyph glyph-name="f_f" unicode="ff" horiz-adv-x="608" 
d="M645 650q0 -23 -12.5 -36t-30.5 -13q-20 0 -31 14.5t-5 42.5q4 16 4 19q0 11 -5.5 16t-21.5 5q-30 0 -47 -23t-17 -58v-138h94v-30h-94v-369q0 -26 17.5 -43.5t43.5 -17.5v-19h-207v19q26 0 43.5 17.5t17.5 43.5v369h-206v-369q0 -26 17.5 -43.5t43.5 -17.5v-19h-207v19
q26 0 43.5 17.5t17.5 43.5v369h-75v30h75v75q0 75 41 122.5t114 47.5q43 0 69.5 -22t26.5 -52q0 -23 -12.5 -36t-30.5 -13q-20 0 -31 14.5t-5 42.5q4 16 4 19q0 11 -5.5 16t-21.5 5q-30 0 -47 -23t-17 -58v-138h206v75q0 75 41 122.5t114 47.5q43 0 69.5 -22t26.5 -52z" />
    <glyph glyph-name="fi" unicode="fi" horiz-adv-x="573" 
d="M540 19v-19h-207v19q26 0 43.5 17.5t17.5 43.5v307q0 26 -17.5 44t-43.5 18h-145v-369q0 -26 17.5 -43.5t43.5 -17.5v-19h-207v19q26 0 43.5 17.5t17.5 43.5v369h-75v30h75v58q0 79 44 133t132 54q64 0 99 -27t35 -64q0 -25 -13.5 -39t-34.5 -14q-24 0 -36 16.5t-5 44.5
q4 16 4 27q0 30 -48 30q-92 0 -92 -135v-84h291v-399q0 -26 17.5 -43.5t43.5 -17.5z" />
    <glyph glyph-name="fl" unicode="fl" horiz-adv-x="582" 
d="M540 19v-19h-207v19q26 0 43.5 17.5t17.5 43.5v547q0 70 -78 70h-15q-113 0 -113 -137v-81h94v-30h-94v-369q0 -26 17.5 -43.5t43.5 -17.5v-19h-207v19q26 0 43.5 17.5t17.5 43.5v369h-75v30h75v21q0 111 50 167t145 56h181v-643q0 -26 17.5 -43.5t43.5 -17.5z" />
    <glyph glyph-name="f_f_i" unicode="ffi" horiz-adv-x="863" 
d="M830 19v-19h-207v19q26 0 43.5 17.5t17.5 43.5v307q0 26 -17.5 44t-43.5 18h-145v-369q0 -26 17.5 -43.5t43.5 -17.5v-19h-207v19q26 0 43.5 17.5t17.5 43.5v369h-206v-369q0 -26 18 -43.5t44 -17.5v-19h-207v19q26 0 43 17.5t17 43.5v369h-75v30h75v75q0 74 41.5 122
t114.5 48q43 0 69.5 -22t26.5 -52q0 -23 -12.5 -36t-30.5 -13q-20 0 -31 14.5t-5 42.5q3 12 3 19q0 11 -5.5 16t-21.5 5q-30 0 -47 -23t-17 -58v-138h206v58q0 79 44.5 133t132.5 54q64 0 99 -27t35 -64q0 -25 -13.5 -39t-34.5 -14q-24 0 -36 16.5t-5 44.5q4 16 4 27
q0 30 -48 30q-93 0 -93 -135v-84h291v-399q0 -26 17.5 -43.5t43.5 -17.5z" />
    <glyph glyph-name="f_f_l" unicode="ffl" horiz-adv-x="864" 
d="M831 19v-19h-207v19q26 0 43.5 17.5t17.5 43.5v547q0 70 -78 70h-15q-113 0 -113 -137v-81h94v-30h-94v-369q0 -26 17.5 -43.5t43.5 -17.5v-19h-207v19q26 0 43.5 17.5t17.5 43.5v369h-206v-369q0 -26 17.5 -43.5t43.5 -17.5v-19h-207v19q26 0 43.5 17.5t17.5 43.5v369
h-75v30h75v75q0 75 41 122.5t114 47.5q43 0 69.5 -22t26.5 -52q0 -23 -12.5 -36t-30.5 -13q-20 0 -31 14.5t-5 42.5q4 16 4 19q0 11 -5.5 16t-21.5 5q-30 0 -47 -23t-17 -58v-138h206v21q0 111 50 167t145 56h181v-643q0 -26 17.5 -43.5t43.5 -17.5z" />
    <glyph glyph-name="f_t" unicode="ft" horiz-adv-x="621" 
d="M612 72q0 -1 -2 -7q-5 -12 -13 -25t-34 -31t-60 -18q-55 0 -82 30t-27 100v328h-206v-369q0 -26 17.5 -43.5t43.5 -17.5v-19h-207v19q26 0 43.5 17.5t17.5 43.5v369h-75v30h75v75q0 75 41 122.5t114 47.5q43 0 69.5 -22t26.5 -52q0 -23 -12.5 -36t-30.5 -13
q-20 0 -31 14.5t-5 42.5q4 16 4 19q0 11 -5.5 16t-21.5 5q-30 0 -47 -23t-17 -58v-138h122q91 0 145 146h24v-146h94v-30h-94v-356q0 -66 50 -66q32 0 65 48q4 5 8 6.5t7 -1.5t3 -8z" />
    <glyph glyph-name="f_f_t" unicode="fft" horiz-adv-x="913" 
d="M904 72q0 -1 -2 -7q-5 -12 -13 -25t-34 -31t-60 -18q-55 0 -82.5 30t-27.5 100v328h-206v-369q0 -26 17.5 -43.5t43.5 -17.5v-19h-207v19q26 0 43.5 17.5t17.5 43.5v369h-206v-369q0 -26 17.5 -43.5t43.5 -17.5v-19h-207v19q26 0 43.5 17.5t17.5 43.5v369h-75v30h75v75
q0 75 41 122.5t114 47.5q43 0 69.5 -22t26.5 -52q0 -23 -12.5 -36t-30.5 -13q-20 0 -30.5 14.5t-4.5 42.5q3 12 3 19q0 11 -5.5 16t-21.5 5q-30 0 -47 -23t-17 -58v-138h206v75q0 75 41 122.5t114 47.5q43 0 70 -22t27 -52q0 -23 -13 -36t-31 -13q-20 0 -31 14.5t-5 42.5
q4 16 4 19q0 11 -5.5 16t-21.5 5q-30 0 -47 -23t-17 -58v-138h123q90 0 144 146h25v-146h94v-30h-94v-356q0 -66 49 -66q33 0 66 48q4 5 8 6.5t7 -1.5t3 -8z" />
    <glyph glyph-name="f_b" unicode="fb" horiz-adv-x="855" 
d="M714 240q0 211 -100 211q-62 0 -98.5 -60t-36.5 -143q0 -95 32 -157.5t93 -62.5q110 0 110 212zM803 258q0 -117 -51 -192.5t-147 -75.5q-37 0 -71.5 20t-52.5 44h-2q-16 -7 -30.5 -20.5t-21.5 -23.5l-7 -10h-26v627q0 70 -78 70h-15q-113 0 -113 -136v-82h94v-30h-94
v-369q0 -26 17.5 -43.5t43.5 -17.5v-19h-207v19q26 0 43.5 17.5t17.5 43.5v369h-75v30h75v21q0 111 50 167t145 56h181v-324h2q19 39 60 64.5t89 25.5q85 0 129 -64.5t44 -166.5z" />
    <glyph glyph-name="f_h" unicode="fh" horiz-adv-x="855" 
d="M822 19v-19h-207v19q26 0 43.5 17.5t17.5 43.5v257q0 46 -24 75.5t-69 29.5q-42 0 -73 -34.5t-31 -75.5v-252q0 -26 17.5 -43.5t43.5 -17.5v-19h-207v19q26 0 43.5 17.5t17.5 43.5v547q0 70 -77 70h-15q-114 0 -114 -137v-81h94v-30h-94v-369q0 -26 17.5 -43.5
t43.5 -17.5v-19h-207v19q26 0 43.5 17.5t17.5 43.5v369h-75v30h75v21q0 111 50.5 167t145.5 56h180v-314h3q52 80 140 80q50 0 94.5 -35t44.5 -113v-261q0 -26 17.5 -43.5t43.5 -17.5z" />
    <glyph glyph-name="f_j" unicode="fj" horiz-adv-x="564" 
d="M479 479v-476q0 -130 -42 -184t-106 -54q-41 0 -71 20t-30 58q0 20 12.5 31t29.5 12q16 1 28 -8.5t12 -27.5q0 -5 -2 -14.5t-2 -14.5q0 -26 31 -26q29 0 42 25.5t13 82.5v484q0 26 -17.5 44t-43.5 18h-145v-369q0 -26 17.5 -43.5t43.5 -17.5v-19h-207v19q26 0 43.5 17.5
t17.5 43.5v369h-75v30h75v58q0 79 44.5 133t132.5 54q64 0 99 -27t35 -64q0 -25 -13.5 -39t-34.5 -14q-24 0 -36 16.5t-5 44.5q4 16 4 27q0 30 -48 30q-93 0 -93 -135v-84h291z" />
    <glyph glyph-name="f_k" unicode="fk" horiz-adv-x="836" 
d="M827 19v-19h-138q-13 22 -37 55l-106 143q-23 32 -31.5 37t-35.5 5v-160q0 -26 17.5 -43.5t43.5 -17.5v-19h-207v19q26 0 43.5 17.5t17.5 43.5v547q0 70 -78 70h-15q-113 0 -113 -136v-82h94v-30h-94v-369q0 -26 17.5 -43.5t43.5 -17.5v-19h-207v19q26 0 43.5 17.5
t17.5 43.5v369h-75v30h75v21q0 111 50 167t145 56h181v-446q35 -1 47 5.5t39 39.5l65 80q21 23 18.5 41t-32.5 18v18h183v-18q-28 -1 -52.5 -13t-59.5 -49l-103 -111v-3q58 -76 170 -228q28 -38 73 -38z" />
    <glyph glyph-name="f_y" unicode="fy" horiz-adv-x="827" 
d="M818 479v-18q-31 0 -49.5 -23.5t-35.5 -69.5l-149 -397q-48 -129 -71 -162q-30 -44 -75 -44q-33 0 -51.5 21t-18.5 49q0 23 14.5 37.5t32.5 14.5q16 0 26 -10t9 -28q-2 -27 19 -27q23 0 43 57l40 113l-162 373q-24 54 -41 69t-67 15h-94v-369q0 -26 17.5 -43.5
t43.5 -17.5v-19h-207v19q26 0 43.5 17.5t17.5 43.5v369h-75v30h75v75q0 75 41 122.5t114 47.5q43 0 69.5 -22t26.5 -52q0 -23 -12.5 -36t-30.5 -13q-20 0 -31 14.5t-5 42.5q4 16 4 19q0 11 -5.5 16t-21.5 5q-30 0 -47 -23t-17 -58v-138h322v-18q-24 0 -35.5 -8t-11.5 -23.5
t3.5 -28t11.5 -30.5l112 -268h3l87 266q5 16 7.5 23t5 23t-1 24t-13 15t-27.5 7v18h167z" />
    <glyph glyph-name="f_f_b" unicode="ffb" horiz-adv-x="1146" 
d="M1005 240q0 211 -100 211q-62 0 -98.5 -60t-36.5 -143q0 -95 32 -157.5t93 -62.5q110 0 110 212zM1094 258q0 -117 -51 -192.5t-147 -75.5q-37 0 -71.5 20t-52.5 44h-2q-16 -7 -31 -20.5t-21 -23.5l-7 -10h-26v627q0 70 -78 70h-15q-113 0 -113 -136v-82h94v-30h-94v-369
q0 -26 17.5 -43.5t43.5 -17.5v-19h-207v19q26 0 43.5 17.5t17.5 43.5v369h-206v-369q0 -26 17.5 -43.5t43.5 -17.5v-19h-207v19q26 0 43.5 17.5t17.5 43.5v369h-75v30h75v75q0 75 41 122.5t114 47.5q43 0 69.5 -22t26.5 -52q0 -23 -12.5 -36t-30.5 -13q-20 0 -31 14.5
t-5 42.5q4 16 4 19q0 11 -5.5 16t-21.5 5q-30 0 -47 -23t-17 -58v-138h206v21q0 111 50 167t145 56h181v-324h2q19 39 60 64.5t89 25.5q85 0 129 -64.5t44 -166.5z" />
    <glyph glyph-name="f_f_h" unicode="ffh" horiz-adv-x="1146" 
d="M1113 19v-19h-207v19q26 0 43.5 17.5t17.5 43.5v257q0 46 -24 75.5t-69 29.5q-42 0 -73 -34.5t-31 -75.5v-252q0 -26 17.5 -43.5t43.5 -17.5v-19h-207v19q26 0 43.5 17.5t17.5 43.5v547q0 70 -77 70h-15q-114 0 -114 -137v-81h94v-30h-94v-369q0 -26 17.5 -43.5
t43.5 -17.5v-19h-207v19q26 0 43.5 17.5t17.5 43.5v369h-206v-369q0 -26 17.5 -43.5t43.5 -17.5v-19h-207v19q26 0 43.5 17.5t17.5 43.5v369h-75v30h75v75q0 75 41 122.5t114 47.5q43 0 69.5 -22t26.5 -52q0 -23 -12.5 -36t-30.5 -13q-20 0 -31 14.5t-5 42.5q4 16 4 19
q0 11 -5.5 16t-21.5 5q-30 0 -47 -23t-17 -58v-138h206v21q0 111 50.5 167t145.5 56h180v-314h3q52 80 140 80q50 0 94.5 -35t44.5 -113v-261q0 -26 17.5 -43.5t43.5 -17.5z" />
    <glyph glyph-name="f_f_j" unicode="ffj" horiz-adv-x="855" 
d="M770 479v-476q0 -130 -42 -184t-106 -54q-41 0 -71 20t-30 58q0 20 12.5 31t29.5 12q16 1 28 -8.5t12 -27.5q0 -5 -2 -14.5t-2 -14.5q0 -26 31 -26q29 0 42 25.5t13 82.5v484q0 26 -17.5 44t-43.5 18h-145v-369q0 -26 17.5 -43.5t43.5 -17.5v-19h-207v19q26 0 43.5 17.5
t17.5 43.5v369h-206v-369q0 -26 17.5 -43.5t43.5 -17.5v-19h-207v19q26 0 43.5 17.5t17.5 43.5v369h-75v30h75v75q0 75 41 122.5t114 47.5q43 0 69.5 -22t26.5 -52q0 -23 -12.5 -36t-30.5 -13q-20 0 -31 14.5t-5 42.5q4 16 4 19q0 11 -5.5 16t-21.5 5q-30 0 -47 -23t-17 -58
v-138h206v59q0 79 44 132.5t132 53.5q64 0 99 -26.5t35 -63.5q0 -25 -13.5 -39.5t-34.5 -14.5q-24 0 -36 16.5t-5 45.5q4 16 4 26q0 30 -48 30q-92 0 -92 -135v-84h291z" />
    <glyph glyph-name="f_f_k" unicode="ffk" horiz-adv-x="1127" 
d="M1118 19v-19h-137q-14 22 -38 55l-106 143q-23 32 -31 37t-36 5v-160q0 -26 17.5 -43.5t43.5 -17.5v-19h-207v19q26 0 43.5 17.5t17.5 43.5v547q0 70 -78 70h-15q-113 0 -113 -136v-82h94v-30h-94v-369q0 -26 17.5 -43.5t43.5 -17.5v-19h-207v19q26 0 43.5 17.5
t17.5 43.5v369h-206v-369q0 -26 17.5 -43.5t43.5 -17.5v-19h-207v19q26 0 43.5 17.5t17.5 43.5v369h-75v30h75v75q0 75 41 122.5t114 47.5q43 0 69.5 -22t26.5 -52q0 -23 -12.5 -36t-30.5 -13q-20 0 -31 14.5t-5 42.5q4 16 4 19q0 11 -5.5 16t-21.5 5q-30 0 -47 -23t-17 -58
v-138h206v21q0 111 50 167t145 56h181v-446q35 -1 47 5.5t39 39.5l65 80q21 23 18.5 41t-32.5 18v18h183v-18q-28 -1 -52.5 -13t-59.5 -49l-103 -111v-3l170 -228q29 -38 73 -38z" />
    <glyph glyph-name="f_f_y" unicode="ffy" horiz-adv-x="1118" 
d="M1109 479v-18q-31 0 -49.5 -23.5t-35.5 -69.5l-149 -397q-48 -129 -71 -162q-31 -43 -75 -44q-33 0 -51.5 21t-18.5 49q0 23 14.5 37.5t32.5 14.5q16 0 26 -10t9 -28q-2 -27 19 -27q24 0 43 57l40 113l-162 373q-24 54 -41 69t-67 15h-94v-369q0 -26 17.5 -43.5
t43.5 -17.5v-19h-207v19q26 0 43.5 17.5t17.5 43.5v369h-206v-369q0 -26 17.5 -43.5t43.5 -17.5v-19h-207v19q26 0 43.5 17.5t17.5 43.5v369h-75v30h75v75q0 75 41 122.5t114 47.5q43 0 69.5 -22t26.5 -52q0 -23 -12.5 -36t-30.5 -13q-20 0 -31 14.5t-5 42.5q4 16 4 19
q0 11 -5.5 16t-21.5 5q-30 0 -47 -23t-17 -58v-138h206v75q0 75 41 122.5t114 47.5q43 0 69.5 -22t26.5 -52q0 -23 -12.5 -36t-30.5 -13q-20 0 -31 14.5t-5 42.5q4 16 4 19q0 11 -5.5 16t-21.5 5q-30 0 -47 -23t-17 -58v-138h322v-18q-24 0 -35.5 -8t-11.5 -23.5t3.5 -28
t11.5 -30.5l112 -268h3l87 266q5 16 7.5 23t5 23t-1 24t-13 15t-27.5 7v18h167z" />
    <glyph glyph-name="t_t" unicode="tt" horiz-adv-x="612" 
d="M603 72q0 -1 -2 -7q-5 -12 -13 -25t-34 -31t-60 -18q-55 0 -82 30t-27 100v328h-206v-356q0 -66 50 -66q32 0 65 48q4 5 8 6.5t7 -1.5t3 -8q0 -1 -2 -7q-5 -12 -13 -25t-34 -31t-60 -18q-55 0 -82 30t-27 100v328h-75v21q90 32 136 155h24v-146h151q75 38 116 146h24
v-146h94v-30h-94v-356q0 -66 50 -66q32 0 65 48q4 5 8 6.5t7 -1.5t3 -8z" />
    <glyph glyph-name="t_y" unicode="ty" horiz-adv-x="817" 
d="M808 479v-18q-31 0 -49.5 -23.5t-35.5 -69.5l-149 -397q-48 -129 -71 -162q-30 -44 -75 -44q-33 0 -51.5 21t-18.5 49q0 23 14.5 37.5t32.5 14.5q16 0 26 -10t9 -28q-2 -27 19 -27q23 0 43 57l40 113l-162 373q-23 53 -40.5 68.5t-66.5 15.5h-94v-356q0 -66 50 -66
q32 0 65 48q4 5 8 6.5t7 -1.5t3 -8q0 -1 -2 -7q-5 -12 -13 -25t-34 -31t-60 -18q-55 0 -82 30t-27 100v328h-75v21q90 32 136 155h24v-146h321v-18q-24 0 -35.5 -8t-11.5 -23.5t3.5 -28t11.5 -30.5l112 -268h3l87 266q5 16 7.5 23t5 23t-1 24t-13 15t-27.5 7v18h167z" />
    <glyph glyph-name="t_t_y" unicode="tty" horiz-adv-x="1108" 
d="M1099 479v-18q-31 0 -49.5 -23.5t-35.5 -69.5l-149 -397q-48 -129 -71 -162q-31 -43 -75 -44q-33 0 -51.5 21t-18.5 49q0 23 14.5 37.5t32.5 14.5q16 0 26 -10t9 -28q-2 -27 19 -27q24 0 43 57l40 113l-162 373q-23 53 -40.5 68.5t-66.5 15.5h-94v-356q0 -66 50 -66
q32 0 65 48q4 5 8 6.5t7 -1.5t3 -8q0 -1 -2 -7q-5 -12 -13 -25t-34 -31t-60 -18q-55 0 -82 30t-27 100v328h-206v-356q0 -66 50 -66q32 0 65 48q4 5 8 6.5t7 -1.5t3 -8q0 -1 -2 -7q-5 -12 -13 -25t-34 -31t-60 -18q-55 0 -82 30t-27 100v328h-75v21q90 32 136 155h24v-146
h151q75 38 116 146h24v-146h321v-18q-24 0 -35.5 -8t-11.5 -23.5t3.5 -28t11.5 -30.5l112 -268h3l87 266q5 16 7.5 23t5 23t-1 24t-13 15t-27.5 7v18h167z" />
    <glyph glyph-name="f_r" unicode="fr" horiz-adv-x="701" 
d="M682 420q0 -25 -13 -41t-36 -16q-20 0 -31.5 11t-11.5 29q0 4 2.5 18t0 19.5t-14.5 5.5q-25 0 -52.5 -25t-46.5 -61v-280q0 -26 17.5 -43.5t43.5 -17.5v-19h-207v19q26 0 43.5 17.5t17.5 43.5v307q0 26 -17.5 44t-43.5 18h-145v-369q0 -26 17.5 -43.5t43.5 -17.5v-19
h-207v19q26 0 43.5 17.5t17.5 43.5v369h-75v30h75v75q0 75 41 122.5t114 47.5q43 0 69.5 -22t26.5 -52q0 -23 -12.5 -36t-30.5 -13q-20 0 -31 14.5t-5 42.5q4 16 4 19q0 11 -5.5 16t-21.5 5q-30 0 -47 -23t-17 -58v-138h291v-80h3q17 31 49.5 60.5t74.5 29.5q38 0 57 -19.5
t19 -49.5z" />
    <glyph glyph-name="f_f_r" unicode="ffr" horiz-adv-x="992" 
d="M973 420q0 -25 -13 -41t-36 -16q-20 0 -31.5 11t-11.5 29q0 4 2.5 18t0 19.5t-14.5 5.5q-25 0 -52.5 -25t-46.5 -61v-280q0 -26 17.5 -43.5t43.5 -17.5v-19h-207v19q26 0 43.5 17.5t17.5 43.5v307q0 26 -17.5 44t-43.5 18h-145v-369q0 -26 17.5 -43.5t43.5 -17.5v-19
h-207v19q26 0 43.5 17.5t17.5 43.5v369h-206v-369q0 -26 17.5 -43.5t43.5 -17.5v-19h-207v19q26 0 43.5 17.5t17.5 43.5v369h-75v30h75v75q0 75 41 122.5t114 47.5q43 0 69.5 -22t26.5 -52q0 -23 -12.5 -36t-30.5 -13q-20 0 -31 14.5t-5 42.5q4 16 4 19q0 11 -5.5 16
t-21.5 5q-30 0 -47 -23t-17 -58v-138h206v75q0 75 41 122.5t114 47.5q43 0 69.5 -22t26.5 -52q0 -23 -12.5 -36t-30.5 -13q-20 0 -31 14.5t-5 42.5q4 16 4 19q0 11 -5.5 16t-21.5 5q-30 0 -47 -23t-17 -58v-138h291v-80h3q17 31 49.5 60.5t74.5 29.5q38 0 57 -19.5t19 -49.5
z" />
    <glyph glyph-name="f_t_y" unicode="fty" horiz-adv-x="1117" 
d="M612 72q0 -1 -2 -7q-5 -12 -13 -25t-34 -31t-60 -18q-55 0 -82 30t-27 100v328h-206v-369q0 -26 17.5 -43.5t43.5 -17.5v-19h-207v19q26 0 43.5 17.5t17.5 43.5v369h-75v30h75v75q0 75 41 122.5t114 47.5q43 0 69.5 -22t26.5 -52q0 -23 -12.5 -36t-30.5 -13
q-20 0 -31 14.5t-5 42.5q4 16 4 19q0 11 -5.5 16t-21.5 5q-30 0 -47 -23t-17 -58v-138h122q91 0 145 146h24v-146h321v-18q-24 0 -35.5 -8t-11.5 -23.5t3.5 -28t11.5 -30.5l112 -268h3l87 266q5 16 7.5 23t5 23t-1 24t-13 15t-27.5 7v18h167v-18q-31 0 -49.5 -23.5
t-35.5 -69.5l-149 -397q-48 -129 -71 -162q-31 -43 -75 -44q-33 0 -51.5 21t-18.5 49q0 23 14.5 37.5t32.5 14.5q16 0 26 -10t9 -28q-2 -27 19 -27q24 0 43 57l40 113l-162 373q-23 53 -40.5 68.5t-66.5 15.5h-94v-356q0 -66 50 -66q32 0 65 48q4 5 8 6.5t7 -1.5t3 -8z" />
    <glyph glyph-name=".notdef" horiz-adv-x="470" 
d="M117 59h235v616h-235v-616zM59 0v733h353v-733h-353z" />
    <glyph glyph-name=".null" horiz-adv-x="0" 
 />
    <glyph glyph-name="nonmarkingreturn" horiz-adv-x="333" 
 />
    <glyph glyph-name="space" unicode=" " horiz-adv-x="235" 
 />
    <glyph glyph-name="exclam" unicode="!" horiz-adv-x="273" 
d="M193 47q0 -23 -17 -39.5t-40 -16.5t-39.5 16.5t-16.5 39.5t16.5 39.5t39.5 16.5t40 -16.5t17 -39.5zM188 616q0 -23 -6.5 -87t-17.5 -167.5t-18 -178.5h-19q-7 75 -18 178.5t-17.5 167.5t-6.5 87q0 31 12.5 53.5t38.5 22.5t39 -22.5t13 -53.5z" />
    <glyph glyph-name="quotedbl" unicode="&#x22;" horiz-adv-x="372" 
d="M160 645q0 -8 -16.5 -90.5t-16.5 -103.5h-28q0 21 -16.5 103.5t-16.5 90.5q0 20 13.5 33.5t33.5 13.5q19 0 33 -14t14 -33zM306 645q0 -8 -16.5 -90.5t-16.5 -103.5h-28q0 21 -16.5 103.5t-16.5 90.5q0 20 13.5 33.5t33.5 13.5q19 0 33 -14t14 -33z" />
    <glyph glyph-name="numbersign" unicode="#" horiz-adv-x="453" 
d="M271 274l20 131h-99l-19 -131h98zM434 460v-55h-86l-20 -131h85v-57h-93l-31 -217h-57l31 217h-97l-37 -217h-54l32 217h-88v57h98l18 131h-93v55h100l33 218h57l-33 -218h98l33 218h57l-33 -218h80z" />
    <glyph glyph-name="dollar" unicode="$" horiz-adv-x="526" 
d="M181 459l50 -30v225q-45 -2 -74.5 -34t-29.5 -73q0 -55 54 -88zM332 258l-44 25v-260q43 2 79 38.5t36 89.5q0 66 -71 107zM483 179q0 -74 -51.5 -128.5t-143.5 -63.5v-79h-58v78q-91 6 -145.5 50t-54.5 99q0 27 16.5 45.5t41.5 18.5q23 0 35.5 -14t12.5 -31
q0 -8 -2.5 -18.5t-2.5 -19.5q0 -38 26.5 -63.5t72.5 -31.5v285l-85 41q-107 53 -107 158q0 75 52.5 128t139.5 61v58h58v-58q80 -7 125 -49.5t45 -90.5q0 -29 -14.5 -45.5t-35.5 -16.5q-20 0 -33 13t-13 31q0 8 2.5 21t2.5 22q0 26 -18 48.5t-61 28.5v-263l69 -33
q126 -63 126 -181z" />
    <glyph glyph-name="percent" unicode="%" horiz-adv-x="690" 
d="M574 150q2 57 -15 95.5t-48 38.5q-27 0 -48 -38t-23 -92q-2 -56 15 -94.5t48 -38.5q28 0 49 37.5t22 91.5zM251 525q2 56 -15 94.5t-48 38.5q-28 0 -49 -37.5t-22 -92.5q-2 -56 14.5 -94.5t48.5 -38.5q27 0 48 37.5t23 92.5zM650 151q0 -70 -41.5 -119.5t-100.5 -49.5
t-100.5 49.5t-41.5 119.5t42 120t100 50t100 -50t42 -120zM326 525q0 -70 -41.5 -119.5t-100.5 -49.5t-100.5 49.5t-41.5 119.5t41.5 120t100.5 50t100.5 -50t41.5 -120zM512 696h55l-375 -696h-55z" />
    <glyph glyph-name="ampersand" unicode="&#x26;" horiz-adv-x="588" 
d="M314 373h264v-40h-90v-279q-3 -3 -9 -7.5t-25.5 -16.5t-41.5 -21t-56 -16.5t-70 -7.5q-112 0 -182.5 50.5t-70.5 145.5q0 64 41 114.5t100 71.5v2q-49 19 -78 60t-29 92q0 71 57 121t141 50q73 0 141 -41q21 11 34 41h18v-218h-18q-40 99 -63 129q-40 51 -103 51
q-54 0 -90.5 -38t-36.5 -98q0 -59 40 -102t112 -43h15zM394 55v278h-104q-75 0 -119 -47.5t-44 -109.5q0 -77 43.5 -116.5t118.5 -39.5q29 0 55.5 9t37.5 17z" />
    <glyph glyph-name="quotesingle" unicode="'" horiz-adv-x="226" 
d="M160 645q0 -8 -16.5 -90.5t-16.5 -103.5h-28q0 21 -16.5 103.5t-16.5 90.5q0 20 13.5 33.5t33.5 13.5q19 0 33 -14t14 -33z" />
    <glyph glyph-name="parenleft" unicode="(" horiz-adv-x="329" 
d="M287 -218q12 -10 7 -19t-20 3q-49 41 -85.5 82t-71 99t-52.5 135t-18 169q0 93 18 170t53 135t71 99t85 82q13 12 19 2q6 -8 -6 -19q-63 -58 -100 -141.5t-48 -159t-11 -168.5q0 -69 6.5 -127t22.5 -121.5t49 -119.5t81 -101z" />
    <glyph glyph-name="parenright" unicode=")" horiz-adv-x="329" 
d="M282 251q0 -92 -18 -169t-52.5 -135t-71 -99t-85.5 -82q-15 -12 -20 -3t7 19q48 45 81 101t49 119.5t22.5 121.5t6.5 127q0 93 -11 168.5t-48 159t-100 141.5q-14 13 -5 21q7 6 18 -4q49 -41 85 -82t71 -99t53 -135t18 -170z" />
    <glyph glyph-name="asterisk" unicode="*" horiz-adv-x="423" 
d="M341 375q-4 3 -44.5 37t-74.5 56q2 -40 12.5 -91t10.5 -57q0 -14 -9.5 -23.5t-24.5 -9.5t-24.5 9.5t-9.5 23.5q0 5 9.5 56.5t11.5 91.5q-34 -21 -73 -55.5t-44 -37.5q-11 -6 -24.5 -2.5t-20.5 16.5t-3.5 26t14.5 19q4 2 54 19t86 36q-35 18 -85 35.5t-55 20.5
q-27 16 -11 46q7 13 20.5 16.5t24.5 -3.5q4 -2 43.5 -37.5t73.5 -57.5q-2 40 -11.5 92.5t-9.5 57.5q0 14 9.5 23.5t24.5 9.5t24.5 -9.5t9.5 -23.5q0 -6 -10.5 -58t-12.5 -92q34 22 73.5 57t45.5 38q11 6 24.5 2.5t20.5 -16.5t3.5 -26t-14.5 -19q-3 -2 -54 -19.5t-87 -36.5
q36 -18 86 -35t55 -20q27 -16 11 -46q-7 -13 -20.5 -16.5t-24.5 3.5z" />
    <glyph glyph-name="plus" unicode="+" horiz-adv-x="500" 
d="M455 261v-47h-181v-181h-47v181h-182v47h182v182h47v-182h181z" />
    <glyph glyph-name="comma" unicode="," horiz-adv-x="225" 
d="M168 13q0 -96 -87 -146q-11 -7 -15.5 -1t5.5 15q53 44 53 87q0 13 -5.5 18t-17.5 5q-25 0 -39.5 16t-14.5 38t16 40t40 18q33 0 49 -27t16 -63z" />
    <glyph glyph-name="hyphen" unicode="-" horiz-adv-x="329" 
d="M287 268v-57h-245v57h245z" />
    <glyph glyph-name="period" unicode="." horiz-adv-x="225" 
d="M160 47q0 -23 -17 -39.5t-40 -16.5t-39.5 16.5t-16.5 39.5t16.5 39.5t39.5 16.5t40 -16.5t17 -39.5z" />
    <glyph glyph-name="slash" unicode="/" horiz-adv-x="282" 
d="M198 693h65l-179 -708h-65z" />
    <glyph glyph-name="zero" unicode="0" horiz-adv-x="527" 
d="M381 338q0 61 -5.5 113t-18 98.5t-36.5 73t-58 26.5q-117 0 -117 -311q0 -310 117 -310q34 0 58 26.5t36.5 73t18 98t5.5 112.5zM475 338q0 -155 -55 -254t-157 -99t-156.5 99t-54.5 254t54.5 251.5t156.5 96.5t157 -96.5t55 -251.5z" />
    <glyph glyph-name="one" unicode="1" horiz-adv-x="310" 
d="M288 19v-19h-265v19q43 0 66.5 19t23.5 52v416q0 43 -13.5 51t-80.5 8v19q86 35 158 102h20v-596q0 -33 24 -52t67 -19z" />
    <glyph glyph-name="two" unicode="2" horiz-adv-x="517" 
d="M434 146h19v-146h-406v27l207 244q56 66 80 120.5t24 120.5q0 56 -27 98t-86 42q-51 0 -78 -26t-27 -63q0 -8 2 -21t2 -19q0 -18 -11 -31.5t-32 -13.5q-23 0 -37.5 15t-14.5 42q0 55 56 103t150 48q82 0 140 -43t58 -125q0 -21 -3.5 -41t-13.5 -41t-15.5 -33t-24 -35
t-22.5 -29t-28 -32t-25 -27l-172 -193v-2h217q17 0 30 8.5t18 16t16 29.5q3 4 4 7z" />
    <glyph glyph-name="three" unicode="3" horiz-adv-x="494" 
d="M446 206q0 -97 -67 -159t-165 -62q-74 0 -125 29.5t-51 77.5q0 25 16 42t40 17q20 0 31.5 -14t11.5 -35q0 -3 -1 -10t-1 -10q0 -29 22.5 -46t61.5 -17q57 0 92 45.5t35 128.5q0 72 -46.5 115.5t-128.5 43.5v37q63 0 108.5 34.5t45.5 110.5q0 53 -26 86t-73 33
q-43 0 -66.5 -20t-23.5 -52q0 -5 1.5 -15t1.5 -14q0 -20 -12.5 -32.5t-28.5 -12.5q-22 0 -34.5 13.5t-12.5 36.5q0 46 47.5 87.5t130.5 41.5q86 0 133.5 -43t47.5 -112q0 -84 -94 -141v-3q58 -17 94 -68.5t36 -112.5z" />
    <glyph glyph-name="four" unicode="4" horiz-adv-x="517" 
d="M102 221h203v335h-2zM479 19v-19h-265v19q43 0 67 19t24 52v74h-258v37l286 478h56v-458h89v-57h-89v-74q0 -33 23.5 -52t66.5 -19z" />
    <glyph glyph-name="five" unicode="5" horiz-adv-x="502" 
d="M446 208q0 -99 -70 -161t-176 -62q-72 0 -117 32t-45 82q0 26 15.5 43.5t38.5 17.5q19 0 30.5 -13t11.5 -34q0 -3 -0.5 -10t-0.5 -11q0 -33 20 -53t58 -20q56 0 97 48t41 128q0 86 -52 136.5t-142 50.5h-72l55 289h299l-15 -84h-259l-30 -163h56q119 0 188 -59.5
t69 -156.5z" />
    <glyph glyph-name="six" unicode="6" horiz-adv-x="527" 
d="M475 227q0 -97 -56.5 -169.5t-157.5 -72.5q-92 0 -150.5 75t-58.5 208q0 182 104 293.5t267 124.5v-19q-61 -12 -109.5 -41t-79 -69.5t-49.5 -81.5t-30 -88h3q21 21 61.5 37t72.5 16q86 0 134.5 -63.5t48.5 -149.5zM148 352q-7 -43 -7 -81q0 -111 33 -179.5t93 -68.5
q47 0 80.5 51t33.5 144t-35 135.5t-90 42.5t-108 -44z" />
    <glyph glyph-name="seven" unicode="7" horiz-adv-x="451" 
d="M432 671v-47l-253 -624h-81l284 584v3h-256q-29 0 -43 -14t-27 -48h-18v146h394z" />
    <glyph glyph-name="eight" unicode="8" horiz-adv-x="518" 
d="M379 145q0 40 -18.5 66t-58.5 58q-23 18 -84 66q-46 -30 -69.5 -82t-23.5 -93q0 -52 32.5 -94.5t94.5 -42.5q56 0 91.5 36.5t35.5 85.5zM379 531q0 52 -33 85t-82 33q-42 0 -74 -26.5t-32 -70.5q0 -50 58 -96l85 -68q78 61 78 143zM473 170q0 -81 -66.5 -133t-152.5 -52
q-83 0 -146 44t-63 124q0 111 152 199l-44 34q-44 35 -62 66.5t-18 72.5q0 67 55 114t136 47q75 0 128 -43t53 -107q0 -34 -13 -63.5t-35 -48.5t-39.5 -30t-36.5 -19v-3l40 -32q59 -47 85.5 -84t26.5 -86z" />
    <glyph glyph-name="nine" unicode="9" horiz-adv-x="522" 
d="M380 406q0 110 -32.5 176.5t-93.5 66.5q-47 0 -80 -49t-33 -141q0 -93 34.5 -135.5t89.5 -42.5q57 0 112 47q3 45 3 78zM470 408q0 -186 -92 -298t-251 -125v19q211 42 245 292h-3q-14 -20 -56.5 -39.5t-83.5 -19.5q-86 0 -134 63t-48 149q0 97 56 167t157 70
q92 0 151 -73t59 -205z" />
    <glyph glyph-name="colon" unicode=":" horiz-adv-x="226" 
d="M160 47q0 -23 -17 -39.5t-40 -16.5t-39.5 16.5t-16.5 39.5t16.5 39.5t39.5 16.5t40 -16.5t17 -39.5zM160 395q0 -23 -17 -40t-40 -17t-39.5 17t-16.5 40t16.5 39.5t39.5 16.5t40 -16.5t17 -39.5z" />
    <glyph glyph-name="semicolon" unicode=";" horiz-adv-x="226" 
d="M168 13q0 -96 -87 -146q-11 -7 -15.5 -1t5.5 15q53 44 53 87q0 13 -5.5 18t-17.5 5q-25 0 -39.5 16t-14.5 38t16 40t40 18q33 0 49 -27t16 -63zM160 395q0 -23 -17 -40t-40 -17t-39.5 17t-16.5 40t16.5 39.5t39.5 16.5t40 -16.5t17 -39.5z" />
    <glyph glyph-name="less" unicode="&#x3c;" horiz-adv-x="500" 
d="M455 43v-52l-410 220v54l410 220v-53l-355 -194z" />
    <glyph glyph-name="equal" unicode="=" horiz-adv-x="500" 
d="M455 211v-47h-410v47h410zM455 315v-47h-410v47h410z" />
    <glyph glyph-name="greater" unicode="&#x3e;" horiz-adv-x="500" 
d="M455 265v-54l-410 -220v52l355 195l-355 194v53z" />
    <glyph glyph-name="question" unicode="?" horiz-adv-x="432" 
d="M263 47q0 -23 -16.5 -39.5t-39.5 -16.5t-40 16.5t-17 39.5t17 39.5t40 16.5t39.5 -16.5t16.5 -39.5zM390 549q0 -18 -5 -37t-10 -31t-19.5 -33t-19 -27t-25.5 -30t-23 -27q-43 -52 -53.5 -81t-18.5 -108h-19q-4 40 -4 77q0 36 9.5 63t36.5 72q50 85 50 154
q-1 45 -26.5 74.5t-71.5 29.5q-34 0 -59.5 -18t-25.5 -43q0 -13 19 -33t19 -43q0 -20 -13 -33t-34 -13q-26 0 -42.5 21t-16.5 53q0 68 52 112t129 44q70 0 120.5 -39.5t50.5 -103.5z" />
    <glyph glyph-name="at" unicode="@" horiz-adv-x="757" 
d="M457 371q8 40 -2 66.5t-41 26.5q-50 0 -88 -62.5t-38 -121.5q0 -33 13.5 -53.5t37.5 -20.5q34 0 61.5 29t39.5 72q10 36 17 64zM722 375q0 -98 -58.5 -164.5t-128.5 -66.5q-99 0 -101 87h-2q-50 -71 -118 -71q-55 0 -85 37.5t-30 92.5q0 88 55.5 154.5t132.5 66.5
q40 0 62 -18t28 -36h2l12 43h84l-64 -233q-11 -35 0 -59t34 -24q50 0 87 59.5t37 135.5q0 105 -76.5 181.5t-189.5 76.5q-124 0 -212 -92t-88 -226q0 -136 83 -216t211 -80q73 0 129 21.5t117 61.5q30 20 32 8q0 -10 -14 -24q-42 -40 -113.5 -72.5t-158.5 -32.5
q-159 0 -255 92.5t-96 232.5q0 160 107 263.5t258 103.5q137 0 228 -84t91 -218z" />
    <glyph glyph-name="A" unicode="A" horiz-adv-x="713" 
d="M229 282h212l-103 265h-9zM703 19v-19h-236v19q40 0 49 28.5t-8 62.5l-52 134h-241l-48 -127q-9 -24 -11.5 -39.5t1 -30t20 -21.5t46.5 -7v-19h-213v19q80 0 118 101l221 583h30l231 -593q12 -30 20 -46t27 -30.5t46 -14.5z" />
    <glyph glyph-name="B" unicode="B" horiz-adv-x="607" 
d="M457 186q0 67 -38.5 111.5t-114.5 47.5l-87 3v-258q0 -35 18.5 -43.5t83.5 -8.5q138 0 138 148zM428 528q0 62 -34.5 96t-89.5 34h-21q-35 0 -50.5 -10.5t-15.5 -42.5v-220h68q71 0 107 41.5t36 101.5zM561 199q0 -86 -61.5 -142.5t-169.5 -56.5h-297v19q43 0 66.5 19
t23.5 52v515q0 34 -23.5 53t-66.5 19v19h287q94 0 145.5 -43.5t51.5 -118.5q0 -46 -27.5 -88.5t-79.5 -64.5v-2q71 -19 111 -69.5t40 -110.5z" />
    <glyph glyph-name="C" unicode="C" horiz-adv-x="629" 
d="M590 0h-19q-7 12 -17 22t-17 14l-7 3q-92 -54 -171 -54q-56 0 -107.5 19.5t-96.5 60t-72 114t-27 170.5q0 154 88 258t225 104q80 0 147 -46q22 6 37 31h19v-218h-19q-66 195 -185 195q-89 0 -148.5 -90t-59.5 -234q0 -85 23.5 -157.5t72.5 -120t115 -47.5
q36 0 67.5 14.5t56 42.5t41.5 54t35 62h19v-197z" />
    <glyph glyph-name="D" unicode="D" horiz-adv-x="698" 
d="M295 0h-262v19q43 0 66.5 19t23.5 52v515q0 34 -23.5 53t-66.5 19v19h271q165 0 251.5 -84t86.5 -252q0 -182 -91 -271t-256 -89zM295 658h-11q-36 0 -51.5 -10.5t-15.5 -42.5v-515q0 -32 15.5 -42t51.5 -10h15q129 0 184 76t55 231q0 144 -58.5 228.5t-184.5 84.5z" />
    <glyph glyph-name="E" unicode="E" horiz-adv-x="576" 
d="M539 178v-178h-506v19q43 0 66.5 19t23.5 52v515q0 34 -23.5 53t-66.5 19v19h483v-170h-18q-34 86 -61.5 109t-98.5 23h-37.5t-29 -1.5t-24.5 -4.5t-15 -9t-11.5 -15.5t-2.5 -22.5v-220h83q35 0 62.5 25.5t27.5 68.5h18v-225h-18q0 43 -27.5 68.5t-62.5 25.5h-83v-258
q0 -16 5 -25.5t10.5 -15t22.5 -8t29 -3t41 -0.5h12q81 0 113.5 26t68.5 114h19z" />
    <glyph glyph-name="F" unicode="F" horiz-adv-x="525" 
d="M506 696v-170h-18q-34 86 -61.5 109t-98.5 23h-11q-26 0 -37.5 -0.5t-26.5 -3t-20.5 -8t-10 -15.5t-4.5 -26v-264h73q35 0 62 25.5t27 68.5h20v-225h-20q0 43 -27 68.5t-62 25.5h-73v-214q0 -33 23.5 -52t65.5 -19v-19h-274v19q43 0 66.5 19t23.5 52v515q0 34 -23.5 53
t-66.5 19v19h473z" />
    <glyph glyph-name="G" unicode="G" horiz-adv-x="721" 
d="M711 303q-39 0 -65 -18t-26 -51v-243h-18q-12 38 -41 59q-90 -65 -194 -65q-146 0 -228.5 96.5t-82.5 262.5q0 149 91.5 258t236.5 109q90 0 163 -50q6 1 14 9.5t13 17.5l4 8h19v-218h-19q-32 90 -81.5 142.5t-112.5 52.5q-106 0 -165 -95t-59 -227q0 -156 59.5 -242
t152.5 -86q101 0 153 68l1 140q0 34 -24 53t-66 19v18h275v-18z" />
    <glyph glyph-name="H" unicode="H" horiz-adv-x="768" 
d="M735 19v-19h-273v19q42 0 65.5 19t23.5 52v258h-334v-258q0 -33 24 -52t67 -19v-19h-275v19q43 0 66.5 19t23.5 52v515q0 34 -23.5 53t-66.5 19v19h275v-19q-43 0 -67 -19t-24 -53v-220h334v220q0 34 -23.5 53t-65.5 19v19h273v-19q-43 0 -66.5 -19t-23.5 -53v-515
q0 -33 23.5 -52t66.5 -19z" />
    <glyph glyph-name="I" unicode="I" horiz-adv-x="340" 
d="M307 19v-19h-274v19q43 0 66.5 19t23.5 52v515q0 34 -23.5 53t-66.5 19v19h274v-19q-43 0 -66.5 -19t-23.5 -53v-515q0 -33 23.5 -52t66.5 -19z" />
    <glyph glyph-name="J" unicode="J" horiz-adv-x="406" 
d="M383 696v-18q-43 0 -67.5 -19.5t-24.5 -53.5v-417q0 -90 -40.5 -146.5t-122.5 -56.5q-50 0 -86 24.5t-36 68.5q0 28 16.5 43t38.5 15q20 0 33.5 -12.5t14.5 -35.5q0 -7 -1.5 -20.5t-1.5 -20.5q0 -31 30 -31q62 0 62 92v497q0 34 -24 53.5t-67 19.5v18h276z" />
    <glyph glyph-name="K" unicode="K" horiz-adv-x="703" 
d="M683 19v-19h-157l-234 309q-23 30 -31.5 34.5t-42.5 4.5v-258q0 -33 23.5 -52t65.5 -19v-19h-274v19q43 0 66.5 19t23.5 52v515q0 34 -23.5 53.5t-66.5 19.5v18h274v-18q-42 0 -65.5 -19.5t-23.5 -53.5v-220q42 0 56 7t37 36l131 164q3 4 10 13q41 50 39 62q-2 11 -30 11
v18h189v-19q-49 0 -80.5 -21t-82.5 -80l-148 -173v-2l200 -264q1 -1 15.5 -20.5t18 -23.5t17 -20t21 -21.5t20.5 -14.5t25.5 -13t26.5 -5z" />
    <glyph glyph-name="L" unicode="L" horiz-adv-x="542" 
d="M522 178v-178h-489v19q42 0 66.5 20t24.5 53v513q0 34 -24 53.5t-67 19.5v18h275v-18q-43 0 -67 -19.5t-24 -53.5v-515q0 -32 15 -42t51 -10h39q79 0 111 24t71 116h18z" />
    <glyph glyph-name="M" unicode="M" horiz-adv-x="908" 
d="M875 19v-19h-276v19q43 0 67.5 19t24.5 52v522h-4l-252 -589q-4 -8 -9.5 -8t-9.5 8l-252 589h-4v-522q0 -33 23.5 -52t65.5 -19v-19h-216v19q43 0 66.5 19t23.5 52v515q0 34 -23.5 53t-66.5 19v19h197l225 -524h3l225 524h192v-19q-43 0 -66.5 -19t-23.5 -53v-515
q0 -33 23.5 -52t66.5 -19z" />
    <glyph glyph-name="N" unicode="N" horiz-adv-x="765" 
d="M732 696v-19q-43 0 -67 -19t-24 -53v-605h-33l-443 572h-4v-482q0 -33 24 -52t67 -19v-19h-219v19q43 0 67 19t24 52v515q0 34 -24 53t-67 19v19h157l409 -531h4v440q0 34 -23.5 53t-66.5 19v19h219z" />
    <glyph glyph-name="O" unicode="O" horiz-adv-x="709" 
d="M355 -15q-143 0 -221 98.5t-78 264.5q0 90 35 172t105 136.5t159 54.5q142 0 220 -98.5t78 -264.5q0 -90 -35 -172t-104.5 -136.5t-158.5 -54.5zM355 673q-67 0 -112.5 -49.5t-64 -120t-18.5 -155.5t18.5 -155.5t64 -120t112.5 -49.5t112.5 49.5t64 120t18.5 155.5
t-18.5 155.5t-64 120t-112.5 49.5z" />
    <glyph glyph-name="P" unicode="P" horiz-adv-x="602" 
d="M308 300h-91v-210q0 -33 24 -52t67 -19v-19h-275v19q43 0 66.5 19t23.5 52v515q0 34 -23.5 53.5t-66.5 19.5v18h300q107 0 165 -56.5t58 -134.5q0 -95 -67 -150t-181 -55zM325 652q-108 10 -108 -47v-269h68q83 0 127.5 39.5t44.5 117.5q0 64 -33 109.5t-99 49.5z" />
    <glyph glyph-name="Q" unicode="Q" horiz-adv-x="709" 
d="M677 -134v-19q-33 -13 -70 -13q-58 0 -121 38l-201 120q-113 23 -171 117t-58 239q0 90 35.5 172t105.5 136.5t159 54.5q142 0 219.5 -98.5t77.5 -264.5q0 -80 -26.5 -153.5t-81 -129t-128.5 -72.5v-4q31 -7 52 -20l138 -83q33 -19 70 -20zM356 673q-67 0 -113 -49.5
t-64.5 -120t-18.5 -155.5t18.5 -155.5t64.5 -120t113 -49.5t112.5 49.5t63.5 120t18 155.5t-18 155.5t-63.5 120t-112.5 49.5z" />
    <glyph glyph-name="R" unicode="R" horiz-adv-x="706" 
d="M458 490q0 78 -42.5 121t-116.5 43q-82 0 -82 -49v-262h82q70 0 114.5 36t44.5 111zM696 19v-19h-167l-78 104q-57 77 -146 201h-88v-215q0 -33 24 -52t67 -19v-19h-275v19q43 0 66.5 19t23.5 52v515q0 34 -23.5 53.5t-66.5 19.5v18h300q109 0 166.5 -51.5t57.5 -127.5
q0 -81 -47.5 -131.5t-110.5 -62.5v-3l143 -186q2 -3 14.5 -19t15.5 -20t14 -17t15.5 -17t15 -13.5t18 -12.5t18 -8t21 -6.5t22.5 -1.5z" />
    <glyph glyph-name="S" unicode="S" horiz-adv-x="552" 
d="M496 184q0 -87 -61 -143t-161 -56q-42 0 -84.5 14t-63.5 29l-21 14q-20 -12 -32 -42h-17v217h17q17 -35 26.5 -53t30.5 -50t39.5 -49t47 -31t60.5 -14q53 0 89.5 36.5t36.5 96.5q0 93 -80 135l-151 80q-57 31 -86.5 66.5t-29.5 95.5q0 78 59 129.5t140 51.5q21 0 39.5 -3
t41 -11.5t29 -11.5t31.5 -15q21 11 34 41h18v-222h-18q-40 98 -59 125q-42 58 -112 59q-55 0 -87 -32.5t-32 -76.5q0 -34 15 -60.5t58 -49.5l168 -89q115 -60 115 -181z" />
    <glyph glyph-name="T" unicode="T" horiz-adv-x="549" 
d="M540 696v-170h-20q-29 80 -53 106.5t-83 26.5h-5q-57 0 -57 -64v-505q0 -33 24 -52t67 -19v-19h-275v19q43 0 66 19t23 52v505q0 64 -55 64h-8q-58 0 -81.5 -26t-53.5 -107h-20v170h531z" />
    <glyph glyph-name="U" unicode="U" horiz-adv-x="707" 
d="M684 696v-18q-42 0 -66 -19.5t-24 -53.5v-363q0 -133 -65 -195t-176 -62t-175.5 63.5t-64.5 204.5v352q0 34 -24 53.5t-66 19.5v18h274v-18q-43 0 -66.5 -19.5t-23.5 -53.5v-378q0 -102 48 -153t126 -51q79 0 127 53.5t48 165.5v363q0 34 -24 53.5t-67 19.5v18h219z" />
    <glyph glyph-name="V" unicode="V" horiz-adv-x="710" 
d="M476 696h225v-19q-42 0 -69.5 -22t-48.5 -79l-219 -576h-34l-228 586q-12 30 -20 46t-27 30.5t-46 14.5v19h247v-19q-40 0 -55 -23.5t2 -67.5l172 -441h5l154 434q8 24 10.5 39.5t-1.5 30t-20.5 21.5t-46.5 7v19z" />
    <glyph glyph-name="W" unicode="W" horiz-adv-x="1015" 
d="M1006 696v-19q-40 0 -61.5 -16.5t-33.5 -55.5q-134 -426 -195 -605h-33q-16 57 -58.5 182.5t-76.5 222.5l-34 97h-3q-135 -383 -167 -502h-35l-204 605q-24 73 -96 73v18h243v-18q-74 0 -50 -73q113 -347 151 -443h3l171 510q4 11 13.5 11t13.5 -11q146 -442 174 -511h2
l135 431q15 47 7 66.5t-44 19.5v18h178z" />
    <glyph glyph-name="X" unicode="X" horiz-adv-x="658" 
d="M649 0h-239v19q28 2 36.5 10t4 23.5t-24.5 49.5l-115 194h-3l-117 -194q-26 -38 -20 -60.5t54 -22.5v-19h-216v19q44 3 74 26.5t66 77.5l141 209l-173 287q-34 59 -108 59v18h248v-18q-21 0 -30 -7t-7 -21t9 -30.5t22 -40.5l96 -164h4l104 177q26 44 18.5 65t-50.5 21v18
h226v-19q-50 0 -81.5 -25t-65.5 -76l-134 -196l148 -246q39 -66 63 -89t70 -26v-19z" />
    <glyph glyph-name="Y" unicode="Y" horiz-adv-x="669" 
d="M660 696v-18q-38 0 -57.5 -20t-47.5 -72l-165 -303v-193q0 -33 23.5 -52t66.5 -19v-19h-274v19q43 0 66.5 19t23.5 52v171l-175 325q-28 52 -50.5 72t-61.5 20v18h268v-18q-48 0 -61.5 -18.5t11.5 -72.5l139 -263h2l130 262q47 92 -47 92v18h209z" />
    <glyph glyph-name="Z" unicode="Z" horiz-adv-x="537" 
d="M497 178v-178h-464v19l349 636v3h-151q-37 0 -59.5 -6t-40.5 -25.5t-28 -38.5t-28 -62h-19v170h441v-18l-348 -638v-2h148q44 0 71 6t47 25.5t32 41t31 67.5h19z" />
    <glyph glyph-name="bracketleft" unicode="[" horiz-adv-x="301" 
d="M263 -216v-19h-178v968h178v-19l-43 -7q-45 -7 -52.5 -15t-7.5 -48v-790q0 -39 7.5 -47t52.5 -16z" />
    <glyph glyph-name="backslash" unicode="\" horiz-adv-x="282" 
d="M84 693l179 -708h-65l-179 708h65z" />
    <glyph glyph-name="bracketright" unicode="]" horiz-adv-x="301" 
d="M216 733v-968h-178v19l43 7q45 8 52.5 16t7.5 47v790q0 40 -7.5 48t-52.5 15l-43 7v19h178z" />
    <glyph glyph-name="asciicircum" unicode="^" horiz-adv-x="564" 
d="M309 677l220 -339h-52l-195 284l-195 -284h-52l220 339h54z" />
    <glyph glyph-name="underscore" unicode="_" horiz-adv-x="470" 
d="M470 -71v-47h-470v47h470z" />
    <glyph glyph-name="grave" unicode="`" horiz-adv-x="470" 
d="M201 649l93 -115h-32l-112 71q-20 13 -20 34q0 13 9 22.5t23 9.5q21 0 39 -22z" />
    <glyph glyph-name="a" unicode="a" horiz-adv-x="506" 
d="M329 141v126q-198 -30 -198 -150q0 -38 21.5 -59t52.5 -21q43 0 83.5 35.5t40.5 68.5zM483 54q0 -5 -2 -8q-6 -9 -16.5 -20t-33.5 -23.5t-47 -12.5q-50 0 -55 81h-4q-27 -25 -45 -39.5t-48 -27.5t-62 -13q-52 0 -90 32t-38 91q0 37 17 65.5t42 47t66 32.5t76.5 21.5
t85.5 15.5v62q0 48 -28 71.5t-71 23.5q-83 0 -83 -39q0 -7 1.5 -11.5t4 -10.5t3.5 -12q5 -24 -7.5 -41.5t-36.5 -17.5q-22 0 -34.5 16.5t-12.5 36.5q0 51 52.5 83t114.5 32q76 0 128.5 -33.5t52.5 -100.5v-267q0 -48 25 -48q18 0 33 17q4 5 8 3.5t4 -6.5z" />
    <glyph glyph-name="b" unicode="b" 
d="M414 240q0 211 -100 211q-62 0 -98.5 -60t-36.5 -143q0 -95 32 -157.5t93 -62.5q110 0 110 212zM503 258q0 -117 -51 -192.5t-147 -75.5q-37 0 -71.5 20t-52.5 44h-2q-36 -15 -59 -54h-26v643q0 26 -17.5 43.5t-43.5 17.5v19h146v-324h2q19 39 60 64.5t89 25.5
q85 0 129 -64.5t44 -166.5z" />
    <glyph glyph-name="c" unicode="c" horiz-adv-x="478" 
d="M440 86q0 -1 -2 -5q-30 -48 -74.5 -69t-87.5 -21q-95 0 -159.5 62t-64.5 185q0 110 61.5 181t163.5 71q68 0 111 -35.5t43 -76.5q0 -27 -14.5 -42.5t-36.5 -15.5q-27 0 -38 18t-6 40q1 4 3.5 16t2.5 18q0 20 -16.5 32.5t-48.5 12.5q-69 0 -102.5 -62t-33.5 -155
q0 -85 42 -148.5t112 -63.5q29 0 57 12.5t39.5 22.5t30.5 28q7 7 12.5 4.5t5.5 -9.5z" />
    <glyph glyph-name="d" unicode="d" 
d="M376 240q0 211 -111 211q-65 0 -94.5 -60t-29.5 -151q0 -88 29 -146.5t87 -58.5q57 0 88 56t31 149zM522 19v-19h-124q-10 11 -15.5 29t-6.5 30v12h-3q-53 -80 -142 -80q-74 0 -126.5 62.5t-52.5 180.5q0 113 56.5 184t142.5 71q44 0 76 -18t46 -41h3v213
q0 26 -17.5 43.5t-43.5 17.5v19h146v-643q0 -26 17.5 -43.5t43.5 -17.5z" />
    <glyph glyph-name="e" unicode="e" horiz-adv-x="490" 
d="M147 311h208q0 141 -93 141q-41 0 -73 -37.5t-42 -103.5zM447 281h-304q0 -7 -0.5 -23t-0.5 -24q0 -82 39.5 -144t111.5 -62q33 0 62.5 12.5t42.5 22.5t31 28q4 4 8.5 5t7.5 -1t3 -6q0 -3 -3 -8q-24 -37 -69.5 -63.5t-99.5 -26.5q-100 0 -162 68t-62 181q0 97 59 173.5
t159 76.5q81 0 129 -56t48 -153z" />
    <glyph glyph-name="f" unicode="f" horiz-adv-x="317" 
d="M354 650q0 -23 -12.5 -36t-30.5 -13q-20 0 -31 14.5t-5 42.5q4 16 4 19q0 11 -5.5 16t-21.5 5q-30 0 -47 -23t-17 -58v-138h94v-30h-94v-369q0 -26 17.5 -43.5t43.5 -17.5v-19h-207v19q26 0 43.5 17.5t17.5 43.5v369h-75v30h75v75q0 75 41 122.5t114 47.5q43 0 69.5 -22
t26.5 -52z" />
    <glyph glyph-name="g" unicode="g" horiz-adv-x="506" 
d="M404 -87q0 87 -87 87h-133q-35 0 -54 -28t-19 -61q0 -52 36.5 -83t102.5 -31q76 0 115 33.5t39 82.5zM354 329q0 66 -26 98.5t-70 32.5q-49 0 -75.5 -35t-26.5 -96q0 -65 27.5 -97.5t72.5 -32.5q98 0 98 130zM496 512q0 -18 -10.5 -29.5t-27.5 -11.5t-25.5 12t-3.5 28
q4 12 4 13q0 4 -10 4q-20 0 -42 -16.5t-36 -41.5q46 -21 72 -58t26 -84q0 -77 -57 -119.5t-130 -42.5q-6 0 -32 1.5t-33 1.5q-40 0 -60 -34q-19 -32 3 -52q14 -12 40 -12h134q74 0 118 -36.5t44 -103.5q0 -68 -57 -117t-164 -49q-94 0 -150.5 35.5t-56.5 95.5
q0 40 22.5 69.5t51.5 42.5v2q-45 24 -45 72q0 36 24.5 62.5t55.5 39.5v3q-84 44 -84 137q0 67 54 116t135 49q34 0 62 -9q21 36 52.5 59t66.5 23q30 0 44.5 -15t14.5 -35z" />
    <glyph glyph-name="h" unicode="h" horiz-adv-x="564" 
d="M531 19v-19h-207v19q26 0 43.5 17.5t17.5 43.5v257q0 46 -24 75.5t-69 29.5q-42 0 -73 -34.5t-31 -75.5v-252q0 -26 17.5 -43.5t43.5 -17.5v-19h-207v19q26 0 43.5 17.5t17.5 43.5v563q0 26 -17.5 43.5t-43.5 17.5v19h146v-314h3q52 80 140 80q50 0 94.5 -35t44.5 -113
v-261q0 -26 17.5 -43.5t43.5 -17.5z" />
    <glyph glyph-name="i" unicode="i" horiz-adv-x="282" 
d="M249 19v-19h-207v19q26 0 43.5 17.5t17.5 43.5v319q0 26 -17.5 44t-43.5 18v18h146v-399q0 -26 17.5 -43.5t43.5 -17.5zM197 636q0 -23 -16.5 -39.5t-39.5 -16.5t-39.5 16.5t-16.5 39.5q0 24 16.5 40.5t39.5 16.5t39.5 -16.5t16.5 -40.5z" />
    <glyph glyph-name="j" unicode="j" horiz-adv-x="282" 
d="M188 479v-476q0 -130 -42 -184t-106 -54q-41 0 -71 20t-30 58q0 20 12.5 31t29.5 12q16 1 28 -8.5t12 -27.5q0 -5 -2 -14.5t-2 -14.5q0 -26 31 -26q29 0 42 25.5t13 82.5v496q0 26 -17.5 44t-43.5 18v18h146zM197 637q0 -23 -16.5 -39.5t-39.5 -16.5t-39.5 16.5
t-16.5 39.5q0 24 16.5 40.5t39.5 16.5t39.5 -16.5t16.5 -40.5z" />
    <glyph glyph-name="k" unicode="k" horiz-adv-x="545" 
d="M536 19v-19h-138l-143 198q-23 32 -31 37t-36 5v-160q0 -26 17.5 -43.5t43.5 -17.5v-19h-207v19q26 0 43.5 17.5t17.5 43.5v563q0 26 -17.5 43.5t-43.5 17.5v19h146v-446q35 -1 47 5.5t39 39.5l65 80q21 23 18.5 41t-32.5 18v18h183v-18q-28 -1 -52.5 -13t-59.5 -49
l-103 -111v-3l170 -228q29 -38 73 -38z" />
    <glyph glyph-name="l" unicode="l" horiz-adv-x="291" 
d="M249 19v-19h-207v19q26 0 43.5 17.5t17.5 43.5v563q0 26 -17.5 43.5t-43.5 17.5v19h146v-643q0 -26 17.5 -43.5t43.5 -17.5z" />
    <glyph glyph-name="m" unicode="m" horiz-adv-x="829" 
d="M796 19v-19h-207v19q26 0 43.5 17.5t17.5 43.5v257q0 46 -22 75.5t-62 29.5q-42 0 -73 -32.5t-31 -72.5v-257q0 -26 17.5 -43.5t43.5 -17.5v-19h-207v19q26 0 43.5 17.5t17.5 43.5v257q0 46 -22 75.5t-63 29.5q-42 0 -73 -34.5t-31 -75.5v-252q0 -26 17.5 -43.5
t43.5 -17.5v-19h-207v19q26 0 43.5 17.5t17.5 43.5v319q0 26 -17.5 44t-43.5 18v18h146v-70h3q57 80 137 80q39 0 73 -22.5t50 -67.5h2q22 41 60 65.5t86 24.5q50 0 93 -35t43 -113v-261q0 -26 17.5 -43.5t43.5 -17.5z" />
    <glyph glyph-name="n" unicode="n" horiz-adv-x="564" 
d="M531 19v-19h-207v19q26 0 43.5 17.5t17.5 43.5v257q0 46 -24 75.5t-69 29.5q-42 0 -73 -34.5t-31 -75.5v-252q0 -26 17.5 -43.5t43.5 -17.5v-19h-207v19q26 0 43.5 17.5t17.5 43.5v319q0 26 -17.5 44t-43.5 18v18h146v-70h3q56 80 140 80q50 0 94.5 -35t44.5 -113v-261
q0 -26 17.5 -43.5t43.5 -17.5z" />
    <glyph glyph-name="o" unicode="o" horiz-adv-x="516" 
d="M375 240q0 211 -117 211t-117 -211q0 -212 117 -212t117 212zM464 240q0 -101 -53.5 -175t-152.5 -74q-103 0 -154.5 66t-51.5 183q0 46 12.5 89.5t37 79.5t65 58t91.5 22q103 0 154.5 -66.5t51.5 -182.5z" />
    <glyph glyph-name="p" unicode="p" horiz-adv-x="564" 
d="M423 240q0 211 -100 211q-59 0 -97 -58.5t-38 -144.5q0 -118 38.5 -169t86.5 -51q55 0 82.5 56t27.5 156zM512 253q0 -129 -55.5 -196t-135.5 -67q-43 0 -78 22t-52 54h-3v-213q0 -25 18 -43t43 -18v-19h-207v19q26 0 43.5 18t17.5 43v546q0 26 -17.5 44t-43.5 18v18h146
v-80h3q49 90 149 90q87 0 129.5 -67t42.5 -169z" />
    <glyph glyph-name="q" unicode="q" 
d="M376 251q0 92 -27.5 146t-83.5 54q-65 0 -94.5 -60t-29.5 -151q0 -88 29 -146.5t87 -58.5q53 0 86 53t33 163zM522 -208v-19h-207v19q25 0 43 18t18 43v218h-3q-55 -81 -139 -81q-85 0 -133.5 69.5t-48.5 172.5q0 114 56.5 185.5t145.5 71.5q79 0 119 -59h3q18 4 31 16
t17 22l5 11h32v-626q0 -25 17.5 -43t43.5 -18z" />
    <glyph glyph-name="r" unicode="r" horiz-adv-x="410" 
d="M391 420q0 -25 -13 -41t-36 -16q-20 0 -31.5 11t-11.5 29q0 4 2.5 18t0 19.5t-14.5 5.5q-25 0 -52.5 -25t-46.5 -61v-280q0 -26 17.5 -43.5t43.5 -17.5v-19h-207v19q26 0 43.5 17.5t17.5 43.5v319q0 26 -17.5 44t-43.5 18v18h146v-80h3q17 31 49.5 60.5t74.5 29.5
q38 0 57 -19.5t19 -49.5z" />
    <glyph glyph-name="s" unicode="s" horiz-adv-x="436" 
d="M344 479h19v-141h-27q-23 58 -58 90.5t-74 32.5q-36 0 -58.5 -22t-22.5 -53q0 -53 54 -73l103 -38q49 -17 81 -52.5t32 -86.5q0 -61 -44 -103t-123 -42q-36 0 -72 12t-57 28l-23 -31h-22v176h24q58 -157 153 -157q41 0 65.5 25.5t24.5 63.5q0 62 -74 90q-64 23 -108 40
q-85 32 -85 117q0 56 42.5 95t109.5 39q60 0 108 -30q17 3 32 20z" />
    <glyph glyph-name="t" unicode="t" horiz-adv-x="321" 
d="M312 72q0 -1 -2 -7q-5 -12 -13 -25t-34 -31t-60 -18q-55 0 -82 30t-27 100v328h-75v21q90 32 136 155h24v-146h94v-30h-94v-356q0 -66 50 -66q32 0 65 48q4 5 8 6.5t7 -1.5t3 -8z" />
    <glyph glyph-name="u" unicode="u" 
d="M522 19v-19h-123q-16 20 -23 60h-3q-20 -28 -59 -48.5t-82 -20.5q-55 0 -96.5 34t-41.5 113v261q0 26 -17.5 44t-43.5 18v18h146v-1v-335q0 -57 28 -81t64 -24q43 0 74 32t31 73v256q0 26 -17.5 44t-43.5 18v18h146v-399q0 -26 17.5 -43.5t43.5 -17.5z" />
    <glyph glyph-name="v" unicode="v" horiz-adv-x="511" 
d="M502 479v-18q-10 0 -19 -3t-16.5 -10t-12.5 -12.5t-11.5 -18.5t-9 -18.5t-8.5 -21.5t-8 -20l-141 -357h-37l-142 360q-4 9 -11.5 30t-10.5 27t-10 18t-13.5 15.5t-17.5 7t-25 3.5v18h193v-18q-14 0 -23.5 -2.5t-13 -8.5t-5 -11.5t1 -15.5t4.5 -16t7 -18.5t7 -16.5
l101 -255h3l92 258q18 54 9 70t-39 16v18h156z" />
    <glyph glyph-name="w" unicode="w" horiz-adv-x="705" 
d="M696 479v-18q-23 0 -41 -18t-25.5 -36t-17.5 -50l-114 -357h-37l-112 302h-3q-11 -30 -95 -302h-38l-118 360l-7 21l-6.5 19.5t-6 16t-7 14t-7.5 10t-9.5 9.5t-11 5.5t-14 4.5t-17.5 1v18h193v-18q-16 0 -25.5 -4t-13 -9.5t-2.5 -16t3.5 -18t8 -21.5t7.5 -20l74 -236h3
l102 327q3 9 8.5 11t11.5 -11l121 -327h3l71 239q4 14 5.5 19t4.5 18t1 19.5t-6 14.5t-14 11.5t-25 3.5v18h156z" />
    <glyph glyph-name="x" unicode="x" horiz-adv-x="498" 
d="M489 19v-19h-192v19q13 0 21.5 1.5t11.5 5.5t4 8t-3 11.5t-7.5 13t-10 15.5t-10.5 16l-72 107h-3l-78 -116l-6 -9q-8 -12 -11.5 -18t-6.5 -14.5t0.5 -12t12 -6t24.5 -2.5v-19h-154v19q20 1 28 2.5t24 15t38 43.5l110 150l-95 141q-36 54 -54 72t-41 18v18h181v-18
q-41 0 -12 -46q3 -5 17 -26l59 -88h3l65 98q41 63 -14 63v18h158v-18q-19 -1 -28 -3t-25 -16t-38 -43l-99 -132l115 -169q6 -9 16.5 -25t14 -21.5t11 -14t13 -11.5t14 -5.5t19.5 -2.5z" />
    <glyph glyph-name="y" unicode="y" 
d="M545 479v-18q-31 0 -50 -24t-35 -69l-149 -397q-48 -129 -71 -162q-30 -44 -75 -44q-33 0 -51.5 21t-18.5 49q0 23 14.5 37.5t32.5 14.5q16 0 26 -10t9 -28q-2 -27 19 -27q23 0 43 57l40 113l-162 373q-23 53 -45 74.5t-63 21.5v18h228v-18q-24 0 -35.5 -8t-11.5 -23.5
t3.5 -28t11.5 -30.5l112 -268h3l87 266q5 16 7.5 23t5 23t-1 24t-13 15t-27.5 7v18h167z" />
    <glyph glyph-name="z" unicode="z" horiz-adv-x="490" 
d="M424 150v-150h-377v19l268 421v3h-56q-93 0 -125.5 -18.5t-48.5 -95.5h-19v150h358v-18l-266 -422v-2h85q59 0 88 10.5t42 30.5t32 72h19z" />
    <glyph glyph-name="braceleft" unicode="{" horiz-adv-x="301" 
d="M254 -218v-19q-73 0 -111 23.5t-34 76.5l18 254q4 58 -26 90.5t-54 32.5v17q24 0 54 32t26 90l-18 255q-4 53 34 76t111 23v-19q-28 0 -55 -22.5t-24 -57.5l15 -226q4 -62 -22.5 -104.5t-59.5 -53.5v-4q33 -11 59.5 -53.5t22.5 -104.5l-15 -225q-3 -35 23.5 -58t55.5 -23
z" />
    <glyph glyph-name="bar" unicode="|" horiz-adv-x="266" 
d="M166 696v-696h-66v696h66z" />
    <glyph glyph-name="braceright" unicode="}" horiz-adv-x="301" 
d="M254 257v-17q-24 0 -54.5 -32.5t-25.5 -90.5l18 -254q7 -100 -145 -100v19q29 0 55.5 23t23.5 58l-15 225q-4 62 22.5 104.5t59.5 53.5v4q-33 11 -59.5 53.5t-22.5 104.5l15 226q3 35 -24 57.5t-55 22.5v19q152 0 145 -99l-18 -255q-5 -58 25.5 -90t54.5 -32z" />
    <glyph glyph-name="asciitilde" unicode="~" horiz-adv-x="564" 
d="M434 299h41q0 -23 -8.5 -47.5t-33.5 -45t-63 -14.5l-168 22q-72 10 -72 -40h-41q0 40 25.5 77t79.5 30l168 -23q72 -8 72 41z" />
    <glyph glyph-name="nbspace" unicode="&#xa0;" horiz-adv-x="235" 
 />
    <glyph glyph-name="exclamdown" unicode="&#xa1;" horiz-adv-x="273" 
d="M188 -136q0 -31 -13 -53.5t-39 -22.5t-38.5 22.5t-12.5 53.5q0 17 10 112l32 320h19l32 -320q1 -9 5.5 -50.5t4.5 -61.5zM193 432q0 -23 -17 -39.5t-40 -16.5t-39.5 16.5t-16.5 39.5t16.5 40t39.5 17t40 -17t17 -40z" />
    <glyph glyph-name="cent" unicode="&#xa2;" horiz-adv-x="478" 
d="M245 -69v62q-84 9 -138.5 70.5t-54.5 174.5q0 100 52 169t141 81v69h57v-69q57 -6 93 -40t36 -70q0 -27 -14.5 -42.5t-36.5 -15.5q-27 0 -38 18t-6 40q1 4 3.5 16t2.5 18q0 20 -16.5 32.5t-48.5 12.5q-69 0 -102.5 -62t-33.5 -155q0 -85 42 -148.5t112 -63.5
q29 0 57 12.5t39.5 22.5t30.5 28q7 7 12.5 4.5t5.5 -9.5q0 -1 -2 -5q-47 -74 -136 -88v-62h-57z" />
    <glyph glyph-name="sterling" unicode="&#xa3;" horiz-adv-x="536" 
d="M445 583q0 -26 -14 -41t-32 -15q-19 0 -30 10.5t-11 27.5q0 6 3 19.5t3 21.5q0 20 -12.5 34t-40.5 14q-95 0 -95 -192v-86h141v-38h-141q-5 -224 -88 -291v-5q39 6 77 6q23 0 66.5 -3.5t69.5 -3.5q21 0 34 10t13 22q0 3 -1 11t-1 12q0 18 11.5 29t28.5 11q22 0 37.5 -17
t15.5 -41q0 -37 -25.5 -61.5t-81.5 -24.5q-46 0 -126 11t-108 11q-27 0 -58 -6t-48 -12l-18 -5v37q37 17 60.5 46.5t32.5 71.5t11.5 78t3.5 88v26h-94v38h94v87q0 104 50 166.5t137 62.5q63 0 99.5 -31.5t36.5 -77.5z" />
    <glyph glyph-name="currency" unicode="&#xa4;" horiz-adv-x="499" 
d="M367 287q0 66 -33 115.5t-85 49.5q-51 0 -85.5 -49.5t-34.5 -115.5t34.5 -115.5t85.5 -49.5q52 0 85 49t33 116zM396 180l73 -73l-40 -39l-68 67q-63 -59 -140 -49q-49 7 -89 44l-63 -62l-39 39l68 68q-33 61 -24 136q8 47 28 83l-72 72l39 40l68 -68q61 60 140 49
q49 -7 89 -44l63 63l40 -40l-69 -68q32 -60 23 -136q-7 -44 -27 -82z" />
    <glyph glyph-name="yen" unicode="&#xa5;" horiz-adv-x="650" 
d="M136 251v38h136l-160 297q-28 52 -50.5 72t-61.5 20v18h268v-18q-48 0 -61.5 -18.5t11.5 -72.5l139 -263h2l130 262q47 92 -47 92v18h209v-18q-38 0 -57.5 -20t-47.5 -72l-162 -297h147v-38h-150v-60h150v-38h-150v-63q0 -33 23.5 -52t66.5 -19v-19h-274v19q43 0 66.5 19
t23.5 52v63h-151v38h151v60h-151z" />
    <glyph glyph-name="brokenbar" unicode="&#xa6;" horiz-adv-x="266" 
d="M166 165v-353h-66v353h66zM166 692v-354h-66v354h66z" />
    <glyph glyph-name="section" unicode="&#xa7;" horiz-adv-x="481" 
d="M436 261q0 -35 -13 -65t-32.5 -49t-32.5 -28.5t-24 -14.5q70 -48 70 -131q0 -66 -49 -113.5t-121 -47.5q-61 0 -102.5 31.5t-41.5 78.5q0 22 12.5 36.5t31.5 14.5q16 0 27.5 -12t11.5 -33q0 -33 18.5 -55.5t48.5 -22.5q41 0 65.5 30t24.5 70q0 63 -59 91l-103 48
q-64 30 -93.5 66t-29.5 88q0 35 12.5 64.5t32.5 49t32.5 28.5t23.5 15q-69 47 -69 131q0 66 49 113.5t121 47.5q61 0 102.5 -31t41.5 -79q0 -22 -12.5 -36.5t-31.5 -14.5q-16 0 -27.5 12t-11.5 33q0 33 -18.5 55.5t-48.5 22.5q-41 0 -65.5 -30t-24.5 -70q0 -63 59 -91
l103 -48q64 -30 93.5 -66t29.5 -88zM206 167l83 -39q27 16 47 45.5t20 62.5q0 64 -81 101l-84 38q-26 -15 -46 -44.5t-20 -62.5q0 -64 81 -101z" />
    <glyph glyph-name="dieresis" unicode="&#xa8;" horiz-adv-x="470" 
d="M197 590q0 -23 -16.5 -39.5t-39.5 -16.5t-39.5 16.5t-16.5 39.5t16.5 40t39.5 17t39.5 -17t16.5 -40zM385 590q0 -23 -16.5 -39.5t-39.5 -16.5t-39.5 16.5t-16.5 39.5t16.5 40t39.5 17t39.5 -17t16.5 -40z" />
    <glyph glyph-name="copyright" unicode="&#xa9;" horiz-adv-x="761" 
d="M532 214q4 -4 -1 -12q-20 -34 -58.5 -57.5t-88.5 -23.5q-75 0 -128.5 49t-53.5 150q0 88 54.5 142.5t140.5 54.5q58 0 96.5 -29t38.5 -67q0 -24 -12.5 -37.5t-32.5 -13.5q-24 0 -34 16.5t-6 36.5q1 5 4 15t3 15q0 16 -15.5 25t-39.5 9q-51 0 -83.5 -46t-32.5 -126
q0 -67 30 -113.5t89 -46.5q27 0 52.5 11.5t34 19t28.5 25.5q10 8 15 3zM668 320q0 119 -84 202.5t-203 83.5t-203 -84t-84 -203t84.5 -203t203.5 -84q118 0 202 84.5t84 203.5zM715 320q0 -139 -97.5 -237t-235.5 -98q-139 0 -237 97.5t-98 236.5t97.5 236.5t236.5 97.5
t236.5 -97.5t97.5 -235.5z" />
    <glyph glyph-name="ordfeminine" unicode="&#xaa;" horiz-adv-x="301" 
d="M188 517v67q-41 -6 -66 -23.5t-25 -46.5q0 -19 10 -28.5t25 -9.5q19 0 37.5 14.5t18.5 26.5zM279 481q0 -5 -8 -13q-21 -21 -48 -21q-29 0 -35 37h-2q-39 -37 -80 -37q-27 0 -47 16t-20 46q0 22 12 38.5t36 26.5t46.5 15.5t54.5 10.5v29q0 48 -47 48q-39 0 -39 -19
q0 -4 2 -11t2 -13q0 -27 -28 -27q-12 0 -20 9t-8 22q0 26 27 42t67 16q100 0 100 -83v-115q0 -24 14 -24q4 0 13 9q2 3 5 2t3 -4z" />
    <glyph glyph-name="guillemotleft" unicode="&#xab;" horiz-adv-x="478" 
d="M255 75v-37q-164 131 -210 164v66l210 164v-37q-124 -124 -154 -158v-4q12 -14 50.5 -53.5t70.5 -71.5zM433 75v-37q-163 131 -209 164v66l209 164v-37q-124 -124 -153 -158v-4q11 -14 49.5 -53.5t70.5 -71.5z" />
    <glyph glyph-name="logicalnot" unicode="&#xac;" horiz-adv-x="500" 
d="M455 261v-150h-47v103h-363v47h410z" />
    <glyph glyph-name="dash" unicode="&#xad;" horiz-adv-x="500" 
d="M455 261v-47h-410v47h410z" />
    <glyph glyph-name="registered" unicode="&#xae;" horiz-adv-x="460" 
d="M265 552q0 48 -46 48q-24 0 -24 -14v-77h24q46 0 46 43zM344 415v-6h-58l-56 75l-10 14h-25v-63q0 -20 26 -20v-6h-88v6q26 0 26 20v151q0 21 -26 21v5h96q73 0 73 -52q0 -23 -14.5 -38t-30.5 -19v-1l42 -54q2 -2 5 -6t5 -6t5 -5.5t5 -5.5t5 -4t6 -3t6.5 -2t7.5 -1z
M392 509q0 71 -46.5 121t-115.5 50t-116 -50t-47 -121t47 -121.5t116 -50.5t115.5 50.5t46.5 121.5zM429 509q0 -83 -58 -141.5t-141 -58.5t-141.5 58.5t-58.5 141.5t58.5 141t141.5 58t141 -58t58 -141z" />
    <glyph glyph-name="macron" unicode="&#xaf;" horiz-adv-x="470" 
d="M357 600v-66h-244v66h244z" />
    <glyph glyph-name="degree" unicode="&#xb0;" horiz-adv-x="376" 
d="M284 567q0 40 -28.5 68.5t-69.5 28.5q-40 0 -68.5 -28.5t-28.5 -69.5q0 -40 29 -68.5t69 -28.5t68.5 28.5t28.5 69.5zM331 567q0 -60 -42.5 -102.5t-101.5 -42.5q-60 0 -102.5 42.5t-42.5 101.5q0 60 42.5 102.5t101.5 42.5q60 0 102.5 -42.5t42.5 -101.5z" />
    <glyph glyph-name="plusminus" unicode="&#xb1;" horiz-adv-x="500" 
d="M455 261v-47h-181v-126h-47v126h-182v47h182v182h47v-182h181zM455 47v-47h-410v47h410z" />
    <glyph glyph-name="twosuperior" unicode="&#xb2;" horiz-adv-x="297" 
d="M268 605q0 -16 -4.5 -30.5t-17.5 -31.5t-18.5 -24t-26 -26.5t-21.5 -20.5l-83 -82v-1h116q8 0 13.5 2t10.5 9t6.5 9t7.5 14h17v-96h-243v19l113 125q64 71 64 136q0 79 -60 79q-26 0 -40.5 -14t-14.5 -38q0 -5 2 -14t2 -12q0 -12 -8 -21.5t-22 -9.5q-15 0 -25 9.5
t-10 28.5q0 35 35 62t87 27q51 0 85.5 -26.5t34.5 -72.5z" />
    <glyph glyph-name="threesuperior" unicode="&#xb3;" horiz-adv-x="291" 
d="M266 438q0 -54 -38 -86.5t-99 -32.5q-48 0 -77 18t-29 47q0 17 10 27.5t26 10.5q30 0 30 -32q0 -3 -1.5 -9t-1.5 -9q0 -16 13 -25.5t34 -9.5q30 0 48 25t18 70q0 40 -24.5 64.5t-69.5 24.5v20q35 0 58.5 19t23.5 61q0 29 -14 47t-39 18q-22 0 -34 -11t-12 -30
q0 -3 1 -9.5t1 -8.5q0 -13 -8.5 -21.5t-20.5 -8.5q-31 0 -31 34q0 27 28.5 50t78.5 23q51 0 79.5 -24.5t28.5 -61.5q0 -30 -18.5 -50t-39.5 -28v-2q34 -9 56.5 -36.5t22.5 -63.5z" />
    <glyph glyph-name="acute" unicode="&#xb4;" horiz-adv-x="470" 
d="M410 639q0 -21 -20 -34l-112 -71h-32l93 115q18 22 39 22q14 0 23 -9.5t9 -22.5z" />
    <glyph glyph-name="mu" unicode="&#xb5;" horiz-adv-x="564" 
d="M531 19v-19h-123q-16 20 -23 60h-3q-52 -69 -123 -69q-58 0 -91 42l-3 -1q0 -55 6 -130.5t6 -84.5q0 -59 -43 -59t-43 59q0 12 6 82.5t6 113.5v466h85v-336q0 -57 28 -81t64 -24q43 0 74 32t31 73v336h85v-399q0 -26 17.5 -43.5t43.5 -17.5z" />
    <glyph glyph-name="mu" unicode="&#x3bc;" horiz-adv-x="564" 
d="M531 19v-19h-123q-16 20 -23 60h-3q-52 -69 -123 -69q-58 0 -91 42l-3 -1q0 -55 6 -130.5t6 -84.5q0 -59 -43 -59t-43 59q0 12 6 82.5t6 113.5v466h85v-336q0 -57 28 -81t64 -24q43 0 74 32t31 73v336h85v-399q0 -26 17.5 -43.5t43.5 -17.5z" />
    <glyph glyph-name="paragraph" unicode="&#xb6;" horiz-adv-x="464" 
d="M444 677v-38h-66v-639h-47v639h-82v-639h-47v359q-79 4 -125.5 47.5t-46.5 112.5q0 71 49 114.5t132 43.5h233z" />
    <glyph glyph-name="periodcentered" unicode="&#xb7;" horiz-adv-x="238" 
d="M175 248q0 -23 -16.5 -39.5t-39.5 -16.5t-39.5 16.5t-16.5 39.5t16.5 40t39.5 17t39.5 -17t16.5 -40z" />
    <glyph glyph-name="cedilla" unicode="&#xb8;" horiz-adv-x="470" 
d="M392 -127q0 -39 -33 -64t-86 -25q-46 0 -86 20q-16 8 -13 15.5t22 3.5q51 -9 66 -9q32 0 48.5 15t16.5 41q0 47 -68 47h-36l24 87h43l-12 -51h10q51 0 77.5 -22t26.5 -58z" />
    <glyph glyph-name="onesuperior" unicode="&#xb9;" horiz-adv-x="188" 
d="M173 339v-12h-151v12q20 0 32.5 11t12.5 28v227q0 24 -7.5 28.5t-44.5 4.5v10q58 22 96 56h17v-326q0 -16 13 -27.5t32 -11.5z" />
    <glyph glyph-name="ordmasculine" unicode="&#xba;" horiz-adv-x="286" 
d="M199 571q0 106 -56 106t-56 -106q0 -105 56 -105t56 105zM257 572q0 -56 -29.5 -90.5t-84.5 -34.5q-57 0 -86 32.5t-29 92.5q0 52 30 88t85 36q57 0 85.5 -33.5t28.5 -90.5z" />
    <glyph glyph-name="guillemotright" unicode="&#xbb;" horiz-adv-x="478" 
d="M254 268v-66l-209 -164v37q128 126 153 158v4q-13 15 -51 54.5t-70 71.5l-32 32v37q166 -132 209 -164zM433 268v-66l-210 -164v37q128 126 154 158v4l-154 158v37q167 -132 210 -164z" />
    <glyph glyph-name="onequarter" unicode="&#xbc;" horiz-adv-x="609" 
d="M471 696h55l-375 -696h-55zM173 321v-12h-151v12q20 0 32.5 11t12.5 28v227q0 24 -7.5 28.5t-44.5 4.5v10q58 22 96 56h17v-326q0 -16 13 -27.5t32 -11.5zM368 127h111v179h-1zM585 12v-12h-151v12q20 0 32.5 11t12.5 28v39h-147v21l163 262h46v-246h49v-37h-49v-39
q0 -17 12.5 -28t31.5 -11z" />
    <glyph glyph-name="onehalf" unicode="&#xbd;" horiz-adv-x="672" 
d="M471 696h55l-375 -696h-55zM173 321v-12h-151v12q20 0 32.5 11t12.5 28v227q0 24 -7.5 28.5t-44.5 4.5v10q58 22 96 56h17v-326q0 -16 13 -27.5t32 -11.5zM642 278q0 -16 -4.5 -30.5t-17.5 -31.5t-18.5 -24t-26 -26.5t-21.5 -20.5l-83 -82v-1h116q8 0 13.5 2t10.5 9
t6.5 9t7.5 14h17v-96h-243v19l113 125q64 71 64 136q0 79 -60 79q-26 0 -40.5 -14t-14.5 -38q0 -5 2 -14t2 -12q0 -12 -8 -21.5t-22 -9.5q-15 0 -25 9.5t-10 28.5q0 35 35 62t87 27q51 0 85.5 -26.5t34.5 -72.5z" />
    <glyph glyph-name="threequarters" unicode="&#xbe;" horiz-adv-x="627" 
d="M507 696h55l-375 -696h-55zM266 420q0 -54 -38 -86.5t-99 -32.5q-48 0 -77 18t-29 47q0 17 10 27.5t26 10.5q30 0 30 -32q0 -3 -1.5 -9t-1.5 -9q0 -16 13 -25.5t34 -9.5q30 0 48 25t18 70q0 40 -24.5 64.5t-69.5 24.5v20q35 0 58.5 19t23.5 61q0 29 -14 47t-39 18
q-22 0 -34 -11t-12 -30q0 -3 1 -9.5t1 -8.5q0 -13 -8.5 -21.5t-20.5 -8.5q-31 0 -31 34q0 27 28.5 50t78.5 23q51 0 79.5 -24.5t28.5 -61.5q0 -30 -18.5 -50t-39.5 -28v-2q34 -9 56.5 -36.5t22.5 -63.5zM386 127h111v179h-1zM603 12v-12h-151v12q20 0 32.5 11t12.5 28v39
h-147v21l163 262h46v-246h49v-37h-49v-39q0 -17 12.5 -28t31.5 -11z" />
    <glyph glyph-name="questiondown" unicode="&#xbf;" horiz-adv-x="432" 
d="M390 -46q7 -76 -44.5 -121t-134.5 -45q-71 0 -121.5 39t-50.5 103q0 22 4.5 41.5t19.5 42.5t21 32t30.5 38t27.5 32q43 52 53.5 81t17.5 108h19q7 -88 1 -120t-42 -93q-50 -81 -50 -154q1 -45 23.5 -74t66.5 -29q35 0 63.5 18.5t28.5 42.5q0 12 -18.5 31.5t-18.5 42.5
q0 38 33 46t56 -22q13 -16 15 -40zM279 432q0 -23 -16.5 -39.5t-39.5 -16.5t-40 16.5t-17 39.5t17 40t40 17t39.5 -17t16.5 -40z" />
    <glyph glyph-name="Agrave" unicode="&#xc0;" horiz-adv-x="713" 
d="M229 282h212l-103 265h-9zM703 19v-19h-236v19q40 0 49 28.5t-8 62.5l-52 134h-241l-48 -127q-9 -24 -11.5 -39.5t1 -30t20 -21.5t46.5 -7v-19h-213v19q80 0 118 101l221 583h30l231 -593q12 -30 20 -46t27 -30.5t46 -14.5zM299 848l93 -115h-32l-112 71q-20 13 -20 34
q0 14 9 23t23 9q21 0 39 -22z" />
    <glyph glyph-name="Aacute" unicode="&#xc1;" horiz-adv-x="713" 
d="M229 282h212l-103 265h-9zM703 19v-19h-236v19q40 0 49 28.5t-8 62.5l-52 134h-241l-48 -127q-9 -24 -11.5 -39.5t1 -30t20 -21.5t46.5 -7v-19h-213v19q80 0 118 101l221 583h30l231 -593q12 -30 20 -46t27 -30.5t46 -14.5zM488 837q0 -21 -20 -34l-112 -71h-32l93 115
q18 22 39 22q14 0 23 -9.5t9 -22.5z" />
    <glyph glyph-name="Acircumflex" unicode="&#xc2;" horiz-adv-x="713" 
d="M229 282h212l-103 265h-9zM703 19v-19h-236v19q40 0 49 28.5t-8 62.5l-52 134h-241l-48 -127q-9 -24 -11.5 -39.5t1 -30t20 -21.5t46.5 -7v-19h-213v19q80 0 118 101l221 583h30l231 -593q12 -30 20 -46t27 -30.5t46 -14.5zM490 747q5 -5 0.5 -11t-11.5 -2q-9 6 -111 66
h-3l-111 -66q-7 -4 -11.5 2t0.5 11q12 13 118 122h11z" />
    <glyph glyph-name="Atilde" unicode="&#xc3;" horiz-adv-x="713" 
d="M229 282h212l-103 265h-9zM703 19v-19h-236v19q40 0 49 28.5t-8 62.5l-52 134h-241l-48 -127q-9 -24 -11.5 -39.5t1 -30t20 -21.5t46.5 -7v-19h-213v19q80 0 118 101l221 583h30l231 -593q12 -30 20 -46t27 -30.5t46 -14.5zM475 822h31q-14 -85 -79 -85q-16 0 -68.5 12.5
t-70.5 12.5q-29 0 -43 -29h-30q14 85 79 85q16 0 68 -12.5t70 -12.5q30 0 43 29z" />
    <glyph glyph-name="Adieresis" unicode="&#xc4;" horiz-adv-x="713" 
d="M229 282h212l-103 265h-9zM703 19v-19h-236v19q40 0 49 28.5t-8 62.5l-52 134h-241l-48 -127q-9 -24 -11.5 -39.5t1 -30t20 -21.5t46.5 -7v-19h-213v19q80 0 118 101l221 583h30l231 -593q12 -30 20 -46t27 -30.5t46 -14.5zM324 789q0 -23 -16.5 -39.5t-39.5 -16.5
t-39.5 16.5t-16.5 39.5t16.5 40t39.5 17t39.5 -17t16.5 -40zM512 789q0 -23 -16.5 -39.5t-39.5 -16.5t-39.5 16.5t-16.5 39.5t16.5 40t39.5 17t39.5 -17t16.5 -40z" />
    <glyph glyph-name="Aring" unicode="&#xc5;" horiz-adv-x="713" 
d="M229 282h212l-103 265h-9zM703 19v-19h-236v19q40 0 49 28.5t-8 62.5l-52 134h-241l-48 -127q-9 -24 -11.5 -39.5t1 -30t20 -21.5t46.5 -7v-19h-213v19q80 0 118 101l221 583h30l231 -593q12 -30 20 -46t27 -30.5t46 -14.5zM421 836q0 23 -16.5 40t-39.5 17t-39.5 -17
t-16.5 -40t16.5 -39.5t39.5 -16.5t39.5 16.5t16.5 39.5zM468 836q0 -43 -30 -73t-73 -30t-73 30t-30 73t30 73.5t73 30.5t73 -30.5t30 -73.5z" />
    <glyph glyph-name="AE" unicode="&#xc6;" horiz-adv-x="985" 
d="M329 282h203v269h-3zM948 178v-178h-506v19q43 0 66.5 19t23.5 52v154h-231l-98 -127q-75 -98 25 -98v-19h-218v19q72 0 149 101l373 489q-2 32 -25.5 50t-64.5 18v19h483v-170h-18q-34 86 -61.5 109t-98.5 23h-37.5t-29 -1.5t-24.5 -4.5t-15 -9t-11.5 -15.5t-2.5 -22.5
v-220h83q35 0 62.5 25.5t27.5 68.5h18v-225h-18q0 43 -27.5 68.5t-62.5 25.5h-83v-258q0 -16 5 -25.5t10.5 -15t22.5 -8t29 -3t41 -0.5h12q81 0 113.5 26t68.5 114h19z" />
    <glyph glyph-name="Ccedilla" unicode="&#xc7;" horiz-adv-x="629" 
d="M471 -127q0 -39 -33 -64t-86 -25q-46 0 -86 20q-16 8 -13 15.5t22 3.5q51 -9 66 -9q32 0 48.5 15t16.5 41q0 47 -68 47h-36l19 71q-52 6 -97 28.5t-84 64t-61.5 110.5t-22.5 158q0 154 88 258t225 104q80 0 147 -46q22 6 37 31h19v-218h-19q-66 195 -185 195
q-89 0 -148.5 -90t-59.5 -234q0 -85 23.5 -157.5t72.5 -120t115 -47.5q36 0 67.5 14.5t56 42.5t41.5 54t35 62h19v-197h-19q-7 12 -17 22t-17 14l-7 3q-86 -52 -166 -54l-7 -32h10q51 0 77.5 -22t26.5 -58z" />
    <glyph glyph-name="Egrave" unicode="&#xc8;" horiz-adv-x="576" 
d="M539 178v-178h-506v19q43 0 66.5 19t23.5 52v515q0 34 -23.5 53t-66.5 19v19h483v-170h-18q-34 86 -61.5 109t-98.5 23h-37.5t-29 -1.5t-24.5 -4.5t-15 -9t-11.5 -15.5t-2.5 -22.5v-220h83q35 0 62.5 25.5t27.5 68.5h18v-225h-18q0 43 -27.5 68.5t-62.5 25.5h-83v-258
q0 -16 5 -25.5t10.5 -15t22.5 -8t29 -3t41 -0.5h12q81 0 113.5 26t68.5 114h19zM245 848l93 -115h-32l-112 71q-20 13 -20 34q0 14 9 23t23 9q21 0 39 -22z" />
    <glyph glyph-name="Eacute" unicode="&#xc9;" horiz-adv-x="576" 
d="M539 178v-178h-506v19q43 0 66.5 19t23.5 52v515q0 34 -23.5 53t-66.5 19v19h483v-170h-18q-34 86 -61.5 109t-98.5 23h-37.5t-29 -1.5t-24.5 -4.5t-15 -9t-11.5 -15.5t-2.5 -22.5v-220h83q35 0 62.5 25.5t27.5 68.5h18v-225h-18q0 43 -27.5 68.5t-62.5 25.5h-83v-258
q0 -16 5 -25.5t10.5 -15t22.5 -8t29 -3t41 -0.5h12q81 0 113.5 26t68.5 114h19zM428 837q0 -21 -20 -34l-112 -71h-32l93 115q18 22 39 22q14 0 23 -9.5t9 -22.5z" />
    <glyph glyph-name="Ecircumflex" unicode="&#xca;" horiz-adv-x="576" 
d="M539 178v-178h-506v19q43 0 66.5 19t23.5 52v515q0 34 -23.5 53t-66.5 19v19h483v-170h-18q-34 86 -61.5 109t-98.5 23h-37.5t-29 -1.5t-24.5 -4.5t-15 -9t-11.5 -15.5t-2.5 -22.5v-220h83q35 0 62.5 25.5t27.5 68.5h18v-225h-18q0 43 -27.5 68.5t-62.5 25.5h-83v-258
q0 -16 5 -25.5t10.5 -15t22.5 -8t29 -3t41 -0.5h12q81 0 113.5 26t68.5 114h19zM426 751q5 -5 0.5 -11t-11.5 -2q-9 6 -111 66h-3l-111 -66q-7 -4 -11.5 2t0.5 11q12 13 118 122h11z" />
    <glyph glyph-name="Edieresis" unicode="&#xcb;" horiz-adv-x="576" 
d="M539 178v-178h-506v19q43 0 66.5 19t23.5 52v515q0 34 -23.5 53t-66.5 19v19h483v-170h-18q-34 86 -61.5 109t-98.5 23h-37.5t-29 -1.5t-24.5 -4.5t-15 -9t-11.5 -15.5t-2.5 -22.5v-220h83q35 0 62.5 25.5t27.5 68.5h18v-225h-18q0 43 -27.5 68.5t-62.5 25.5h-83v-258
q0 -16 5 -25.5t10.5 -15t22.5 -8t29 -3t41 -0.5h12q81 0 113.5 26t68.5 114h19zM251 788q0 -23 -16.5 -39.5t-39.5 -16.5t-39.5 16.5t-16.5 39.5t16.5 40t39.5 17t39.5 -17t16.5 -40zM439 788q0 -23 -16.5 -39.5t-39.5 -16.5t-39.5 16.5t-16.5 39.5t16.5 40t39.5 17
t39.5 -17t16.5 -40z" />
    <glyph glyph-name="Igrave" unicode="&#xcc;" horiz-adv-x="340" 
d="M307 19v-19h-274v19q43 0 66.5 19t23.5 52v515q0 34 -23.5 53t-66.5 19v19h274v-19q-43 0 -66.5 -19t-23.5 -53v-515q0 -33 23.5 -52t66.5 -19zM114 848l93 -115h-32l-112 71q-20 13 -20 34q0 14 9.5 23t22.5 9q21 0 39 -22z" />
    <glyph glyph-name="Iacute" unicode="&#xcd;" horiz-adv-x="340" 
d="M307 19v-19h-274v19q43 0 66.5 19t23.5 52v515q0 34 -23.5 53t-66.5 19v19h274v-19q-43 0 -66.5 -19t-23.5 -53v-515q0 -33 23.5 -52t66.5 -19zM304 838q0 -21 -20 -34l-112 -71h-32l93 115q18 22 39 22q14 0 23 -9t9 -23z" />
    <glyph glyph-name="Icircumflex" unicode="&#xce;" horiz-adv-x="340" 
d="M307 19v-19h-274v19q43 0 66.5 19t23.5 52v515q0 34 -23.5 53t-66.5 19v19h274v-19q-43 0 -66.5 -19t-23.5 -53v-515q0 -33 23.5 -52t66.5 -19zM288 751q5 -5 0.5 -11t-11.5 -2q-9 6 -111 66h-3l-111 -66q-7 -4 -11.5 2t0.5 11q12 13 118 122h11z" />
    <glyph glyph-name="Idieresis" unicode="&#xcf;" horiz-adv-x="340" 
d="M317 19v-19h-274v19q43 0 66.5 19t23.5 52v515q0 34 -23.5 53t-66.5 19v19h274v-19q-43 0 -66.5 -19t-23.5 -53v-515q0 -33 23.5 -52t66.5 -19zM132 789q0 -23 -16.5 -39.5t-39.5 -16.5t-39.5 16.5t-16.5 39.5t16.5 40t39.5 17t39.5 -17t16.5 -40zM320 789
q0 -23 -16.5 -39.5t-39.5 -16.5t-39.5 16.5t-16.5 39.5t16.5 40t39.5 17t39.5 -17t16.5 -40z" />
    <glyph glyph-name="Eth" unicode="&#xd0;" horiz-adv-x="698" 
d="M538 345q0 144 -58.5 228.5t-184.5 84.5h-11q-36 0 -51.5 -10.5t-15.5 -42.5v-238h153v-38h-153v-239q0 -32 15.5 -42t51.5 -10h15q129 0 184 76t55 231zM642 360q0 -182 -91 -271t-256 -89h-262v19q43 0 66.5 19t23.5 52v239h-52v38h52v238q0 34 -23.5 53t-66.5 19v19
h271q165 0 251.5 -84t86.5 -252z" />
    <glyph glyph-name="Ntilde" unicode="&#xd1;" horiz-adv-x="763" 
d="M731 696v-19q-43 0 -67 -19t-24 -53v-605h-33l-443 572h-4v-482q0 -33 24 -52t67 -19v-19h-219v19q43 0 67 19t24 52v515q0 34 -24 53t-67 19v19h157l409 -531h4v440q0 34 -23.5 53t-66.5 19v19h219zM487 822h31q-14 -85 -79 -85q-16 0 -68.5 12.5t-70.5 12.5
q-29 0 -43 -29h-30q14 85 79 85q16 0 68 -12.5t70 -12.5q30 0 43 29z" />
    <glyph glyph-name="Ograve" unicode="&#xd2;" horiz-adv-x="709" 
d="M355 -15q-143 0 -221 98.5t-78 264.5q0 90 35 172t105 136.5t159 54.5q142 0 220 -98.5t78 -264.5q0 -90 -35 -172t-104.5 -136.5t-158.5 -54.5zM355 673q-67 0 -112.5 -49.5t-64 -120t-18.5 -155.5t18.5 -155.5t64 -120t112.5 -49.5t112.5 49.5t64 120t18.5 155.5
t-18.5 155.5t-64 120t-112.5 49.5zM288 847l93 -115h-32l-112 71q-20 13 -20 34q0 13 9.5 22.5t22.5 9.5q21 0 39 -22z" />
    <glyph glyph-name="Oacute" unicode="&#xd3;" horiz-adv-x="709" 
d="M355 -15q-143 0 -221 98.5t-78 264.5q0 90 35 172t105 136.5t159 54.5q142 0 220 -98.5t78 -264.5q0 -90 -35 -172t-104.5 -136.5t-158.5 -54.5zM355 673q-67 0 -112.5 -49.5t-64 -120t-18.5 -155.5t18.5 -155.5t64 -120t112.5 -49.5t112.5 49.5t64 120t18.5 155.5
t-18.5 155.5t-64 120t-112.5 49.5zM495 837q0 -21 -20 -34l-112 -71h-32l93 115q18 22 39 22q13 0 22.5 -9.5t9.5 -22.5z" />
    <glyph glyph-name="Ocircumflex" unicode="&#xd4;" horiz-adv-x="709" 
d="M355 -15q-143 0 -221 98.5t-78 264.5q0 90 35 172t105 136.5t159 54.5q142 0 220 -98.5t78 -264.5q0 -90 -35 -172t-104.5 -136.5t-158.5 -54.5zM355 673q-67 0 -112.5 -49.5t-64 -120t-18.5 -155.5t18.5 -155.5t64 -120t112.5 -49.5t112.5 49.5t64 120t18.5 155.5
t-18.5 155.5t-64 120t-112.5 49.5zM483 751q5 -5 0.5 -11t-11.5 -2q-9 6 -111 66h-3l-111 -66q-7 -4 -11.5 2t0.5 11q12 13 118 122h11z" />
    <glyph glyph-name="Otilde" unicode="&#xd5;" horiz-adv-x="709" 
d="M355 -15q-143 0 -221 98.5t-78 264.5q0 90 35 172t105 136.5t159 54.5q142 0 220 -98.5t78 -264.5q0 -90 -35 -172t-104.5 -136.5t-158.5 -54.5zM355 673q-67 0 -112.5 -49.5t-64 -120t-18.5 -155.5t18.5 -155.5t64 -120t112.5 -49.5t112.5 49.5t64 120t18.5 155.5
t-18.5 155.5t-64 120t-112.5 49.5zM474 822h31q-14 -85 -79 -85q-16 0 -68.5 12.5t-70.5 12.5q-29 0 -43 -29h-30q14 85 79 85q16 0 68 -12.5t70 -12.5q30 0 43 29z" />
    <glyph glyph-name="Odieresis" unicode="&#xd6;" horiz-adv-x="709" 
d="M355 -15q-143 0 -221 98.5t-78 264.5q0 90 35 172t105 136.5t159 54.5q142 0 220 -98.5t78 -264.5q0 -90 -35 -172t-104.5 -136.5t-158.5 -54.5zM355 673q-67 0 -112.5 -49.5t-64 -120t-18.5 -155.5t18.5 -155.5t64 -120t112.5 -49.5t112.5 49.5t64 120t18.5 155.5
t-18.5 155.5t-64 120t-112.5 49.5zM316 788q0 -23 -16.5 -39.5t-39.5 -16.5t-39.5 16.5t-16.5 39.5t16.5 40t39.5 17t39.5 -17t16.5 -40zM504 788q0 -23 -16.5 -39.5t-39.5 -16.5t-39.5 16.5t-16.5 39.5t16.5 40t39.5 17t39.5 -17t16.5 -40z" />
    <glyph glyph-name="multiply" unicode="&#xd7;" horiz-adv-x="500" 
d="M378 399l34 -33l-129 -128l129 -129l-34 -33l-128 128l-128 -128l-34 33l129 129l-129 128l34 33l128 -128z" />
    <glyph glyph-name="Oslash" unicode="&#xd8;" horiz-adv-x="709" 
d="M550 348q0 99 -26 176h-3l-320 -391q52 -110 154 -110q67 0 112.5 49.5t64 120t18.5 155.5zM188 172l321 390q-50 111 -154 111q-67 0 -112.5 -49.5t-64 -120t-18.5 -155.5q0 -97 25 -176h3zM621 696h46l-81 -98q67 -96 67 -250q0 -90 -35 -172t-104.5 -136.5
t-158.5 -54.5q-130 0 -207 83l-57 -68h-49l81 98q-67 96 -67 250q0 90 35 172t105 136.5t159 54.5q129 0 208 -85z" />
    <glyph glyph-name="Ugrave" unicode="&#xd9;" horiz-adv-x="707" 
d="M684 696v-18q-42 0 -66 -19.5t-24 -53.5v-363q0 -133 -65 -195t-176 -62t-175.5 63.5t-64.5 204.5v352q0 34 -24 53.5t-66 19.5v18h274v-18q-43 0 -66.5 -19.5t-23.5 -53.5v-378q0 -102 48 -153t126 -51q79 0 127 53.5t48 165.5v363q0 34 -24 53.5t-67 19.5v18h219z
M295 848l93 -115h-32l-112 71q-20 13 -20 34q0 14 9 23t23 9q21 0 39 -22z" />
    <glyph glyph-name="Uacute" unicode="&#xda;" horiz-adv-x="707" 
d="M684 696v-18q-42 0 -66 -19.5t-24 -53.5v-363q0 -133 -65 -195t-176 -62t-175.5 63.5t-64.5 204.5v352q0 34 -24 53.5t-66 19.5v18h274v-18q-43 0 -66.5 -19.5t-23.5 -53.5v-378q0 -102 48 -153t126 -51q79 0 127 53.5t48 165.5v363q0 34 -24 53.5t-67 19.5v18h219z
M526 838q0 -21 -20 -34l-112 -71h-32l93 115q18 22 39 22q14 0 23 -9t9 -23z" />
    <glyph glyph-name="Ucircumflex" unicode="&#xdb;" horiz-adv-x="707" 
d="M684 696v-18q-42 0 -66 -19.5t-24 -53.5v-363q0 -133 -65 -195t-176 -62t-175.5 63.5t-64.5 204.5v352q0 34 -24 53.5t-66 19.5v18h274v-18q-43 0 -66.5 -19.5t-23.5 -53.5v-378q0 -102 48 -153t126 -51q79 0 127 53.5t48 165.5v363q0 34 -24 53.5t-67 19.5v18h219z
M500 751q5 -5 0.5 -11t-11.5 -2q-9 6 -111 66h-3l-111 -66q-7 -4 -11.5 2t0.5 11q12 13 118 122h11z" />
    <glyph glyph-name="Udieresis" unicode="&#xdc;" horiz-adv-x="707" 
d="M684 696v-18q-42 0 -66 -19.5t-24 -53.5v-363q0 -133 -65 -195t-176 -62t-175.5 63.5t-64.5 204.5v352q0 34 -24 53.5t-66 19.5v18h274v-18q-43 0 -66.5 -19.5t-23.5 -53.5v-378q0 -102 48 -153t126 -51q79 0 127 53.5t48 165.5v363q0 34 -24 53.5t-67 19.5v18h219z
M333 789q0 -23 -16.5 -39.5t-39.5 -16.5t-39.5 16.5t-16.5 39.5t16.5 40t39.5 17t39.5 -17t16.5 -40zM521 789q0 -23 -16.5 -39.5t-39.5 -16.5t-39.5 16.5t-16.5 39.5t16.5 40t39.5 17t39.5 -17t16.5 -40z" />
    <glyph glyph-name="Yacute" unicode="&#xdd;" horiz-adv-x="669" 
d="M660 696v-18q-38 0 -57.5 -20t-47.5 -72l-165 -303v-193q0 -33 23.5 -52t66.5 -19v-19h-274v19q43 0 66.5 19t23.5 52v171l-175 325q-28 52 -50.5 72t-61.5 20v18h268v-18q-48 0 -61.5 -18.5t11.5 -72.5l139 -263h2l130 262q47 92 -47 92v18h209zM526 837q0 -21 -20 -34
l-112 -71h-32l93 115q18 22 39 22q14 0 23 -9.5t9 -22.5z" />
    <glyph glyph-name="Thorn" unicode="&#xde;" horiz-adv-x="594" 
d="M556 348q0 -90 -67.5 -144t-180.5 -54h-91v-60q0 -33 24 -52t67 -19v-19h-275v19q43 0 66.5 19t23.5 52v515q0 34 -23.5 53.5t-66.5 19.5v18h274v-19q-43 0 -66.5 -19t-23.5 -53v-59h91q113 0 180.5 -54t67.5 -144zM452 348q0 79 -45 120.5t-127 41.5h-63v-324h63
q82 0 127 41.5t45 120.5z" />
    <glyph glyph-name="germandbls" unicode="&#xdf;" horiz-adv-x="559" 
d="M507 191q0 -82 -48.5 -141t-136.5 -59q-11 0 -16.5 3.5t-2 9.5t18.5 12q95 41 95 170q0 82 -45 126t-127 44v35q70 0 107 38t37 105q0 55 -24.5 87.5t-69.5 32.5q-46 0 -76.5 -39.5t-30.5 -134.5v-400q0 -26 18 -43.5t43 -17.5v-19h-207v19q26 0 44 18t18 43v383
q0 112 55.5 170.5t137.5 58.5q80 0 124 -48t44 -113q0 -112 -80 -151v-2q55 -20 88.5 -68.5t33.5 -118.5z" />
    <glyph glyph-name="agrave" unicode="&#xe0;" horiz-adv-x="506" 
d="M329 141v126q-198 -30 -198 -150q0 -38 21.5 -59t52.5 -21q43 0 83.5 35.5t40.5 68.5zM483 54q0 -5 -2 -8q-6 -9 -16.5 -20t-33.5 -23.5t-47 -12.5q-50 0 -55 81h-4q-27 -25 -45 -39.5t-48 -27.5t-62 -13q-52 0 -90 32t-38 91q0 37 17 65.5t42 47t66 32.5t76.5 21.5
t85.5 15.5v62q0 48 -28 71.5t-71 23.5q-83 0 -83 -39q0 -7 1.5 -11.5t4 -10.5t3.5 -12q5 -24 -7.5 -41.5t-36.5 -17.5q-22 0 -34.5 16.5t-12.5 36.5q0 51 52.5 83t114.5 32q76 0 128.5 -33.5t52.5 -100.5v-267q0 -48 25 -48q18 0 33 17q4 5 8 3.5t4 -6.5zM200 649l93 -115
h-32l-112 71q-20 13 -20 34q0 13 9.5 22.5t22.5 9.5q21 0 39 -22z" />
    <glyph glyph-name="aacute" unicode="&#xe1;" horiz-adv-x="506" 
d="M329 141v126q-198 -30 -198 -150q0 -38 21.5 -59t52.5 -21q43 0 83.5 35.5t40.5 68.5zM483 54q0 -5 -2 -8q-6 -9 -16.5 -20t-33.5 -23.5t-47 -12.5q-50 0 -55 81h-4q-27 -25 -45 -39.5t-48 -27.5t-62 -13q-52 0 -90 32t-38 91q0 37 17 65.5t42 47t66 32.5t76.5 21.5
t85.5 15.5v62q0 48 -28 71.5t-71 23.5q-83 0 -83 -39q0 -7 1.5 -11.5t4 -10.5t3.5 -12q5 -24 -7.5 -41.5t-36.5 -17.5q-22 0 -34.5 16.5t-12.5 36.5q0 51 52.5 83t114.5 32q76 0 128.5 -33.5t52.5 -100.5v-267q0 -48 25 -48q18 0 33 17q4 5 8 3.5t4 -6.5zM383 639
q0 -21 -20 -34l-112 -71h-32l93 115q18 22 39 22q13 0 22.5 -9.5t9.5 -22.5z" />
    <glyph glyph-name="acircumflex" unicode="&#xe2;" horiz-adv-x="506" 
d="M329 141v126q-198 -30 -198 -150q0 -38 21.5 -59t52.5 -21q43 0 83.5 35.5t40.5 68.5zM483 54q0 -5 -2 -8q-6 -9 -16.5 -20t-33.5 -23.5t-47 -12.5q-50 0 -55 81h-4q-27 -25 -45 -39.5t-48 -27.5t-62 -13q-52 0 -90 32t-38 91q0 37 17 65.5t42 47t66 32.5t76.5 21.5
t85.5 15.5v62q0 48 -28 71.5t-71 23.5q-83 0 -83 -39q0 -7 1.5 -11.5t4 -10.5t3.5 -12q5 -24 -7.5 -41.5t-36.5 -17.5q-22 0 -34.5 16.5t-12.5 36.5q0 51 52.5 83t114.5 32q76 0 128.5 -33.5t52.5 -100.5v-267q0 -48 25 -48q18 0 33 17q4 5 8 3.5t4 -6.5zM385 548
q5 -5 0.5 -11t-11.5 -2q-9 6 -111 66h-3l-111 -66q-7 -4 -11.5 2t0.5 11q12 13 118 122h11z" />
    <glyph glyph-name="atilde" unicode="&#xe3;" horiz-adv-x="506" 
d="M329 141v126q-198 -30 -198 -150q0 -38 21.5 -59t52.5 -21q43 0 83.5 35.5t40.5 68.5zM483 54q0 -5 -2 -8q-6 -9 -16.5 -20t-33.5 -23.5t-47 -12.5q-50 0 -55 81h-4q-27 -25 -45 -39.5t-48 -27.5t-62 -13q-52 0 -90 32t-38 91q0 37 17 65.5t42 47t66 32.5t76.5 21.5
t85.5 15.5v62q0 48 -28 71.5t-71 23.5q-83 0 -83 -39q0 -7 1.5 -11.5t4 -10.5t3.5 -12q5 -24 -7.5 -41.5t-36.5 -17.5q-22 0 -34.5 16.5t-12.5 36.5q0 51 52.5 83t114.5 32q76 0 128.5 -33.5t52.5 -100.5v-267q0 -48 25 -48q18 0 33 17q4 5 8 3.5t4 -6.5zM372 624h31
q-14 -85 -79 -85q-16 0 -68.5 12.5t-70.5 12.5q-29 0 -43 -29h-30q14 85 79 85q16 0 68 -12.5t70 -12.5q30 0 43 29z" />
    <glyph glyph-name="adieresis" unicode="&#xe4;" horiz-adv-x="506" 
d="M329 141v126q-198 -30 -198 -150q0 -38 21.5 -59t52.5 -21q43 0 83.5 35.5t40.5 68.5zM483 54q0 -5 -2 -8q-6 -9 -16.5 -20t-33.5 -23.5t-47 -12.5q-50 0 -55 81h-4q-27 -25 -45 -39.5t-48 -27.5t-62 -13q-52 0 -90 32t-38 91q0 37 17 65.5t42 47t66 32.5t76.5 21.5
t85.5 15.5v62q0 48 -28 71.5t-71 23.5q-83 0 -83 -39q0 -7 1.5 -11.5t4 -10.5t3.5 -12q5 -24 -7.5 -41.5t-36.5 -17.5q-22 0 -34.5 16.5t-12.5 36.5q0 51 52.5 83t114.5 32q76 0 128.5 -33.5t52.5 -100.5v-267q0 -48 25 -48q18 0 33 17q4 5 8 3.5t4 -6.5zM210 590
q0 -23 -16.5 -39.5t-39.5 -16.5t-39.5 16.5t-16.5 39.5t16.5 40t39.5 17t39.5 -17t16.5 -40zM398 590q0 -23 -16.5 -39.5t-39.5 -16.5t-39.5 16.5t-16.5 39.5t16.5 40t39.5 17t39.5 -17t16.5 -40z" />
    <glyph glyph-name="aring" unicode="&#xe5;" horiz-adv-x="506" 
d="M329 141v126q-198 -30 -198 -150q0 -38 21.5 -59t52.5 -21q43 0 83.5 35.5t40.5 68.5zM483 54q0 -5 -2 -8q-6 -9 -16.5 -20t-33.5 -23.5t-47 -12.5q-50 0 -55 81h-4q-27 -25 -45 -39.5t-48 -27.5t-62 -13q-52 0 -90 32t-38 91q0 37 17 65.5t42 47t66 32.5t76.5 21.5
t85.5 15.5v62q0 48 -28 71.5t-71 23.5q-83 0 -83 -39q0 -7 1.5 -11.5t4 -10.5t3.5 -12q5 -24 -7.5 -41.5t-36.5 -17.5q-22 0 -34.5 16.5t-12.5 36.5q0 51 52.5 83t114.5 32q76 0 128.5 -33.5t52.5 -100.5v-267q0 -48 25 -48q18 0 33 17q4 5 8 3.5t4 -6.5zM302 637
q0 23 -16.5 40t-39.5 17t-39.5 -17t-16.5 -40t16.5 -39.5t39.5 -16.5t39.5 16.5t16.5 39.5zM349 637q0 -43 -30 -73t-73 -30t-73 30t-30 73t30 73.5t73 30.5t73 -30.5t30 -73.5z" />
    <glyph glyph-name="ae" unicode="&#xe6;" horiz-adv-x="761" 
d="M329 144v130q-100 -15 -149 -56.5t-49 -100.5q0 -38 21.5 -59t52.5 -21q43 0 83.5 37t40.5 70zM418 311h208q0 141 -93 141q-41 0 -73 -37.5t-42 -103.5zM719 89q0 -3 -3 -8q-24 -37 -69.5 -63.5t-99.5 -26.5q-66 0 -116 30t-78 85h-3q-29 -47 -78 -81t-102 -34
q-52 0 -90 32t-38 91q0 46 23.5 79.5t67.5 54.5t89.5 33.5t106.5 21.5v55q0 48 -28 71.5t-71 23.5q-83 0 -83 -39q0 -7 1.5 -11.5t4 -10.5t3.5 -12q5 -24 -7.5 -41.5t-36.5 -17.5q-22 0 -34.5 16.5t-12.5 36.5q0 51 52.5 83t114.5 32q50 0 94 -15.5t63 -48.5h3q60 65 149 65
q81 0 129 -56t48 -153h-304q0 -7 -0.5 -23t-0.5 -24q0 -82 39.5 -144t111.5 -62q33 0 62.5 12.5t42.5 22.5t31 28q4 4 8.5 5t7.5 -1t3 -6z" />
    <glyph glyph-name="ccedilla" unicode="&#xe7;" horiz-adv-x="478" 
d="M381 -127q0 -39 -33 -64t-86 -25q-46 0 -86 20q-16 8 -13 15.5t22 3.5q51 -9 66 -9q32 0 48.5 15t16.5 41q0 47 -68 47h-36l21 78q-79 12 -130 73t-51 170q0 110 61.5 181t163.5 71q68 0 111 -35.5t43 -76.5q0 -27 -14.5 -42.5t-36.5 -15.5q-27 0 -38 18t-6 40
q1 4 3.5 16t2.5 18q0 20 -16.5 32.5t-48.5 12.5q-69 0 -102.5 -62t-33.5 -155q0 -85 42 -148.5t112 -63.5q29 0 57 12.5t39.5 22.5t30.5 28q7 7 12.5 4.5t5.5 -9.5q0 -1 -2 -5q-30 -48 -74.5 -69t-87.5 -21l-9 -38h10q51 0 77.5 -22t26.5 -58z" />
    <glyph glyph-name="egrave" unicode="&#xe8;" horiz-adv-x="490" 
d="M147 311h208q0 141 -93 141q-41 0 -73 -37.5t-42 -103.5zM447 281h-304q0 -7 -0.5 -23t-0.5 -24q0 -82 39.5 -144t111.5 -62q33 0 62.5 12.5t42.5 22.5t31 28q4 4 8.5 5t7.5 -1t3 -6q0 -3 -3 -8q-24 -37 -69.5 -63.5t-99.5 -26.5q-100 0 -162 68t-62 181q0 97 59 173.5
t159 76.5q81 0 129 -56t48 -153zM219 649l93 -115h-32l-112 71q-20 13 -20 34q0 13 9 22.5t23 9.5q21 0 39 -22z" />
    <glyph glyph-name="eacute" unicode="&#xe9;" horiz-adv-x="490" 
d="M147 311h208q0 141 -93 141q-41 0 -73 -37.5t-42 -103.5zM447 281h-304q0 -7 -0.5 -23t-0.5 -24q0 -82 39.5 -144t111.5 -62q33 0 62.5 12.5t42.5 22.5t31 28q4 4 8.5 5t7.5 -1t3 -6q0 -3 -3 -8q-24 -37 -69.5 -63.5t-99.5 -26.5q-100 0 -162 68t-62 181q0 97 59 173.5
t159 76.5q81 0 129 -56t48 -153zM399 639q0 -21 -20 -34l-112 -71h-32l93 115q18 22 39 22q13 0 22.5 -9.5t9.5 -22.5z" />
    <glyph glyph-name="ecircumflex" unicode="&#xea;" horiz-adv-x="490" 
d="M147 311h208q0 141 -93 141q-41 0 -73 -37.5t-42 -103.5zM447 281h-304q0 -7 -0.5 -23t-0.5 -24q0 -82 39.5 -144t111.5 -62q33 0 62.5 12.5t42.5 22.5t31 28q4 4 8.5 5t7.5 -1t3 -6q0 -3 -3 -8q-24 -37 -69.5 -63.5t-99.5 -26.5q-100 0 -162 68t-62 181q0 97 59 173.5
t159 76.5q81 0 129 -56t48 -153zM394 548q5 -5 0.5 -11t-11.5 -2q-9 6 -111 66h-3l-111 -66q-7 -4 -11.5 2t0.5 11q12 13 118 122h11z" />
    <glyph glyph-name="edieresis" unicode="&#xeb;" horiz-adv-x="490" 
d="M147 311h208q0 141 -93 141q-41 0 -73 -37.5t-42 -103.5zM447 281h-304q0 -7 -0.5 -23t-0.5 -24q0 -82 39.5 -144t111.5 -62q33 0 62.5 12.5t42.5 22.5t31 28q4 4 8.5 5t7.5 -1t3 -6q0 -3 -3 -8q-24 -37 -69.5 -63.5t-99.5 -26.5q-100 0 -162 68t-62 181q0 97 59 173.5
t159 76.5q81 0 129 -56t48 -153zM231 590q0 -23 -16.5 -39.5t-39.5 -16.5t-39.5 16.5t-16.5 39.5t16.5 40t39.5 17t39.5 -17t16.5 -40zM419 590q0 -23 -16.5 -39.5t-39.5 -16.5t-39.5 16.5t-16.5 39.5t16.5 40t39.5 17t39.5 -17t16.5 -40z" />
    <glyph glyph-name="igrave" unicode="&#xec;" horiz-adv-x="282" 
d="M249 19v-19h-207v19q26 0 43.5 17.5t17.5 43.5v319q0 26 -17.5 44t-43.5 18v18h146v-399q0 -26 17.5 -43.5t43.5 -17.5zM86 649l93 -115h-32l-112 71q-20 13 -20 34q0 13 9.5 22.5t22.5 9.5q21 0 39 -22z" />
    <glyph glyph-name="iacute" unicode="&#xed;" horiz-adv-x="282" 
d="M249 19v-19h-207v19q26 0 43.5 17.5t17.5 43.5v319q0 26 -17.5 44t-43.5 18v18h146v-399q0 -26 17.5 -43.5t43.5 -17.5zM249 639q0 -21 -20 -34l-112 -71h-32l93 115q18 22 39 22q13 0 22.5 -9.5t9.5 -22.5z" />
    <glyph glyph-name="icircumflex" unicode="&#xee;" horiz-adv-x="282" 
d="M249 19v-19h-207v19q26 0 43.5 17.5t17.5 43.5v319q0 26 -17.5 44t-43.5 18v18h146v-399q0 -26 17.5 -43.5t43.5 -17.5zM256 548q5 -5 0.5 -11t-11.5 -2q-9 6 -111 66h-3l-111 -66q-7 -4 -11.5 2t0.5 11q12 13 118 122h11z" />
    <glyph glyph-name="idieresis" unicode="&#xef;" horiz-adv-x="282" 
d="M249 19v-19h-207v19q26 0 43.5 17.5t17.5 43.5v319q0 26 -17.5 44t-43.5 18v18h146v-399q0 -26 17.5 -43.5t43.5 -17.5zM94 590q0 -23 -16.5 -39.5t-39.5 -16.5t-39.5 16.5t-16.5 39.5t16.5 40t39.5 17t39.5 -17t16.5 -40zM282 590q0 -23 -16.5 -39.5t-39.5 -16.5
t-39.5 16.5t-16.5 39.5t16.5 40t39.5 17t39.5 -17t16.5 -40z" />
    <glyph glyph-name="eth" unicode="&#xf0;" horiz-adv-x="516" 
d="M375 240q0 211 -117 211t-117 -211q0 -212 117 -212t117 212zM464 240q0 -101 -53.5 -175t-152.5 -74q-103 0 -154.5 66t-51.5 183q0 46 12.5 89.5t37 79.5t65 58t91.5 22q14 0 25 -4h3q-56 67 -117 124l-52 -56l-27 25l52 56q-21 19 -65 55l25 34q44 -31 73 -54l51 55
l27 -25l-50 -53q78 -65 138 -129q52 -55 81 -105q42 -72 42 -172z" />
    <glyph glyph-name="ntilde" unicode="&#xf1;" horiz-adv-x="564" 
d="M531 19v-19h-207v19q26 0 43.5 17.5t17.5 43.5v257q0 46 -24 75.5t-69 29.5q-42 0 -73 -34.5t-31 -75.5v-252q0 -26 17.5 -43.5t43.5 -17.5v-19h-207v19q26 0 43.5 17.5t17.5 43.5v319q0 26 -17.5 44t-43.5 18v18h146v-70h3q56 80 140 80q50 0 94.5 -35t44.5 -113v-261
q0 -26 17.5 -43.5t43.5 -17.5zM417 624h31q-14 -85 -79 -85q-16 0 -68.5 12.5t-70.5 12.5q-29 0 -43 -29h-30q14 85 79 85q16 0 68 -12.5t70 -12.5q30 0 43 29z" />
    <glyph glyph-name="ograve" unicode="&#xf2;" horiz-adv-x="516" 
d="M375 240q0 211 -117 211t-117 -211q0 -212 117 -212t117 212zM464 240q0 -101 -53.5 -175t-152.5 -74q-103 0 -154.5 66t-51.5 183q0 46 12.5 89.5t37 79.5t65 58t91.5 22q103 0 154.5 -66.5t51.5 -182.5zM209 649l93 -115h-32l-112 71q-20 13 -20 34q0 13 9 22.5t23 9.5
q21 0 39 -22z" />
    <glyph glyph-name="oacute" unicode="&#xf3;" horiz-adv-x="516" 
d="M375 240q0 211 -117 211t-117 -211q0 -212 117 -212t117 212zM464 240q0 -101 -53.5 -175t-152.5 -74q-103 0 -154.5 66t-51.5 183q0 46 12.5 89.5t37 79.5t65 58t91.5 22q103 0 154.5 -66.5t51.5 -182.5zM404 639q0 -21 -20 -34l-112 -71h-32l93 115q18 22 39 22
q14 0 23 -9.5t9 -22.5z" />
    <glyph glyph-name="ocircumflex" unicode="&#xf4;" horiz-adv-x="516" 
d="M375 240q0 211 -117 211t-117 -211q0 -212 117 -212t117 212zM464 240q0 -101 -53.5 -175t-152.5 -74q-103 0 -154.5 66t-51.5 183q0 46 12.5 89.5t37 79.5t65 58t91.5 22q103 0 154.5 -66.5t51.5 -182.5zM394 548q5 -5 0.5 -11t-11.5 -2q-9 6 -111 66h-3l-111 -66
q-7 -4 -11.5 2t0.5 11q12 13 118 122h11z" />
    <glyph glyph-name="otilde" unicode="&#xf5;" horiz-adv-x="516" 
d="M375 240q0 211 -117 211t-117 -211q0 -212 117 -212t117 212zM464 240q0 -101 -53.5 -175t-152.5 -74q-103 0 -154.5 66t-51.5 183q0 46 12.5 89.5t37 79.5t65 58t91.5 22q103 0 154.5 -66.5t51.5 -182.5zM381 624h31q-14 -85 -79 -85q-16 0 -68.5 12.5t-70.5 12.5
q-29 0 -43 -29h-30q14 85 79 85q16 0 68 -12.5t70 -12.5q30 0 43 29z" />
    <glyph glyph-name="odieresis" unicode="&#xf6;" horiz-adv-x="516" 
d="M375 240q0 211 -117 211t-117 -211q0 -212 117 -212t117 212zM464 240q0 -101 -53.5 -175t-152.5 -74q-103 0 -154.5 66t-51.5 183q0 46 12.5 89.5t37 79.5t65 58t91.5 22q103 0 154.5 -66.5t51.5 -182.5zM228 590q0 -23 -16.5 -39.5t-39.5 -16.5t-39.5 16.5t-16.5 39.5
t16.5 40t39.5 17t39.5 -17t16.5 -40zM416 590q0 -23 -16.5 -39.5t-39.5 -16.5t-39.5 16.5t-16.5 39.5t16.5 40t39.5 17t39.5 -17t16.5 -40z" />
    <glyph glyph-name="divide" unicode="&#xf7;" horiz-adv-x="500" 
d="M455 261v-47h-410v47h410zM306 92q0 -23 -16.5 -39.5t-39.5 -16.5t-39.5 16.5t-16.5 39.5t16.5 40t39.5 17t39.5 -17t16.5 -40zM306 385q0 -23 -16.5 -39.5t-39.5 -16.5t-39.5 16.5t-16.5 39.5t16.5 40t39.5 17t39.5 -17t16.5 -40z" />
    <glyph glyph-name="oslash" unicode="&#xf8;" horiz-adv-x="516" 
d="M375 240q0 59 -10 103h-3l-199 -247q30 -68 95 -68q117 0 117 212zM154 136l198 248q-28 67 -94 67q-117 0 -117 -211q0 -58 10 -104h3zM430 479h46l-55 -68q43 -64 43 -171q0 -101 -53.5 -175t-152.5 -74q-87 0 -140 50l-33 -41h-45l55 68q-43 64 -43 172
q0 46 12.5 89.5t37 79.5t65 58t91.5 22q87 0 139 -50z" />
    <glyph glyph-name="ugrave" unicode="&#xf9;" 
d="M522 19v-19h-123q-16 20 -23 60h-3q-20 -28 -59 -48.5t-82 -20.5q-55 0 -96.5 34t-41.5 113v261q0 26 -17.5 44t-43.5 18v18h146v-1v-335q0 -57 28 -81t64 -24q43 0 74 32t31 73v256q0 26 -17.5 44t-43.5 18v18h146v-399q0 -26 17.5 -43.5t43.5 -17.5zM189 649l93 -115
h-32l-112 71q-20 13 -20 34q0 13 9 22.5t23 9.5q21 0 39 -22z" />
    <glyph glyph-name="uacute" unicode="&#xfa;" 
d="M522 19v-19h-123q-16 20 -23 60h-3q-20 -28 -59 -48.5t-82 -20.5q-55 0 -96.5 34t-41.5 113v261q0 26 -17.5 44t-43.5 18v18h146v-1v-335q0 -57 28 -81t64 -24q43 0 74 32t31 73v256q0 26 -17.5 44t-43.5 18v18h146v-399q0 -26 17.5 -43.5t43.5 -17.5zM412 639
q0 -21 -20 -34l-112 -71h-32l93 115q18 22 39 22q14 0 23 -9.5t9 -22.5z" />
    <glyph glyph-name="ucircumflex" unicode="&#xfb;" 
d="M522 19v-19h-123q-16 20 -23 60h-3q-20 -28 -59 -48.5t-82 -20.5q-55 0 -96.5 34t-41.5 113v261q0 26 -17.5 44t-43.5 18v18h146v-1v-335q0 -57 28 -81t64 -24q43 0 74 32t31 73v256q0 26 -17.5 44t-43.5 18v18h146v-399q0 -26 17.5 -43.5t43.5 -17.5zM407 548
q5 -5 0.5 -11t-11.5 -2q-9 6 -111 66h-3l-111 -66q-7 -4 -11.5 2t0.5 11q12 13 118 122h11z" />
    <glyph glyph-name="udieresis" unicode="&#xfc;" 
d="M522 19v-19h-123q-16 20 -23 60h-3q-20 -28 -59 -48.5t-82 -20.5q-55 0 -96.5 34t-41.5 113v261q0 26 -17.5 44t-43.5 18v18h146v-1v-335q0 -57 28 -81t64 -24q43 0 74 32t31 73v256q0 26 -17.5 44t-43.5 18v18h146v-399q0 -26 17.5 -43.5t43.5 -17.5zM233 590
q0 -23 -16.5 -39.5t-39.5 -16.5t-39.5 16.5t-16.5 39.5t16.5 40t39.5 17t39.5 -17t16.5 -40zM421 590q0 -23 -16.5 -39.5t-39.5 -16.5t-39.5 16.5t-16.5 39.5t16.5 40t39.5 17t39.5 -17t16.5 -40z" />
    <glyph glyph-name="yacute" unicode="&#xfd;" 
d="M545 479v-18q-31 0 -50 -24t-35 -69l-149 -397q-48 -129 -71 -162q-30 -44 -75 -44q-33 0 -51.5 21t-18.5 49q0 23 14.5 37.5t32.5 14.5q16 0 26 -10t9 -28q-2 -27 19 -27q23 0 43 57l40 113l-162 373q-23 53 -45 74.5t-63 21.5v18h228v-18q-24 0 -35.5 -8t-11.5 -23.5
t3.5 -28t11.5 -30.5l112 -268h3l87 266q5 16 7.5 23t5 23t-1 24t-13 15t-27.5 7v18h167zM451 639q0 -21 -20 -34l-112 -71h-32l93 115q18 22 39 22q13 0 22.5 -9.5t9.5 -22.5z" />
    <glyph glyph-name="thorn" unicode="&#xfe;" horiz-adv-x="564" 
d="M423 240q0 211 -100 211q-59 0 -97 -58.5t-38 -144.5q0 -118 38.5 -169t86.5 -51q55 0 82.5 56t27.5 156zM512 253q0 -129 -55.5 -196t-135.5 -67q-43 0 -78 22t-52 54h-3v-213q0 -25 18 -43t43 -18v-19h-207v19q26 0 43.5 18t17.5 43v790q0 26 -17.5 44t-43.5 18v18h146
v-324h3q49 90 149 90q87 0 129.5 -67t42.5 -169z" />
    <glyph glyph-name="ydieresis" unicode="&#xff;" 
d="M545 479v-18q-31 0 -50 -24t-35 -69l-149 -397q-48 -129 -71 -162q-30 -44 -75 -44q-33 0 -51.5 21t-18.5 49q0 23 14.5 37.5t32.5 14.5q16 0 26 -10t9 -28q-2 -27 19 -27q23 0 43 57l40 113l-162 373q-23 53 -45 74.5t-63 21.5v18h228v-18q-24 0 -35.5 -8t-11.5 -23.5
t3.5 -28t11.5 -30.5l112 -268h3l87 266q5 16 7.5 23t5 23t-1 24t-13 15t-27.5 7v18h167zM276 590q0 -23 -16.5 -39.5t-39.5 -16.5t-39.5 16.5t-16.5 39.5t16.5 40t39.5 17t39.5 -17t16.5 -40zM464 590q0 -23 -16.5 -39.5t-39.5 -16.5t-39.5 16.5t-16.5 39.5t16.5 40t39.5 17
t39.5 -17t16.5 -40z" />
    <glyph glyph-name="Amacron" unicode="&#x100;" horiz-adv-x="713" 
d="M229 282h212l-103 265h-9zM703 19v-19h-236v19q40 0 49 28.5t-8 62.5l-52 134h-241l-48 -127q-9 -24 -11.5 -39.5t1 -30t20 -21.5t46.5 -7v-19h-213v19q80 0 118 101l221 583h30l231 -593q12 -30 20 -46t27 -30.5t46 -14.5zM487 807v-66h-244v66h244z" />
    <glyph glyph-name="amacron" unicode="&#x101;" horiz-adv-x="506" 
d="M329 141v126q-198 -30 -198 -150q0 -38 21.5 -59t52.5 -21q43 0 83.5 35.5t40.5 68.5zM483 54q0 -5 -2 -8q-6 -9 -16.5 -20t-33.5 -23.5t-47 -12.5q-50 0 -55 81h-4q-27 -25 -45 -39.5t-48 -27.5t-62 -13q-52 0 -90 32t-38 91q0 37 17 65.5t42 47t66 32.5t76.5 21.5
t85.5 15.5v62q0 48 -28 71.5t-71 23.5q-83 0 -83 -39q0 -7 1.5 -11.5t4 -10.5t3.5 -12q5 -24 -7.5 -41.5t-36.5 -17.5q-22 0 -34.5 16.5t-12.5 36.5q0 51 52.5 83t114.5 32q76 0 128.5 -33.5t52.5 -100.5v-267q0 -48 25 -48q18 0 33 17q4 5 8 3.5t4 -6.5zM359 610v-66h-244
v66h244z" />
    <glyph glyph-name="Abreve" unicode="&#x102;" horiz-adv-x="713" 
d="M229 282h212l-103 265h-9zM703 19v-19h-236v19q40 0 49 28.5t-8 62.5l-52 134h-241l-48 -127q-9 -24 -11.5 -39.5t1 -30t20 -21.5t46.5 -7v-19h-213v19q80 0 118 101l221 583h30l231 -593q12 -30 20 -46t27 -30.5t46 -14.5zM453 870h35q0 -53 -34 -95t-91 -42t-91 42
t-34 95h35q0 -28 25 -52.5t65 -24.5t65 24.5t25 52.5z" />
    <glyph glyph-name="abreve" unicode="&#x103;" horiz-adv-x="506" 
d="M329 141v126q-198 -30 -198 -150q0 -38 21.5 -59t52.5 -21q43 0 83.5 35.5t40.5 68.5zM483 54q0 -5 -2 -8q-6 -9 -16.5 -20t-33.5 -23.5t-47 -12.5q-50 0 -55 81h-4q-27 -25 -45 -39.5t-48 -27.5t-62 -13q-52 0 -90 32t-38 91q0 37 17 65.5t42 47t66 32.5t76.5 21.5
t85.5 15.5v62q0 48 -28 71.5t-71 23.5q-83 0 -83 -39q0 -7 1.5 -11.5t4 -10.5t3.5 -12q5 -24 -7.5 -41.5t-36.5 -17.5q-22 0 -34.5 16.5t-12.5 36.5q0 51 52.5 83t114.5 32q76 0 128.5 -33.5t52.5 -100.5v-267q0 -48 25 -48q18 0 33 17q4 5 8 3.5t4 -6.5zM329 671h35
q0 -53 -34 -95t-91 -42t-91 42t-34 95h35q0 -28 25 -52.5t65 -24.5t65 24.5t25 52.5z" />
    <glyph glyph-name="Aogonek" unicode="&#x104;" horiz-adv-x="713" 
d="M584 -163q0 -8 -12 -15q-35 -19 -80 -19q-53 0 -84 25t-31 65q0 79 112 129q30 14 30 41q0 19 -11 47l-52 134h-241l-48 -127q-9 -24 -11.5 -39.5t1 -30t20 -21.5t46.5 -7v-19h-213v19q80 0 118 101l221 583h30l231 -593q12 -30 20 -46t27 -30.5t46 -14.5v-19h-161
q-46 0 -72.5 -30.5t-26.5 -66.5q0 -31 18.5 -50.5t47.5 -19.5q17 0 55 9q20 6 20 -5zM229 282h212l-103 265h-9z" />
    <glyph glyph-name="aogonek" unicode="&#x105;" horiz-adv-x="506" 
d="M490 -182q0 -8 -12 -15q-35 -19 -78 -19q-55 0 -86 23.5t-31 63.5q0 66 79 124q-31 13 -33 76h-4q-27 -25 -45 -39.5t-48 -27.5t-62 -13q-52 0 -90 32t-38 91q0 37 17 65.5t42 47t66 32.5t76.5 21.5t85.5 15.5v62q0 48 -28 71.5t-71 23.5q-83 0 -83 -39q0 -7 1.5 -11.5
t4 -10.5t3.5 -12q5 -24 -7.5 -41.5t-36.5 -17.5q-22 0 -34.5 16.5t-12.5 36.5q0 51 52.5 83t114.5 32q76 0 128.5 -33.5t52.5 -100.5v-267q0 -48 25 -48q18 0 33 17q4 5 8 3.5t4 -6.5q0 -19 -57 -55q-33 -21 -55 -53.5t-22 -64.5q0 -28 16.5 -47.5t46.5 -19.5q20 0 58 9
q20 6 20 -5zM329 141v126q-198 -30 -198 -150q0 -38 21.5 -59t52.5 -21q43 0 83.5 35.5t40.5 68.5z" />
    <glyph glyph-name="Cacute" unicode="&#x106;" horiz-adv-x="629" 
d="M590 0h-19q-7 12 -17 22t-17 14l-7 3q-92 -54 -171 -54q-56 0 -107.5 19.5t-96.5 60t-72 114t-27 170.5q0 154 88 258t225 104q80 0 147 -46q22 6 37 31h19v-218h-19q-66 195 -185 195q-89 0 -148.5 -90t-59.5 -234q0 -85 23.5 -157.5t72.5 -120t115 -47.5
q36 0 67.5 14.5t56 42.5t41.5 54t35 62h19v-197zM509 837q0 -21 -20 -34l-112 -71h-32l93 115q18 22 39 22q13 0 22.5 -9.5t9.5 -22.5z" />
    <glyph glyph-name="cacute" unicode="&#x107;" horiz-adv-x="478" 
d="M440 86q0 -1 -2 -5q-30 -48 -74.5 -69t-87.5 -21q-95 0 -159.5 62t-64.5 185q0 110 61.5 181t163.5 71q68 0 111 -35.5t43 -76.5q0 -27 -14.5 -42.5t-36.5 -15.5q-27 0 -37.5 18t-6.5 40q6 26 6 34q0 20 -16.5 32.5t-48.5 12.5q-69 0 -102.5 -62t-33.5 -155
q0 -85 42 -148.5t112 -63.5q64 0 127 63q8 7 13 4.5t5 -9.5zM410 639q0 -21 -20 -34l-112 -71h-32l93 115q18 22 39 22q14 0 23 -9.5t9 -22.5z" />
    <glyph glyph-name="Ccircumflex" unicode="&#x108;" horiz-adv-x="629" 
d="M590 0h-19q-7 12 -17 22t-17 14l-7 3q-92 -54 -171 -54q-56 0 -107.5 19.5t-96.5 60t-72 114t-27 170.5q0 154 88 258t225 104q80 0 147 -46q22 6 37 31h19v-218h-19q-66 195 -185 195q-89 0 -148.5 -90t-59.5 -234q0 -85 23.5 -157.5t72.5 -120t115 -47.5
q36 0 67.5 14.5t56 42.5t41.5 54t35 62h19v-197zM496 751q5 -5 0.5 -11t-11.5 -2q-9 6 -111 66h-3l-111 -66q-7 -4 -11.5 2t0.5 11q12 13 118 122h11z" />
    <glyph glyph-name="ccircumflex" unicode="&#x109;" horiz-adv-x="478" 
d="M440 86q0 -1 -2 -5q-30 -48 -74.5 -69t-87.5 -21q-95 0 -159.5 62t-64.5 185q0 110 61.5 181t163.5 71q68 0 111 -35.5t43 -76.5q0 -27 -14.5 -42.5t-36.5 -15.5q-27 0 -38 18t-6 40q1 4 3.5 16t2.5 18q0 20 -16.5 32.5t-48.5 12.5q-69 0 -102.5 -62t-33.5 -155
q0 -85 42 -148.5t112 -63.5q29 0 57 12.5t39.5 22.5t30.5 28q7 7 12.5 4.5t5.5 -9.5zM401 548q5 -5 0.5 -11t-11.5 -2q-9 6 -111 66h-3l-111 -66q-7 -4 -11.5 2t0.5 11q12 13 118 122h11z" />
    <glyph glyph-name="Cdotaccent" unicode="&#x10a;" horiz-adv-x="629" 
d="M590 0h-19q-7 12 -17 22t-17 14l-7 3q-92 -54 -171 -54q-56 0 -107.5 19.5t-96.5 60t-72 114t-27 170.5q0 154 88 258t225 104q80 0 147 -46q22 6 37 31h19v-218h-19q-66 195 -185 195q-89 0 -148.5 -90t-59.5 -234q0 -85 23.5 -157.5t72.5 -120t115 -47.5
q36 0 67.5 14.5t56 42.5t41.5 54t35 62h19v-197zM420 802q0 -23 -16.5 -39.5t-39.5 -16.5t-39.5 16.5t-16.5 39.5t16.5 40t39.5 17t39.5 -17t16.5 -40z" />
    <glyph glyph-name="cdotaccent" unicode="&#x10b;" horiz-adv-x="478" 
d="M440 86q0 -1 -2 -5q-30 -48 -74.5 -69t-87.5 -21q-95 0 -159.5 62t-64.5 185q0 110 61.5 181t163.5 71q68 0 111 -35.5t43 -76.5q0 -27 -14.5 -42.5t-36.5 -15.5q-27 0 -38 18t-6 40q1 4 3.5 16t2.5 18q0 20 -16.5 32.5t-48.5 12.5q-69 0 -102.5 -62t-33.5 -155
q0 -85 42 -148.5t112 -63.5q29 0 57 12.5t39.5 22.5t30.5 28q7 7 12.5 4.5t5.5 -9.5zM337 590q0 -23 -16.5 -39.5t-39.5 -16.5t-39.5 16.5t-16.5 39.5t16.5 40t39.5 17t39.5 -17t16.5 -40z" />
    <glyph glyph-name="Ccaron" unicode="&#x10c;" horiz-adv-x="629" 
d="M590 0h-19q-7 12 -17 22t-17 14l-7 3q-92 -54 -171 -54q-56 0 -107.5 19.5t-96.5 60t-72 114t-27 170.5q0 154 88 258t225 104q80 0 147 -46q22 6 37 31h19v-218h-19q-66 195 -185 195q-89 0 -148.5 -90t-59.5 -234q0 -85 23.5 -157.5t72.5 -120t115 -47.5
q36 0 67.5 14.5t56 42.5t41.5 54t35 62h19v-197zM490 855q-12 -13 -118 -122h-11l-118 122q-5 5 -0.5 11t11.5 2q9 -6 111 -66h3l111 66q7 4 11.5 -2t-0.5 -11z" />
    <glyph glyph-name="ccaron" unicode="&#x10d;" horiz-adv-x="478" 
d="M440 86q0 -1 -2 -5q-30 -48 -74.5 -69t-87.5 -21q-95 0 -159.5 62t-64.5 185q0 110 61.5 181t163.5 71q68 0 111 -35.5t43 -76.5q0 -27 -14.5 -42.5t-36.5 -15.5q-27 0 -37.5 18t-6.5 40q6 26 6 34q0 20 -16.5 32.5t-48.5 12.5q-69 0 -102.5 -62t-33.5 -155
q0 -85 42 -148.5t112 -63.5q64 0 127 63q8 7 13 4.5t5 -9.5zM398 656q-12 -13 -118 -122h-11l-118 122q-5 5 -0.5 11t11.5 2q9 -6 111 -66h3l111 66q7 4 11.5 -2t-0.5 -11z" />
    <glyph glyph-name="Dcaron" unicode="&#x10e;" horiz-adv-x="698" 
d="M295 0h-262v19q43 0 66.5 19t23.5 52v515q0 34 -23.5 53t-66.5 19v19h271q165 0 251.5 -84t86.5 -252q0 -182 -91 -271t-256 -89zM295 658h-11q-36 0 -51.5 -10.5t-15.5 -42.5v-515q0 -32 15.5 -42t51.5 -10h15q129 0 184 76t55 231q0 144 -58.5 228.5t-184.5 84.5z
M434 855q-12 -13 -118 -122h-11l-118 122q-5 5 -0.5 11t11.5 2q9 -6 111 -66h3l111 66q7 4 11.5 -2t-0.5 -11z" />
    <glyph glyph-name="dcaron" unicode="&#x10f;" horiz-adv-x="631" 
d="M631 646q0 -96 -87 -146q-11 -7 -15.5 -1t5.5 15q53 44 53 87q0 13 -5.5 18t-17.5 5q-25 0 -39.5 16t-14.5 38t16 40t40 18q33 0 49 -27t16 -63zM376 240q0 211 -111 211q-65 0 -94.5 -60t-29.5 -151q0 -88 29 -146.5t87 -58.5q57 0 88 56t31 149zM522 19v-19h-124
q-10 11 -15.5 29t-6.5 30v12h-3q-53 -80 -142 -80q-74 0 -126.5 62.5t-52.5 180.5q0 113 56.5 184t142.5 71q44 0 76 -18t46 -41h3v213q0 26 -17.5 43.5t-43.5 17.5v19h146v-643q0 -26 17.5 -43.5t43.5 -17.5z" />
    <glyph glyph-name="Dmacron" unicode="&#x110;" horiz-adv-x="698" 
d="M538 345q0 144 -58.5 228.5t-184.5 84.5h-11q-36 0 -51.5 -10.5t-15.5 -42.5v-238h153v-38h-153v-239q0 -32 15.5 -42t51.5 -10h15q129 0 184 76t55 231zM642 360q0 -182 -91 -271t-256 -89h-262v19q43 0 66.5 19t23.5 52v239h-52v38h52v238q0 34 -23.5 53t-66.5 19v19
h271q165 0 251.5 -84t86.5 -252z" />
    <glyph glyph-name="dmacron" unicode="&#x111;" 
d="M376 240q0 211 -111 211q-65 0 -94.5 -60t-29.5 -151q0 -88 29 -146.5t87 -58.5q57 0 88 56t31 149zM522 19v-19h-124q-10 11 -15.5 29t-6.5 30v12h-3q-53 -80 -142 -80q-74 0 -126.5 62.5t-52.5 180.5q0 113 56.5 184t142.5 71q44 0 76 -18t46 -41h3v125h-197v37h197v51
q0 26 -17.5 43.5t-43.5 17.5v19h146v-131h56v-37h-56v-475q0 -26 17.5 -43.5t43.5 -17.5z" />
    <glyph glyph-name="Emacron" unicode="&#x112;" horiz-adv-x="576" 
d="M539 178v-178h-506v19q43 0 66.5 19t23.5 52v515q0 34 -23.5 53t-66.5 19v19h483v-170h-18q-34 86 -61.5 109t-98.5 23h-37.5t-29 -1.5t-24.5 -4.5t-15 -9t-11.5 -15.5t-2.5 -22.5v-220h83q35 0 62.5 25.5t27.5 68.5h18v-225h-18q0 43 -27.5 68.5t-62.5 25.5h-83v-258
q0 -16 5 -25.5t10.5 -15t22.5 -8t29 -3t41 -0.5h12q81 0 113.5 26t68.5 114h19zM405 816v-66h-244v66h244z" />
    <glyph glyph-name="emacron" unicode="&#x113;" horiz-adv-x="490" 
d="M147 311h208q0 141 -93 141q-41 0 -73 -37.5t-42 -103.5zM447 281h-304q0 -7 -0.5 -23t-0.5 -24q0 -82 39.5 -144t111.5 -62q33 0 62.5 12.5t42.5 22.5t31 28q4 4 8.5 5t7.5 -1t3 -6q0 -3 -3 -8q-24 -37 -69.5 -63.5t-99.5 -26.5q-100 0 -162 68t-62 181q0 97 59 173.5
t159 76.5q81 0 129 -56t48 -153zM391 610v-66h-244v66h244z" />
    <glyph glyph-name="Ebreve" unicode="&#x114;" horiz-adv-x="576" 
d="M539 178v-178h-506v19q43 0 66.5 19t23.5 52v515q0 34 -23.5 53t-66.5 19v19h483v-170h-18q-34 86 -61.5 109t-98.5 23h-37.5t-29 -1.5t-24.5 -4.5t-15 -9t-11.5 -15.5t-2.5 -22.5v-220h83q35 0 62.5 25.5t27.5 68.5h18v-225h-18q0 43 -27.5 68.5t-62.5 25.5h-83v-258
q0 -16 5 -25.5t10.5 -15t22.5 -8t29 -3t41 -0.5h12q81 0 113.5 26t68.5 114h19zM384 870h35q0 -53 -34 -95t-91 -42t-91 42t-34 95h35q0 -28 25 -52.5t65 -24.5t65 24.5t25 52.5z" />
    <glyph glyph-name="ebreve" unicode="&#x115;" horiz-adv-x="490" 
d="M147 311h208q0 141 -93 141q-41 0 -73 -37.5t-42 -103.5zM447 281h-304q0 -7 -0.5 -23t-0.5 -24q0 -82 39.5 -144t111.5 -62q33 0 62.5 12.5t42.5 22.5t31 28q4 4 8.5 5t7.5 -1t3 -6q0 -3 -3 -8q-24 -37 -69.5 -63.5t-99.5 -26.5q-100 0 -162 68t-62 181q0 97 59 173.5
t159 76.5q81 0 129 -56t48 -153zM359 671h35q0 -53 -34 -95t-91 -42t-91 42t-34 95h35q0 -28 25 -52.5t65 -24.5t65 24.5t25 52.5z" />
    <glyph glyph-name="Edotaccent" unicode="&#x116;" horiz-adv-x="576" 
d="M539 178v-178h-506v19q43 0 66.5 19t23.5 52v515q0 34 -23.5 53t-66.5 19v19h483v-170h-18q-34 86 -61.5 109t-98.5 23h-37.5t-29 -1.5t-24.5 -4.5t-15 -9t-11.5 -15.5t-2.5 -22.5v-220h83q35 0 62.5 25.5t27.5 68.5h18v-225h-18q0 43 -27.5 68.5t-62.5 25.5h-83v-258
q0 -16 5 -25.5t10.5 -15t22.5 -8t29 -3t41 -0.5h12q81 0 113.5 26t68.5 114h19zM356 798q0 -23 -16.5 -39.5t-39.5 -16.5t-39.5 16.5t-16.5 39.5t16.5 40t39.5 17t39.5 -17t16.5 -40z" />
    <glyph glyph-name="edotaccent" unicode="&#x117;" horiz-adv-x="490" 
d="M147 311h208q0 141 -93 141q-41 0 -73 -37.5t-42 -103.5zM447 281h-304q0 -7 -0.5 -23t-0.5 -24q0 -82 39.5 -144t111.5 -62q33 0 62.5 12.5t42.5 22.5t31 28q4 4 8.5 5t7.5 -1t3 -6q0 -3 -3 -8q-24 -37 -69.5 -63.5t-99.5 -26.5q-100 0 -162 68t-62 181q0 97 59 173.5
t159 76.5q81 0 129 -56t48 -153zM328 590q0 -23 -16.5 -39.5t-39.5 -16.5t-39.5 16.5t-16.5 39.5t16.5 40t39.5 17t39.5 -17t16.5 -40z" />
    <glyph glyph-name="Eogonek" unicode="&#x118;" horiz-adv-x="576" 
d="M428 -182q0 -8 -12 -15q-35 -19 -80 -19q-54 0 -84.5 23t-30.5 64q0 73 87 129h-275v19q43 0 66.5 19t23.5 52v515q0 34 -23.5 53t-66.5 19v19h483v-170h-18q-34 86 -61.5 109t-98.5 23h-37.5t-29 -1.5t-24.5 -4.5t-15 -9t-11.5 -15.5t-2.5 -22.5v-220h83q35 0 62.5 25.5
t27.5 68.5h18v-225h-18q0 43 -27.5 68.5t-62.5 25.5h-83v-258q0 -16 5 -25.5t10.5 -15t22.5 -8t29 -3t41 -0.5h12q81 0 113.5 26t68.5 114h19v-178h-175q-78 -64 -78 -123q0 -28 16 -45.5t46 -17.5q22 0 60 9q20 6 20 -5z" />
    <glyph glyph-name="eogonek" unicode="&#x119;" horiz-adv-x="490" 
d="M382 -182q0 -8 -12 -15q-35 -19 -80 -19q-54 0 -84.5 23t-30.5 64q0 67 76 121q-90 8 -144.5 75t-54.5 173q0 97 59 173.5t159 76.5q81 0 129 -56t48 -153h-304q0 -7 -0.5 -23t-0.5 -24q0 -82 39.5 -144t111.5 -62q33 0 62.5 12.5t42.5 22.5t31 28q4 4 8.5 5t7.5 -1t3 -6
q0 -3 -3 -8q-20 -31 -55 -55t-79 -31q-71 -62 -71 -118q0 -28 16 -45.5t46 -17.5q22 0 60 9q20 6 20 -5zM147 311h208q0 141 -93 141q-41 0 -73 -37.5t-42 -103.5z" />
    <glyph glyph-name="Ecaron" unicode="&#x11a;" horiz-adv-x="576" 
d="M539 178v-178h-506v19q43 0 66.5 19t23.5 52v515q0 34 -23.5 53t-66.5 19v19h483v-170h-18q-34 86 -61.5 109t-98.5 23h-37.5t-29 -1.5t-24.5 -4.5t-15 -9t-11.5 -15.5t-2.5 -22.5v-220h83q35 0 62.5 25.5t27.5 68.5h18v-225h-18q0 43 -27.5 68.5t-62.5 25.5h-83v-258
q0 -16 5 -25.5t10.5 -15t22.5 -8t29 -3t41 -0.5h12q81 0 113.5 26t68.5 114h19zM421 855q-12 -13 -118 -122h-11l-118 122q-5 5 -0.5 11t11.5 2q9 -6 111 -66h3l111 66q7 4 11.5 -2t-0.5 -11z" />
    <glyph glyph-name="ecaron" unicode="&#x11b;" horiz-adv-x="490" 
d="M147 311h208q0 141 -93 141q-41 0 -73 -37.5t-42 -103.5zM447 281h-304q0 -7 -0.5 -23t-0.5 -24q0 -82 39.5 -144t111.5 -62q33 0 62.5 12.5t42.5 22.5t31 28q4 4 8.5 5t7.5 -1t3 -6q0 -3 -3 -8q-24 -37 -69.5 -63.5t-99.5 -26.5q-100 0 -162 68t-62 181q0 97 59 173.5
t159 76.5q81 0 129 -56t48 -153zM397 656q-12 -13 -118 -122h-11l-118 122q-5 5 -0.5 11t11.5 2q9 -6 111 -66h3l111 66q7 4 11.5 -2t-0.5 -11z" />
    <glyph glyph-name="Gcircumflex" unicode="&#x11c;" horiz-adv-x="721" 
d="M711 303q-39 0 -65 -18t-26 -51v-243h-18q-12 38 -41 59q-90 -65 -194 -65q-146 0 -228.5 96.5t-82.5 262.5q0 149 91.5 258t236.5 109q90 0 163 -50q6 1 14 9.5t13 17.5l4 8h19v-218h-19q-32 90 -81.5 142.5t-112.5 52.5q-106 0 -165 -95t-59 -227q0 -156 59.5 -242
t152.5 -86q101 0 153 68l1 140q0 34 -24 53t-66 19v18h275v-18zM511 751q5 -5 0.5 -11t-11.5 -2q-9 6 -111 66h-3l-111 -66q-7 -4 -11.5 2t0.5 11q12 13 118 122h11z" />
    <glyph glyph-name="gcircumflex" unicode="&#x11d;" horiz-adv-x="506" 
d="M404 -87q0 87 -87 87h-133q-35 0 -54 -28t-19 -61q0 -52 36.5 -83t102.5 -31q76 0 115 33.5t39 82.5zM354 329q0 66 -26 98.5t-70 32.5q-49 0 -75.5 -35t-26.5 -96q0 -65 27.5 -97.5t72.5 -32.5q98 0 98 130zM473 479v-30h-30q-36 0 -68 8l-1 -3q69 -47 69 -126
q0 -77 -57 -119.5t-130 -42.5q-6 0 -32 1.5t-33 1.5q-40 0 -60 -34q-19 -32 3 -52q14 -12 40 -12h134q74 0 118 -36.5t44 -103.5q0 -68 -57 -117t-164 -49q-94 0 -150.5 35.5t-56.5 95.5q0 40 22.5 69.5t51.5 42.5v2q-45 24 -45 72q0 36 24.5 62.5t55.5 39.5v3
q-84 44 -84 137q0 67 54 116t135 49q30 0 65 -10h152zM376 548q5 -5 0.5 -11t-11.5 -2q-9 6 -111 66h-3l-111 -66q-7 -4 -11.5 2t0.5 11q12 13 118 122h11z" />
    <glyph glyph-name="Gbreve" unicode="&#x11e;" horiz-adv-x="721" 
d="M711 303q-39 0 -65 -18t-26 -51v-243h-18q-12 38 -41 59q-90 -65 -194 -65q-146 0 -228.5 96.5t-82.5 262.5q0 149 91.5 258t236.5 109q90 0 163 -50q6 1 14 9.5t13 17.5l4 8h19v-218h-19q-32 90 -81.5 142.5t-112.5 52.5q-106 0 -165 -95t-59 -227q0 -156 59.5 -242
t152.5 -86q101 0 153 68l1 140q0 34 -24 53t-66 19v18h275v-18zM468 869h35q0 -53 -34 -95t-91 -42t-91 42t-34 95h35q0 -28 25 -52.5t65 -24.5t65 24.5t25 52.5z" />
    <glyph glyph-name="gbreve" unicode="&#x11f;" horiz-adv-x="506" 
d="M404 -87q0 87 -87 87h-133q-35 0 -54 -28t-19 -61q0 -52 36.5 -83t102.5 -31q76 0 115 33.5t39 82.5zM354 329q0 66 -26 98.5t-70 32.5q-49 0 -75.5 -35t-26.5 -96q0 -65 27.5 -97.5t72.5 -32.5q98 0 98 130zM473 479v-30h-30q-36 0 -68 8l-1 -3q69 -47 69 -126
q0 -77 -57 -119.5t-130 -42.5q-6 0 -32 1.5t-33 1.5q-40 0 -60 -34q-19 -32 3 -52q14 -12 40 -12h134q74 0 118 -36.5t44 -103.5q0 -68 -57 -117t-164 -49q-94 0 -150.5 35.5t-56.5 95.5q0 40 22.5 69.5t51.5 42.5v2q-45 24 -45 72q0 36 24.5 62.5t55.5 39.5v3
q-84 44 -84 137q0 67 54 116t135 49q30 0 65 -10h152zM342 671h35q0 -53 -34 -95t-91 -42t-91 42t-34 95h35q0 -28 25 -52.5t65 -24.5t65 24.5t25 52.5z" />
    <glyph glyph-name="Gdotaccent" unicode="&#x120;" horiz-adv-x="721" 
d="M711 303q-39 0 -65 -18t-26 -51v-243h-18q-12 38 -41 59q-90 -65 -194 -65q-146 0 -228.5 96.5t-82.5 262.5q0 149 91.5 258t236.5 109q90 0 163 -50q6 1 14 9.5t13 17.5l4 8h19v-218h-19q-32 90 -81.5 142.5t-112.5 52.5q-106 0 -165 -95t-59 -227q0 -156 59.5 -242
t152.5 -86q101 0 153 68l1 140q0 34 -24 53t-66 19v18h275v-18zM438 806q0 -23 -16.5 -39.5t-39.5 -16.5t-39.5 16.5t-16.5 39.5t16.5 40t39.5 17t39.5 -17t16.5 -40z" />
    <glyph glyph-name="gdotaccent" unicode="&#x121;" horiz-adv-x="506" 
d="M404 -87q0 87 -87 87h-133q-35 0 -54 -28t-19 -61q0 -52 36.5 -83t102.5 -31q76 0 115 33.5t39 82.5zM354 329q0 66 -26 98.5t-70 32.5q-49 0 -75.5 -35t-26.5 -96q0 -65 27.5 -97.5t72.5 -32.5q98 0 98 130zM496 512q0 -18 -10.5 -29.5t-27.5 -11.5t-25.5 12t-3.5 28
q4 12 4 13q0 4 -10 4q-20 0 -42 -16.5t-36 -41.5q46 -21 72 -58t26 -84q0 -77 -57 -119.5t-130 -42.5q-6 0 -32 1.5t-33 1.5q-40 0 -60 -34q-19 -32 3 -52q14 -12 40 -12h134q74 0 118 -36.5t44 -103.5q0 -68 -57 -117t-164 -49q-94 0 -150.5 35.5t-56.5 95.5
q0 40 22.5 69.5t51.5 42.5v2q-45 24 -45 72q0 36 24.5 62.5t55.5 39.5v3q-84 44 -84 137q0 67 54 116t135 49q34 0 62 -9q21 36 52.5 59t66.5 23q30 0 44.5 -15t14.5 -35zM309 590q0 -23 -16.5 -39.5t-39.5 -16.5t-39.5 16.5t-16.5 39.5t16.5 40t39.5 17t39.5 -17t16.5 -40z
" />
    <glyph glyph-name="Gcommaaccent" unicode="&#x122;" horiz-adv-x="721" 
d="M711 303q-39 0 -65 -18t-26 -51v-243h-18q-12 38 -41 59q-90 -65 -194 -65q-146 0 -228.5 96.5t-82.5 262.5q0 149 91.5 258t236.5 109q90 0 163 -50q6 1 14 9.5t13 17.5l4 8h19v-218h-19q-32 90 -81.5 142.5t-112.5 52.5q-106 0 -165 -95t-59 -227q0 -156 59.5 -242
t152.5 -86q101 0 153 68l1 140q0 34 -24 53t-66 19v18h275v-18zM421 -136q0 -94 -87 -144q-5 -3 -9.5 -3.5t-6.5 1t-2 4.5q0 6 8 12q21 15 37 41t16 51q0 10 -4.5 14t-18.5 4q-23 0 -38.5 17.5t-15.5 38.5q0 22 15 39t41 17q36 0 50.5 -28t14.5 -64z" />
    <glyph glyph-name="gcommaaccent" unicode="&#x123;" horiz-adv-x="506" 
d="M312 589q0 -22 -16 -40t-40 -18q-33 0 -49 27t-16 63q0 96 87 146q11 7 15.5 1t-5.5 -15q-53 -44 -53 -87q0 -13 5.5 -18t17.5 -5q25 0 39.5 -16t14.5 -38zM404 -87q0 87 -87 87h-133q-35 0 -54 -28t-19 -61q0 -52 36.5 -83t102.5 -31q76 0 115 33.5t39 82.5zM354 329
q0 66 -26 98.5t-70 32.5q-49 0 -75.5 -35t-26.5 -96q0 -65 27.5 -97.5t72.5 -32.5q98 0 98 130zM496 512q0 -18 -10.5 -29.5t-27.5 -11.5t-25.5 12t-3.5 28q4 12 4 13q0 4 -10 4q-20 0 -42 -16.5t-36 -41.5q46 -21 72 -58t26 -84q0 -77 -57 -119.5t-130 -42.5q-6 0 -32 1.5
t-33 1.5q-40 0 -60 -34q-19 -32 3 -52q14 -12 40 -12h134q74 0 118 -36.5t44 -103.5q0 -68 -57 -117t-164 -49q-94 0 -150.5 35.5t-56.5 95.5q0 40 22.5 69.5t51.5 42.5v2q-45 24 -45 72q0 36 24.5 62.5t55.5 39.5v3q-84 44 -84 137q0 67 54 116t135 49q34 0 62 -9
q21 36 52.5 59t66.5 23q30 0 44.5 -15t14.5 -35z" />
    <glyph glyph-name="Imacron" unicode="&#x12a;" horiz-adv-x="340" 
d="M307 19v-19h-274v19q43 0 66.5 19t23.5 52v515q0 34 -23.5 53t-66.5 19v19h274v-19q-43 0 -66.5 -19t-23.5 -53v-515q0 -33 23.5 -52t66.5 -19zM282 816v-66h-244v66h244z" />
    <glyph glyph-name="imacron" unicode="&#x12b;" horiz-adv-x="282" 
d="M249 19v-19h-207v19q26 0 43.5 17.5t17.5 43.5v319q0 26 -17.5 44t-43.5 18v18h146v-399q0 -26 17.5 -43.5t43.5 -17.5zM250 610v-66h-244v66h244z" />
    <glyph glyph-name="Iogonek" unicode="&#x12e;" horiz-adv-x="340" 
d="M260 -182q0 -8 -12 -15q-35 -19 -80 -19q-54 0 -84.5 23t-30.5 64q0 73 87 129h-107v19q43 0 66.5 19t23.5 52v515q0 34 -23.5 53t-66.5 19v19h274v-19q-43 0 -66.5 -19t-23.5 -53v-515q0 -33 23.5 -52t66.5 -19v-19h-111q-78 -64 -78 -123q0 -28 16 -45.5t46 -17.5
q22 0 60 9q20 6 20 -5z" />
    <glyph glyph-name="iogonek" unicode="&#x12f;" horiz-adv-x="282" 
d="M245 -182q0 -8 -12 -15q-35 -19 -80 -19q-54 0 -84.5 23t-30.5 64q0 73 87 129h-83v19q26 0 43.5 17.5t17.5 43.5v319q0 26 -17.5 44t-43.5 18v18h146v-399q0 -26 17.5 -43.5t43.5 -17.5v-19h-68q-78 -64 -78 -123q0 -28 16 -45.5t46 -17.5q22 0 60 9q20 6 20 -5z
M197 636q0 -23 -16.5 -39.5t-39.5 -16.5t-39.5 16.5t-16.5 39.5q0 24 16.5 40.5t39.5 16.5t39.5 -16.5t16.5 -40.5z" />
    <glyph glyph-name="Idotaccent" unicode="&#x130;" horiz-adv-x="340" 
d="M307 19v-19h-274v19q43 0 66.5 19t23.5 52v515q0 34 -23.5 53t-66.5 19v19h274v-19q-43 0 -66.5 -19t-23.5 -53v-515q0 -33 23.5 -52t66.5 -19zM219 806q0 -23 -16.5 -39.5t-39.5 -16.5t-39.5 16.5t-16.5 39.5t16.5 40t39.5 17t39.5 -17t16.5 -40z" />
    <glyph glyph-name="dotlessi" unicode="&#x131;" horiz-adv-x="282" 
d="M249 19v-19h-207v19q26 0 43.5 17.5t17.5 43.5v319q0 26 -17.5 44t-43.5 18v18h146v-399q0 -26 17.5 -43.5t43.5 -17.5z" />
    <glyph glyph-name="Jcircumflex" unicode="&#x134;" horiz-adv-x="406" 
d="M383 696v-18q-43 0 -67.5 -19.5t-24.5 -53.5v-417q0 -90 -40.5 -146.5t-122.5 -56.5q-50 0 -86 24.5t-36 68.5q0 28 16.5 43t38.5 15q20 0 33.5 -12.5t14.5 -35.5q0 -7 -1.5 -20.5t-1.5 -20.5q0 -31 30 -31q62 0 62 92v497q0 34 -24 53.5t-67 19.5v18h276zM372 751
q5 -5 0.5 -11t-11.5 -2q-9 6 -111 66h-3l-111 -66q-7 -4 -11.5 2t0.5 11q12 13 118 122h11z" />
    <glyph glyph-name="jcircumflex" unicode="&#x135;" horiz-adv-x="282" 
d="M188 479v-476q0 -130 -42 -184t-106 -54q-41 0 -71 20t-30 58q0 20 12.5 31t29.5 12q16 1 28 -8.5t12 -27.5q0 -5 -2 -14.5t-2 -14.5q0 -26 31 -26q29 0 42 25.5t13 82.5v496q0 26 -17.5 44t-43.5 18v18h146zM260 548q5 -5 0.5 -11t-11.5 -2q-9 6 -111 66h-3l-111 -66
q-7 -4 -11.5 2t0.5 11q12 13 118 122h11z" />
    <glyph glyph-name="Kcommaaccent" unicode="&#x136;" horiz-adv-x="703" 
d="M683 19v-19h-157l-234 309q-23 30 -31.5 34.5t-42.5 4.5v-258q0 -33 23.5 -52t65.5 -19v-19h-274v19q43 0 66.5 19t23.5 52v515q0 34 -23.5 53.5t-66.5 19.5v18h274v-18q-42 0 -65.5 -19.5t-23.5 -53.5v-220q42 0 56 7t37 36l131 164q3 4 10 13q41 50 39 62q-2 11 -30 11
v18h189v-19q-49 0 -80.5 -21t-82.5 -80l-148 -173v-2l200 -264q1 -1 15.5 -20.5t18 -23.5t17 -20t21 -21.5t20.5 -14.5t25.5 -13t26.5 -5zM442 -136q0 -94 -87 -144q-5 -3 -9.5 -3.5t-6.5 1t-2 4.5q0 6 8 12q21 15 37 41t16 51q0 10 -4.5 14t-18.5 4q-23 0 -38.5 17.5
t-15.5 38.5q0 22 15 39t41 17q36 0 50.5 -28t14.5 -64z" />
    <glyph glyph-name="kcommaaccent" unicode="&#x137;" horiz-adv-x="545" 
d="M536 19v-19h-138l-143 198q-23 32 -31 37t-36 5v-160q0 -26 17.5 -43.5t43.5 -17.5v-19h-207v19q26 0 43.5 17.5t17.5 43.5v563q0 26 -17.5 43.5t-43.5 17.5v19h146v-446q35 -1 47 5.5t39 39.5l65 80q21 23 18.5 41t-32.5 18v18h183v-18q-28 -1 -52.5 -13t-59.5 -49
l-103 -111v-3l170 -228q29 -38 73 -38zM362 -136q0 -94 -87 -144q-5 -3 -9.5 -3.5t-6.5 1t-2 4.5q0 6 8 12q21 15 37 41t16 51q0 10 -4.5 14t-18.5 4q-23 0 -38.5 17.5t-15.5 38.5q0 22 15 39t41 17q36 0 50.5 -28t14.5 -64z" />
    <glyph glyph-name="Lacute" unicode="&#x139;" horiz-adv-x="542" 
d="M522 178v-178h-489v19q42 0 66.5 20t24.5 53v513q0 34 -24 53.5t-67 19.5v18h275v-18q-43 0 -67 -19.5t-24 -53.5v-515q0 -32 15 -42t51 -10h39q79 0 111 24t71 116h18zM320 837q0 -21 -20 -34l-112 -71h-32l93 115q18 22 39 22q14 0 23 -9.5t9 -22.5z" />
    <glyph glyph-name="lacute" unicode="&#x13a;" horiz-adv-x="291" 
d="M249 19v-19h-207v19q26 0 43.5 17.5t17.5 43.5v563q0 26 -17.5 43.5t-43.5 17.5v19h146v-643q0 -26 17.5 -43.5t43.5 -17.5zM259 847q0 -21 -20 -34l-112 -71h-32l93 115q18 22 39 22q13 0 22.5 -9.5t9.5 -22.5z" />
    <glyph glyph-name="Lcommaaccent" unicode="&#x13b;" horiz-adv-x="542" 
d="M522 178v-178h-489v19q42 0 66.5 20t24.5 53v513q0 34 -24 53.5t-67 19.5v18h275v-18q-43 0 -67 -19.5t-24 -53.5v-515q0 -32 15 -42t51 -10h39q79 0 111 24t71 116h18zM347 -136q0 -94 -87 -144q-5 -3 -9.5 -3.5t-6.5 1t-2 4.5q0 6 8 12q21 15 37 41t16 51q0 10 -4.5 14
t-18.5 4q-23 0 -38.5 17.5t-15.5 38.5q0 22 15 39t41 17q36 0 50.5 -28t14.5 -64z" />
    <glyph glyph-name="lcommaaccent" unicode="&#x13c;" horiz-adv-x="291" 
d="M249 19v-19h-207v19q26 0 43.5 17.5t17.5 43.5v563q0 26 -17.5 43.5t-43.5 17.5v19h146v-643q0 -26 17.5 -43.5t43.5 -17.5zM207 -136q0 -94 -87 -144q-5 -3 -9.5 -3.5t-6.5 1t-2 4.5q0 6 8 12q21 15 37 41t16 51q0 10 -4.5 14t-18.5 4q-23 0 -38.5 17.5t-15.5 38.5
q0 22 15 39t41 17q36 0 50.5 -28t14.5 -64z" />
    <glyph glyph-name="Lcaron" unicode="&#x13d;" horiz-adv-x="542" 
d="M468 621q0 -96 -87 -146q-11 -7 -15.5 -1t5.5 15q53 44 53 87q0 13 -5.5 18t-17.5 5q-25 0 -39.5 16t-14.5 38t16 40t40 18q33 0 49 -27t16 -63zM522 178v-178h-489v19q42 0 66.5 20t24.5 53v513q0 34 -24 53.5t-67 19.5v18h275v-18q-43 0 -67 -19.5t-24 -53.5v-515
q0 -32 15 -42t51 -10h39q79 0 111 24t71 116h18z" />
    <glyph glyph-name="lcaron" unicode="&#x13e;" horiz-adv-x="354" 
d="M249 19v-19h-207v19q26 0 43.5 17.5t17.5 43.5v563q0 26 -17.5 43.5t-43.5 17.5v19h146v-643q0 -26 17.5 -43.5t43.5 -17.5zM347 646q0 -96 -87 -146q-11 -7 -15.5 -1t5.5 15q53 44 53 87q0 13 -5.5 18t-17.5 5q-25 0 -39.5 16t-14.5 38t16 40t40 18q33 0 49 -27t16 -63z
" />
    <glyph glyph-name="Ldot" unicode="&#x13f;" horiz-adv-x="542" 
d="M383 393q0 -23 -16.5 -39.5t-39.5 -16.5t-39.5 16.5t-16.5 39.5t16.5 40t39.5 17t39.5 -17t16.5 -40zM522 178v-178h-489v19q42 0 66.5 20t24.5 53v513q0 34 -24 53.5t-67 19.5v18h275v-18q-43 0 -67 -19.5t-24 -53.5v-515q0 -32 15 -42t51 -10h39q79 0 111 24t71 116h18
z" />
    <glyph glyph-name="ldot" unicode="&#x140;" horiz-adv-x="390" 
d="M249 19v-19h-207v19q26 0 43.5 17.5t17.5 43.5v563q0 26 -17.5 43.5t-43.5 17.5v19h146v-643q0 -26 17.5 -43.5t43.5 -17.5zM348 394q0 -23 -16.5 -39.5t-39.5 -16.5t-39.5 16.5t-16.5 39.5t16.5 40t39.5 17t39.5 -17t16.5 -40z" />
    <glyph glyph-name="Lslash" unicode="&#x141;" horiz-adv-x="540" 
d="M521 178v-178h-489v19q42 0 66.5 20t24.5 53v210h-3l-66 -40l-19 33l88 51v259q0 34 -24 53.5t-67 19.5v18h275v-18q-43 0 -67 -19.5t-24 -53.5v-206h3l112 66l19 -33l-134 -77v-265q0 -32 15 -42t51 -10h39q79 0 111 24t71 116h18z" />
    <glyph glyph-name="lslash" unicode="&#x142;" horiz-adv-x="291" 
d="M254 433l19 -33l-85 -48v-272q0 -26 17.5 -43.5t43.5 -17.5v-19h-207v19q26 0 43.5 17.5t17.5 43.5v224h-3l-49 -30l-19 33l71 40v296q0 26 -17.5 43.5t-43.5 17.5v19h146v-327h3z" />
    <glyph glyph-name="Nacute" unicode="&#x143;" horiz-adv-x="763" 
d="M731 696v-19q-43 0 -67 -19t-24 -53v-605h-33l-443 572h-4v-482q0 -33 24 -52t67 -19v-19h-219v19q43 0 67 19t24 52v515q0 34 -24 53t-67 19v19h157l409 -531h4v440q0 34 -23.5 53t-66.5 19v19h219zM531 838q0 -21 -20 -34l-112 -71h-32l93 115q18 22 39 22
q13 0 22.5 -9t9.5 -23z" />
    <glyph glyph-name="nacute" unicode="&#x144;" horiz-adv-x="564" 
d="M531 19v-19h-207v19q26 0 43.5 17.5t17.5 43.5v257q0 46 -24 75.5t-69 29.5q-42 0 -73 -34.5t-31 -75.5v-252q0 -26 17.5 -43.5t43.5 -17.5v-19h-207v19q26 0 43.5 17.5t17.5 43.5v319q0 26 -17.5 44t-43.5 18v18h146v-70h3q56 80 140 80q50 0 94.5 -35t44.5 -113v-261
q0 -26 17.5 -43.5t43.5 -17.5zM425 639q0 -21 -20 -34l-112 -71h-32l93 115q18 22 39 22q13 0 22.5 -9.5t9.5 -22.5z" />
    <glyph glyph-name="Ncommaaccent" unicode="&#x145;" horiz-adv-x="763" 
d="M731 696v-19q-43 0 -67 -19t-24 -53v-605h-33l-443 572h-4v-482q0 -33 24 -52t67 -19v-19h-219v19q43 0 67 19t24 52v515q0 34 -24 53t-67 19v19h157l409 -531h4v440q0 34 -23.5 53t-66.5 19v19h219zM431 -136q0 -94 -87 -144q-5 -3 -9.5 -3.5t-6.5 1t-2 4.5q0 6 8 12
q21 15 37 41t16 51q0 10 -4.5 14t-18.5 4q-23 0 -38.5 17.5t-15.5 38.5q0 22 15 39t41 17q36 0 50.5 -28t14.5 -64z" />
    <glyph glyph-name="ncommaaccent" unicode="&#x146;" horiz-adv-x="564" 
d="M531 19v-19h-207v19q26 0 43.5 17.5t17.5 43.5v257q0 46 -24 75.5t-69 29.5q-42 0 -73 -34.5t-31 -75.5v-252q0 -26 17.5 -43.5t43.5 -17.5v-19h-207v19q26 0 43.5 17.5t17.5 43.5v319q0 26 -17.5 44t-43.5 18v18h146v-70h3q56 80 140 80q50 0 94.5 -35t44.5 -113v-261
q0 -26 17.5 -43.5t43.5 -17.5zM351 -136q0 -94 -87 -144q-5 -3 -9.5 -3.5t-6.5 1t-2 4.5q0 6 8 12q21 15 37 41t16 51q0 10 -4.5 14t-18.5 4q-23 0 -38.5 17.5t-15.5 38.5q0 22 15 39t41 17q36 0 50.5 -28t14.5 -64z" />
    <glyph glyph-name="Ncaron" unicode="&#x147;" horiz-adv-x="763" 
d="M731 696v-19q-43 0 -67 -19t-24 -53v-605h-33l-443 572h-4v-482q0 -33 24 -52t67 -19v-19h-219v19q43 0 67 19t24 52v515q0 34 -24 53t-67 19v19h157l409 -531h4v440q0 34 -23.5 53t-66.5 19v19h219zM509 854q-12 -13 -118 -122h-11l-118 122q-5 5 -0.5 11t11.5 2
q9 -6 111 -66h3l111 66q7 4 11.5 -2t-0.5 -11z" />
    <glyph glyph-name="ncaron" unicode="&#x148;" horiz-adv-x="564" 
d="M531 19v-19h-207v19q26 0 43.5 17.5t17.5 43.5v257q0 46 -24 75.5t-69 29.5q-42 0 -73 -34.5t-31 -75.5v-252q0 -26 17.5 -43.5t43.5 -17.5v-19h-207v19q26 0 43.5 17.5t17.5 43.5v319q0 26 -17.5 44t-43.5 18v18h146v-70h3q56 80 140 80q50 0 94.5 -35t44.5 -113v-261
q0 -26 17.5 -43.5t43.5 -17.5zM409 656q-12 -13 -118 -122h-11l-118 122q-5 5 -0.5 11t11.5 2q9 -6 111 -66h3l111 66q7 4 11.5 -2t-0.5 -11z" />
    <glyph glyph-name="Omacron" unicode="&#x14c;" horiz-adv-x="709" 
d="M355 -15q-143 0 -221 98.5t-78 264.5q0 90 35 172t105 136.5t159 54.5q142 0 220 -98.5t78 -264.5q0 -90 -35 -172t-104.5 -136.5t-158.5 -54.5zM355 673q-67 0 -112.5 -49.5t-64 -120t-18.5 -155.5t18.5 -155.5t64 -120t112.5 -49.5t112.5 49.5t64 120t18.5 155.5
t-18.5 155.5t-64 120t-112.5 49.5zM485 816v-66h-244v66h244z" />
    <glyph glyph-name="omacron" unicode="&#x14d;" horiz-adv-x="516" 
d="M375 240q0 211 -117 211t-117 -211q0 -212 117 -212t117 212zM464 240q0 -101 -53.5 -175t-152.5 -74q-103 0 -154.5 66t-51.5 183q0 46 12.5 89.5t37 79.5t65 58t91.5 22q103 0 154.5 -66.5t51.5 -182.5zM380 610v-66h-244v66h244z" />
    <glyph glyph-name="Obreve" unicode="&#x14e;" horiz-adv-x="709" 
d="M355 -15q-143 0 -221 98.5t-78 264.5q0 90 35 172t105 136.5t159 54.5q142 0 220 -98.5t78 -264.5q0 -90 -35 -172t-104.5 -136.5t-158.5 -54.5zM355 673q-67 0 -112.5 -49.5t-64 -120t-18.5 -155.5t18.5 -155.5t64 -120t112.5 -49.5t112.5 49.5t64 120t18.5 155.5
t-18.5 155.5t-64 120t-112.5 49.5zM448 869h35q0 -53 -34 -95t-91 -42t-91 42t-34 95h35q0 -28 25 -52.5t65 -24.5t65 24.5t25 52.5z" />
    <glyph glyph-name="obreve" unicode="&#x14f;" horiz-adv-x="516" 
d="M375 240q0 211 -117 211t-117 -211q0 -212 117 -212t117 212zM464 240q0 -101 -53.5 -175t-152.5 -74q-103 0 -154.5 66t-51.5 183q0 46 12.5 89.5t37 79.5t65 58t91.5 22q103 0 154.5 -66.5t51.5 -182.5zM348 671h35q0 -53 -34 -95t-91 -42t-91 42t-34 95h35
q0 -28 25 -52.5t65 -24.5t65 24.5t25 52.5z" />
    <glyph glyph-name="Ohungarumlaut" unicode="&#x150;" horiz-adv-x="709" 
d="M355 -15q-143 0 -221 98.5t-78 264.5q0 90 35 172t105 136.5t159 54.5q142 0 220 -98.5t78 -264.5q0 -90 -35 -172t-104.5 -136.5t-158.5 -54.5zM355 673q-67 0 -112.5 -49.5t-64 -120t-18.5 -155.5t18.5 -155.5t64 -120t112.5 -49.5t112.5 49.5t64 120t18.5 155.5
t-18.5 155.5t-64 120t-112.5 49.5zM437 838q0 -21 -20 -34l-112 -71h-32l93 115q18 22 39 22q13 0 22.5 -9t9.5 -23zM572 838q0 -21 -20 -34l-112 -71h-32l93 115q18 22 39 22q14 0 23 -9t9 -23z" />
    <glyph glyph-name="ohungarumlaut" unicode="&#x151;" horiz-adv-x="516" 
d="M375 240q0 211 -117 211t-117 -211q0 -212 117 -212t117 212zM464 240q0 -101 -53.5 -175t-152.5 -74q-103 0 -154.5 66t-51.5 183q0 46 12.5 89.5t37 79.5t65 58t91.5 22q103 0 154.5 -66.5t51.5 -182.5zM342 639q0 -21 -20 -34l-112 -71h-32l93 115q18 22 39 22
q14 0 23 -9.5t9 -22.5zM477 639q0 -21 -20 -34l-112 -71h-32l93 115q18 22 39 22q13 0 22.5 -9.5t9.5 -22.5z" />
    <glyph glyph-name="OE" unicode="&#x152;" horiz-adv-x="970" 
d="M550 348q0 85 -18.5 155.5t-64 120t-112.5 49.5t-112.5 -49.5t-64 -120t-18.5 -155.5t18.5 -155.5t64 -120t112.5 -49.5t112.5 49.5t64 120t18.5 155.5zM933 178v-178h-490q-41 -15 -88 -15q-143 0 -221 98.5t-78 264.5q0 90 35 172t105 136.5t159 54.5q54 0 99 -15h456
v-170h-18q-34 86 -61.5 109t-98.5 23h-204v-3q55 -38 87 -110t37 -160h43q35 0 62.5 25.5t27.5 68.5h18v-225h-18q0 43 -27.5 68.5t-62.5 25.5h-42q0 -87 -38 -174.5t-102 -132.5v-3h219q81 0 113.5 26t68.5 114h19z" />
    <glyph glyph-name="oe" unicode="&#x153;" horiz-adv-x="812" 
d="M375 240q0 211 -117 211t-117 -211q0 -212 117 -212t117 212zM469 311h208q0 141 -93 141q-41 0 -73 -37.5t-42 -103.5zM770 89q0 -3 -3 -8q-24 -37 -69.5 -63.5t-99.5 -26.5q-115 0 -178 88q-58 -88 -162 -88q-103 0 -154.5 66t-51.5 183q0 46 12.5 89.5t37 79.5t65 58
t91.5 22q114 0 168 -85q62 86 166 86q81 0 129 -56t48 -153h-304q0 -7 -0.5 -23t-0.5 -24q0 -82 39.5 -144t111.5 -62q33 0 62.5 12.5t42.5 22.5t31 28q4 4 8.5 5t7.5 -1t3 -6z" />
    <glyph glyph-name="Racute" unicode="&#x154;" horiz-adv-x="706" 
d="M458 490q0 78 -42.5 121t-116.5 43q-82 0 -82 -49v-262h82q70 0 114.5 36t44.5 111zM696 19v-19h-167l-78 104q-57 77 -146 201h-88v-215q0 -33 24 -52t67 -19v-19h-275v19q43 0 66.5 19t23.5 52v515q0 34 -23.5 53.5t-66.5 19.5v18h300q109 0 166.5 -51.5t57.5 -127.5
q0 -81 -47.5 -131.5t-110.5 -62.5v-3l143 -186q2 -3 14.5 -19t15.5 -20t14 -17t15.5 -17t15 -13.5t18 -12.5t18 -8t21 -6.5t22.5 -1.5zM425 838q0 -21 -20 -34l-112 -71h-32l93 115q18 22 39 22q13 0 22.5 -9t9.5 -23z" />
    <glyph glyph-name="racute" unicode="&#x155;" horiz-adv-x="410" 
d="M391 420q0 -25 -13 -41t-36 -16q-20 0 -31.5 11t-11.5 29q0 4 2.5 18t0 19.5t-14.5 5.5q-25 0 -52.5 -25t-46.5 -61v-280q0 -26 17.5 -43.5t43.5 -17.5v-19h-207v19q26 0 43.5 17.5t17.5 43.5v319q0 26 -17.5 44t-43.5 18v18h146v-80h3q17 31 49.5 60.5t74.5 29.5
q38 0 57 -19.5t19 -49.5zM366 639q0 -21 -20 -34l-112 -71h-32l93 115q18 22 39 22q14 0 23 -9.5t9 -22.5z" />
    <glyph glyph-name="Rcommaaccent" unicode="&#x156;" horiz-adv-x="706" 
d="M458 490q0 78 -42.5 121t-116.5 43q-82 0 -82 -49v-262h82q70 0 114.5 36t44.5 111zM696 19v-19h-167l-78 104q-57 77 -146 201h-88v-215q0 -33 24 -52t67 -19v-19h-275v19q43 0 66.5 19t23.5 52v515q0 34 -23.5 53.5t-66.5 19.5v18h300q109 0 166.5 -51.5t57.5 -127.5
q0 -81 -47.5 -131.5t-110.5 -62.5v-3l143 -186q2 -3 14.5 -19t15.5 -20t14 -17t15.5 -17t15 -13.5t18 -12.5t18 -8t21 -6.5t22.5 -1.5zM423 -136q0 -94 -87 -144q-5 -3 -9.5 -3.5t-6.5 1t-2 4.5q0 6 8 12q21 15 37 41t16 51q0 10 -4.5 14t-18.5 4q-23 0 -38.5 17.5
t-15.5 38.5q0 22 15 39t41 17q36 0 50.5 -28t14.5 -64z" />
    <glyph glyph-name="rcommaaccent" unicode="&#x157;" horiz-adv-x="410" 
d="M391 420q0 -25 -13 -41t-36 -16q-20 0 -31.5 11t-11.5 29q0 4 2.5 18t0 19.5t-14.5 5.5q-25 0 -52.5 -25t-46.5 -61v-280q0 -26 17.5 -43.5t43.5 -17.5v-19h-207v19q26 0 43.5 17.5t17.5 43.5v319q0 26 -17.5 44t-43.5 18v18h146v-80h3q17 31 49.5 60.5t74.5 29.5
q38 0 57 -19.5t19 -49.5zM207 -136q0 -94 -87 -144q-5 -3 -9.5 -3.5t-6.5 1t-2 4.5q0 6 8 12q21 15 37 41t16 51q0 10 -4.5 14t-18.5 4q-23 0 -38.5 17.5t-15.5 38.5q0 22 15 39t41 17q36 0 50.5 -28t14.5 -64z" />
    <glyph glyph-name="Rcaron" unicode="&#x158;" horiz-adv-x="706" 
d="M458 490q0 78 -42.5 121t-116.5 43q-82 0 -82 -49v-262h82q70 0 114.5 36t44.5 111zM696 19v-19h-167l-78 104q-57 77 -146 201h-88v-215q0 -33 24 -52t67 -19v-19h-275v19q43 0 66.5 19t23.5 52v515q0 34 -23.5 53.5t-66.5 19.5v18h300q109 0 166.5 -51.5t57.5 -127.5
q0 -81 -47.5 -131.5t-110.5 -62.5v-3l143 -186q2 -3 14.5 -19t15.5 -20t14 -17t15.5 -17t15 -13.5t18 -12.5t18 -8t21 -6.5t22.5 -1.5zM422 855q-12 -13 -118 -122h-11l-118 122q-5 5 -0.5 11t11.5 2q9 -6 111 -66h3l111 66q7 4 11.5 -2t-0.5 -11z" />
    <glyph glyph-name="rcaron" unicode="&#x159;" horiz-adv-x="410" 
d="M391 420q0 -25 -13 -41t-36 -16q-20 0 -31.5 11t-11.5 29q0 4 2.5 18t0 19.5t-14.5 5.5q-25 0 -52.5 -25t-46.5 -61v-280q0 -26 17.5 -43.5t43.5 -17.5v-19h-207v19q26 0 43.5 17.5t17.5 43.5v319q0 26 -17.5 44t-43.5 18v18h146v-80h3q17 31 49.5 60.5t74.5 29.5
q38 0 57 -19.5t19 -49.5zM348 656q-12 -13 -118 -122h-11l-118 122q-5 5 -0.5 11t11.5 2q9 -6 111 -66h3l111 66q7 4 11.5 -2t-0.5 -11z" />
    <glyph glyph-name="Sacute" unicode="&#x15a;" horiz-adv-x="552" 
d="M496 184q0 -87 -61 -143t-161 -56q-42 0 -84.5 14t-63.5 29l-21 14q-20 -12 -32 -42h-17v217h17q17 -35 26.5 -53t30.5 -50t39.5 -49t47 -31t60.5 -14q53 0 89.5 36.5t36.5 96.5q0 93 -80 135l-151 80q-57 31 -86.5 66.5t-29.5 95.5q0 78 59 129.5t140 51.5q21 0 39.5 -3
t41 -11.5t29 -11.5t31.5 -15q21 11 34 41h18v-222h-18q-40 98 -59 125q-42 58 -112 59q-55 0 -87 -32.5t-32 -76.5q0 -34 15 -60.5t58 -49.5l168 -89q115 -60 115 -181zM383 837q0 -21 -20 -34l-112 -71h-32l93 115q18 22 39 22q13 0 22.5 -9.5t9.5 -22.5z" />
    <glyph glyph-name="sacute" unicode="&#x15b;" horiz-adv-x="436" 
d="M344 479h19v-141h-27q-23 58 -58 90.5t-74 32.5q-36 0 -58.5 -22t-22.5 -53q0 -53 54 -73l103 -38q49 -17 81 -52.5t32 -86.5q0 -61 -44 -103t-123 -42q-36 0 -72 12t-57 28l-23 -31h-22v176h24q58 -157 153 -157q41 0 65.5 25.5t24.5 63.5q0 62 -74 90q-64 23 -108 40
q-85 32 -85 117q0 56 42.5 95t109.5 39q60 0 108 -30q17 3 32 20zM355 639q0 -21 -20 -34l-112 -71h-32l93 115q18 22 39 22q13 0 22.5 -9.5t9.5 -22.5z" />
    <glyph glyph-name="Scircumflex" unicode="&#x15c;" horiz-adv-x="552" 
d="M496 184q0 -87 -61 -143t-161 -56q-42 0 -84.5 14t-63.5 29l-21 14q-20 -12 -32 -42h-17v217h17q17 -35 26.5 -53t30.5 -50t39.5 -49t47 -31t60.5 -14q53 0 89.5 36.5t36.5 96.5q0 93 -80 135l-151 80q-57 31 -86.5 66.5t-29.5 95.5q0 78 59 129.5t140 51.5q21 0 39.5 -3
t41 -11.5t29 -11.5t31.5 -15q21 11 34 41h18v-222h-18q-40 98 -59 125q-42 58 -112 59q-55 0 -87 -32.5t-32 -76.5q0 -34 15 -60.5t58 -49.5l168 -89q115 -60 115 -181zM376 752q5 -5 0.5 -11t-11.5 -2q-9 6 -111 66h-3l-111 -66q-7 -4 -11.5 2t0.5 11q12 13 118 122h11z
" />
    <glyph glyph-name="scircumflex" unicode="&#x15d;" horiz-adv-x="436" 
d="M344 479h19v-141h-27q-23 58 -58 90.5t-74 32.5q-36 0 -58.5 -22t-22.5 -53q0 -53 54 -73l103 -38q49 -17 81 -52.5t32 -86.5q0 -61 -44 -103t-123 -42q-36 0 -72 12t-57 28l-23 -31h-22v176h24q58 -157 153 -157q41 0 65.5 25.5t24.5 63.5q0 62 -74 90q-64 23 -108 40
q-85 32 -85 117q0 56 42.5 95t109.5 39q60 0 108 -30q17 3 32 20zM333 548q5 -5 0.5 -11t-11.5 -2q-9 6 -111 66h-3l-111 -66q-7 -4 -11.5 2t0.5 11q12 13 118 122h11z" />
    <glyph glyph-name="Scedilla" unicode="&#x15e;" horiz-adv-x="552" 
d="M401 -127q0 -38 -29 -63.5t-77 -25.5q-49 0 -89 20q-16 8 -13 15.5t22 3.5q51 -9 59 -9q30 0 46 16.5t16 39.5q0 47 -68 47h-20v70q-36 4 -72 17.5t-54 25.5l-17 12q-20 -12 -32 -42h-17v217h17q17 -35 26.5 -53t30.5 -50t39.5 -49t47 -31t60.5 -14q53 0 89.5 36.5
t36.5 96.5q0 93 -80 135l-151 80q-57 31 -86.5 66.5t-29.5 95.5q0 78 59 129.5t140 51.5q21 0 39.5 -3t41 -11.5t29 -11.5t31.5 -15q21 11 34 41h18v-222h-18q-40 98 -59 125q-42 58 -112 59q-55 0 -87 -32.5t-32 -76.5q0 -34 15 -60.5t58 -49.5l168 -89q115 -60 115 -181
q0 -84 -57 -139.5t-153 -59.5v-32h11q50 0 77 -22t27 -58z" />
    <glyph glyph-name="scedilla" unicode="&#x15f;" horiz-adv-x="436" 
d="M353 -127q0 -38 -29 -63.5t-77 -25.5q-49 0 -89 20q-16 8 -13 15.5t22 3.5q51 -9 59 -9q30 0 46 16.5t16 39.5q0 47 -68 47h-20v76q-65 9 -103 38l-23 -31h-22v176h24q58 -157 153 -157q41 0 65.5 25.5t24.5 63.5q0 62 -74 90q-64 23 -108 40q-85 32 -85 117
q0 56 42.5 95t109.5 39q60 0 108 -30q17 3 32 20h19v-141h-27q-23 58 -58 90.5t-74 32.5q-36 0 -58.5 -22t-22.5 -53q0 -53 54 -73l103 -38q49 -17 81 -52.5t32 -86.5q0 -59 -40.5 -100t-114.5 -45v-38h11q50 0 77 -22t27 -58z" />
    <glyph glyph-name="Scaron" unicode="&#x160;" horiz-adv-x="552" 
d="M496 184q0 -87 -61 -143t-161 -56q-42 0 -84.5 14t-63.5 29l-21 14q-20 -12 -32 -42h-17v217h17q17 -35 26.5 -53t30.5 -50t39.5 -49t47 -31t60.5 -14q53 0 89.5 36.5t36.5 96.5q0 93 -80 135l-151 80q-57 31 -86.5 66.5t-29.5 95.5q0 78 59 129.5t140 51.5q21 0 39.5 -3
t41 -11.5t29 -11.5t31.5 -15q21 11 34 41h18v-222h-18q-40 98 -59 125q-42 58 -112 59q-55 0 -87 -32.5t-32 -76.5q0 -34 15 -60.5t58 -49.5l168 -89q115 -60 115 -181zM379 855q-12 -13 -118 -122h-11l-118 122q-5 5 -0.5 11t11.5 2q9 -6 111 -66h3l111 66q7 4 11.5 -2
t-0.5 -11z" />
    <glyph glyph-name="scaron" unicode="&#x161;" horiz-adv-x="436" 
d="M393 136q0 -61 -44 -103t-123 -42q-36 0 -72 12t-57 28l-23 -31h-22v176h24q58 -157 153 -157q41 0 65.5 25.5t24.5 63.5q0 62 -74 90q-64 23 -108 40q-85 32 -85 117q0 56 42.5 95t109.5 39q60 0 108 -30q17 3 32 20h19v-141h-27q-23 58 -58 90.5t-74 32.5
q-36 0 -58.5 -22t-22.5 -53q0 -53 54 -73l103 -38q49 -18 81 -53t32 -86zM327 656q-12 -13 -118 -122h-11l-118 122q-5 5 -0.5 11t11.5 2q9 -6 111 -66h3l111 66q7 4 11.5 -2t-0.5 -11z" />
    <glyph glyph-name="Tcommaaccent" unicode="&#x162;" horiz-adv-x="549" 
d="M540 696v-170h-20q-29 80 -53 106.5t-83 26.5h-5q-57 0 -57 -64v-505q0 -33 24 -52t67 -19v-19h-275v19q43 0 66 19t23 52v505q0 64 -55 64h-8q-58 0 -81.5 -26t-53.5 -107h-20v170h531zM336 -136q0 -94 -87 -144q-5 -3 -9.5 -3.5t-6.5 1t-2 4.5q0 6 8 12q21 15 37 41
t16 51q0 10 -4.5 14t-18.5 4q-23 0 -38.5 17.5t-15.5 38.5q0 22 15 39t41 17q36 0 50.5 -28t14.5 -64z" />
    <glyph glyph-name="Tcommaaccent" unicode="&#x21a;" horiz-adv-x="549" 
d="M540 696v-170h-20q-29 80 -53 106.5t-83 26.5h-5q-57 0 -57 -64v-505q0 -33 24 -52t67 -19v-19h-275v19q43 0 66 19t23 52v505q0 64 -55 64h-8q-58 0 -81.5 -26t-53.5 -107h-20v170h531zM336 -136q0 -94 -87 -144q-5 -3 -9.5 -3.5t-6.5 1t-2 4.5q0 6 8 12q21 15 37 41
t16 51q0 10 -4.5 14t-18.5 4q-23 0 -38.5 17.5t-15.5 38.5q0 22 15 39t41 17q36 0 50.5 -28t14.5 -64z" />
    <glyph glyph-name="tcommaaccent" unicode="&#x163;" horiz-adv-x="321" 
d="M312 72q0 -1 -2 -7q-5 -12 -13 -25t-34 -31t-60 -18q-55 0 -82 30t-27 100v328h-75v21q90 32 136 155h24v-146h94v-30h-94v-356q0 -66 50 -66q32 0 65 48q4 5 8 6.5t7 -1.5t3 -8zM256 -136q0 -94 -87 -144q-5 -3 -9.5 -3.5t-6.5 1t-2 4.5q0 6 8 12q21 15 37 41t16 51
q0 10 -4.5 14t-18.5 4q-23 0 -38.5 17.5t-15.5 38.5q0 22 15 39t41 17q36 0 50.5 -28t14.5 -64z" />
    <glyph glyph-name="tcommaaccent" unicode="&#x21b;" horiz-adv-x="321" 
d="M312 72q0 -1 -2 -7q-5 -12 -13 -25t-34 -31t-60 -18q-55 0 -82 30t-27 100v328h-75v21q90 32 136 155h24v-146h94v-30h-94v-356q0 -66 50 -66q32 0 65 48q4 5 8 6.5t7 -1.5t3 -8zM256 -136q0 -94 -87 -144q-5 -3 -9.5 -3.5t-6.5 1t-2 4.5q0 6 8 12q21 15 37 41t16 51
q0 10 -4.5 14t-18.5 4q-23 0 -38.5 17.5t-15.5 38.5q0 22 15 39t41 17q36 0 50.5 -28t14.5 -64z" />
    <glyph glyph-name="Tcaron" unicode="&#x164;" horiz-adv-x="549" 
d="M540 696v-170h-20q-29 80 -53 106.5t-83 26.5h-5q-57 0 -57 -64v-505q0 -33 24 -52t67 -19v-19h-275v19q43 0 66 19t23 52v505q0 64 -55 64h-8q-58 0 -81.5 -26t-53.5 -107h-20v170h531zM403 855q-12 -13 -118 -122h-11l-118 122q-5 5 -0.5 11t11.5 2q9 -6 111 -66h3
l111 66q7 4 11.5 -2t-0.5 -11z" />
    <glyph glyph-name="tcaron" unicode="&#x165;" horiz-adv-x="321" 
d="M349 682q0 -96 -87 -146q-11 -7 -15.5 -1t5.5 15q53 44 53 87q0 13 -5.5 18t-17.5 5q-25 0 -39.5 16t-14.5 38t16 40t40 18q33 0 49 -27t16 -63zM312 72q0 -1 -2 -7q-5 -12 -13 -25t-34 -31t-60 -18q-55 0 -82 30t-27 100v328h-75v21q90 32 136 155h24v-146h94v-30h-94
v-356q0 -66 50 -66q32 0 65 48q4 5 8 6.5t7 -1.5t3 -8z" />
    <glyph glyph-name="Utilde" unicode="&#x168;" horiz-adv-x="707" 
d="M684 696v-18q-42 0 -66 -19.5t-24 -53.5v-363q0 -133 -65 -195t-176 -62t-175.5 63.5t-64.5 204.5v352q0 34 -24 53.5t-66 19.5v18h274v-18q-43 0 -66.5 -19.5t-23.5 -53.5v-378q0 -102 48 -153t126 -51q79 0 127 53.5t48 165.5v363q0 34 -24 53.5t-67 19.5v18h219z
M486 827h31q-14 -85 -79 -85q-16 0 -68.5 12.5t-70.5 12.5q-29 0 -43 -29h-30q14 85 79 85q16 0 68 -12.5t70 -12.5q30 0 43 29z" />
    <glyph glyph-name="utilde" unicode="&#x169;" 
d="M522 19v-19h-123q-16 20 -23 60h-3q-20 -28 -59 -48.5t-82 -20.5q-55 0 -96.5 34t-41.5 113v261q0 26 -17.5 44t-43.5 18v18h146v-1v-335q0 -57 28 -81t64 -24q43 0 74 32t31 73v256q0 26 -17.5 44t-43.5 18v18h146v-399q0 -26 17.5 -43.5t43.5 -17.5zM396 624h31
q-14 -85 -79 -85q-16 0 -68.5 12.5t-70.5 12.5q-29 0 -43 -29h-30q14 85 79 85q16 0 68 -12.5t70 -12.5q30 0 43 29z" />
    <glyph glyph-name="Umacron" unicode="&#x16a;" horiz-adv-x="707" 
d="M684 696v-18q-42 0 -66 -19.5t-24 -53.5v-363q0 -133 -65 -195t-176 -62t-175.5 63.5t-64.5 204.5v352q0 34 -24 53.5t-66 19.5v18h274v-18q-43 0 -66.5 -19.5t-23.5 -53.5v-378q0 -102 48 -153t126 -51q79 0 127 53.5t48 165.5v363q0 34 -24 53.5t-67 19.5v18h219z
M482 816v-66h-244v66h244z" />
    <glyph glyph-name="umacron" unicode="&#x16b;" 
d="M522 19v-19h-123q-16 20 -23 60h-3q-20 -28 -59 -48.5t-82 -20.5q-55 0 -96.5 34t-41.5 113v261q0 26 -17.5 44t-43.5 18v18h146v-1v-335q0 -57 28 -81t64 -24q43 0 74 32t31 73v256q0 26 -17.5 44t-43.5 18v18h146v-399q0 -26 17.5 -43.5t43.5 -17.5zM404 610v-66h-244
v66h244z" />
    <glyph glyph-name="Ubreve" unicode="&#x16c;" horiz-adv-x="707" 
d="M684 696v-18q-42 0 -66 -19.5t-24 -53.5v-363q0 -133 -65 -195t-176 -62t-175.5 63.5t-64.5 204.5v352q0 34 -24 53.5t-66 19.5v18h274v-18q-43 0 -66.5 -19.5t-23.5 -53.5v-378q0 -102 48 -153t126 -51q79 0 127 53.5t48 165.5v363q0 34 -24 53.5t-67 19.5v18h219z
M463 870h35q0 -53 -34 -95t-91 -42t-91 42t-34 95h35q0 -28 25 -52.5t65 -24.5t65 24.5t25 52.5z" />
    <glyph glyph-name="ubreve" unicode="&#x16d;" 
d="M522 19v-19h-123q-16 20 -23 60h-3q-20 -28 -59 -48.5t-82 -20.5q-55 0 -96.5 34t-41.5 113v261q0 26 -17.5 44t-43.5 18v18h146v-1v-335q0 -57 28 -81t64 -24q43 0 74 32t31 73v256q0 26 -17.5 44t-43.5 18v18h146v-399q0 -26 17.5 -43.5t43.5 -17.5zM359 671h35
q0 -53 -34 -95t-91 -42t-91 42t-34 95h35q0 -28 25 -52.5t65 -24.5t65 24.5t25 52.5z" />
    <glyph glyph-name="Uring" unicode="&#x16e;" horiz-adv-x="707" 
d="M684 696v-18q-42 0 -66 -19.5t-24 -53.5v-363q0 -133 -65 -195t-176 -62t-175.5 63.5t-64.5 204.5v352q0 34 -24 53.5t-66 19.5v18h274v-18q-43 0 -66.5 -19.5t-23.5 -53.5v-378q0 -102 48 -153t126 -51q79 0 127 53.5t48 165.5v363q0 34 -24 53.5t-67 19.5v18h219z
M425 835q0 23 -16.5 40t-39.5 17t-39.5 -17t-16.5 -40t16.5 -39.5t39.5 -16.5t39.5 16.5t16.5 39.5zM472 835q0 -43 -30 -73t-73 -30t-73 30t-30 73t30 73.5t73 30.5t73 -30.5t30 -73.5z" />
    <glyph glyph-name="uring" unicode="&#x16f;" 
d="M522 19v-19h-123q-16 20 -23 60h-3q-20 -28 -59 -48.5t-82 -20.5q-55 0 -96.5 34t-41.5 113v261q0 26 -17.5 44t-43.5 18v18h146v-1v-335q0 -57 28 -81t64 -24q43 0 74 32t31 73v256q0 26 -17.5 44t-43.5 18v18h146v-399q0 -26 17.5 -43.5t43.5 -17.5zM338 637
q0 23 -16.5 40t-39.5 17t-39.5 -17t-16.5 -40t16.5 -39.5t39.5 -16.5t39.5 16.5t16.5 39.5zM385 637q0 -43 -30 -73t-73 -30t-73 30t-30 73t30 73.5t73 30.5t73 -30.5t30 -73.5z" />
    <glyph glyph-name="Uhungarumlaut" unicode="&#x170;" horiz-adv-x="707" 
d="M684 696v-18q-42 0 -66 -19.5t-24 -53.5v-363q0 -133 -65 -195t-176 -62t-175.5 63.5t-64.5 204.5v352q0 34 -24 53.5t-66 19.5v18h274v-18q-43 0 -66.5 -19.5t-23.5 -53.5v-378q0 -102 48 -153t126 -51q79 0 127 53.5t48 165.5v363q0 34 -24 53.5t-67 19.5v18h219z
M437 838q0 -21 -20 -34l-112 -71h-32l93 115q18 22 39 22q13 0 22.5 -9t9.5 -23zM572 838q0 -21 -20 -34l-112 -71h-32l93 115q18 22 39 22q14 0 23 -9t9 -23z" />
    <glyph glyph-name="uhungarumlaut" unicode="&#x171;" 
d="M522 19v-19h-123q-16 20 -23 60h-3q-20 -28 -59 -48.5t-82 -20.5q-55 0 -96.5 34t-41.5 113v261q0 26 -17.5 44t-43.5 18v18h146v-1v-335q0 -57 28 -81t64 -24q43 0 74 32t31 73v256q0 26 -17.5 44t-43.5 18v18h146v-399q0 -26 17.5 -43.5t43.5 -17.5zM338 639
q0 -21 -20 -34l-112 -71h-32l93 115q18 22 39 22q14 0 23 -9.5t9 -22.5zM473 639q0 -21 -20 -34l-112 -71h-32l93 115q18 22 39 22q13 0 22.5 -9.5t9.5 -22.5z" />
    <glyph glyph-name="Uogonek" unicode="&#x172;" horiz-adv-x="707" 
d="M482 -182q0 -8 -12 -15q-35 -19 -80 -19q-54 0 -84.5 23t-30.5 64q0 62 66 114q-228 7 -228 268v352q0 34 -24 53.5t-66 19.5v18h274v-18q-43 0 -66.5 -19.5t-23.5 -53.5v-378q0 -102 48 -153t126 -51q79 0 127 53.5t48 165.5v363q0 34 -24 53.5t-67 19.5v18h219v-18
q-42 0 -66 -19.5t-24 -53.5v-363q0 -117 -50.5 -178.5t-138.5 -74.5q-65 -57 -65 -112q0 -28 16 -45.5t46 -17.5q22 0 60 9q20 6 20 -5z" />
    <glyph glyph-name="uogonek" unicode="&#x173;" 
d="M355 -182q0 -8 -12 -15q-35 -19 -80 -19q-54 0 -84.5 23t-30.5 64q0 66 74 120q-52 3 -90 37.5t-38 109.5v261q0 26 -17.5 44t-43.5 18v18h146v-336q0 -57 28 -81t64 -24q43 0 74 32t31 73v256q0 26 -17.5 44t-43.5 18v18h146v-399q0 -26 17.5 -43.5t43.5 -17.5v-19h-123
q-16 20 -23 60h-3q-16 -24 -76 -64q-84 -57 -84 -119q0 -28 16 -45.5t46 -17.5q22 0 60 9q20 6 20 -5z" />
    <glyph glyph-name="Wcircumflex" unicode="&#x174;" horiz-adv-x="1015" 
d="M1006 696v-19q-40 0 -61.5 -16.5t-33.5 -55.5q-134 -426 -195 -605h-33q-16 57 -58.5 182.5t-76.5 222.5l-34 97h-3q-135 -383 -167 -502h-35l-204 605q-24 73 -96 73v18h243v-18q-74 0 -50 -73q113 -347 151 -443h3l171 510q4 11 13.5 11t13.5 -11q146 -442 174 -511h2
l135 431q15 47 7 66.5t-44 19.5v18h178zM668 751q5 -5 0.5 -11t-11.5 -2q-9 6 -111 66h-3l-111 -66q-7 -4 -11.5 2t0.5 11q12 13 118 122h11z" />
    <glyph glyph-name="wcircumflex" unicode="&#x175;" horiz-adv-x="705" 
d="M696 479v-18q-23 0 -41 -18t-25.5 -36t-17.5 -50l-114 -357h-37l-112 302h-3q-11 -30 -95 -302h-38l-118 360l-7 21l-6.5 19.5t-6 16t-7 14t-7.5 10t-9.5 9.5t-11 5.5t-14 4.5t-17.5 1v18h193v-18q-16 0 -25.5 -4t-13 -9.5t-2.5 -16t3.5 -18t8 -21.5t7.5 -20l74 -236h3
l102 327q3 9 8.5 11t11.5 -11l121 -327h3l71 239q4 14 5.5 19t4.5 18t1 19.5t-6 14.5t-14 11.5t-25 3.5v18h156zM497 548q5 -5 0.5 -11t-11.5 -2q-9 6 -111 66h-3l-111 -66q-7 -4 -11.5 2t0.5 11q12 13 118 122h11z" />
    <glyph glyph-name="Ycircumflex" unicode="&#x176;" horiz-adv-x="669" 
d="M660 696v-18q-38 0 -57.5 -20t-47.5 -72l-165 -303v-193q0 -33 23.5 -52t66.5 -19v-19h-274v19q43 0 66.5 19t23.5 52v171l-175 325q-28 52 -50.5 72t-61.5 20v18h268v-18q-48 0 -61.5 -18.5t11.5 -72.5l139 -263h2l130 262q47 92 -47 92v18h209zM499 751q5 -5 0.5 -11
t-11.5 -2q-9 6 -111 66h-3l-111 -66q-7 -4 -11.5 2t0.5 11q12 13 118 122h11z" />
    <glyph glyph-name="ycircumflex" unicode="&#x177;" 
d="M545 479v-18q-31 0 -50 -24t-35 -69l-149 -397q-48 -129 -71 -162q-30 -44 -75 -44q-33 0 -51.5 21t-18.5 49q0 23 14.5 37.5t32.5 14.5q16 0 26 -10t9 -28q-2 -27 19 -27q23 0 43 57l40 113l-162 373q-23 53 -45 74.5t-63 21.5v18h228v-18q-24 0 -35.5 -8t-11.5 -23.5
t3.5 -28t11.5 -30.5l112 -268h3l87 266q5 16 7.5 23t5 23t-1 24t-13 15t-27.5 7v18h167zM447 548q5 -5 0.5 -11t-11.5 -2q-9 6 -111 66h-3l-111 -66q-7 -4 -11.5 2t0.5 11q12 13 118 122h11z" />
    <glyph glyph-name="Ydieresis" unicode="&#x178;" horiz-adv-x="669" 
d="M660 696v-18q-38 0 -57.5 -20t-47.5 -72l-165 -303v-193q0 -33 23.5 -52t66.5 -19v-19h-274v19q43 0 66.5 19t23.5 52v171l-175 325q-28 52 -50.5 72t-61.5 20v18h268v-18q-48 0 -61.5 -18.5t11.5 -72.5l139 -263h2l130 262q47 92 -47 92v18h209zM329 789
q0 -23 -16.5 -39.5t-39.5 -16.5t-39.5 16.5t-16.5 39.5t16.5 40t39.5 17t39.5 -17t16.5 -40zM517 789q0 -23 -16.5 -39.5t-39.5 -16.5t-39.5 16.5t-16.5 39.5t16.5 40t39.5 17t39.5 -17t16.5 -40z" />
    <glyph glyph-name="Zacute" unicode="&#x179;" horiz-adv-x="537" 
d="M497 178v-178h-464v19l349 636v3h-151q-37 0 -59.5 -6t-40.5 -25.5t-28 -38.5t-28 -62h-19v170h441v-18l-348 -638v-2h148q44 0 71 6t47 25.5t32 41t31 67.5h19zM415 838q0 -21 -20 -34l-112 -71h-32l93 115q18 22 39 22q13 0 22.5 -9t9.5 -23z" />
    <glyph glyph-name="zacute" unicode="&#x17a;" horiz-adv-x="490" 
d="M424 150v-150h-377v19l268 421v3h-56q-93 0 -125.5 -18.5t-48.5 -95.5h-19v150h358v-18l-266 -422v-2h85q59 0 88 10.5t42 30.5t32 72h19zM386 639q0 -21 -20 -34l-112 -71h-32l93 115q18 22 39 22q14 0 23 -9.5t9 -22.5z" />
    <glyph glyph-name="Zdotaccent" unicode="&#x17b;" horiz-adv-x="537" 
d="M497 178v-178h-464v19l349 636v3h-151q-37 0 -59.5 -6t-40.5 -25.5t-28 -38.5t-28 -62h-19v170h441v-18l-348 -638v-2h148q44 0 71 6t47 25.5t32 41t31 67.5h19zM338 806q0 -23 -16.5 -39.5t-39.5 -16.5t-39.5 16.5t-16.5 39.5t16.5 40t39.5 17t39.5 -17t16.5 -40z" />
    <glyph glyph-name="zdotaccent" unicode="&#x17c;" horiz-adv-x="490" 
d="M424 150v-150h-377v19l268 421v3h-56q-93 0 -125.5 -18.5t-48.5 -95.5h-19v150h358v-18l-266 -422v-2h85q59 0 88 10.5t42 30.5t32 72h19zM301 590q0 -23 -16.5 -39.5t-39.5 -16.5t-39.5 16.5t-16.5 39.5t16.5 40t39.5 17t39.5 -17t16.5 -40z" />
    <glyph glyph-name="Zcaron" unicode="&#x17d;" horiz-adv-x="537" 
d="M497 178v-178h-464v19l349 636v3h-151q-37 0 -59.5 -6t-40.5 -25.5t-28 -38.5t-28 -62h-19v170h441v-18l-348 -638v-2h148q44 0 71 6t47 25.5t32 41t31 67.5h19zM412 854q-12 -13 -118 -122h-11l-118 122q-5 5 -0.5 11t11.5 2q9 -6 111 -66h3l111 66q7 4 11.5 -2
t-0.5 -11z" />
    <glyph glyph-name="zcaron" unicode="&#x17e;" horiz-adv-x="490" 
d="M424 150v-150h-377v19l268 421v3h-56q-93 0 -125.5 -18.5t-48.5 -95.5h-19v150h358v-18l-266 -422v-2h85q59 0 88 10.5t42 30.5t32 72h19zM369 656q-12 -13 -118 -122h-11l-118 122q-5 5 -0.5 11t11.5 2q9 -6 111 -66h3l111 66q7 4 11.5 -2t-0.5 -11z" />
    <glyph glyph-name="florin" unicode="&#x192;" horiz-adv-x="320" 
d="M365 653q0 -22 -10.5 -35.5t-29.5 -13.5q-15 0 -24.5 10t-9.5 25q0 4 1.5 11.5t1.5 12.5q0 23 -26 23q-21 0 -41 -24.5t-30 -70.5l-26 -130h96l-7 -38h-96l-83 -420q-47 -238 -188 -238q-43 0 -68 20t-25 48q0 25 15 39.5t33 14.5q14 0 24.5 -9t10.5 -25q0 -4 -1.5 -11
t-1.5 -12q0 -27 25 -27q53 0 87 170q5 25 14.5 74t13.5 67q51 253 62 309h-75l6 38h77l16 78q18 83 62 134t110 51q39 0 63 -20.5t24 -50.5z" />
    <glyph glyph-name="AEacute" unicode="&#x1fc;" horiz-adv-x="985" 
d="M329 282h203v269h-3zM948 178v-178h-506v19q43 0 66.5 19t23.5 52v154h-231l-98 -127q-75 -98 25 -98v-19h-218v19q72 0 149 101l373 489q-2 32 -25.5 50t-64.5 18v19h483v-170h-18q-34 86 -61.5 109t-98.5 23h-37.5t-29 -1.5t-24.5 -4.5t-15 -9t-11.5 -15.5t-2.5 -22.5
v-220h83q35 0 62.5 25.5t27.5 68.5h18v-225h-18q0 43 -27.5 68.5t-62.5 25.5h-83v-258q0 -16 5 -25.5t10.5 -15t22.5 -8t29 -3t41 -0.5h12q81 0 113.5 26t68.5 114h19zM844 855q0 -21 -20 -34l-112 -71h-32l93 115q18 22 39 22q14 0 23 -9.5t9 -22.5z" />
    <glyph glyph-name="aeacute" unicode="&#x1fd;" horiz-adv-x="761" 
d="M329 144v130q-100 -15 -149 -56.5t-49 -100.5q0 -38 21.5 -59t52.5 -21q43 0 83.5 37t40.5 70zM418 311h208q0 141 -93 141q-41 0 -73 -37.5t-42 -103.5zM719 89q0 -3 -3 -8q-24 -37 -69.5 -63.5t-99.5 -26.5q-66 0 -116 30t-78 85h-3q-29 -47 -78 -81t-102 -34
q-52 0 -90 32t-38 91q0 46 23.5 79.5t67.5 54.5t89.5 33.5t106.5 21.5v55q0 48 -28 71.5t-71 23.5q-83 0 -83 -39q0 -7 1.5 -11.5t4 -10.5t3.5 -12q5 -24 -7.5 -41.5t-36.5 -17.5q-22 0 -34.5 16.5t-12.5 36.5q0 51 52.5 83t114.5 32q50 0 94 -15.5t63 -48.5h3q60 65 149 65
q81 0 129 -56t48 -153h-304q0 -7 -0.5 -23t-0.5 -24q0 -82 39.5 -144t111.5 -62q33 0 62.5 12.5t42.5 22.5t31 28q4 4 8.5 5t7.5 -1t3 -6zM548 639q0 -21 -20 -34l-112 -71h-32l93 115q18 22 39 22q14 0 23 -9.5t9 -22.5z" />
    <glyph glyph-name="Oslashacute" unicode="&#x1fe;" horiz-adv-x="709" 
d="M550 348q0 99 -26 176h-3l-320 -391q52 -110 154 -110q67 0 112.5 49.5t64 120t18.5 155.5zM188 172l321 390q-50 111 -154 111q-67 0 -112.5 -49.5t-64 -120t-18.5 -155.5q0 -97 25 -176h3zM621 696h46l-81 -98q67 -96 67 -250q0 -90 -35 -172t-104.5 -136.5
t-158.5 -54.5q-130 0 -207 83l-57 -68h-49l81 98q-67 96 -67 250q0 90 35 172t105 136.5t159 54.5q129 0 208 -85zM497 839q0 -21 -20 -34l-112 -71h-32l93 115q18 22 39 22q13 0 22.5 -9.5t9.5 -22.5z" />
    <glyph glyph-name="oslashacute" unicode="&#x1ff;" horiz-adv-x="516" 
d="M375 240q0 59 -10 103h-3l-199 -247q30 -68 95 -68q117 0 117 212zM154 136l198 248q-28 67 -94 67q-117 0 -117 -211q0 -58 10 -104h3zM430 479h46l-55 -68q43 -64 43 -171q0 -101 -53.5 -175t-152.5 -74q-87 0 -140 50l-33 -41h-45l55 68q-43 64 -43 172
q0 46 12.5 89.5t37 79.5t65 58t91.5 22q87 0 139 -50zM413 639q0 -21 -20 -34l-112 -71h-32l93 115q18 22 39 22q13 0 22.5 -9.5t9.5 -22.5z" />
    <glyph glyph-name="Adblgrave" unicode="&#x200;" horiz-adv-x="713" 
d="M229 282h212l-103 265h-9zM703 19v-19h-236v19q40 0 49 28.5t-8 62.5l-52 134h-241l-48 -127q-9 -24 -11.5 -39.5t1 -30t20 -21.5t46.5 -7v-19h-213v19q80 0 118 101l221 583h30l231 -593q12 -30 20 -46t27 -30.5t46 -14.5zM221 847l93 -115h-32l-112 71q-20 13 -20 34
q0 13 9 22.5t23 9.5q21 0 39 -22zM356 847l93 -115h-32l-112 71q-20 13 -20 34q0 13 9.5 22.5t22.5 9.5q21 0 39 -22z" />
    <glyph glyph-name="adblgrave" unicode="&#x201;" horiz-adv-x="506" 
d="M329 141v126q-198 -30 -198 -150q0 -38 21.5 -59t52.5 -21q43 0 83.5 35.5t40.5 68.5zM483 54q0 -5 -2 -8q-6 -9 -16.5 -20t-33.5 -23.5t-47 -12.5q-50 0 -55 81h-4q-27 -25 -45 -39.5t-48 -27.5t-62 -13q-52 0 -90 32t-38 91q0 37 17 65.5t42 47t66 32.5t76.5 21.5
t85.5 15.5v62q0 48 -28 71.5t-71 23.5q-83 0 -83 -39q0 -7 1.5 -11.5t4 -10.5t3.5 -12q5 -24 -7.5 -41.5t-36.5 -17.5q-22 0 -34.5 16.5t-12.5 36.5q0 51 52.5 83t114.5 32q76 0 128.5 -33.5t52.5 -100.5v-267q0 -48 25 -48q18 0 33 17q4 5 8 3.5t4 -6.5zM123 649l93 -115
h-32l-112 71q-20 13 -20 34q0 13 9 22.5t23 9.5q21 0 39 -22zM258 649l93 -115h-32l-112 71q-20 13 -20 34q0 13 9.5 22.5t22.5 9.5q21 0 39 -22z" />
    <glyph glyph-name="Ainvertedbreve" unicode="&#x202;" horiz-adv-x="713" 
d="M229 282h212l-103 265h-9zM703 19v-19h-236v19q40 0 49 28.5t-8 62.5l-52 134h-241l-48 -127q-9 -24 -11.5 -39.5t1 -30t20 -21.5t46.5 -7v-19h-213v19q80 0 118 101l221 583h30l231 -593q12 -30 20 -46t27 -30.5t46 -14.5zM490 733h-35q0 28 -25 52.5t-65 24.5
t-65 -24.5t-25 -52.5h-35q0 53 34 95t91 42t91 -42t34 -95z" />
    <glyph glyph-name="ainvertedbreve" unicode="&#x203;" horiz-adv-x="506" 
d="M329 141v126q-198 -30 -198 -150q0 -38 21.5 -59t52.5 -21q43 0 83.5 35.5t40.5 68.5zM483 54q0 -5 -2 -8q-6 -9 -16.5 -20t-33.5 -23.5t-47 -12.5q-50 0 -55 81h-4q-27 -25 -45 -39.5t-48 -27.5t-62 -13q-52 0 -90 32t-38 91q0 37 17 65.5t42 47t66 32.5t76.5 21.5
t85.5 15.5v62q0 48 -28 71.5t-71 23.5q-83 0 -83 -39q0 -7 1.5 -11.5t4 -10.5t3.5 -12q5 -24 -7.5 -41.5t-36.5 -17.5q-22 0 -34.5 16.5t-12.5 36.5q0 51 52.5 83t114.5 32q76 0 128.5 -33.5t52.5 -100.5v-267q0 -48 25 -48q18 0 33 17q4 5 8 3.5t4 -6.5zM360 534h-35
q0 28 -25 52.5t-65 24.5t-65 -24.5t-25 -52.5h-35q0 53 34 95t91 42t91 -42t34 -95z" />
    <glyph glyph-name="Edblgrave" unicode="&#x204;" horiz-adv-x="576" 
d="M539 178v-178h-506v19q43 0 66.5 19t23.5 52v515q0 34 -23.5 53t-66.5 19v19h483v-170h-18q-34 86 -61.5 109t-98.5 23h-37.5t-29 -1.5t-24.5 -4.5t-15 -9t-11.5 -15.5t-2.5 -22.5v-220h83q35 0 62.5 25.5t27.5 68.5h18v-225h-18q0 43 -27.5 68.5t-62.5 25.5h-83v-258
q0 -16 5 -25.5t10.5 -15t22.5 -8t29 -3t41 -0.5h12q81 0 113.5 26t68.5 114h19zM171 848l93 -115h-32l-112 71q-20 13 -20 34q0 14 9 23t23 9q21 0 39 -22zM306 848l93 -115h-32l-112 71q-20 13 -20 34q0 14 9.5 23t22.5 9q21 0 39 -22z" />
    <glyph glyph-name="edblgrave" unicode="&#x205;" horiz-adv-x="490" 
d="M147 311h208q0 141 -93 141q-41 0 -73 -37.5t-42 -103.5zM447 281h-304q0 -7 -0.5 -23t-0.5 -24q0 -82 39.5 -144t111.5 -62q33 0 62.5 12.5t42.5 22.5t31 28q4 4 8.5 5t7.5 -1t3 -6q0 -3 -3 -8q-24 -37 -69.5 -63.5t-99.5 -26.5q-100 0 -162 68t-62 181q0 97 59 173.5
t159 76.5q81 0 129 -56t48 -153zM144 649l93 -115h-32l-112 71q-20 13 -20 34q0 13 9.5 22.5t22.5 9.5q21 0 39 -22zM279 649l93 -115h-32l-112 71q-20 13 -20 34q0 13 9 22.5t23 9.5q21 0 39 -22z" />
    <glyph glyph-name="Einvertedbreve" unicode="&#x206;" horiz-adv-x="576" 
d="M539 178v-178h-506v19q43 0 66.5 19t23.5 52v515q0 34 -23.5 53t-66.5 19v19h483v-170h-18q-34 86 -61.5 109t-98.5 23h-37.5t-29 -1.5t-24.5 -4.5t-15 -9t-11.5 -15.5t-2.5 -22.5v-220h83q35 0 62.5 25.5t27.5 68.5h18v-225h-18q0 43 -27.5 68.5t-62.5 25.5h-83v-258
q0 -16 5 -25.5t10.5 -15t22.5 -8t29 -3t41 -0.5h12q81 0 113.5 26t68.5 114h19zM420 733h-35q0 28 -25 52.5t-65 24.5t-65 -24.5t-25 -52.5h-35q0 53 34 95t91 42t91 -42t34 -95z" />
    <glyph glyph-name="einvertedbreve" unicode="&#x207;" horiz-adv-x="490" 
d="M147 311h208q0 141 -93 141q-41 0 -73 -37.5t-42 -103.5zM447 281h-304q0 -7 -0.5 -23t-0.5 -24q0 -82 39.5 -144t111.5 -62q33 0 62.5 12.5t42.5 22.5t31 28q4 4 8.5 5t7.5 -1t3 -6q0 -3 -3 -8q-24 -37 -69.5 -63.5t-99.5 -26.5q-100 0 -162 68t-62 181q0 97 59 173.5
t159 76.5q81 0 129 -56t48 -153zM394 534h-35q0 28 -25 52.5t-65 24.5t-65 -24.5t-25 -52.5h-35q0 53 34 95t91 42t91 -42t34 -95z" />
    <glyph glyph-name="Idblgrave" unicode="&#x208;" horiz-adv-x="340" 
d="M317 19v-19h-274v19q43 0 66.5 19t23.5 52v515q0 34 -23.5 53t-66.5 19v19h274v-19q-43 0 -66.5 -19t-23.5 -53v-515q0 -33 23.5 -52t66.5 -19zM30 850l93 -115h-32l-112 71q-20 13 -20 34q0 14 9.5 23t22.5 9q21 0 39 -22zM165 850l93 -115h-32l-112 71q-20 13 -20 34
q0 14 9 23t23 9q21 0 39 -22z" />
    <glyph glyph-name="idblgrave" unicode="&#x209;" horiz-adv-x="282" 
d="M249 19v-19h-207v19q26 0 43.5 17.5t17.5 43.5v319q0 26 -17.5 44t-43.5 18v18h146v-399q0 -26 17.5 -43.5t43.5 -17.5zM24 649l93 -115h-32l-112 71q-20 13 -20 34q0 13 9.5 22.5t22.5 9.5q21 0 39 -22zM159 649l93 -115h-32l-112 71q-20 13 -20 34q0 13 9 22.5t23 9.5
q21 0 39 -22z" />
    <glyph glyph-name="Iinvertedbreve" unicode="&#x20a;" horiz-adv-x="340" 
d="M307 19v-19h-274v19q43 0 66.5 19t23.5 52v515q0 34 -23.5 53t-66.5 19v19h274v-19q-43 0 -66.5 -19t-23.5 -53v-515q0 -33 23.5 -52t66.5 -19zM287 733h-35q0 28 -25 52.5t-65 24.5t-65 -24.5t-25 -52.5h-35q0 53 34 95t91 42t91 -42t34 -95z" />
    <glyph glyph-name="iinvertedbreve" unicode="&#x20b;" horiz-adv-x="282" 
d="M249 19v-19h-207v19q26 0 43.5 17.5t17.5 43.5v319q0 26 -17.5 44t-43.5 18v18h146v-399q0 -26 17.5 -43.5t43.5 -17.5zM255 534h-35q0 28 -25 52.5t-65 24.5t-65 -24.5t-25 -52.5h-35q0 53 34 95t91 42t91 -42t34 -95z" />
    <glyph glyph-name="Odblgrave" unicode="&#x20c;" horiz-adv-x="709" 
d="M355 -15q-143 0 -221 98.5t-78 264.5q0 90 35 172t105 136.5t159 54.5q142 0 220 -98.5t78 -264.5q0 -90 -35 -172t-104.5 -136.5t-158.5 -54.5zM355 673q-67 0 -112.5 -49.5t-64 -120t-18.5 -155.5t18.5 -155.5t64 -120t112.5 -49.5t112.5 49.5t64 120t18.5 155.5
t-18.5 155.5t-64 120t-112.5 49.5zM221 847l93 -115h-32l-112 71q-20 13 -20 34q0 13 9 22.5t23 9.5q21 0 39 -22zM356 847l93 -115h-32l-112 71q-20 13 -20 34q0 13 9.5 22.5t22.5 9.5q21 0 39 -22z" />
    <glyph glyph-name="odblgrave" unicode="&#x20d;" horiz-adv-x="516" 
d="M375 240q0 211 -117 211t-117 -211q0 -212 117 -212t117 212zM464 240q0 -101 -53.5 -175t-152.5 -74q-103 0 -154.5 66t-51.5 183q0 46 12.5 89.5t37 79.5t65 58t91.5 22q103 0 154.5 -66.5t51.5 -182.5zM127 649l93 -115h-32l-112 71q-20 13 -20 34q0 13 9 22.5t23 9.5
q21 0 39 -22zM262 649l93 -115h-32l-112 71q-20 13 -20 34q0 13 9.5 22.5t22.5 9.5q21 0 39 -22z" />
    <glyph glyph-name="Oinvertedbreve" unicode="&#x20e;" horiz-adv-x="709" 
d="M355 -15q-143 0 -221 98.5t-78 264.5q0 90 35 172t105 136.5t159 54.5q142 0 220 -98.5t78 -264.5q0 -90 -35 -172t-104.5 -136.5t-158.5 -54.5zM355 673q-67 0 -112.5 -49.5t-64 -120t-18.5 -155.5t18.5 -155.5t64 -120t112.5 -49.5t112.5 49.5t64 120t18.5 155.5
t-18.5 155.5t-64 120t-112.5 49.5zM487 733h-35q0 28 -25 52.5t-65 24.5t-65 -24.5t-25 -52.5h-35q0 53 34 95t91 42t91 -42t34 -95z" />
    <glyph glyph-name="oinvertedbreve" unicode="&#x20f;" horiz-adv-x="516" 
d="M375 240q0 211 -117 211t-117 -211q0 -212 117 -212t117 212zM464 240q0 -101 -53.5 -175t-152.5 -74q-103 0 -154.5 66t-51.5 183q0 46 12.5 89.5t37 79.5t65 58t91.5 22q103 0 154.5 -66.5t51.5 -182.5zM387 534h-35q0 28 -25 52.5t-65 24.5t-65 -24.5t-25 -52.5h-35
q0 53 34 95t91 42t91 -42t34 -95z" />
    <glyph glyph-name="Rdblgrave" unicode="&#x210;" horiz-adv-x="706" 
d="M458 490q0 78 -42.5 121t-116.5 43q-82 0 -82 -49v-262h82q70 0 114.5 36t44.5 111zM696 19v-19h-167l-78 104q-57 77 -146 201h-88v-215q0 -33 24 -52t67 -19v-19h-275v19q43 0 66.5 19t23.5 52v515q0 34 -23.5 53.5t-66.5 19.5v18h300q109 0 166.5 -51.5t57.5 -127.5
q0 -81 -47.5 -131.5t-110.5 -62.5v-3l143 -186q2 -3 14.5 -19t15.5 -20t14 -17t15.5 -17t15 -13.5t18 -12.5t18 -8t21 -6.5t22.5 -1.5zM142 848l93 -115h-32l-112 71q-20 13 -20 34q0 14 9.5 23t22.5 9q21 0 39 -22zM277 848l93 -115h-32l-112 71q-20 13 -20 34q0 14 9 23
t23 9q21 0 39 -22z" />
    <glyph glyph-name="rdblgrave" unicode="&#x211;" horiz-adv-x="410" 
d="M391 420q0 -25 -13 -41t-36 -16q-20 0 -31.5 11t-11.5 29q0 4 2.5 18t0 19.5t-14.5 5.5q-25 0 -52.5 -25t-46.5 -61v-280q0 -26 17.5 -43.5t43.5 -17.5v-19h-207v19q26 0 43.5 17.5t17.5 43.5v319q0 26 -17.5 44t-43.5 18v18h146v-80h3q17 31 49.5 60.5t74.5 29.5
q38 0 57 -19.5t19 -49.5zM90 649l93 -115h-32l-112 71q-20 13 -20 34q0 13 9.5 22.5t22.5 9.5q21 0 39 -22zM225 649l93 -115h-32l-112 71q-20 13 -20 34q0 13 9 22.5t23 9.5q21 0 39 -22z" />
    <glyph glyph-name="Rinvertedbreve" unicode="&#x212;" horiz-adv-x="706" 
d="M458 490q0 78 -42.5 121t-116.5 43q-82 0 -82 -49v-262h82q70 0 114.5 36t44.5 111zM696 19v-19h-167l-78 104q-57 77 -146 201h-88v-215q0 -33 24 -52t67 -19v-19h-275v19q43 0 66.5 19t23.5 52v515q0 34 -23.5 53.5t-66.5 19.5v18h300q109 0 166.5 -51.5t57.5 -127.5
q0 -81 -47.5 -131.5t-110.5 -62.5v-3l143 -186q2 -3 14.5 -19t15.5 -20t14 -17t15.5 -17t15 -13.5t18 -12.5t18 -8t21 -6.5t22.5 -1.5zM419 733h-35q0 28 -25 52.5t-65 24.5t-65 -24.5t-25 -52.5h-35q0 53 34 95t91 42t91 -42t34 -95z" />
    <glyph glyph-name="rinvertedbreve" unicode="&#x213;" horiz-adv-x="410" 
d="M391 420q0 -25 -13 -41t-36 -16q-20 0 -31.5 11t-11.5 29q0 4 2.5 18t0 19.5t-14.5 5.5q-25 0 -52.5 -25t-46.5 -61v-280q0 -26 17.5 -43.5t43.5 -17.5v-19h-207v19q26 0 43.5 17.5t17.5 43.5v319q0 26 -17.5 44t-43.5 18v18h146v-80h3q17 31 49.5 60.5t74.5 29.5
q38 0 57 -19.5t19 -49.5zM330 534h-35q0 28 -25 52.5t-65 24.5t-65 -24.5t-25 -52.5h-35q0 53 34 95t91 42t91 -42t34 -95z" />
    <glyph glyph-name="Udblgrave" unicode="&#x214;" horiz-adv-x="707" 
d="M684 696v-18q-42 0 -66 -19.5t-24 -53.5v-363q0 -133 -65 -195t-176 -62t-175.5 63.5t-64.5 204.5v352q0 34 -24 53.5t-66 19.5v18h274v-18q-43 0 -66.5 -19.5t-23.5 -53.5v-378q0 -102 48 -153t126 -51q79 0 127 53.5t48 165.5v363q0 34 -24 53.5t-67 19.5v18h219z
M228 848l93 -115h-32l-112 71q-20 13 -20 34q0 14 9.5 23t22.5 9q21 0 39 -22zM363 848l93 -115h-32l-112 71q-20 13 -20 34q0 14 9 23t23 9q21 0 39 -22z" />
    <glyph glyph-name="udblgrave" unicode="&#x215;" 
d="M522 19v-19h-123q-16 20 -23 60h-3q-20 -28 -59 -48.5t-82 -20.5q-55 0 -96.5 34t-41.5 113v261q0 26 -17.5 44t-43.5 18v18h146v-1v-335q0 -57 28 -81t64 -24q43 0 74 32t31 73v256q0 26 -17.5 44t-43.5 18v18h146v-399q0 -26 17.5 -43.5t43.5 -17.5zM144 649l93 -115
h-32l-112 71q-20 13 -20 34q0 13 9.5 22.5t22.5 9.5q21 0 39 -22zM279 649l93 -115h-32l-112 71q-20 13 -20 34q0 13 9 22.5t23 9.5q21 0 39 -22z" />
    <glyph glyph-name="Uinvertedbreve" unicode="&#x216;" horiz-adv-x="707" 
d="M684 696v-18q-42 0 -66 -19.5t-24 -53.5v-363q0 -133 -65 -195t-176 -62t-175.5 63.5t-64.5 204.5v352q0 34 -24 53.5t-66 19.5v18h274v-18q-43 0 -66.5 -19.5t-23.5 -53.5v-378q0 -102 48 -153t126 -51q79 0 127 53.5t48 165.5v363q0 34 -24 53.5t-67 19.5v18h219z
M495 733h-35q0 28 -25 52.5t-65 24.5t-65 -24.5t-25 -52.5h-35q0 53 34 95t91 42t91 -42t34 -95z" />
    <glyph glyph-name="uinvertedbreve" unicode="&#x217;" 
d="M522 19v-19h-123q-16 20 -23 60h-3q-20 -28 -59 -48.5t-82 -20.5q-55 0 -96.5 34t-41.5 113v261q0 26 -17.5 44t-43.5 18v18h146v-1v-335q0 -57 28 -81t64 -24q43 0 74 32t31 73v256q0 26 -17.5 44t-43.5 18v18h146v-399q0 -26 17.5 -43.5t43.5 -17.5zM396 534h-35
q0 28 -25 52.5t-65 24.5t-65 -24.5t-25 -52.5h-35q0 53 34 95t91 42t91 -42t34 -95z" />
    <glyph glyph-name="Scommaaccent" unicode="&#x218;" horiz-adv-x="552" 
d="M496 184q0 -87 -61 -143t-161 -56q-42 0 -84.5 14t-63.5 29l-21 14q-20 -12 -32 -42h-17v217h17q17 -35 26.5 -53t30.5 -50t39.5 -49t47 -31t60.5 -14q53 0 89.5 36.5t36.5 96.5q0 93 -80 135l-151 80q-57 31 -86.5 66.5t-29.5 95.5q0 78 59 129.5t140 51.5q21 0 39.5 -3
t41 -11.5t29 -11.5t31.5 -15q21 11 34 41h18v-222h-18q-40 98 -59 125q-42 58 -112 59q-55 0 -87 -32.5t-32 -76.5q0 -34 15 -60.5t58 -49.5l168 -89q115 -60 115 -181zM348 -136q0 -94 -87 -144q-5 -3 -9.5 -3.5t-6.5 1t-2 4.5q0 6 8 12q21 15 37 41t16 51q0 10 -4.5 14
t-18.5 4q-23 0 -38.5 17.5t-15.5 38.5q0 22 15 39t41 17q36 0 50.5 -28t14.5 -64z" />
    <glyph glyph-name="scommaaccent" unicode="&#x219;" horiz-adv-x="436" 
d="M344 479h19v-141h-27q-23 58 -58 90.5t-74 32.5q-36 0 -58.5 -22t-22.5 -53q0 -53 54 -73l103 -38q49 -17 81 -52.5t32 -86.5q0 -61 -44 -103t-123 -42q-36 0 -72 12t-57 28l-23 -31h-22v176h24q58 -157 153 -157q41 0 65.5 25.5t24.5 63.5q0 62 -74 90q-64 23 -108 40
q-85 32 -85 117q0 56 42.5 95t109.5 39q60 0 108 -30q17 3 32 20zM292 -136q0 -94 -87 -144q-5 -3 -9.5 -3.5t-6.5 1t-2 4.5q0 6 8 12q21 15 37 41t16 51q0 10 -4.5 14t-18.5 4q-23 0 -38.5 17.5t-15.5 38.5q0 22 15 39t41 17q36 0 50.5 -28t14.5 -64z" />
    <glyph glyph-name="circumflex" unicode="&#x2c6;" horiz-adv-x="470" 
d="M362 548q5 -5 0.5 -11t-11.5 -2q-9 6 -111 66h-3l-111 -66q-7 -4 -11.5 2t0.5 11q12 13 118 122h11z" />
    <glyph glyph-name="caron" unicode="&#x2c7;" horiz-adv-x="470" 
d="M362 656q-12 -13 -118 -122h-11l-118 122q-5 5 -0.5 11t11.5 2q9 -6 111 -66h3l111 66q7 4 11.5 -2t-0.5 -11z" />
    <glyph glyph-name="breve" unicode="&#x2d8;" horiz-adv-x="470" 
d="M325 671h35q0 -53 -34 -95t-91 -42t-91 42t-34 95h35q0 -28 25 -52.5t65 -24.5t65 24.5t25 52.5z" />
    <glyph glyph-name="dotaccent" unicode="&#x2d9;" horiz-adv-x="470" 
d="M291 590q0 -23 -16.5 -39.5t-39.5 -16.5t-39.5 16.5t-16.5 39.5t16.5 40t39.5 17t39.5 -17t16.5 -40z" />
    <glyph glyph-name="ring" unicode="&#x2da;" horiz-adv-x="470" 
d="M291 637q0 23 -16.5 40t-39.5 17t-39.5 -17t-16.5 -40t16.5 -39.5t39.5 -16.5t39.5 16.5t16.5 39.5zM338 637q0 -43 -30 -73t-73 -30t-73 30t-30 73t30 73.5t73 30.5t73 -30.5t30 -73.5z" />
    <glyph glyph-name="ogonek" unicode="&#x2db;" horiz-adv-x="470" 
d="M352 -182q0 -8 -12 -15q-35 -19 -80 -19q-54 0 -84.5 23t-30.5 64q0 45 31 79.5t63 53.5h54q-3 -3 -14.5 -11.5t-16.5 -13t-15 -14t-14.5 -17t-10.5 -18t-8.5 -23t-2.5 -25.5q0 -68 58 -68q25 0 63 9q20 6 20 -5z" />
    <glyph glyph-name="tilde" unicode="&#x2dc;" horiz-adv-x="470" 
d="M349 624h31q-14 -85 -79 -85q-16 0 -68.5 12.5t-70.5 12.5q-29 0 -43 -29h-30q14 85 79 85q16 0 68 -12.5t70 -12.5q30 0 43 29z" />
    <glyph glyph-name="hungarumlaut" unicode="&#x2dd;" horiz-adv-x="470" 
d="M255 639q0 -21 -20 -34l-112 -71h-32l93 115q18 22 39 22q13 0 22.5 -9.5t9.5 -22.5zM390 639q0 -21 -20 -34l-112 -71h-32l93 115q18 22 39 22q14 0 23 -9.5t9 -22.5z" />
    <glyph glyph-name="invertedbreve" unicode="&#x311;" horiz-adv-x="470" 
d="M360 534h-35q0 28 -25 52.5t-65 24.5t-65 -24.5t-25 -52.5h-35q0 53 34 95t91 42t91 -42t34 -95z" />
    <glyph glyph-name="tonos" unicode="&#x384;" horiz-adv-x="470" 
d="M283 668q0 -24 -12 -53l-34 -81h-35q0 105 2 118q7 57 41 57q38 0 38 -41z" />
    <glyph glyph-name="dieresistonos" unicode="&#x385;" horiz-adv-x="470" 
d="M283 668q0 -24 -12 -53l-34 -81h-35q1 105 2 118q4 57 43 57q36 0 36 -41zM167 590q0 -23 -16.5 -39.5t-39.5 -16.5t-39.5 16.5t-16.5 39.5t16.5 40t39.5 17t39.5 -17t16.5 -40zM412 590q0 -23 -16.5 -39.5t-39.5 -16.5t-39.5 16.5t-16.5 39.5t16.5 40t39.5 17t39.5 -17
t16.5 -40z" />
    <glyph glyph-name="Alphatonos" unicode="&#x386;" horiz-adv-x="713" 
d="M229 282h212l-103 265h-9zM703 19v-19h-236v19q40 0 49 28.5t-8 62.5l-52 134h-241l-48 -127q-9 -24 -11.5 -39.5t1 -30t20 -21.5t46.5 -7v-19h-213v19q80 0 118 101l221 583h30l231 -593q12 -30 20 -46t27 -30.5t46 -14.5zM430 869q0 -24 -12 -53l-34 -81h-35
q0 105 2 118q7 57 41 57q38 0 38 -41z" />
    <glyph glyph-name="Epsilontonos" unicode="&#x388;" horiz-adv-x="576" 
d="M539 178v-178h-506v19q43 0 66.5 19t23.5 52v515q0 34 -23.5 53t-66.5 19v19h483v-170h-18q-34 86 -61.5 109t-98.5 23h-37.5t-29 -1.5t-24.5 -4.5t-15 -9t-11.5 -15.5t-2.5 -22.5v-220h83q35 0 62.5 25.5t27.5 68.5h18v-225h-18q0 43 -27.5 68.5t-62.5 25.5h-83v-258
q0 -16 5 -25.5t10.5 -15t22.5 -8t29 -3t41 -0.5h12q81 0 113.5 26t68.5 114h19zM373 867q0 -24 -12 -53l-34 -81h-35q0 105 2 118q7 57 41 57q38 0 38 -41z" />
    <glyph glyph-name="Etatonos" unicode="&#x389;" horiz-adv-x="768" 
d="M735 19v-19h-273v19q42 0 65.5 19t23.5 52v258h-334v-258q0 -33 24 -52t67 -19v-19h-275v19q43 0 66.5 19t23.5 52v515q0 34 -23.5 53t-66.5 19v19h275v-19q-43 0 -67 -19t-24 -53v-220h334v220q0 34 -23.5 53t-65.5 19v19h273v-19q-43 0 -66.5 -19t-23.5 -53v-515
q0 -33 23.5 -52t66.5 -19zM453 867q0 -24 -12 -53l-34 -81h-35q0 105 2 118q7 57 41 57q38 0 38 -41z" />
    <glyph glyph-name="Iotatonos" unicode="&#x38a;" horiz-adv-x="340" 
d="M307 19v-19h-274v19q43 0 66.5 19t23.5 52v515q0 34 -23.5 53t-66.5 19v19h274v-19q-43 0 -66.5 -19t-23.5 -53v-515q0 -33 23.5 -52t66.5 -19zM242 866q0 -24 -12 -53l-34 -81h-35q0 105 2 118q7 57 41 57q38 0 38 -41z" />
    <glyph glyph-name="Omicrontonos" unicode="&#x38c;" horiz-adv-x="709" 
d="M550 348q0 85 -18.5 155.5t-64 120t-112.5 49.5t-112.5 -49.5t-64 -120t-18.5 -155.5t18.5 -155.5t64 -120t112.5 -49.5t112.5 49.5t64 120t18.5 155.5zM653 348q0 -90 -35 -172t-104.5 -136.5t-158.5 -54.5q-143 0 -221 98.5t-78 264.5q0 90 35 172t105 136.5t159 54.5
q142 0 220 -98.5t78 -264.5zM426 867q0 -24 -12 -53l-34 -81h-35q0 105 2 118q7 57 41 57q38 0 38 -41z" />
    <glyph glyph-name="Upsilontonos" unicode="&#x38e;" horiz-adv-x="609" 
d="M595 696v-18q-42 0 -64 -13t-45 -65l-137 -317v-193q0 -33 23.5 -52t66.5 -19v-19h-274v19q43 0 66.5 19t23.5 52v171l-147 339q-22 50 -39.5 64t-58.5 14v18h71q23 0 38.5 -1t28 -7.5t19.5 -10.5t16 -19.5t13 -24t15 -33.5l116 -266h2l103 263q25 62 43 80.5t52 18.5h68
zM403 866q0 -24 -12 -53l-34 -81h-35q0 105 2 118q7 57 41 57q38 0 38 -41z" />
    <glyph glyph-name="Omegatonos" unicode="&#x38f;" horiz-adv-x="771" 
d="M721 178v-178h-294v99q65 37 108 118t43 174q0 68 -18 129t-63.5 106.5t-110.5 45.5q-49 0 -88 -26t-61 -68t-33 -89.5t-11 -97.5q0 -93 43 -174t108 -118v-99h-294v178h20q20 -57 34.5 -70.5t52.5 -13.5h108v17q-80 41 -128 116.5t-48 163.5q0 127 83.5 223.5
t213.5 96.5t213 -96.5t83 -223.5q0 -88 -48 -163.5t-128 -116.5v-17h108q38 0 52.5 13.5t34.5 70.5h20zM460 867q0 -24 -12 -53l-34 -81h-35q0 105 2 118q7 57 41 57q38 0 38 -41z" />
    <glyph glyph-name="iotadieresistonos" unicode="&#x390;" horiz-adv-x="291" 
d="M320 73q0 -1 -2 -9q-9 -26 -37.5 -49.5t-73.5 -23.5q-56 0 -80 32t-24 98v278q0 62 -61 62v18q37 10 81 10q42 0 53.5 -16.5t11.5 -63.5v-316q0 -66 46 -66q36 0 69 48q3 4 7 6t7 0t3 -8zM177 668q0 -24 -12 -53l-34 -81h-35q1 105 2 118q4 57 43 57q36 0 36 -41zM61 590
q0 -23 -16.5 -39.5t-39.5 -16.5t-39.5 16.5t-16.5 39.5t16.5 40t39.5 17t39.5 -17t16.5 -40zM306 590q0 -23 -16.5 -39.5t-39.5 -16.5t-39.5 16.5t-16.5 39.5t16.5 40t39.5 17t39.5 -17t16.5 -40z" />
    <glyph glyph-name="Alpha" unicode="&#x391;" horiz-adv-x="713" 
d="M229 282h212l-103 265h-9zM703 19v-19h-236v19q40 0 49 28.5t-8 62.5l-52 134h-241l-48 -127q-9 -24 -11.5 -39.5t1 -30t20 -21.5t46.5 -7v-19h-213v19q80 0 118 101l221 583h30l231 -593q12 -30 20 -46t27 -30.5t46 -14.5z" />
    <glyph glyph-name="Beta" unicode="&#x392;" horiz-adv-x="607" 
d="M457 186q0 67 -38.5 111.5t-114.5 47.5l-87 3v-258q0 -35 18.5 -43.5t83.5 -8.5q138 0 138 148zM428 528q0 62 -34.5 96t-89.5 34h-21q-35 0 -50.5 -10.5t-15.5 -42.5v-220h68q71 0 107 41.5t36 101.5zM561 199q0 -86 -61.5 -142.5t-169.5 -56.5h-297v19q43 0 66.5 19
t23.5 52v515q0 34 -23.5 53t-66.5 19v19h287q94 0 145.5 -43.5t51.5 -118.5q0 -46 -27.5 -88.5t-79.5 -64.5v-2q71 -19 111 -69.5t40 -110.5z" />
    <glyph glyph-name="Gamma" unicode="&#x393;" horiz-adv-x="526" 
d="M517 696v-170h-20q-29 80 -53 106t-83 26h-78q-35 0 -50.5 -10.5t-15.5 -42.5v-515q0 -33 23.5 -52t66.5 -19v-19h-274v19q43 0 66.5 19t23.5 52v515q0 34 -23.5 53t-66.5 19v19h484z" />
    <glyph glyph-name="Delta" unicode="&#x394;" horiz-adv-x="714" 
d="M125 38h402l-200 509h-9zM638 19v-19h-562v19l262 684h30z" />
    <glyph glyph-name="Delta" unicode="&#x2206;" horiz-adv-x="714" 
d="M125 38h402l-200 509h-9zM638 19v-19h-562v19l262 684h30z" />
    <glyph glyph-name="Epsilon" unicode="&#x395;" horiz-adv-x="576" 
d="M539 178v-178h-506v19q43 0 66.5 19t23.5 52v515q0 34 -23.5 53t-66.5 19v19h483v-170h-18q-34 86 -61.5 109t-98.5 23h-37.5t-29 -1.5t-24.5 -4.5t-15 -9t-11.5 -15.5t-2.5 -22.5v-220h83q35 0 62.5 25.5t27.5 68.5h18v-225h-18q0 43 -27.5 68.5t-62.5 25.5h-83v-258
q0 -16 5 -25.5t10.5 -15t22.5 -8t29 -3t41 -0.5h12q81 0 113.5 26t68.5 114h19z" />
    <glyph glyph-name="Zeta" unicode="&#x396;" horiz-adv-x="537" 
d="M497 178v-178h-464v19l349 636v3h-151q-37 0 -59.5 -6t-40.5 -25.5t-28 -38.5t-28 -62h-19v170h441v-18l-348 -638v-2h148q44 0 71 6t47 25.5t32 41t31 67.5h19z" />
    <glyph glyph-name="Eta" unicode="&#x397;" horiz-adv-x="768" 
d="M735 19v-19h-273v19q42 0 65.5 19t23.5 52v258h-334v-258q0 -33 24 -52t67 -19v-19h-275v19q43 0 66.5 19t23.5 52v515q0 34 -23.5 53t-66.5 19v19h275v-19q-43 0 -67 -19t-24 -53v-220h334v220q0 34 -23.5 53t-65.5 19v19h273v-19q-43 0 -66.5 -19t-23.5 -53v-515
q0 -33 23.5 -52t66.5 -19z" />
    <glyph glyph-name="Theta" unicode="&#x398;" horiz-adv-x="709" 
d="M491 446v-198h-25q-8 47 -22 62q-13 13 -54 13h-70q-41 0 -54 -12q-12 -11 -22 -63h-25v198h25q9 -48 20 -61t48 -13h78q42 0 54 12q13 13 22 62h25zM550 348q0 85 -18.5 155.5t-64 120t-112.5 49.5t-112.5 -49.5t-64 -120t-18.5 -155.5t18.5 -155.5t64 -120t112.5 -49.5
t112.5 49.5t64 120t18.5 155.5zM653 348q0 -90 -35 -172t-104.5 -136.5t-158.5 -54.5q-143 0 -221 98.5t-78 264.5q0 90 35 172t105 136.5t159 54.5q142 0 220 -98.5t78 -264.5z" />
    <glyph glyph-name="Iota" unicode="&#x399;" horiz-adv-x="340" 
d="M307 19v-19h-274v19q43 0 66.5 19t23.5 52v515q0 34 -23.5 53t-66.5 19v19h274v-19q-43 0 -66.5 -19t-23.5 -53v-515q0 -33 23.5 -52t66.5 -19z" />
    <glyph glyph-name="Kappa" unicode="&#x39a;" horiz-adv-x="703" 
d="M683 19v-19h-157l-234 309q-23 30 -31.5 34.5t-42.5 4.5v-258q0 -33 23.5 -52t65.5 -19v-19h-274v19q43 0 66.5 19t23.5 52v515q0 34 -23.5 53.5t-66.5 19.5v18h274v-18q-42 0 -65.5 -19.5t-23.5 -53.5v-220q42 0 56 7t37 36l131 164q3 4 10 13q41 50 39 62q-2 11 -30 11
v18h189v-19q-49 0 -80.5 -21t-82.5 -80l-148 -173v-2l200 -264q1 -1 15.5 -20.5t18 -23.5t17 -20t21 -21.5t20.5 -14.5t25.5 -13t26.5 -5z" />
    <glyph glyph-name="Lambda" unicode="&#x39b;" horiz-adv-x="713" 
d="M703 19v-19h-236v19q40 0 49 28.5t-8 62.5l-170 437h-9l-162 -430q-9 -24 -11.5 -39.5t1 -30t20 -21.5t46.5 -7v-19h-213v19q80 0 118 101l221 583h30l231 -593q12 -30 20 -46t27 -30.5t46 -14.5z" />
    <glyph glyph-name="Mu" unicode="&#x39c;" horiz-adv-x="908" 
d="M875 19v-19h-276v19q43 0 67.5 19t24.5 52v522h-4l-252 -589q-4 -8 -10 -8t-9 8l-252 589h-4v-522q0 -33 23.5 -52t65.5 -19v-19h-216v19q43 0 66.5 19t23.5 52v515q0 34 -23.5 53t-66.5 19v19h197l225 -524h3l225 524h192v-19q-43 0 -66.5 -19t-23.5 -53v-515
q0 -33 23.5 -52t66.5 -19z" />
    <glyph glyph-name="Nu" unicode="&#x39d;" horiz-adv-x="765" 
d="M732 696v-19q-43 0 -67 -19t-24 -53v-605h-33l-443 572h-4v-482q0 -33 24 -52t67 -19v-19h-219v19q43 0 67 19t24 52v515q0 34 -24 53t-67 19v19h157l409 -531h4v440q0 34 -23.5 53t-66.5 19v19h219z" />
    <glyph glyph-name="Xi" unicode="&#x39e;" horiz-adv-x="652" 
d="M600 178v-178h-548v178h20q6 -28 16.5 -46.5t19.5 -28t28 -14t31 -5t39 -0.5h240q28 0 39.5 0.5t30.5 5t28.5 14t19.5 28t16 46.5h20zM461 446v-198h-25q-8 47 -22 62q-13 13 -54 13h-70q-41 0 -54 -12q-12 -11 -22 -63h-25v198h25q9 -48 20 -61t48 -13h78q42 0 54 12
q13 13 22 62h25zM600 696v-178h-20q-6 28 -16 46.5t-19.5 28t-28.5 14t-30.5 5t-39.5 0.5h-240q-27 0 -39 -0.5t-31 -5t-28 -14t-19.5 -28t-16.5 -46.5h-20v178h548z" />
    <glyph glyph-name="Omicron" unicode="&#x39f;" horiz-adv-x="709" 
d="M550 348q0 85 -18.5 155.5t-64 120t-112.5 49.5t-112.5 -49.5t-64 -120t-18.5 -155.5t18.5 -155.5t64 -120t112.5 -49.5t112.5 49.5t64 120t18.5 155.5zM653 348q0 -90 -35 -172t-104.5 -136.5t-158.5 -54.5q-143 0 -221 98.5t-78 264.5q0 90 35 172t105 136.5t159 54.5
q142 0 220 -98.5t78 -264.5z" />
    <glyph glyph-name="Pi" unicode="&#x3a0;" horiz-adv-x="748" 
d="M715 19v-19h-273v19q42 0 65.5 19t23.5 52v515q0 32 -15 42.5t-50 10.5h-183q-35 0 -50.5 -10.5t-15.5 -42.5v-515q0 -33 24 -52t67 -19v-19h-275v19q43 0 66.5 19t23.5 52v515q0 34 -23.5 53t-66.5 19v19h682v-19q-43 0 -66.5 -19t-23.5 -53v-515q0 -33 23.5 -52
t66.5 -19z" />
    <glyph glyph-name="Rho" unicode="&#x3a1;" horiz-adv-x="602" 
d="M457 493q0 63 -33 108.5t-99 50.5q-108 8 -108 -47v-269h68q83 0 127.5 39.5t44.5 117.5zM556 505q0 -95 -67 -150t-181 -55h-91v-210q0 -33 24 -52t67 -19v-19h-275v19q43 0 66.5 19t23.5 52v515q0 34 -23.5 53.5t-66.5 19.5v18h300q107 0 165 -56.5t58 -134.5z" />
    <glyph glyph-name="Sigma" unicode="&#x3a3;" horiz-adv-x="617" 
d="M567 178v-178h-546v19q26 0 52 17.5t38.5 32t31.5 41.5l154 215l-143 261q-18 33 -56 61.5t-77 28.5v20h523v-170h-18q-34 86 -61.5 109t-98.5 23h-92q-19 0 -28 -5t-7.5 -17t5.5 -21.5t15 -28.5l122 -219l-160 -214q-13 -17 -18.5 -26t-7.5 -17.5t4.5 -12t21.5 -3.5h174
q81 0 108.5 15.5t44.5 68.5h19z" />
    <glyph glyph-name="Tau" unicode="&#x3a4;" horiz-adv-x="549" 
d="M540 696v-170h-20q-29 80 -53 106.5t-83 26.5h-5q-57 0 -57 -64v-505q0 -33 24 -52t67 -19v-19h-275v19q43 0 66 19t23 52v505q0 64 -55 64h-8q-58 0 -81.5 -26t-53.5 -107h-20v170h531z" />
    <glyph glyph-name="Upsilon" unicode="&#x3a5;" horiz-adv-x="605" 
d="M595 696v-18q-42 0 -64 -13t-45 -65l-137 -317v-193q0 -33 23.5 -52t66.5 -19v-19h-274v19q43 0 66.5 19t23.5 52v171l-147 339q-22 50 -39.5 64t-58.5 14v18h71q23 0 38.5 -1t28 -7.5t19.5 -10.5t16 -19.5t13 -24t15 -33.5l116 -266h2l103 263q25 62 43 80.5t52 18.5h68
z" />
    <glyph glyph-name="Phi" unicode="&#x3a6;" horiz-adv-x="864" 
d="M385 38v564q-109 -7 -167 -81t-58 -201q0 -78 16.5 -133t48.5 -85.5t70.5 -45t89.5 -18.5zM704 320q0 127 -58.5 201t-166.5 81v-564q51 4 89.5 18.5t70.5 45t48.5 85.5t16.5 133zM808 320q0 -136 -92.5 -224.5t-236.5 -95.5v-20q0 -33 23.5 -52t66.5 -19v-19h-274v19
q42 0 66 20t24 51v20q-145 7 -237 95.5t-92 224.5q0 141 87 226.5t242 92.5v19q0 34 -23.5 53t-66.5 19v19h274v-19q-43 0 -66.5 -19t-23.5 -53v-19q154 -7 241.5 -92.5t87.5 -226.5z" />
    <glyph glyph-name="Chi" unicode="&#x3a7;" horiz-adv-x="658" 
d="M649 19v-19h-239v19q40 3 42.5 19t-26.5 64l-115 194h-3l-117 -194q-26 -38 -20 -60.5t54 -22.5v-19h-216v19q44 3 73.5 26.5t66.5 77.5l141 209l-173 287q-36 59 -108 59v18h248v-18q-21 0 -30 -7t-7 -21.5t9.5 -30t21.5 -40.5l96 -164h4l104 177q26 44 18.5 65
t-50.5 21v18h226v-19q-50 0 -81.5 -25t-65.5 -76l-134 -196l148 -246q39 -66 63 -89t70 -26z" />
    <glyph glyph-name="Psi" unicode="&#x3a8;" horiz-adv-x="737" 
d="M727 644q0 -19 -13 -33t-34 -14q-9 0 -24 5.5t-20 5.5q-17 0 -26 -16.5t-18 -69.5l-45 -264h-121v-168q0 -33 23.5 -52t66.5 -19v-19h-274v19q43 0 66.5 19t23.5 52v168h-178l-50 327q-14 92 -94 92v19h38q80 0 110.5 -23.5t42.5 -100.5l42 -276h89v309q0 34 -23.5 53
t-66.5 19v19h274v-19q-43 0 -66.5 -19t-23.5 -53v-309h89l35 227q14 91 42 132t77 41q25 0 41.5 -15.5t16.5 -36.5z" />
    <glyph glyph-name="Omega" unicode="&#x3a9;" horiz-adv-x="771" 
d="M721 178v-178h-294v99q65 37 108 118t43 174q0 68 -18 129t-63.5 106.5t-110.5 45.5q-49 0 -88 -26t-61 -68t-33 -89.5t-11 -97.5q0 -93 43 -174t108 -118v-99h-294v178h20q20 -57 34.5 -70.5t52.5 -13.5h108v17q-80 41 -128 116.5t-48 163.5q0 127 83.5 223.5
t213.5 96.5t213 -96.5t83 -223.5q0 -88 -48 -163.5t-128 -116.5v-17h108q38 0 52.5 13.5t34.5 70.5h20z" />
    <glyph glyph-name="Omega" unicode="&#x2126;" horiz-adv-x="771" 
d="M721 178v-178h-294v99q65 37 108 118t43 174q0 68 -18 129t-63.5 106.5t-110.5 45.5q-49 0 -88 -26t-61 -68t-33 -89.5t-11 -97.5q0 -93 43 -174t108 -118v-99h-294v178h20q20 -57 34.5 -70.5t52.5 -13.5h108v17q-80 41 -128 116.5t-48 163.5q0 127 83.5 223.5
t213.5 96.5t213 -96.5t83 -223.5q0 -88 -48 -163.5t-128 -116.5v-17h108q38 0 52.5 13.5t34.5 70.5h20z" />
    <glyph glyph-name="Iotadieresis" unicode="&#x3aa;" horiz-adv-x="340" 
d="M132 788q0 -23 -16.5 -39.5t-39.5 -16.5t-39.5 16.5t-16.5 39.5t16.5 40t39.5 17t39.5 -17t16.5 -40zM320 788q0 -23 -16.5 -39.5t-39.5 -16.5t-39.5 16.5t-16.5 39.5t16.5 40t39.5 17t39.5 -17t16.5 -40zM307 19v-19h-274v19q43 0 66.5 19t23.5 52v515q0 34 -23.5 53
t-66.5 19v19h274v-19q-43 0 -66.5 -19t-23.5 -53v-515q0 -33 23.5 -52t66.5 -19z" />
    <glyph glyph-name="Upsilondieresis" unicode="&#x3ab;" horiz-adv-x="605" 
d="M595 696v-18q-42 0 -64 -13t-45 -65l-137 -317v-193q0 -33 23.5 -52t66.5 -19v-19h-274v19q43 0 66.5 19t23.5 52v171l-147 339q-22 50 -39.5 64t-58.5 14v18h71q23 0 38.5 -1t28 -7.5t19.5 -10.5t16 -19.5t13 -24t15 -33.5l116 -266h2l103 263q25 62 43 80.5t52 18.5h68
zM289 789q0 -23 -16.5 -39.5t-39.5 -16.5t-39.5 16.5t-16.5 39.5t16.5 40t39.5 17t39.5 -17t16.5 -40zM477 789q0 -23 -16.5 -39.5t-39.5 -16.5t-39.5 16.5t-16.5 39.5t16.5 40t39.5 17t39.5 -17t16.5 -40z" />
    <glyph glyph-name="alphatonos" unicode="&#x3ac;" horiz-adv-x="621" 
d="M359 213l16 53l-25 71q-40 114 -102 114q-56 0 -81.5 -60t-25.5 -151q0 -89 27 -150.5t74 -61.5q37 0 61.5 40.5t55.5 144.5zM598 102q0 -3 -1.5 -8t-1.5 -6q-11 -40 -30.5 -68.5t-46.5 -28.5q-30 0 -44.5 21t-29.5 64q-3 8 -4 12q-2 6 -8 23t-10 27q-31 -73 -80.5 -110
t-106.5 -37q-84 0 -133.5 65.5t-49.5 183.5q0 104 46 176.5t133 72.5q99 0 150 -131l13 -33l47 154h89l-88 -286l16 -45q30 -87 68 -87q10 0 19.5 6t14 11.5t11.5 16.5t8 13q6 7 12.5 4.5t6.5 -10.5zM313 668q0 -24 -12 -53l-34 -81h-35q0 105 2 118q7 57 41 57q38 0 38 -41
z" />
    <glyph glyph-name="epsilontonos" unicode="&#x3ad;" horiz-adv-x="466" 
d="M442 76q0 -36 -59 -60.5t-128 -24.5q-90 0 -146.5 39t-56.5 105q0 39 22.5 73.5t57.5 51.5v2q-54 35 -54 92q0 55 49 95t126 40q70 0 115.5 -23t45.5 -57q0 -15 -11 -27t-29 -12q-19 0 -36.5 20t-40.5 40.5t-54 20.5q-39 0 -64 -25t-25 -60q0 -41 31 -67.5t83 -26.5h33
v-36h-33q-63 0 -95 -30t-32 -75q0 -48 30.5 -75.5t84.5 -27.5q29 0 52 13.5t35 29.5t28 29.5t33 13.5q16 0 27 -11.5t11 -26.5zM315 668q0 -24 -12 -53l-34 -81h-35q0 105 2 118q7 57 41 57q38 0 38 -41z" />
    <glyph glyph-name="etatonos" unicode="&#x3ae;" horiz-adv-x="564" 
d="M470 341v-568h-85v564q0 46 -24 75.5t-69 29.5q-42 0 -73 -34.5t-31 -75.5v-332h-85v399q0 62 -60 62l-1 18q37 10 81 10q56 0 62 -33q3 -13 3 -47h3q56 80 140 80q50 0 94.5 -35t44.5 -113zM369 668q0 -24 -12 -53l-34 -81h-35q0 105 2 118q7 57 41 57q38 0 38 -41z" />
    <glyph glyph-name="iotatonos" unicode="&#x3af;" horiz-adv-x="300" 
d="M320 73q0 -1 -2 -9q-9 -26 -37.5 -49.5t-73.5 -23.5q-56 0 -80 32t-24 98v278q0 62 -61 62v18q37 10 81 10q42 0 53.5 -16.5t11.5 -63.5v-316q0 -66 46 -66q36 0 69 48q3 4 7 6t7 0t3 -8zM200 668q0 -24 -12 -53l-34 -81h-35q0 105 2 118q7 57 41 57q38 0 38 -41z" />
    <glyph glyph-name="upsilondieresistonos" unicode="&#x3b0;" horiz-adv-x="531" 
d="M479 292q0 -114 -75 -207.5t-182 -93.5q-66 0 -92.5 38.5t-26.5 108.5v261q0 62 -61 62v18q37 10 81 10q13 0 23.5 -2.5t17.5 -4.5t11.5 -9t7 -10t4 -13t1.5 -12.5v-14.5v-14v-266q0 -105 77 -105q56 0 92.5 59t36.5 178q0 62 -15 103.5t-29.5 56t-44.5 36.5v18
q80 0 127 -51.5t47 -145.5zM318 668q0 -24 -12 -53l-34 -81h-35q1 105 2 118q4 57 43 57q36 0 36 -41zM202 590q0 -23 -16.5 -39.5t-39.5 -16.5t-39.5 16.5t-16.5 39.5t16.5 40t39.5 17t39.5 -17t16.5 -40zM447 590q0 -23 -16.5 -39.5t-39.5 -16.5t-39.5 16.5t-16.5 39.5
t16.5 40t39.5 17t39.5 -17t16.5 -40z" />
    <glyph glyph-name="alpha" unicode="&#x3b1;" horiz-adv-x="621" 
d="M359 213l16 53l-25 71q-40 114 -102 114q-56 0 -81.5 -60t-25.5 -151q0 -89 27 -150.5t74 -61.5q37 0 61.5 40.5t55.5 144.5zM598 102q0 -3 -1.5 -8t-1.5 -6q-11 -40 -30.5 -68.5t-46.5 -28.5q-30 0 -44.5 21t-29.5 64q-3 8 -4 12q-2 6 -8 23t-10 27q-31 -73 -80.5 -110
t-106.5 -37q-84 0 -133.5 65.5t-49.5 183.5q0 104 46 176.5t133 72.5q99 0 150 -131l13 -33l47 154h89l-88 -286l16 -45q30 -87 68 -87q10 0 19.5 6t14 11.5t11.5 16.5t8 13q6 7 12.5 4.5t6.5 -10.5z" />
    <glyph glyph-name="beta" unicode="&#x3b2;" horiz-adv-x="564" 
d="M423 202q0 173 -129 173h-56v38h79h19q53 30 53 145q0 59 -24.5 93.5t-69.5 34.5q-48 0 -77.5 -42.5t-29.5 -137.5v-301q0 -48 13.5 -84.5t35 -55.5t42.5 -28t41 -9q49 0 76 46.5t27 127.5zM512 211q0 -104 -52 -162.5t-131 -58.5q-49 0 -86.5 24t-51.5 52h-3v-53
q0 -43 3.5 -118.5t3.5 -86.5q0 -50 -50 -50q-49 0 -49 50q0 12 3.5 87t3.5 118v476q0 116 57.5 175t141.5 59q80 0 121.5 -49t41.5 -119q0 -48 -20 -91.5t-56 -62.5q58 -21 90.5 -71.5t32.5 -118.5z" />
    <glyph glyph-name="gamma" unicode="&#x3b3;" horiz-adv-x="450" 
d="M398 405q0 -133 -98 -300q-11 -18 -31 -58v-20q0 -124 -18 -219q-10 -50 -54 -50t-44 52q0 76 48 189q-1 130 -45 270t-85 173q-24 19 -61 19l-1 18q37 10 81 10q48 0 71 -35q36 -52 66 -152.5t37 -198.5q5 7 7 11q31 53 50 117t19 113q0 39 -11.5 70t-11.5 40
q0 15 10 25t27 10q44 0 44 -84z" />
    <glyph glyph-name="delta" unicode="&#x3b4;" horiz-adv-x="516" 
d="M375 202q0 108 -112 192l-20 15q-42 -23 -72 -74.5t-30 -118.5q0 -89 33.5 -138.5t83.5 -49.5q53 0 85 46.5t32 127.5zM464 212q0 -91 -56 -156t-153 -65q-86 0 -144.5 56.5t-58.5 159.5q0 77 47 136t118 84l-40 29q-75 55 -75 124q0 61 44.5 102.5t116.5 41.5
q61 0 100.5 -21.5t39.5 -49.5q0 -37 -36 -37q-16 0 -35.5 19t-44 38t-52.5 19q-30 0 -51 -22t-21 -49q0 -33 19.5 -55.5t69.5 -58.5l77 -56q135 -98 135 -239z" />
    <glyph glyph-name="epsilon" unicode="&#x3b5;" horiz-adv-x="466" 
d="M442 76q0 -36 -59 -60.5t-128 -24.5q-90 0 -146.5 39t-56.5 105q0 39 22.5 73.5t57.5 51.5v2q-54 35 -54 92q0 55 49 95t126 40q70 0 115.5 -23t45.5 -57q0 -15 -11 -27t-29 -12q-19 0 -36.5 20t-40.5 40.5t-54 20.5q-39 0 -64 -25t-25 -60q0 -41 31 -67.5t83 -26.5h33
v-36h-33q-63 0 -95 -30t-32 -75q0 -48 30.5 -75.5t84.5 -27.5q29 0 52 13.5t35 29.5t28 29.5t33 13.5q16 0 27 -11.5t11 -26.5z" />
    <glyph glyph-name="zeta" unicode="&#x3b6;" horiz-adv-x="494" 
d="M452 -62q0 -82 -47 -131t-133 -49q-52 0 -77.5 18.5t-25.5 44.5q0 18 12.5 31.5t31.5 13.5q18 0 52 -18.5t66 -18.5q42 0 64.5 25t22.5 66q0 36 -21.5 58t-63.5 22h-81q-180 0 -180 191q0 94 46 197t116 192h-8q-112 0 -112 68q0 28 24.5 53.5t37.5 22.5q6 -1 6 -6.5
t-7 -10.5q-26 -19 -26 -39q0 -34 68 -34q32 0 72 10q77 80 119 80q14 0 23.5 -8.5t9.5 -22.5q0 -36 -47 -65.5t-109 -41.5q-61 -68 -94.5 -167.5t-33.5 -189.5q0 -144 116 -144h36q68 0 105.5 -39t37.5 -108z" />
    <glyph glyph-name="eta" unicode="&#x3b7;" horiz-adv-x="564" 
d="M470 341v-568h-85v564q0 46 -24 75.5t-69 29.5q-42 0 -73 -34.5t-31 -75.5v-332h-85v399q0 62 -60 62l-1 18q37 10 81 10q56 0 62 -33q3 -13 3 -47h3q56 80 140 80q50 0 94.5 -35t44.5 -113z" />
    <glyph glyph-name="theta" unicode="&#x3b8;" horiz-adv-x="571" 
d="M286 372h93q-2 315 -129 315q-42 0 -68.5 -38.5t-26.5 -109.5q0 -167 131 -167zM559 322q0 -44 -10 -81h-18q0 33 -14.5 47t-47.5 14h-3q-10 -147 -65.5 -229t-144.5 -82q-70 0 -111.5 37t-41.5 101v27q0 35 -13.5 48.5t-47.5 13.5v18q37 10 81 10q65 0 65 -62v-46
q0 -110 80 -110q50 0 78 60.5t32 213.5h-62q-121 0 -174 51t-53 163q0 87 48 147.5t129 60.5q29 0 55 -8.5t53 -33t47 -62.5t33 -101.5t14 -146.5h11q80 0 80 -50z" />
    <glyph glyph-name="iota" unicode="&#x3b9;" horiz-adv-x="300" 
d="M320 73q0 -1 -2 -9q-9 -26 -37.5 -49.5t-73.5 -23.5q-56 0 -80 32t-24 98v278q0 62 -61 62v18q37 10 81 10q42 0 53.5 -16.5t11.5 -63.5v-316q0 -66 46 -66q36 0 69 48q3 4 7 6t7 0t3 -8z" />
    <glyph glyph-name="kappa" unicode="&#x3ba;" horiz-adv-x="545" 
d="M535 18v-18h-134l-121 198q-4 7 -8.5 13t-10 10.5t-8.5 7.5t-10.5 5t-9.5 3t-11 1.5t-10 0.5h-12h-12v-239h-85v399q0 62 -60 62l-1 18q37 10 81 10q56 0 62 -33q3 -13 3 -47v-132q40 0 52 6t34 34q11 14 31 44q2 3 13.5 20t16 23t16 20.5t18 21t18.5 16.5t21.5 14.5
t22 8.5t25.5 4q25 0 40 -13t15 -33q0 -17 -11.5 -29.5t-29.5 -12.5q-9 0 -21.5 4t-20.5 4q-48 0 -87 -60q-22 -34 -33 -48q-13 -18 -30 -30v-2q23 -2 49 -16t41 -38l99 -159q14 -23 28.5 -30.5t39.5 -7.5z" />
    <glyph glyph-name="lambda" unicode="&#x3bb;" horiz-adv-x="522" 
d="M512 18v-18h-134l-132 388h-4l-103 -309q-11 -31 2 -45.5t56 -14.5v-19h-187v19q34 1 49 14.5t27 46.5l139 369l-63 185q-11 33 -26.5 47.5t-46.5 14.5l-1 18q44 10 81 10q52 0 64 -33q7 -23 210 -618q19 -55 69 -55z" />
    <glyph glyph-name="nu" unicode="&#x3bd;" horiz-adv-x="484" 
d="M442 435q0 -38 -31 -106l-146 -329h-37l-140 399q-12 33 -29 47.5t-49 14.5l-1 18q43 10 75 10q64 0 77 -40q11 -33 17 -50l97 -278h3l70 171q19 45 19 85q0 19 -8 39t-8 31q0 18 13 30t31 12q21 0 34 -15t13 -39z" />
    <glyph glyph-name="xi" unicode="&#x3be;" horiz-adv-x="452" 
d="M452 -62q0 -82 -47 -131t-133 -49q-52 0 -78 18.5t-26 44.5q0 18 13 32t32 14q18 0 51.5 -19t65.5 -19q42 0 64.5 25t22.5 66q0 36 -21.5 58t-63.5 22h-76q-97 0 -140.5 48t-43.5 118q0 64 35 113t79 76v2q-45 47 -45 101q0 62 55 131q-82 7 -82 61q0 28 24 52.5t37 21.5
q6 -1 6 -6.5t-7 -10.5q-21 -15 -21 -36q0 -30 63 -30q23 0 33 1q42 36 84.5 59t64.5 23q14 0 23.5 -8.5t9.5 -22.5q0 -1 -0.5 -2t-0.5 -2q-4 -32 -60 -60t-113 -38q-49 -49 -49 -116q0 -43 30.5 -73t83.5 -30h18v-36h-18q-66 0 -113.5 -40.5t-47.5 -106.5q0 -51 30.5 -77.5
t85.5 -26.5h32q68 0 105.5 -39t37.5 -108z" />
    <glyph glyph-name="omicron" unicode="&#x3bf;" horiz-adv-x="516" 
d="M375 240q0 211 -117 211t-117 -211q0 -212 117 -212t117 212zM464 240q0 -101 -53.5 -175t-152.5 -74q-103 0 -154.5 66t-51.5 183q0 46 12.5 89.5t37 79.5t65 58t91.5 22q103 0 154.5 -66.5t51.5 -182.5z" />
    <glyph glyph-name="pi" unicode="&#x3c0;" horiz-adv-x="600" 
d="M557 479v-85h-117v-250q0 -73 16.5 -99t52.5 -26l1 -18q-15 -4 -34 -6.5t-30 -2.5l-12 -1q-78 0 -78 139q0 125 41 264h-157q-1 -12 -5 -55t-6 -63q0 -4 -5 -52.5t-7 -60.5q-5 -35 -10.5 -56.5t-17.5 -52.5t-34 -47t-53 -16q-23 0 -36.5 13t-13.5 31q0 30 25 40
q7 3 23.5 4t23.5 4q26 10 37 29t17 51q12 63 16 113q2 18 4.5 64t3.5 54h-31q-72 0 -126 -19l-7 19q20 38 77 59t104 23l47 3h291z" />
    <glyph glyph-name="rho" unicode="&#x3c1;" horiz-adv-x="551" 
d="M410 240q0 211 -117 211q-59 0 -88.5 -53.5t-29.5 -149.5q0 -118 38.5 -169t86.5 -51q55 0 82.5 56t27.5 156zM499 253q0 -129 -55.5 -196t-135.5 -67q-43 0 -78 22t-52 54h-3v-293h-85v467q0 113 56.5 181t150.5 68q101 0 151.5 -67t50.5 -169z" />
    <glyph glyph-name="sigma1" unicode="&#x3c2;" horiz-adv-x="441" 
d="M431 -62q0 -82 -47 -131t-133 -49q-52 0 -77.5 18.5t-25.5 44.5q0 18 12.5 31.5t31.5 13.5q18 0 52 -18.5t66 -18.5q42 0 64.5 25t22.5 66q0 36 -21.5 58t-63.5 22h-81q-179 0 -179 227q0 120 61.5 191t152.5 71q62 0 95.5 -22.5t33.5 -57.5q0 -15 -11 -27t-29 -12
t-30 12.5t-18.5 28t-22 28t-37.5 12.5q-53 0 -79.5 -53.5t-26.5 -147.5q0 -88 27 -126.5t84 -38.5h36q68 0 105.5 -39t37.5 -108z" />
    <glyph glyph-name="sigma" unicode="&#x3c3;" horiz-adv-x="526" 
d="M375 235q0 78 -30.5 131t-84.5 53q-55 0 -87 -50.5t-32 -133.5q0 -207 117 -207q63 0 90 58.5t27 148.5zM526 479v-85h-51q-33 0 -96 18l-3 -5q88 -73 88 -191q0 -90 -56 -157.5t-150 -67.5q-103 0 -154.5 64.5t-51.5 179.5q0 114 62.5 179t171.5 65h240z" />
    <glyph glyph-name="tau" unicode="&#x3c4;" horiz-adv-x="372" 
d="M357 479v-85h-136v-250q0 -73 16.5 -99t52.5 -26l1 -18q-15 -4 -34 -6.5t-31 -2.5l-12 -1q-78 0 -78 139q0 125 41 264h-162v18q20 30 71.5 46.5t93.5 18.5l41 2h136z" />
    <glyph glyph-name="upsilon" unicode="&#x3c5;" horiz-adv-x="531" 
d="M479 292q0 -114 -75 -207.5t-182 -93.5q-66 0 -92.5 38.5t-26.5 108.5v261q0 62 -61 62v18q37 10 81 10q13 0 23.5 -2.5t17.5 -4.5t11.5 -9t7 -10t4 -13t1.5 -12.5v-14.5v-14v-266q0 -105 77 -105q56 0 92.5 59t36.5 178q0 62 -15 103.5t-29.5 56t-44.5 36.5v18
q80 0 127 -51.5t47 -145.5z" />
    <glyph glyph-name="phi" unicode="&#x3c6;" horiz-adv-x="648" 
d="M507 240q0 88 -27.5 149.5t-82.5 61.5q-30 0 -30 -46v-376q140 8 140 211zM596 240q0 -99 -58.5 -172t-170.5 -77v-218h-85v218q-116 3 -173 68.5t-57 180.5q0 94 51 166.5t132 72.5v-18q-94 -40 -94 -221q0 -203 141 -211v380q0 42 17 61t53 19q119 0 181.5 -67
t62.5 -182z" />
    <glyph glyph-name="chi" unicode="&#x3c7;" horiz-adv-x="502" 
d="M492 -214v-18q-40 -10 -67 -10q-48 0 -65 35l-129 273h-3l-88 -232q-29 -76 -89 -76q-21 0 -33 11t-12 28q0 39 45 42q26 1 41 15t28 45l89 214l-135 286q-12 25 -18 35.5t-17.5 18.5t-28.5 8v18q36 10 67 10q48 0 65 -35l121 -256h3l80 215q28 76 90 76q21 0 33 -11
t12 -28q0 -39 -46 -42q-26 -1 -40.5 -14.5t-27.5 -45.5l-82 -197l143 -304q16 -35 28.5 -48t35.5 -13z" />
    <glyph glyph-name="psi" unicode="&#x3c8;" horiz-adv-x="728" 
d="M686 479l-1 -18q-60 0 -60 -62v-159q0 -116 -53.5 -181.5t-165.5 -67.5v-218h-85v218q-112 2 -165 67.5t-53 181.5v159q0 62 -61 62v18q37 10 81 10q42 0 53.5 -16.5t11.5 -63.5v-169q0 -207 133 -212v451h85v-451q134 5 134 212v169q0 47 11.5 63.5t53.5 16.5
q44 0 81 -10z" />
    <glyph glyph-name="omega" unicode="&#x3c9;" horiz-adv-x="715" 
d="M663 229q0 -117 -46.5 -177.5t-118.5 -60.5q-49 0 -86 30t-53 67h-4q-16 -37 -52.5 -67t-85.5 -30q-72 0 -118.5 60.5t-46.5 177.5q0 68 20 121.5t49.5 82t58.5 42.5t52 14v-18q-2 -2 -12.5 -13t-13 -14l-12.5 -15t-13 -18t-11 -19.5t-11.5 -24t-8.5 -26.5t-7 -32
t-4 -36.5t-2 -42.5q0 -97 26 -144.5t71 -47.5q33 0 57 28.5t24 71.5v235h85v-235q0 -43 24 -71.5t56 -28.5q45 0 71.5 47.5t26.5 144.5q0 22 -2 42.5t-4 36.5t-7 32t-8.5 26.5t-11.5 24t-11 19.5t-13 18l-12.5 15t-13 14t-12.5 13v18q23 0 52 -14t58.5 -42.5t49.5 -82
t20 -121.5z" />
    <glyph glyph-name="iotadieresis" unicode="&#x3ca;" horiz-adv-x="300" 
d="M320 73q0 -1 -2 -9q-9 -26 -37.5 -49.5t-73.5 -23.5q-56 0 -80 32t-24 98v278q0 62 -61 62v18q37 10 81 10q42 0 53.5 -16.5t11.5 -63.5v-316q0 -66 46 -66q36 0 69 48q3 4 7 6t7 0t3 -8zM82 590q0 -23 -16.5 -39.5t-39.5 -16.5t-39.5 16.5t-16.5 39.5t16.5 40t39.5 17
t39.5 -17t16.5 -40zM270 590q0 -23 -16.5 -39.5t-39.5 -16.5t-39.5 16.5t-16.5 39.5t16.5 40t39.5 17t39.5 -17t16.5 -40z" />
    <glyph glyph-name="upsilondieresis" unicode="&#x3cb;" horiz-adv-x="531" 
d="M479 292q0 -114 -75 -207.5t-182 -93.5q-66 0 -92.5 38.5t-26.5 108.5v261q0 62 -61 62v18q37 10 81 10q13 0 23.5 -2.5t17.5 -4.5t11.5 -9t7 -10t4 -13t1.5 -12.5v-14.5v-14v-266q0 -105 77 -105q56 0 92.5 59t36.5 178q0 62 -15 103.5t-29.5 56t-44.5 36.5v18
q80 0 127 -51.5t47 -145.5zM213 590q0 -23 -16.5 -39.5t-39.5 -16.5t-39.5 16.5t-16.5 39.5t16.5 40t39.5 17t39.5 -17t16.5 -40zM401 590q0 -23 -16.5 -39.5t-39.5 -16.5t-39.5 16.5t-16.5 39.5t16.5 40t39.5 17t39.5 -17t16.5 -40z" />
    <glyph glyph-name="omicrontonos" unicode="&#x3cc;" horiz-adv-x="516" 
d="M375 240q0 211 -117 211t-117 -211q0 -212 117 -212t117 212zM464 240q0 -101 -53.5 -175t-152.5 -74q-103 0 -154.5 66t-51.5 183q0 46 12.5 89.5t37 79.5t65 58t91.5 22q103 0 154.5 -66.5t51.5 -182.5zM330 668q0 -24 -12 -53l-34 -81h-35q0 105 2 118q7 57 41 57
q38 0 38 -41z" />
    <glyph glyph-name="upsilontonos" unicode="&#x3cd;" horiz-adv-x="531" 
d="M479 292q0 -114 -75 -207.5t-182 -93.5q-66 0 -92.5 38.5t-26.5 108.5v261q0 62 -61 62v18q37 10 81 10q13 0 23.5 -2.5t17.5 -4.5t11.5 -9t7 -10t4 -13t1.5 -12.5v-14.5v-14v-266q0 -105 77 -105q56 0 92.5 59t36.5 178q0 62 -15 103.5t-29.5 56t-44.5 36.5v18
q80 0 127 -51.5t47 -145.5zM318 668q0 -24 -12 -53l-34 -81h-35q0 105 2 118q7 57 41 57q38 0 38 -41z" />
    <glyph glyph-name="omegatonos" unicode="&#x3ce;" horiz-adv-x="715" 
d="M663 229q0 -117 -46.5 -177.5t-118.5 -60.5q-49 0 -86 30t-53 67h-4q-16 -37 -52.5 -67t-85.5 -30q-72 0 -118.5 60.5t-46.5 177.5q0 68 20 121.5t49.5 82t58.5 42.5t52 14v-18q-2 -2 -12.5 -13t-13 -14l-12.5 -15t-13 -18t-11 -19.5t-11.5 -24t-8.5 -26.5t-7 -32
t-4 -36.5t-2 -42.5q0 -97 26 -144.5t71 -47.5q33 0 57 28.5t24 71.5v235h85v-235q0 -43 24 -71.5t56 -28.5q45 0 71.5 47.5t26.5 144.5q0 22 -2 42.5t-4 36.5t-7 32t-8.5 26.5t-11.5 24t-11 19.5t-13 18l-12.5 15t-13 14t-12.5 13v18q23 0 52 -14t58.5 -42.5t49.5 -82
t20 -121.5zM431 668q0 -24 -12 -53l-34 -81h-35q0 105 2 118q7 57 41 57q38 0 38 -41z" />
    <glyph glyph-name="Iegrave" unicode="&#x400;" horiz-adv-x="576" 
d="M539 178v-178h-506v19q43 0 66.5 19t23.5 52v515q0 34 -23.5 53t-66.5 19v19h483v-170h-18q-34 86 -61.5 109t-98.5 23h-37.5t-29 -1.5t-24.5 -4.5t-15 -9t-11.5 -15.5t-2.5 -22.5v-220h83q35 0 62.5 25.5t27.5 68.5h18v-225h-18q0 43 -27.5 68.5t-62.5 25.5h-83v-258
q0 -16 5 -25.5t10.5 -15t22.5 -8t29 -3t41 -0.5h12q81 0 113.5 26t68.5 114h19zM245 848l93 -115h-32l-112 71q-20 13 -20 34q0 14 9 23t23 9q21 0 39 -22z" />
    <glyph glyph-name="Io" unicode="&#x401;" horiz-adv-x="576" 
d="M539 178v-178h-506v19q43 0 66.5 19t23.5 52v515q0 34 -23.5 53t-66.5 19v19h483v-170h-18q-34 86 -61.5 109t-98.5 23h-37.5t-29 -1.5t-24.5 -4.5t-15 -9t-11.5 -15.5t-2.5 -22.5v-220h83q35 0 62.5 25.5t27.5 68.5h18v-225h-18q0 43 -27.5 68.5t-62.5 25.5h-83v-258
q0 -16 5 -25.5t10.5 -15t22.5 -8t29 -3t41 -0.5h12q81 0 113.5 26t68.5 114h19zM261 788q0 -23 -16.5 -39.5t-39.5 -16.5t-39.5 16.5t-16.5 39.5t16.5 40t39.5 17t39.5 -17t16.5 -40zM449 788q0 -23 -16.5 -39.5t-39.5 -16.5t-39.5 16.5t-16.5 39.5t16.5 40t39.5 17
t39.5 -17t16.5 -40z" />
    <glyph glyph-name="Dje" unicode="&#x402;" horiz-adv-x="714" 
d="M667 211q0 -82 -53 -183t-121 -156q-8 -6 -13.5 0t1.5 14q83 104 83 278q0 104 -34 155t-109 51q-13 0 -26.5 -1.5t-23 -3.5t-23 -6t-19 -6t-20.5 -8t-18 -7l1 -248q0 -33 24 -52t67 -19v-19h-275v19q43 0 66 19t23 52v515q0 53 -49 53h-15q-29 0 -58 -34.5t-46 -97.5
h-20v170h540v-170h-20q-29 80 -53 106t-83 26h-44q-29 0 -43.5 -11t-14.5 -42v-229q104 47 169 47q110 0 158.5 -52.5t48.5 -159.5z" />
    <glyph glyph-name="Gje" unicode="&#x403;" horiz-adv-x="526" 
d="M517 696v-170h-20q-29 80 -53 106t-83 26h-78q-35 0 -50.5 -10.5t-15.5 -42.5v-515q0 -33 23.5 -52t66.5 -19v-19h-274v19q43 0 66.5 19t23.5 52v515q0 34 -23.5 53t-66.5 19v19h484zM441 838q0 -21 -20 -34l-112 -71h-32l93 115q18 22 39 22q13 0 22.5 -9t9.5 -23z" />
    <glyph glyph-name="Ecyril" unicode="&#x404;" horiz-adv-x="629" 
d="M597 105q0 -5 -5 -12q-35 -51 -93.5 -79.5t-127.5 -28.5q-61 0 -114.5 19.5t-100 60t-73.5 113.5t-27 171q0 154 88 258t225 104q80 0 147 -46q22 6 37 31h19v-218h-19q-66 195 -185 195q-85 0 -143 -81.5t-64 -215.5h281v-38h-282q3 -132 65.5 -219t153.5 -88
q105 -1 188 77q12 10 21 8t9 -11z" />
    <glyph glyph-name="Dze" unicode="&#x405;" horiz-adv-x="552" 
d="M496 184q0 -85 -65.5 -142t-163.5 -57q-63 0 -123.5 35t-90.5 102q-2 4 -2 10q0 10 8.5 11.5t13.5 -6.5q71 -109 191 -109q62 0 100.5 38t38.5 99q0 74 -100 127l-134 71q-55 29 -84 67.5t-29 99.5q0 78 59 129.5t140 51.5q21 0 39.5 -3t41 -11.5t29 -11.5t31.5 -15
q9 5 17.5 15t12.5 18l4 8h18v-222h-18q-40 98 -59 125q-42 58 -112 59q-55 0 -87 -32.5t-32 -76.5q0 -34 15 -59t58 -48l144 -76q63 -33 101 -83.5t38 -113.5z" />
    <glyph glyph-name="Icyril" unicode="&#x406;" horiz-adv-x="340" 
d="M307 19v-19h-274v19q43 0 66.5 19t23.5 52v515q0 34 -23.5 53t-66.5 19v19h274v-19q-43 0 -66.5 -19t-23.5 -53v-515q0 -33 23.5 -52t66.5 -19z" />
    <glyph glyph-name="Yi" unicode="&#x407;" horiz-adv-x="340" 
d="M307 19v-19h-274v19q43 0 66.5 19t23.5 52v515q0 34 -23.5 53t-66.5 19v19h274v-19q-43 0 -66.5 -19t-23.5 -53v-515q0 -33 23.5 -52t66.5 -19zM132 789q0 -23 -16.5 -39.5t-39.5 -16.5t-39.5 16.5t-16.5 39.5t16.5 40t39.5 17t39.5 -17t16.5 -40zM320 789
q0 -23 -16.5 -39.5t-39.5 -16.5t-39.5 16.5t-16.5 39.5t16.5 40t39.5 17t39.5 -17t16.5 -40z" />
    <glyph glyph-name="Je" unicode="&#x408;" horiz-adv-x="406" 
d="M383 696v-18q-43 0 -67.5 -19.5t-24.5 -53.5v-417q0 -90 -40.5 -146.5t-122.5 -56.5q-50 0 -86 24.5t-36 68.5q0 28 16.5 43t38.5 15q20 0 33.5 -12.5t14.5 -35.5q0 -7 -1.5 -20.5t-1.5 -20.5q0 -31 30 -31q62 0 62 92v497q0 34 -24 53.5t-67 19.5v18h276z" />
    <glyph glyph-name="Lje" unicode="&#x409;" horiz-adv-x="992" 
d="M851 189q0 64 -37 109t-103 47l-110 3v-247q0 -41 12.5 -52t51.5 -11h48q76 0 107 44t31 107zM955 192q0 -79 -62.5 -135.5t-178.5 -56.5h-296v19q42 0 65.5 19t23.5 52v515q0 32 -15 42.5t-50 10.5h-106q-40 0 -52.5 -12t-13.5 -41q-5 -162 -9 -229q-3 -72 -14 -149
q-18 -114 -41 -160q-43 -81 -125 -82q-31 0 -48.5 14.5t-17.5 38.5q0 34 34 47q8 3 40.5 5t42.5 7q47 24 67 126q10 49 19 153l13 231q1 33 -23 51.5t-67 18.5v19h550v-19q-43 0 -66.5 -19t-23.5 -53v-219h130q115 0 169.5 -54.5t54.5 -139.5z" />
    <glyph glyph-name="Nje" unicode="&#x40a;" horiz-adv-x="1021" 
d="M880 189q0 64 -37 109t-103 47l-110 3v-247q0 -41 12.5 -52t51.5 -11h48q76 0 107 44t31 107zM984 192q0 -79 -62.5 -135.5t-178.5 -56.5h-296v19q42 0 65.5 19t23.5 52v258h-319v-258q0 -33 24 -52t67 -19v-19h-275v19q43 0 66.5 19t23.5 52v515q0 34 -23.5 53t-66.5 19
v19h275v-19q-43 0 -67 -19t-24 -53v-219h319v219q0 34 -23.5 53t-65.5 19v19h273v-19q-43 0 -66.5 -19t-23.5 -53v-219h130q115 0 169.5 -54.5t54.5 -139.5z" />
    <glyph glyph-name="Tshe" unicode="&#x40b;" horiz-adv-x="798" 
d="M765 19v-19h-273v19q42 0 65.5 19t23.5 52v145q0 75 -32 105t-107 30q-66 0 -151 -32l1 -248q0 -33 24 -52t67 -19v-19h-275v19q43 0 66 19t23 52v515q0 53 -49 53h-15q-29 0 -58 -34.5t-46 -97.5h-20v170h540v-170h-20q-29 80 -53 106t-83 26h-44q-29 0 -43.5 -11
t-14.5 -42v-229q109 49 189 49q195 0 195 -180v-155q0 -33 23.5 -52t66.5 -19z" />
    <glyph glyph-name="Kje" unicode="&#x40c;" horiz-adv-x="703" 
d="M536 838q0 -21 -20 -34l-112 -71h-32l93 115q18 22 39 22q14 0 23 -9t9 -23zM683 19v-19h-162l-203 295q-6 8 -12 15.5t-11.5 12.5t-12 9t-11 6.5t-11.5 4.5l-10.5 3t-10 1.5t-8.5 0.5h-8h-6v-258q0 -33 23.5 -52t66.5 -19v-19h-274v19q43 0 66.5 19t23.5 52v515
q0 34 -23.5 53t-66.5 19v19h274v-19q-43 0 -66.5 -19t-23.5 -53v-220h80q13 0 31.5 11t31.5 33l66 120q25 46 37.5 66.5t33.5 47.5t41.5 37.5t46.5 10.5q30 0 50.5 -14t20.5 -42q0 -21 -17.5 -36.5t-41.5 -15.5q-11 0 -29 4t-30 4q-23 0 -44.5 -28t-46.5 -75
q-20 -40 -47 -89q-16 -29 -42 -45v-3q26 -12 42 -34l139 -200q25 -36 39 -54t44 -40t61 -24z" />
    <glyph glyph-name="Iigrave" unicode="&#x40d;" horiz-adv-x="800" 
d="M767 19v-19h-274v19q43 0 66.5 19t23.5 52v424h-3l-363 -392v-32q0 -33 23.5 -52t66.5 -19v-19h-274v19q43 0 66.5 19t23.5 52v515q0 34 -23.5 53t-66.5 19v19h274v-19q-43 0 -66.5 -19t-23.5 -53v-427h3l363 392v35q0 34 -23.5 53t-66.5 19v19h274v-19q-43 0 -66.5 -19
t-23.5 -53v-515q0 -33 23.5 -52t66.5 -19zM334 847l93 -115h-32l-112 71q-20 13 -20 34q0 13 9.5 22.5t22.5 9.5q21 0 39 -22z" />
    <glyph glyph-name="Ucyrilbreve" unicode="&#x40e;" horiz-adv-x="661" 
d="M652 696v-19q-42 0 -69 -22t-49 -79l-161 -422q-65 -169 -174 -169q-30 0 -51 13.5t-21 41.5q0 20 14.5 34.5t32.5 14.5q10 0 30 -6t31 -6q32 0 58 17.5t38 50.5l12 35l-222 406q-27 50 -51.5 70.5t-60.5 20.5v19h269v-19q-15 0 -28.5 -4t-25 -14t-11 -27.5t13.5 -44.5
l156 -288h3l99 280q6 16 8.5 26.5t3 25.5t-5.5 24t-22 15.5t-42 6.5v19h225zM449 870h35q0 -53 -34 -95t-91 -42t-91 42t-34 95h35q0 -28 25 -52.5t65 -24.5t65 24.5t25 52.5z" />
    <glyph glyph-name="Dzhe" unicode="&#x40f;" horiz-adv-x="748" 
d="M715 19v-19h-186q-24 0 -41.5 -5.5t-38.5 -22.5t-37.5 -55t-27.5 -97h-20q-11 59 -27.5 97t-37.5 55t-38.5 22.5t-41.5 5.5h-186v19q43 0 66.5 19t23.5 53v515q0 33 -23.5 52t-66.5 19v19h275v-19q-43 0 -67 -19t-24 -52v-515q0 -32 15.5 -42.5t50.5 -10.5h183
q35 0 50 10.5t15 42.5v515q0 33 -23.5 52t-65.5 19v19h273v-19q-43 0 -66.5 -19t-23.5 -52v-515q0 -34 23.5 -53t66.5 -19z" />
    <glyph glyph-name="Acyril" unicode="&#x410;" horiz-adv-x="713" 
d="M229 282h212l-103 265h-9zM703 19v-19h-236v19q40 0 49 28.5t-8 62.5l-52 134h-241l-48 -127q-9 -24 -11.5 -39.5t1 -30t20 -21.5t46.5 -7v-19h-213v19q80 0 118 101l221 583h30l231 -593q12 -30 20 -46t27 -30.5t46 -14.5z" />
    <glyph glyph-name="Be" unicode="&#x411;" horiz-adv-x="627" 
d="M476 186q0 77 -39 117t-111 42l-109 3v-258q0 -35 18.5 -43.5t83.5 -8.5q77 0 117 33.5t40 114.5zM580 199q0 -97 -69 -148t-181 -51h-297v19q43 0 66.5 19t23.5 52v515q0 34 -23.5 53t-66.5 19v19h484v-170h-20q-29 80 -53 106.5t-83 26.5h-78q-35 0 -50.5 -11
t-15.5 -43v-220h123q240 0 240 -186z" />
    <glyph glyph-name="Ve" unicode="&#x412;" horiz-adv-x="608" 
d="M457 186q0 67 -38.5 111.5t-114.5 47.5l-87 3v-258q0 -35 18.5 -43.5t83.5 -8.5q138 0 138 148zM428 528q0 62 -34.5 96t-89.5 34h-21q-35 0 -50.5 -10.5t-15.5 -42.5v-220h68q71 0 107 41.5t36 101.5zM561 199q0 -86 -61.5 -142.5t-169.5 -56.5h-297v19q43 0 66.5 19
t23.5 52v515q0 34 -23.5 53t-66.5 19v19h287q94 0 145.5 -43.5t51.5 -118.5q0 -46 -27.5 -88.5t-79.5 -64.5v-2q71 -19 111 -69.5t40 -110.5z" />
    <glyph glyph-name="Ge" unicode="&#x413;" horiz-adv-x="526" 
d="M517 696v-170h-20q-29 80 -53 106t-83 26h-78q-35 0 -50.5 -10.5t-15.5 -42.5v-515q0 -33 23.5 -52t66.5 -19v-19h-274v19q43 0 66.5 19t23.5 52v515q0 34 -23.5 53t-66.5 19v19h484z" />
    <glyph glyph-name="De" unicode="&#x414;" horiz-adv-x="714" 
d="M497 87v518q0 31 -22 42t-69 11h-82q-44 0 -62 -10.5t-19 -42.5q-1 -14 -3.5 -101t-4.5 -113q-19 -272 -77 -351v-2h257q45 0 63.5 9t18.5 40zM681 19v-199h-19q-11 58 -29.5 96.5t-43 55.5t-44.5 22.5t-44 5.5h-298q-24 0 -44 -5.5t-44.5 -22.5t-43 -55.5t-29.5 -96.5
h-19v199q144 0 174 377q7 96 7 209q0 33 -24 52.5t-66 19.5v19h567v-19q-43 0 -66.5 -19.5t-23.5 -52.5v-515q0 -33 23.5 -52t66.5 -19z" />
    <glyph glyph-name="Ie" unicode="&#x415;" horiz-adv-x="576" 
d="M539 178v-178h-506v19q43 0 66.5 19t23.5 52v515q0 34 -23.5 53t-66.5 19v19h483v-170h-18q-34 86 -61.5 109t-98.5 23h-37.5t-29 -1.5t-24.5 -4.5t-15 -9t-11.5 -15.5t-2.5 -22.5v-220h83q35 0 62.5 25.5t27.5 68.5h18v-225h-18q0 43 -27.5 68.5t-62.5 25.5h-83v-258
q0 -16 5 -25.5t10.5 -15t22.5 -8t29 -3t41 -0.5h12q81 0 113.5 26t68.5 114h19z" />
    <glyph glyph-name="Zhe" unicode="&#x416;" horiz-adv-x="1002" 
d="M979 19v-19h-164l-201 295q-35 53 -65 53v-258q0 -33 23.5 -52t65.5 -19v-19h-274v19q42 0 65.5 19t23.5 52v258q-30 0 -65 -53l-201 -295h-164v19q31 2 61 24t44 40t39 54l139 200q16 22 42 34v3q-26 16 -42 45l-47 89q-16 30 -27.5 49t-29.5 36.5t-34 17.5
q-12 0 -30 -4t-29 -4q-24 0 -41.5 15.5t-17.5 36.5q0 28 20.5 42t50.5 14q26 0 46.5 -10.5t41.5 -37.5t33.5 -47.5t37.5 -66.5q29 -56 66 -120q13 -22 31.5 -33t32.5 -11h43v220q0 34 -23.5 53.5t-65.5 19.5v18h274v-18q-42 0 -65.5 -19.5t-23.5 -53.5v-220h43q14 0 32.5 11
t31.5 33l66 120q25 46 37.5 66.5t33.5 47.5t41.5 37.5t46.5 10.5q30 0 50.5 -14t20.5 -42q0 -21 -17.5 -36.5t-41.5 -15.5q-11 0 -29 4t-30 4q-23 0 -44.5 -28t-46.5 -75q-20 -40 -47 -89q-16 -29 -42 -45v-3q26 -12 42 -34l139 -200q25 -36 39 -54t44 -40t61 -24z" />
    <glyph glyph-name="Ze" unicode="&#x417;" horiz-adv-x="566" 
d="M520 207q0 -99 -74 -160.5t-179 -61.5q-73 0 -130 30.5t-88 70.5q-8 9 -8 19q0 9 8 11t18 -7q88 -79 184 -79q79 0 122 49.5t43 114.5q0 74 -53 114t-135 40v37q83 0 128 45.5t45 105.5q0 62 -33 99.5t-89 37.5q-60 0 -112 -49t-82 -146h-19v218h19q15 -25 37 -31
q20 13 67.5 29.5t98.5 16.5q91 0 144.5 -50.5t53.5 -130.5q0 -88 -75 -148v-2q51 -25 80 -70.5t29 -102.5z" />
    <glyph glyph-name="Ii" unicode="&#x418;" horiz-adv-x="800" 
d="M767 19v-19h-274v19q43 0 66.5 19t23.5 52v424h-3l-363 -392v-32q0 -33 23.5 -52t66.5 -19v-19h-274v19q43 0 66.5 19t23.5 52v515q0 34 -23.5 53t-66.5 19v19h274v-19q-43 0 -66.5 -19t-23.5 -53v-427h3l363 392v35q0 34 -23.5 53t-66.5 19v19h274v-19q-43 0 -66.5 -19
t-23.5 -53v-515q0 -33 23.5 -52t66.5 -19z" />
    <glyph glyph-name="Iibreve" unicode="&#x419;" horiz-adv-x="800" 
d="M767 19v-19h-274v19q43 0 66.5 19t23.5 52v424h-3l-363 -392v-32q0 -33 23.5 -52t66.5 -19v-19h-274v19q43 0 66.5 19t23.5 52v515q0 34 -23.5 53t-66.5 19v19h274v-19q-43 0 -66.5 -19t-23.5 -53v-427h3l363 392v35q0 34 -23.5 53t-66.5 19v19h274v-19q-43 0 -66.5 -19
t-23.5 -53v-515q0 -33 23.5 -52t66.5 -19zM490 870h35q0 -53 -34 -95t-91 -42t-91 42t-34 95h35q0 -28 25 -52.5t65 -24.5t65 24.5t25 52.5z" />
    <glyph glyph-name="Ka" unicode="&#x41a;" horiz-adv-x="703" 
d="M683 19v-19h-162l-203 295q-6 8 -12 15.5t-11.5 12.5t-12 9t-11 6.5t-11.5 4.5l-10.5 3t-10 1.5t-8.5 0.5h-8h-6v-258q0 -33 23.5 -52t66.5 -19v-19h-274v19q43 0 66.5 19t23.5 52v515q0 34 -23.5 53t-66.5 19v19h274v-19q-43 0 -66.5 -19t-23.5 -53v-220h80
q13 0 31.5 11t31.5 33l66 120q25 46 37.5 66.5t33.5 47.5t41.5 37.5t46.5 10.5q30 0 50.5 -14t20.5 -42q0 -21 -17.5 -36.5t-41.5 -15.5q-11 0 -29 4t-30 4q-23 0 -44.5 -28t-46.5 -75q-20 -40 -47 -89q-16 -29 -42 -45v-3q26 -12 42 -34l139 -200q25 -36 39 -54t44 -40
t61 -24z" />
    <glyph glyph-name="El" unicode="&#x41b;" horiz-adv-x="732" 
d="M699 19v-19h-273v19q42 0 65.5 19t23.5 52v515q0 32 -15 42.5t-50 10.5h-114q-40 0 -52.5 -12t-13.5 -41q-5 -162 -9 -229q-3 -72 -14 -149q-18 -114 -41 -160q-43 -81 -125 -82q-31 0 -48.5 14.5t-17.5 38.5q0 34 34 47q8 3 40.5 5t42.5 7q47 24 67 126q10 49 19 153
l13 231q1 33 -23 51.5t-67 18.5v19h558v-19q-43 0 -66.5 -19t-23.5 -53v-515q0 -33 23.5 -52t66.5 -19z" />
    <glyph glyph-name="Em" unicode="&#x41c;" horiz-adv-x="908" 
d="M875 19v-19h-276v19q43 0 67.5 19t24.5 52v522h-4l-252 -589q-4 -8 -10 -8t-9 8l-252 589h-4v-522q0 -33 23.5 -52t65.5 -19v-19h-216v19q43 0 66.5 19t23.5 52v515q0 34 -23.5 53t-66.5 19v19h197l225 -524h3l225 524h192v-19q-43 0 -66.5 -19t-23.5 -53v-515
q0 -33 23.5 -52t66.5 -19z" />
    <glyph glyph-name="En" unicode="&#x41d;" horiz-adv-x="768" 
d="M735 19v-19h-273v19q42 0 65.5 19t23.5 52v258h-334v-258q0 -33 24 -52t67 -19v-19h-275v19q43 0 66.5 19t23.5 52v515q0 34 -23.5 53t-66.5 19v19h275v-19q-43 0 -67 -19t-24 -53v-220h334v220q0 34 -23.5 53t-65.5 19v19h273v-19q-43 0 -66.5 -19t-23.5 -53v-515
q0 -33 23.5 -52t66.5 -19z" />
    <glyph glyph-name="Ocyril" unicode="&#x41e;" horiz-adv-x="709" 
d="M550 348q0 85 -18.5 155.5t-64 120t-112.5 49.5t-112.5 -49.5t-64 -120t-18.5 -155.5t18.5 -155.5t64 -120t112.5 -49.5t112.5 49.5t64 120t18.5 155.5zM653 348q0 -90 -35 -172t-104.5 -136.5t-158.5 -54.5q-143 0 -221 98.5t-78 264.5q0 90 35 172t105 136.5t159 54.5
q142 0 220 -98.5t78 -264.5z" />
    <glyph glyph-name="Pecyril" unicode="&#x41f;" horiz-adv-x="748" 
d="M715 19v-19h-273v19q42 0 65.5 19t23.5 52v515q0 32 -15 42.5t-50 10.5h-183q-35 0 -50.5 -10.5t-15.5 -42.5v-515q0 -33 24 -52t67 -19v-19h-275v19q43 0 66.5 19t23.5 52v515q0 34 -23.5 53t-66.5 19v19h682v-19q-43 0 -66.5 -19t-23.5 -53v-515q0 -33 23.5 -52
t66.5 -19z" />
    <glyph glyph-name="Er" unicode="&#x420;" horiz-adv-x="602" 
d="M457 493q0 63 -33 108.5t-99 50.5q-108 8 -108 -47v-269h68q83 0 127.5 39.5t44.5 117.5zM556 505q0 -95 -67 -150t-181 -55h-91v-210q0 -33 24 -52t67 -19v-19h-275v19q43 0 66.5 19t23.5 52v515q0 34 -23.5 53.5t-66.5 19.5v18h300q107 0 165 -56.5t58 -134.5z" />
    <glyph glyph-name="Es" unicode="&#x421;" horiz-adv-x="629" 
d="M597 105q0 -5 -5 -12q-35 -51 -93.5 -79.5t-127.5 -28.5q-61 0 -114.5 19.5t-100 60t-73.5 113.5t-27 171q0 154 88 258t225 104q80 0 147 -46q22 6 37 31h19v-218h-19q-66 195 -185 195q-89 0 -148.5 -90t-59.5 -234q0 -136 63 -226.5t156 -91.5q105 -1 188 77
q12 10 21 8t9 -11z" />
    <glyph glyph-name="Te" unicode="&#x422;" horiz-adv-x="549" 
d="M540 696v-170h-20q-29 80 -53 106.5t-83 26.5h-5q-57 0 -57 -64v-505q0 -33 24 -52t67 -19v-19h-275v19q43 0 66 19t23 52v505q0 64 -55 64h-8q-58 0 -81.5 -26t-53.5 -107h-20v170h531z" />
    <glyph glyph-name="Ucyril" unicode="&#x423;" horiz-adv-x="661" 
d="M652 696v-19q-42 0 -69 -22t-49 -79l-161 -422q-65 -169 -174 -169q-30 0 -51 13.5t-21 41.5q0 20 14.5 34.5t32.5 14.5q10 0 30 -6t31 -6q32 0 58 17.5t38 50.5l12 35l-222 406q-27 50 -51.5 70.5t-60.5 20.5v19h269v-19q-15 0 -28.5 -4t-25 -14t-11 -27.5t13.5 -44.5
l156 -288h3l99 280q6 16 8.5 26.5t3 25.5t-5.5 24t-22 15.5t-42 6.5v19h225z" />
    <glyph glyph-name="Ef" unicode="&#x424;" horiz-adv-x="864" 
d="M385 38v564q-109 -7 -167 -81t-58 -201q0 -78 16.5 -133t48.5 -85.5t70.5 -45t89.5 -18.5zM704 320q0 127 -58.5 201t-166.5 81v-564q51 4 89.5 18.5t70.5 45t48.5 85.5t16.5 133zM808 320q0 -136 -92.5 -224.5t-236.5 -95.5v-20q0 -33 23.5 -52t66.5 -19v-19h-274v19
q42 0 66 20t24 51v20q-145 7 -237 95.5t-92 224.5q0 141 87 226.5t242 92.5v19q0 34 -23.5 53t-66.5 19v19h274v-19q-43 0 -66.5 -19t-23.5 -53v-19q154 -7 241.5 -92.5t87.5 -226.5z" />
    <glyph glyph-name="Kha" unicode="&#x425;" horiz-adv-x="658" 
d="M649 19v-19h-239v19q40 3 42.5 19t-26.5 64l-115 194h-3l-117 -194q-26 -38 -20 -60.5t54 -22.5v-19h-216v19q44 3 73.5 26.5t66.5 77.5l141 209l-173 287q-36 59 -108 59v18h248v-18q-21 0 -30 -7t-7 -21.5t9.5 -30t21.5 -40.5l96 -164h4l104 177q26 44 18.5 65
t-50.5 21v18h226v-19q-50 0 -81.5 -25t-65.5 -76l-134 -196l148 -246q39 -66 63 -89t70 -26z" />
    <glyph glyph-name="Tse" unicode="&#x426;" horiz-adv-x="748" 
d="M715 19v-199h-19q-11 58 -29.5 96.5t-43 55.5t-44.5 22.5t-44 5.5h-502v19q43 0 66.5 19t23.5 53v515q0 33 -23.5 52t-66.5 19v19h275v-19q-43 0 -67 -19t-24 -52v-515q0 -32 15.5 -42.5t50.5 -10.5h183q35 0 50 10.5t15 42.5v515q0 33 -23.5 52t-65.5 19v19h273v-19
q-43 0 -66.5 -19t-23.5 -52v-515q0 -33 24 -52.5t66 -19.5z" />
    <glyph glyph-name="Che" unicode="&#x427;" horiz-adv-x="729" 
d="M696 19v-19h-274v19q43 0 66.5 19t23.5 52v255q-107 -66 -237 -66q-70 0 -116 38.5t-46 118.5v169q0 34 -23.5 53t-66.5 19v19h274v-19q-43 0 -66.5 -19t-23.5 -53v-162q0 -52 22.5 -81.5t57 -35t77 2.5t79.5 23t69 34v219q0 34 -23.5 53t-66.5 19v19h274v-19
q-43 0 -66.5 -19t-23.5 -53v-515q0 -33 23.5 -52t66.5 -19z" />
    <glyph glyph-name="Sha" unicode="&#x428;" horiz-adv-x="1028" 
d="M995 19v-19h-962v19q43 0 66.5 19t23.5 53v515q0 33 -23.5 52t-66.5 19v19h275v-19q-43 0 -67 -19t-24 -52v-515q0 -32 15.5 -42.5t50.5 -10.5h119q35 0 50 10t15 42v515q0 34 -23.5 53t-66.5 19v19h274v-19q-43 0 -66.5 -19t-23.5 -53v-515q0 -32 15 -42t50 -10h120
q35 0 50 10.5t15 42.5v515q0 33 -23.5 52t-65.5 19v19h273v-19q-43 0 -66.5 -19t-23.5 -52v-515q0 -34 23.5 -53t66.5 -19z" />
    <glyph glyph-name="Shta" unicode="&#x429;" horiz-adv-x="1028" 
d="M995 19v-199h-19q-11 58 -29.5 96.5t-43 55.5t-44.5 22.5t-44 5.5h-782v19q43 0 66.5 19t23.5 53v515q0 33 -23.5 52t-66.5 19v19h275v-19q-43 0 -67 -19t-24 -52v-515q0 -32 15.5 -42.5t50.5 -10.5h119q35 0 50 10t15 42v515q0 34 -23.5 53t-66.5 19v19h274v-19
q-43 0 -66.5 -19t-23.5 -53v-515q0 -32 15 -42t50 -10h120q35 0 50 10.5t15 42.5v515q0 33 -23.5 52t-65.5 19v19h273v-19q-43 0 -66.5 -19t-23.5 -52v-515q0 -33 24 -52.5t66 -19.5z" />
    <glyph glyph-name="YerFat" unicode="&#x42a;" horiz-adv-x="682" 
d="M541 189q0 64 -37.5 109.5t-102.5 46.5l-110 3v-247q0 -41 12.5 -52t51.5 -11h48q76 0 107 44t31 107zM645 192q0 -79 -62.5 -135.5t-178.5 -56.5h-296v19q42 0 65.5 19t23.5 52v515q0 53 -46 53h-18q-29 0 -58 -34.5t-46 -97.5h-20v170h372v-19q-43 0 -66.5 -19
t-23.5 -53v-219h130q115 0 169.5 -54.5t54.5 -139.5z" />
    <glyph glyph-name="YeriThin" unicode="&#x42b;" horiz-adv-x="922" 
d="M466 189q0 64 -37.5 109.5t-102.5 46.5l-110 3v-247q0 -41 12.5 -52t51.5 -11h48q76 0 107 44t31 107zM570 192q0 -79 -62.5 -135.5t-178.5 -56.5h-296v19q42 0 65.5 19t23.5 52v515q0 34 -23 53t-66 19v19h274v-19q-43 0 -66.5 -19t-23.5 -53l-1 -219h130
q115 0 169.5 -54.5t54.5 -139.5zM889 19v-19h-274v19q43 0 66.5 19t23.5 52v515q0 34 -23.5 53t-66.5 19v19h274v-19q-43 0 -66.5 -19t-23.5 -53v-515q0 -33 23.5 -52t66.5 -19z" />
    <glyph glyph-name="YerThin" unicode="&#x42c;" horiz-adv-x="607" 
d="M466 189q0 64 -37.5 109.5t-102.5 46.5l-110 3v-247q0 -41 12.5 -52t51.5 -11h48q76 0 107 44t31 107zM570 192q0 -79 -62.5 -135.5t-178.5 -56.5h-296v19q42 0 65.5 19t23.5 52v515q0 34 -23 53t-66 19v19h274v-19q-43 0 -66.5 -19t-23.5 -53l-1 -219h130
q115 0 169.5 -54.5t54.5 -139.5z" />
    <glyph glyph-name="Ecyrilrev" unicode="&#x42d;" horiz-adv-x="629" 
d="M573 373q0 -97 -29 -174.5t-76 -122.5t-101 -68t-109 -23q-69 0 -127.5 28.5t-93.5 79.5q-5 7 -5 12q0 9 9 11t21 -8q82 -77 188 -77q97 0 157 90t62 217h-282v38h281q-6 138 -57 217.5t-138 79.5q-131 0 -197 -195h-19v218h19q7 -11 16 -19t15 -10l6 -2q19 13 65.5 29.5
t93.5 16.5q138 0 219.5 -92.5t81.5 -245.5z" />
    <glyph glyph-name="Iu" unicode="&#x42e;" horiz-adv-x="1027" 
d="M868 348q0 85 -18.5 155.5t-64 120t-112.5 49.5t-112.5 -49.5t-64 -120t-18.5 -155.5t18.5 -155.5t64 -120t112.5 -49.5t112.5 49.5t64 120t18.5 155.5zM971 348q0 -90 -35 -172t-104.5 -136.5t-158.5 -54.5q-143 0 -221 98.5t-78 264.5h-157v-258q0 -33 24 -52t67 -19
v-19h-275v19q43 0 66.5 19t23.5 52v515q0 34 -23.5 53t-66.5 19v19h275v-19q-43 0 -67 -19t-24 -53v-220h159q5 63 28 121t60.5 104t91.5 73.5t117 27.5q142 0 220 -98.5t78 -264.5z" />
    <glyph glyph-name="Ia" unicode="&#x42f;" horiz-adv-x="706" 
d="M407 343h82v262q0 26 -18 39t-64 13q-74 0 -116.5 -44.5t-42.5 -122.5q0 -75 44.5 -111t114.5 -36zM673 19v-19h-275v19q43 0 67 19t24 52v215q-47 0 -73 -11t-51 -44l-188 -250h-167v19q18 0 34 5t26.5 11t24.5 20t21 22.5t22 28.5t22 28l91 113q40 48 68 62v3
q-64 12 -117 68t-53 137q0 76 57.5 127.5t166.5 51.5h300v-18q-43 0 -66.5 -19.5t-23.5 -53.5v-515q0 -33 23.5 -52t66.5 -19z" />
    <glyph glyph-name="acyril" unicode="&#x430;" horiz-adv-x="497" 
d="M320 141v126q-198 -30 -198 -150q0 -38 21.5 -59t52.5 -21q43 0 83.5 35.5t40.5 68.5zM474 54q0 -5 -2 -8q-6 -9 -16.5 -20t-33.5 -23.5t-47 -12.5q-51 0 -55 81h-4q-27 -25 -45 -39.5t-48 -27.5t-62 -13q-52 0 -90 32t-38 91q0 37 17 65.5t42 47t66 32.5t76.5 21.5
t85.5 15.5v62q0 48 -28 71.5t-71 23.5q-83 0 -83 -39q0 -7 1.5 -11.5t4 -10.5t3.5 -12q5 -24 -7.5 -41.5t-36.5 -17.5q-22 0 -34.5 16.5t-12.5 36.5q0 51 52.5 83t114.5 32q76 0 128.5 -33.5t52.5 -100.5v-267q0 -48 25 -48q18 0 33 17q4 5 8 3.5t4 -6.5z" />
    <glyph glyph-name="be" unicode="&#x431;" horiz-adv-x="516" 
d="M375 240q0 211 -117 211t-117 -211q0 -212 117 -212t117 212zM464 240q0 -100 -53.5 -174.5t-152.5 -74.5q-103 0 -154.5 66t-51.5 183q0 80 35 144.5t94 87.5v3q-33 5 -74 32.5t-41 71.5t31.5 70t76.5 28l185 7q65 2 69 42q0 7 5 9.5t9.5 0t4.5 -9.5q0 -30 -13.5 -63.5
t-48.5 -49.5q-26 -12 -222 -12q-17 0 -27 -9.5t-10 -22.5q0 -19 30.5 -39t68.5 -29q6 -1 34 -6.5t46 -10t43 -15t42 -25.5q74 -64 74 -204z" />
    <glyph glyph-name="ve" unicode="&#x432;" horiz-adv-x="506" 
d="M375 129q0 39 -22.5 70t-65.5 38l-99 3v-167q0 -35 51 -36l63 -1q34 -1 53.5 27t19.5 66zM359 360q0 33 -18.5 57.5t-50.5 24.5h-62q-40 0 -40 -42v-123h108q31 0 47 24t16 59zM464 132q0 -52 -39.5 -92t-103.5 -40h-279v19q26 0 43.5 14.5t17.5 39.5v326
q0 26 -17.5 43.5t-43.5 17.5v19h266q58 0 93.5 -32t35.5 -73q0 -80 -78 -113v-2q51 -14 78 -49t27 -78z" />
    <glyph glyph-name="ge" unicode="&#x433;" horiz-adv-x="405" 
d="M395 479v-157h-19q-5 52 -30 86t-67 34h-63q-14 0 -21 -14t-7 -29v-319q0 -26 18 -43.5t43 -17.5v-19h-207v19q26 0 43.5 17.5t17.5 43.5v319q0 26 -17.5 43.5t-43.5 17.5v19h353z" />
    </font>
</defs>
</svg>
