<?xml version="1.0" encoding="UTF-8"?>
<svg width="315px" height="87px" viewBox="0 0 315 87" version="1.1" xmlns="http://www.w3.org/2000/svg" xmlns:xlink="http://www.w3.org/1999/xlink">
    <!-- Generator: Sketch 45.1 (43504) - http://www.bohemiancoding.com/sketch -->
    <title>Group</title>
    <desc>Created with Sketch.</desc>
    <defs></defs>
    <g id="Symbols" stroke="none" stroke-width="1" fill="none" fill-rule="evenodd">
        <g id="other-projects" transform="translate(-593.000000, -49.000000)">
            <g id="other-case-studies">
                <g>
                    <g id="Group" transform="translate(584.000000, 49.000000)">
                        <path d="M60.75,8.644 C60.714,10.93 59.976,12.082 58.572,12.082 C56.88,12.082 56.196,10.516 56.196,6.556 C56.196,3.352 56.934,1.912 58.572,1.912 C59.832,1.912 60.534,2.794 60.624,4.522 L62.01,4.522 C61.884,2.146 60.66,0.778 58.626,0.778 C57.456,0.778 56.538,1.192 55.872,2.02 C55.116,2.956 54.774,4.486 54.774,6.88 C54.774,11.254 55.944,13.216 58.554,13.216 C60.822,13.216 62.01,11.722 62.136,8.644 L60.75,8.644 Z M64.774,13 L66.196,13 L66.196,7.168 L70.462,7.168 L70.462,13 L71.884,13 L71.884,0.994 L70.462,0.994 L70.462,5.962 L66.196,5.962 L66.196,0.994 L64.774,0.994 L64.774,13 Z M75.116,13 L81.722,13 L81.722,11.74 L76.538,11.74 L76.538,7.312 L81.344,7.312 L81.344,6.106 L76.538,6.106 L76.538,2.254 L81.542,2.254 L81.542,0.994 L75.116,0.994 L75.116,13 Z M90.03,8.644 C89.994,10.93 89.256,12.082 87.852,12.082 C86.16,12.082 85.476,10.516 85.476,6.556 C85.476,3.352 86.214,1.912 87.852,1.912 C89.112,1.912 89.814,2.794 89.904,4.522 L91.29,4.522 C91.164,2.146 89.94,0.778 87.906,0.778 C86.736,0.778 85.818,1.192 85.152,2.02 C84.396,2.956 84.054,4.486 84.054,6.88 C84.054,11.254 85.224,13.216 87.834,13.216 C90.102,13.216 91.29,11.722 91.416,8.644 L90.03,8.644 Z M94.054,13 L95.476,13 L95.476,8.896 L96.808,7.168 L100.138,13 L101.794,13 L97.708,5.998 L101.56,0.994 L99.85,0.994 L95.476,7.006 L95.476,0.994 L94.054,0.994 L94.054,13 Z M108.78,11.236 C108.384,10.372 108.15,8.824 108.15,6.988 C108.15,4.954 108.42,3.37 108.924,2.47 C109.554,1.354 110.598,0.778 111.966,0.778 C113.442,0.778 114.54,1.462 115.134,2.74 C115.548,3.64 115.764,5.152 115.764,7.06 C115.764,9.058 115.494,10.642 114.99,11.524 C114.36,12.64 113.316,13.216 111.966,13.216 C110.49,13.216 109.392,12.532 108.78,11.236 Z M111.966,12.01 C113.64,12.01 114.342,10.57 114.342,7.042 C114.342,3.406 113.676,1.984 111.966,1.984 C110.256,1.984 109.572,3.424 109.572,6.988 C109.572,10.57 110.256,12.01 111.966,12.01 Z M125.584,0.994 L124.162,0.994 L124.162,9.166 C124.162,10.408 124.036,10.948 123.658,11.38 C123.334,11.776 122.758,12.01 122.128,12.01 C121.498,12.01 120.922,11.776 120.598,11.38 C120.22,10.948 120.094,10.39 120.094,9.166 L120.094,0.994 L118.672,0.994 L118.672,9.04 C118.672,10.48 118.852,11.272 119.338,11.938 C119.914,12.748 120.94,13.216 122.128,13.216 C123.316,13.216 124.342,12.748 124.918,11.938 C125.404,11.272 125.584,10.48 125.584,9.04 L125.584,0.994 Z M130.832,13 L132.254,13 L132.254,2.2 L135.242,2.2 L135.242,0.994 L127.826,0.994 L127.826,2.2 L130.832,2.2 L130.832,13 Z M140.806,13 L144.262,0.994 L146.08,0.994 L149.644,13 L148.114,13 L147.124,9.562 L143.2,9.562 L142.264,13 L140.806,13 Z M143.542,8.356 L146.8,8.356 L145.756,4.648 C145.486,3.658 145.432,3.442 145.162,2.344 C144.982,3.1 144.82,3.766 144.568,4.648 L143.542,8.356 Z M151.868,13 L153.182,13 L153.182,5.062 C153.182,4.414 153.128,3.424 153.056,2.65 C153.272,3.28 153.524,4 153.866,4.828 L157.178,13 L158.978,13 L158.978,0.994 L157.664,0.994 L157.664,8.59 C157.664,9.454 157.682,10.228 157.736,11.254 C157.538,10.642 157.376,10.192 156.854,8.878 L153.722,0.994 L151.868,0.994 L151.868,13 Z M162.498,11.236 C162.102,10.372 161.868,8.824 161.868,6.988 C161.868,4.954 162.138,3.37 162.642,2.47 C163.272,1.354 164.316,0.778 165.684,0.778 C167.16,0.778 168.258,1.462 168.852,2.74 C169.266,3.64 169.482,5.152 169.482,7.06 C169.482,9.058 169.212,10.642 168.708,11.524 C168.078,12.64 167.034,13.216 165.684,13.216 C164.208,13.216 163.11,12.532 162.498,11.236 Z M165.684,12.01 C167.358,12.01 168.06,10.57 168.06,7.042 C168.06,3.406 167.394,1.984 165.684,1.984 C163.974,1.984 163.29,3.424 163.29,6.988 C163.29,10.57 163.974,12.01 165.684,12.01 Z M174.226,13 L175.648,13 L175.648,2.2 L178.636,2.2 L178.636,0.994 L171.22,0.994 L171.22,2.2 L174.226,2.2 L174.226,13 Z M180.86,13 L182.282,13 L182.282,7.168 L186.548,7.168 L186.548,13 L187.97,13 L187.97,0.994 L186.548,0.994 L186.548,5.962 L182.282,5.962 L182.282,0.994 L180.86,0.994 L180.86,13 Z M191.202,13 L197.808,13 L197.808,11.74 L192.624,11.74 L192.624,7.312 L197.43,7.312 L197.43,6.106 L192.624,6.106 L192.624,2.254 L197.628,2.254 L197.628,0.994 L191.202,0.994 L191.202,13 Z M200.626,13 L200.626,0.994 L203.992,0.994 C205.234,0.994 205.972,1.21 206.494,1.75 C207.034,2.29 207.322,3.1 207.322,4.108 C207.322,5.638 206.728,6.538 205.414,6.97 C206.782,7.258 207.268,7.924 207.286,9.67 L207.304,11.002 C207.322,12.046 207.466,12.496 207.916,13 L206.242,13 C206.008,12.37 205.918,11.83 205.9,11.002 L205.882,9.886 C205.846,8.068 205.378,7.564 203.632,7.564 L202.048,7.564 L202.048,13 L200.626,13 Z M202.048,6.43 L203.902,6.43 C205.234,6.43 205.9,5.728 205.9,4.27 C205.9,2.83 205.234,2.128 203.902,2.128 L202.048,2.128 L202.048,6.43 Z M214.992,13 L214.992,0.994 L218.106,0.994 C219.186,0.994 219.888,1.174 220.392,1.588 C221.13,2.164 221.544,3.208 221.544,4.468 C221.544,6.718 220.392,7.96 218.304,7.96 L216.414,7.96 L216.414,13 L214.992,13 Z M216.414,6.754 L218.07,6.754 C219.474,6.754 220.122,6.052 220.122,4.504 C220.122,2.956 219.474,2.254 218.07,2.254 L216.414,2.254 L216.414,6.754 Z M224.182,13 L224.182,0.994 L227.548,0.994 C228.79,0.994 229.528,1.21 230.05,1.75 C230.59,2.29 230.878,3.1 230.878,4.108 C230.878,5.638 230.284,6.538 228.97,6.97 C230.338,7.258 230.824,7.924 230.842,9.67 L230.86,11.002 C230.878,12.046 231.022,12.496 231.472,13 L229.798,13 C229.564,12.37 229.474,11.83 229.456,11.002 L229.438,9.886 C229.402,8.068 228.934,7.564 227.188,7.564 L225.604,7.564 L225.604,13 L224.182,13 Z M225.604,6.43 L227.458,6.43 C228.79,6.43 229.456,5.728 229.456,4.27 C229.456,2.83 228.79,2.128 227.458,2.128 L225.604,2.128 L225.604,6.43 Z M234.308,11.236 C233.912,10.372 233.678,8.824 233.678,6.988 C233.678,4.954 233.948,3.37 234.452,2.47 C235.082,1.354 236.126,0.778 237.494,0.778 C238.97,0.778 240.068,1.462 240.662,2.74 C241.076,3.64 241.292,5.152 241.292,7.06 C241.292,9.058 241.022,10.642 240.518,11.524 C239.888,12.64 238.844,13.216 237.494,13.216 C236.018,13.216 234.92,12.532 234.308,11.236 Z M237.494,12.01 C239.168,12.01 239.87,10.57 239.87,7.042 C239.87,3.406 239.204,1.984 237.494,1.984 C235.784,1.984 235.1,3.424 235.1,6.988 C235.1,10.57 235.784,12.01 237.494,12.01 Z M243.462,9.166 C243.444,9.436 243.444,9.706 243.444,9.814 C243.444,12.118 244.344,13.216 246.216,13.216 C247.224,13.216 248.124,12.82 248.556,12.19 C248.952,11.614 249.042,11.056 249.042,9.4 L249.042,0.994 L247.62,0.994 L247.62,9.76 C247.62,10.642 247.548,11.092 247.35,11.452 C247.152,11.794 246.72,12.01 246.234,12.01 C245.568,12.01 245.118,11.668 244.938,11.02 C244.83,10.66 244.83,10.588 244.812,9.166 L243.462,9.166 Z M252.256,13 L258.862,13 L258.862,11.74 L253.678,11.74 L253.678,7.312 L258.484,7.312 L258.484,6.106 L253.678,6.106 L253.678,2.254 L258.682,2.254 L258.682,0.994 L252.256,0.994 L252.256,13 Z M267.17,8.644 C267.134,10.93 266.396,12.082 264.992,12.082 C263.3,12.082 262.616,10.516 262.616,6.556 C262.616,3.352 263.354,1.912 264.992,1.912 C266.252,1.912 266.954,2.794 267.044,4.522 L268.43,4.522 C268.304,2.146 267.08,0.778 265.046,0.778 C263.876,0.778 262.958,1.192 262.292,2.02 C261.536,2.956 261.194,4.486 261.194,6.88 C261.194,11.254 262.364,13.216 264.974,13.216 C267.242,13.216 268.43,11.722 268.556,8.644 L267.17,8.644 Z M273.21,13 L274.632,13 L274.632,2.2 L277.62,2.2 L277.62,0.994 L270.204,0.994 L270.204,2.2 L273.21,2.2 L273.21,13 Z" id="CHECK-OUT-ANOTHER-PR" fill="#FFFFFF"></path>
                        <g id="arrow-/-white" transform="translate(166.500000, 64.500000) rotate(90.000000) translate(-166.500000, -64.500000) translate(144.000000, 51.000000)" stroke="#FFFFFF" stroke-linecap="square">
                            <path d="M8.81741333,22.2503967 L22.2503967,35.6825878 L35.6825878,22.2503967 M22.4318188,-8.81741333 L22.4318188,35.3133833" id="Line" transform="translate(22.250001, 13.432587) rotate(-90.000000) translate(-22.250001, -13.432587) "></path>
                        </g>
                        <g id="arrow-/-white" transform="translate(307.455844, 44.455844) rotate(45.000000) translate(-307.455844, -44.455844) translate(284.955844, 30.955844)" stroke="#FFFFFF" stroke-linecap="square">
                            <path d="M8.81741333,22.2503967 L22.2503967,35.6825878 L35.6825878,22.2503967 M22.4318188,-8.81741333 L22.4318188,35.3133833" id="Line" transform="translate(22.250001, 13.432587) rotate(-90.000000) translate(-22.250001, -13.432587) "></path>
                        </g>
                        <g id="arrow-/-white" transform="translate(25.455844, 44.455844) rotate(135.000000) translate(-25.455844, -44.455844) translate(2.955844, 30.955844)" stroke="#FFFFFF" stroke-linecap="square">
                            <path d="M8.81741333,22.2503967 L22.2503967,35.6825878 L35.6825878,22.2503967 M22.4318188,-8.81741333 L22.4318188,35.3133833" id="Line" transform="translate(22.250001, 13.432587) rotate(-90.000000) translate(-22.250001, -13.432587) "></path>
                        </g>
                    </g>
                </g>
            </g>
        </g>
    </g>
</svg>