<?xml version="1.0" encoding="UTF-8"?>
<svg width="129px" height="89px" viewBox="0 0 129 89" version="1.1" xmlns="http://www.w3.org/2000/svg" xmlns:xlink="http://www.w3.org/1999/xlink">
    <!-- Generator: Sketch 46.2 (44496) - http://www.bohemiancoding.com/sketch -->
    <title>laravel</title>
    <desc>Created with Sketch.</desc>
    <defs></defs>
    <g id="design" stroke="none" stroke-width="1" fill="none" fill-rule="evenodd">
        <g id="about" transform="translate(-374.000000, -4055.000000)" fill-rule="nonzero" fill="#FB503B">
            <g id="favorite-frameworks" transform="translate(0.000000, 3604.000000)">
                <g id="laravel" transform="translate(374.000000, 451.000000)">
                    <path d="M128.164706,41.559322 C127.247059,40.6440678 115.470588,25.8474576 113.482353,23.4067797 C111.341176,20.9661017 110.423529,21.4237288 109.047059,21.5762712 C107.670588,21.7288136 92.8352941,24.3220339 91.1529412,24.4745763 C89.4705882,24.779661 88.4,25.3898305 89.4705882,26.9152542 C90.3882353,28.2881356 100.176471,42.0169492 102.317647,45.220339 L63.3176471,54.5254237 L32.4235294,2.81355932 C31.2,0.983050847 30.8941176,0.372881356 28.1411765,0.525423729 C25.3882353,0.677966102 3.82352941,2.50847458 2.29411765,2.50847458 C0.764705882,2.66101695 -0.917647059,3.27118644 0.611764706,6.93220339 C2.14117647,10.5932203 26.6117647,63.0677966 27.2235294,64.5932203 C27.8352941,66.1186441 29.6705882,68.559322 33.8,67.6440678 C38.0823529,66.5762712 52.7647059,62.7627119 60.8705882,60.6271186 C65.1529412,68.2542373 73.7176471,83.8135593 75.4,86.1016949 C77.5411765,89.1525424 79.0705882,88.5423729 82.2823529,87.6271186 C84.8823529,86.8644068 122.352941,73.440678 124.035294,72.6779661 C125.717647,71.9152542 126.788235,71.4576271 125.564706,69.779661 C124.647059,68.559322 114.858824,55.2881356 109.658824,48.4237288 C113.176471,47.5084746 125.870588,44.1525424 127.247059,43.6949153 C128.776471,43.2372881 129.082353,42.4745763 128.164706,41.559322 Z M57.3529412,56.0508475 C56.8941176,56.2033898 35.0235294,61.3898305 33.9529412,61.6949153 C32.7294118,62 32.7294118,61.8474576 32.7294118,61.3898305 C32.4235294,60.9322034 6.72941176,7.84745763 6.27058824,7.23728814 C5.96470588,6.62711864 5.96470588,6.01694915 6.27058824,6.01694915 C6.57647059,6.01694915 26.9176471,4.18644068 27.5294118,4.18644068 C28.2941176,4.18644068 28.1411765,4.33898305 28.4470588,4.79661017 C28.4470588,4.79661017 57.0470588,54.0677966 57.5058824,54.8305085 C58.1176471,55.5932203 57.8117647,55.8983051 57.3529412,56.0508475 L57.3529412,56.0508475 Z M118.835294,67.4915254 C119.141176,68.1016949 119.6,68.4067797 118.376471,68.7118644 C117.305882,69.1694915 81.5176471,81.220339 80.7529412,81.5254237 C79.9882353,81.8305085 79.5294118,81.9830508 78.6117647,80.6101695 C77.6941176,79.2372881 66.0705882,59.2542373 66.0705882,59.2542373 L104.152941,49.3389831 C105.070588,49.0338983 105.376471,48.8813559 105.988235,49.7966102 C106.6,50.8644068 118.529412,67.0338983 118.835294,67.4915254 Z M121.282353,40.6440678 C120.364706,40.7966102 106.447059,44.3050847 106.447059,44.3050847 L94.9764706,28.7457627 C94.6705882,28.2881356 94.3647059,27.8305085 95.1294118,27.6779661 C95.8941176,27.5254237 108.894118,25.2372881 109.505882,25.0847458 C110.117647,24.9322034 110.576471,24.779661 111.341176,25.8474576 C112.105882,26.7627119 121.894118,39.2711864 122.352941,39.7288136 C122.811765,40.1864407 122.2,40.4915254 121.282353,40.6440678 Z" id="Shape"></path>
                </g>
            </g>
        </g>
    </g>
</svg>