<?xml version="1.0" encoding="UTF-8"?>
<svg width="313px" height="34px" viewBox="0 0 313 34" version="1.1" xmlns="http://www.w3.org/2000/svg" xmlns:xlink="http://www.w3.org/1999/xlink">
    <!-- Generator: Sketch 44.1 (41455) - http://www.bohemiancoding.com/sketch -->
    <title>full</title>
    <desc>Created with Sketch.</desc>
    <defs></defs>
    <g id="Symbols" stroke="none" stroke-width="1" fill="none" fill-rule="evenodd">
        <g id="header" transform="translate(-50.000000, -51.000000)">
            <g id="full" transform="translate(50.000000, 51.000000)">
                <g id="letters" transform="translate(94.448181, 0.000000)">
                    <path d="M218.325014,9.55342697 C218.325014,10.9109438 217.32099,11.934 215.982292,11.934 C214.68953,11.934 213.652695,10.8978277 213.652695,9.59933333 C213.652695,8.30083895 214.68953,7.26466667 215.988854,7.26466667 C217.268492,7.26466667 218.325014,8.2942809 218.325014,9.55342697 Z M218.062524,9.63868165 C218.062524,8.42544195 217.170059,7.50731461 215.982292,7.50731461 C214.840461,7.50731461 213.915185,8.4451161 213.915185,9.60589139 C213.915185,10.7666667 214.833899,11.6913521 215.982292,11.6913521 C217.117561,11.6913521 218.062524,10.7601086 218.062524,9.63868165 Z M214.997955,8.11065543 L215.962605,8.11065543 C216.198846,8.11065543 216.467898,8.11721348 216.671328,8.24181648 C216.914131,8.39265169 217.065063,8.6943221 217.065063,9.03534082 C217.065063,9.40914981 216.920693,9.63868165 216.566332,9.82230712 L217.078187,11.0355468 L216.408838,11.0355468 L215.995417,9.92723596 L215.608244,9.92723596 L215.608244,11.0355468 L214.997955,11.0355468 L214.997955,8.11065543 Z M215.608244,8.66153184 L215.608244,9.41570787 L215.988854,9.41570787 C216.310404,9.41570787 216.448212,9.29766292 216.448212,9.03534082 C216.448212,8.77957678 216.310404,8.66153184 216.008541,8.66153184 L215.608244,8.66153184 Z" id="®" fill="#282F33"></path>
                    <path d="M193.942712,7.93786667 L198.569669,7.93786667 L198.569669,9.67186667 C199.340828,8.86266667 200.921705,7.35986667 203.852111,7.35986667 C205.085966,7.35986667 207.823582,7.59106667 210.021386,10.1728 C211.023893,11.3673333 212.60477,13.872 212.60477,17.7253333 C212.60477,18.7657333 212.527654,21.6557333 210.676872,24.2374667 C208.401951,27.4357333 205.278756,27.7825333 203.813553,27.7825333 C202.656814,27.7825333 200.651799,27.5513333 198.569669,25.6246667 L198.569669,33.4854667 L193.942712,33.4854667 L193.942712,7.93786667 Z M207.86214,17.4941333 C207.86214,13.4866667 205.355872,11.7912 203.119509,11.7912 C199.842082,11.7912 198.492553,14.7968 198.492553,17.4556 C198.492553,20.7309333 200.111987,23.3897333 203.235183,23.3897333 C205.047408,23.3897333 207.86214,22.3108 207.86214,17.4941333 Z" id="p" fill="#282F33"></path>
                    <polygon id="l" fill="#282F33" points="189.347565 27.2045333 189.347565 0 184.643492 0 184.643492 27.2045333"></polygon>
                    <path d="M179.948492,27.2045333 L179.948492,7.93786667 L175.321535,7.93786667 L175.321535,16.5308 C175.321535,17.9950667 175.282977,19.8061333 174.588934,21.1548 C174.241912,21.8484 173.085173,23.3126667 170.848811,23.3126667 C167.532825,23.3126667 167.07013,20.8850667 167.07013,19.0354667 L167.07013,7.93786667 L162.404615,7.93786667 L162.404615,20.0373333 C162.404615,21.8098667 162.481731,23.5824 163.522796,25.1237333 C164.293956,26.2797333 165.874832,27.6669333 169.075144,27.6669333 C172.429688,27.6669333 174.357586,26.1256 175.321535,25.2393333 L175.321535,27.2045333 L179.948492,27.2045333 Z" id="u" fill="#282F33"></path>
                    <path d="M139.281173,0 L150.310695,0 C155.869804,0 159.867793,3.4674221 159.867793,9.05382436 C159.867793,13.9852691 157.050162,17.9535411 150.044162,17.9535411 L144.271056,17.9535411 L144.271056,27.2 L139.281173,27.2 L139.281173,0 Z M144.271056,4.35354108 L144.271056,13.7926346 L149.337959,13.7926346 C152.917111,13.7926346 154.706687,12.0974504 154.706687,8.89971671 C154.706687,4.50764873 151.203687,4.35354108 148.766818,4.35354108 L144.271056,4.35354108 Z" id="P" fill="#282F33"></path>
                    <path d="M125.890217,19.6905333 C125.543195,20.6153333 124.50213,23.4668 121.224702,23.4668 C118.101506,23.4668 116.366398,20.808 116.366398,17.4556 C116.366398,14.2573333 117.985832,11.4829333 121.109028,11.4829333 C123.615296,11.4829333 124.964825,13.1013333 125.504637,14.7582667 L129.63034,12.8316 C128.897738,11.0205333 126.352912,7.35986667 121.340376,7.35986667 C114.978311,7.35986667 111.585209,12.5618667 111.585209,17.5712 C111.585209,23.3126667 115.441006,27.7825333 121.109028,27.7825333 C124.964825,27.7825333 128.473601,25.5861333 129.82313,21.7713333 L125.890217,19.6905333 Z" id="c" fill="#282F33"></path>
                    <path d="M107.661369,27.2045333 L107.661369,7.93786667 L103.07297,7.93786667 L103.07297,27.2045333 L107.661369,27.2045333 Z M107.65904,4.66253333 L107.65904,0 L103.070641,0 L103.070641,4.66253333 L107.65904,4.66253333 Z" id="i" fill="#282F33"></path>
                    <path d="M89.2692444,7.93786667 L89.2692444,27.2045333 L93.7419691,27.2045333 L93.7419691,18.9584 C93.7419691,17.8409333 93.7419691,16.8776 94.0889908,15.7986667 C95.207172,12.2536 98.9087372,12.2536 99.8726865,12.2536 L99.8726865,7.514 L99.4871067,7.514 C98.5617154,7.514 95.207172,7.6296 93.7419691,10.6737333 L93.7419691,7.93786667 L89.2692444,7.93786667 Z" id="r" fill="#282F33"></path>
                    <path d="M73.8120065,11.2132 L76.6267384,11.2132 L76.6267384,22.6961333 C76.6267384,25.8558667 77.9377094,27.3586667 82.0634123,27.3586667 C83.6442891,27.3586667 84.7624703,27.1274667 85.3793978,27.0504 L85.3793978,23.1585333 C84.8010282,23.3126667 84.1069847,23.3897333 83.4514992,23.3897333 C83.2587094,23.3897333 82.2562021,23.3897333 81.7163905,22.8117333 C81.2922529,22.3493333 81.2536949,21.5016 81.2536949,20.7694667 L81.2536949,11.2132 L85.3793978,11.2132 L85.3793978,7.93786667 L81.2536949,7.93786667 L81.2536949,1.07893333 L76.6267384,1.07893333 L76.6267384,7.93786667 L73.8120065,7.93786667 L73.8120065,11.2132 Z" id="t" fill="#282F33"></path>
                    <path d="M68.500079,19.6905333 C68.1530572,20.6153333 67.111992,23.4668 63.8345645,23.4668 C60.7113688,23.4668 58.9762601,20.808 58.9762601,17.4556 C58.9762601,14.2573333 60.5956949,11.4829333 63.7188906,11.4829333 C66.2251587,11.4829333 67.5746877,13.1013333 68.1144993,14.7582667 L72.2402022,12.8316 C71.5076007,11.0205333 68.9627746,7.35986667 63.9502384,7.35986667 C57.5881732,7.35986667 54.1950717,12.5618667 54.1950717,17.5712 C54.1950717,23.3126667 58.0508688,27.7825333 63.7188906,27.7825333 C67.5746877,27.7825333 71.083463,25.5861333 72.432992,21.7713333 L68.500079,19.6905333 Z" id="c" fill="#282F33"></path>
                    <path d="M51.3168258,18.5028 L37.0088228,18.5028 C37.0859387,19.4661333 37.8600939,23.2809333 42.3328185,23.2809333 C45.6102461,23.2809333 47.0074154,21.5782959 47.5145022,20.8684408 L51.3168258,22.8956 C49.7745069,24.9764 46.959775,27.7893333 41.9086808,27.7893333 C36.1635432,27.7893333 32.1590361,23.6746582 32.1590361,17.578 C32.1590361,11.336792 36.4676811,7.36666667 41.677333,7.36666667 C48.8778082,7.36666667 51.3168258,13.2622667 51.3168258,18.5028 Z M37.1952945,15.2943278 L46.3115729,15.2943278 C46.3115729,14.2160563 45.367932,11.1904215 41.7085116,11.1904215 C38.3768356,11.1904215 37.1952945,14.425236 37.1952945,15.2943278 Z" id="tweaked-e" fill="#293033"></path>
                    <polygon id="l" fill="#282F33" points="28.3771495 27.2045333 28.3771495 0 23.6730771 0 23.6730771 27.2045333"></polygon>
                    <polygon id="E" fill="#282F33" points="19.5246446 27.2 19.5246446 22.6152975 5.5434453 22.6152975 5.5434453 15.9174521 19.5246446 15.9174521 19.5246446 11.3333333 5.5434453 11.3333333 5.5434453 4.54617564 19.5246446 4.54617564 19.5246446 0 0.812688081 0 0.812688081 27.2"></polygon>
                </g>
                <rect id="Rectangle-5" fill="#B34035" x="0" y="0" width="13.6086957" height="27.2"></rect>
                <rect id="Rectangle-5" fill="#B34035" x="18.1449275" y="0" width="20.4130435" height="27.2"></rect>
                <rect id="Rectangle-5" fill="#B34035" x="43.0942029" y="0" width="40.826087" height="27.2"></rect>
            </g>
        </g>
    </g>
</svg>