<?xml version="1.0" encoding="UTF-8"?>
<svg width="125px" height="75px" viewBox="0 0 125 75" version="1.1" xmlns="http://www.w3.org/2000/svg" xmlns:xlink="http://www.w3.org/1999/xlink">
    <!-- Generator: Sketch 46.2 (44496) - http://www.bohemiancoding.com/sketch -->
    <title>woocommerce</title>
    <desc>Created with Sketch.</desc>
    <defs></defs>
    <g id="design" stroke="none" stroke-width="1" fill="none" fill-rule="evenodd">
        <g id="about" transform="translate(-686.000000, -4288.000000)" fill-rule="nonzero">
            <g id="favorite-frameworks" transform="translate(0.000000, 3604.000000)">
                <g id="woocommerce" transform="translate(686.000000, 684.000000)">
                    <path d="M11.600961,0 L113.348031,0 C119.787484,0 124.999887,5.23284314 124.999887,11.697549 L124.999887,50.6882353 C124.999887,57.1529412 119.787484,62.3857843 113.348031,62.3857843 L76.8602383,62.3857843 L81.8685391,74.6985294 L59.8426602,62.3857843 L11.6517422,62.3857843 C5.21277738,62.3857843 0.000375036203,57.1529412 0.000375036203,50.6882353 L0.000375036203,11.697549 C-0.050894495,5.28431373 5.16101957,0 11.600961,0 Z" id="Shape" fill="#9B5C8F"></path>
                    <path d="M7.87451354,10.7414267 C8.58593932,9.77181886 9.65283385,9.26201494 11.0756854,9.16005416 C13.6674823,8.95564239 15.1411151,10.179662 15.4965839,12.8326032 C17.0717792,23.4943679 18.7993182,32.5237796 20.6284198,39.9203483 L31.7563495,18.6482894 C32.772951,16.709564 34.0434589,15.6894659 35.5678729,15.5875051 C37.8037128,15.434564 39.1752948,16.8625051 39.7343768,19.8723091 C41.0048846,26.6566228 42.6308612,32.4213287 44.5615253,37.3183875 C45.8828143,24.3615247 48.1186542,15.0262306 51.2690448,9.26201494 C52.0307635,7.83358357 53.1489276,7.11936788 54.6225604,7.0169169 C55.7915057,6.91544631 56.8584003,7.27230906 57.8237323,8.03750514 C58.7890643,8.80270121 59.2973651,9.77181886 59.3989276,10.9453483 C59.4497089,11.8634855 59.2973651,12.6286816 58.8911151,13.3938777 C56.9091815,17.0669169 55.2827167,23.2394659 53.9619159,31.8090738 C52.6918964,40.1242698 52.2343768,46.6031914 52.5390643,51.2453483 C52.6411151,52.5198581 52.4375018,53.6424071 51.9296893,54.6120149 C51.3193378,55.7340738 50.4052753,56.3463287 49.2363299,56.4482894 C47.9150409,56.5502502 46.5434589,55.9384855 45.2221698,54.5610345 C40.4965839,49.7144659 36.7363299,42.4708385 33.9926776,32.829662 C30.6894549,39.3590738 28.2504901,44.2561326 26.6752948,47.5208385 C23.6772479,53.2855444 21.1367206,56.2443679 19.0024432,56.3973091 C17.6303729,56.4992698 16.4619159,55.3257404 15.4458026,52.8777012 C12.854494,46.1948581 10.0595721,33.2884855 7.06201354,14.1590738 C6.85840026,12.8326032 7.16308776,11.6590738 7.87451354,10.7414267 L7.87451354,10.7414267 Z M117.071779,18.7502502 C115.242678,15.5365247 112.549318,13.5982894 108.941896,12.8326032 C107.976076,12.6286816 107.062014,12.5267208 106.197756,12.5267208 C101.319826,12.5267208 97.3564471,15.077211 94.2568378,20.1786816 C91.6142596,24.5144659 90.2934589,29.309564 90.2934589,34.5639757 C90.2934589,38.4919169 91.1064471,41.8585836 92.7324237,44.6644659 C94.5615253,47.8781914 97.2548846,49.8164267 100.862307,50.5816228 C101.827639,50.7860345 102.742189,50.8879953 103.606447,50.8879953 C108.535158,50.8879953 112.498537,48.3375051 115.547365,43.2360345 C118.189455,38.8487796 119.510744,34.0536816 119.510744,28.79976 C119.561525,24.8208385 118.697756,21.504662 117.071779,18.7502502 L117.071779,18.7502502 Z M110.669435,32.8806424 C109.95801,36.2473091 108.687502,38.7468189 106.807131,40.4301522 C105.333986,41.7566228 103.961916,42.3174071 102.691896,42.0625051 C101.47217,41.8076032 100.455568,40.7365247 99.6938495,38.7468189 C99.0834979,37.1654463 98.7792987,35.5840738 98.7792987,34.104662 C98.7792987,32.829662 98.8808612,31.5541718 99.1347674,30.3811326 C99.592287,28.2894659 100.456057,26.2487796 101.827639,24.3105444 C103.504885,21.8105444 105.283205,20.7909365 107.112307,21.1477993 C108.332033,21.4027012 109.348635,22.4742698 110.110353,24.4634855 C110.720217,26.0448581 111.024904,27.6262306 111.024904,29.1056424 C111.024904,30.432113 110.923342,31.707113 110.669435,32.8801522 L110.669435,32.8806424 Z M85.2626971,18.7502502 C83.4335956,15.5365247 80.6894549,13.5982894 77.1328143,12.8326032 C76.1674823,12.6286816 75.2529315,12.5267208 74.3886737,12.5267208 C69.510744,12.5267208 65.5473651,15.077211 62.4477557,20.1786816 C59.8056659,24.5144659 58.4843768,29.309564 58.4843768,34.5639757 C58.4843768,38.4919169 59.2973651,41.8585836 60.9233417,44.6644659 C62.7524432,47.8781914 65.4458026,49.8164267 69.0532245,50.5816228 C70.0190448,50.7860345 70.9331073,50.8879953 71.7973651,50.8879953 C76.726076,50.8879953 80.6894549,48.3375051 83.7382831,43.2360345 C86.3808612,38.8487796 87.701662,34.0536816 87.701662,28.79976 C87.701662,24.8208385 86.8886737,21.504662 85.2626971,18.7502502 L85.2626971,18.7502502 Z M78.8095721,32.8806424 C78.0981464,36.2473091 76.8276385,38.7468189 74.9477557,40.4301522 C73.4741229,41.7566228 72.1020526,42.3174071 70.8315448,42.0625051 C69.6123065,41.8076032 68.5961932,40.7365247 67.8334979,38.7468189 C67.2241229,37.1654463 66.9194354,35.5840738 66.9194354,34.104662 C66.9194354,32.829662 67.0209979,31.5541718 67.2749042,30.3811326 C67.7324237,28.2894659 68.5961932,26.2487796 69.9682635,24.3105444 C71.6450214,21.8105444 73.4233417,20.7909365 75.2524432,21.1477993 C76.4721698,21.4027012 77.4887714,22.4742698 78.2504901,24.4634855 C78.8608417,26.0448581 79.1650409,27.6262306 79.1650409,29.1056424 C79.2163104,30.432113 79.0634784,31.707113 78.8095721,32.8801522 L78.8095721,32.8806424 Z" id="Shape" fill="#FFFFFF"></path>
                </g>
            </g>
        </g>
    </g>
</svg>