<?xml version="1.0" encoding="UTF-8"?>
<svg width="101px" height="114px" viewBox="0 0 101 114" version="1.1" xmlns="http://www.w3.org/2000/svg" xmlns:xlink="http://www.w3.org/1999/xlink">
    <!-- Generator: Sketch 46.2 (44496) - http://www.bohemiancoding.com/sketch -->
    <title>shopify</title>
    <desc>Created with Sketch.</desc>
    <defs></defs>
    <g id="design" stroke="none" stroke-width="1" fill="none" fill-rule="evenodd">
        <g id="about" transform="translate(-1013.000000, -4031.000000)" fill-rule="nonzero">
            <g id="favorite-frameworks" transform="translate(0.000000, 3604.000000)">
                <g id="shopify" transform="translate(1013.000000, 427.000000)">
                    <path d="M87.396875,22.0820342 C87.3183594,21.5120342 86.81875,21.1965822 86.4058594,21.1618356 C85.99375,21.1274795 77.271875,20.4813493 77.271875,20.4813493 C77.271875,20.4813493 71.2144531,14.4709726 70.5496094,13.8057123 C69.884375,13.1408425 68.5851562,13.3430753 68.0808594,13.4914315 C68.0066406,13.5132945 66.7574219,13.8986301 64.6910156,14.5377329 C62.6675781,8.71826712 59.0964844,3.37041781 52.8140625,3.37041781 C52.640625,3.37041781 52.4621094,3.37744521 52.2835937,3.38759589 C50.496875,1.026 48.2835938,0 46.371875,0 C31.7371094,0 24.7453125,18.2848973 22.553125,27.5766781 C16.8664063,29.3378219 12.8265625,30.5898699 12.3105469,30.7518904 C9.13632813,31.7470479 9.0359375,31.8469932 8.61914062,34.8363699 C8.30546875,37.0995822 0,101.294466 0,101.294466 L64.7179688,113.413603 L99.784375,105.831822 C99.784375,105.831822 87.4746094,22.6520342 87.3972656,22.0820342 L87.396875,22.0820342 Z M61.1140625,15.6433767 L55.6378906,17.3373699 C55.6398438,16.9516438 55.6417969,16.5721644 55.6417969,16.1571575 C55.6417969,12.5403904 55.1394531,9.62831507 54.3335938,7.31981507 C57.5707031,7.72584247 59.7265625,11.4070274 61.1140625,15.6433767 Z M50.3179687,8.037 C51.2179687,10.2908425 51.803125,13.5253973 51.803125,17.8901918 C51.803125,18.1135068 51.8011719,18.3176918 51.7992187,18.5242192 C48.2378906,19.6267397 44.3679687,20.8237397 40.4894531,22.0246438 C42.6671875,13.6245616 46.7492187,9.56741096 50.3179687,8.037 Z M45.9699219,3.92323973 C46.6015625,3.92323973 47.2378906,4.13757534 47.846875,4.5564863 C43.1566406,6.76230822 38.1292969,12.3178562 36.00625,23.4121644 L27.0664063,26.1793973 C29.553125,17.7172397 35.4578125,3.92323973 45.9695313,3.92323973 L45.9699219,3.92323973 Z" id="Shape" fill="#95BF46"></path>
                    <path d="M86.6847656,21.7851849 C86.2726562,21.7508288 77.5507812,21.1046986 77.5507812,21.1046986 C77.5507812,21.1046986 71.4933594,15.0943219 70.8285156,14.4290616 C70.5796875,14.1815411 70.2441406,14.0546575 69.8933594,14 L65,114.036171 L100.063281,106.455171 C100.063281,106.455171 87.753125,23.2753836 87.6757812,22.7053836 C87.5972656,22.1353836 87.0976563,21.8199315 86.6847656,21.7851849" id="Shape" fill="#5E8E3E"></path>
                    <path d="M53.5082031,40.6936027 L49.184375,53.548274 C49.184375,53.548274 45.3960938,51.5275068 40.7523438,51.5275068 C33.9445313,51.5275068 33.6019531,55.7974315 33.6019531,56.8734041 C33.6019531,62.7444041 48.9144531,64.9939521 48.9144531,78.7457877 C48.9144531,89.5652466 42.0484375,96.5321301 32.790625,96.5321301 C21.68125,96.5321301 16,89.6218562 16,89.6218562 L18.9746094,79.7991164 C18.9746094,79.7991164 24.8144531,84.8100411 29.7421875,84.8100411 C32.9621094,84.8100411 34.271875,82.276274 34.271875,80.4249452 C34.271875,72.7666438 21.709375,72.4250342 21.709375,59.8409178 C21.709375,49.2494589 29.315625,39 44.6695313,39 C50.5855469,39 53.5082031,40.6936027 53.5082031,40.6936027" id="Shape" fill="#FFFFFF"></path>
                </g>
            </g>
        </g>
    </g>
</svg>