<?xml version="1.0" encoding="UTF-8"?>
<svg width="100px" height="100px" viewBox="0 0 100 100" version="1.1" xmlns="http://www.w3.org/2000/svg" xmlns:xlink="http://www.w3.org/1999/xlink">
    <!-- Generator: Sketch 49 (51002) - http://www.bohemiancoding.com/sketch -->
    <title>storyline</title>
    <desc>Created with Sketch.</desc>
    <defs></defs>
    <g id="design" stroke="none" stroke-width="1" fill="none" fill-rule="evenodd">
        <g id="about" transform="translate(-138.000000, -4410.000000)">
            <g id="favorite-frameworks" transform="translate(0.000000, 3604.000000)">
                <g id="storyline" transform="translate(138.000000, 806.000000)">
                    <g>
                        <circle id="Oval" fill="#C560B3" cx="50" cy="50" r="50"></circle>
                        <path d="M42.8953125,65.75 C41.795307,65.75 40.7640673,65.646876 39.8015625,65.440625 C38.8390577,65.234374 37.9539103,64.9593767 37.1460937,64.615625 C36.3382772,64.2718733 35.6164094,63.9023457 34.9804688,63.5070312 C34.3445281,63.1117168 33.7859399,62.7078146 33.3046875,62.2953125 C33.0640613,62.0546863 33.0640613,61.8140637 33.3046875,61.5734375 L34.4390625,60.284375 C34.6453135,60.078124 34.8859361,60.078124 35.1609375,60.284375 C36.1234423,61.075004 37.2749933,61.7539034 38.615625,62.3210937 C39.9562567,62.8882841 41.4687416,63.171875 43.153125,63.171875 C45.3187608,63.171875 46.925776,62.7421918 47.9742187,61.8828125 C49.0226615,61.0234332 49.546875,59.8718822 49.546875,58.428125 C49.546875,57.8093719 49.469532,57.2593774 49.3148437,56.778125 C49.1601555,56.2968726 48.8679709,55.8757831 48.4382812,55.5148437 C48.0085916,55.1539044 47.4328161,54.8617199 46.7109375,54.6382812 C45.9890589,54.4148426 45.0609432,54.2343757 43.9265625,54.096875 L41.4515625,53.8390625 C39.148426,53.5984363 37.3781312,52.9367242 36.140625,51.8539062 C34.9031188,50.7710883 34.284375,49.2500098 34.284375,47.290625 C34.284375,45.0218637 35.0492111,43.2601625 36.5789062,42.0054687 C38.1086014,40.750775 40.2312364,40.1234375 42.946875,40.1234375 C44.6312584,40.1234375 46.1695243,40.3554664 47.5617187,40.8195312 C48.9539132,41.2835961 50.1484325,41.8421842 51.1453125,42.4953125 C51.4203139,42.7015635 51.4546885,42.9421861 51.2484375,43.2171875 L50.3203125,44.4546875 C50.1484366,44.7296889 49.907814,44.7812509 49.5984375,44.609375 C48.8078085,44.1281226 47.8023499,43.6898457 46.5820312,43.2945312 C45.3617126,42.8992168 44.098444,42.7015625 42.7921875,42.7015625 C40.901553,42.7015625 39.4750048,43.0882774 38.5125,43.8617187 C37.5499952,44.6351601 37.06875,45.7093681 37.06875,47.084375 C37.06875,48.287506 37.4898395,49.2242154 38.3320312,49.8945312 C39.174223,50.5648471 40.6437395,51.003124 42.740625,51.209375 L45.215625,51.4671875 C47.621887,51.7078137 49.4093692,52.3867132 50.578125,53.5039062 C51.7468808,54.6210993 52.33125,56.1421779 52.33125,58.0671875 C52.33125,60.4390744 51.5320392,62.3124931 49.9335938,63.6875 C48.3351483,65.0625069 45.989078,65.75 42.8953125,65.75 Z" id="s" fill="#FFFFFF"></path>
                        <path d="M62.3749733,65.144062 C59.6638847,65.144062 59.1600533,64.9111695 58.3866119,64.017415 C57.6131706,63.1236606 57.228125,61.6765728 57.228125,59.6140625 L57.228125,30.6875 C57.228125,30.3437483 57.3999983,30.171875 57.74375,30.171875 L59.496875,30.171875 C59.8406267,30.171875 60.0125,30.3437483 60.0125,30.6875 L60.0125,59.5109375 C60.0125,60.7140685 60.023556,61.7068222 60.436058,62.170887 C60.8485601,62.6349518 61.0798134,63.0109306 63.8751984,62.7396584 C64.27039,62.6676988 64.6372161,62.5517697 64.9531126,62.4335289 C64.9766826,62.4247066 65.0077804,62.4181262 65.0464058,62.4137878 C65.2855396,62.3762846 65.2955055,62.4634027 65.3812885,62.8074884 C65.4497147,63.1291628 65.5232191,63.4635687 65.6440735,64.017415 C65.7924652,64.3900871 65.3812885,64.6979809 64.3615723,64.9060726 C63.6817614,65.0448004 63.0195618,65.1241302 62.3749733,65.144062 Z" id="l" fill="#FFFFFF"></path>
                    </g>
                </g>
            </g>
        </g>
    </g>
</svg>