<?xml version="1.0" encoding="UTF-8"?>
<svg width="141px" height="29px" viewBox="0 0 141 29" version="1.1" xmlns="http://www.w3.org/2000/svg" xmlns:xlink="http://www.w3.org/1999/xlink">
    <!-- Generator: Sketch 45 (43475) - http://www.bohemiancoding.com/sketch -->
    <title>ep</title>
    <desc>Created with Sketch.</desc>
    <defs></defs>
    <g id="design" stroke="none" stroke-width="1" fill="none" fill-rule="evenodd">
        <g id="mobile" transform="translate(-20.000000, -20.000000)">
            <g id="ep" transform="translate(20.000000, 20.000000)">
                <rect id="Rectangle-5" fill="#B34036" x="0" y="0" width="14.4615385" height="29"></rect>
                <rect id="Rectangle-5" fill="#B34036" x="19.2820513" y="0" width="21.6923077" height="29"></rect>
                <rect id="Rectangle-5" fill="#B34036" x="45.7948718" y="0" width="43.3846154" height="29"></rect>
                <path d="M118.705128,0 L130.425858,0 C136.333351,0 140.58189,3.69688385 140.58189,9.6529745 C140.58189,14.9107649 137.587681,19.1416431 130.142622,19.1416431 L123.525641,19.1416431 L123.525641,29 L118.705128,29 L118.705128,0 Z M123.525641,4.64164306 L123.525641,14.7053824 L129.875126,14.7053824 C133.67858,14.7053824 135.580307,12.898017 135.580307,9.48866856 C135.580307,4.80594901 131.857777,4.64164306 129.268191,4.64164306 L123.525641,4.64164306 Z" id="EP" fill="#293033"></path>
                <polygon id="Path" fill="#293033" points="113.884615 29 113.884615 24.111898 98.8205128 24.111898 98.8205128 16.9708129 113.884615 16.9708129 113.884615 12.0833333 98.8205128 12.0833333 98.8205128 4.8470255 113.884615 4.8470255 113.884615 0 94 0 94 29"></polygon>
            </g>
        </g>
    </g>
</svg>