<?xml version="1.0" encoding="UTF-8"?>
<svg width="100px" height="115px" viewBox="0 0 100 115" version="1.1" xmlns="http://www.w3.org/2000/svg" xmlns:xlink="http://www.w3.org/1999/xlink">
    <!-- Generator: Sketch 46.2 (44496) - http://www.bohemiancoding.com/sketch -->
    <title>drupal</title>
    <desc>Created with Sketch.</desc>
    <defs></defs>
    <g id="design" stroke="none" stroke-width="1" fill="none" fill-rule="evenodd">
        <g id="about" transform="translate(-1013.000000, -4264.000000)">
            <g id="favorite-frameworks" transform="translate(0.000000, 3604.000000)">
                <g id="drupal" transform="translate(1013.000000, 660.000000)">
                    <path d="M33.1210938,18.5446271 C13.0117188,27.0690508 0.35546875,43.7857627 0.35546875,65.2642542 C0.35546875,92.7145593 22.6535156,114.968034 50.1609375,114.968034 C77.6671875,114.968034 99.9660156,92.7145593 99.9660156,65.2642542 C99.9660156,32.2600339 69.2382812,19.1395085 69.2382812,19.1395085 C69.2382812,19.1395085 62.5265625,16.3580678 58.7738281,13.8612034 C58.7738281,13.8612034 54.0328125,10.9698305 45.7691406,0.324728814 C45.7691406,0.324728814 45.9566406,12.4196102 33.1214844,18.5454068" id="Shape" fill="#136DA9" fill-rule="nonzero"></path>
                    <path d="M45.1769531,105.347017 C43.4277344,104.133864 43.84375,100.270644 48.5839844,103.030644 C48.5839844,103.030644 58.6777344,110.428458 74.6585937,101.552407 C75.9011719,100.862407 77.4242187,103.296898 73.4734375,105.528678 C73.4734375,105.528678 57.325,113.774373 45.1769531,105.347017 Z" id="Shape" fill="#F0F0F0" fill-rule="nonzero"></path>
                    <path d="M45.1769531,105.347017 C43.4277344,104.133864 43.84375,100.270644 48.5839844,103.030644 C48.5839844,103.030644 58.6777344,110.428458 74.6585937,101.552407 C75.9011719,100.862407 77.4242187,103.296898 73.4734375,105.528678 C73.4734375,105.528678 57.325,113.774373 45.1769531,105.347017 Z" id="Shape" stroke="#FFFDFF" stroke-width="0.5"></path>
                    <path d="M65.7695312,93.0759322 C71.6464844,93.7628136 69.6257812,96.5828475 71.2023437,97.0178983 C74.4117187,97.9055424 73.0292969,94.4060339 73.0292969,94.4060339 C70.6582031,89.6750508 66.5597656,89.9709322 66.5597656,89.9709322 C60.1402344,88.9850508 55.35,95.0964237 55.35,95.0964237 C54.1644531,97.7078983 55.8226562,97.8423898 56.4359375,97.5605424 C59.5472656,96.1310339 61.4398437,92.5687627 65.7695312,93.0759322 L65.7695312,93.0759322 Z" id="Shape" fill="#F0F0F0" fill-rule="nonzero"></path>
                    <path d="M65.7695312,93.0759322 C71.6464844,93.7628136 69.6257812,96.5828475 71.2023437,97.0178983 C74.4117187,97.9055424 73.0292969,94.4060339 73.0292969,94.4060339 C70.6582031,89.6750508 66.5597656,89.9709322 66.5597656,89.9709322 C60.1402344,88.9850508 55.35,95.0964237 55.35,95.0964237 C54.1644531,97.7078983 55.8226562,97.8423898 56.4359375,97.5605424 C59.5472656,96.1310339 61.4398437,92.5687627 65.7695312,93.0759322 L65.7695312,93.0759322 Z" id="Shape" stroke="#FFFDFF" stroke-width="0.5"></path>
                    <path d="M6.87382813,90.2574576 C6.87382813,90.2574576 24.7320313,105.002407 68.1894531,72.1537288 C68.1894531,72.1537288 90.0171875,58.4788644 89.359375,35.0325085 C89.359375,35.0325085 82.2960937,24.9015932 70.3773437,19.6770847 C68.6820312,18.933678 53.7886719,10.8236441 45.7457031,0.653355932 C45.7457031,0.653355932 44.2878906,30.157678 6.42148437,41.8058136 C6.42148437,41.8058136 -3.1203125,55.8506271 2.08164062,78.6775424 C2.08164062,78.6775424 5.4109375,87.9321186 6.87382812,90.2578475" id="Shape" fill="#008ECE" fill-rule="nonzero"></path>
                    <path d="M35.2011719,95.7373051 C35.2011719,95.7373051 20.3859375,96.1310339 22.1640625,80.3604407 C22.1640625,80.3604407 25.2585937,62.6184746 46.0652344,66.5612203 C46.0652344,66.5612203 50.609375,67.5467119 59.103125,74.0522034 C59.103125,74.0522034 64.7082031,78.3645085 67.7945313,78.2834237 C67.7945313,78.2834237 70.1894531,78.5122542 75.1695313,75.3667119 C75.1695313,75.3667119 85.3253906,67.5455424 88.8757812,67.7774915 C88.9640625,67.783339 96.0417969,67.0052373 96.0417969,78.3894576 C96.0417969,78.3894576 96.1730469,90.9404407 86.6921875,95.1455424 C86.6921875,95.1455424 84.1898437,95.999661 81.4898437,93.1741695 C81.4898437,93.1741695 73.7203125,84.3690678 69.9011719,82.9231864 C69.9011719,82.9231864 67.6957031,82.0608814 64.7652344,83.1204407 C64.7652344,83.1204407 62.8558594,83.3176949 55.0210937,88.508678 C55.0210937,88.508678 41.8511719,96.7224068 35.2011719,95.7373051 L35.2011719,95.7373051 Z" id="Shape" fill="#F0F0F0" fill-rule="nonzero"></path>
                    <path d="M35.2011719,95.7373051 C35.2011719,95.7373051 20.3859375,96.1310339 22.1640625,80.3604407 C22.1640625,80.3604407 25.2585937,62.6184746 46.0652344,66.5612203 C46.0652344,66.5612203 50.609375,67.5467119 59.103125,74.0522034 C59.103125,74.0522034 64.7082031,78.3645085 67.7945313,78.2834237 C67.7945313,78.2834237 70.1894531,78.5122542 75.1695313,75.3667119 C75.1695313,75.3667119 85.3253906,67.5455424 88.8757812,67.7774915 C88.9640625,67.783339 96.0417969,67.0052373 96.0417969,78.3894576 C96.0417969,78.3894576 96.1730469,90.9404407 86.6921875,95.1455424 C86.6921875,95.1455424 84.1898437,95.999661 81.4898437,93.1741695 C81.4898437,93.1741695 73.7203125,84.3690678 69.9011719,82.9231864 C69.9011719,82.9231864 67.6957031,82.0608814 64.7652344,83.1204407 C64.7652344,83.1204407 62.8558594,83.3176949 55.0210937,88.508678 C55.0210937,88.508678 41.8511719,96.7224068 35.2011719,95.7373051 L35.2011719,95.7373051 Z" id="Shape" stroke="#FFFDFF" stroke-width="0.5"></path>
                    <path d="M43.0367187,39.1600339 C52.6285156,25.4493051 45.7457031,0.258847458 45.7457031,0.258847458 C44.8992187,13.9263051 33.3445312,18.4366441 33.3445312,18.4366441 C12.6554688,27.3481695 6.42148438,41.4113051 6.42148438,41.4113051 C10.8550781,47.6856271 22.6246094,68.3349492 43.0367187,39.1600339" id="Shape" fill="#008ECE" fill-rule="nonzero"></path>
                    <path d="M45.7457031,0.258847458 C45.7457031,0.258847458 46.9871094,11.7588475 40.7320312,15.5039492 C40.7320312,15.5039492 30.7003906,20.1639831 27.6382812,21.6917288 C27.6382812,21.6917288 14.7558594,29.4513051 10.509375,36.7446441 C10.509375,36.7446441 1.42265625,48.8792881 13.9664062,46.0105254 C13.9664062,46.0105254 36.65,39.6196441 45.86875,20.3335593 C45.86875,20.3335593 46.4113281,18.7075763 44.6824219,17.0316949 C44.6824219,17.0316949 51.596875,11.824339 45.7457031,0.258847458" id="Shape" fill="#A0D8F1" fill-rule="nonzero"></path>
                    <path d="M45.7457031,0.258847458 C45.7457031,0.258847458 46.2628906,8.11159322 39.7308594,14.6178644 C39.7308594,14.6178644 37.7691406,17.3766949 27.6382812,21.6917288 C27.6382812,21.6917288 16.040625,27.7263051 10.8410156,36.0951864 C10.8410156,36.0951864 3.13515625,45.3715932 13.7015625,42.8844746 C13.7015625,42.8844746 35.1113281,35.0102881 42.95625,20.5510847 C42.95625,20.5510847 44.0175781,19.0315254 42.4023437,17.4659661 C42.4023437,17.4659661 50.0832031,11.479339 45.7457031,0.258847458" id="Shape" fill="#F0F0F0" fill-rule="nonzero"></path>
                </g>
            </g>
        </g>
    </g>
</svg>