<?xml version="1.0" encoding="UTF-8"?>
<svg width="100px" height="100px" viewBox="0 0 100 100" version="1.1" xmlns="http://www.w3.org/2000/svg" xmlns:xlink="http://www.w3.org/1999/xlink">
    <!-- Generator: Sketch 46.2 (44496) - http://www.bohemiancoding.com/sketch -->
    <title>wordpress</title>
    <desc>Created with Sketch.</desc>
    <defs></defs>
    <g id="design" stroke="none" stroke-width="1" fill="none" fill-rule="evenodd">
        <g id="about" transform="translate(-700.000000, -4042.000000)" fill-rule="nonzero" fill="#00749A">
            <g id="favorite-frameworks" transform="translate(0.000000, 3604.000000)">
                <g id="wordpress" transform="translate(700.000000, 438.000000)">
                    <path d="M7.0796748,49.804878 C7.0796748,66.7178862 16.9081301,81.3325203 31.1601626,88.2593496 L10.7796748,32.4162602 C8.33616184,37.8874241 7.07533219,43.8128524 7.0796748,49.804878 Z M78.6504065,47.6487805 C78.6504065,42.3682927 76.7536585,38.7113821 75.1268293,35.8650407 C72.9609756,32.3455285 70.9308943,29.3650407 70.9308943,25.8455285 C70.9308943,21.9178862 73.9097561,18.2617886 78.1056911,18.2617886 C78.295122,18.2617886 78.4747967,18.2853659 78.6593496,18.295935 C71.0577236,11.3325203 60.9300813,7.0796748 49.8073171,7.0796748 C34.8804878,7.0796748 21.7471545,14.7382114 14.1081301,26.3382114 C15.1097561,26.3682927 16.0552846,26.3886179 16.8577236,26.3886179 C21.3268293,26.3886179 28.2447154,25.8463415 28.2447154,25.8463415 C30.5479675,25.7105691 30.8195122,29.0934959 28.5186992,29.3658537 C28.5186992,29.3658537 26.204065,29.6382114 23.6284553,29.7731707 L39.1869919,76.0544715 L48.5373984,48.0113821 L41.8804878,29.7723577 C39.5796748,29.6373984 37.399187,29.3650407 37.399187,29.3650407 C35.096748,29.2300813 35.3666667,25.7097561 37.6691057,25.8455285 C37.6691057,25.8455285 44.7260163,26.3878049 48.9243902,26.3878049 C53.3918699,26.3878049 60.3113821,25.8455285 60.3113821,25.8455285 C62.6162602,25.7097561 62.8869919,29.0926829 60.5853659,29.3650407 C60.5853659,29.3650407 58.2650407,29.6373984 55.6943089,29.7723577 L71.1349593,75.702439 L75.396748,61.4609756 C77.2447154,55.5512195 78.6504065,51.3065041 78.6504065,47.6487805 Z" id="Shape"></path>
                    <path d="M50.5560976,53.5422764 L37.7357724,90.7926829 C41.6553038,91.9477128 45.7203297,92.5341805 49.8065041,92.5341463 C54.6387436,92.5354112 59.4361444,91.7164634 63.9943089,90.1121951 C63.8757958,89.9253389 63.7740442,89.7283652 63.6902439,89.5235772 L50.5560976,53.5422764 Z M87.297561,29.3056911 C87.4821138,30.6666667 87.5853659,32.1284553 87.5853659,33.699187 C87.5853659,38.0349593 86.7756098,42.9089431 84.3365854,49.003252 L71.2853659,86.7373984 C83.9878049,79.3300813 92.5317073,65.5682927 92.5317073,49.804878 C92.5431021,42.6398187 90.7425838,35.5882083 87.297561,29.3056911 L87.297561,29.3056911 Z" id="Shape"></path>
                    <path d="M49.8065041,0 C22.3439024,0 0,22.3422764 0,49.804878 C0,77.2707317 22.3439024,99.6130081 49.8073171,99.6130081 C77.2682927,99.6130081 99.6162602,77.2715447 99.6162602,49.804878 C99.6146341,22.3422764 77.2682927,0 49.8065041,0 Z M49.8065041,97.3292683 C23.603252,97.3292683 2.28373984,76.0097561 2.28373984,49.804878 C2.28373984,23.602439 23.602439,2.28455285 49.8065041,2.28455285 C76.0089431,2.28455285 97.3260163,23.602439 97.3260163,49.804878 C97.3268293,76.0097561 76.0089431,97.3292683 49.8065041,97.3292683 Z" id="Shape"></path>
                </g>
            </g>
        </g>
    </g>
</svg>