<?xml version="1.0" encoding="UTF-8"?>
<svg width="1150px" height="561px" viewBox="0 0 1150 561" version="1.1" xmlns="http://www.w3.org/2000/svg" xmlns:xlink="http://www.w3.org/1999/xlink">
    <!-- Generator: Sketch 45.1 (43504) - http://www.bohemiancoding.com/sketch -->
    <title>Fill 9</title>
    <desc>Created with Sketch.</desc>
    <defs></defs>
    <g id="design" stroke="none" stroke-width="1" fill="none" fill-rule="evenodd">
        <g id="about" transform="translate(-174.000000, -2101.000000)" fill="#FFFFFF">
            <g id="map" transform="translate(0.000000, 1935.000000)">
                <g id="USA-USA-USA!!!" transform="translate(174.000000, 166.000000)">
                    <path d="M797.118531,70.519776 C797.394807,70.9856152 797.702275,71.4112904 798.05494,71.7743477 C798.319757,72.0475894 798.607491,72.2854109 798.910503,72.4903422 C798.556565,72.781294 798.767909,72.9761052 801.319321,73.72752 C806.475618,75.2429995 804.851066,74.7724165 806.860112,77.0469009 C807.19368,77.4289333 807.695305,77.8185557 808.275865,78.2107082 C808.391723,79.2100645 808.555324,80.1145451 808.832554,80.7925894 C808.555324,80.1145451 808.391723,79.2100645 808.275865,78.2107082 C810.649035,79.8147383 814.463421,81.4339484 815.05926,82.6179959 C814.434138,82.5319753 813.810927,82.4541774 813.226547,82.3849182 C813.810927,82.4541774 814.434138,82.5319753 815.05926,82.6179959 C815.18403,82.8684675 815.18403,83.1012289 814.975231,83.3086902 C813.5442,84.7330892 801.416081,81.7906807 799.79153,82.9291878 C798.166978,84.070225 798.072764,86.3472393 796.450759,85.967737 C794.826207,85.5857046 794.062312,85.3023428 791.197702,84.2574462 C788.333093,83.2150796 783.747172,80.7483141 781.554792,81.3175677 C779.359864,81.8868213 781.07863,84.8266998 777.450125,84.6369486 C773.819074,84.4471974 767.710454,83.4048308 766.085902,85.018981 C764.461351,86.6306011 761.787715,90.0461226 760.450898,90.423095 C759.116627,90.8051274 757.013367,91.6602728 757.013367,90.5192356 C757.013367,89.3807284 760.356684,85.5857046 758.732132,85.492094 C757.107581,85.3959534 755.297148,88.3383619 753.481622,88.8140049 C751.666097,89.2871178 753.099674,85.7754557 751.284149,86.0613475 C749.468623,86.3447093 746.55818,93.8892168 745.027842,96.1662311 C743.502597,98.4407154 741.974806,101.858767 740.444468,104.039641 C738.919223,106.223044 737.388885,106.033293 735.575905,108.406448 C733.76038,110.774543 732.140921,116.183717 731.756427,117.891478 C731.374479,119.601768 732.520322,120.550524 733.380978,119.79152 C734.239088,119.029985 738.346301,113.43359 740.065066,112.201472 C741.783832,110.966824 743.787785,110.966824 744.169733,112.388693 C744.554227,113.813092 742.402587,123.158971 740.683822,127.996361 C738.965056,132.833752 737.724999,140.234048 736.197207,143.366208 C734.669416,146.495838 733.378432,152.712087 734.048114,157.455867 C734.715249,162.199646 735.670119,165.89853 735.764333,169.12683 C735.863639,172.35007 734.524276,171.497455 736.818509,176.527127 C739.10765,181.554268 742.832915,188.19556 745.027842,188.668673 C747.225316,189.144316 753.242268,187.719917 755.055247,185.728794 C756.870773,183.735142 766.798872,169.410192 766.798872,167.322929 C766.798872,165.235665 767.565314,151.290218 766.895632,150.528683 C766.22595,149.769678 763.649075,149.200425 763.170367,148.158058 C762.694205,147.115692 760.784466,134.685723 761.739335,132.312568 C762.694205,129.941944 763.600695,124.391089 764.940059,121.165318 C766.27433,117.939548 766.368544,115.472783 767.514387,113.861162 C768.662777,112.247012 769.044725,109.876387 770.857704,109.876387 C772.67323,109.876387 774.007501,110.25336 774.868157,109.210993 C775.728813,108.166097 776.586923,105.891612 779.069584,104.656964 C781.552245,103.424847 777.256605,113.48166 779.451532,112.912406 C781.649005,112.340623 780.694136,108.73788 782.412901,108.262237 C784.131667,107.789124 785.086536,108.262237 785.086536,106.746758 C785.086536,105.226218 782.412901,102.853063 784.989776,101.337584 C787.566651,99.8170441 795.781077,99.2503205 794.729447,97.4464191 C793.680364,95.6450478 791.291916,96.1181608 791.57965,94.0308977 C791.864838,91.9436345 791.38613,88.9076154 794.156525,89.1935072 C796.924374,89.476869 803.608462,91.1846298 804.947826,92.4167475 C806.284644,93.6513953 804.469118,96.4040526 809.722175,97.1605274 C814.972685,97.9195321 822.802617,99.1541799 823.375538,101.620945 C823.94846,104.087711 826.05172,106.551946 824.521382,106.933979 C822.993591,107.313481 820.510929,106.648087 822.232241,109.686636 C823.94846,112.722655 824.615596,112.436763 824.521382,116.61129 C824.427168,120.785816 825.00009,123.535943 823.472299,124.297478 C821.941961,125.056483 819.843794,123.917976 820.128981,126.953995 C820.416716,129.990014 814.542357,130.98684 814.066195,133.074103 C813.587487,135.158836 812.25067,138.290996 813.587487,139.239752 C814.924305,140.188508 814.353929,142.465522 818.55281,139.333363 C822.756783,136.203733 827.146637,131.647174 831.539038,131.935596 C835.931439,132.218958 837.650204,134.11647 838.4141,136.013982 C839.180542,137.911494 837.650204,140.4744 839.847677,145.025898 C841.999317,149.486316 839.860409,155.019461 843.898871,153.104239 C841.594452,159.335668 838.824057,165.544327 838.263867,166.288152 C837.909929,166.753675 836.147876,167.53039 834.367999,168.314695 C832.038116,169.341881 829.675132,170.384248 829.288092,171.537935 C829.211702,171.770697 829.058923,172.132489 828.885773,172.547411 L828.885773,172.549941 C828.188082,174.229872 827.156822,176.706758 827.579511,179.226653 C827.69155,179.894578 827.727198,180.413231 827.757754,180.838274 C827.864699,182.409414 827.902894,182.978667 830.130923,185.09123 C831.544131,186.434669 832.69252,187.206324 833.980958,187.656667 C835.261757,188.101949 836.598574,188.20315 838.426831,188.20315 C840.743982,188.20315 852.749877,183.37588 862.362232,179.510015 C868.244229,177.14951 873.222284,175.148268 874.327386,174.892736 C875.121838,174.713105 876.619073,174.389263 878.381126,174.007231 C882.755703,173.063535 888.846498,171.750456 891.568514,170.963622 C893.638671,170.369068 899.327148,168.079403 904.144784,165.94154 C908.218895,164.135109 911.740454,162.364097 912.173329,161.648103 C912.837918,160.547546 912.3312,158.847375 911.852492,157.240815 C911.618231,156.44892 911.389062,155.684855 911.353414,155.163672 C911.320312,154.725979 911.358506,154.321177 911.394155,153.913844 L911.394155,153.911314 C911.498554,152.742447 911.605499,151.548279 910.673547,149.506557 C910.118449,148.294679 909.311266,147.404113 908.641584,146.662819 C908.117042,146.085975 907.747826,145.678642 907.819123,145.615392 C908.483712,145.018308 911.289756,143.73812 914.218023,142.731174 C916.476608,141.956989 918.760656,141.364965 920.094928,141.413036 C920.782434,141.435806 922.893333,141.574957 925.729932,141.762178 C935.739513,142.422512 954.681582,143.67234 955.641544,142.313721 C955.921639,141.916509 956.441088,140.914623 957.11077,139.619254 C958.737868,136.482035 961.312197,131.523203 962.855266,130.293616 C963.738839,129.592801 967.280769,126.890744 971.370158,123.791475 C977.491509,119.146366 984.674676,113.722012 986.047142,112.699885 C987.144605,111.88269 988.550174,111.245126 990.266393,110.680932 C992.036085,110.101559 994.124066,109.603146 996.540523,109.076902 C998.906054,108.558249 1014.77472,108.606319 1030.03735,108.64933 C1045.58009,108.69487 1060.51934,108.74041 1061.00823,107.642383 L1061.00569,107.639853 C1061.21958,107.15915 1061.32143,106.372315 1061.43602,105.48175 C1061.61426,104.090241 1061.83833,102.35465 1062.22537,102.225619 C1063.04274,101.957438 1064.66475,101.484325 1066.10342,101.142772 C1067.07611,100.910011 1067.9495,100.73797 1068.37219,100.73797 C1068.6421,100.73797 1069.3678,101.145302 1070.12406,101.572875 C1071.45833,102.32429 1072.87663,103.121245 1073.97918,102.683552 C1074.58011,102.443201 1075.48915,101.785396 1076.46184,100.980851 C1077.73755,99.9233047 1079.13039,98.6228765 1080.02924,97.7323109 C1080.90772,96.8569254 1082.46352,94.4938906 1083.7545,92.1637459 C1084.92072,90.0638327 1085.8985,87.9335593 1086.02837,86.8532425 C1086.11239,86.1574881 1086.06911,85.2289723 1086.02073,84.222026 C1085.93161,82.3270441 1085.82466,80.1158102 1086.53254,79.5212564 C1087.61982,78.6053907 1092.39162,70.9369124 1096.30786,64.6447628 C1098.58681,60.9863598 1100.5704,57.7960098 1101.31392,56.7536432 C1102.13129,55.607546 1102.84935,54.3071178 1103.52667,53.0750001 C1104.5121,51.2913389 1105.41604,49.6468285 1106.31744,49.0472148 L1106.31744,49.0497448 C1106.42693,48.9789043 1106.52369,48.9156539 1106.60772,48.8726437 C1107.21883,48.5336215 1107.80194,48.4248308 1108.28065,48.4804912 C1108.65751,48.5285615 1108.95288,48.6854225 1109.10566,48.9105939 L1109.1082,48.9105939 L1109.14894,48.9814343 C1109.27881,49.247086 1109.25589,49.7935694 1109.23552,50.3425829 L1109.23552,50.3451129 C1109.19223,51.3419392 1109.14894,52.3514155 1109.84409,53.1433105 L1109.84154,53.1433105 L1109.85937,53.1635506 L1109.86701,53.1711407 C1110.88299,54.3248279 1112.74944,56.4424513 1114.9571,55.2609338 C1115.91451,54.7473406 1118.81477,53.2698113 1121.3229,52.2426248 C1122.75138,51.6581912 1124.02454,51.2230284 1124.64839,51.2230284 C1125.32826,51.2230284 1126.78221,52.0376936 1128.32782,53.0901802 C1130.43363,54.5171092 1132.58272,56.3336606 1133.33643,57.2697665 C1133.79222,57.83649 1133.81769,64.8547542 1133.8406,72.2525207 C1133.86607,81.2669674 1133.44847,90.8481377 1134.95589,91.6906329 C1135.69687,92.1030255 1137.07697,92.3155469 1138.01147,92.5584284 C1139.38139,92.9126306 1140.7615,93.2693629 1140.7615,94.0359577 C1140.7615,94.5419609 1140.75131,94.9594135 1140.74113,95.4299965 C1140.66983,98.2939745 1140.56034,102.696202 1142.10341,103.670258 C1142.61013,103.98904 1143.27471,104.145901 1143.98514,104.229392 C1144.5988,104.302762 1147.43031,104.345773 1147.63401,104.507694 L1147.63656,104.507694 C1147.82499,104.651904 1148.81551,106.005463 1149.71945,107.240111 C1149.55139,107.586723 1149.42662,107.981405 1149.35533,108.355848 C1149.1287,109.522185 1148.99629,110.777073 1149.44699,111.94341 C1149.89514,113.107218 1149.22037,114.319095 1148.40809,115.08063 C1147.59582,115.842165 1146.82938,117.501855 1144.79741,116.65177 C1142.768,115.799155 1142.40897,115.12617 1141.32678,115.616993 C1140.24205,116.112877 1136.76887,115.976256 1134.60195,117.949668 C1132.44013,119.923081 1130.54567,122.119134 1129.86834,123.148851 C1129.18848,124.181097 1128.03754,119.76369 1126.41554,119.675139 C1124.79098,119.586588 1121.63355,120.034401 1121.22614,120.616305 C1120.82127,121.198209 1122.85069,126.802194 1120.32474,126.485942 C1117.79879,126.17475 1114.63881,125.501766 1115.09205,124.426509 C1115.54275,123.348722 1117.618,122.273465 1116.53582,121.691562 C1115.45363,121.107128 1115.81266,118.645422 1114.59552,118.597352 C1113.37583,118.554342 1111.30313,129.30944 1108.23482,130.746489 C1105.16905,132.178478 1104.77182,132.125347 1104.63941,131.743315 C1104.50446,131.363812 1104.36441,130.197475 1103.73547,130.511197 C1103.10398,130.824919 1102.4725,133.759738 1101.6373,133.736967 C1100.80466,133.716727 1100.64424,131.475133 1099.96946,131.520673 C1099.29214,131.563684 1099.08844,135.217027 1098.43403,135.017155 C1097.77963,134.812224 1096.62869,133.693957 1096.08887,132.439069 C1095.54905,131.184181 1095.04998,130.711068 1094.62219,131.138641 C1094.19441,131.563684 1096.42499,137.638252 1094.80298,137.322 C1093.17843,137.008278 1092.72773,135.553519 1091.01406,136.092412 C1089.30039,136.631306 1087.31426,137.526931 1087.22514,138.781819 C1087.13347,140.036707 1087.68857,141.655917 1086.32119,143.353558 C1084.95891,145.051199 1084.57696,146.187176 1081.90333,148.560331 C1079.22969,150.930956 1075.21924,154.159256 1075.21924,155.867017 C1075.21924,157.572247 1074.64887,159.758181 1074.83984,160.800548 C1075.03081,161.842914 1074.93405,163.836567 1075.79471,163.930177 C1076.65282,164.026318 1079.99614,163.550675 1079.80516,164.689182 C1079.61419,165.827689 1074.45535,166.589224 1073.78821,167.155948 C1073.11853,167.725201 1070.06549,171.140723 1070.35068,171.899727 C1070.63587,172.658732 1074.43497,175.48223 1076.10536,175.955343 C1077.77575,176.430986 1078.15515,179.277254 1078.68224,180.843334 C1079.20932,182.409414 1078.82738,183.262029 1081.0223,184.921719 C1083.21978,186.58141 1084.12627,187.059583 1085.89341,186.535869 C1087.65801,186.014686 1088.85478,186.343588 1088.80385,184.494147 C1088.75802,182.647235 1086.56055,181.033085 1086.7999,179.988188 C1087.03925,178.945822 1087.75477,178.090676 1089.51937,180.177939 C1091.28906,182.265203 1093.48399,187.105123 1092.24393,187.864128 C1090.99878,188.623133 1086.51217,188.954565 1083.83853,188.28917 C1081.1649,187.626306 1077.63061,186.58141 1076.34471,187.102593 C1075.05373,187.626306 1069.94581,191.231579 1068.79997,191.186039 C1067.65413,191.135438 1066.36569,189.050705 1067.12704,188.14749 C1067.89093,187.246804 1070.18517,186.298048 1069.37289,185.539043 C1068.56062,184.780038 1066.50828,187.057053 1065.26568,186.014686 C1064.02562,184.96979 1063.59784,183.49732 1062.49783,184.021034 C1061.39782,184.544747 1061.20685,193.791955 1060.34874,195.026603 C1059.48808,196.258721 1057.96029,196.924115 1054.90725,196.924115 C1051.84912,196.924115 1037.04992,196.16511 1033.42141,196.734364 C1029.79291,197.303617 1022.55881,200.693839 1021.12778,201.503444 C1019.6942,202.307989 1015.77797,205.533759 1014.58883,206.530585 C1013.39461,207.527411 1012.96428,203.777928 1012.96428,202.259918 C1012.96428,200.741909 1012.58233,196.992425 1011.57908,196.23595 C1010.57583,195.476946 1010.47907,201.075871 1010.57583,202.973383 C1010.6726,204.870895 1011.29135,207.762703 1009.71773,209.093491 C1008.14155,210.41922 1006.51955,213.59692 1005.99501,214.973248 C1005.46537,216.349577 1007.78252,216.941601 1009.59805,217.558925 C1011.41103,218.176248 1011.88974,219.221145 1011.84136,219.600647 C1011.79298,219.97762 1010.50454,228.045841 1009.07351,232.028086 C1007.63993,236.012861 1006.39987,237.343649 1004.39337,238.765518 C1002.38942,240.189917 1001.14681,240.946392 1001.33779,242.27718 C1001.52876,243.602908 998.47318,243.033655 997.806044,244.172162 C997.136362,245.310669 996.851174,249.012082 995.896305,249.864698 C994.941435,250.719843 994.462727,252.523744 992.934935,251.76221 C991.407144,251.003205 995.226623,248.536439 993.031696,246.638927 C990.834222,244.741416 986.917983,245.40681 985.677926,243.79266 C984.437868,242.181039 985.486952,241.232283 983.673972,240.189917 C981.858447,239.14502 981.573259,237.720621 982.240395,236.298752 C982.90753,234.874353 984.437868,233.548625 986.250847,232.028086 C988.066373,230.510076 990.355514,230.510076 989.879352,227.759949 C989.403191,225.007291 989.306431,227.853559 986.441821,229.088207 C983.577212,230.320325 982.049421,232.407588 980.809363,233.452485 C979.566759,234.497381 978.993838,237.055227 979.088051,238.003983 C979.184812,238.952739 980.809363,241.232283 981.479045,244.268303 C982.143635,247.304322 982.237848,248.063326 983.292025,249.674947 C984.343654,251.286567 989.688378,253.280219 989.212217,254.891839 C988.733509,256.50599 987.564748,259.139736 987.564748,260.040422 C987.564748,260.943637 988.519618,260.088492 989.617081,261.181459 C990.717091,262.269366 986.538582,269.505211 984.483702,271.496334 C982.433915,273.489986 982.479749,277.047189 981.524879,278.944701 C980.570009,280.842213 978.255405,285.325401 977.061181,286.937021 C975.869504,288.551171 972.620401,293.340491 971.856505,292.629557 C971.095155,291.918622 970.804875,287.030632 972.335213,284.376645 C973.860458,281.720128 979.304489,275.933982 978.349619,274.889085 C977.394749,273.844189 975.008848,276.027592 974.57852,275.124377 C974.148192,274.226221 976.824374,272.51593 975.770198,271.946677 C974.721114,271.377423 972.477807,272.705681 973.144942,271.045991 C973.814624,269.386301 974.57852,268.910658 974.624354,267.67854 C974.672734,266.446422 974.458843,264.713361 973.549807,264.996723 C972.645864,265.282615 973.025265,267.607699 972.26137,267.321808 C971.50002,267.038446 971.40326,265.710187 970.639364,265.993549 C969.875469,266.276911 968.681245,267.891061 968.062489,266.752554 C967.441187,265.614047 965.480522,264.141578 965.674042,263.192822 C965.865016,262.244066 966.392104,260.918337 968.110869,260.490765 C969.827088,260.063192 972.118776,261.533131 972.26137,260.301013 C972.40651,259.068896 969.396761,257.548356 968.156703,257.500286 C966.916646,257.454745 966.437938,259.208047 965.531448,258.12014 C964.622412,257.027173 964.479818,256.60213 965.625662,256.030347 C966.771505,255.463623 969.350927,256.837422 968.250917,254.93991 C967.156,253.042398 968.515734,253.070228 966.748589,252.688196 C964.981443,252.308693 963.835599,251.266327 964.362687,250.552862 C964.887229,249.841928 968.706708,251.215726 969.08611,249.983609 C969.470604,248.748961 970.616447,248.182237 969.470604,247.610454 C968.32476,247.04373 965.793719,247.137341 966.511781,246.044374 C967.227297,244.953937 966.127287,243.81543 968.849302,243.104495 C971.571317,242.393561 974.005598,243.435927 974.005598,242.535242 C974.005598,241.634556 970.616447,242.107669 971.522937,240.541589 C972.429427,238.978039 974.866254,239.453682 974.387546,238.267105 C973.911384,237.080527 970.091906,237.5081 968.561568,238.550467 C967.036323,239.592833 965.172417,241.206983 963.693005,241.965988 C962.213594,242.724993 959.300605,244.101322 959.061251,244.528894 C958.821897,244.953937 962.738136,248.941242 962.116834,249.318214 C961.495532,249.697717 959.300605,249.272674 959.491579,249.983609 C959.682553,250.694543 961.592292,251.499088 961.686506,252.971557 C961.783266,254.441497 961.256178,256.814651 961.11613,257.811478 C960.97099,258.805774 961.01937,261.41422 960.591589,261.841793 C960.161261,262.269366 959.730933,262.745009 959.109631,261.41675 C958.488329,260.088492 958.439949,257.480046 957.581839,257.859548 C956.72373,258.23652 955.57534,262.696938 956.672803,263.645694 C957.772813,264.59445 960.423532,264.619751 961.806183,265.330685 C963.191381,266.041619 964.14625,269.171249 964.14625,269.836643 C964.14625,270.502038 964.767552,271.448264 964.09787,271.734155 C963.430735,272.020047 960.899693,269.788573 958.84736,268.080812 C956.79248,266.373052 955.173021,265.285145 954.218152,265.758258 C953.263282,266.231371 952.402626,265.614047 951.684564,264.713361 C950.969048,263.812675 949.298663,263.433173 948.916715,263.149811 C948.534767,262.86392 950.396126,260.918337 949.919965,259.542009 C949.443803,258.16568 947.913465,258.686863 947.243783,259.496468 C946.579194,260.301013 945.667612,263.954356 944.1882,264.52361 C942.708789,265.092864 940.990023,266.658943 942.469435,267.038446 C943.951393,267.417948 948.010225,264.996723 949.538017,266.658943 C951.063262,268.318634 950.062559,268.791747 952.257486,269.646892 C954.454959,270.502038 959.183474,272.824592 960.85386,273.586127 C962.524245,274.345132 967.059239,275.577249 966.532151,276.809367 C966.00761,278.044015 965.867562,280.604391 964.24301,280.321029 C962.618459,280.037668 960.041584,278.140156 957.74735,276.336254 C955.458209,274.534883 951.447756,273.869489 951.447756,273.869489 C951.447756,273.869489 951.73549,275.767001 954.597553,277.758123 C957.462162,279.751776 958.228604,281.363396 961.757803,283.357048 C965.292094,285.348171 965.577282,285.919955 965.577282,287.152072 C965.577282,288.38419 965.292094,289.99834 964.337224,290.091951 C963.382355,290.188091 963.955276,290.850956 961.281641,288.480331 C958.608006,286.109706 958.417032,284.781447 956.318865,284.781447 C954.218152,284.781447 951.829704,285.15842 952.5936,285.823814 C953.357496,286.486678 953.263282,286.013565 955.649183,287.245683 C958.03763,288.480331 958.131844,289.143195 959.659636,290.663734 C961.187427,292.179214 963.382355,292.371495 963.191381,293.413862 C963.002953,294.458758 962.712673,295.121622 961.951323,295.594735 C961.187427,296.070378 959.94737,294.076726 957.176975,292.275354 C954.409126,290.473983 951.353543,290.377843 950.014179,290.281702 C948.679907,290.188091 944.763668,289.429087 945.23983,290.473983 C945.718538,291.51635 949.059309,291.989463 951.447756,292.654857 C953.833657,293.320251 956.413079,293.510002 956.983454,294.645979 C957.558922,295.784487 957.462162,300.244905 959.371902,300.528266 C961.281641,300.814158 964.24301,299.4859 965.961776,298.820506 C967.680541,298.157641 970.257416,297.87175 971.59678,298.633284 C972.931052,299.392289 972.979432,302.569989 973.840088,305.132895 C974.698197,307.690741 971.069692,306.175262 970.781958,307.030407 C970.49677,307.883023 971.069692,308.545887 972.691698,310.919042 C974.316249,313.289667 972.788458,313.383277 972.30975,314.048671 C971.833588,314.714066 970.211583,315.280789 969.256713,314.048671 C968.301843,312.816554 966.962479,311.392155 966.486318,311.961408 C966.00761,312.530662 967.441187,314.620455 966.392104,315.187179 C965.340474,315.758962 965.065472,315.746312 964.421253,315.675472 C963.777034,315.602101 963.4893,314.678645 962.391836,314.772256 C961.294373,314.868397 961.844378,316.219425 962.223779,316.836749 C962.608273,317.454073 962.414753,318.114407 961.485347,318.235848 C960.553394,318.354759 958.928842,319.020153 958.45268,318.094167 C957.976519,317.168181 958.763331,313.302317 957.261003,312.851974 C955.756128,312.401631 955.516774,315.508491 955.610988,316.859519 C955.710295,318.213078 953.00865,320.773454 956.494561,321.226327 C959.980472,321.676669 963.703191,320.609003 965.017091,320.25227 C966.330992,319.898068 968.454622,319.612176 969.053007,319.991679 C969.648846,320.371181 969.648846,322.883487 969.648846,324.355956 C969.648846,325.825895 969.078471,327.915689 970.079174,327.154154 C971.082424,326.395149 971.606966,323.35913 972.752809,322.645665 C973.898653,321.934731 975.617418,322.789876 975.663252,324.118135 C975.714179,325.446393 975.617418,327.106084 974.901903,327.961229 C974.183841,328.813844 971.512752,330.617746 968.93333,331.518431 C966.353909,332.421647 966.114555,334.268559 964.731904,333.180652 C963.349252,332.087685 964.635144,331.045318 963.204112,331.28314 C961.770534,331.518431 960.912425,331.994074 960.721451,331.184469 C960.530477,330.379924 960.385337,328.19905 959.478847,328.864445 C958.574904,329.524779 958.33555,331.32868 957.378134,331.566502 C956.423264,331.804323 953.894769,330.427994 951.93665,329.952351 C949.981076,329.479238 948.881067,331.138929 949.405608,331.37675 C949.93015,331.612042 952.366978,331.849863 954.992233,333.081981 C957.620034,334.319159 960.003389,335.361525 960.291123,336.593643 C960.578857,337.825761 960.983722,338.564526 958.549441,339.369071 C956.115159,340.176146 957.210077,341.456334 954.396394,340.080005 C951.577619,338.703676 949.285931,336.808695 949.140791,337.851061 C949.000744,338.893428 950.383395,342.311479 952.05378,342.976873 C953.726712,343.637208 956.018399,344.730174 957.594571,344.257061 C959.168196,343.781418 960.028852,342.025587 961.699238,342.549301 C963.369623,343.070484 962.559893,344.06478 963.323789,344.06478 C964.085139,344.06478 965.75807,342.4987 966.043258,343.543597 C966.330992,344.585963 962.654107,350.754142 961.938592,349.473954 C961.220529,348.193766 964.181899,346.579616 962.414753,346.010362 C960.650154,345.441109 958.595274,345.489179 957.021649,346.483475 C955.445477,347.482832 951.865353,348.80856 950.910483,348.287377 C949.955613,347.766193 951.340811,346.627686 949.571119,346.769367 C947.80652,346.911048 946.375488,348.097626 945.611593,348.241836 C944.845151,348.380987 943.936115,346.959118 942.601843,347.293081 C941.265026,347.624513 942.077302,349.139992 942.50763,350.32657 C942.935411,351.515677 944.822234,352.484673 942.57638,353.671251 C940.333073,354.857828 939.617557,355.14119 938.853661,355.758514 C938.089766,356.378368 938.32912,357.134842 937.231656,358.27588 C936.131646,359.411857 935.416131,360.218932 934.079313,360.502294 C932.742495,360.788185 931.357298,357.704096 930.92697,359.125965 C930.496642,360.550364 929.613069,363.563613 930.616319,365.033552 C931.619569,366.503491 932.24087,367.168886 930.952433,367.406707 C929.661449,367.644529 924.744507,367.072745 922.643793,366.931064 C920.54308,366.789383 919.970158,367.072745 918.633341,368.401003 C917.296523,369.729262 912.761528,373.430675 911.567305,373.903788 C910.373081,374.379431 909.298534,380.380629 908.394591,380.757601 C907.485555,381.139633 907.009393,378.007474 905.81517,378.528657 C904.620946,379.04984 906.197117,382.275611 905.81517,383.74808 C905.430675,385.218019 903.284128,385.551981 900.992441,387.211672 C898.700754,388.871362 898.079452,391.907381 895.930358,391.621489 C893.781265,391.338128 892.826395,388.588 891.825692,390.007339 C890.822442,391.431738 891.632171,393.852963 890.392114,394.467757 C889.152057,395.085081 884.759656,395.654335 883.374458,395.699875 C881.989261,395.750475 878.623027,396.48671 878.243625,397.197644 C877.861677,397.911109 878.719787,400.043912 877.049401,398.432292 C875.379016,396.818142 874.757714,394.586668 873.754464,396.059137 C872.751214,397.529076 873.084782,399.426588 874.994522,400.613166 C876.904261,401.799743 878.528813,402.700429 877.764917,403.887006 C877.001021,405.073584 872.132459,407.444209 871.941485,409.435331 C871.750511,411.428984 872.035699,413.374566 869.983365,414.03996 C867.931032,414.700294 865.924533,412.42581 864.921283,413.420106 C863.920579,414.416933 864.371278,418.330867 865.326148,418.71037 C866.281017,419.092402 867.714595,417.382111 868.050709,418.80398 C868.384277,420.228379 865.99583,421.698318 864.946746,421.93614 C863.895116,422.171431 861.460835,420.845703 861.076341,422.222032 C860.696939,423.59836 862.461538,423.408609 863.991876,424.592657 C865.519668,425.779234 860.887913,426.821601 860.887913,428.483821 C860.887913,430.143512 862.176351,430.760835 861.700189,435.598226 C861.221481,440.438146 862.367325,442.429269 863.98933,447.266659 C865.613882,452.10658 867.141673,459.696627 868.190757,460.837665 C869.242387,461.973642 871.200506,468.663004 874.065115,472.458028 C876.929724,476.253052 880.173735,479.951935 880.749203,482.987954 C881.322125,486.026503 881.322125,487.638123 880.273041,487.354761 C879.221412,487.0714 878.169782,483.653348 877.023938,481.755836 C875.880641,479.858324 873.588953,480.427578 873.588953,481.090442 C873.588953,481.755836 875.019985,485.740611 877.023938,488.397128 C879.030438,491.053645 882.564729,498.833444 884.186734,502.628467 C885.808739,506.423491 887.815239,508.414614 886.669395,509.651792 C885.523552,510.883909 881.798287,510.694158 883.328625,511.832665 C884.85387,512.971173 886.763609,512.49806 888.006213,514.20329 C889.24627,515.911051 890.537254,518.139995 890.440494,520.892652 C890.34628,523.64531 889.964332,526.395437 889.582385,530.663574 C889.200437,534.934241 889.297197,536.642001 889.297197,540.247274 C889.297197,543.852547 888.052047,545.276946 886.526801,547.364209 C884.99901,549.451472 884.927713,550.422998 885.403875,551.657646 C885.882583,552.889764 885.928416,553.696839 884.591599,555.356529 C883.254781,557.01622 880.8205,561.476638 879.959844,560.672093 C879.101735,559.862487 882.730239,554.359703 881.917964,554.030801 C881.108234,553.696839 880.293412,553.555158 879.101735,554.551984 C877.910057,555.54628 878.050105,556.495036 875.712584,556.495036 C873.372516,556.495036 868.694928,557.964975 869.410444,555.928313 C870.125959,553.88659 873.181542,554.883416 873.420896,553.459017 C873.66025,552.034618 867.643298,548.765838 865.542585,547.007477 C863.441871,545.251646 862.441168,540.270044 859.764986,540.082823 C857.091351,539.893072 857.330705,541.696973 856.472596,539.371889 C855.61194,537.046804 855.207075,529.100024 854.107065,528.720522 C853.012148,528.341019 852.721867,529.476996 852.961221,528.103198 C853.200575,526.729399 857.68719,523.549169 856.686486,522.979915 C855.683237,522.410662 853.106362,526.491578 851.62695,525.826183 C850.147539,525.160789 849.286883,520.657361 850.717914,519.232962 C852.151492,517.808563 853.630903,516.576445 852.245706,516.434764 C850.863054,516.293083 848.953315,518.85346 846.228753,517.763023 C843.509285,516.672586 842.292144,513.849088 840.619212,510.95475 C838.948827,508.062942 835.79903,507.159726 838.472665,504.834641 C841.143754,502.509557 843.868316,502.130054 843.771555,500.280613 C843.674795,498.431171 844.535451,495.868265 842.95928,496.012476 C841.383108,496.156687 841.192134,497.576026 840.810186,498.051669 C840.428238,498.527312 839.282395,496.389448 837.945577,496.6298 C836.608759,496.867621 838.948827,499.286316 838.757853,499.85304 C838.566879,500.424824 836.514546,503.268561 836.178431,502.891589 C835.844864,502.509557 833.59901,498.19335 833.79253,496.581729 C833.983504,494.970109 838.783316,484.177061 838.398822,481.234653 C838.01942,478.294774 836.489082,471.511802 834.915457,470.752797 C833.339286,469.993792 824.152166,464.086205 823.622531,462.426515 C823.09799,460.764294 825.916765,461.381618 823.003776,458.821242 C820.090787,456.258336 813.503459,449.996546 811.545339,450.140757 C809.58722,450.282438 794.739632,456.544228 792.447945,457.303232 C790.156258,458.062237 788.9162,460.339251 786.430993,458.44174 C783.948332,456.544228 778.697821,453.318457 781.180483,452.559453 C783.663144,451.800448 785.381909,452.941485 785.096722,451.800448 C784.806441,450.661941 780.322373,450.851692 780.322373,448.668288 C780.322373,446.487414 782.135352,444.304011 780.416587,444.304011 C778.697821,444.304011 774.972556,447.34256 774.017687,447.150279 C773.062817,446.960527 768.194255,446.677166 768.95815,444.686043 C769.722046,442.692391 772.107947,441.08077 770.007234,441.08077 C767.909067,441.08077 764.471536,444.402681 761.413407,444.304011 C758.36037,444.2104 755.30224,444.020649 754.729319,442.978282 C754.156397,441.933386 752.246657,437.285747 751.96147,438.421724 C751.676282,439.560231 750.802894,441.447623 749.919322,441.06812 C749.035749,440.688618 748.964452,439.170608 747.938285,439.40843 C746.912119,439.643721 748.035045,442.441919 747.128556,443.107313 C746.21952,443.770177 744.35816,446.118032 743.594265,444.860614 C742.827823,443.605726 745.598218,442.085187 744.284317,441.424853 C742.972963,440.759458 742.280364,442.064947 741.325494,443.178154 C740.370624,444.293891 738.555099,447.069318 737.674072,446.500064 C736.7905,445.930811 735.978224,445.217346 734.689786,441.849895 C733.398802,438.482444 732.683287,435.636176 731.585823,436.109289 C730.485813,436.584932 730.870307,441.470393 730.106412,442.61143 C729.33997,443.747407 729.867058,446.307783 728.912188,446.831497 C727.957318,447.35521 724.328813,448.729008 724.565621,447.590501 C724.804975,446.451994 727.957318,445.169276 725.950819,444.081369 C723.946865,442.988402 719.195434,443.770177 716.188231,444.19775 C713.178481,444.625323 711.268742,444.673393 709.359003,444.293891 C707.449263,443.914388 705.063362,444.007999 704.060112,445.100966 C703.059409,446.191403 703.059409,447.42605 701.625831,447.615801 C700.1948,447.803023 693.054921,445.409628 691.384535,445.503238 C689.71415,445.599379 682.693948,448.253365 683.124276,449.298262 C683.554604,450.343159 685.321749,451.479136 688.996088,451.102163 C692.675519,450.722661 696.97116,449.821975 696.8744,450.957952 C696.780186,452.09899 694.870446,452.999675 696.683426,453.996502 C698.498951,454.990798 699.168633,455.656192 700.075123,454.231793 C700.979066,452.809924 701.457774,451.719487 701.933936,451.575276 C702.412644,451.433595 706.614071,456.225446 705.183039,457.174202 C703.749461,458.122958 699.550581,456.89084 700.075123,458.074887 C700.599665,459.258935 703.2733,460.351902 702.557784,460.921155 C701.839722,461.490409 696.540832,460.020469 697.589915,461.255117 C698.641545,462.487235 700.431607,466.684531 702.150373,466.117808 C703.869138,465.546024 704.633034,465.735775 706.209206,466.684531 C707.785377,467.633287 710.889341,467.681358 711.222908,469.5814 C711.556476,471.478912 709.934471,473.707856 708.977055,474.274579 C708.022185,474.846363 703.059409,477.406739 703.583951,475.461157 C704.108492,473.515574 709.407383,472.093705 706.733748,471.144949 C704.060112,470.196193 702.247133,470.623766 700.670961,469.341048 C699.09479,468.06086 697.757972,465.404343 696.184347,464.265836 C694.608175,463.127329 690.167395,461.088136 688.975717,461.75353 C687.778947,462.416395 690.167395,463.982474 690.837077,464.976771 C691.504212,465.973597 690.500963,468.536503 690.119015,469.816691 C689.737067,471.096879 688.400249,472.283457 687.206025,472.379597 C686.014348,472.473208 689.640307,468.865405 687.063432,467.777498 C684.486557,466.684531 683.195573,466.213948 681.716161,467.539677 C680.23675,468.867935 679.495771,471.547222 677.010563,471.21579 C674.530448,470.884358 669.134798,466.854042 668.65609,464.85786 C668.179928,462.866737 670.232262,460.589723 667.79798,460.351902 C665.363699,460.11408 665.842407,462.818667 664.551423,462.297484 C663.262986,461.776301 658.249283,456.511337 656.14857,456.511337 C654.047857,456.511337 648.603826,457.078061 648.509612,458.077417 C648.412852,459.071714 647.218628,460.685864 650.083238,460.306361 C652.950393,459.924329 653.808503,458.978103 654.811752,459.878789 C655.815002,460.779474 658.343497,462.062192 657.437007,463.152629 C656.530518,464.243066 650.228378,462.393624 648.509612,462.583376 C646.790847,462.770597 644.881107,463.152629 643.54429,461.917981 C642.204926,460.685864 629.315458,455.990154 627.787666,454.376004 C626.262421,452.761854 627.690906,449.348862 625.495979,449.062971 C623.301052,448.777079 622.822344,454.376004 623.206838,455.135009 C623.58624,455.894014 625.210791,456.556878 625.017271,457.791525 C624.826297,459.026173 617.378313,460.06854 616.998912,458.55053 C616.616964,457.032521 618.144756,455.797873 616.902152,453.71061 C615.662094,451.625877 614.32273,452.574633 614.613011,454.186253 C614.898199,455.797873 615.949828,457.791525 614.41949,458.644141 C612.891699,459.499286 606.874747,462.249414 605.158527,462.345554 C603.439762,462.439165 603.72495,461.872441 601.145528,461.776301 C598.568653,461.68269 597.613784,464.053315 597.040862,461.776301 C596.470486,459.499286 599.044815,456.463267 597.040862,456.273516 C595.036909,456.083765 594.367227,459.592897 593.315597,459.499286 C592.266513,459.403146 589.687092,457.695385 589.496118,459.403146 C589.30769,461.110906 591.696138,463.104559 593.221383,464.432817 C594.749175,465.761076 597.32605,463.387921 597.137622,465.667465 C596.946648,467.941949 594.560747,470.504855 592.651007,470.598466 C590.741268,470.694607 593.987825,467.848339 592.266513,467.468836 C590.547748,467.086804 588.925742,468.797095 588.065087,469.839461 C587.206977,470.884358 586.822483,475.155025 584.627556,475.817889 C582.432628,476.480753 579.257368,479.20811 576.919847,479.542072 C574.57978,479.873504 573.097822,480.82226 573.433936,481.060082 C573.764958,481.297903 575.055942,481.297903 575.010108,482.38834 C574.959182,483.478777 573.47977,483.812739 571.809385,483.762139 C570.138999,483.716599 568.08412,483.620458 568.22926,482.530021 C568.371854,481.439584 569.660291,480.159396 568.03574,480.349147 C566.413734,480.538899 565.461411,481.629335 564.885943,481.012012 C564.315567,480.394688 564.455615,479.018359 563.309771,479.20811 C562.163927,479.400391 564.05075,481.224533 562.426198,481.085382 C560.804193,480.941171 560.040297,479.471232 559.230568,480.088556 C558.415746,480.70335 560.470625,482.507251 562.380365,484.452833 C564.290104,486.395885 561.901657,488.010036 560.376411,488.103646 C558.846073,488.199787 558.224772,484.832336 556.315032,484.736195 C554.405293,484.642584 555.505303,486.919599 555.171735,487.961965 C554.835621,489.004332 553.832371,490.28705 552.640694,490.997984 C551.44647,491.711449 549.967058,490.572942 549.152236,491.283876 C548.342507,491.994811 549.203163,492.042881 550.107106,493.748112 C551.016142,495.458402 549.297376,497.355914 548.533481,498.684173 C547.772131,500.012431 541.849393,497.543135 541.658419,499.063675 C541.467445,500.581685 545.908226,501.009257 546.672121,502.241375 C547.436017,503.473493 544.953356,507.650549 544.477194,508.503164 C543.998486,509.35578 542.279721,510.304536 540.848689,509.35578 C539.415112,508.407024 537.981534,504.804281 536.838236,505.183784 C535.689846,505.560756 534.258815,513.436695 536.838236,513.436695 C539.415112,513.436695 541.803559,512.391799 542.468148,513.436695 C543.13783,514.481592 540.751929,518.749729 540.848689,519.981847 C540.942903,521.216494 542.233887,527.146852 543.759132,530.182871 C545.286924,533.21889 545.763085,535.875407 546.717955,536.44466 C547.181385,536.720432 547.464027,538.00062 547.548055,539.58947 C546.720501,539.951262 545.908226,540.280164 545.195256,540.530636 C541.673697,541.750104 541.490362,539.437669 538.913487,537.256795 C538.210703,536.659711 537.431529,536.163828 536.519947,535.910827 C534.630578,535.384583 533.726634,535.536384 532.626624,535.718546 C531.918748,535.837456 531.111565,535.974077 529.762015,535.877937 C528.061074,535.756496 527.004352,535.020261 525.300864,533.836214 C523.984417,532.920348 522.308939,531.756541 519.754981,530.413102 C515.337117,528.088018 512.974133,528.48017 511.690788,528.604141 C511.382683,528.558601 511.268099,528.391619 511.265553,528.386559 C510.939624,528.143678 509.13683,524.518165 507.318758,520.604231 C505.37337,516.411994 503.496733,512.100847 503.496733,511.622674 C503.496733,511.159681 503.570576,510.405736 503.657151,509.510111 C503.797198,508.085712 503.972894,506.314701 503.972894,504.743561 C503.972894,502.426066 501.923107,501.699952 500.051563,501.039617 C499.262204,500.761316 498.51104,500.495664 498.230944,500.192062 C497.660569,499.564618 495.371428,496.007416 493.049185,492.389493 C490.83898,488.953731 488.593126,485.459779 487.661173,484.245372 C486.976213,483.349746 485.629211,481.163812 484.098873,478.671747 C481.493988,474.4365 478.356923,469.333458 476.699269,467.767378 C475.202033,466.350569 471.117737,462.783247 467.794791,460.0989 C465.416529,458.171028 463.341278,456.668198 462.64868,456.602418 C462.37877,456.574588 461.20237,456.351946 459.605828,456.053405 C454.986805,455.185609 446.925158,453.67772 445.318431,454.074932 L445.315885,454.074932 C444.266801,454.332994 442.792482,454.952848 441.430202,455.681492 C440.118847,456.377247 438.888975,457.181792 438.186191,457.880076 C437.539426,458.52776 436.681316,459.853488 435.902143,461.242467 C434.957458,462.924928 434.101895,464.751599 433.885458,465.535904 C433.699576,466.219008 432.339842,468.566863 431.023395,470.398595 C430.25186,471.471322 429.640744,472.336587 429.638197,472.334057 C429.004164,472.194906 419.918897,467.866049 412.229013,463.800313 C407.655823,461.381618 403.622454,459.076774 402.260173,457.849716 C400.126357,455.926904 399.869179,453.611939 399.627279,451.405765 C399.464314,449.928236 399.306443,448.493717 398.667317,447.124978 C398.033283,445.76636 397.327953,444.086429 396.676095,442.522879 C395.728864,440.263575 394.88094,438.242093 394.384408,437.584288 C393.966811,437.030215 389.413992,433.364222 384.868813,429.82979 C380.608821,426.515469 376.310634,423.277048 375.391413,422.791285 C374.805759,422.477563 374.337236,422.265042 373.853436,422.039871 L373.848343,422.039871 C372.628656,421.478207 371.281653,420.855823 369.048531,419.292273 C367.439258,418.168946 366.278136,416.762257 365.246877,415.50737 C364.235988,414.285372 363.334591,413.194935 362.19384,412.499181 C360.999616,411.775596 353.587281,411.598495 346.009435,411.760416 C337.807741,411.937517 329.262294,412.511831 328.129181,413.215175 C326.530093,414.209471 326.244905,417.326451 326.025922,419.788156 C325.91643,420.974734 325.824763,421.97156 325.72291,422.108181 C325.389342,422.553464 290.542963,422.259982 279.886617,422.166371 L276.892146,422.143601 C275.708108,422.143601 274.417124,422.032281 273.095584,421.9159 C271.674738,421.794459 270.22079,421.667958 268.77448,421.667958 C267.890908,421.667958 258.912586,418.70278 247.769893,414.895106 C228.267634,408.233574 202.348651,399.034436 200.930351,398.439882 C200.023861,398.06291 199.911823,396.54237 199.835434,395.482294 C199.753952,394.321016 199.685201,393.445631 198.68959,393.27865 C198.200697,393.197689 183.910753,393.964284 170.471281,394.682809 C161.958935,395.138211 153.79289,395.575904 149.754427,395.768185 C147.355795,389.096533 147.852327,387.193961 146.55625,383.335687 C145.219433,379.350912 145.219433,379.917636 141.590928,376.884147 C137.962423,373.848128 135.05198,371.712794 132.663533,371.239681 C130.277632,370.764038 126.458153,372.190967 125.503283,369.911423 C124.548413,367.634408 125.600043,363.649633 122.539368,363.745774 C119.486331,363.839385 117.864325,365.261254 115.761066,363.553493 C113.660352,361.848262 112.326081,358.523821 109.076978,357.764816 C105.830421,357.008342 106.405889,355.583943 103.062572,355.014689 C99.721801,354.445435 93.228687,354.541576 89.9795836,353.876182 C86.7330266,353.213318 82.7251202,353.969793 81.8644643,351.505557 C81.0038084,349.036261 82.5341462,346.096383 81.8644643,344.00912 C81.1947823,341.921857 82.5341462,342.49111 80.0489387,339.26534 C77.5662774,336.03957 71.6715484,330.038372 68.2823976,326.385029 C64.8907004,322.734216 61.3105755,317.135291 59.304076,315.237779 C57.3001228,313.340267 55.8690914,313.054375 55.8690914,310.256178 C55.8690914,307.45545 54.1732428,307.905793 55.8920082,305.676849 C57.6082274,303.450435 59.3753729,304.634482 58.6114772,302.170247 C57.8475814,299.700951 58.4688833,298.468833 56.0829822,297.186115 C53.6945347,295.905927 46.8194728,294.435988 46.3433111,292.586546 C45.8646031,290.734575 44.1942177,289.074884 44.1000039,286.511978 C44.0032438,283.954132 43.3335618,281.105334 44.5736193,280.252719 C45.8187694,279.397573 45.6252491,281.105334 47.3440146,283.098987 C49.0627801,285.090109 53.4577271,288.40949 54.2190765,286.987621 C54.9829723,285.563222 50.3053839,281.295085 49.253754,279.397573 C48.2046705,277.500062 47.0588268,276.265414 48.1079104,275.316658 C49.1595402,274.367902 53.0732328,274.367902 56.3223362,274.560183 C59.5663469,274.749934 59.3779192,273.419146 61.9573406,273.801178 C64.5316693,274.178151 66.825903,276.265414 67.2078508,274.466572 C67.5872524,272.662671 61.8580342,267.253497 59.8515346,268.392004 C57.8475814,269.530511 59.663107,272.280639 56.5133101,270.765159 C53.3609669,269.24715 52.3093371,267.72661 51.6422014,268.485615 C50.9725195,269.24715 51.4537738,271.713915 49.5414881,270.479267 C47.6317487,269.24715 46.2949311,267.349638 43.90903,268.961258 C41.5205825,270.572878 43.7155097,273.419146 43.1451342,274.466572 C42.5696661,275.508939 40.2805251,276.171803 38.7501872,274.274291 C37.224942,272.376779 36.3642861,275.415328 34.2635728,274.466572 C32.1603131,273.517817 34.5513068,271.901136 32.9267552,268.867647 C31.3022035,265.829098 21.1347509,256.012636 20.083121,252.974087 C19.0314912,249.938068 19.4134391,249.085453 18.9372774,246.143044 C18.4585694,243.200636 18.7463034,240.926152 18.9372774,238.552997 C19.1282513,236.182372 18.8430636,235.043865 15.2145587,228.782075 C11.5835075,222.517756 6.28461715,217.918187 7.14527305,215.737313 C8.00338263,213.551379 11.6344338,210.897393 12.7777312,209.283243 C13.9235748,207.671622 14.7842307,205.961332 12.7777312,205.77411 C10.7737779,205.584359 9.72469442,209.569134 8.76982471,206.533115 C7.81495501,203.497096 10.1983098,201.789335 10.8679918,197.235307 C11.5376737,192.678748 10.0098822,187.934968 10.104096,184.99509 C10.1983098,182.052681 12.5867572,182.720605 10.2950699,180.157699 C8.00338263,177.594793 4.28066393,177.501183 5.9994294,173.420267 C7.71819488,169.341881 9.86474198,169.19767 6.7149451,164.739782 C3.56514823,160.281894 0.41280503,161.324261 3.08644021,158.761355 C5.76007539,156.200979 12.7293511,150.508443 11.0131319,148.42118 C9.29436647,146.333917 8.52792439,150.225081 7.28786693,148.041677 C6.04526315,145.860804 9.19760634,146.521138 10.34345,142.15939 C11.4892936,137.795113 13.3531993,127.308197 13.3531993,119.151426 C13.3531993,110.992124 15.0694185,106.627847 15.0694185,98.848048 C15.0694185,91.068249 13.7351472,85.7552156 14.308069,81.3909382 C14.8784445,77.0266607 14.7587675,80.9886656 18.6750065,81.5098489 C22.5912454,82.0310322 25.4558546,82.4586049 28.5572714,80.4194121 C31.6612345,78.3802192 30.2302031,77.8565059 27.5081879,77.9981868 C24.7861726,78.1423977 20.2995581,77.7603653 19.0569544,77.0494309 C17.8168969,76.3384964 13.0883821,76.1512752 13.6129239,74.6307357 C14.140012,73.1152561 16.1923452,72.9710452 16.0497514,71.3113548 C15.9071575,69.6491343 15.4768295,68.4170166 16.8136471,67.6099415 C18.1479184,66.8028664 18.9627406,66.7092558 18.9627406,66.091932 C18.9627406,65.4746081 12.9687051,65.0242652 13.1138453,63.6479366 C13.2564392,62.2716079 14.1145488,62.0363164 15.8816943,61.0394902 C17.6488398,60.0451939 19.3676053,59.4759403 18.4127356,58.620795 C17.4578659,57.7656496 13.3990331,56.0578888 12.9687051,57.4822878 C12.5383772,58.9041567 11.2499396,62.8433915 11.0131319,59.9490533 C10.7737779,57.0547151 11.7744814,55.2533438 10.7737779,53.0724701 C9.77052817,50.8865363 9.10339253,50.7473854 6.61818497,44.7664278 C4.13552373,38.7905302 1.74962262,36.8930183 0.985726855,32.0556279 C0.219284769,27.2157074 -0.638824809,26.0772003 0.700539102,24.7489419 C2.03481037,23.4206836 5.85428921,26.9323457 11.2041059,28.3542146 C16.5488299,29.7786136 15.6907204,31.1068719 20.561829,30.0619753 C25.4303914,29.0196088 28.1040266,27.4054586 30.2989537,28.9234682 C32.4964272,30.4414777 33.069349,32.0530979 35.4552502,32.3389897 C37.8436976,32.6248815 37.8436976,31.0107313 38.9895412,31.4838443 C40.1353849,31.9594873 40.7083067,33.9531398 40.5173328,35.4711494 C40.3263588,36.9891589 38.8953274,38.9802814 37.8436976,38.6969197 C36.7946141,38.4110279 34.8848746,36.9891589 34.3094065,37.9379149 C33.7364847,38.8866708 27.8162925,48.8498735 30.2989537,48.9434841 C32.781615,49.0370947 36.6978539,46.380578 36.3159061,48.7537329 C35.9339582,51.1243578 32.9751352,53.0218697 32.9751352,54.4462687 C32.9751352,55.8681377 34.4061666,56.4399212 35.6462241,56.5335318 C36.8888279,56.6271424 39.5624631,57.196396 41.1844684,56.0578888 C42.8090201,54.9193817 46.7227127,52.4551462 47.2014207,49.6088783 C47.6775824,46.7626104 45.3884414,43.8176719 45.8646031,41.0700746 C46.3433111,38.3174173 50.3537639,34.5223934 49.9692697,32.9082432 C49.5873218,31.2940931 47.6775824,34.0467504 46.8194728,30.7273695 C45.9588169,27.4054586 47.7743425,25.4143361 45.767843,25.6976979 C43.7638898,25.9835897 43.190968,29.0196088 41.2812285,27.1220969 C39.3714891,25.2245849 40.5173328,24.0860778 42.0451243,22.7552894 C43.5729158,21.4295611 45.0039472,19.9090215 45.1007074,18.0115096 C45.1949212,16.1139976 43.0483741,17.4903263 41.5180362,15.0260908 C40.2677935,13.0046081 41.1946537,10.284841 40.1532091,8.94646255 L588.808612,8.94646255 L588.84426,8.0331268 C588.84426,8.01541669 589.075975,1.82193774 589.72274,0.0104463444 C589.788945,-0.0148538147 590.051216,0.00791632849 590.422978,0.0559866308 C591.082475,0.139477156 591.917668,0.387418715 592.768138,0.70620072 C594.63459,1.4019551 596.493403,2.38107125 596.93137,2.70491329 C596.967019,2.73274347 597.168178,4.24569298 597.415171,6.11790476 C597.90661,9.82437807 598.555922,14.7275489 600.59807,15.9293065 C602.156417,16.8426422 605.339316,18.2847513 608.354158,19.2638674 C610.633114,20.0026321 612.85605,20.4909252 614.320184,20.3239441 C615.522047,20.1873232 617.037107,19.9267316 618.720224,19.6383098 C621.393859,19.1803769 624.500368,18.6465436 627.410811,18.4314922 C629.659211,18.2645111 632.014556,18.7452142 633.980315,19.354948 C635.986814,19.9748019 637.568079,20.7186266 638.255585,21.0576487 L638.255585,21.0601787 C638.497485,21.1816195 638.881979,22.4567475 639.299576,23.8482563 C640.017638,26.2441813 640.819728,28.9158781 642.711643,29.21189 C644.639207,29.5129619 645.662827,28.1998836 646.627882,26.9627059 C647.068396,26.4010423 647.491085,25.8596189 647.850116,25.720468 L647.855208,25.720468 C648.341555,25.5357769 649.013783,25.4877066 649.719114,25.5155368 C650.842041,25.558547 652.036264,25.7988985 652.75178,25.9684096 C652.884189,26.0012998 653.686279,27.147397 654.615686,28.4756554 C656.441397,31.0815718 658.669426,34.2592717 660.650462,33.659658 C661.39908,33.4319565 662.977798,32.7260821 664.856982,31.8886468 C668.650997,30.1910062 673.751275,27.9139918 674.415864,28.2175937 C674.652672,28.3238544 674.820729,28.9335883 675.004064,29.5913924 C675.434392,31.1473522 675.920739,32.8829431 678.263352,33.2169052 C680.048322,33.4699068 687.065978,34.1808413 692.899595,34.623594 C693.541268,34.6716643 694.160023,34.7146746 694.766047,34.7551549 C689.148867,36.8955483 675.528605,43.7164712 674.133223,44.6955874 C672.508671,45.8340945 670.502171,48.5842218 667.449135,50.5778744 C664.391005,52.5689969 657.706917,57.4114474 655.891392,58.7371757 C654.080959,60.065434 650.06796,63.6707067 650.355694,64.2399603 C650.640881,64.8092139 654.936522,66.0438616 657.610157,65.4746081 C660.286339,64.9028245 662.86576,63.4809555 665.918797,62.3424484 C668.97438,61.2064712 671.838989,60.3513258 674.033916,60.065434 C676.23139,59.7820723 676.997832,60.4449364 676.422364,61.962946 C675.849442,63.4809555 674.133223,64.4322415 675.182306,65.2848569 C676.23139,66.1374722 680.817311,67.847763 683.391639,68.2247354 C685.971061,68.6042378 692.942883,64.5258521 696.665601,63.1039832 C700.390866,61.6770542 702.873528,61.7731948 707.074954,58.9269269 C711.273835,56.080659 717.766949,53.0446399 718.342417,53.1382505 C718.912792,53.2343911 721.44638,56.5082317 721.637354,57.9301006 C721.825782,59.3519696 719.536641,63.8123876 721.637354,64.3816412 C723.735521,64.9508948 726.121422,60.3032555 728.797604,60.1135044 C731.471239,59.9237532 734.335848,60.8725091 737.009483,62.8636316 C739.683118,64.8572842 735.769426,65.0470354 741.689618,68.1766651 C747.607264,71.3088248 747.51305,70.1703176 750.759607,71.3088248 C754.006164,72.4473319 756.392065,74.3448439 758.586992,73.3960879 C760.787012,72.4473319 762.790965,70.1703176 765.27108,68.7459186 C767.756288,67.3240497 772.291282,68.318346 776.589469,67.2759794 C780.88511,66.2336128 786.902062,64.5233221 789.382177,64.5233221 C791.867384,64.5233221 792.152572,64.3361009 792.343546,66.3272234 C792.537066,68.318346 789.955099,68.6978483 793.968098,68.9837401 C794.917875,69.0495206 795.699595,69.0419305 796.369277,69.0242204 C796.597172,69.5479337 796.842256,70.0539369 797.118531,70.519776 C797.394807,70.9856152 797.702275,71.4112904 798.05494,71.7743477 C798.319757,72.0475894 798.607491,72.2854109 798.910503,72.4903422 C799.274627,72.1943303 800.224404,71.7945878 799.88829,70.5953603 C799.379026,68.7863989 798.523463,68.9635 796.369277,69.0242204 C796.597172,69.5479337 796.842256,70.0539369 797.118531,70.519776 Z M813.226547,82.3849182 C812.642166,82.315659 812.096617,82.2549386 811.626822,82.2030733 C811.276703,82.165123 810.965415,82.1316003 810.702826,82.1009239 Z M1077.16463,194.070257 C1078.88085,193.02789 1080.41119,194.735651 1080.31443,196.443412 C1080.21767,198.151173 1078.78663,197.199887 1077.735,197.199887 C1076.68592,197.199887 1073.34515,197.958891 1072.48449,197.488308 C1071.62638,197.012665 1074.49099,195.684407 1077.16463,194.070257 Z M1043.40808,204.268751 C1043.98354,205.409788 1051.81347,202.846882 1051.42898,203.985389 C1051.04958,205.123896 1044.55392,206.264934 1040.92541,207.874024 C1037.29946,209.488174 1036.24528,209.771536 1032.81029,210.343319 C1029.37276,210.910043 1025.36231,211.575437 1023.54679,212.240831 C1021.73126,212.903695 1019.05762,213.756311 1015.43167,213.566559 C1011.80316,213.376808 1014.76198,212.144691 1015.04972,210.816432 C1015.33745,209.488174 1017.91433,208.91892 1019.25114,207.021408 C1022.97641,203.795638 1024.98036,206.166263 1028.13016,206.264934 C1031.27996,206.358544 1033.95614,205.409788 1037.6814,203.889249 C1041.40412,202.371239 1042.26478,200.85576 1043.88678,200.759619 C1045.50879,200.666008 1042.83515,203.130244 1043.40808,204.268751 Z M122.15742,387.130711 C122.638674,384.390704 128.370439,389.668317 127.912101,390.806824 C127.672747,391.398848 124.520404,391.449448 123.708128,391.115486 C122.895852,390.784054 121.966446,388.221148 122.15742,387.130711 Z M97.9622944,363.019659 C98.5352162,359.510527 107.225804,364.823561 106.747096,365.676176 C106.270934,366.531322 101.687559,366.531322 100.157222,366.624932 C98.6319764,366.718543 98.4410024,365.299204 97.9622944,363.019659 Z M1087.47468,196.15752 C1088.64089,195.879218 1089.58303,196.256191 1089.90641,196.354861 C1090.22979,196.451002 1090.72378,198.910177 1089.86312,200.238436 C1089.00501,201.566694 1087.57398,200.046154 1085.94943,199.28968 C1084.32488,198.530675 1086.04364,197.199887 1087.47468,196.15752 Z M90.8020448,363.401692 C92.4240501,364.444058 93.4731336,365.392814 92.9969719,366.24796 C92.5182639,367.100575 88.9865191,369.281449 88.3193835,368.522444 C87.6497016,367.763439 87.1735399,364.444058 87.8432218,363.305551 C88.5078111,362.169574 88.8923053,362.926049 90.8020448,363.401692 Z" id="Fill-9"></path>
                </g>
            </g>
        </g>
    </g>
</svg>