<svg version="1.1" id="el_FSGXU1fNT" xmlns="http://www.w3.org/2000/svg" xmlns:xlink="http://www.w3.org/1999/xlink" x="0px" y="0px" viewBox="0 0 2191 500" style="enable-background:new 0 0 2191 500;" xml:space="preserve"><style>@-webkit-keyframes kf_el_nc9hEg3JbY_an__D4pusI_F{0%{opacity: 0;}25%{opacity: 1;}50%{opacity: 0;}100%{opacity: 0;}}@keyframes kf_el_nc9hEg3JbY_an__D4pusI_F{0%{opacity: 0;}25%{opacity: 1;}50%{opacity: 0;}100%{opacity: 0;}}#el_FSGXU1fNT *{-webkit-animation-duration: 2s;animation-duration: 2s;-webkit-animation-iteration-count: infinite;animation-iteration-count: infinite;-webkit-animation-timing-function: cubic-bezier(0, 0, 1, 1);animation-timing-function: cubic-bezier(0, 0, 1, 1);}#el_qBtC8iUf5t{fill: #39424E;}#el_lbR15oVo-c{fill: #39424E;}#el_9mn6q7Rj08{fill: #39424E;}#el__bllG4elXW{fill: #39424E;}#el_LxyjgKKPew{fill: #39424E;}#el_H5-NeOjn1y{fill: #39424E;}#el_wIWtjUcUFr{fill: #39424E;}#el_3umkBNSIo4{fill: #39424E;}#el_ERRfCRonPj{fill: #39424E;}#el_KVfyLHR9aM{fill: #39424E;}#el_nc9hEg3JbY{fill: #32C766;-webkit-animation-fill-mode: backwards;animation-fill-mode: backwards;opacity: 0;-webkit-animation-name: kf_el_nc9hEg3JbY_an__D4pusI_F;animation-name: kf_el_nc9hEg3JbY_an__D4pusI_F;-webkit-animation-timing-function: cubic-bezier(0, 0, 0.58, 1);animation-timing-function: cubic-bezier(0, 0, 0.58, 1);}</style>

<g id="el_TS15VPUHmt">
	<g id="el_QxmMwXhtAU">
		<g id="el_rL_TKHcaHa">
			<path d="M294,148.6h-44.3c-1.7,0-3.1,1.4-3.1,3.1v72.5h-47.4v-72.5c0-1.7-1.4-3.1-3.1-3.1h-44.3&#10;&#9;&#9;&#9;&#9;c-1.7,0-3.1,1.4-3.1,3.1v196.6c0,1.7,1.4,3.1,3.1,3.1H196c1.7,0,3.1-1.4,3.1-3.1v-78.9h47.4v78.9c0,1.7,1.4,3.1,3.1,3.1H294&#10;&#9;&#9;&#9;&#9;c1.7,0,3.1-1.4,3.1-3.1V151.7C297.1,150,295.7,148.6,294,148.6z" id="el_qBtC8iUf5t"/>
			<path d="M401.2,192c-13.1,0-25.9,2-37.9,5.9c-11.9,3.9-23.2,8.8-33.6,14.7c-1.5,0.8-2,2.7-1.2,4.2l15.7,28.9&#10;&#9;&#9;&#9;&#9;c0.8,1.5,2.7,2.1,4.2,1.3c8.2-4.1,16.1-7.5,23.3-9.9c7-2.4,14-3.6,20.8-3.6c9.5,0,16.6,1.7,21.2,5.1c3.6,2.7,5.9,6.1,7,10.5&#10;&#9;&#9;&#9;&#9;c-16.3,1.1-30.5,2.9-42.2,5.4c-12.7,2.8-23.3,6.5-31.5,11c-8.4,4.7-14.6,10.5-18.5,17.3c-3.9,6.8-5.8,14.8-5.8,23.7&#10;&#9;&#9;&#9;&#9;c0,6.8,1.3,13.2,3.7,19c2.5,5.8,6,10.9,10.5,15.3c4.5,4.4,10,7.9,16.5,10.3c6.4,2.4,13.6,3.7,21.6,3.7c10,0,19.9-2.1,29.3-6.1&#10;&#9;&#9;&#9;&#9;c8.1-3.5,15.7-7.8,22.7-12.8l2.5,12.8c0.3,1.5,1.6,2.5,3.1,2.5h36.2c1.7,0,3.1-1.4,3.1-3.1v-85.6c0-23.7-6.4-41.6-19.1-53.3&#10;&#9;&#9;&#9;&#9;C440.1,197.8,422.8,192,401.2,192z M421.3,301.8c-4.7,3.5-9.6,6.4-14.8,8.8c-5.4,2.5-11.2,3.8-17.4,3.8c-5.8,0-10.4-1-13.6-3&#10;&#9;&#9;&#9;&#9;c-2.8-1.7-4.1-4.3-4.1-8c0-2.6,0.7-5.1,2.1-7.4c1.4-2.3,4-4.4,7.6-6.2c4-2,9.5-3.7,16.4-5c6.4-1.2,14.3-2.2,23.7-2.8V301.8z" id="el_lbR15oVo-c"/>
			<path d="M631.8,300.2c-0.5-0.7-1.2-1.2-2.1-1.4c-0.8-0.2-1.7,0-2.4,0.5c-5,3.7-10.8,6.9-17.2,9.6&#10;&#9;&#9;&#9;&#9;c-6.2,2.6-13.1,4-20.5,4c-11.7,0-20.9-3.5-28.1-10.5c-7.2-7.1-10.7-16.5-10.7-28.8c0-12.3,3.6-21.7,11.1-28.8&#10;&#9;&#9;&#9;&#9;c7.4-7,17.2-10.6,29.2-10.6c10.3,0,20.9,3.8,31.3,11.2c1.4,1,3.3,0.7,4.3-0.7l20.5-27.4c1-1.3,0.8-3.1-0.4-4.2&#10;&#9;&#9;&#9;&#9;c-6.7-6-15.1-11.1-24.9-15.1c-19.4-7.8-45.3-7.9-67.1-0.5c-10.8,3.6-20.4,8.9-28.6,15.8c-8.2,6.9-14.9,15.5-19.8,25.6&#10;&#9;&#9;&#9;&#9;c-4.9,10.1-7.4,21.8-7.4,34.7c0,12.8,2.2,24.5,6.6,34.6c4.4,10.1,10.6,18.8,18.4,25.7c7.8,6.9,17,12.2,27.4,15.8&#10;&#9;&#9;&#9;&#9;c10.3,3.6,21.7,5.5,33.9,5.5c10.5,0,21.5-1.8,32.8-5.4c11.3-3.6,21.7-9.5,31.1-17.3c1.2-1,1.5-2.8,0.6-4.1L631.8,300.2z" id="el_9mn6q7Rj08"/>
			<path d="M774.1,260.5l55-59.6c0.8-0.9,1.1-2.2,0.6-3.4c-0.5-1.1-1.6-1.9-2.9-1.9h-48.5c-0.9,0-1.7,0.4-2.3,1&#10;&#9;&#9;&#9;&#9;l-50.6,54.2v-99.2c0-1.7-1.4-3.1-3.1-3.1h-44.3c-1.7,0-3.1,1.4-3.1,3.1v196.6c0,1.7,1.4,3.1,3.1,3.1h44.3c1.7,0,3.1-1.4,3.1-3.1&#10;&#9;&#9;&#9;&#9;v-35.8l18.6-18.1l36.8,55.6c0.6,0.9,1.6,1.4,2.6,1.4h47.9c1.2,0,2.2-0.7,2.8-1.7c0.5-1,0.5-2.3-0.2-3.2L774.1,260.5z" id="el__bllG4elXW"/>
			<path d="M972.2,213.5L972.2,213.5c-6.1-6.8-13.9-12.1-23.1-15.9c-9.2-3.8-19.8-5.7-31.6-5.7&#10;&#9;&#9;&#9;&#9;c-10.4,0-20.6,1.9-30.2,5.6c-9.7,3.7-18.4,9.2-25.9,16.2c-7.5,7-13.6,15.6-18.1,25.6c-4.5,10-6.8,21.5-6.8,34.1&#10;&#9;&#9;&#9;&#9;c0,12.9,2.3,24.4,6.8,34.4c4.5,10,10.7,18.6,18.4,25.6c7.7,7,16.9,12.4,27.3,16c10.3,3.6,21.6,5.5,33.6,5.5&#10;&#9;&#9;&#9;&#9;c10.3,0,21-1.6,31.6-4.8c10.7-3.2,20.5-7.6,29.1-13.2c1.4-0.9,1.8-2.7,1.1-4.1L970,306.4c-0.8-1.5-2.7-2.1-4.2-1.3&#10;&#9;&#9;&#9;&#9;c-6.4,3.3-12.7,5.8-18.6,7.5c-5.8,1.6-12.1,2.4-18.6,2.4c-10.4,0-19.3-2.4-26.6-7.2c-6.3-4.1-10.5-10.4-12.9-19.1h96.8&#10;&#9;&#9;&#9;&#9;c1.5,0,2.7-1,3.1-2.5c0.4-1.9,0.8-4.5,1.3-8c0.4-3.4,0.6-7.3,0.6-11.4c0-10.5-1.6-20.5-4.7-29.5&#10;&#9;&#9;&#9;&#9;C983,228.3,978.3,220.2,972.2,213.5z M888.5,255c1.9-7.3,5.3-12.9,10.2-16.5c5.8-4.3,12.3-6.5,19.7-6.5c9.2,0,15.9,2.4,19.9,7&#10;&#9;&#9;&#9;&#9;c3.5,4.2,5.6,9.5,6.1,15.9H888.5z" id="el_LxyjgKKPew"/>
			<path d="M1159.9,198.3c-4.6-2.1-9.1-3.7-13.4-4.7c-4.3-1.1-10-1.6-16.9-1.6c-12.5,0-24.4,3.1-35.3,9.3&#10;&#9;&#9;&#9;&#9;c-9,5.1-17,12.6-23.9,22.2l-2.8-25.1c-0.2-1.6-1.5-2.8-3.1-2.8h-36.2c-1.7,0-3.1,1.4-3.1,3.1v149.5c0,1.7,1.4,3.1,3.1,3.1h44.3&#10;&#9;&#9;&#9;&#9;c1.7,0,3.1-1.4,3.1-3.1v-77.1c6.1-12.5,13.3-21.4,21.5-26.4c8.4-5.1,17-7.7,25.7-7.7c5.4,0,9.9,0.3,13.4,1&#10;&#9;&#9;&#9;&#9;c3.6,0.7,7.7,1.7,12.2,3.1c0.8,0.3,1.7,0.1,2.5-0.3c0.7-0.4,1.3-1.1,1.5-2l9-37.1C1162,200.4,1161.3,198.9,1159.9,198.3z" id="el_H5-NeOjn1y"/>
			<path d="M1300.6,271c9.5-4.8,17.4-11.7,23.5-20.6c6.8-9.8,10.2-22.4,10.2-37.5c0-12.1-2.1-22.4-6.4-30.7&#10;&#9;&#9;&#9;&#9;c-4.3-8.3-10.1-15-17.5-20c-7.2-4.9-15.7-8.5-25.2-10.6c-9.3-2-19.4-3.1-30.1-3.1h-69.6c-1.7,0-3.1,1.4-3.1,3.1v196.6&#10;&#9;&#9;&#9;&#9;c0,1.7,1.4,3.1,3.1,3.1h44.3c1.7,0,3.1-1.4,3.1-3.1v-67.7h18.2l36.8,69.2c0.5,1,1.6,1.7,2.8,1.7h49.7c1.1,0,2.1-0.6,2.7-1.6&#10;&#9;&#9;&#9;&#9;c0.6-1,0.6-2.2,0-3.1L1300.6,271z M1251.6,239H1233v-48.9h18.6c11.2,0,19.7,1.8,25.1,5.2c5.1,3.2,7.6,9,7.6,17.5&#10;&#9;&#9;&#9;&#9;C1284.3,230.7,1273.9,239,1251.6,239z" id="el_wIWtjUcUFr"/>
			<path d="M1430.8,192c-13.1,0-25.9,2-37.9,5.9c-11.9,3.9-23.2,8.8-33.6,14.7c-1.5,0.8-2,2.7-1.2,4.2l15.7,28.9&#10;&#9;&#9;&#9;&#9;c0.8,1.5,2.7,2.1,4.2,1.3c8.2-4.1,16.1-7.5,23.3-9.9c7-2.4,14-3.6,20.8-3.6c9.5,0,16.6,1.7,21.2,5.1c3.6,2.7,5.9,6.1,7,10.5&#10;&#9;&#9;&#9;&#9;c-16.3,1.1-30.5,2.9-42.2,5.4c-12.7,2.8-23.3,6.5-31.5,11c-8.4,4.7-14.6,10.5-18.5,17.3c-3.9,6.8-5.8,14.8-5.8,23.7&#10;&#9;&#9;&#9;&#9;c0,6.8,1.3,13.2,3.7,19c2.5,5.8,6,10.9,10.5,15.3c4.5,4.4,10,7.9,16.5,10.3c6.4,2.4,13.6,3.7,21.6,3.7c10,0,19.9-2.1,29.3-6.1&#10;&#9;&#9;&#9;&#9;c8.1-3.5,15.7-7.8,22.7-12.8l2.5,12.8c0.3,1.5,1.6,2.5,3.1,2.5h36.2c1.7,0,3.1-1.4,3.1-3.1v-85.6c0-23.7-6.4-41.6-19.1-53.3&#10;&#9;&#9;&#9;&#9;C1469.8,197.8,1452.5,192,1430.8,192z M1450.9,301.8c-4.7,3.5-9.6,6.4-14.8,8.8c-5.4,2.5-11.2,3.8-17.4,3.8c-5.8,0-10.4-1-13.6-3&#10;&#9;&#9;&#9;&#9;c-2.8-1.7-4.1-4.3-4.1-8c0-2.6,0.7-5.1,2.1-7.4c1.4-2.3,4-4.4,7.6-6.2c4-2,9.5-3.7,16.4-5c6.4-1.2,14.3-2.2,23.7-2.8V301.8z" id="el_3umkBNSIo4"/>
			<path d="M1629.4,192c-11.7,0-22.1,2.5-30.9,7.3c-7.2,4-13.7,8.7-19.6,14l-2.5-15c-0.3-1.5-1.6-2.6-3.1-2.6h-36.2&#10;&#9;&#9;&#9;&#9;c-1.7,0-3.1,1.4-3.1,3.1v149.5c0,1.7,1.4,3.1,3.1,3.1h44.3c1.7,0,3.1-1.4,3.1-3.1v-98.5c4.7-4.6,9-8,13.1-10.4&#10;&#9;&#9;&#9;&#9;c4-2.3,8.8-3.5,14.3-3.5c7.1,0,12,1.9,14.6,5.6c2.8,4.1,4.3,10.9,4.3,20.2v86.5c0,1.7,1.4,3.1,3.1,3.1h44.3&#10;&#9;&#9;&#9;&#9;c1.7,0,3.1-1.4,3.1-3.1V256c0-19.5-4.2-35.1-12.4-46.5C1660.7,197.9,1647.3,192,1629.4,192z" id="el_ERRfCRonPj"/>
			<path d="M1873.2,346.5l-59.8-86l55-59.6c0.8-0.9,1.1-2.2,0.6-3.4c-0.5-1.1-1.6-1.9-2.9-1.9h-48.5&#10;&#9;&#9;&#9;&#9;c-0.9,0-1.7,0.4-2.3,1l-50.6,54.2v-99.2c0-1.7-1.4-3.1-3.1-3.1h-44.3c-1.7,0-3.1,1.4-3.1,3.1v196.6c0,1.7,1.4,3.1,3.1,3.1h44.3&#10;&#9;&#9;&#9;&#9;c1.7,0,3.1-1.4,3.1-3.1v-35.8l18.6-18.1L1820,350c0.6,0.9,1.6,1.4,2.6,1.4h47.9c1.2,0,2.2-0.7,2.8-1.7&#10;&#9;&#9;&#9;&#9;C1873.9,348.7,1873.8,347.4,1873.2,346.5z" id="el_KVfyLHR9aM"/>
		</g>
	</g>
	<path d="M2039.3,351.4c1.7,0,3.1-1.4,3.1-3.1V151.7c0-1.7-1.4-3.1-3.1-3.1H1897c-1.7,0-3.1,1.4-3.1,3.1v196.6&#10;&#9;&#9;c0,1.7,1.4,3.1,3.1,3.1H2039.3z" id="el_nc9hEg3JbY"/>
</g>
</svg>